<svg width="22" height="22" version="1.1" xmlns="http://www.w3.org/2000/svg">
 <style id="current-color-scheme" type="text/css">.ColorScheme-Text {
        color:#faf7f5;
      }
      .ColorScheme-Background{
        color:#ffffff;
      }
      .ColorScheme-Highlight{
        color:#c8b29f;
      }
      .ColorScheme-ViewText {
        color:#b19378;
      }
      .ColorScheme-ViewBackground{
        color:#ffffff;
      }
      .ColorScheme-ViewHover {
        color:#c8b29f;
      }
      .ColorScheme-ViewFocus{
        color:#b6997f;
      }
      .ColorScheme-ButtonText {
        color:#b19378;
      }
      .ColorScheme-ButtonBackground{
        color:#ffffff;
      }
      .ColorScheme-ButtonHover {
        color:#c8b29f;
      }
      .ColorScheme-ButtonFocus{
        color:#b6997f;
      }</style>
 <path class="ColorScheme-Text" d="m5 4c-1.108 0-2 0.892-2 2v7c0 1.108 0.892 2 2 2h12c1.108 0 2-0.892 2-2v-7c0-1.108-0.892-2-2-2zm0 1h12c0.554 0 1 0.446 1 1v7c0 0.554-0.446 1-1 1h-12c-0.554 0-1-0.446-1-1v-7c0-0.554 0.446-1 1-1zm10.5 1 1.5 1.5v-1.5zm-10.5 5.5v1.5h1.5zm2.5 4.5c-0.277 0-0.5 0.223-0.5 0.5s0.223 0.5 0.5 0.5h7c0.277 0 0.5-0.223 0.5-0.5s-0.223-0.5-0.5-0.5z" fill="currentColor"/>
</svg>
