<svg xmlns="http://www.w3.org/2000/svg" viewBox="0 0 16 16">
 <g color="#201913" transform="translate(-421.71-531.79)">
  <path fill="#bfa690" d="m425.71 535.79h2v2h-2z"/>
  <path fill="#cfbcac" d="m423.71 539.79h2v2h-2z"/>
  <path fill="#e4dad1" d="m431.71 535.79h2v2h-2z"/>
  <path fill="#b99d84" d="m423.71 535.79h2v2h-2z"/>
  <path fill="#9f7b5c" d="m429.71 535.79h2v2h-2z"/>
  <path fill="#cfbcac" d="m427.71 535.79h2v2h-2z"/>
  <path fill="#e4dad1" d="m427.71 537.79h2v2h-2z"/>
  <path fill="#b99d84" d="m425.71 537.79h2v2h-2z"/>
  <path fill="#9f7b5c" d="m423.71 537.79h2v2h-2z"/>
  <path fill="#cfbcac" d="m431.71 537.79h2v2h-2z"/>
  <path fill="#bfa690" d="m429.71 537.79h2v2h-2z"/>
  <path fill="#e4dad1" d="m431.71 539.79h2v2h-2z"/>
  <path fill="#b99d84" d="m429.71 539.79h2v2h-2z"/>
  <path fill="#9f7b5c" d="m427.71 539.79h2v2h-2z"/>
  <path fill="#bfa690" d="m425.71 539.79h2v2h-2z"/>
  <path fill="#e4dad1" d="m429.71 541.79h2v2h-2z"/>
  <path fill="#b99d84" d="m427.71 541.79h2v2h-2z"/>
  <path fill="#9f7b5c" d="m425.71 541.79h2v2h-2z"/>
  <path fill="#cfbcac" d="m431.71 541.79h2v2h-2z"/>
  <path fill="#e4dad1" d="m425.71 543.79h2v2h-2z"/>
  <path fill="#b99d84" d="m423.71 543.79h2v2h-2z"/>
  <path fill="#9f7b5c" d="m433.71 537.79h2v2h-2z"/>
  <path fill="#b99d84" d="m433.71 539.79h2v2h-2z"/>
  <path fill="#bfa690" d="m423.71 541.79h2v2h-2z"/>
  <path fill="#cfbcac" d="m433.71 535.79h2v2h-2z"/>
  <path fill="#e4dad1" d="m423.71 533.79h2v2h-2z"/>
  <path fill="#b99d84" d="m427.71 533.79h2v2h-2z"/>
  <path fill="#9f7b5c" d="m425.71 533.79h2v2h-2z"/>
  <path fill="#cfbcac" d="m431.71 533.79h2v2h-2z"/>
  <path fill="#bfa690" d="m433.71 533.79h2v2h-2z"/>
  <path fill="#e4dad1" d="m429.71 533.79h2v2h-2z"/>
  <path fill="#9f7b5c" d="m433.71 541.79h2v2h-2z"/>
  <path fill="#e4dad1" d="m431.71 543.79h2v2h-2z"/>
  <path fill="#9f7b5c" d="m429.71 543.79h2v2h-2z"/>
  <g fill="#cfbcac">
   <path d="m427.71 543.79h2v2h-2z"/>
   <path d="m433.71 543.79h2v2h-2z"/>
  </g>
 </g>
</svg>
