<?xml version="1.0" encoding="UTF-8" standalone="no"?>
<svg
   width="64"
   height="64"
   version="1.1"
   id="svg24"
   sodipodi:docname="preferences-system.svg"
   inkscape:version="1.4.2 (ebf0e940d0, 2025-05-08)"
   xmlns:inkscape="http://www.inkscape.org/namespaces/inkscape"
   xmlns:sodipodi="http://sodipodi.sourceforge.net/DTD/sodipodi-0.dtd"
   xmlns:xlink="http://www.w3.org/1999/xlink"
   xmlns="http://www.w3.org/2000/svg"
   xmlns:svg="http://www.w3.org/2000/svg">
  <sodipodi:namedview
     id="namedview24"
     pagecolor="#ffffff"
     bordercolor="#000000"
     borderopacity="0.25"
     inkscape:showpageshadow="2"
     inkscape:pageopacity="0.0"
     inkscape:pagecheckerboard="0"
     inkscape:deskcolor="#d1d1d1"
     inkscape:zoom="13.40625"
     inkscape:cx="32.037296"
     inkscape:cy="32"
     inkscape:window-width="1692"
     inkscape:window-height="887"
     inkscape:window-x="0"
     inkscape:window-y="0"
     inkscape:window-maximized="0"
     inkscape:current-layer="svg24" />
  <defs
     id="defs14">
    <filter
       id="k"
       width="1.0024404"
       height="1.0024404"
       x="-0.0012202092"
       y="-0.0012201869"
       color-interpolation-filters="sRGB">
      <feGaussianBlur
         stdDeviation="0.022795789"
         id="feGaussianBlur1" />
    </filter>
    <filter
       id="l"
       width="1.0024781"
       height="1.0024404"
       x="-0.0012390656"
       y="-0.0012201976"
       color-interpolation-filters="sRGB">
      <feGaussianBlur
         stdDeviation="0.022795789"
         id="feGaussianBlur2" />
    </filter>
    <filter
       id="i"
       width="1.0038393"
       height="1.0038393"
       x="-0.0019196454"
       y="-0.0019196454"
       color-interpolation-filters="sRGB">
      <feGaussianBlur
         stdDeviation="0.022795789"
         id="feGaussianBlur3" />
    </filter>
    <filter
       id="h"
       width="1.0039848"
       height="1.0038393"
       x="-0.0019924212"
       y="-0.0019196401"
       color-interpolation-filters="sRGB">
      <feGaussianBlur
         stdDeviation="0.022795789"
         id="feGaussianBlur4" />
    </filter>
    <filter
       id="m"
       width="1.0050331"
       height="1.0043988"
       x="-0.0025165573"
       y="-0.0021994068"
       color-interpolation-filters="sRGB">
      <feGaussianBlur
         stdDeviation="0.022795789"
         id="feGaussianBlur5" />
    </filter>
    <filter
       id="d"
       width="1.0019538"
       height="1.001954"
       x="-0.00097692167"
       y="-0.0009769876"
       color-interpolation-filters="sRGB">
      <feGaussianBlur
         stdDeviation="0.0060312702"
         id="feGaussianBlur6" />
    </filter>
    <filter
       id="c"
       width="1.0024405"
       height="1.0024404"
       x="-0.0012202503"
       y="-0.0012202055"
       color-interpolation-filters="sRGB">
      <feGaussianBlur
         stdDeviation="0.022795789"
         id="feGaussianBlur7" />
    </filter>
    <linearGradient
       id="j"
       x1="-48.492"
       x2="-48.492"
       y1="9.589"
       y2="54.426"
       gradientTransform="translate(80.51 .1)"
       gradientUnits="userSpaceOnUse">
      <stop
         offset="0"
         stop-color="#ffffff"
         id="stop7" />
      <stop
         offset="1"
         stop-color="#ffffff"
         id="stop8" />
    </linearGradient>
    <linearGradient
       id="g"
       x1="-48.508"
       x2="-48.508"
       y1="17.709"
       y2="46.209"
       gradientTransform="translate(80.51 .1)"
       gradientUnits="userSpaceOnUse">
      <stop
         offset="0"
         stop-color="#ffffff"
         id="stop9" />
      <stop
         offset="1"
         stop-color="#f3e9e4"
         id="stop10" />
    </linearGradient>
    <linearGradient
       xlink:href="#a"
       id="e"
       x1="6.745"
       x2="10.583"
       y1="1.058"
       y2="11.312"
       gradientUnits="userSpaceOnUse" />
    <linearGradient
       id="a">
      <stop
         offset="0"
         stop-color="#ffffff"
         id="stop11" />
      <stop
         offset="1"
         stop-color="#ffffff"
         stop-opacity="0"
         id="stop12" />
    </linearGradient>
    <linearGradient
       xlink:href="#a"
       id="f"
       x1="15.081"
       x2="12.7"
       y1="14.816"
       y2="12.171"
       gradientUnits="userSpaceOnUse" />
    <linearGradient
       id="b"
       x1="8.466"
       x2="8.466"
       y1="1.058"
       y2="15.875"
       gradientTransform="scale(3.7796)"
       gradientUnits="userSpaceOnUse">
      <stop
         offset="0"
         stop-color="#f6efeb"
         id="stop13" />
      <stop
         offset="1"
         stop-color="#c99d86"
         id="stop14" />
    </linearGradient>
    <filter
       inkscape:collect="always"
       style="color-interpolation-filters:sRGB"
       id="filter613"
       x="-0.0012202503"
       y="-0.0012202055"
       width="1.0024405"
       height="1.0024404">
      <feGaussianBlur
         inkscape:collect="always"
         stdDeviation="0.022795789"
         id="feGaussianBlur613" />
    </filter>
    <filter
       inkscape:collect="always"
       style="color-interpolation-filters:sRGB"
       id="filter614"
       x="-0.0019196454"
       y="-0.0019197127"
       width="1.0038393"
       height="1.0038394">
      <feGaussianBlur
         inkscape:collect="always"
         stdDeviation="0.022795789"
         id="feGaussianBlur614" />
    </filter>
    <filter
       inkscape:collect="always"
       style="color-interpolation-filters:sRGB"
       id="filter615"
       x="-0.00097696238"
       y="-0.00097696238"
       width="1.0019539"
       height="1.0019539">
      <feGaussianBlur
         inkscape:collect="always"
         stdDeviation="0.022795789"
         id="feGaussianBlur615" />
    </filter>
  </defs>
  <path
     fill="url(#b)"
     d="M 20.26,4 C 14.478,4 10.517,5.725 7.939,8.535 5.374,11.331 4,15.34 4,19.876 V 44.124 C 4,48.662 5.374,52.669 7.939,55.465 10.517,58.275 14.479,60 20.26,60 H 43.809 C 49.591,60 53.552,58.276 56.13,55.465 58.695,52.67 60,49.03 60,44.125 V 20.786 C 60,14.851 58.695,11.33 56.13,8.534 53.552,5.725 49.59,4 43.809,4 H 25.494 Z"
     id="path14"
     style="mix-blend-mode:hard-light;opacity:0.37199777;filter:url(#filter615)" />
  <path
     d="m 22.436,12.724 c -0.366,0.218 -0.496,0.676 -0.33,1.081 l 0.877,2.132 v 0.005 c 0.101,0.344 -0.025,0.652 -0.34,0.844 -0.365,0.222 -0.767,0.145 -1.036,-0.216 h -0.002 l -1.314,-1.717 a 0.87,0.87 0 0 0 -0.947,-0.321 0.8,0.8 0 0 0 -0.226,0.112 c -0.383,0.268 -0.457,0.782 -0.207,1.177 l 1.223,1.93 0.002,0.004 c 0.174,0.344 0.095,0.69 -0.209,0.932 -0.302,0.243 -0.662,0.253 -0.962,0.006 l -0.053,-0.046 -1.606,-1.48 a 0.88,0.88 0 0 0 -0.838,-0.21 0.8,0.8 0 0 0 -0.355,0.21 c -0.33,0.33 -0.314,0.846 0,1.192 l 1.552,1.702 c 0.217,0.291 0.206,0.628 -0.026,0.917 -0.267,0.334 -0.671,0.397 -1.048,0.15 l -0.002,0.003 -1.82,-1.168 a 0.9,0.9 0 0 0 -0.714,-0.118 0.82,0.82 0 0 0 -0.464,0.324 c -0.268,0.383 -0.16,0.89 0.21,1.176 l 1.789,1.38 v 0.002 l 0.006,0.006 10e-4,0.002 c 0.294,0.264 0.345,0.621 0.14,0.959 -0.194,0.319 -0.515,0.456 -0.865,0.35 l -10e-4,-0.001 -2.118,-0.884 a 0.9,0.9 0 0 0 -0.573,-0.046 0.82,0.82 0 0 0 -0.55,0.453 c -0.198,0.424 -0.005,0.905 0.409,1.122 l 2.013,1.057 v 10e-4 h 0.002 l 0.002,-0.002 0.001,0.002 c 0.319,0.198 0.43,0.523 0.308,0.882 -0.137,0.405 -0.492,0.605 -0.93,0.501 l -2.112,-0.474 a 0.9,0.9 0 0 0 -0.416,0.003 0.83,0.83 0 0 0 -0.618,0.594 c -0.12,0.451 0.152,0.891 0.597,1.033 l 2.07,0.66 0.042,0.013 0.027,0.009 c 0.384,0.144 0.562,0.471 0.483,0.867 -0.073,0.363 -0.32,0.598 -0.681,0.621 h -0.003 l -2.305,-0.106 a 1,1 0 0 0 -0.256,0.021 0.84,0.84 0 0 0 -0.659,0.746 c -0.04,0.465 0.304,0.852 0.767,0.915 l 2.17,0.29 q 0.033,0.004 0.065,0.01 h 0.004 c 0.382,0.069 0.607,0.342 0.615,0.729 0.01,0.397 -0.221,0.692 -0.613,0.773 l -0.008,0.003 -2.233,0.288 a 1,1 0 0 0 -0.168,0.036 0.846,0.846 0 0 0 -0.6,0.879 c 0.04,0.465 0.448,0.784 0.915,0.766 l 2.175,-0.09 -10e-4,0.003 c 0.45,-0.026 0.758,0.221 0.823,0.643 0.055,0.36 -0.091,0.662 -0.41,0.81 l -2.224,0.695 c -0.446,0.14 -0.717,0.583 -0.596,1.034 0.121,0.451 0.576,0.697 1.033,0.597 l 2.136,-0.467 10e-4,0.002 c 0.416,-0.1 0.75,0.076 0.899,0.458 0.142,0.366 0.032,0.718 -0.298,0.93 l -2.02,1.042 c -0.415,0.214 -0.605,0.7 -0.408,1.124 0.198,0.424 0.69,0.585 1.122,0.408 l 2.007,-0.825 0.003,0.002 c 0.414,-0.178 0.79,-0.051 0.994,0.324 0.171,0.311 0.143,0.64 -0.09,0.886 l -0.002,10e-4 -1.866,1.423 c -0.372,0.284 -0.475,0.795 -0.207,1.177 0.268,0.383 0.778,0.457 1.173,0.207 l 1.847,-1.167 0.003,0.002 c 0.357,-0.236 0.728,-0.184 1,0.125 0.251,0.286 0.273,0.642 0.055,0.948 l -0.003,0.007 -0.005,0.007 -1.55,1.68 c -0.317,0.344 -0.331,0.865 0,1.196 0.33,0.33 0.846,0.314 1.192,-0.001 l 1.607,-1.463 0.005,0.005 c 0.327,-0.31 0.724,-0.315 1.045,-0.033 0.267,0.234 0.35,0.55 0.214,0.862 v 10e-4 l -0.001,0.001 -1.263,1.972 c -0.253,0.394 -0.176,0.907 0.207,1.175 0.383,0.269 0.889,0.163 1.175,-0.207 l 1.333,-1.726 0.003,0.003 c 0.254,-0.344 0.623,-0.422 0.983,-0.225 0.336,0.185 0.48,0.514 0.376,0.88 h 0.001 l -0.884,2.115 c -0.18,0.431 -0.015,0.924 0.41,1.121 0.423,0.198 0.902,0.007 1.12,-0.407 l 1.007,-1.92 0.006,0.004 c 0.202,-0.403 0.573,-0.547 0.971,-0.392 0.33,0.128 0.514,0.395 0.497,0.73 v 0.003 l -0.515,2.29 c -0.102,0.457 0.146,0.913 0.597,1.034 0.452,0.121 0.892,-0.151 1.034,-0.596 l 0.662,-2.076 0.008,0.002 c 0.12,-0.41 0.439,-0.611 0.844,-0.549 0.377,0.058 0.624,0.315 0.653,0.69 v 0.004 l -0.106,2.297 c -0.021,0.466 0.302,0.874 0.768,0.914 0.466,0.04 0.852,-0.304 0.914,-0.767 l 0.29,-2.15 h 0.007 c 0.053,-0.447 0.351,-0.708 0.778,-0.699 0.353,0.008 0.617,0.195 0.716,0.516 v 0.002 l 0.001,0.002 0.301,2.33 c 0.06,0.463 0.449,0.807 0.914,0.766 0.465,-0.041 0.786,-0.447 0.767,-0.914 l -0.094,-2.307 c 0.026,-0.358 0.259,-0.604 0.62,-0.676 0.42,-0.084 0.761,0.122 0.89,0.553 l 0.646,2.068 c 0.14,0.446 0.583,0.717 1.034,0.596 0.451,-0.121 0.696,-0.578 0.596,-1.035 l -0.462,-2.108 -0.012,-0.065 c -0.07,-0.408 0.127,-0.736 0.512,-0.866 0.35,-0.119 0.666,-0.016 0.865,0.283 l 0.009,0.015 1.06,2.022 c 0.218,0.414 0.696,0.604 1.12,0.407 0.424,-0.197 0.59,-0.69 0.41,-1.121 l -0.837,-2.009 c -0.17,-0.392 -0.043,-0.754 0.308,-0.967 0.334,-0.203 0.688,-0.156 0.952,0.13 l 1.39,1.797 c 0.286,0.37 0.792,0.476 1.175,0.208 0.383,-0.268 0.46,-0.78 0.207,-1.173 l -1.16,-1.815 0.003,-0.002 c -0.248,-0.376 -0.185,-0.78 0.149,-1.047 0.294,-0.235 0.634,-0.245 0.928,-0.017 l 0.002,-10e-4 v 0.002 l 1.683,1.534 c 0.345,0.315 0.862,0.33 1.192,0 0.33,-0.331 0.318,-0.85 10e-4,-1.194 l -1.475,-1.598 -0.03,-0.036 -0.01,-0.01 c -0.253,-0.302 -0.245,-0.665 0,-0.97 0.25,-0.314 0.614,-0.386 0.97,-0.188 l 0.065,0.041 1.825,1.157 c 0.395,0.25 0.907,0.176 1.175,-0.207 0.268,-0.383 0.164,-0.893 -0.208,-1.177 l -1.71,-1.304 0.001,-0.003 c -0.36,-0.27 -0.439,-0.671 -0.217,-1.036 0.198,-0.326 0.523,-0.45 0.882,-0.329 l 0.004,0.003 2.088,0.855 c 0.432,0.178 0.925,0.017 1.123,-0.407 0.197,-0.423 0.006,-0.904 -0.41,-1.119 l -1.994,-1.032 -0.01,-0.005 c -0.327,-0.198 -0.437,-0.536 -0.313,-0.9 0.131,-0.388 0.456,-0.582 0.869,-0.506 l 0.052,0.013 2.111,0.461 c 0.457,0.1 0.914,-0.146 1.035,-0.597 0.121,-0.452 -0.152,-0.894 -0.598,-1.033 l -2.054,-0.643 c -0.431,-0.13 -0.641,-0.481 -0.558,-0.9 0.077,-0.385 0.352,-0.611 0.748,-0.608 l 0.057,10e-4 2.166,0.089 c 0.467,0.019 0.874,-0.302 0.915,-0.767 0.04,-0.466 -0.302,-0.856 -0.765,-0.916 L 51.399,33.83 c -0.355,-0.084 -0.562,-0.36 -0.57,-0.733 -0.01,-0.427 0.251,-0.726 0.699,-0.778 h 0.001 l 2.136,-0.29 c 0.464,-0.062 0.807,-0.45 0.766,-0.915 -0.041,-0.465 -0.446,-0.787 -0.913,-0.765 l -2.216,0.102 h -0.009 c -0.408,-0.006 -0.69,-0.259 -0.752,-0.657 -0.062,-0.405 0.137,-0.724 0.547,-0.845 v -0.003 l 2.065,-0.66 c 0.445,-0.141 0.718,-0.58 0.597,-1.032 -0.121,-0.451 -0.577,-0.7 -1.033,-0.597 l -2.248,0.504 -0.002,10e-4 v -10e-4 h -0.002 c -0.352,0.033 -0.63,-0.156 -0.763,-0.495 -0.155,-0.399 -0.012,-0.767 0.39,-0.97 V 25.69 l 1.91,-1.002 c 0.414,-0.217 0.607,-0.696 0.41,-1.12 a 0.83,0.83 0 0 0 -0.71,-0.479 0.9,0.9 0 0 0 -0.31,0.033 q -0.051,0.016 -0.1,0.037 l -2.08,0.867 -0.012,0.004 c -0.373,0.115 -0.71,-0.026 -0.899,-0.37 -0.197,-0.36 -0.119,-0.727 0.225,-0.981 l -0.006,-0.006 1.722,-1.326 c 0.37,-0.286 0.475,-0.794 0.207,-1.177 a 0.83,0.83 0 0 0 -0.78,-0.348 0.912,0.912 0 0 0 -0.393,0.14 l -1.967,1.261 c -0.312,0.137 -0.631,0.053 -0.866,-0.215 -0.282,-0.321 -0.275,-0.718 0.034,-1.046 l -0.004,-0.007 1.454,-1.595 c 0.315,-0.345 0.332,-0.863 10e-4,-1.193 a 0.83,0.83 0 0 0 -0.83,-0.209 0.9,0.9 0 0 0 -0.364,0.206 l -1.678,1.548 -10e-4,0.001 c -0.308,0.224 -0.668,0.202 -0.957,-0.052 -0.309,-0.27 -0.36,-0.643 -0.124,-1 l -0.005,-0.004 1.163,-1.837 c 0.25,-0.395 0.178,-0.908 -0.205,-1.176 a 0.83,0.83 0 0 0 -0.715,-0.113 0.9,0.9 0 0 0 -0.462,0.32 l -1.415,1.858 c -0.248,0.238 -0.576,0.268 -0.89,0.096 C 41.07,16.6 40.941,16.225 41.12,15.811 l -0.008,-0.005 0.823,-2.001 c 0.177,-0.433 0.017,-0.924 -0.406,-1.121 a 0.8,0.8 0 0 0 -0.405,-0.076 q -0.056,0.003 -0.11,0.012 a 0.89,0.89 0 0 0 -0.605,0.471 l -1.053,2.036 -0.004,0.002 c -0.213,0.311 -0.556,0.413 -0.913,0.274 -0.382,-0.149 -0.56,-0.482 -0.46,-0.898 l -0.005,-0.001 0.465,-2.13 c 0.1,-0.456 -0.145,-0.912 -0.597,-1.033 a 0.8,0.8 0 0 0 -0.41,-0.004 0.88,0.88 0 0 0 -0.623,0.601 l -0.7,2.24 -0.001,0.003 c -0.153,0.301 -0.448,0.44 -0.797,0.386 -0.423,-0.065 -0.672,-0.376 -0.646,-0.825 l -0.008,-0.002 0.089,-2.16 c 0.019,-0.467 -0.3,-0.872 -0.767,-0.913 a 0.8,0.8 0 0 0 -0.332,0.036 0.88,0.88 0 0 0 -0.582,0.731 l -0.296,2.284 v 0.002 c -0.097,0.357 -0.383,0.565 -0.76,0.557 -0.41,-0.01 -0.69,-0.261 -0.739,-0.686 h -0.007 l -0.292,-2.159 c -0.063,-0.463 -0.449,-0.808 -0.914,-0.767 a 0.86,0.86 0 0 0 -0.767,0.914 l 0.099,2.176 c 0.026,0.426 -0.205,0.723 -0.607,0.804 -0.399,0.08 -0.735,-0.106 -0.879,-0.495 L 27.882,14 27.227,11.944 c -0.142,-0.445 -0.58,-0.717 -1.032,-0.596 -0.452,0.121 -0.7,0.576 -0.597,1.032 l 0.474,2.115 c 0.104,0.438 -0.088,0.785 -0.493,0.923 -0.389,0.131 -0.75,-0.004 -0.94,-0.387 l -1.003,-1.94 a 0.866,0.866 0 0 0 -0.962,-0.464 0.8,0.8 0 0 0 -0.238,0.097 z m -1.645,8.956 c 0,0 0.92,-0.578 1.803,-0.437 0.915,0.147 1.665,1.303 1.665,1.303 l 4,6.928 c 0,0 0.8,1.533 0.827,3.64 0.025,1.994 -1.058,3.925 -1.058,3.925 l -3.769,6.526 c 0,0 -0.75,1.158 -1.665,1.304 -0.883,0.141 -1.803,-0.436 -1.803,-0.436 l 0.056,0.101 a 16,16 0 0 1 -4.283,-7.313 16,16 0 0 1 4.227,-15.54 z m 6.966,-4.022 0.12,-0.033 a 16,16 0 0 1 19.596,11.313 l 0.068,0.265 c -0.02,0.352 -0.11,1.06 -0.52,1.563 -0.583,0.72 -1.96,0.79 -1.96,0.79 h -7.537 c 0,0 -2.214,-0.027 -3.93,-1.047 -1.81,-1.076 -2.737,-2.535 -2.737,-2.535 l -4,-6.928 c 0,0 -0.627,-1.228 -0.296,-2.094 0.262,-0.684 0.953,-1.148 1.195,-1.294 z m 3.387,13.903 a 1.75,1.75 0 0 1 2.391,0.64 1.75,1.75 0 0 1 -0.64,2.391 1.75,1.75 0 0 1 -2.391,-0.64 1.75,1.75 0 0 1 0.64,-2.39 m 2.347,4.099 c 1.837,-1.03 3.565,-1.102 3.565,-1.102 l 8.005,-10e-4 c 0,0 1.376,0.07 1.96,0.79 0.425,0.522 0.508,1.268 0.523,1.604 A 16,16 0 0 1 36.159,48.537 16,16 0 0 1 27.765,48.505 l 0.076,-0.001 c 0,0 -0.96,-0.508 -1.279,-1.344 -0.331,-0.865 0.296,-2.092 0.296,-2.092 l 3.83,-6.633 0.004,-0.008 c 0.272,-0.422 1.312,-1.933 2.799,-2.766 z"
     filter="url(#c)"
     opacity="0.2"
     style="mix-blend-mode:hard-light;paint-order:fill markers stroke;opacity:0.95788043;filter:url(#c)"
     id="path15" />
  <g
     filter="url(#d)"
     style="mix-blend-mode:hard-light;opacity:0.95788043;filter:url(#d)"
     transform="scale(3.7796)"
     id="g17">
    <path
       fill="url(#e)"
       d="m 5.36,1.058 c -1.53,0 -2.577,0.457 -3.26,1.2 -0.678,0.74 -1.042,1.8 -1.042,3.001 v 6.415 c 0,1.2 0.364,2.26 1.043,3 0.682,0.744 1.73,1.2 3.26,1.2 h 6.23 c 1.53,0 2.577,-0.456 3.26,-1.2 0.678,-0.739 1.024,-1.702 1.024,-3 V 5.5 c 0,-1.57 -0.346,-2.502 -1.024,-3.242 -0.683,-0.743 -1.73,-1.2 -3.26,-1.2 H 6.745 Z m 0,0.264 h 6.232 c 1.477,0 2.437,0.432 3.064,1.116 0.634,0.69 0.954,1.53 0.954,3.062 v 6.174 c 0,1.251 -0.322,2.134 -0.954,2.822 -0.627,0.684 -1.587,1.114 -3.064,1.114 H 5.359 C 3.882,15.61 2.922,15.18 2.295,14.496 1.67,13.814 1.322,12.821 1.322,11.674 V 5.26 C 1.322,4.112 1.67,3.12 2.295,2.438 2.922,1.754 3.882,1.322 5.359,1.322"
       opacity="0.75"
       id="path16" />
    <path
       fill="url(#f)"
       d="m 5.36,1.058 c -1.53,0 -2.577,0.457 -3.26,1.2 -0.678,0.74 -1.042,1.8 -1.042,3.001 v 6.415 c 0,1.2 0.364,2.26 1.043,3 0.682,0.744 1.73,1.2 3.26,1.2 h 6.23 c 1.53,0 2.577,-0.456 3.26,-1.2 0.678,-0.739 1.024,-1.702 1.024,-3 V 5.5 c 0,-1.57 -0.346,-2.502 -1.024,-3.242 -0.683,-0.743 -1.73,-1.2 -3.26,-1.2 H 6.745 Z m 0,0.264 h 6.232 c 1.477,0 2.437,0.432 3.064,1.116 0.634,0.69 0.954,1.53 0.954,3.062 v 6.174 c 0,1.251 -0.322,2.134 -0.954,2.822 -0.627,0.684 -1.587,1.114 -3.064,1.114 H 5.359 C 3.882,15.61 2.922,15.18 2.295,14.496 1.67,13.814 1.322,12.821 1.322,11.674 V 5.26 C 1.322,4.112 1.67,3.12 2.295,2.438 2.922,1.754 3.882,1.322 5.359,1.322"
       opacity="0.75"
       id="path17" />
  </g>
  <path
     fill="url(#g)"
     d="m 32.002,17.81 c -0.415,0 -0.725,0.334 -0.75,0.748 l -0.059,0.973 c 0,0 -0.044,0.637 -0.683,0.738 C 29.871,20.37 29.615,19.96 29.615,19.96 L 29.236,18.826 C 29.121,18.481 28.81,18.251 28.465,18.271 a 0.7,0.7 0 0 0 -0.149,0.023 c -0.4,0.108 -0.605,0.512 -0.529,0.92 l 0.225,1.196 c -0.011,0.092 -0.088,0.49 -0.62,0.695 -0.465,0.179 -0.784,-0.096 -0.906,-0.23 l -0.582,-0.881 a 0.8,0.8 0 0 0 -0.673,-0.373 0.7,0.7 0 0 0 -0.35,0.097 c -0.36,0.208 -0.455,0.651 -0.275,1.026 l 0.414,0.863 -0.002,0.015 c 0,0 0.28,0.576 -0.223,0.983 -0.398,0.322 -0.748,0.246 -0.877,0.201 L 22.99,21.984 a 0.83,0.83 0 0 0 -0.537,-0.213 0.72,0.72 0 0 0 -0.523,0.213 c -0.294,0.294 -0.27,0.745 0,1.06 l 0.78,0.91 -0.017,0.002 c 0,0 0.228,0.427 -0.18,0.93 -0.274,0.34 -0.625,0.32 -0.824,0.274 l -1,-0.498 a 0.85,0.85 0 0 0 -0.433,-0.09 0.73,0.73 0 0 0 -0.592,0.363 c -0.208,0.36 -0.067,0.791 0.275,1.025 l 0.756,0.516 0.02,0.047 c 0,0 0.53,0.357 0.299,0.96 -0.173,0.449 -0.483,0.574 -0.631,0.608 l -1.223,-0.25 a 1,1 0 0 0 -0.226,-0.015 0.74,0.74 0 0 0 -0.692,0.546 c -0.107,0.402 0.138,0.78 0.53,0.918 l 1.124,0.395 -0.027,0.021 c 0,0 0.41,0.256 0.309,0.895 a 0.78,0.78 0 0 1 -0.547,0.64 h -0.002 l -1.127,0.069 c -0.414,0.025 -0.75,0.334 -0.75,0.75 0,0.416 0.336,0.718 0.75,0.75 l 0.883,0.068 0.054,0.04 c 0,0 0.638,0.044 0.739,0.683 0.072,0.46 -0.12,0.722 -0.233,0.832 l -1.178,0.393 c -0.393,0.13 -0.638,0.518 -0.53,0.92 0.108,0.402 0.511,0.605 0.92,0.529 l 1.16,-0.217 -0.018,0.04 c 0,0 0.483,0.016 0.715,0.62 a 0.78,0.78 0 0 1 -0.157,0.83 l -0.922,0.61 c -0.346,0.228 -0.483,0.663 -0.275,1.023 0.208,0.36 0.651,0.455 1.025,0.275 l 0.774,-0.37 0.072,0.007 c 0,0 0.576,-0.28 0.983,0.223 0.308,0.38 0.252,0.718 0.207,0.86 l -0.795,0.896 c -0.275,0.31 -0.294,0.766 0,1.06 0.294,0.294 0.745,0.27 1.06,0 l 0.875,-0.75 0.004,0.035 c 0,0 0.427,-0.227 0.93,0.18 0.358,0.29 0.32,0.666 0.267,0.857 l -0.459,0.918 c -0.185,0.372 -0.086,0.818 0.274,1.026 0.36,0.208 0.791,0.067 1.025,-0.276 l 0.483,-0.707 0.047,-0.02 c 0,0 0.357,-0.53 0.96,-0.298 0.522,0.2 0.607,0.59 0.62,0.691 l -0.229,1.114 c -0.083,0.406 0.13,0.81 0.531,0.918 0.401,0.108 0.78,-0.138 0.918,-0.53 l 0.373,-1.062 0.01,0.014 c 0,0 0.256,-0.41 0.895,-0.31 0.639,0.102 0.683,0.74 0.683,0.74 l 0.006,0.007 0.053,0.88 c 0.025,0.415 0.334,0.75 0.75,0.75 0.416,0 0.718,-0.335 0.75,-0.75 l 0.066,-0.878 0.008,-0.01 c 0,0 0.045,-0.637 0.684,-0.738 0.639,-0.101 0.894,0.308 0.894,0.308 l 0.371,1.055 c 0.138,0.392 0.517,0.635 0.918,0.528 0.351,-0.095 0.559,-0.415 0.55,-0.766 a 1,1 0 0 0 -0.018,-0.15 L 36,43.81 l 0.006,0.002 c 0,0 0.017,-0.483 0.62,-0.715 0.603,-0.232 0.962,0.299 0.962,0.299 l 0.027,0.012 0.492,0.72 c 0.235,0.343 0.664,0.48 1.024,0.272 a 0.73,0.73 0 0 0 0.365,-0.662 0.85,0.85 0 0 0 -0.09,-0.36 l -0.424,-0.85 -0.002,-0.003 c -0.054,-0.153 -0.165,-0.596 0.245,-0.928 0.502,-0.407 0.93,-0.18 0.93,-0.18 l 10e-4,-0.023 0.867,0.744 c 0.315,0.27 0.765,0.292 1.059,-0.002 a 0.72,0.72 0 0 0 0.215,-0.523 0.82,0.82 0 0 0 -0.213,-0.536 l -0.775,-0.875 c -0.045,-0.12 -0.134,-0.478 0.197,-0.886 0.407,-0.503 0.982,-0.223 0.982,-0.223 l 0.057,-0.006 0.78,0.373 c 0.373,0.18 0.815,0.085 1.023,-0.275 a 0.7,0.7 0 0 0 0.097,-0.35 0.8,0.8 0 0 0 -0.37,-0.674 l -0.89,-0.586 -0.002,-0.002 c -0.14,-0.147 -0.335,-0.445 -0.177,-0.855 0.232,-0.604 0.715,-0.621 0.715,-0.621 l -0.014,-0.033 1.146,0.214 c 0.408,0.077 0.809,-0.127 0.916,-0.529 a 0.7,0.7 0 0 0 0.026,-0.222 c -0.014,-0.315 -0.233,-0.59 -0.553,-0.696 L 44.09,34.446 c -0.11,-0.1 -0.324,-0.364 -0.248,-0.845 0.1,-0.64 0.738,-0.684 0.738,-0.684 l 0.057,-0.04 0.867,-0.067 c 0.414,-0.032 0.748,-0.335 0.748,-0.75 0,-0.415 -0.334,-0.725 -0.748,-0.75 l -1.115,-0.067 a 0.78,0.78 0 0 1 -0.547,-0.642 c -0.101,-0.64 0.308,-0.895 0.308,-0.895 l -0.035,-0.025 1.123,-0.395 C 45.63,29.149 45.873,28.77 45.766,28.368 45.671,28.018 45.351,27.81 45,27.819 a 1,1 0 0 0 -0.15,0.018 l -1.227,0.25 c -0.153,-0.039 -0.45,-0.169 -0.617,-0.603 -0.232,-0.604 0.299,-0.961 0.299,-0.961 l 0.027,-0.065 0.738,-0.504 c 0.343,-0.234 0.48,-0.663 0.272,-1.023 a 0.73,0.73 0 0 0 -0.662,-0.365 0.85,0.85 0 0 0 -0.36,0.09 l -1.03,0.513 a 0.78,0.78 0 0 1 -0.784,-0.283 c -0.407,-0.503 -0.18,-0.93 -0.18,-0.93 l -0.031,-0.004 0.785,-0.914 c 0.27,-0.315 0.292,-0.765 -0.002,-1.058 a 0.72,0.72 0 0 0 -0.523,-0.215 0.82,0.82 0 0 0 -0.536,0.213 l -0.943,0.836 c -0.145,0.044 -0.478,0.093 -0.852,-0.21 -0.502,-0.406 -0.222,-0.982 -0.222,-0.982 l -0.004,-0.04 0.404,-0.845 c 0.18,-0.374 0.085,-0.815 -0.275,-1.023 a 0.7,0.7 0 0 0 -0.35,-0.098 0.8,0.8 0 0 0 -0.674,0.372 l -0.619,0.937 c -0.147,0.14 -0.444,0.338 -0.857,0.18 -0.604,-0.232 -0.621,-0.715 -0.621,-0.715 l -0.008,0.004 0.223,-1.186 C 36.297,18.8 36.093,18.4 35.691,18.292 A 0.7,0.7 0 0 0 35.469,18.267 C 35.154,18.28 34.88,18.5 34.773,18.82 l -0.39,1.17 c -0.073,0.091 -0.34,0.363 -0.873,0.279 -0.626,-0.1 -0.682,-0.714 -0.684,-0.739 L 32.752,18.558 C 32.72,18.144 32.417,17.81 32.002,17.81 Z m 0,4.25 a 10,10 0 0 1 10,10 10,10 0 0 1 -10,10 10,10 0 0 1 -10,-10 10,10 0 0 1 10,-10"
     style="mix-blend-mode:hard-light;paint-order:fill markers stroke;opacity:0.95788043;filter:url(#filter614)"
     id="path18" />
  <path
     fill="#ffffff"
     d="m 32.002,17.811 c -0.415,0 -0.725,0.334 -0.75,0.748 l -0.059,0.973 c 0,0 -0.044,0.637 -0.683,0.738 0.105,0.018 0.229,0.022 0.37,0 0.64,-0.1 0.684,-0.738 0.684,-0.738 l 0.06,-0.973 c 0.02,-0.35 0.244,-0.642 0.564,-0.725 a 0.7,0.7 0 0 0 -0.186,-0.023 m 3.467,0.457 c -0.315,0.014 -0.589,0.233 -0.696,0.553 l -0.39,1.17 a 0.8,0.8 0 0 1 -0.496,0.279 c 0.53,0.082 0.794,-0.188 0.867,-0.28 l 0.39,-1.17 a 0.8,0.8 0 0 1 0.542,-0.529 0.7,0.7 0 0 0 -0.217,-0.023 m -6.947,0.002 q -0.03,0 -0.057,0.002 a 0.7,0.7 0 0 0 -0.149,0.023 c -0.4,0.108 -0.605,0.513 -0.529,0.92 l 0.225,1.196 c -0.011,0.092 -0.088,0.49 -0.62,0.695 a 1,1 0 0 1 -0.11,0.035 0.77,0.77 0 0 0 0.482,-0.035 c 0.53,-0.204 0.608,-0.603 0.619,-0.695 l -0.225,-1.196 c -0.076,-0.407 0.128,-0.812 0.53,-0.92 l 0.001,-0.002 A 0.7,0.7 0 0 0 28.521,18.27 m 10.256,1.348 a 0.8,0.8 0 0 0 -0.674,0.37 l -0.62,0.938 a 0.86,0.86 0 0 1 -0.373,0.215 0.78,0.78 0 0 0 0.745,-0.215 l 0.619,-0.937 a 0.82,0.82 0 0 1 0.474,-0.348 0.7,0.7 0 0 0 -0.172,-0.023 m -13.547,0.004 a 0.7,0.7 0 0 0 -0.35,0.097 c -0.36,0.208 -0.455,0.652 -0.275,1.026 l 0.414,0.863 -0.002,0.016 c 0,0 0.28,0.575 -0.223,0.982 a 1.1,1.1 0 0 1 -0.438,0.22 c 0.162,0.04 0.469,0.055 0.809,-0.22 0.503,-0.407 0.223,-0.982 0.223,-0.982 l 0.002,-0.016 -0.414,-0.863 c -0.18,-0.374 -0.085,-0.818 0.275,-1.026 a 0.7,0.7 0 0 1 0.176,-0.074 0.7,0.7 0 0 0 -0.197,-0.023 m 16.324,2.144 a 0.82,0.82 0 0 0 -0.536,0.213 l -0.943,0.836 -0.045,0.012 a 0.8,0.8 0 0 0 0.416,-0.012 l 0.943,-0.836 a 0.85,0.85 0 0 1 0.356,-0.191 0.7,0.7 0 0 0 -0.192,-0.022 M 22.45,21.772 a 0.72,0.72 0 0 0 -0.524,0.213 c -0.294,0.294 -0.27,0.746 0,1.06 l 0.781,0.91 -0.017,0.002 c 0,0 0.227,0.427 -0.18,0.93 a 0.77,0.77 0 0 1 -0.428,0.277 0.77,0.77 0 0 0 0.8,-0.277 c 0.406,-0.503 0.179,-0.93 0.179,-0.93 l 0.017,-0.002 -0.78,-0.91 c -0.271,-0.315 -0.295,-0.766 0,-1.06 a 0.7,0.7 0 0 1 0.33,-0.192 0.8,0.8 0 0 0 -0.178,-0.021 m 9.734,0.289 a 10,10 0 0 1 9.814,10 10,10 0 0 1 -9.814,9.998 l 0.185,0.002 a 10,10 0 0 0 10,-10 10,10 0 0 0 -10,-10 z m 11.492,2.506 a 0.85,0.85 0 0 0 -0.36,0.09 l -1.017,0.508 c 0.134,0.032 0.26,0.024 0.36,0.005 l 1.029,-0.513 a 1,1 0 0 1 0.19,-0.07 0.8,0.8 0 0 0 -0.202,-0.02 m -23.424,0.006 a 0.73,0.73 0 0 0 -0.592,0.363 c -0.208,0.36 -0.067,0.791 0.275,1.025 l 0.756,0.516 0.02,0.047 c 0,0 0.53,0.357 0.299,0.96 -0.13,0.337 -0.337,0.489 -0.494,0.56 l 0.234,0.048 c 0.148,-0.034 0.459,-0.159 0.63,-0.607 0.233,-0.604 -0.298,-0.961 -0.298,-0.961 l -0.02,-0.047 -0.755,-0.516 c -0.343,-0.234 -0.484,-0.665 -0.276,-1.025 a 0.72,0.72 0 0 1 0.46,-0.344 0.8,0.8 0 0 0 -0.24,-0.02 m 24.744,3.248 a 1,1 0 0 0 -0.15,0.017 l -0.989,0.202 q 0.076,0.035 0.133,0.048 l 1.213,-0.248 a 0.8,0.8 0 0 0 -0.207,-0.02 m -26.066,0.006 a 0.74,0.74 0 0 0 -0.692,0.547 c -0.107,0.4 0.138,0.78 0.53,0.917 l 1.125,0.395 -0.028,0.021 c 0,0 0.41,0.256 0.309,0.895 a 0.78,0.78 0 0 1 -0.547,0.64 h -0.002 l -1.127,0.069 c -0.414,0.025 -0.75,0.335 -0.75,0.75 0,0.415 0.336,0.718 0.75,0.75 l 0.883,0.068 0.055,0.04 c 0,0 0.637,0.044 0.738,0.683 0.073,0.46 -0.12,0.722 -0.232,0.832 l -1.178,0.393 c -0.394,0.13 -0.639,0.518 -0.531,0.92 0.108,0.402 0.512,0.605 0.92,0.529 l 0.017,-0.004 a 0.73,0.73 0 0 1 -0.566,-0.525 c -0.108,-0.402 0.137,-0.79 0.53,-0.92 l 1.179,-0.393 c 0.113,-0.11 0.305,-0.371 0.232,-0.832 -0.1,-0.639 -0.738,-0.684 -0.738,-0.684 l -0.055,-0.039 -0.883,-0.068 c -0.413,-0.032 -0.75,-0.334 -0.75,-0.75 0,-0.415 0.336,-0.725 0.75,-0.75 L 20,31.243 h 0.002 a 0.78,0.78 0 0 0 0.547,-0.641 c 0.101,-0.639 -0.308,-0.895 -0.308,-0.895 l 0.027,-0.021 -1.125,-0.395 c -0.392,-0.137 -0.637,-0.516 -0.53,-0.917 a 0.74,0.74 0 0 1 0.56,-0.53 L 19.16,27.842 a 1,1 0 0 0 -0.226,-0.015 m 1.754,8.232 -0.295,0.055 c 0.152,0.038 0.453,0.168 0.621,0.605 a 0.78,0.78 0 0 1 -0.156,0.83 l -0.922,0.61 c -0.346,0.228 -0.483,0.663 -0.276,1.023 0.173,0.3 0.509,0.415 0.832,0.342 a 0.71,0.71 0 0 1 -0.46,-0.342 c -0.208,-0.36 -0.071,-0.795 0.275,-1.023 l 0.922,-0.61 a 0.78,0.78 0 0 0 0.156,-0.83 c -0.232,-0.604 -0.715,-0.62 -0.715,-0.62 z m 23.39,0.006 0.014,0.033 c 0,0 -0.043,0 -0.109,0.018 l 0.871,0.164 c 0.12,0.022 0.24,0.02 0.352,-0.004 z m -21.821,2.951 a 1,1 0 0 0 -0.174,0.02 0.78,0.78 0 0 1 0.432,0.28 c 0.308,0.381 0.252,0.719 0.207,0.86 l -0.795,0.897 c -0.275,0.31 -0.294,0.766 0,1.06 a 0.73,0.73 0 0 0 0.699,0.188 0.7,0.7 0 0 1 -0.328,-0.188 c -0.294,-0.294 -0.275,-0.75 0,-1.06 l 0.795,-0.897 c 0.045,-0.141 0.1,-0.479 -0.207,-0.86 a 0.76,0.76 0 0 0 -0.63,-0.3 m 20.262,0 a 0.8,0.8 0 0 0 -0.21,0.02 c 0.11,0.023 0.18,0.058 0.18,0.058 l 0.057,-0.006 0.78,0.373 c 0.183,0.088 0.382,0.11 0.562,0.067 a 1,1 0 0 1 -0.191,-0.067 l -0.78,-0.373 -0.056,0.006 c 0,0 -0.146,-0.071 -0.342,-0.078 m -2.285,2.338 a 1,1 0 0 0 -0.2,0.021 0.5,0.5 0 0 1 0.121,0.043 l 0.002,-0.023 0.868,0.744 a 0.82,0.82 0 0 0 0.73,0.188 0.9,0.9 0 0 1 -0.36,-0.188 l -0.866,-0.744 -0.002,0.023 c 0,0 -0.114,-0.061 -0.293,-0.064 m -15.73,0.002 a 1,1 0 0 0 -0.146,0.02 c 0.131,0.03 0.281,0.095 0.438,0.222 0.358,0.29 0.32,0.666 0.267,0.858 l -0.459,0.918 c -0.185,0.37 -0.086,0.817 0.274,1.025 0.175,0.101 0.367,0.12 0.545,0.072 a 0.7,0.7 0 0 1 -0.174,-0.072 c -0.36,-0.208 -0.46,-0.654 -0.274,-1.025 l 0.46,-0.918 c 0.051,-0.192 0.09,-0.568 -0.268,-0.858 -0.256,-0.207 -0.492,-0.25 -0.662,-0.242 m 2.94,1.684 a 0.7,0.7 0 0 0 -0.164,0.021 1,1 0 0 1 0.113,0.037 c 0.522,0.2 0.606,0.59 0.62,0.692 l -0.23,1.113 c -0.082,0.406 0.13,0.81 0.532,0.918 0.128,0.034 0.255,0.03 0.371,0 -0.401,-0.108 -0.614,-0.512 -0.531,-0.918 l 0.229,-1.113 c -0.013,-0.102 -0.098,-0.491 -0.62,-0.692 a 0.8,0.8 0 0 0 -0.32,-0.058 m 9.858,0 a 0.8,0.8 0 0 0 -0.192,0.021 c 0.306,0.08 0.479,0.336 0.479,0.336 l 0.027,0.012 0.492,0.72 c 0.197,0.288 0.532,0.43 0.848,0.344 a 0.84,0.84 0 0 1 -0.477,-0.344 l -0.492,-0.72 -0.027,-0.012 c 0,0 -0.24,-0.356 -0.658,-0.357 m -6.623,0.876 q -0.094,0.001 -0.174,0.016 l 0.006,0.002 c 0.638,0.101 0.683,0.738 0.683,0.738 l 0.006,0.008 0.053,0.881 c 0.025,0.414 0.334,0.75 0.75,0.75 a 0.7,0.7 0 0 0 0.185,-0.023 c -0.319,-0.084 -0.543,-0.377 -0.564,-0.727 l -0.053,-0.88 -0.006,-0.009 c 0,0 -0.045,-0.637 -0.683,-0.738 a 1.3,1.3 0 0 0 -0.203,-0.018 m 3.43,0.002 a 1.2,1.2 0 0 0 -0.221,0.014 c 0.365,0.064 0.517,0.31 0.517,0.31 l 0.371,1.055 c 0.137,0.39 0.514,0.633 0.914,0.528 a 0.81,0.81 0 0 1 -0.543,-0.528 l -0.37,-1.054 c 0,0 -0.195,-0.312 -0.669,-0.325"
     filter="url(#h)"
     opacity="0.5"
     style="mix-blend-mode:hard-light;paint-order:fill markers stroke;opacity:0.95788043;filter:url(#h)"
     id="path19" />
  <path
     fill="#ffffff"
     d="m 32.002,17.811 c -0.415,0 -0.725,0.334 -0.75,0.748 l -0.059,0.973 c 0,0 -0.044,0.637 -0.683,0.738 -0.639,0.101 -0.895,-0.309 -0.895,-0.309 L 29.236,18.827 C 29.121,18.482 28.81,18.252 28.465,18.272 a 0.7,0.7 0 0 0 -0.149,0.023 c -0.4,0.108 -0.605,0.512 -0.529,0.92 l 0.225,1.196 c -0.011,0.092 -0.088,0.49 -0.62,0.695 -0.465,0.179 -0.784,-0.096 -0.906,-0.23 l -0.582,-0.881 a 0.8,0.8 0 0 0 -0.673,-0.374 0.7,0.7 0 0 0 -0.35,0.098 c -0.36,0.208 -0.455,0.651 -0.275,1.026 l 0.414,0.863 -0.002,0.015 c 0,0 0.28,0.576 -0.223,0.983 -0.398,0.322 -0.748,0.246 -0.877,0.201 L 22.99,21.985 a 0.83,0.83 0 0 0 -0.537,-0.213 0.72,0.72 0 0 0 -0.523,0.213 c -0.294,0.294 -0.27,0.745 0,1.06 l 0.781,0.91 -0.018,0.002 c 0,0 0.228,0.427 -0.18,0.93 -0.274,0.34 -0.625,0.32 -0.824,0.274 l -1,-0.499 a 0.85,0.85 0 0 0 -0.433,-0.09 0.73,0.73 0 0 0 -0.592,0.364 c -0.208,0.36 -0.067,0.791 0.275,1.025 l 0.756,0.516 0.02,0.047 c 0,0 0.53,0.357 0.299,0.96 -0.173,0.449 -0.483,0.574 -0.631,0.608 l -1.223,-0.25 a 1,1 0 0 0 -0.226,-0.015 0.74,0.74 0 0 0 -0.692,0.546 c -0.107,0.402 0.138,0.78 0.53,0.918 l 1.124,0.395 -0.027,0.021 c 0,0 0.41,0.256 0.309,0.895 a 0.78,0.78 0 0 1 -0.547,0.64 h -0.002 l -1.127,0.069 c -0.414,0.025 -0.75,0.334 -0.75,0.75 0,0.416 0.336,0.718 0.75,0.75 l 0.883,0.068 0.054,0.04 c 0,0 0.638,0.044 0.739,0.683 0.072,0.46 -0.12,0.722 -0.233,0.832 l -1.177,0.393 c -0.394,0.13 -0.64,0.518 -0.532,0.92 0.108,0.402 0.512,0.605 0.92,0.529 l 1.16,-0.217 -0.017,0.039 c 0,0 0.483,0.017 0.715,0.621 a 0.78,0.78 0 0 1 -0.157,0.83 l -0.921,0.61 c -0.347,0.228 -0.484,0.663 -0.276,1.023 0.208,0.36 0.651,0.455 1.026,0.275 l 0.773,-0.37 0.072,0.007 c 0,0 0.576,-0.28 0.983,0.223 0.308,0.38 0.252,0.718 0.207,0.86 l -0.795,0.896 c -0.275,0.31 -0.294,0.766 0,1.06 0.294,0.294 0.745,0.27 1.06,0 l 0.875,-0.75 0.004,0.035 c 0,0 0.427,-0.227 0.93,0.18 0.358,0.29 0.32,0.666 0.267,0.857 l -0.459,0.918 c -0.185,0.371 -0.086,0.818 0.274,1.026 0.36,0.207 0.791,0.067 1.025,-0.276 l 0.483,-0.707 0.047,-0.02 c 0,0 0.357,-0.53 0.96,-0.298 0.522,0.2 0.607,0.59 0.62,0.691 l -0.229,1.114 c -0.083,0.406 0.13,0.81 0.531,0.918 0.401,0.108 0.78,-0.138 0.918,-0.53 l 0.373,-1.062 0.01,0.014 c 0,0 0.256,-0.41 0.895,-0.31 0.639,0.102 0.683,0.74 0.683,0.74 l 0.006,0.007 0.053,0.88 c 0.025,0.415 0.334,0.75 0.75,0.75 0.416,0 0.718,-0.335 0.75,-0.75 l 0.066,-0.878 0.008,-0.01 c 0,0 0.045,-0.637 0.684,-0.738 0.639,-0.101 0.894,0.309 0.894,0.309 l 0.371,1.054 c 0.138,0.392 0.517,0.635 0.918,0.528 0.352,-0.095 0.559,-0.415 0.55,-0.766 a 1,1 0 0 0 -0.018,-0.15 L 36,43.81 l 0.006,0.002 c 0,0 0.017,-0.483 0.62,-0.715 0.603,-0.232 0.962,0.299 0.962,0.299 l 0.027,0.012 0.492,0.72 c 0.235,0.343 0.664,0.48 1.024,0.272 a 0.73,0.73 0 0 0 0.365,-0.662 0.85,0.85 0 0 0 -0.09,-0.36 l -0.424,-0.85 -0.002,-0.003 c -0.054,-0.153 -0.165,-0.596 0.245,-0.928 0.502,-0.407 0.93,-0.18 0.93,-0.18 l 10e-4,-0.023 0.867,0.744 c 0.315,0.27 0.765,0.292 1.059,-0.002 a 0.72,0.72 0 0 0 0.215,-0.523 0.82,0.82 0 0 0 -0.213,-0.536 l -0.775,-0.875 c -0.045,-0.12 -0.134,-0.478 0.197,-0.886 0.407,-0.503 0.982,-0.223 0.982,-0.223 l 0.057,-0.006 0.78,0.373 c 0.373,0.18 0.815,0.085 1.023,-0.275 a 0.7,0.7 0 0 0 0.097,-0.35 0.8,0.8 0 0 0 -0.37,-0.674 l -0.89,-0.586 -0.001,-0.002 c -0.141,-0.147 -0.336,-0.444 -0.178,-0.855 0.232,-0.604 0.715,-0.621 0.715,-0.621 l -0.014,-0.033 1.146,0.215 c 0.408,0.076 0.809,-0.128 0.916,-0.53 a 0.7,0.7 0 0 0 0.026,-0.222 C 45.781,35.212 45.562,34.938 45.242,34.831 L 44.09,34.447 c -0.11,-0.101 -0.324,-0.365 -0.248,-0.846 0.1,-0.639 0.738,-0.684 0.738,-0.684 l 0.057,-0.04 0.867,-0.067 c 0.414,-0.032 0.748,-0.335 0.748,-0.75 0,-0.415 -0.334,-0.725 -0.748,-0.75 l -1.115,-0.067 a 0.78,0.78 0 0 1 -0.547,-0.642 c -0.101,-0.639 0.308,-0.895 0.308,-0.895 l -0.035,-0.025 1.123,-0.395 C 45.63,29.149 45.873,28.77 45.766,28.368 45.671,28.018 45.351,27.81 45,27.82 a 1,1 0 0 0 -0.15,0.017 l -1.227,0.25 c -0.153,-0.039 -0.45,-0.169 -0.617,-0.603 -0.232,-0.604 0.299,-0.961 0.299,-0.961 l 0.027,-0.065 0.738,-0.504 c 0.343,-0.234 0.48,-0.663 0.272,-1.023 a 0.73,0.73 0 0 0 -0.662,-0.365 0.85,0.85 0 0 0 -0.36,0.09 l -1.03,0.513 a 0.78,0.78 0 0 1 -0.784,-0.283 c -0.407,-0.503 -0.18,-0.93 -0.18,-0.93 l -0.031,-0.004 0.785,-0.914 c 0.27,-0.315 0.292,-0.764 -0.002,-1.058 a 0.72,0.72 0 0 0 -0.523,-0.215 0.82,0.82 0 0 0 -0.536,0.213 l -0.943,0.836 c -0.145,0.044 -0.478,0.093 -0.851,-0.21 -0.503,-0.406 -0.223,-0.982 -0.223,-0.982 l -0.004,-0.04 0.404,-0.844 c 0.18,-0.374 0.085,-0.816 -0.275,-1.024 a 0.7,0.7 0 0 0 -0.35,-0.097 0.8,0.8 0 0 0 -0.674,0.37 l -0.619,0.938 c -0.147,0.14 -0.444,0.338 -0.857,0.18 -0.604,-0.232 -0.621,-0.715 -0.621,-0.715 l -0.008,0.004 0.223,-1.186 C 36.297,18.801 36.093,18.4 35.691,18.292 A 0.7,0.7 0 0 0 35.469,18.267 C 35.154,18.281 34.88,18.5 34.773,18.82 l -0.39,1.17 c -0.073,0.091 -0.34,0.363 -0.873,0.279 -0.626,-0.099 -0.682,-0.714 -0.684,-0.738 L 32.752,18.558 C 32.72,18.144 32.417,17.81 32.002,17.81 Z m 0,0.5 c 0.147,0 0.237,0.093 0.252,0.285 l 0.074,0.973 v 0.002 c 0.004,0.054 0.02,0.275 0.166,0.54 0.146,0.265 0.47,0.577 0.938,0.651 0.723,0.114 1.2,-0.283 1.341,-0.46 a 0.5,0.5 0 0 0 0.084,-0.153 l 0.391,-1.17 c 0.047,-0.14 0.147,-0.209 0.242,-0.213 q 0.03,-10e-4 0.073,0.01 c 0.142,0.038 0.201,0.149 0.166,0.34 l -0.223,1.185 a 0.5,0.5 0 0 0 0.055,0.139 l -0.055,-0.031 c 0,0 0.014,0.244 0.142,0.486 0.128,0.242 0.39,0.519 0.8,0.676 0.617,0.237 1.16,-0.073 1.382,-0.285 a 0.5,0.5 0 0 0 0.072,-0.084 l 0.62,-0.938 c 0.068,-0.104 0.167,-0.15 0.246,-0.148 a 0.2,0.2 0 0 1 0.109,0.03 c 0.127,0.074 0.158,0.202 0.074,0.376 l -0.404,0.844 a 0.5,0.5 0 0 0 -0.045,0.257 L 38.5,21.629 c -0.034,0.098 -0.068,0.135 -0.074,0.313 -0.011,0.305 0.108,0.748 0.484,1.053 a 1.47,1.47 0 0 0 1.313,0.296 0.5,0.5 0 0 0 0.185,-0.103 l 0.944,-0.836 a 0.32,0.32 0 0 1 0.209,-0.086 c 0.062,0 0.11,0.016 0.164,0.068 0.104,0.105 0.102,0.233 -0.024,0.38 l -0.785,0.913 a 0.5,0.5 0 0 0 -0.02,0.116 l -0.011,-0.022 c 0,0 -0.112,0.22 -0.121,0.494 -0.01,0.274 0.078,0.646 0.353,0.987 0.385,0.475 0.96,0.518 1.268,0.459 a 0.5,0.5 0 0 0 0.129,-0.043 l 1.029,-0.514 q 0.075,-0.037 0.148,-0.04 c 0.103,-0.002 0.166,0.03 0.217,0.118 0.074,0.128 0.038,0.25 -0.12,0.36 l -0.737,0.503 a 0.5,0.5 0 0 0 -0.18,0.22 l -0.006,0.01 c -0.078,0.068 -0.126,0.085 -0.22,0.235 -0.163,0.259 -0.28,0.7 -0.106,1.152 0.226,0.59 0.7,0.844 0.961,0.91 a 0.5,0.5 0 0 0 0.223,0.005 l 1.226,-0.25 a 0.4,0.4 0 0 1 0.065,-0.008 q 0.219,-0.007 0.27,0.18 c 0.038,0.143 -0.03,0.252 -0.212,0.316 l -1.123,0.394 a 0.5,0.5 0 0 0 -0.064,0.078 v -0.005 c 0,0 -0.207,0.135 -0.352,0.367 a 1.5,1.5 0 0 0 -0.185,1.03 c 0.097,0.613 0.583,0.938 0.883,1.038 a 0.5,0.5 0 0 0 0.129,0.026 l 1.115,0.066 c 0.182,0.011 0.277,0.104 0.277,0.252 0,0.147 -0.095,0.235 -0.287,0.25 l -0.867,0.066 a 0.5,0.5 0 0 0 -0.254,0.094 l -0.02,0.014 c -0.1,0.019 -0.15,0.01 -0.308,0.094 -0.27,0.142 -0.593,0.467 -0.668,0.945 -0.103,0.652 0.212,1.115 0.404,1.29 a 0.5,0.5 0 0 0 0.18,0.106 l 1.152,0.385 c 0.141,0.047 0.207,0.15 0.211,0.244 q 0.002,0.029 -0.008,0.07 c -0.038,0.143 -0.15,0.204 -0.342,0.169 l -1.146,-0.215 a 0.5,0.5 0 0 0 -0.104,0.037 l 0.008,-0.012 c 0,0 -0.247,0.014 -0.488,0.143 -0.242,0.128 -0.519,0.39 -0.676,0.798 -0.236,0.615 0.07,1.156 0.281,1.38 l 0.01,0.01 0.002,10e-4 a 0.5,0.5 0 0 0 0.078,0.063 l 0.889,0.586 a 0.3,0.3 0 0 1 0.146,0.248 0.2,0.2 0 0 1 -0.03,0.109 c -0.074,0.127 -0.2,0.157 -0.374,0.074 h -0.002 l -0.78,-0.373 A 0.5,0.5 0 0 0 42.492,38.59 h -0.006 c -0.097,-0.034 -0.138,-0.067 -0.318,-0.074 a 1.32,1.32 0 0 0 -1.05,0.486 c -0.449,0.554 -0.36,1.154 -0.278,1.375 a 0.5,0.5 0 0 0 0.094,0.157 l 0.775,0.875 c 0.061,0.069 0.087,0.145 0.088,0.209 a 0.21,0.21 0 0 1 -0.068,0.166 c -0.105,0.104 -0.233,0.1 -0.38,-0.026 l -0.867,-0.744 a 0.5,0.5 0 0 0 -0.125,-0.02 l 0.032,-0.017 c 0,0 -0.22,-0.112 -0.494,-0.121 a 1.5,1.5 0 0 0 -0.985,0.353 c -0.307,0.249 -0.453,0.593 -0.48,0.871 -0.027,0.278 0.037,0.493 0.08,0.614 l 0.025,0.058 0.002,0.002 0.422,0.848 q 0.037,0.075 0.037,0.148 c 0.003,0.103 -0.027,0.166 -0.115,0.217 -0.129,0.074 -0.253,0.038 -0.361,-0.12 L 38.027,43.125 A 0.5,0.5 0 0 0 37.891,43.012 C 37.835,42.94 37.787,42.854 37.6,42.737 a 1.32,1.32 0 0 0 -1.153,-0.106 c -0.408,0.157 -0.67,0.435 -0.799,0.676 -0.129,0.241 -0.142,0.486 -0.142,0.486 l 0.057,-0.039 a 0.5,0.5 0 0 0 -0.053,0.157 l 0.224,1.097 a 0.4,0.4 0 0 1 0.008,0.065 q 0.007,0.218 -0.177,0.267 c -0.144,0.039 -0.255,-0.027 -0.319,-0.209 l -0.37,-1.054 a 0.5,0.5 0 0 0 -0.048,-0.1 c 0,0 -0.135,-0.207 -0.367,-0.352 a 1.5,1.5 0 0 0 -1.03,-0.185 1.32,1.32 0 0 0 -0.945,0.666 c -0.127,0.24 -0.136,0.424 -0.14,0.473 a 1,1 0 0 0 -0.026,0.064 l -0.066,0.879 c -0.015,0.192 -0.106,0.289 -0.252,0.289 -0.146,0 -0.24,-0.099 -0.252,-0.281 L 31.697,44.649 31.686,44.614 C 31.684,44.593 31.67,44.364 31.533,44.106 A 1.32,1.32 0 0 0 30.588,43.44 c -0.433,-0.068 -0.797,0.04 -1.03,0.185 -0.233,0.145 -0.367,0.352 -0.367,0.352 l 0.05,-0.002 a 0.5,0.5 0 0 0 -0.108,0.088 l -0.373,1.062 c -0.064,0.183 -0.175,0.25 -0.317,0.211 -0.141,-0.038 -0.206,-0.155 -0.17,-0.334 l 0.229,-1.113 a 0.5,0.5 0 0 0 0.006,-0.164 C 28.481,43.513 28.28,42.903 27.572,42.631 a 1.32,1.32 0 0 0 -1.152,0.106 c -0.147,0.092 -0.161,0.139 -0.228,0.217 l -0.004,0.003 a 0.5,0.5 0 0 0 -0.217,0.176 l -0.483,0.707 c -0.108,0.157 -0.236,0.197 -0.36,0.125 -0.127,-0.072 -0.16,-0.205 -0.077,-0.369 l 0.459,-0.918 a 0.5,0.5 0 0 0 0.035,-0.092 c 0.04,-0.145 0.077,-0.36 0.03,-0.615 -0.047,-0.255 -0.198,-0.545 -0.466,-0.762 a 1.52,1.52 0 0 0 -0.986,-0.353 c -0.274,0.01 -0.492,0.121 -0.492,0.121 l 0.014,0.008 a 0.5,0.5 0 0 0 -0.11,0.017 l -0.875,0.75 c -0.146,0.126 -0.278,0.13 -0.38,0.028 -0.104,-0.104 -0.102,-0.24 0.019,-0.377 l 0.795,-0.897 a 0.5,0.5 0 0 0 0.103,-0.18 c 0.079,-0.246 0.123,-0.808 -0.295,-1.324 a 1.32,1.32 0 0 0 -1.05,-0.486 c -0.18,0.007 -0.22,0.04 -0.317,0.074 l -0.023,-0.002 a 0.5,0.5 0 0 0 -0.27,0.047 l -0.773,0.371 c -0.173,0.083 -0.302,0.052 -0.375,-0.074 -0.073,-0.126 -0.037,-0.256 0.117,-0.357 l 0.922,-0.61 a 0.5,0.5 0 0 0 0.1,-0.086 c 0.205,-0.233 0.471,-0.757 0.248,-1.34 -0.158,-0.408 -0.435,-0.67 -0.676,-0.798 -0.241,-0.128 -0.489,-0.143 -0.489,-0.143 l 0.002,0.004 a 0.5,0.5 0 0 0 -0.093,-0.035 l -1.16,0.217 c -0.19,0.035 -0.309,-0.029 -0.346,-0.168 -0.038,-0.14 0.034,-0.26 0.207,-0.317 l 1.178,-0.392 a 0.5,0.5 0 0 0 0.189,-0.116 c 0.194,-0.188 0.477,-0.643 0.379,-1.267 a 1.32,1.32 0 0 0 -0.668,-0.945 c -0.157,-0.084 -0.208,-0.075 -0.309,-0.094 l -0.02,-0.014 a 0.5,0.5 0 0 0 -0.251,-0.092 l -0.883,-0.068 h -0.002 c -0.192,-0.015 -0.287,-0.104 -0.287,-0.25 0,-0.146 0.097,-0.241 0.28,-0.252 l 1.099,-0.066 a 0.5,0.5 0 0 0 0.158,-0.028 c 0.296,-0.1 0.786,-0.422 0.883,-1.035 0.068,-0.432 -0.043,-0.799 -0.188,-1.031 a 1.3,1.3 0 0 0 -0.35,-0.367 l 0.003,0.02 a 0.5,0.5 0 0 0 -0.075,-0.089 l -1.125,-0.394 c -0.182,-0.064 -0.25,-0.175 -0.212,-0.317 0.03,-0.115 0.109,-0.17 0.24,-0.177 a 0.4,0.4 0 0 1 0.096,0.006 l 1.222,0.25 a 0.5,0.5 0 0 0 0.213,-0.002 c 0.258,-0.06 0.751,-0.31 0.985,-0.916 A 1.32,1.32 0 0 0 21.375,26.51 C 21.27,26.344 21.208,26.314 21.131,26.25 a 0.5,0.5 0 0 0 -0.154,-0.187 l -0.756,-0.516 c -0.16,-0.108 -0.196,-0.236 -0.123,-0.361 0.045,-0.08 0.1,-0.11 0.19,-0.115 a 0.36,0.36 0 0 1 0.179,0.039 l 1,0.498 a 0.5,0.5 0 0 0 0.107,0.039 c 0.298,0.07 0.917,0.063 1.328,-0.445 0.276,-0.34 0.363,-0.713 0.354,-0.987 -0.01,-0.273 -0.121,-0.494 -0.121,-0.494 l -0.022,0.043 A 0.5,0.5 0 0 0 23.09,23.629 l -0.781,-0.91 c -0.126,-0.146 -0.129,-0.278 -0.026,-0.38 a 0.2,0.2 0 0 1 0.164,-0.067 c 0.066,0 0.144,0.026 0.211,0.086 l 0.928,0.822 a 0.5,0.5 0 0 0 0.166,0.098 c 0.232,0.082 0.818,0.153 1.357,-0.283 a 1.32,1.32 0 0 0 0.485,-1.051 c -0.01,-0.259 -0.082,-0.4 -0.108,-0.457 a 0.5,0.5 0 0 0 -0.015,-0.096 l -0.414,-0.863 c -0.083,-0.173 -0.052,-0.304 0.074,-0.377 a 0.2,0.2 0 0 1 0.107,-0.03 0.3,0.3 0 0 1 0.248,0.149 l 0.582,0.88 a 1,1 0 0 0 0.047,0.06 c 0.094,0.103 0.253,0.255 0.504,0.359 0.251,0.104 0.605,0.138 0.953,0.004 0.72,-0.277 0.912,-0.904 0.936,-1.106 a 0.5,0.5 0 0 0 -0.004,-0.15 l -0.225,-1.195 c -0.035,-0.19 0.027,-0.307 0.166,-0.344 a 0.2,0.2 0 0 1 0.047,-0.008 h 0.002 c 0.106,-0.006 0.218,0.065 0.268,0.215 l 0.379,1.135 a 0.5,0.5 0 0 0 0.05,0.105 c 0,0 0.135,0.207 0.368,0.352 0.233,0.145 0.596,0.254 1.029,0.185 0.478,-0.075 0.802,-0.396 0.945,-0.666 0.143,-0.27 0.158,-0.53 0.158,-0.53 v -0.005 l 0.059,-0.973 c 0.011,-0.182 0.104,-0.277 0.252,-0.277 m 0,3.25 c -5.793,0 -10.5,4.707 -10.5,10.5 0,5.793 4.707,10.5 10.5,10.5 5.793,0 10.5,-4.707 10.5,-10.5 0,-5.793 -4.707,-10.5 -10.5,-10.5 m 0,0.5 a 10,10 0 0 1 10,10 10,10 0 0 1 -10,10 10,10 0 0 1 -10,-10 10,10 0 0 1 10,-10"
     filter="url(#i)"
     opacity="0.15"
     style="mix-blend-mode:hard-light;paint-order:fill markers stroke;opacity:0.95788043;filter:url(#i)"
     id="path20" />
  <path
     fill="url(#j)"
     d="m 22.436,11.752 c -0.366,0.218 -0.496,0.676 -0.33,1.081 l 0.877,2.133 v 0.004 c 0.101,0.344 -0.025,0.652 -0.34,0.844 -0.365,0.222 -0.767,0.145 -1.036,-0.216 h -0.002 l -1.314,-1.717 a 0.87,0.87 0 0 0 -0.947,-0.321 0.8,0.8 0 0 0 -0.226,0.112 c -0.383,0.268 -0.457,0.782 -0.207,1.177 l 1.223,1.93 0.002,0.004 c 0.174,0.344 0.095,0.69 -0.209,0.932 -0.302,0.243 -0.662,0.253 -0.962,0.006 l -0.053,-0.046 -1.606,-1.48 a 0.88,0.88 0 0 0 -0.838,-0.21 0.8,0.8 0 0 0 -0.355,0.21 c -0.33,0.33 -0.314,0.846 0,1.192 l 1.552,1.702 c 0.217,0.291 0.206,0.628 -0.026,0.917 -0.267,0.334 -0.671,0.397 -1.048,0.15 l -0.002,0.003 -1.82,-1.168 a 0.9,0.9 0 0 0 -0.714,-0.118 0.82,0.82 0 0 0 -0.464,0.324 c -0.268,0.383 -0.16,0.89 0.21,1.176 l 1.789,1.38 v 0.002 l 0.006,0.006 10e-4,0.002 c 0.294,0.264 0.345,0.621 0.14,0.959 -0.194,0.319 -0.515,0.456 -0.865,0.35 l -10e-4,-10e-4 -2.118,-0.884 a 0.9,0.9 0 0 0 -0.573,-0.046 0.82,0.82 0 0 0 -0.55,0.453 c -0.198,0.424 -0.005,0.905 0.409,1.122 l 2.013,1.057 v 0.001 h 0.002 l 0.002,-0.002 0.001,0.002 c 0.319,0.198 0.43,0.523 0.308,0.882 -0.137,0.405 -0.492,0.605 -0.93,0.501 l -2.112,-0.474 a 0.9,0.9 0 0 0 -0.416,0.003 0.83,0.83 0 0 0 -0.618,0.594 c -0.12,0.451 0.152,0.891 0.597,1.033 l 2.07,0.66 0.042,0.013 0.027,0.009 c 0.384,0.144 0.562,0.471 0.483,0.867 -0.073,0.363 -0.32,0.598 -0.681,0.621 h -0.003 l -2.305,-0.106 a 1,1 0 0 0 -0.256,0.021 0.84,0.84 0 0 0 -0.659,0.746 c -0.04,0.465 0.304,0.852 0.767,0.915 l 2.17,0.29 q 0.033,0.003 0.065,0.01 h 0.004 c 0.382,0.069 0.607,0.342 0.615,0.729 0.01,0.397 -0.221,0.692 -0.613,0.773 l -0.008,0.003 -2.233,0.288 a 1,1 0 0 0 -0.168,0.036 0.846,0.846 0 0 0 -0.6,0.879 c 0.04,0.465 0.448,0.784 0.915,0.766 l 2.175,-0.09 -10e-4,0.003 c 0.45,-0.026 0.758,0.221 0.823,0.643 0.055,0.36 -0.091,0.662 -0.41,0.81 l -2.224,0.695 c -0.446,0.14 -0.717,0.583 -0.596,1.034 0.121,0.451 0.576,0.697 1.033,0.597 l 2.136,-0.467 10e-4,0.002 c 0.416,-0.1 0.75,0.076 0.899,0.458 0.142,0.366 0.032,0.718 -0.298,0.93 l -2.02,1.042 c -0.415,0.214 -0.605,0.7 -0.408,1.124 0.198,0.424 0.69,0.585 1.122,0.408 l 2.007,-0.825 0.003,0.002 c 0.414,-0.178 0.79,-0.051 0.994,0.324 0.171,0.311 0.143,0.64 -0.09,0.886 l -0.002,10e-4 -1.866,1.423 c -0.372,0.284 -0.475,0.795 -0.207,1.177 0.268,0.383 0.778,0.457 1.173,0.207 l 1.847,-1.167 0.003,0.002 c 0.357,-0.236 0.728,-0.184 1,0.125 0.251,0.286 0.273,0.642 0.055,0.948 l -0.003,0.007 -0.005,0.007 -1.55,1.68 c -0.317,0.344 -0.331,0.865 0,1.196 0.33,0.33 0.846,0.314 1.192,-10e-4 l 1.607,-1.463 0.005,0.005 c 0.327,-0.31 0.724,-0.315 1.045,-0.033 0.267,0.234 0.35,0.55 0.214,0.862 v 0.001 l -0.001,10e-4 -1.263,1.972 c -0.253,0.394 -0.176,0.907 0.207,1.175 0.383,0.269 0.889,0.163 1.175,-0.207 l 1.333,-1.726 0.003,0.003 c 0.254,-0.344 0.623,-0.422 0.983,-0.225 0.336,0.185 0.48,0.514 0.376,0.88 h 0.001 l -0.884,2.115 c -0.18,0.431 -0.015,0.924 0.41,1.121 0.423,0.198 0.902,0.007 1.12,-0.407 l 1.007,-1.92 0.006,0.004 c 0.202,-0.403 0.573,-0.547 0.971,-0.392 0.33,0.128 0.514,0.395 0.497,0.73 v 0.003 l -0.515,2.29 c -0.102,0.457 0.146,0.913 0.597,1.034 0.452,0.121 0.892,-0.151 1.034,-0.596 l 0.662,-2.076 0.008,0.002 c 0.12,-0.41 0.439,-0.611 0.844,-0.549 0.377,0.058 0.624,0.315 0.653,0.69 v 0.004 l -0.106,2.297 c -0.021,0.466 0.302,0.874 0.768,0.914 0.466,0.04 0.852,-0.304 0.914,-0.767 l 0.29,-2.15 h 0.007 c 0.053,-0.447 0.351,-0.708 0.778,-0.699 0.353,0.008 0.617,0.195 0.716,0.516 v 0.002 l 0.001,0.002 0.301,2.33 c 0.06,0.463 0.449,0.807 0.914,0.766 0.465,-0.041 0.786,-0.447 0.767,-0.914 l -0.094,-2.307 c 0.026,-0.358 0.259,-0.604 0.62,-0.676 0.42,-0.084 0.761,0.122 0.89,0.553 l 0.646,2.068 c 0.14,0.446 0.583,0.717 1.034,0.596 0.451,-0.121 0.696,-0.578 0.596,-1.035 L 37.976,50.7 37.964,50.635 c -0.07,-0.408 0.127,-0.736 0.512,-0.866 0.35,-0.119 0.666,-0.016 0.865,0.283 l 0.009,0.015 1.06,2.022 c 0.218,0.414 0.696,0.604 1.12,0.407 0.424,-0.197 0.59,-0.69 0.41,-1.121 l -0.837,-2.009 c -0.17,-0.392 -0.043,-0.754 0.308,-0.967 0.334,-0.203 0.688,-0.156 0.952,0.13 l 1.39,1.797 c 0.286,0.37 0.792,0.476 1.175,0.208 0.383,-0.268 0.46,-0.78 0.207,-1.173 l -1.16,-1.815 0.003,-0.002 c -0.248,-0.376 -0.185,-0.78 0.149,-1.047 0.294,-0.235 0.634,-0.245 0.928,-0.017 l 0.002,-10e-4 v 0.002 l 1.683,1.534 c 0.345,0.315 0.862,0.33 1.192,0 0.33,-0.331 0.318,-0.85 10e-4,-1.194 l -1.475,-1.598 -0.03,-0.036 -0.01,-0.01 c -0.253,-0.302 -0.245,-0.665 0,-0.97 0.25,-0.314 0.614,-0.386 0.97,-0.188 l 0.065,0.041 1.825,1.157 c 0.395,0.25 0.907,0.176 1.175,-0.207 0.268,-0.383 0.164,-0.893 -0.208,-1.177 l -1.71,-1.304 0.001,-0.003 c -0.36,-0.27 -0.439,-0.671 -0.217,-1.036 0.198,-0.326 0.523,-0.45 0.882,-0.329 l 0.004,0.003 2.088,0.855 c 0.432,0.178 0.925,0.017 1.123,-0.407 0.197,-0.423 0.006,-0.904 -0.41,-1.119 l -1.994,-1.032 -0.01,-0.005 c -0.327,-0.198 -0.437,-0.536 -0.313,-0.9 0.131,-0.388 0.456,-0.582 0.869,-0.506 l 0.052,0.013 2.111,0.461 c 0.457,0.1 0.914,-0.146 1.035,-0.597 0.121,-0.452 -0.152,-0.894 -0.598,-1.033 l -2.054,-0.643 c -0.431,-0.13 -0.641,-0.481 -0.558,-0.9 0.077,-0.385 0.352,-0.611 0.748,-0.608 l 0.057,10e-4 2.166,0.089 c 0.467,0.019 0.874,-0.302 0.915,-0.767 C 54.472,33.6 54.13,33.21 53.667,33.15 l -2.268,-0.292 c -0.355,-0.084 -0.562,-0.36 -0.57,-0.733 -0.01,-0.427 0.251,-0.726 0.699,-0.778 h 0.001 l 2.136,-0.29 c 0.464,-0.062 0.807,-0.45 0.766,-0.915 -0.041,-0.465 -0.446,-0.787 -0.913,-0.765 l -2.216,0.102 h -0.009 c -0.408,-0.006 -0.69,-0.259 -0.752,-0.657 -0.062,-0.405 0.137,-0.724 0.547,-0.845 v -0.003 l 2.065,-0.66 c 0.445,-0.141 0.718,-0.58 0.597,-1.032 -0.121,-0.451 -0.577,-0.7 -1.033,-0.597 l -2.248,0.504 -0.002,0.001 v -0.001 h -0.002 c -0.352,0.033 -0.63,-0.156 -0.763,-0.495 -0.155,-0.399 -0.012,-0.767 0.39,-0.97 v -0.006 l 1.91,-1.002 c 0.414,-0.217 0.607,-0.696 0.41,-1.12 a 0.83,0.83 0 0 0 -0.71,-0.479 0.9,0.9 0 0 0 -0.31,0.033 q -0.051,0.015 -0.1,0.037 l -2.08,0.867 -0.012,0.004 c -0.373,0.115 -0.71,-0.026 -0.899,-0.37 -0.197,-0.36 -0.119,-0.727 0.225,-0.981 l -0.006,-0.006 1.722,-1.326 c 0.37,-0.286 0.475,-0.794 0.207,-1.177 a 0.83,0.83 0 0 0 -0.78,-0.348 0.912,0.912 0 0 0 -0.393,0.14 l -1.967,1.261 c -0.312,0.137 -0.631,0.053 -0.866,-0.215 -0.282,-0.321 -0.275,-0.718 0.034,-1.046 l -0.004,-0.007 1.454,-1.595 c 0.315,-0.345 0.332,-0.863 10e-4,-1.193 a 0.83,0.83 0 0 0 -0.83,-0.209 0.9,0.9 0 0 0 -0.364,0.206 l -1.678,1.548 -10e-4,0.001 c -0.308,0.224 -0.668,0.202 -0.957,-0.052 -0.309,-0.27 -0.36,-0.643 -0.124,-1 l -0.005,-0.004 1.163,-1.837 c 0.25,-0.395 0.178,-0.908 -0.205,-1.176 a 0.83,0.83 0 0 0 -0.715,-0.113 0.9,0.9 0 0 0 -0.462,0.32 l -1.415,1.858 c -0.248,0.238 -0.576,0.268 -0.89,0.096 -0.375,-0.205 -0.504,-0.58 -0.325,-0.994 l -0.008,-0.005 0.823,-2.001 c 0.177,-0.433 0.017,-0.924 -0.406,-1.121 a 0.8,0.8 0 0 0 -0.405,-0.076 q -0.056,0.003 -0.11,0.012 a 0.89,0.89 0 0 0 -0.605,0.471 l -1.053,2.036 -0.004,0.002 c -0.213,0.311 -0.556,0.413 -0.913,0.274 -0.382,-0.149 -0.56,-0.482 -0.46,-0.898 l -0.005,-10e-4 0.465,-2.13 c 0.1,-0.456 -0.145,-0.912 -0.597,-1.033 a 0.8,0.8 0 0 0 -0.41,-0.004 0.88,0.88 0 0 0 -0.623,0.601 l -0.7,2.24 -0.001,0.003 c -0.153,0.301 -0.448,0.44 -0.797,0.386 -0.423,-0.065 -0.672,-0.376 -0.646,-0.825 l -0.008,-0.002 0.089,-2.16 c 0.019,-0.467 -0.3,-0.872 -0.767,-0.913 a 0.8,0.8 0 0 0 -0.332,0.036 0.88,0.88 0 0 0 -0.582,0.731 l -0.296,2.284 v 0.002 c -0.097,0.357 -0.383,0.565 -0.76,0.557 -0.41,-0.01 -0.69,-0.261 -0.739,-0.686 H 31.263 L 30.971,10.46 C 30.908,9.997 30.522,9.652 30.057,9.693 a 0.86,0.86 0 0 0 -0.767,0.914 l 0.099,2.176 c 0.026,0.426 -0.205,0.723 -0.607,0.804 -0.399,0.08 -0.735,-0.106 -0.879,-0.495 l -0.021,-0.064 -0.655,-2.056 c -0.142,-0.445 -0.58,-0.717 -1.032,-0.596 -0.452,0.121 -0.7,0.576 -0.597,1.032 l 0.474,2.115 c 0.104,0.438 -0.088,0.785 -0.493,0.923 -0.389,0.131 -0.75,-0.004 -0.94,-0.387 l -1.003,-1.94 a 0.866,0.866 0 0 0 -0.962,-0.464 0.8,0.8 0 0 0 -0.238,0.097 z m -1.645,8.956 c 0,0 0.92,-0.578 1.803,-0.437 0.915,0.147 1.665,1.303 1.665,1.303 l 4,6.928 c 0,0 0.8,1.533 0.827,3.64 0.025,1.994 -1.058,3.925 -1.058,3.925 l -3.769,6.526 c 0,0 -0.75,1.158 -1.665,1.304 -0.883,0.141 -1.803,-0.436 -1.803,-0.436 l 0.056,0.101 a 16,16 0 0 1 -4.283,-7.313 16,16 0 0 1 4.227,-15.54 z m 6.966,-4.022 0.12,-0.033 a 16,16 0 0 1 19.596,11.313 l 0.068,0.265 c -0.02,0.352 -0.11,1.06 -0.52,1.563 -0.583,0.72 -1.96,0.79 -1.96,0.79 h -7.537 c 0,0 -2.214,-0.027 -3.93,-1.047 -1.81,-1.076 -2.737,-2.535 -2.737,-2.535 l -4,-6.928 c 0,0 -0.627,-1.228 -0.296,-2.094 0.262,-0.684 0.953,-1.148 1.195,-1.294 z m 3.387,13.903 a 1.75,1.75 0 0 1 2.391,0.64 1.75,1.75 0 0 1 -0.64,2.391 1.75,1.75 0 0 1 -2.391,-0.64 1.75,1.75 0 0 1 0.64,-2.39 m 2.347,4.099 c 1.837,-1.03 3.565,-1.102 3.565,-1.102 l 8.005,-0.001 c 0,0 1.376,0.07 1.96,0.79 0.425,0.522 0.508,1.268 0.523,1.604 A 16,16 0 0 1 36.159,47.565 16,16 0 0 1 27.765,47.533 l 0.076,-0.001 c 0,0 -0.96,-0.508 -1.279,-1.344 -0.331,-0.865 0.296,-2.092 0.296,-2.092 l 3.83,-6.633 0.004,-0.008 c 0.272,-0.422 1.312,-1.933 2.799,-2.766 z"
     style="mix-blend-mode:hard-light;paint-order:fill markers stroke;opacity:0.95788043;filter:url(#filter613)"
     id="path21" />
  <path
     fill="#ffffff"
     d="m 30.143,9.69 a 0.9,0.9 0 0 0 -0.254,0.037 c -0.373,0.111 -0.617,0.472 -0.598,0.88 l 0.098,2.176 c 0.026,0.427 -0.205,0.723 -0.607,0.803 -0.399,0.08 -0.734,-0.105 -0.877,-0.494 l -0.022,-0.065 -0.654,-2.054 c -0.142,-0.446 -0.582,-0.719 -1.033,-0.598 -0.451,0.121 -0.7,0.577 -0.598,1.033 l 0.475,2.115 c 0.104,0.439 -0.088,0.785 -0.493,0.922 -0.388,0.132 -0.75,-0.004 -0.94,-0.386 l -1.003,-1.94 a 0.866,0.866 0 0 0 -1.123,-0.408 1,1 0 0 0 -0.078,0.04 c -0.366,0.22 -0.495,0.678 -0.328,1.083 l 0.877,2.13 v 0.007 c 0.1,0.344 -0.027,0.652 -0.342,0.843 -0.365,0.222 -0.766,0.145 -1.035,-0.216 H 21.606 L 20.29,13.88 a 0.87,0.87 0 0 0 -0.947,-0.32 0.8,0.8 0 0 0 -0.227,0.11 c -0.382,0.269 -0.455,0.784 -0.205,1.179 l 1.223,1.93 0.002,0.003 c 0.175,0.344 0.094,0.689 -0.209,0.932 -0.302,0.242 -0.663,0.253 -0.963,0.006 l -0.053,-0.045 -1.605,-1.48 a 0.88,0.88 0 0 0 -0.838,-0.212 0.8,0.8 0 0 0 -0.355,0.21 c -0.331,0.33 -0.315,0.847 0,1.193 l 1.552,1.703 c 0.218,0.29 0.205,0.626 -0.027,0.916 -0.267,0.333 -0.67,0.398 -1.047,0.15 l -0.002,0.004 -1.82,-1.17 a 0.9,0.9 0 0 0 -0.713,-0.117 0.82,0.82 0 0 0 -0.465,0.324 c -0.268,0.383 -0.161,0.89 0.209,1.176 l 1.79,1.381 0.005,0.006 h 0.002 v 0.002 c 0.294,0.265 0.344,0.623 0.139,0.961 -0.194,0.319 -0.513,0.456 -0.864,0.35 L 14.87,23.07 12.753,22.187 A 0.9,0.9 0 0 0 12.179,22.14 0.82,0.82 0 0 0 11.63,22.593 c -0.197,0.424 -0.005,0.904 0.408,1.121 l 2.014,1.059 h 0.004 c 0.269,0.167 0.391,0.424 0.35,0.717 l 0.043,-0.022 -0.043,0.025 a 1,1 0 0 1 -0.041,0.163 c -0.137,0.404 -0.492,0.603 -0.93,0.5 l -2.113,-0.473 a 0.9,0.9 0 0 0 -0.414,0.002 0.83,0.83 0 0 0 -0.62,0.594 c -0.12,0.451 0.153,0.89 0.598,1.033 l 2.069,0.66 0.043,0.014 0.027,0.007 c 0.384,0.144 0.561,0.472 0.482,0.868 -0.072,0.363 -0.32,0.597 -0.681,0.62 h -0.002 l -2.305,-0.105 a 1,1 0 0 0 -0.256,0.022 0.84,0.84 0 0 0 -0.66,0.746 c -0.04,0.465 0.304,0.851 0.768,0.914 l 2.17,0.289 0.064,0.01 h 0.006 c 0.382,0.07 0.606,0.343 0.615,0.73 0.009,0.397 -0.221,0.692 -0.613,0.774 l -0.008,0.002 -2.234,0.289 a 1,1 0 0 0 -0.168,0.035 0.846,0.846 0 0 0 -0.6,0.879 c 0.04,0.465 0.449,0.784 0.916,0.765 l 2.174,-0.09 -0.002,0.004 c 0.45,-0.026 0.76,0.22 0.824,0.643 0.055,0.36 -0.091,0.662 -0.41,0.81 l -2.225,0.696 c -0.446,0.14 -0.716,0.582 -0.595,1.033 0.12,0.452 0.576,0.698 1.033,0.598 l 2.136,-0.467 v 0.002 c 0.416,-0.1 0.75,0.074 0.899,0.457 0.142,0.365 0.033,0.718 -0.297,0.93 l -2.02,1.043 c -0.415,0.214 -0.605,0.7 -0.408,1.123 0.198,0.423 0.689,0.585 1.121,0.408 l 2.008,-0.824 0.002,0.002 c 0.414,-0.179 0.789,-0.051 0.994,0.324 0.17,0.311 0.143,0.64 -0.09,0.887 h -0.002 l -1.865,1.423 c -0.371,0.284 -0.475,0.793 -0.207,1.176 0.268,0.383 0.777,0.457 1.172,0.207 l 1.848,-1.168 0.004,0.002 c 0.356,-0.236 0.727,-0.183 0.998,0.125 0.252,0.287 0.274,0.643 0.056,0.95 l -0.003,0.005 -0.004,0.008 -1.551,1.68 c -0.317,0.344 -0.33,0.865 0,1.195 0.33,0.33 0.846,0.315 1.191,0 l 1.608,-1.463 0.004,0.004 c 0.327,-0.309 0.725,-0.315 1.046,-0.033 0.268,0.235 0.349,0.551 0.213,0.863 v 0.002 L 18.91,49.36 c -0.253,0.393 -0.176,0.908 0.207,1.176 0.383,0.268 0.888,0.163 1.173,-0.207 l 1.334,-1.727 0.004,0.002 c 0.254,-0.344 0.623,-0.422 0.983,-0.225 0.336,0.185 0.48,0.515 0.377,0.88 v 10e-4 l -0.883,2.114 c -0.18,0.431 -0.015,0.925 0.408,1.123 0.424,0.197 0.902,0.005 1.12,-0.408 l 1.007,-1.92 0.006,0.004 c 0.202,-0.403 0.574,-0.548 0.973,-0.393 0.329,0.128 0.514,0.394 0.496,0.73 v 0.002 l -0.516,2.291 c -0.102,0.456 0.146,0.915 0.598,1.036 0.451,0.12 0.891,-0.153 1.033,-0.598 l 0.662,-2.076 0.008,0.002 c 0.121,-0.41 0.44,-0.611 0.846,-0.55 0.377,0.059 0.622,0.316 0.652,0.69 v 0.006 l -0.106,2.295 c -0.021,0.467 0.302,0.875 0.768,0.916 0.466,0.041 0.852,-0.304 0.914,-0.767 l 0.29,-2.15 h 0.007 c 0.052,-0.448 0.35,-0.71 0.777,-0.7 0.353,0.008 0.619,0.196 0.717,0.518 v 0.002 h 0.002 l 0.3,2.33 c 0.06,0.463 0.45,0.808 0.915,0.767 0.465,-0.041 0.784,-0.447 0.766,-0.914 l -0.094,-2.306 c 0.025,-0.359 0.26,-0.606 0.62,-0.678 0.42,-0.084 0.76,0.123 0.89,0.555 l 0.646,2.066 c 0.14,0.446 0.582,0.717 1.033,0.596 0.451,-0.121 0.696,-0.577 0.596,-1.034 L 37.978,50.7 37.966,50.636 c -0.07,-0.409 0.127,-0.737 0.512,-0.868 0.35,-0.118 0.666,-0.014 0.865,0.286 l 0.008,0.013 1.062,2.022 c 0.218,0.414 0.696,0.605 1.12,0.408 0.423,-0.198 0.59,-0.69 0.41,-1.121 l -0.838,-2.01 c -0.17,-0.392 -0.042,-0.754 0.308,-0.967 0.334,-0.203 0.688,-0.156 0.952,0.13 v 10e-4 l 1.39,1.797 c 0.286,0.37 0.791,0.475 1.174,0.207 0.383,-0.268 0.46,-0.778 0.207,-1.172 l -1.16,-1.816 0.004,-0.002 c -0.248,-0.377 -0.185,-0.778 0.148,-1.045 0.294,-0.236 0.634,-0.245 0.928,-0.018 l 0.002,-0.002 0.002,0.002 1.682,1.535 c 0.345,0.315 0.86,0.33 1.19,-0.002 0.331,-0.33 0.32,-0.85 0.003,-1.193 l -1.475,-1.598 -0.03,-0.037 -0.01,-0.01 c -0.254,-0.301 -0.245,-0.664 0,-0.968 0.25,-0.314 0.613,-0.386 0.968,-0.188 q 0.034,0.019 0.066,0.041 l 1.827,1.156 c 0.395,0.25 0.905,0.176 1.173,-0.207 0.268,-0.383 0.165,-0.894 -0.207,-1.177 l -1.71,-1.303 0.002,-0.004 c -0.362,-0.269 -0.44,-0.67 -0.217,-1.035 0.198,-0.326 0.522,-0.45 0.88,-0.33 l 0.004,0.004 2.088,0.855 c 0.433,0.178 0.926,0.016 1.123,-0.408 0.198,-0.424 0.005,-0.904 -0.41,-1.12 l -1.992,-1.03 -0.012,-0.006 c -0.327,-0.198 -0.435,-0.535 -0.312,-0.899 0.131,-0.388 0.456,-0.582 0.869,-0.506 l 0.053,0.012 2.11,0.461 c 0.456,0.1 0.913,-0.146 1.034,-0.598 0.121,-0.452 -0.151,-0.891 -0.597,-1.03 l -2.053,-0.645 c -0.432,-0.13 -0.642,-0.481 -0.559,-0.9 0.077,-0.385 0.352,-0.611 0.748,-0.608 l 0.057,0.002 2.166,0.088 c 0.467,0.019 0.873,-0.3 0.914,-0.766 0.04,-0.465 -0.302,-0.856 -0.766,-0.916 L 51.4,32.858 c -0.355,-0.084 -0.562,-0.36 -0.57,-0.732 -0.01,-0.428 0.251,-0.725 0.699,-0.778 l 0.002,-0.002 2.136,-0.287 c 0.464,-0.062 0.807,-0.45 0.766,-0.916 -0.04,-0.465 -0.447,-0.787 -0.914,-0.765 l -2.215,0.101 -0.01,0.002 c -0.408,-0.006 -0.69,-0.26 -0.752,-0.658 -0.062,-0.406 0.138,-0.724 0.547,-0.846 l 0.002,-0.002 2.063,-0.66 c 0.445,-0.142 0.718,-0.581 0.598,-1.033 -0.12,-0.452 -0.578,-0.698 -1.034,-0.596 L 50.47,26.19 h -0.004 c -0.351,0.032 -0.63,-0.156 -0.761,-0.496 -0.156,-0.398 -0.014,-0.766 0.388,-0.969 v -0.006 l 1.91,-1.002 c 0.414,-0.217 0.608,-0.697 0.41,-1.12 a 0.83,0.83 0 0 0 -0.71,-0.48 0.9,0.9 0 0 0 -0.41,0.071 l -2.08,0.867 -0.01,0.004 c -0.373,0.115 -0.713,-0.026 -0.9,-0.369 -0.198,-0.36 -0.12,-0.728 0.224,-0.982 l -0.004,-0.006 1.72,-1.326 c 0.37,-0.286 0.476,-0.795 0.208,-1.178 a 0.82,0.82 0 0 0 -0.883,-0.33 0.9,0.9 0 0 0 -0.291,0.12 l -1.967,1.263 c -0.312,0.136 -0.63,0.052 -0.865,-0.215 -0.282,-0.321 -0.276,-0.717 0.033,-1.045 l -0.004,-0.008 1.455,-1.594 c 0.315,-0.345 0.33,-0.863 0,-1.193 a 0.83,0.83 0 0 0 -0.83,-0.21 0.9,0.9 0 0 0 -0.363,0.206 l -1.678,1.549 h -0.002 c -0.308,0.224 -0.668,0.203 -0.957,-0.051 -0.308,-0.27 -0.359,-0.644 -0.123,-1 l -0.006,-0.004 1.164,-1.838 c 0.25,-0.395 0.178,-0.907 -0.205,-1.176 a 0.83,0.83 0 0 0 -0.715,-0.113 0.9,0.9 0 0 0 -0.463,0.32 l -1.416,1.858 c -0.247,0.238 -0.574,0.27 -0.888,0.097 -0.375,-0.205 -0.505,-0.58 -0.326,-0.994 l -0.006,-0.006 0.822,-2.002 c 0.177,-0.432 0.017,-0.923 -0.406,-1.12 a 0.8,0.8 0 0 0 -0.405,-0.075 c -0.036,0.003 -0.075,0.004 -0.11,0.012 a 0.89,0.89 0 0 0 -0.606,0.47 l -1.053,2.036 -0.004,0.002 c -0.213,0.311 -0.556,0.414 -0.912,0.275 -0.383,-0.149 -0.56,-0.483 -0.46,-0.898 l -0.005,-0.002 0.465,-2.13 c 0.1,-0.456 -0.146,-0.911 -0.598,-1.032 a 0.8,0.8 0 0 0 -0.41,-0.004 0.88,0.88 0 0 0 -0.623,0.601 l -0.7,2.24 -10e-4,0.002 c -0.153,0.302 -0.447,0.439 -0.797,0.385 -0.423,-0.065 -0.67,-0.374 -0.645,-0.824 l -0.007,-0.002 0.087,-2.16 c 0.02,-0.467 -0.3,-0.872 -0.765,-0.912 a 0.8,0.8 0 0 0 -0.334,0.037 0.88,0.88 0 0 0 -0.582,0.73 l -0.295,2.283 v 0.002 c -0.098,0.357 -0.384,0.566 -0.762,0.557 -0.41,-0.01 -0.69,-0.26 -0.738,-0.685 H 31.265 L 30.972,10.461 C 30.913,10.027 30.57,9.696 30.144,9.69 Z m -0.01,0.798 0.022,0.002 h 0.002 l 0.008,0.008 q 0.007,0.014 0.013,0.07 l 0.293,2.159 0.022,0.02 c 0.048,0.354 0.197,0.709 0.47,0.96 0.284,0.261 0.663,0.39 1.028,0.399 0.68,0.015 1.369,-0.481 1.55,-1.145 A 0.8,0.8 0 0 0 33.463,12.35 l 0.135,0.232 0.262,-2.015 v -0.002 c 0.006,-0.049 0.027,-0.067 0.035,-0.073 h 0.016 l 0.023,0.002 0.002,0.002 h 0.002 l 0.002,0.002 h 0.002 V 10.5 l 0.002,0.002 0.002,0.006 a 0.3,0.3 0 0 1 0.002,0.069 l -0.088,2.16 0.02,0.025 c -0.014,0.371 0.074,0.758 0.312,1.06 0.247,0.314 0.621,0.507 0.998,0.565 0.62,0.095 1.338,-0.232 1.633,-0.816 a 1,1 0 0 0 0.059,-0.156 l 0.691,-2.21 c 0.015,-0.048 0.043,-0.06 0.051,-0.062 l 0.002,-0.002 h 0.004 l 0.006,0.002 a 0.1,0.1 0 0 1 0.027,0.01 l 0.002,0.002 v 0.002 l 0.002,0.002 v 0.002 l 0.002,0.002 v 0.002 a 0.3,0.3 0 0 1 -0.01,0.068 l -0.464,2.13 0.011,0.017 c -0.078,0.352 -0.058,0.74 0.114,1.072 0.177,0.342 0.49,0.594 0.83,0.727 0.61,0.238 1.37,0.004 1.783,-0.512 a 0.8,0.8 0 0 0 0.135,-0.143 l 1.052,-2.035 c 0.017,-0.033 0.034,-0.047 0.045,-0.053 h 0.014 l 0.006,-0.002 h 0.002 l 0.002,0.002 0.004,0.002 0.021,0.01 v 0.002 h 0.002 l 0.002,0.002 v 0.004 l 0.002,0.002 v 0.006 q -10e-4,0.016 -0.023,0.067 l -0.823,2.002 0.01,0.03 c -0.14,0.345 -0.188,0.74 -0.066,1.106 0.126,0.379 0.41,0.685 0.744,0.868 0.554,0.303 1.352,0.239 1.83,-0.221 a 1,1 0 0 0 0.08,-0.092 l 1.416,-1.857 a 0.1,0.1 0 0 1 0.053,-0.04 l 0.014,-0.003 h 0.002 v 0.002 h 0.007 l 0.002,0.002 h 0.002 l 0.002,0.002 0.018,0.013 0.002,0.002 v 0.002 l 0.002,0.002 v 0.008 c 0,0.012 -0.01,0.03 -0.033,0.067 l -1.164,1.836 0.004,0.029 c -0.19,0.302 -0.305,0.669 -0.258,1.037 0.049,0.382 0.257,0.726 0.531,0.967 0.516,0.453 1.375,0.506 1.943,0.101 a 1,1 0 0 0 0.086,-0.064 l 1.676,-1.547 a 0.1,0.1 0 0 1 0.049,-0.027 l 0.021,-0.008 h 0.002 v 0.002 h 0.004 l 0.002,0.002 q 0.004,0.004 0.01,0.012 l 0.016,0.017 0.002,0.002 v 0.01 l -0.002,0.002 v 0.002 a 0.3,0.3 0 0 1 -0.043,0.055 l -1.453,1.596 -0.004,0.037 c -0.247,0.275 -0.428,0.628 -0.44,1.011 a 1.58,1.58 0 0 0 0.403,1.07 c 0.417,0.475 1.181,0.685 1.787,0.42 a 1,1 0 0 0 0.113,-0.058 l 1.965,-1.262 a 0.1,0.1 0 0 1 0.037,-0.017 v 0.002 l 0.014,-0.002 h 0.002 q 0.016,-0.004 0.021,-0.006 h 0.002 v 0.002 h 0.002 v 0.002 h 0.002 l 0.008,0.014 0.012,0.02 0.002,10e-4 v 0.008 l -0.002,0.002 v 0.002 l -0.002,0.002 v 0.002 a 0.2,0.2 0 0 1 -0.051,0.047 l -1.72,1.326 a 1,1 0 0 0 -0.061,0.111 c -0.246,0.215 -0.47,0.476 -0.543,0.805 a 1.58,1.58 0 0 0 0.17,1.09 c 0.337,0.617 1.156,0.959 1.836,0.75 l 0.046,-0.018 0.012,-0.004 0.026,-0.01 2.08,-0.867 0.011,-0.005 0.006,-0.002 a 0.1,0.1 0 0 1 0.035,-0.002 h 0.024 l 0.004,0.004 v 0.002 l 0.006,0.013 0.01,0.022 v 0.006 l -0.002,0.002 v 0.004 l -0.004,0.004 a 0.3,0.3 0 0 1 -0.059,0.035 l -1.91,1.002 -0.014,0.03 c -0.327,0.173 -0.62,0.442 -0.762,0.8 -0.147,0.37 -0.126,0.79 0.012,1.144 0.157,0.402 0.531,0.674 0.95,0.836 l -0.133,-0.23 a 0.8,0.8 0 0 0 1.09,0.295 l -0.1,0.058 2.129,-0.476 a 0.3,0.3 0 0 1 0.064,-0.01 h 0.004 l 0.002,0.002 h 0.002 v 0.002 l 0.006,0.006 q 0.004,0.008 0.006,0.024 0.005,0.016 0.006,0.025 l -0.002,0.002 v 0.004 l -0.006,0.006 a 0.3,0.3 0 0 1 -0.065,0.025 l -2.064,0.66 -0.03,0.03 c -0.334,0.11 -0.653,0.31 -0.85,0.619 a 1.58,1.58 0 0 0 -0.216,1.082 c 0.11,0.714 0.798,1.326 1.531,1.338 h 0.008 c 0.028,0 0.037,-0.002 0.051,-0.002 l 2.215,-0.102 q 0.052,-0.003 0.066,0 h 0.002 l 0.002,0.002 h 0.002 l 0.002,0.002 v 0.002 h 0.002 v 0.004 l 0.002,0.002 q 0.002,0.009 0.002,0.024 v 0.027 l -0.002,0.002 v 0.002 l -0.002,0.002 v 0.002 h -0.002 l -0.004,0.004 a 0.3,0.3 0 0 1 -0.066,0.014 l -2.123,0.287 -0.014,0.002 h -0.002 a 1.63,1.63 0 0 0 -1.01,0.51 c -0.265,0.297 -0.389,0.7 -0.38,1.08 0.014,0.66 0.513,1.333 1.183,1.492 a 1,1 0 0 0 0.084,0.016 l 2.268,0.29 a 0.2,0.2 0 0 1 0.062,0.014 h 0.002 l 0.004,0.004 v 0.002 h 0.002 v 0.004 a 0.1,0.1 0 0 1 0,0.03 0.1,0.1 0 0 1 -0.006,0.027 v 0.002 h -0.002 v 0.002 l -0.002,0.002 h -0.002 l -0.002,0.002 h -0.002 q -0.014,0.006 -0.068,0.004 l -2.166,-0.09 0.016,0.002 -0.1,-0.004 h -0.002 c -0.703,-0.005 -1.4,0.568 -1.537,1.252 -0.151,0.756 0.368,1.6 1.113,1.822 l 2.045,0.641 a 0.2,0.2 0 0 1 0.063,0.025 h 0.002 l 0.002,0.002 v 0.002 l 0.002,0.002 v 0.01 l -0.004,0.022 -0.008,0.021 -0.002,0.002 v 0.002 h -0.002 l -0.004,0.004 h -0.002 l -0.002,0.002 c -0.012,0.004 -0.032,0.001 -0.072,-0.007 l -2.096,-0.46 -0.016,-0.003 -0.076,-0.016 -0.002,-0.002 c -0.725,-0.134 -1.538,0.347 -1.771,1.037 -0.218,0.642 0.052,1.475 0.656,1.84 l 0.03,0.018 0.009,0.003 0.018,0.01 1.994,1.033 q 0.046,0.024 0.058,0.034 v 0.002 l 0.002,0.002 v 0.002 l 0.002,0.002 v 0.006 l -0.002,0.002 a 0.1,0.1 0 0 1 -0.02,0.04 l -0.003,0.005 h -0.004 l -0.002,0.002 H 51.67 A 0.2,0.2 0 0 1 51.6,41.285 l -2.016,-0.824 0.047,0.031 A 0.8,0.8 0 0 0 49.459,40.41 c -0.653,-0.22 -1.468,0.09 -1.82,0.67 -0.396,0.65 -0.199,1.598 0.406,2.069 l 0.008,0.023 1.709,1.303 q 0.044,0.033 0.05,0.048 v 0.004 l 0.002,0.002 -0.002,0.002 v 0.006 l -0.011,0.02 -0.016,0.018 -0.002,0.002 v 0.002 h -0.006 l -0.002,0.002 h -0.002 l -0.002,-0.002 h -0.002 a 0.2,0.2 0 0 1 -0.06,-0.032 L 47.895,43.4 47.883,43.392 q -0.046,-0.03 -0.105,-0.062 c -0.63,-0.352 -1.536,-0.176 -1.985,0.384 -0.432,0.54 -0.448,1.434 0.014,1.985 l 0.014,0.015 0.015,0.018 c 0.002,0.004 0.01,0.017 0.041,0.049 l 1.47,1.592 a 0.2,0.2 0 0 1 0.038,0.048 v 0.012 l -0.002,0.002 v 0.002 l -0.002,0.002 -0.013,0.018 -0.018,0.016 -0.002,0.002 h -0.014 l -0.002,-0.002 a 0.2,0.2 0 0 1 -0.053,-0.041 v 0.002 l -1.59,-1.452 0.06,0.108 a 0.8,0.8 0 0 0 -0.312,-0.242 l 0.108,0.007 C 45.499,45.82 45.431,45.834 45.381,45.805 A 0.8,0.8 0 0 0 45.144,45.73 c -0.51,-0.187 -1.104,-0.18 -1.517,0.15 -0.534,0.429 -0.634,1.23 -0.367,1.862 a 0.8,0.8 0 0 0 0.04,0.244 l 1.16,1.815 h 0.003 c 0.019,0.03 0.029,0.046 0.031,0.056 v 0.008 l -0.004,0.004 -0.021,0.018 -0.02,0.012 h -0.002 l -0.002,0.002 h -0.004 l -0.002,-0.002 h -0.004 l -0.002,-0.002 h -0.002 a 0.3,0.3 0 0 1 -0.045,-0.051 l -1.355,-1.754 0.025,0.047 a 0.8,0.8 0 0 0 -0.105,-0.145 c -0.477,-0.516 -1.36,-0.63 -1.955,-0.27 -0.621,0.378 -0.926,1.279 -0.625,1.97 l 0.832,1.998 a 0.2,0.2 0 0 1 0.02,0.06 l -0.003,0.002 v 0.004 l -0.002,0.002 v 0.002 l -0.006,0.006 -0.021,0.012 -0.024,0.008 -0.002,0.002 h -0.002 l -0.002,-0.002 h -0.004 l -0.002,-0.002 h -0.002 v -0.002 a 0.3,0.3 0 0 1 -0.035,-0.059 l -1.06,-2.021 -0.036,-0.06 -0.011,-0.02 -0.004,-0.006 c -0.37,-0.556 -1.166,-0.808 -1.787,-0.598 -0.691,0.234 -1.17,1.032 -1.045,1.758 q 0.005,0.036 0.023,0.117 l 0.457,2.094 a 0.3,0.3 0 0 1 0.01,0.068 l -0.002,0.006 -0.002,0.002 v 0.002 l -0.002,0.002 h -0.002 v 0.002 H 37.655 A 0.1,0.1 0 0 1 37.61,53.083 H 37.604 L 37.602,53.081 H 37.6 L 37.598,53.079 H 37.596 V 53.077 L 37.594,53.075 A 0.2,0.2 0 0 1 37.571,53.016 L 36.928,50.96 36.926,50.958 a 1.63,1.63 0 0 0 -0.682,-0.92 1.6,1.6 0 0 0 -1.13,-0.188 c -0.639,0.128 -1.213,0.727 -1.26,1.404 a 1,1 0 0 0 -0.002,0.09 l 0.093,2.307 a 0.3,0.3 0 0 1 -0.002,0.068 l -0.002,0.002 v 0.002 l -0.002,0.002 v 0.002 h -0.002 l -0.002,0.002 h -0.002 l -0.002,0.002 h -0.002 l -0.021,0.004 a 0.1,0.1 0 0 1 -0.03,-0.002 h -10e-4 l -0.004,-0.004 v -0.002 h -0.002 l -0.002,-0.002 q -0.008,-0.014 -0.012,-0.062 l -0.3,-2.33 A 0.8,0.8 0 0 0 33.5,51.163 c -0.206,-0.6 -0.825,-1.033 -1.436,-1.047 a 1.6,1.6 0 0 0 -1.082,0.383 c -0.289,0.258 -0.446,0.624 -0.496,0.994 l -0.018,0.015 -0.29,2.15 a 0.2,0.2 0 0 1 -0.016,0.067 l -0.002,0.002 v 0.002 l -0.004,0.004 h -0.004 l -0.002,0.002 q -0.01,0.002 -0.026,0 a 0.1,0.1 0 0 1 -0.027,-0.006 l -0.002,-0.002 h -0.002 v -0.002 l -0.002,-0.002 v -0.002 l -0.002,-0.002 v -0.002 a 0.2,0.2 0 0 1 -0.002,-0.062 l 0.102,-2.215 -0.022,0.082 a 0.8,0.8 0 0 0 0.018,-0.197 0.8,0.8 0 0 0 -0.043,-0.178 c -0.109,-0.644 -0.64,-1.213 -1.28,-1.31 a 1.58,1.58 0 0 0 -1.084,0.214 c -0.31,0.201 -0.516,0.526 -0.625,0.864 l -0.027,0.015 -0.662,2.076 a 0.2,0.2 0 0 1 -0.027,0.065 v 0.002 h -0.002 l -0.002,0.002 h -0.002 l -0.002,0.002 h -0.008 l -0.022,-0.004 -0.027,-0.01 v -0.002 l -0.004,-0.004 v -0.002 l -0.002,-0.002 v -0.002 a 0.2,0.2 0 0 1 0.01,-0.062 l 0.515,-2.291 a 0.8,0.8 0 0 0 -0.058,-0.393 c -0.083,-0.55 -0.427,-1.066 -0.928,-1.262 h -0.002 a 1.58,1.58 0 0 0 -1.145,-0.01 c -0.358,0.144 -0.63,0.436 -0.804,0.764 l -0.026,0.006 -1.008,1.92 a 0.3,0.3 0 0 1 -0.037,0.06 l -0.004,0.005 H 22.867 L 22.846,51.78 22.824,51.766 H 22.822 V 51.764 L 22.82,51.762 V 51.76 L 22.818,51.758 V 51.75 a 0.2,0.2 0 0 1 0.02,-0.06 l 0.883,-2.114 a 1,1 0 0 0 0.031,-0.092 V 49.482 L 23.764,49.44 C 23.928,48.776 23.582,48.01 22.99,47.686 A 1.58,1.58 0 0 0 21.9,47.518 c -0.364,0.081 -0.671,0.315 -0.89,0.6 l -0.024,10e-4 -1.334,1.727 a 0.3,0.3 0 0 1 -0.046,0.053 h -0.002 l -0.002,0.002 h -0.01 L 19.59,49.899 19.57,49.885 q -0.016,-0.01 -0.021,-0.018 v -0.002 l -0.002,-0.002 v -0.01 a 0.2,0.2 0 0 1 0.03,-0.056 l 1.159,-1.807 -0.168,0.096 a 0.8,0.8 0 0 0 0.334,-0.379 v 0.004 c 0.261,-0.601 0.054,-1.368 -0.42,-1.783 a 1.6,1.6 0 0 0 -1.07,-0.405 c -0.387,0.01 -0.745,0.193 -1.022,0.444 h -0.025 l -1.606,1.46 -0.002,0.005 a 0.3,0.3 0 0 1 -0.054,0.043 h -0.012 l -0.002,-0.002 h -0.002 l -0.002,-0.002 a 0.1,0.1 0 0 1 -0.031,-0.034 v -0.006 l -0.002,-0.002 0.002,-0.002 v -0.004 q 0.002,-0.015 0.039,-0.052 v -0.004 l 1.55,-1.68 a 1,1 0 0 0 0.051,-0.063 l 0.022,-0.03 v -0.003 h 0.002 v -0.002 l 0.025,-0.039 0.004,-0.006 c 0.005,-0.006 0.008,-0.008 0.016,-0.021 v -0.002 c 0.347,-0.565 0.279,-1.374 -0.155,-1.867 a 1.58,1.58 0 0 0 -0.966,-0.532 c -0.367,-0.047 -0.73,0.068 -1.032,0.256 h -0.033 l -1.848,1.168 v 0.004 a 0.3,0.3 0 0 1 -0.06,0.033 h -0.008 l -0.002,-0.002 h -0.002 l -0.004,-0.004 a 0.2,0.2 0 0 1 -0.027,-0.043 v -0.008 l 0.002,-0.002 v -0.002 a 0.2,0.2 0 0 1 0.048,-0.045 l 1.827,-1.392 -0.045,0.025 a 0.8,0.8 0 0 0 0.183,-0.144 c 0.454,-0.482 0.513,-1.269 0.211,-1.82 a 1.58,1.58 0 0 0 -0.87,-0.745 c -0.361,-0.118 -0.75,-0.068 -1.089,0.067 l -0.045,-0.004 -2.006,0.826 a 0.2,0.2 0 0 1 -0.07,0.021 L 12.37,41.309 H 12.366 L 12.364,41.307 H 12.362 V 41.305 L 12.36,41.303 h -0.002 l -0.01,-0.02 a 0.1,0.1 0 0 1 -0.007,-0.026 v -0.004 l 0.002,-0.006 v -0.002 c 0.006,-0.011 0.023,-0.02 0.056,-0.037 l 2.02,-1.041 0.064,-0.04 c 0.602,-0.386 0.868,-1.235 0.611,-1.892 a 1.58,1.58 0 0 0 -0.728,-0.832 c -0.331,-0.17 -0.717,-0.186 -1.066,-0.11 l -0.022,-0.01 -2.137,0.467 a 0.3,0.3 0 0 1 -0.068,0.01 H 11.071 L 11.069,37.758 H 11.067 L 11.065,37.756 H 11.063 V 37.754 L 11.061,37.752 V 37.75 h -0.002 l -0.006,-0.021 q -0.005,-0.019 -0.006,-0.03 l 0.002,-0.002 v -0.004 l 0.002,-0.002 v -0.002 h 0.002 l 0.002,-0.002 a 0.2,0.2 0 0 1 0.059,-0.023 l 2.224,-0.695 a 1,1 0 0 0 0.098,-0.037 c 0.61,-0.284 0.962,-1.022 0.865,-1.657 a 1.58,1.58 0 0 0 -0.562,-0.998 c -0.298,-0.235 -0.68,-0.318 -1.045,-0.308 l -0.04,-0.018 -2.173,0.088 a 0.2,0.2 0 0 1 -0.074,-0.004 l -0.002,-0.002 h -0.002 v -0.002 h -0.002 v -0.002 l -0.002,-0.002 v -0.002 l -0.002,-0.002 q -0.002,-0.006 -0.002,-0.02 v -0.025 l 0.002,-0.002 v -0.002 l 0.004,-0.004 q 0.01,-0.006 0.04,-0.013 v -0.002 l 0.028,-0.006 2.233,-0.287 0.068,-0.014 h 0.002 v -0.002 c 0.705,-0.149 1.264,-0.858 1.248,-1.572 -0.016,-0.688 -0.582,-1.372 -1.272,-1.498 H 12.735 Q 12.708,30.57 12.643,30.56 l -0.018,-0.002 -2.152,-0.29 a 0.3,0.3 0 0 1 -0.068,-0.013 l -0.002,-0.002 h -0.002 v -0.002 l -0.002,-0.002 h -0.002 v -0.006 l -0.002,-0.002 q 0,-0.008 0.002,-0.023 0,-0.013 0.002,-0.02 v -0.002 l 0.002,-0.002 v -0.002 h 0.002 l 0.004,-0.004 0.031,-0.008 h 0.002 c 0,0 0.015,-0.003 0.037,-0.002 l 2.22,0.102 -0.048,-0.012 a 0.8,0.8 0 0 0 0.225,0.016 c 0.681,-0.044 1.286,-0.62 1.414,-1.262 0.14,-0.705 -0.305,-1.518 -0.987,-1.773 H 13.3 l -0.04,-0.014 -0.012,-0.004 -0.041,-0.013 -0.012,-0.004 -2.07,-0.66 A 0.3,0.3 0 0 1 11.06,26.528 l -0.002,-0.002 h -0.002 v -0.002 l -0.002,-0.002 v -0.004 l -0.002,-0.002 v -0.004 q 0,-0.008 0.006,-0.021 l 0.004,-0.012 v -0.002 h 0.002 v -0.002 h 0.002 v -0.002 h 0.002 l 0.023,-0.006 a 0.1,0.1 0 0 1 0.053,0 l 2.111,0.475 -0.01,-0.004 c 0.758,0.18 1.628,-0.295 1.874,-1.022 0.18,-0.535 -0.042,-1.146 -0.444,-1.558 a 0.8,0.8 0 0 0 -1.021,-0.276 l 0.379,-0.219 -1.627,-0.853 a 0.3,0.3 0 0 1 -0.06,-0.037 v -0.002 l -0.003,-0.002 v -0.002 l -0.002,-0.002 v -0.006 l 0.002,-0.002 0.008,-0.022 0.004,-0.01 h 0.002 v -0.001 h 0.002 q 0.003,-0.001 0.013,-0.004 a 0.1,0.1 0 0 1 0.069,0.007 l 1.865,0.78 h 0.002 v -0.002 l -0.123,-0.213 a 0.8,0.8 0 0 0 0.451,0.348 c 0.663,0.2 1.436,-0.134 1.78,-0.7 0.321,-0.529 0.25,-1.278 -0.13,-1.773 a 1,1 0 0 0 -0.054,-0.082 l -0.016,-0.018 0.037,0.055 A 1,1 0 0 0 16.148,21.207 1,1 0 0 0 16.074,21.123 L 14.286,19.742 A 0.2,0.2 0 0 1 14.23,19.689 v -0.012 l 0.012,-0.02 0.006,-0.005 H 14.25 V 19.65 h 0.002 l 0.005,-0.002 c 0.009,-0.003 0.039,-0.003 0.075,0.02 l 1.82,1.167 0.021,-0.004 c 0.65,0.41 1.61,0.273 2.086,-0.322 0.414,-0.516 0.446,-1.358 0.043,-1.897 L 18.252,18.552 16.7,16.85 a 0.3,0.3 0 0 1 -0.043,-0.055 l -0.002,-0.002 v -0.008 l 0.002,-0.002 v -0.002 h 0.002 v -0.002 l 0.015,-0.018 0.006,-0.006 h 0.002 l 0.002,-0.002 h 0.004 c 0.01,0 0.037,0.002 0.07,0.032 l 1.606,1.478 c 0.044,0.04 0.079,0.067 0.088,0.074 v 0.002 c 0.55,0.453 1.435,0.43 1.97,0 0.54,-0.431 0.74,-1.293 0.423,-1.918 l -0.024,-0.043 -0.002,-0.003 -0.013,-0.022 -1.223,-1.93 A 0.2,0.2 0 0 1 19.55,14.355 v -0.006 l 0.002,-0.002 v -0.002 l 0.002,-0.002 v -0.002 q 0.006,-0.005 0.017,-0.012 l 0.004,-0.004 h 0.004 v -0.002 h 0.012 c 0.012,10e-4 0.033,0.01 0.06,0.045 l 1.315,1.719 0.018,0.004 c 0.47,0.607 1.42,0.803 2.07,0.408 0.55,-0.335 0.86,-1.086 0.692,-1.72 A 1,1 0 0 0 23.718,14.663 L 22.841,12.53 h 0.002 q -0.024,-0.06 -0.017,-0.076 l 0.002,-0.002 V 12.45 l 0.008,-0.008 h 0.002 l 0.004,-0.002 q 0.003,0 0.007,-0.002 l 0.006,-0.002 0.01,-0.002 c 0.013,0.001 0.034,0.011 0.057,0.055 l 1.002,1.94 -0.004,-0.012 c 0.336,0.676 1.223,1.022 1.912,0.789 0.36,-0.122 0.695,-0.376 0.885,-0.727 0.19,-0.351 0.219,-0.765 0.13,-1.139 l -0.472,-2.105 a 0.3,0.3 0 0 1 -0.01,-0.066 l 0.002,-0.002 v -0.004 l 0.002,-0.002 v -0.002 h 0.002 l 0.002,-0.002 q 0.008,-0.005 0.025,-0.008 0.015,-0.005 0.024,-0.006 h 0.004 l 0.002,0.002 h 0.002 l 0.006,0.006 v 0.002 a 0.3,0.3 0 0 1 0.025,0.064 l 0.655,2.055 -0.002,-0.012 q 0.014,0.051 0.035,0.112 c 0.256,0.692 1.07,1.145 1.787,1.002 0.358,-0.072 0.71,-0.266 0.943,-0.573 0.233,-0.307 0.327,-0.696 0.305,-1.064 l -0.098,-2.164 v -0.004 c -0.002,-0.047 0.009,-0.065 0.018,-0.072 h 0.002 l 0.002,-0.002 0.006,-0.002 0.01,-0.002 0.005,-0.002 z m 2.35,4.825 a 16.844,16.844 0 0 0 -4.812,0.568 l -0.005,0.002 -0.127,0.035 a 0.8,0.8 0 0 0 -0.195,0.084 c -0.308,0.186 -1.143,0.683 -1.53,1.693 -0.27,0.708 -0.137,1.374 0,1.872 0.139,0.497 0.33,0.87 0.33,0.87 l 0.022,0.038 4,6.927 0.018,0.03 c 0,0 0.89,1.165 2.322,2.236 -0.585,-0.115 -1.21,-0.09 -1.761,0.229 -0.517,0.298 -0.805,0.802 -1.008,1.322 a 13.3,13.3 0 0 0 -0.768,-3.086 l -0.015,-0.03 -4,-6.927 -0.022,-0.037 c 0,0 -0.228,-0.353 -0.59,-0.72 -0.362,-0.367 -0.872,-0.817 -1.62,-0.936 -1.305,-0.209 -2.354,0.548 -2.354,0.548 a 1,1 0 0 0 -0.137,0.108 16.8,16.8 0 0 0 0.059,23.996 1,1 0 0 0 0.08,0.005 c 0.002,0.002 1.048,0.755 2.351,0.547 0.749,-0.12 1.26,-0.567 1.621,-0.935 0.362,-0.369 0.59,-0.723 0.59,-0.723 l 0.022,-0.035 3.767,-6.527 0.006,-0.008 c 0,0 0.815,-1.655 1.02,-3.586 0.053,0.169 -0.026,0.349 0.066,0.508 0.573,0.992 1.715,1.272 2.781,1.023 -1.356,0.953 -2.3,2.193 -2.57,2.611 l -0.002,0.002 -0.002,0.004 v 0.002 l -0.026,0.04 -3.828,6.632 -0.02,0.035 c 0,0 -0.191,0.376 -0.33,0.873 -0.138,0.498 -0.272,1.164 -10e-4,1.872 0.471,1.233 1.652,1.763 1.652,1.763 l 0.012,-0.047 a 1,1 0 0 0 0.074,0.112 16.801,16.801 0 0 0 20.767,-12.129 0.8,0.8 0 0 0 0.024,-0.229 c -0.018,-0.416 -0.075,-1.302 -0.701,-2.074 -0.478,-0.588 -1.12,-0.807 -1.62,-0.935 -0.499,-0.13 -0.92,-0.149 -0.92,-0.149 l -0.04,-0.002 -8.006,0.002 h -0.033 c 0,0 -1.564,0.173 -3.303,0.969 0.751,-0.799 1.081,-1.932 0.508,-2.926 -0.13,-0.226 -0.395,-0.272 -0.578,-0.441 1.853,0.91 3.863,0.996 3.863,0.996 h 7.547 l 0.04,-0.002 c 0,0 0.423,-0.02 0.923,-0.149 0.5,-0.128 1.143,-0.346 1.62,-0.935 0.604,-0.743 0.672,-1.593 0.696,-2.024 A 0.8,0.8 0 0 0 48.319,28.041 L 48.249,27.764 48.246,27.76 C 46.278,20.415 39.719,15.513 32.482,15.313 Z m -0.463,0.794 a 16,16 0 0 1 15.455,11.86 l 0.066,0.263 c -0.02,0.352 -0.109,1.06 -0.517,1.563 -0.584,0.72 -1.963,0.79 -1.963,0.79 h -7.535 c 0,0 -2.215,-0.027 -3.93,-1.046 -1.81,-1.076 -2.738,-2.535 -2.738,-2.535 l -4,-6.928 c 0,0 -0.626,-1.228 -0.295,-2.094 0.261,-0.684 0.953,-1.149 1.195,-1.295 l 0.12,-0.033 a 16,16 0 0 1 4.142,-0.545 z m -9.756,4.143 q 0.165,-0.004 0.33,0.022 c 0.915,0.146 1.666,1.302 1.666,1.302 l 4,6.928 c 0,0 0.8,1.533 0.826,3.639 0.026,1.994 -1.056,3.925 -1.056,3.925 l -3.77,6.528 c 0,0 -0.749,1.156 -1.664,1.302 -0.883,0.141 -1.805,-0.435 -1.805,-0.435 l 0.057,0.101 A 16,16 0 0 1 16.565,36.25 16,16 0 0 1 20.791,20.707 c 0,0 0.705,-0.441 1.473,-0.457 z m 9.756,10.105 a 1.75,1.75 0 0 1 1.516,0.875 1.75,1.75 0 0 1 -0.641,2.39 1.75,1.75 0 0 1 -2.39,-0.64 1.75,1.75 0 0 1 0.64,-2.39 1.75,1.75 0 0 1 0.875,-0.235 m 13.043,3.229 c 0,0 1.375,0.071 1.959,0.79 0.424,0.523 0.509,1.268 0.523,1.604 A 16,16 0 0 1 36.158,47.562 16,16 0 0 1 27.766,47.531 h 0.074 c 0,0 -0.958,-0.509 -1.277,-1.344 -0.331,-0.866 0.295,-2.094 0.295,-2.094 l 3.83,-6.633 0.004,-0.007 c 0.272,-0.423 1.312,-1.933 2.798,-2.766 1.837,-1.03 3.567,-1.102 3.567,-1.102 z m -18.256,16.529 0.004,0.02 -0.002,-0.019 z"
     filter="url(#k)"
     opacity="0.35"
     style="mix-blend-mode:hard-light;paint-order:fill markers stroke;opacity:0.95788043;filter:url(#k)"
     id="path22" />
  <path
     fill="#ffffff"
     d="m 30.16,9.691 a 0.9,0.9 0 0 0 -0.271,0.036 c -0.374,0.111 -0.617,0.472 -0.598,0.88 l 0.098,2.176 c 0.022,0.37 -0.147,0.641 -0.454,0.76 0.141,0.063 0.305,0.078 0.48,0.043 0.403,-0.08 0.635,-0.376 0.608,-0.803 l -0.1,-2.176 A 0.865,0.865 0 0 1 30.447,9.754 0.8,0.8 0 0 0 30.16,9.691 m 3.732,0 a 0.8,0.8 0 0 0 -0.246,0.041 0.88,0.88 0 0 0 -0.582,0.73 l -0.295,2.284 v 0.002 a 0.72,0.72 0 0 1 -0.425,0.498 q 0.134,0.054 0.298,0.059 c 0.378,0.008 0.664,-0.2 0.762,-0.557 l -0.002,-0.002 0.297,-2.283 a 0.88,0.88 0 0 1 0.523,-0.71 0.8,0.8 0 0 0 -0.33,-0.062 m 3.74,0.65 a 0.8,0.8 0 0 0 -0.2,0.024 0.88,0.88 0 0 0 -0.624,0.602 l -0.699,2.24 -0.002,0.002 a 0.7,0.7 0 0 1 -0.347,0.338 1,1 0 0 0 0.185,0.047 c 0.35,0.053 0.645,-0.084 0.797,-0.385 v -0.002 l 0.701,-2.24 a 0.9,0.9 0 0 1 0.504,-0.563 0.9,0.9 0 0 0 -0.314,-0.062 m -11.23,0.007 a 0.8,0.8 0 0 0 -0.206,0.027 c -0.452,0.121 -0.7,0.577 -0.598,1.033 l 0.475,2.115 c 0.1,0.42 -0.073,0.757 -0.444,0.905 a 0.76,0.76 0 0 0 0.584,0.017 c 0.405,-0.137 0.598,-0.483 0.494,-0.922 l -0.474,-2.115 c -0.095,-0.42 0.109,-0.84 0.494,-0.998 a 0.8,0.8 0 0 0 -0.324,-0.062 m -3.597,1.287 a 0.827,0.827 0 0 0 -0.37,0.117 c -0.365,0.218 -0.494,0.677 -0.327,1.082 l 0.877,2.13 v 0.007 c 0.1,0.344 -0.028,0.652 -0.342,0.843 a 1,1 0 0 1 -0.094,0.05 c 0.226,0.112 0.485,0.098 0.729,-0.05 0.314,-0.19 0.44,-0.5 0.34,-0.843 v -0.006 l -0.878,-2.131 c -0.166,-0.405 -0.036,-0.864 0.33,-1.082 a 1,1 0 0 1 0.079,-0.041 l 0.033,-0.014 a 0.8,0.8 0 0 0 -0.377,-0.062 m 18.412,0 a 1,1 0 0 0 -0.092,0.002 q -0.056,0.002 -0.111,0.011 A 0.89,0.89 0 0 0 40.41,12.12 l -1.052,2.035 -0.004,0.002 a 0.8,0.8 0 0 1 -0.3,0.268 l 0.022,0.008 c 0.357,0.139 0.7,0.036 0.912,-0.276 l 0.004,-0.002 1.053,-2.035 a 0.9,0.9 0 0 1 0.451,-0.424 0.8,0.8 0 0 0 -0.277,-0.06 m -21.66,1.888 a 0.8,0.8 0 0 0 -0.44,0.149 c -0.382,0.268 -0.455,0.783 -0.205,1.178 l 1.223,1.93 0.002,0.003 c 0.175,0.344 0.094,0.689 -0.209,0.932 a 1,1 0 0 1 -0.17,0.11 c 0.263,0.132 0.554,0.09 0.805,-0.11 0.303,-0.243 0.381,-0.588 0.207,-0.932 L 20.77,16.78 19.547,14.85 c -0.25,-0.394 -0.176,-0.909 0.207,-1.177 a 1,1 0 0 1 0.156,-0.086 0.85,0.85 0 0 0 -0.351,-0.063 m 24.9,0 a 0.905,0.905 0 0 0 -0.707,0.355 l -1.416,1.858 a 0.8,0.8 0 0 1 -0.182,0.133 c 0.292,0.13 0.588,0.087 0.817,-0.133 l 1.416,-1.857 a 0.9,0.9 0 0 1 0.384,-0.293 0.9,0.9 0 0 0 -0.312,-0.063 m 2.852,2.428 a 0.919,0.919 0 0 0 -0.574,0.24 l -1.678,1.55 h -0.002 a 1,1 0 0 1 -0.13,0.08 0.72,0.72 0 0 0 0.764,-0.08 h 0.002 l 1.678,-1.55 a 0.9,0.9 0 0 1 0.287,-0.18 0.8,0.8 0 0 0 -0.348,-0.06 m -30.635,0.002 a 0.82,0.82 0 0 0 -0.561,0.24 c -0.33,0.33 -0.315,0.848 0,1.194 l 1.553,1.703 c 0.217,0.29 0.204,0.626 -0.028,0.916 a 0.8,0.8 0 0 1 -0.273,0.226 c 0.334,0.151 0.674,0.066 0.908,-0.226 0.232,-0.29 0.243,-0.625 0.025,-0.916 l -1.55,-1.703 c -0.315,-0.346 -0.33,-0.863 0,-1.194 a 0.8,0.8 0 0 1 0.271,-0.18 0.9,0.9 0 0 0 -0.346,-0.06 m 15.664,0.158 a 16,16 0 0 1 15.136,11.855 l 0.067,0.264 c -0.02,0.352 -0.11,1.06 -0.518,1.562 -0.584,0.72 -1.963,0.791 -1.963,0.791 h 0.635 c 0,0 1.377,-0.071 1.961,-0.79 0.408,-0.503 0.5,-1.21 0.52,-1.563 L 48.107,27.967 A 16,16 0 0 0 32.337,16.112 Z m 17.435,2.733 a 1,1 0 0 0 -0.207,0.023 0.9,0.9 0 0 0 -0.29,0.121 l -1.948,1.248 c 0.19,0.099 0.404,0.106 0.615,0.014 l 1.967,-1.262 a 1,1 0 0 1 0.17,-0.084 0.9,0.9 0 0 0 -0.307,-0.06 m -35.448,0.002 a 0.824,0.824 0 0 0 -0.732,0.352 c -0.269,0.382 -0.162,0.89 0.208,1.175 l 1.79,1.38 0.003,0.005 0.002,0.002 h 0.002 v 0.002 c 0.294,0.264 0.344,0.623 0.139,0.96 a 0.8,0.8 0 0 1 -0.32,0.311 l 0.09,0.037 v 0.002 c 0.35,0.106 0.67,-0.03 0.864,-0.35 0.206,-0.337 0.156,-0.696 -0.138,-0.96 l -0.002,-0.002 -0.006,-0.004 v -0.002 l -1.79,-1.381 c -0.37,-0.286 -0.478,-0.793 -0.21,-1.176 a 0.8,0.8 0 0 1 0.371,-0.293 0.9,0.9 0 0 0 -0.271,-0.058 m 8.591,1.404 a 2,2 0 0 0 -0.304,0.023 c 0.907,0.158 1.648,1.301 1.648,1.301 l 4,6.928 c 0,0 0.8,1.533 0.826,3.639 0.025,1.994 -1.056,3.925 -1.056,3.925 l -3.77,6.528 c 0,0 -0.741,1.143 -1.648,1.3 0.2,0.03 0.41,0.036 0.617,0.002 0.915,-0.146 1.666,-1.302 1.666,-1.302 l 3.767,-6.528 c 0,0 1.084,-1.93 1.06,-3.925 -0.028,-2.106 -0.827,-3.64 -0.827,-3.64 l -4,-6.927 c 0,0 -0.751,-1.156 -1.666,-1.302 a 2,2 0 0 0 -0.313,-0.022 z m -10.47,1.865 a 0.9,0.9 0 0 0 -0.266,0.026 0.82,0.82 0 0 0 -0.55,0.453 c -0.197,0.423 -0.005,0.904 0.409,1.12 l 2.014,1.06 h 0.004 c 0.318,0.197 0.43,0.523 0.308,0.882 a 0.75,0.75 0 0 1 -0.42,0.473 l 0.123,0.027 c 0.439,0.104 0.795,-0.095 0.932,-0.5 0.122,-0.359 0.01,-0.685 -0.309,-0.883 h -0.005 l -2.012,-1.058 c -0.414,-0.217 -0.608,-0.698 -0.41,-1.121 a 0.82,0.82 0 0 1 0.45,-0.422 1,1 0 0 0 -0.269,-0.057 m 39.18,0 a 0.9,0.9 0 0 0 -0.335,0.072 l -2.015,0.84 c 0.163,0.08 0.356,0.094 0.558,0.032 l 0.012,-0.004 2.08,-0.868 0.033,-0.013 A 0.9,0.9 0 0 0 51.624,22.116 M 11.11,25.66 q -0.105,0.001 -0.203,0.025 a 0.83,0.83 0 0 0 -0.619,0.594 c -0.12,0.452 0.152,0.891 0.598,1.033 l 2.068,0.66 0.043,0.014 0.027,0.008 c 0.384,0.144 0.562,0.471 0.483,0.867 -0.062,0.31 -0.252,0.529 -0.531,0.6 l 0.482,0.021 h 0.002 c 0.36,-0.023 0.61,-0.258 0.682,-0.62 0.079,-0.397 -0.099,-0.724 -0.483,-0.868 L 13.632,27.986 13.589,27.973 11.52,27.313 C 11.075,27.17 10.802,26.731 10.923,26.279 a 0.82,0.82 0 0 1 0.53,-0.566 l -0.132,-0.03 a 1,1 0 0 0 -0.21,-0.023 m 41.736,0.004 a 1,1 0 0 0 -0.13,0.021 l -1.989,0.446 q 0.167,0.075 0.371,0.058 h 0.004 l 2.121,-0.476 A 0.9,0.9 0 0 0 52.847,25.664 M 10.52,29.377 a 1,1 0 0 0 -0.256,0.021 0.84,0.84 0 0 0 -0.66,0.746 c -0.04,0.466 0.305,0.852 0.768,0.914 l 2.17,0.29 0.064,0.01 h 0.006 c 0.382,0.07 0.607,0.343 0.615,0.73 0.01,0.397 -0.221,0.692 -0.613,0.773 l -0.008,0.002 -2.234,0.29 a 1,1 0 0 0 -0.168,0.034 0.846,0.846 0 0 0 -0.6,0.88 c 0.041,0.465 0.45,0.784 0.916,0.765 l 0.41,-0.018 a 0.84,0.84 0 0 1 -0.693,-0.748 0.85,0.85 0 0 1 0.602,-0.879 1,1 0 0 1 0.168,-0.035 l 2.232,-0.289 0.008,-0.002 c 0.392,-0.081 0.622,-0.376 0.613,-0.773 -0.009,-0.387 -0.233,-0.66 -0.615,-0.73 h -0.004 l -0.065,-0.01 -2.17,-0.29 C 10.543,30.996 10.198,30.61 10.239,30.144 a 0.84,0.84 0 0 1 0.66,-0.746 q 0.006,-0.001 0.012,-0.004 z m 42.998,0 -1.773,0.082 q 0.087,0.02 0.183,0.021 l 0.008,-0.002 1.819,-0.084 a 1,1 0 0 0 -0.237,-0.017 m -20.943,0.98 a 2,2 0 0 0 -0.232,0.028 1.75,1.75 0 0 1 1.193,0.845 1.75,1.75 0 0 1 -0.64,2.391 1.8,1.8 0 0 1 -0.557,0.205 1.75,1.75 0 0 0 1.191,-0.205 1.75,1.75 0 0 0 0.641,-2.39 1.75,1.75 0 0 0 -1.596,-0.874 m 12.49,3.227 c 0.055,0.003 1.385,0.086 1.957,0.791 0.425,0.523 0.51,1.268 0.524,1.603 a 16,16 0 0 1 -11.387,11.584 16,16 0 0 1 -3.82,0.543 16,16 0 0 0 4.455,-0.543 16,16 0 0 0 11.386,-11.584 c -0.015,-0.335 -0.1,-1.08 -0.524,-1.603 -0.584,-0.72 -1.96,-0.791 -1.96,-0.791 z m -31.736,1.158 -0.406,0.018 c 0.323,0.057 0.54,0.283 0.594,0.629 0.055,0.36 -0.091,0.662 -0.41,0.81 l -2.225,0.695 c -0.446,0.14 -0.717,0.582 -0.596,1.034 0.121,0.451 0.577,0.697 1.034,0.597 l 0.13,-0.029 a 0.82,0.82 0 0 1 -0.529,-0.568 c -0.12,-0.452 0.15,-0.894 0.596,-1.034 l 2.224,-0.695 c 0.32,-0.148 0.464,-0.45 0.409,-0.81 -0.065,-0.423 -0.373,-0.67 -0.823,-0.643 z m 38.6,0 a 1,1 0 0 0 -0.185,0.018 l 1.775,0.072 a 1,1 0 0 0 0.227,-0.016 l -1.76,-0.072 z m -37.613,3.291 a 1,1 0 0 0 -0.224,0.027 v -0.001 l -0.13,0.027 a 0.74,0.74 0 0 1 0.393,0.432 c 0.143,0.365 0.034,0.717 -0.297,0.93 l -2.019,1.042 c -0.415,0.215 -0.606,0.7 -0.408,1.123 0.192,0.412 0.662,0.577 1.086,0.422 a 0.82,0.82 0 0 1 -0.453,-0.422 c -0.198,-0.423 -0.005,-0.908 0.41,-1.123 l 2.017,-1.043 c 0.33,-0.212 0.442,-0.564 0.3,-0.93 -0.122,-0.31 -0.365,-0.483 -0.675,-0.484 m 36.752,0.002 a 0.75,0.75 0 0 0 -0.332,0.055 l 1.987,0.433 c 0.174,0.038 0.35,0.028 0.505,-0.027 l -1.982,-0.434 a 1,1 0 0 0 -0.178,-0.027 m -1.53,3.082 a 0.7,0.7 0 0 0 -0.27,0.07 l 2.027,0.832 a 0.91,0.91 0 0 0 0.672,0.014 L 51.93,42.019 49.842,41.164 49.838,41.16 a 0.8,0.8 0 0 0 -0.3,-0.043 m -33.753,0.002 a 0.9,0.9 0 0 0 -0.361,0.068 q 0.203,0.101 0.332,0.336 c 0.17,0.312 0.143,0.64 -0.09,0.887 h -0.002 l -1.865,1.424 c -0.372,0.283 -0.475,0.793 -0.207,1.176 0.23,0.329 0.638,0.43 1,0.293 A 0.8,0.8 0 0 1 14.225,45.01 c -0.269,-0.383 -0.165,-0.893 0.207,-1.176 l 1.867,-1.424 h 0.002 c 0.233,-0.247 0.26,-0.575 0.09,-0.887 -0.139,-0.252 -0.354,-0.394 -0.606,-0.404 m 1.883,2.785 a 0.8,0.8 0 0 0 -0.297,0.078 q 0.13,0.068 0.242,0.194 c 0.252,0.286 0.275,0.643 0.057,0.949 l -0.004,0.006 -0.004,0.008 -1.55,1.68 c -0.317,0.343 -0.331,0.864 0,1.195 a 0.83,0.83 0 0 0 0.902,0.181 0.8,0.8 0 0 1 -0.27,-0.181 c -0.33,-0.33 -0.317,-0.852 0,-1.196 l 1.553,-1.68 0.004,-0.007 q 0.001,-0.005 0.004,-0.006 c 0.218,-0.306 0.195,-0.662 -0.057,-0.95 -0.165,-0.187 -0.367,-0.28 -0.58,-0.27 m 29.904,0.006 a 0.7,0.7 0 0 0 -0.252,0.074 1,1 0 0 1 0.135,0.076 l 1.826,1.157 c 0.252,0.16 0.553,0.187 0.807,0.086 a 1,1 0 0 1 -0.174,-0.086 l -1.824,-1.157 -0.067,-0.04 a 0.8,0.8 0 0 0 -0.451,-0.11 m -2.36,2.404 a 0.7,0.7 0 0 0 -0.29,0.08 q 0.068,0.035 0.134,0.086 l 0.002,-0.002 0.002,0.002 1.682,1.536 c 0.261,0.238 0.62,0.304 0.922,0.18 a 0.9,0.9 0 0 1 -0.287,-0.18 l -1.684,-1.536 h -0.002 a 0.73,0.73 0 0 0 -0.479,-0.166 m -25.125,0.002 a 0.7,0.7 0 0 0 -0.314,0.078 1,1 0 0 1 0.188,0.127 c 0.267,0.235 0.348,0.552 0.212,0.864 v 0.002 L 18.91,49.36 c -0.252,0.394 -0.176,0.908 0.207,1.176 0.243,0.17 0.536,0.19 0.79,0.086 a 1,1 0 0 1 -0.155,-0.086 c -0.383,-0.268 -0.46,-0.782 -0.207,-1.176 l 1.261,-1.972 h 0.002 v -0.002 c 0.136,-0.312 0.052,-0.629 -0.215,-0.864 a 0.76,0.76 0 0 0 -0.506,-0.205 m 2.8,1.957 a 0.66,0.66 0 0 0 -0.337,0.077 q 0.03,0.013 0.06,0.029 c 0.337,0.184 0.481,0.514 0.378,0.879 v 0.002 l -0.883,2.113 c -0.18,0.431 -0.015,0.925 0.408,1.123 0.222,0.104 0.46,0.1 0.666,0.014 l -0.031,-0.014 c -0.424,-0.198 -0.59,-0.692 -0.41,-1.123 l 0.885,-2.113 -0.002,-0.002 c 0.103,-0.365 -0.039,-0.695 -0.375,-0.88 a 0.8,0.8 0 0 0 -0.36,-0.105 m 19.536,0.002 a 0.8,0.8 0 0 0 -0.287,0.076 q 0.122,0.063 0.229,0.176 v 0.002 l 1.39,1.797 c 0.248,0.321 0.662,0.444 1.018,0.295 A 0.93,0.93 0 0 1 44.387,50.327 L 42.998,48.53 V 48.528 A 0.72,0.72 0 0 0 42.422,48.276 M 25.93,49.72 a 0.7,0.7 0 0 0 -0.289,0.07 c 0.314,0.132 0.49,0.393 0.473,0.72 v 0.003 l -0.516,2.29 c -0.102,0.457 0.146,0.915 0.598,1.036 0.186,0.05 0.37,0.033 0.531,-0.035 -0.385,-0.159 -0.588,-0.58 -0.494,-1 l 0.516,-2.291 v -0.002 c 0.018,-0.337 -0.17,-0.603 -0.498,-0.73 a 0.8,0.8 0 0 0 -0.32,-0.061 m 13.436,0.002 a 0.9,0.9 0 0 0 -0.312,0.068 c 0.11,0.055 0.21,0.145 0.289,0.264 l 0.008,0.013 1.062,2.022 c 0.212,0.403 0.67,0.595 1.086,0.422 a 0.9,0.9 0 0 1 -0.453,-0.422 l -1.06,-2.022 -0.01,-0.013 a 0.69,0.69 0 0 0 -0.61,-0.332 M 29.26,50.608 a 0.7,0.7 0 0 0 -0.322,0.06 0.71,0.71 0 0 1 0.461,0.64 v 0.005 l -0.105,2.295 c -0.022,0.467 0.301,0.876 0.767,0.916 a 0.8,0.8 0 0 0 0.389,-0.06 0.87,0.87 0 0 1 -0.522,-0.856 l 0.106,-2.295 -0.002,-0.001 0.002,-0.004 c -0.03,-0.375 -0.278,-0.632 -0.655,-0.69 a 1,1 0 0 0 -0.119,-0.01 m 6.803,0 a 1,1 0 0 0 -0.309,0.063 c 0.19,0.086 0.336,0.26 0.41,0.51 l 0.647,2.066 c 0.14,0.446 0.582,0.717 1.033,0.596 q 0.054,-0.014 0.104,-0.033 a 0.9,0.9 0 0 1 -0.502,-0.563 l -0.647,-2.066 c -0.113,-0.378 -0.388,-0.584 -0.736,-0.573 m -3.379,0.3 a 0.8,0.8 0 0 0 -0.334,0.058 c 0.2,0.079 0.348,0.237 0.416,0.459 v 0.002 h 0.002 l 0.3,2.33 c 0.06,0.463 0.45,0.808 0.915,0.767 a 0.8,0.8 0 0 0 0.244,-0.06 0.88,0.88 0 0 1 -0.525,-0.707 l -0.301,-2.33 -0.002,-0.002 c -0.098,-0.322 -0.362,-0.51 -0.715,-0.518"
     filter="url(#l)"
     style="mix-blend-mode:hard-light;paint-order:fill markers stroke;opacity:0.95788043;filter:url(#l)"
     id="path23" />
  <path
     fill="#ffffff"
     d="m 25.23,19.621 a 0.7,0.7 0 0 0 -0.35,0.098 c -0.36,0.207 -0.454,0.651 -0.275,1.025 l 0.414,0.863 -0.002,0.016 c 0,0 0.264,0.543 -0.183,0.947 l 0.955,1.653 a 10,10 0 0 1 2.603,-1.489 l -0.951,-1.65 q -0.024,0.011 -0.049,0.021 c -0.465,0.18 -0.784,-0.095 -0.906,-0.23 L 25.904,19.994 A 0.8,0.8 0 0 0 25.23,19.621 m 16.662,10.963 a 10,10 0 0 1 0.11,1.477 10,10 0 0 1 -0.118,1.523 h 1.96 c 0.109,-0.622 0.736,-0.666 0.736,-0.666 l 0.056,-0.041 0.867,-0.066 c 0.414,-0.032 0.748,-0.335 0.748,-0.75 0,-0.415 -0.333,-0.725 -0.748,-0.75 l -1.115,-0.067 a 0.78,0.78 0 0 1 -0.547,-0.642 q 0,-0.009 -0.002,-0.018 z m -16.084,9.326 -0.986,1.71 c 0.328,0.285 0.29,0.648 0.24,0.835 l -0.46,0.918 c -0.185,0.371 -0.085,0.818 0.274,1.026 0.36,0.207 0.792,0.067 1.026,-0.276 l 0.482,-0.707 0.047,-0.02 c 0,0 0.357,-0.53 0.961,-0.298 l 0.033,0.013 0.99,-1.716 A 10,10 0 0 1 25.808,39.91"
     filter="url(#m)"
     opacity="0.75"
     style="mix-blend-mode:hard-light;paint-order:fill markers stroke;opacity:0.95788043;filter:url(#m)"
     id="path24" />
</svg>
