<?xml version="1.0" encoding="UTF-8" standalone="no"?>
<svg
   width="64"
   height="64"
   version="1.1"
   id="svg7"
   sodipodi:docname="user-trash.svg"
   inkscape:version="1.4.2 (ebf0e940d0, 2025-05-08)"
   xmlns:inkscape="http://www.inkscape.org/namespaces/inkscape"
   xmlns:sodipodi="http://sodipodi.sourceforge.net/DTD/sodipodi-0.dtd"
   xmlns="http://www.w3.org/2000/svg"
   xmlns:svg="http://www.w3.org/2000/svg">
  <sodipodi:namedview
     id="namedview7"
     pagecolor="#ffffff"
     bordercolor="#000000"
     borderopacity="0.25"
     inkscape:showpageshadow="2"
     inkscape:pageopacity="0.0"
     inkscape:pagecheckerboard="0"
     inkscape:deskcolor="#d1d1d1"
     inkscape:zoom="13.40625"
     inkscape:cx="32.037296"
     inkscape:cy="32"
     inkscape:window-width="1920"
     inkscape:window-height="1048"
     inkscape:window-x="0"
     inkscape:window-y="0"
     inkscape:window-maximized="1"
     inkscape:current-layer="svg7" />
  <defs
     id="defs4">
    <filter
       id="c"
       width="1.2253302"
       height="1.2508464"
       x="-0.1126651"
       y="-0.12542322"
       color-interpolation-filters="sRGB">
      <feGaussianBlur
         stdDeviation="1.738"
         id="feGaussianBlur1" />
    </filter>
    <filter
       id="d"
       width="1.0969886"
       height="1.0951184"
       x="-0.048494304"
       y="-0.047559184"
       color-interpolation-filters="sRGB">
      <feGaussianBlur
         stdDeviation=".971"
         id="feGaussianBlur2" />
    </filter>
    <filter
       id="a"
       width="1.0142003"
       height="1.0757333"
       x="-0.0071001482"
       y="-0.037866668"
       color-interpolation-filters="sRGB">
      <feGaussianBlur
         stdDeviation=".142"
         id="feGaussianBlur3" />
    </filter>
    <linearGradient
       id="b"
       x1="31"
       x2="31"
       y1="9"
       y2="48"
       gradientUnits="userSpaceOnUse">
      <stop
         offset="0"
         stop-color="#ffffff"
         stop-opacity=".69"
         id="stop3"
         style="stop-color:#545454;stop-opacity:0.69;" />
      <stop
         offset="1"
         stop-color="#ffffff"
         stop-opacity=".1"
         id="stop4" />
    </linearGradient>
  </defs>
  <path
     fill="#aa6d4c"
     fill-opacity=".69"
     d="M8.008 10A4 4 0 0 0 8 11l5 43c.32 2.752 3.23 5 6 5h26c2.77 0 5.68-2.248 6-5l5-43a4 4 0 0 0-.008-1h-.033q.04.245.041.5c0 2.493-3.002 4.5-6.732 4.5H14.733C11.003 15 8 12.993 8 10.5q0-.255.041-.5z"
     id="path4"
     style="opacity:0.93310345;fill:#40271e;fill-opacity:0.69" />
  <rect
     width="48"
     height="9"
     x="8"
     y="6"
     fill="#b87f61"
     fill-opacity=".62"
     rx="6.733"
     ry="4.5"
     id="rect4"
     style="opacity:0.93310345;fill:#301f15;fill-opacity:0.62" />
  <path
     fill="#fcfaf9"
     fill-opacity=".976"
     d="M14.732 6C11.002 6 8 8.007 8 10.5s3.002 4.5 6.732 4.5h34.535c3.73 0 6.732-2.007 6.732-4.5S52.997 6 49.267 6zm0 1h34.535c1.686 0 3.188.464 4.209 1.147 1.02.682 1.523 1.508 1.523 2.353s-.502 1.671-1.523 2.354c-1.02.682-2.523 1.146-4.209 1.146H14.732c-1.686 0-3.188-.464-4.209-1.146C9.503 12.17 9 11.345 9 10.5s.502-1.671 1.523-2.353S13.046 7 14.732 7"
     filter="url(#a)"
     id="path5"
     style="opacity:0.93310345;fill:#cda898;fill-opacity:0.97600001" />
  <path
     fill="url(#b)"
     fill-opacity=".69"
     d="m12.473 14.742 3.404 29.277c.255 2.19 2.571 3.98 4.776 3.98h20.695c2.204 0 4.52-1.79 4.775-3.98l3.373-29.021-.228.002H14.733c-.794 0-1.554-.09-2.26-.258z"
     filter="url(#c)"
     opacity=".22"
     id="path6"
     style="opacity:0.93310345" />
  <path
     fill="#ffffff"
     d="M8.008 8.883a4 4 0 0 0-.008 1l5 43c.32 2.751 3.23 5 6 5h26c2.77 0 5.68-2.249 6-5l5-43q.059-.514-.008-1h-.033q.04.245.041.5a3.24 3.24 0 0 1-.469 1.66v.002L51 50.006c-.32 2.751-3.23 5-6 5H19c-2.77 0-5.68-2.249-6-5L8.469 11.045v-.002A3.24 3.24 0 0 1 8 9.383q0-.255.041-.5z"
     filter="url(#d)"
     opacity=".15"
     id="path7"
     style="opacity:0.58695652;fill:#373737;fill-opacity:1" />
</svg>
