<?xml version="1.0" encoding="UTF-8" standalone="no"?>
<svg
   width="64"
   height="64"
   viewBox="0 0 16.933 16.933"
   version="1.1"
   id="svg22"
   sodipodi:docname="09BE_EpicGamesLauncher.0.svg"
   inkscape:version="1.4.2 (ebf0e940d0, 2025-05-08)"
   xmlns:inkscape="http://www.inkscape.org/namespaces/inkscape"
   xmlns:sodipodi="http://sodipodi.sourceforge.net/DTD/sodipodi-0.dtd"
   xmlns:xlink="http://www.w3.org/1999/xlink"
   xmlns="http://www.w3.org/2000/svg"
   xmlns:svg="http://www.w3.org/2000/svg">
  <sodipodi:namedview
     id="namedview22"
     pagecolor="#ffffff"
     bordercolor="#000000"
     borderopacity="0.25"
     inkscape:showpageshadow="2"
     inkscape:pageopacity="0.0"
     inkscape:pagecheckerboard="0"
     inkscape:deskcolor="#d1d1d1"
     inkscape:zoom="13.40625"
     inkscape:cx="32.335664"
     inkscape:cy="34.648019"
     inkscape:window-width="1920"
     inkscape:window-height="1047"
     inkscape:window-x="0"
     inkscape:window-y="0"
     inkscape:window-maximized="1"
     inkscape:current-layer="svg22" />
  <defs
     id="defs13">
    <linearGradient
       xlink:href="#a"
       id="f"
       x1="2.598"
       x2="10.583"
       y1="2.836"
       y2="11.312"
       gradientUnits="userSpaceOnUse" />
    <linearGradient
       id="a">
      <stop
         offset="0"
         stop-color="#ffffff"
         id="stop1" />
      <stop
         offset="1"
         stop-color="#ffffff"
         stop-opacity="0"
         id="stop2" />
    </linearGradient>
    <linearGradient
       xlink:href="#a"
       id="g"
       x1="15.081"
       x2="12.7"
       y1="14.816"
       y2="12.171"
       gradientUnits="userSpaceOnUse" />
    <linearGradient
       id="b"
       x1="8.466"
       x2="8.466"
       y1="1.058"
       y2="15.875"
       gradientUnits="userSpaceOnUse"
       gradientTransform="translate(-0.01973543)">
      <stop
         offset="0"
         stop-color="#9d6446"
         id="stop3" />
      <stop
         offset="1"
         stop-color="#7b4f37"
         id="stop4" />
    </linearGradient>
    <linearGradient
       id="h"
       x1="14.219"
       x2="13.19"
       y1="10.042"
       y2="9.968"
       gradientUnits="userSpaceOnUse">
      <stop
         offset="0"
         stop-color="#ffffff"
         id="stop5" />
      <stop
         offset="1"
         stop-color="#e2cabd"
         id="stop6" />
    </linearGradient>
    <linearGradient
       id="i"
       x1="13.524"
       x2="13.507"
       y1="9.771"
       y2="10.222"
       gradientTransform="translate(4.487 3.235)scale(.67645)"
       gradientUnits="userSpaceOnUse">
      <stop
         offset="0"
         stop-color="#ffffff"
         id="stop7" />
      <stop
         offset="1"
         stop-color="#ffffff"
         id="stop8" />
    </linearGradient>
    <linearGradient
       id="j"
       x1="13.304"
       x2="13.668"
       y1="10.006"
       y2="10.035"
       gradientUnits="userSpaceOnUse">
      <stop
         offset="0"
         stop-color="#faf6f4"
         id="stop9" />
      <stop
         offset="1"
         stop-color="#faf6f4"
         stop-opacity="0"
         id="stop10" />
    </linearGradient>
    <linearGradient
       id="c"
       x1="7.399"
       x2="7.399"
       y1="3.059"
       y2="13.262"
       gradientUnits="userSpaceOnUse">
      <stop
         offset="0"
         stop-color="#dbbdae"
         id="stop11" />
      <stop
         offset="1"
         stop-color="#e3ccc0"
         id="stop12" />
    </linearGradient>
    <filter
       id="e"
       width="1.0139074"
       height="1.0139083"
       x="-0.0069537049"
       y="-0.0069541742"
       color-interpolation-filters="sRGB">
      <feGaussianBlur
         stdDeviation="0.042930437"
         id="feGaussianBlur12" />
    </filter>
    <filter
       id="d"
       width="1.0157378"
       height="1.0201966"
       x="-0.0078688799"
       y="-0.010098309"
       color-interpolation-filters="sRGB">
      <feGaussianBlur
         stdDeviation="0.042930437"
         id="feGaussianBlur13" />
    </filter>
    <filter
       inkscape:collect="always"
       style="color-interpolation-filters:sRGB"
       id="filter28"
       x="-0.0069537047"
       y="-0.0069541742"
       width="1.0139074"
       height="1.0139083">
      <feGaussianBlur
         inkscape:collect="always"
         stdDeviation="0.042930437"
         id="feGaussianBlur28" />
    </filter>
    <linearGradient
       id="a-3"
       x1="-364.16"
       x2="-364.16"
       y1="193.71001"
       y2="27.333"
       gradientTransform="matrix(0.07937344,0,0,0.07937344,38.169919,0.0184441)"
       gradientUnits="userSpaceOnUse">
      <stop
         offset="0"
         stop-color="#ffffff"
         id="stop5-6" />
      <stop
         offset="1"
         stop-color="#f2e8e2"
         id="stop6-7" />
    </linearGradient>
    <linearGradient
       id="b-3"
       x1="7.9369998"
       x2="7.9369998"
       y1="15.081"
       y2="1.852"
       gradientUnits="userSpaceOnUse"
       gradientTransform="translate(0.017581,-0.09838218)">
      <stop
         offset="0"
         stop-color="#ffffff"
         id="stop1-6"
         style="stop-color:#765c5c;stop-opacity:1;" />
      <stop
         offset="1"
         stop-color="#ffffff"
         id="stop2-7" />
    </linearGradient>
    <linearGradient
       id="a-9"
       x1="7.9369998"
       x2="7.9369998"
       y1="15.081"
       y2="1.852"
       gradientUnits="userSpaceOnUse"
       gradientTransform="matrix(1,0,0,1.0053278,3.125e-4,0.26729646)">
      <stop
         stop-color="#ffffff"
         offset="0"
         id="stop62" />
      <stop
         stop-color="#ffffff"
         offset="1"
         id="stop63" />
    </linearGradient>
    <linearGradient
       id="a-0"
       x1="7.9369998"
       x2="7.9369998"
       y1="15.081"
       y2="1.852"
       gradientUnits="userSpaceOnUse"
       gradientTransform="translate(3.126e-4,0.27289072)">
      <stop
         stop-color="#ffffff"
         offset="0"
         id="stop62-9" />
      <stop
         stop-color="#ffffff"
         offset="1"
         id="stop63-3" />
    </linearGradient>
    <linearGradient
       id="a-0-6"
       x1="7.9369998"
       x2="7.9369998"
       y1="15.081"
       y2="1.852"
       gradientUnits="userSpaceOnUse"
       gradientTransform="translate(3.126e-4,0.2728907)">
      <stop
         stop-color="#ffffff"
         offset="0"
         id="stop62-2"
         style="stop-color:#666666;stop-opacity:1;" />
      <stop
         stop-color="#ffffff"
         offset="1"
         id="stop63-6" />
    </linearGradient>
  </defs>
  <path
     fill="url(#b)"
     d="m 5.3402646,1.058 c -1.53,0 -2.577,0.457 -3.26,1.2 -0.678,0.74 -1.042,1.8 -1.042,3 v 6.416 c 0,1.2 0.364,2.261 1.043,3 0.682,0.744 1.73,1.2 3.26,1.2 h 6.2300004 c 1.53,0 2.578,-0.456 3.26,-1.2 0.679,-0.739 1.024,-1.702 1.024,-3 V 5.5 c 0,-1.57 -0.345,-2.502 -1.024,-3.242 -0.682,-0.743 -1.73,-1.2 -3.26,-1.2 H 6.7252646 Z"
     id="path13"
     style="opacity:0.0804904;fill:url(#b);filter:url(#filter28)"
     transform="matrix(1,0,0,0.97241098,-0.05920629,0.28290721)" />
  <path
     d="m 4.7572019,3.4086785 0.040885,5.8920369 1.5154984,0.013355 -0.00512,-0.736757 -0.9093554,-0.00811 -0.012773,-1.8408761 0.9093554,0.00802 -0.00512,-0.7367607 -0.9093554,-0.00802 -0.012773,-1.8408764 0.9093552,0.00802 -0.00512,-0.7367609 z m 1.8187107,0.016034 0.040885,5.8920368 0.606143,0.00538 -0.015333,-2.2095996 0.606143,0.00534 C 8.3174147,7.1222597 8.719688,6.6333079 8.7154387,6.0210507 L 8.7052212,4.5482134 C 8.7009744,3.9362986 8.2918632,3.439838 7.7881986,3.4353979 Z m 2.4245718,0.021374 0.040887,5.8920376 0.6061431,0.00538 -0.040886,-5.892036 z m 1.5154976,0.013359 C 10.180114,3.4564755 9.9121194,3.7828054 9.9149515,4.1908627 l 0.03065,4.4185148 c 0.00283,0.4080589 0.2753855,0.7391468 0.6112555,0.742107 l 0.909356,0.00802 c 0.335869,0.00299 0.603862,-0.3233601 0.601029,-0.7314186 l -0.01021,-1.4728389 -0.606142,-0.00534 0.0074,1.0682027 c 0.0014,0.2038569 -0.165269,0.4031552 -0.300406,0.4019632 l -0.302938,-0.0027 C 10.686876,8.6158529 10.5506,8.4504988 10.549185,8.2466419 l -0.02555,-3.6824512 c -0.0014,-0.2038576 0.176503,-0.3664599 0.30066,-0.3653653 l 0.302931,0.00266 c 0.168075,0.00147 0.304351,0.1668537 0.305766,0.3707114 l 0.0077,1.1047997 0.606142,0.00534 -0.01021,-1.4728378 C 12.033873,3.801504 11.761286,3.4704177 11.425416,3.467457 Z m -3.328814,0.7073717 0.606143,0.00534 c 0.1677944,0.00147 0.3040703,0.1668518 0.3054848,0.3707096 l 0.010219,1.4728377 C 8.1104281,6.2199053 7.9764344,6.3828948 7.8086398,6.381416 L 7.202497,6.376076 Z m 4.3468,6.2733858 c -0.252243,-5.12e-4 -0.514146,0.189056 -0.518196,0.659982 -0.0037,0.478114 0.784675,0.418369 0.78918,0.66193 0.0014,0.08449 -0.102972,0.131112 -0.171878,0.140082 -0.159191,0.02152 -0.452164,-0.209542 -0.452164,-0.209542 l -0.219046,0.320938 c 0,0 0.272752,0.278417 0.657344,0.284199 0.2548,0.004 0.58455,-0.144994 0.578884,-0.596172 -0.0068,-0.542508 -0.780347,-0.525041 -0.792893,-0.710186 -0.0063,-0.09309 0.07357,-0.1495 0.155795,-0.145355 0.14841,0.0069 0.387207,0.179554 0.387207,0.179554 l 0.182873,-0.340753 c 0,0 -0.241548,-0.244279 -0.597106,-0.244677 z m -6.0320463,-0.03813 c -0.3745021,-0.01219 -0.775333,0.319452 -0.7832353,0.925105 -0.00548,0.429532 0.3182626,0.913955 0.7510306,0.924952 0.3795532,0.0098 0.6522894,-0.281891 0.6522894,-0.281891 l -0.00542,-0.781911 -0.6317627,-0.0056 0.00247,0.356751 0.259103,-0.02508 0.012879,0.233372 c 0,0 -0.084008,0.104945 -0.2360127,0.107024 -0.2674089,0.0038 -0.3993313,-0.264482 -0.4096704,-0.496807 -0.011026,-0.249774 0.132458,-0.547095 0.4072469,-0.542963 0.1830042,0.0026 0.3015275,0.206162 0.3015275,0.206162 l 0.2454688,-0.367578 c 0,0 -0.2384293,-0.241177 -0.565906,-0.251589 z m 1.2934321,0.02064 -0.6561393,1.83669 0.4535421,0.0026 0.1012997,-0.331211 0.5824941,0.0051 0.1028125,0.33301 0.4228642,0.0038 -0.634404,-1.846699 z m 1.0413948,0.0092 0.012777,1.841218 0.370499,0.0032 -0.00709,-1.022027 0.3908251,0.701172 0.3702486,-0.722507 0.032065,1.050289 0.3589559,0.0031 -0.012775,-1.841211 -0.3837302,-0.0034 -0.370194,0.731105 -0.3798179,-0.73767 z m 1.8184288,0.01606 0.012783,1.841219 1.1213496,0.0098 -0.0025,-0.368037 -0.8181371,-0.0073 -0.00255,-0.368381 0.7576631,0.01456 -0.0025,-0.376246 -0.7576061,-0.0067 -0.00255,-0.368039 0.8181361,0.0073 -0.0025,-0.368383 z m -2.6734804,0.539743 0.1658663,0.535015 -0.3285505,-0.003 z m -0.6348937,3.113303 2.1293077,1.123503 2.113974,-1.086097 z"
     fill="#ffffff"
     id="path3"
     style="display:inline;opacity:1;stroke-width:0.310308" />
  <rect
     x="1.0583124"
     y="1.3228905"
     width="14.817"
     height="14.895942"
     rx="3.4400001"
     ry="3.4583275"
     fill="url(#a)"
     id="rect63"
     style="display:inline;opacity:0;fill:url(#a-9);stroke-width:1.00266" />
  <rect
     x="1.0583125"
     y="1.3228908"
     width="14.817"
     height="14.817"
     rx="3.4400001"
     ry="3.4400001"
     fill="url(#a)"
     id="rect63-8"
     style="display:inline;opacity:0.510917;fill:url(#a-0-6)" />
  <g
     filter="url(#e)"
     opacity=".35"
     style="display:inline;opacity:0.799468;mix-blend-mode:normal;filter:url(#e)"
     id="g17"
     transform="matrix(1.0013137,0,0,1.0144514,-0.04072538,0.10461199)">
    <path
       fill="url(#f)"
       d="m 5.36,1.058 c -1.53,0 -2.577,0.457 -3.26,1.2 -0.678,0.74 -1.042,1.8 -1.042,3.001 v 6.415 c 0,1.2 0.364,2.26 1.043,3 0.682,0.744 1.73,1.2 3.26,1.2 h 6.23 c 1.53,0 2.577,-0.456 3.26,-1.2 0.678,-0.739 1.024,-1.702 1.024,-3 V 5.5 c 0,-1.57 -0.346,-2.502 -1.024,-3.242 -0.683,-0.743 -1.73,-1.2 -3.26,-1.2 H 6.745 Z m 0,0.264 h 6.232 c 1.477,0 2.437,0.432 3.064,1.116 0.634,0.69 0.954,1.53 0.954,3.062 v 6.174 c 0,1.251 -0.322,2.134 -0.954,2.822 -0.627,0.684 -1.587,1.114 -3.064,1.114 H 5.359 C 3.882,15.61 2.922,15.18 2.295,14.496 1.67,13.814 1.322,12.821 1.322,11.674 V 5.26 C 1.322,4.112 1.67,3.12 2.295,2.438 2.922,1.754 3.882,1.322 5.359,1.322"
       id="path16"
       style="fill:url(#f)" />
    <path
       fill="url(#g)"
       d="m 5.36,1.058 c -1.53,0 -2.577,0.457 -3.26,1.2 -0.678,0.74 -1.042,1.8 -1.042,3.001 v 6.415 c 0,1.2 0.364,2.26 1.043,3 0.682,0.744 1.73,1.2 3.26,1.2 h 6.23 c 1.53,0 2.577,-0.456 3.26,-1.2 0.678,-0.739 1.024,-1.702 1.024,-3 V 5.5 c 0,-1.57 -0.346,-2.502 -1.024,-3.242 -0.683,-0.743 -1.73,-1.2 -3.26,-1.2 H 6.745 Z m 0,0.264 h 6.232 c 1.477,0 2.437,0.432 3.064,1.116 0.634,0.69 0.954,1.53 0.954,3.062 v 6.174 c 0,1.251 -0.322,2.134 -0.954,2.822 -0.627,0.684 -1.587,1.114 -3.064,1.114 H 5.359 C 3.882,15.61 2.922,15.18 2.295,14.496 1.67,13.814 1.322,12.821 1.322,11.674 V 5.26 C 1.322,4.112 1.67,3.12 2.295,2.438 2.922,1.754 3.882,1.322 5.359,1.322"
       id="path17"
       style="fill:url(#g)" />
  </g>
</svg>
