<?xml version="1.0" encoding="UTF-8" standalone="no"?>
<svg
   width="64"
   height="64"
   version="1.1"
   id="svg35"
   sodipodi:docname="accessories-podcast.svg"
   inkscape:version="1.4.2 (ebf0e940d0, 2025-05-08)"
   xmlns:inkscape="http://www.inkscape.org/namespaces/inkscape"
   xmlns:sodipodi="http://sodipodi.sourceforge.net/DTD/sodipodi-0.dtd"
   xmlns="http://www.w3.org/2000/svg"
   xmlns:svg="http://www.w3.org/2000/svg">
  <sodipodi:namedview
     id="namedview35"
     pagecolor="#ffffff"
     bordercolor="#000000"
     borderopacity="0.25"
     inkscape:showpageshadow="2"
     inkscape:pageopacity="0.0"
     inkscape:pagecheckerboard="0"
     inkscape:deskcolor="#d1d1d1"
     inkscape:zoom="12.890625"
     inkscape:cx="32"
     inkscape:cy="32"
     inkscape:window-width="1920"
     inkscape:window-height="1015"
     inkscape:window-x="0"
     inkscape:window-y="32"
     inkscape:window-maximized="1"
     inkscape:current-layer="svg35" />
  <defs
     id="defs28">
    <linearGradient
       id="b"
       x1="4.075"
       x2="10.583"
       y1="1.453"
       y2="11.312"
       gradientUnits="userSpaceOnUse">
      <stop
         offset="0"
         stop-color="#ffffff"
         id="stop1" />
      <stop
         offset=".312"
         stop-color="#ffffff"
         stop-opacity=".45"
         id="stop2" />
      <stop
         offset="1"
         stop-color="#ffffff"
         stop-opacity="0"
         id="stop3" />
    </linearGradient>
    <linearGradient
       id="d"
       x1="15.081"
       x2="12.7"
       y1="14.816"
       y2="12.171"
       gradientUnits="userSpaceOnUse">
      <stop
         offset="0"
         stop-color="#ffffff"
         id="stop4" />
      <stop
         offset="1"
         stop-color="#ffffff"
         stop-opacity="0"
         id="stop5" />
    </linearGradient>
    <linearGradient
       id="a"
       x1="8.466"
       x2="8.466"
       y1="1.058"
       y2="15.875"
       gradientTransform="scale(3.7796)"
       gradientUnits="userSpaceOnUse">
      <stop
         offset="0"
         stop-color="#d1ad99"
         id="stop6" />
      <stop
         offset="1"
         stop-color="#ba8265"
         id="stop7" />
    </linearGradient>
    <linearGradient
       id="h"
       x1="18.402"
       x2="52"
       y1="15.334"
       y2="50"
       gradientUnits="userSpaceOnUse">
      <stop
         offset="0"
         stop-color="#ffffff"
         id="stop8" />
      <stop
         offset="1"
         stop-color="#ffffff"
         stop-opacity=".25"
         id="stop9" />
    </linearGradient>
    <linearGradient
       id="j"
       x1="23.337"
       x2="44.5"
       y1="21.196"
       y2="42"
       gradientUnits="userSpaceOnUse">
      <stop
         offset="0"
         stop-color="#ffffff"
         id="stop10" />
      <stop
         offset="1"
         stop-color="#ffffff"
         stop-opacity=".25"
         id="stop11" />
    </linearGradient>
    <linearGradient
       id="g"
       x1="32"
       x2="32"
       y1="24"
       y2="34"
       gradientUnits="userSpaceOnUse">
      <stop
         offset="0"
         stop-color="#ffffff"
         id="stop12" />
      <stop
         offset="1"
         stop-color="#ffffff"
         stop-opacity=".803"
         id="stop13" />
    </linearGradient>
    <linearGradient
       id="f"
       x1="32"
       x2="32"
       y1="17"
       y2="42"
       gradientUnits="userSpaceOnUse">
      <stop
         offset="0"
         stop-color="#ffffff"
         stop-opacity=".5"
         id="stop14" />
      <stop
         offset="1"
         stop-color="#ffffff"
         stop-opacity=".14"
         id="stop15" />
    </linearGradient>
    <linearGradient
       id="e"
       x1="32"
       x2="32"
       y1="10"
       y2="50"
       gradientUnits="userSpaceOnUse">
      <stop
         offset="0"
         stop-color="#ffffff"
         id="stop16" />
      <stop
         offset="1"
         stop-color="#ffffff"
         stop-opacity=".5"
         id="stop17" />
    </linearGradient>
    <linearGradient
       id="n"
       x1="28.818"
       x2="35.512"
       y1="35.531"
       y2="51.362"
       gradientUnits="userSpaceOnUse">
      <stop
         offset="0"
         stop-color="#ffffff"
         id="stop18" />
      <stop
         offset="1"
         stop-color="#ffffff"
         stop-opacity=".25"
         id="stop19" />
    </linearGradient>
    <filter
       id="c"
       width="1.0239725"
       height="1.0239741"
       x="-0.011986232"
       y="-0.011987041"
       color-interpolation-filters="sRGB">
      <feGaussianBlur
         stdDeviation=".074"
         id="feGaussianBlur19" />
    </filter>
    <filter
       id="o"
       width="1.0892932"
       height="1.0469895"
       x="-0.044646608"
       y="-0.023494737"
       color-interpolation-filters="sRGB">
      <feGaussianBlur
         stdDeviation=".186"
         id="feGaussianBlur20" />
    </filter>
    <filter
       id="l"
       width="1.096"
       height="1.096"
       x="-0.047999999"
       y="-0.047999999"
       color-interpolation-filters="sRGB">
      <feGaussianBlur
         stdDeviation=".16"
         id="feGaussianBlur21" />
    </filter>
    <filter
       id="k"
       width="1.03456"
       height="1.03456"
       x="-0.017280001"
       y="-0.017280001"
       color-interpolation-filters="sRGB">
      <feGaussianBlur
         stdDeviation=".18"
         id="feGaussianBlur22" />
    </filter>
    <filter
       id="i"
       width="1.02904"
       height="1.02904"
       x="-0.01452"
       y="-0.01452"
       color-interpolation-filters="sRGB">
      <feGaussianBlur
         stdDeviation=".242"
         id="feGaussianBlur23" />
    </filter>
    <radialGradient
       id="m"
       cx="32.027"
       cy="40.557"
       r="5"
       gradientTransform="matrix(5.5786 0 0 3.8062 -146.56 -117.84)"
       gradientUnits="userSpaceOnUse">
      <stop
         offset="0"
         stop-color="#ffffff"
         id="stop23" />
      <stop
         offset=".312"
         stop-color="#ffffff"
         id="stop24" />
      <stop
         offset=".381"
         stop-color="#ffffff"
         id="stop25" />
      <stop
         offset=".69"
         stop-color="#ffffff"
         id="stop26" />
      <stop
         offset=".736"
         stop-color="#f6efeb"
         id="stop27" />
      <stop
         offset="1"
         stop-color="#f2e7e1"
         id="stop28" />
    </radialGradient>
  </defs>
  <path
     fill="url(#a)"
     d="M 20.26,4 C 14.478,4 10.517,5.725 7.939,8.535 5.374,11.331 4,15.34 4,19.876 V 44.124 C 4,48.662 5.374,52.669 7.939,55.465 10.517,58.275 14.479,60 20.26,60 H 43.809 C 49.591,60 53.552,58.276 56.13,55.465 58.695,52.67 60,49.03 60,44.125 V 20.786 C 60,14.851 58.695,11.33 56.13,8.534 53.552,5.725 49.59,4 43.809,4 H 25.494 Z"
     id="path28"
     style="display:inline;opacity:0.5" />
  <path
     fill="url(#b)"
     d="m 5.36,1.058 c -1.53,0 -2.577,0.457 -3.26,1.2 -0.678,0.74 -1.042,1.8 -1.042,3.001 v 6.415 c 0,1.2 0.364,2.26 1.043,3 0.682,0.744 1.73,1.2 3.26,1.2 h 6.23 c 1.53,0 2.577,-0.456 3.26,-1.2 0.678,-0.739 1.024,-1.702 1.024,-3 V 5.5 c 0,-1.57 -0.346,-2.502 -1.024,-3.242 -0.683,-0.743 -1.73,-1.2 -3.26,-1.2 H 6.745 Z m 0,0.264 h 6.232 c 1.477,0 2.437,0.432 3.064,1.116 0.634,0.69 0.954,1.53 0.954,3.062 v 6.174 c 0,1.251 -0.322,2.134 -0.954,2.822 -0.627,0.684 -1.587,1.114 -3.064,1.114 H 5.359 C 3.882,15.61 2.922,15.18 2.295,14.496 1.67,13.814 1.322,12.821 1.322,11.674 V 5.26 C 1.322,4.112 1.67,3.12 2.295,2.438 2.922,1.754 3.882,1.322 5.359,1.322"
     filter="url(#c)"
     opacity="0.75"
     transform="scale(3.7796)"
     id="path29"
     style="display:inline;opacity:1" />
  <path
     fill="url(#d)"
     d="m 5.36,1.058 c -1.53,0 -2.577,0.457 -3.26,1.2 -0.678,0.74 -1.042,1.8 -1.042,3.001 v 6.415 c 0,1.2 0.364,2.26 1.043,3 0.682,0.744 1.73,1.2 3.26,1.2 h 6.23 c 1.53,0 2.577,-0.456 3.26,-1.2 0.678,-0.739 1.024,-1.702 1.024,-3 V 5.5 c 0,-1.57 -0.346,-2.502 -1.024,-3.242 -0.683,-0.743 -1.73,-1.2 -3.26,-1.2 H 6.745 Z m 0,0.264 h 6.232 c 1.477,0 2.437,0.432 3.064,1.116 0.634,0.69 0.954,1.53 0.954,3.062 v 6.174 c 0,1.251 -0.322,2.134 -0.954,2.822 -0.627,0.684 -1.587,1.114 -3.064,1.114 H 5.359 C 3.882,15.61 2.922,15.18 2.295,14.496 1.67,13.814 1.322,12.821 1.322,11.674 V 5.26 C 1.322,4.112 1.67,3.12 2.295,2.438 2.922,1.754 3.882,1.322 5.359,1.322"
     filter="url(#c)"
     opacity="0.45"
     transform="scale(3.7796)"
     id="path30"
     style="display:inline" />
  <circle
     cx="32"
     cy="30"
     r="20"
     fill="url(#e)"
     opacity="0.35"
     id="circle30"
     style="display:inline" />
  <circle
     cx="32"
     cy="29.5"
     r="12.5"
     fill="url(#f)"
     id="circle31"
     style="display:inline" />
  <circle
     cx="32"
     cy="29"
     r="5"
     fill="url(#g)"
     id="circle32"
     style="display:inline" />
  <path
     fill="url(#h)"
     d="M 32,10 A 20,20 0 0 0 12,30 20,20 0 0 0 32,50 20,20 0 0 0 52,30 20,20 0 0 0 32,10 m 0,0.5 A 19.5,19.5 0 0 1 51.5,30 19.5,19.5 0 0 1 32,49.5 19.5,19.5 0 0 1 12.5,30 19.5,19.5 0 0 1 32,10.5"
     filter="url(#i)"
     opacity="0.5"
     id="path32"
     style="display:inline" />
  <path
     fill="url(#j)"
     d="M 32,17 A 12.5,12.5 0 0 0 19.5,29.5 12.5,12.5 0 0 0 32,42 12.5,12.5 0 0 0 44.5,29.5 12.5,12.5 0 0 0 32,17 m 0,0.5 a 12,12 0 0 1 12,12 12,12 0 0 1 -12,12 12,12 0 0 1 -12,-12 12,12 0 0 1 12,-12"
     filter="url(#k)"
     opacity="0.5"
     id="path33"
     style="display:inline" />
  <circle
     cx="32"
     cy="29"
     r="4"
     fill="#ffffff"
     filter="url(#l)"
     id="circle33"
     style="display:inline" />
  <path
     fill="url(#m)"
     d="m 31.889,35.531 c -2.19,0.01 -3.683,1.153 -4.34,2.462 -0.327,0.654 -0.632,1.22 -0.528,3.026 0.173,3.018 1.002,8.49 1.468,10.343 0.34,1.35 0.715,2.138 1.496,2.638 0.307,0.197 0.994,0.423 1.499,0.494 0.153,0.022 0.33,0.033 0.516,0.037 0.187,-0.004 0.363,-0.015 0.517,-0.037 0.505,-0.071 1.192,-0.297 1.499,-0.494 0.78,-0.5 1.157,-1.288 1.496,-2.638 0.466,-1.853 1.294,-7.325 1.468,-10.343 0.104,-1.806 -0.201,-2.372 -0.529,-3.026 -0.656,-1.309 -2.149,-2.451 -4.34,-2.462 h -0.222"
     style="display:inline;paint-order:fill markers stroke"
     id="path34" />
  <path
     fill="url(#n)"
     d="m 31.889,35.531 c -2.19,0.01 -3.684,1.152 -4.34,2.46 -0.327,0.655 -0.631,1.22 -0.527,3.026 0.173,3.018 1,8.49 1.467,10.344 0.339,1.35 0.715,2.139 1.496,2.639 0.307,0.196 0.993,0.423 1.498,0.494 0.153,0.022 0.33,0.034 0.517,0.037 0.187,-0.003 0.364,-0.015 0.518,-0.037 0.504,-0.071 1.191,-0.298 1.498,-0.494 0.78,-0.5 1.157,-1.289 1.496,-2.639 0.466,-1.853 1.294,-7.325 1.467,-10.344 0.104,-1.806 -0.2,-2.37 -0.528,-3.025 -0.656,-1.31 -2.149,-2.45 -4.34,-2.461 h -0.222 m 0.004,1 h 0.215 c 1.843,0.01 2.961,0.936 3.449,1.91 0.335,0.67 0.52,0.838 0.424,2.52 -0.167,2.905 -1.019,8.482 -1.44,10.156 -0.319,1.27 -0.564,1.719 -1.066,2.04 -0.032,0.02 -0.76,0.299 -1.098,0.346 A 4,4 0 0 1 32,53.529 4,4 0 0 1 31.623,53.503 c -0.338,-0.048 -1.065,-0.325 -1.097,-0.345 -0.503,-0.322 -0.748,-0.772 -1.067,-2.041 -0.42,-1.674 -1.273,-7.252 -1.44,-10.156 -0.096,-1.682 0.089,-1.85 0.425,-2.52 0.487,-0.974 1.605,-1.9 3.449,-1.91 z"
     filter="url(#o)"
     opacity="0.75"
     style="display:inline;paint-order:fill markers stroke"
     id="path35" />
</svg>
