<?xml version="1.0" encoding="UTF-8" standalone="no"?>
<svg
   width="64"
   height="64"
   viewBox="0 0 16.933 16.933"
   version="1.1"
   id="svg43"
   sodipodi:docname="accessories-dictionary.svg.2025_09_26_16_30_02.0.svg"
   inkscape:version="1.4.2 (ebf0e940d0, 2025-05-08)"
   xmlns:inkscape="http://www.inkscape.org/namespaces/inkscape"
   xmlns:sodipodi="http://sodipodi.sourceforge.net/DTD/sodipodi-0.dtd"
   xmlns:xlink="http://www.w3.org/1999/xlink"
   xmlns="http://www.w3.org/2000/svg"
   xmlns:svg="http://www.w3.org/2000/svg">
  <sodipodi:namedview
     id="namedview43"
     pagecolor="#ffffff"
     bordercolor="#000000"
     borderopacity="0.25"
     inkscape:showpageshadow="2"
     inkscape:pageopacity="0.0"
     inkscape:pagecheckerboard="0"
     inkscape:deskcolor="#d1d1d1"
     inkscape:zoom="13.390625"
     inkscape:cx="32.112019"
     inkscape:cy="31.925321"
     inkscape:window-width="1920"
     inkscape:window-height="1047"
     inkscape:window-x="0"
     inkscape:window-y="0"
     inkscape:window-maximized="1"
     inkscape:current-layer="svg43" />
  <defs
     id="defs18">
    <linearGradient
       id="d"
       x1="379.24"
       x2="374.24"
       y1="546.85"
       y2="546.85"
       gradientTransform="translate(-203.64 -300.16)scale(.56696)"
       gradientUnits="userSpaceOnUse">
      <stop
         offset="0"
         stop-color="#ffffff"
         id="stop1" />
      <stop
         offset=".6"
         stop-color="#ffffff"
         id="stop2" />
      <stop
         offset="1"
         stop-color="#ffffff"
         id="stop3" />
    </linearGradient>
    <linearGradient
       id="b"
       x1="7.937"
       x2="7.937"
       y1="15.081"
       y2="1.852"
       gradientTransform="translate(.908 .915)scale(.89277)"
       gradientUnits="userSpaceOnUse">
      <stop
         offset="0"
         stop-color="#ffffff"
         id="stop4" />
      <stop
         offset="1"
         stop-color="#ffffff"
         id="stop5" />
    </linearGradient>
    <linearGradient
       id="a"
       x1="7.937"
       x2="7.937"
       y1="15.081"
       y2="1.852"
       gradientTransform="translate(-.004 .008)"
       gradientUnits="userSpaceOnUse">
      <stop
         offset="0"
         stop-color="#b37554"
         id="stop6" />
      <stop
         offset="1"
         stop-color="#cfa894"
         id="stop7" />
    </linearGradient>
    <linearGradient
       id="h"
       x1="5.821"
       x2="5.821"
       y1="2.117"
       y2="10.848"
       gradientUnits="userSpaceOnUse">
      <stop
         offset="0"
         stop-color="#cfa894"
         id="stop8" />
      <stop
         offset="1"
         stop-color="#b37554"
         id="stop9" />
    </linearGradient>
    <linearGradient
       id="f"
       x1="8.467"
       x2="8.467"
       y1="-2.92"
       y2="19.84"
       gradientTransform="translate(9.021 9.024)scale(.37199)"
       gradientUnits="userSpaceOnUse">
      <stop
         offset="0"
         stop-color="#ffffff"
         id="stop10" />
      <stop
         offset="1"
         stop-color="#ffffff"
         id="stop11" />
    </linearGradient>
    <linearGradient
       id="g"
       x1="12.435"
       x2="12.435"
       y1="13.758"
       y2="9.789"
       gradientTransform="translate(0 .265)"
       gradientUnits="userSpaceOnUse">
      <stop
         offset="0"
         stop-color="#a26849"
         id="stop12" />
      <stop
         offset="1"
         stop-color="#c69980"
         id="stop13" />
    </linearGradient>
    <linearGradient
       id="c"
       x1="376.35"
       x2="374.24"
       y1="546.85"
       y2="546.85"
       gradientTransform="matrix(-.56696 0 0 .56696 220.57 -300.16)"
       gradientUnits="userSpaceOnUse">
      <stop
         offset="0"
         stop-opacity="0"
         id="stop14" />
      <stop
         offset=".6"
         stop-opacity="0"
         id="stop15" />
      <stop
         offset="1"
         stop-opacity=".05"
         id="stop16" />
    </linearGradient>
    <radialGradient
       id="e"
       cx="12.171"
       cy="12.171"
       r="4.762"
       gradientUnits="userSpaceOnUse">
      <stop
         offset="0"
         id="stop17" />
      <stop
         offset="1"
         stop-opacity="0"
         id="stop18" />
    </radialGradient>
    <filter
       id="e-3"
       width="1.0239725"
       height="1.0239741"
       x="-0.011986232"
       y="-0.011987041"
       color-interpolation-filters="sRGB">
      <feGaussianBlur
         stdDeviation=".074"
         id="feGaussianBlur12" />
    </filter>
    <linearGradient
       xlink:href="#a-0"
       id="f-2"
       x1="2.598"
       x2="10.583"
       y1="2.836"
       y2="11.312"
       gradientUnits="userSpaceOnUse" />
    <linearGradient
       id="a-0">
      <stop
         offset="0"
         stop-color="#ffffff"
         id="stop1-6" />
      <stop
         offset="1"
         stop-color="#ffffff"
         stop-opacity="0"
         id="stop2-1" />
    </linearGradient>
    <linearGradient
       xlink:href="#a-0"
       id="g-5"
       x1="15.081"
       x2="12.7"
       y1="14.816"
       y2="12.171"
       gradientUnits="userSpaceOnUse" />
    <linearGradient
       id="a-0-7"
       x1="7.9369998"
       x2="7.9369998"
       y1="15.081"
       y2="1.852"
       gradientUnits="userSpaceOnUse"
       gradientTransform="translate(3.1250115e-4,0.0083125)">
      <stop
         stop-color="#ffffff"
         offset="0"
         id="stop62"
         style="stop-color:#676767;stop-opacity:1;" />
      <stop
         stop-color="#ffffff"
         offset="1"
         id="stop63" />
    </linearGradient>
  </defs>
  <g
     color="#633f2c"
     id="g22"
     style="display:inline">
    <path
       d="m 4.37,0.53 c -2.116,0 -3.84,1.782 -3.84,3.966 v 8.468 c 0,2.184 1.725,3.968 3.84,3.968 h 8.194 c 2.114,0 3.84,-1.783 3.84,-3.968 V 4.497 c 0,-2.184 -1.726,-3.968 -3.84,-3.968 z m 0.256,0.52 h 7.681 c 1.844,0 3.33,1.534 3.33,3.44 v 7.937 c 0,1.906 -1.485,3.44 -3.33,3.44 h -7.68 c -1.845,0 -3.33,-1.534 -3.33,-3.44 V 4.49 c 0,-1.906 1.485,-3.44 3.33,-3.44 z"
       opacity="0.01"
       style="font-variant-ligatures:normal;font-variant-position:normal;font-variant-caps:normal;font-variant-numeric:normal;font-variant-alternates:normal;font-variant-east-asian:normal;font-feature-settings:normal;font-variation-settings:normal;text-indent:0;text-decoration-line:none;text-decoration-style:solid;text-decoration-color:#633f2c;text-transform:none;text-orientation:mixed;white-space:normal;shape-padding:0;shape-margin:0;inline-size:0;isolation:auto;mix-blend-mode:normal"
       id="path18" />
    <path
       d="m 4.359,0.794 c -1.967,0 -3.564,1.653 -3.564,3.686 v 8.5 c 0,2.035 1.597,3.688 3.564,3.688 h 8.216 c 1.967,0 3.564,-1.653 3.564,-3.688 v -8.5 c 0,-2.034 -1.597,-3.687 -3.564,-3.687 z M 4.631,1.05 h 7.672 c 1.842,0 3.325,1.534 3.325,3.44 v 7.937 c 0,1.906 -1.483,3.44 -3.325,3.44 H 4.63 c -1.842,0 -3.325,-1.534 -3.325,-3.44 V 4.49 c 0,-1.906 1.483,-3.44 3.325,-3.44 z"
       opacity="0.01"
       style="font-variant-ligatures:normal;font-variant-position:normal;font-variant-caps:normal;font-variant-numeric:normal;font-variant-alternates:normal;font-variant-east-asian:normal;font-feature-settings:normal;font-variation-settings:normal;text-indent:0;text-decoration-line:none;text-decoration-style:solid;text-decoration-color:#633f2c;text-transform:none;text-orientation:mixed;white-space:normal;shape-padding:0;shape-margin:0;inline-size:0;isolation:auto;mix-blend-mode:normal"
       id="path19" />
    <path
       d="m 4.31,1.058 c -1.866,0 -3.375,1.539 -3.375,3.44 v 8.467 c 0,1.9 1.57,3.439 3.435,3.439 h 8.2 c 1.866,0 3.427,-1.538 3.427,-3.44 V 4.498 c 0,-1.9 -1.51,-3.439 -3.375,-3.439 h -0.097 c 1.794,0.087 3.214,1.582 3.214,3.432 v 7.937 c 0,1.906 -1.506,3.44 -3.377,3.44 h -7.79 c -1.871,0 -3.377,-1.534 -3.377,-3.44 V 4.49 c 0,-1.85 1.42,-3.345 3.214,-3.432 z"
       opacity="0.03"
       style="font-variant-ligatures:normal;font-variant-position:normal;font-variant-caps:normal;font-variant-numeric:normal;font-variant-alternates:normal;font-variant-east-asian:normal;font-feature-settings:normal;font-variation-settings:normal;text-indent:0;text-decoration-line:none;text-decoration-style:solid;text-decoration-color:#633f2c;text-transform:none;text-orientation:mixed;white-space:normal;shape-padding:0;shape-margin:0;inline-size:0;isolation:auto;mix-blend-mode:normal"
       id="path20" />
    <path
       d="M 4,46.969 V 49 c 0,6.648 5.896,12 12.544,12 H 47.505 C 54.153,61 60,55.648 60,49 V 47.008 A 12.97,12.97 0 0 1 47,59.971 H 17.002 A 12.973,12.973 0 0 1 4,46.969"
       opacity="0.03"
       style="font-variant-ligatures:normal;font-variant-position:normal;font-variant-caps:normal;font-variant-numeric:normal;font-variant-alternates:normal;font-variant-east-asian:normal;font-feature-settings:normal;font-variation-settings:normal;text-indent:0;text-decoration-line:none;text-decoration-style:solid;text-decoration-color:#633f2c;text-transform:none;text-orientation:mixed;white-space:normal;shape-padding:0;shape-margin:0;inline-size:0;isolation:auto;mix-blend-mode:normal"
       transform="scale(0.26458)"
       id="path21" />
    <path
       d="m 1.058,11.906 v 0.592 c 0,1.939 1.573,3.5 3.332,3.5 h 8.16 c 1.76,0 3.325,-1.561 3.325,-3.5 v -0.58 c -0.006,2.095 -1.537,3.78 -3.44,3.78 H 4.498 c -1.905,0 -3.44,-1.692 -3.44,-3.792"
       opacity="0.05"
       style="font-variant-ligatures:normal;font-variant-position:normal;font-variant-caps:normal;font-variant-numeric:normal;font-variant-alternates:normal;font-variant-east-asian:normal;font-feature-settings:normal;font-variation-settings:normal;text-indent:0;text-decoration-line:none;text-decoration-style:solid;text-decoration-color:#633f2c;text-transform:none;text-orientation:mixed;white-space:normal;shape-padding:0;shape-margin:0;inline-size:0;isolation:auto;mix-blend-mode:normal"
       id="path22" />
  </g>
  <path
     fill="url(#a)"
     d="m 4.495,1.058 a 3.43,3.43 0 0 0 -3.44,3.44 v 7.937 a 3.43,3.43 0 0 0 3.44,3.44 h 7.936 a 3.43,3.43 0 0 0 3.44,-3.44 V 4.498 a 3.43,3.43 0 0 0 -3.44,-3.44 z"
     id="path23"
     style="display:inline" />
  <rect
     width="13.228"
     height="13.228"
     x="1.853"
     y="1.852"
     fill="url(#b)"
     rx="2.6459999"
     ry="2.6459999"
     id="rect23"
     style="display:inline" />
  <path
     fill="url(#c)"
     d="M 4.499,1.852 A 2.64,2.64 0 0 0 1.853,4.498 v 7.937 A 2.64,2.64 0 0 0 4.499,15.08 H 8.467 V 1.852 Z"
     id="path24"
     style="display:inline" />
  <circle
     cx="8.4720001"
     cy="8.4779997"
     r="7.9380002"
     fill="none"
     id="circle24"
     style="display:inline" />
  <path
     fill="url(#d)"
     d="m 12.435,1.852 a 2.64,2.64 0 0 1 2.646,2.646 v 7.937 A 2.64,2.64 0 0 1 12.435,15.08 H 8.467 V 1.852 Z"
     id="path25"
     style="display:inline" />
  <g
     stroke-width="0.265"
     id="g30"
     style="display:inline">
    <rect
       width="4.4980001"
       height="0.132"
       x="9.5249996"
       y="3.704"
       opacity="0.1"
       rx="0"
       ry="0"
       id="rect25" />
    <rect
       width="4.4980001"
       height="0.132"
       x="9.5249996"
       y="4.7620001"
       opacity="0.1"
       rx="0"
       ry="0"
       id="rect26" />
    <rect
       width="4.4980001"
       height="0.132"
       x="9.5249996"
       y="5.8210001"
       opacity="0.1"
       rx="0"
       ry="0"
       id="rect27" />
    <rect
       width="4.4980001"
       height="0.132"
       x="9.5249996"
       y="6.8790002"
       opacity="0.1"
       rx="0"
       ry="0"
       id="rect28" />
    <rect
       width="4.4980001"
       height="0.132"
       x="9.5249996"
       y="7.9369998"
       opacity="0.1"
       rx="0"
       ry="0"
       id="rect29" />
    <rect
       width="4.4980001"
       height="0.132"
       x="9.5249996"
       y="8.9960003"
       opacity="0.1"
       rx="0"
       ry="0"
       id="rect30" />
  </g>
  <g
     stroke-width="0.265"
     transform="translate(0,0.265)"
     id="g34"
     style="display:inline">
    <rect
       width="4.4980001"
       height="0.132"
       x="9.5249996"
       y="10.054"
       opacity="0.1"
       rx="0"
       ry="0"
       id="rect31" />
    <rect
       width="4.4980001"
       height="0.132"
       x="9.5249996"
       y="11.112"
       opacity="0.1"
       rx="0"
       ry="0"
       id="rect32" />
    <rect
       width="4.4980001"
       height="0.132"
       x="9.5249996"
       y="12.171"
       opacity="0.1"
       rx="0"
       ry="0"
       id="rect33" />
    <rect
       width="4.4980001"
       height="0.132"
       x="9.5249996"
       y="13.229"
       opacity="0.1"
       rx="0"
       ry="0"
       id="rect34" />
  </g>
  <path
     fill="#ffffff"
     d="m 13.914,13.85 a 0.9,0.9 0 0 0 0.43,-0.225 l 0.086,-0.085 0.032,0.07 c 0.078,0.164 0.241,0.252 0.469,0.252 a 0.8,0.8 0 0 0 0.34,-0.07 l 0.075,-0.034 v -0.161 l -0.06,0.01 c -0.12,0.018 -0.22,-0.022 -0.268,-0.108 l -0.029,-0.052 -0.012,-1.425 -0.032,-0.095 a 0.64,0.64 0 0 0 -0.342,-0.391 c -0.404,-0.2 -1.124,-0.125 -1.419,0.148 -0.198,0.183 -0.198,0.439 0,0.548 0.055,0.03 0.076,0.034 0.152,0.034 a 0.25,0.25 0 0 0 0.15,-0.034 c 0.177,-0.097 0.201,-0.316 0.05,-0.453 -0.045,-0.04 -0.047,-0.044 -0.025,-0.056 0.104,-0.055 0.38,-0.075 0.539,-0.04 a 0.47,0.47 0 0 1 0.264,0.173 c 0.067,0.1 0.09,0.198 0.09,0.398 v 0.174 l -0.326,0.073 c -0.18,0.04 -0.369,0.084 -0.42,0.098 a 2,2 0 0 0 -0.376,0.154 0.9,0.9 0 0 0 -0.246,0.23 0.63,0.63 0 0 0 -0.026,0.544 0.64,0.64 0 0 0 0.43,0.33 c 0.102,0.024 0.349,0.02 0.474,-0.007 m -0.105,-0.285 a 0.36,0.36 0 0 1 -0.263,-0.295 0.42,0.42 0 0 1 0.117,-0.382 c 0.055,-0.05 0.2,-0.125 0.304,-0.157 0.082,-0.025 0.395,-0.096 0.425,-0.096 0.017,0 0.019,0.041 0.019,0.368 v 0.368 l -0.063,0.062 a 0.5,0.5 0 0 1 -0.393,0.148 0.7,0.7 0 0 1 -0.146,-0.016 m -3.442,0.18 v -0.08 L 10.323,13.657 C 9.989,13.6 9.966,13.531 10.123,13.073 l 0.112,-0.33 0.03,-0.085 1.157,0.006 0.098,0.28 c 0.147,0.421 0.164,0.499 0.128,0.584 -0.026,0.061 -0.108,0.1 -0.279,0.129 l -0.043,0.007 v 0.163 h 1.425 v -0.161 l -0.086,-0.02 A 0.4,0.4 0 0 1 12.411,13.49 c -0.067,-0.095 -0.067,-0.096 -0.585,-1.515 l -0.349,-0.953 -0.175,-0.479 -0.044,-0.122 -0.443,-0.007 -0.518,1.412 c -0.285,0.776 -0.535,1.452 -0.557,1.502 q -0.08,0.19 -0.176,0.253 a 0.5,0.5 0 0 1 -0.191,0.07 c -0.05,0 -0.058,0.012 -0.058,0.096 v 0.08 h 1.052 z m -0.023,-1.306 c 0,-0.008 0.457,-1.351 0.486,-1.428 0.008,-0.02 -0.002,-0.049 0.273,0.742 0.116,0.334 0.22,0.627 0.229,0.651 l 0.017,0.044 h -0.503 c -0.276,0 -0.502,-0.004 -0.502,-0.01 z"
     id="path34"
     style="display:inline" />
  <path
     fill="url(#g)"
     d="m 13.859,13.781 a 0.9,0.9 0 0 0 0.43,-0.225 l 0.086,-0.085 0.032,0.07 c 0.078,0.164 0.241,0.252 0.469,0.252 a 0.8,0.8 0 0 0 0.34,-0.07 l 0.075,-0.034 v -0.161 l -0.06,0.01 c -0.12,0.018 -0.22,-0.022 -0.268,-0.108 L 14.934,13.378 14.922,11.953 14.89,11.858 a 0.64,0.64 0 0 0 -0.342,-0.391 c -0.404,-0.2 -1.124,-0.125 -1.419,0.148 -0.198,0.183 -0.198,0.439 0,0.548 0.055,0.03 0.076,0.034 0.152,0.034 a 0.25,0.25 0 0 0 0.15,-0.034 c 0.177,-0.097 0.201,-0.316 0.05,-0.453 -0.045,-0.04 -0.047,-0.044 -0.025,-0.056 0.104,-0.055 0.38,-0.075 0.539,-0.04 a 0.47,0.47 0 0 1 0.264,0.173 c 0.067,0.1 0.09,0.198 0.09,0.398 v 0.174 l -0.326,0.073 c -0.18,0.04 -0.369,0.084 -0.42,0.098 a 2,2 0 0 0 -0.376,0.154 0.9,0.9 0 0 0 -0.246,0.23 0.63,0.63 0 0 0 -0.026,0.544 0.64,0.64 0 0 0 0.43,0.33 c 0.102,0.024 0.349,0.02 0.474,-0.007 m -0.105,-0.285 a 0.36,0.36 0 0 1 -0.263,-0.295 0.42,0.42 0 0 1 0.117,-0.382 c 0.055,-0.05 0.2,-0.125 0.304,-0.157 0.082,-0.025 0.395,-0.096 0.425,-0.096 0.017,0 0.019,0.041 0.019,0.368 v 0.368 l -0.063,0.063 A 0.5,0.5 0 0 1 13.9,13.512 0.7,0.7 0 0 1 13.754,13.496 m -3.442,0.18 v -0.08 l -0.044,-0.008 c -0.334,-0.057 -0.357,-0.126 -0.2,-0.584 l 0.112,-0.33 0.03,-0.085 1.157,0.006 0.098,0.28 c 0.147,0.421 0.164,0.499 0.128,0.584 -0.026,0.061 -0.108,0.1 -0.279,0.129 l -0.043,0.007 v 0.163 h 1.425 v -0.161 l -0.086,-0.02 a 0.4,0.4 0 0 1 -0.254,-0.156 c -0.067,-0.095 -0.067,-0.096 -0.585,-1.515 l -0.349,-0.953 -0.175,-0.479 -0.044,-0.122 -0.443,-0.007 -0.518,1.412 c -0.285,0.776 -0.535,1.452 -0.557,1.502 q -0.08,0.19 -0.176,0.253 a 0.5,0.5 0 0 1 -0.191,0.07 c -0.05,0 -0.058,0.012 -0.058,0.096 v 0.08 h 1.052 z M 10.289,12.37 c 0,-0.008 0.457,-1.351 0.486,-1.428 0.008,-0.02 -0.002,-0.049 0.273,0.742 0.116,0.334 0.22,0.627 0.229,0.651 l 0.017,0.044 h -0.503 c -0.276,0 -0.502,-0.004 -0.502,-0.01 z"
     id="path35"
     style="display:inline" />
  <rect
     x="1.0583124"
     y="1.0583124"
     width="14.817"
     height="14.817"
     rx="3.4400001"
     ry="3.4400001"
     fill="url(#a)"
     id="rect63"
     style="display:inline;opacity:0.34914712;fill:url(#a-0-7);stroke-width:0.999999" />
  <circle
     cx="12.171"
     cy="12.171"
     r="4.2329998"
     fill="url(#f)"
     id="circle34"
     style="display:inline;opacity:0.6673774" />
  <circle
     cx="12.171"
     cy="12.171"
     r="4.7620001"
     fill="url(#e)"
     id="circle30"
     style="display:none;opacity:0.7478678" />
  <g
     stroke-linecap="round"
     stroke-linejoin="round"
     id="g40"
     style="display:inline;opacity:0.7489339">
    <g
       stroke="#633f2c"
       id="g39">
      <path
         stroke-width="1.058"
         d="M 4.285,2.048 H 7.46 v 8.996 L 5.873,9.721 4.285,11.044 Z"
         opacity="0.01"
         id="path36" />
      <path
         stroke-width="0.794"
         d="M 4.285,2.048 H 7.46 v 8.996 L 5.873,9.721 4.285,11.044 Z"
         opacity="0.02"
         id="path37" />
      <path
         stroke-width="0.529"
         d="M 4.285,2.048 H 7.46 v 8.996 L 5.873,9.721 4.285,11.044 Z"
         opacity="0.03"
         id="path38" />
      <path
         stroke-width="0.265"
         d="M 4.285,2.048 H 7.46 v 8.996 L 5.873,9.721 4.285,11.044 Z"
         opacity="0.04"
         id="path39" />
    </g>
    <path
       d="M 4.285,2.048 H 7.46 v 8.996 L 5.873,9.721 4.285,11.044 Z"
       opacity="0.05"
       id="path40" />
  </g>
  <path
     fill="url(#h)"
     d="m 4.233,1.253 h 3.175 v 9.595 L 5.821,9.525 4.233,10.848 Z"
     id="path41"
     style="display:inline" />
  <path
     fill="#ffffff"
     d="m 10.76,10.346 -0.518,1.411 C 9.957,12.534 9.707,13.21 9.685,13.26 q -0.081,0.189 -0.177,0.253 a 0.5,0.5 0 0 1 -0.19,0.07 c -0.05,0 -0.058,0.012 -0.058,0.095 v 0.08 h 0.056 v -0.01 c 0,-0.084 0.007,-0.096 0.057,-0.096 a 0.5,0.5 0 0 0 0.19,-0.07 Q 9.661,13.519 9.74,13.329 c 0.022,-0.05 0.273,-0.727 0.558,-1.503 l 0.517,-1.411 0.413,0.005 -0.026,-0.068 z m -0.003,0.46 c 0.007,0.004 -0.006,-10e-4 -0.007,0.004 l -0.01,0.027 c 0.034,0.094 0.176,0.469 0.308,0.847 0.116,0.335 0.22,0.628 0.229,0.652 l 0.017,0.043 h -0.503 c -0.233,0 -0.52,-0.005 -0.576,-0.01 l -0.023,0.068 c 0,0.005 0.378,0.012 0.654,0.012 h 0.503 L 11.332,12.405 C 11.322,12.381 11.22,12.087 11.103,11.753 10.897,11.16 10.735,10.795 10.757,10.806 M 14,11.355 c -0.336,-0.003 -0.686,0.09 -0.87,0.26 -0.176,0.163 -0.196,0.382 -0.06,0.506 -0.07,-0.126 -0.032,-0.301 0.115,-0.437 0.294,-0.272 1.015,-0.347 1.419,-0.147 q 0.115,0.058 0.193,0.141 A 0.64,0.64 0 0 0 14.548,11.468 1.3,1.3 0 0 0 14,11.355 m -0.497,0.38 c -0.003,0.007 0.003,0.017 0.033,0.044 a 0.3,0.3 0 0 0 -0.033,-0.044 m 0.764,0.068 c 0.06,0.095 0.082,0.193 0.083,0.383 v 0.173 l -0.328,0.073 c -0.18,0.04 -0.368,0.085 -0.419,0.099 a 2,2 0 0 0 -0.376,0.153 0.9,0.9 0 0 0 -0.246,0.23 0.63,0.63 0 0 0 -0.026,0.544 0.6,0.6 0 0 0 0.101,0.14 q -0.025,-0.034 -0.046,-0.07 a 0.63,0.63 0 0 1 0.026,-0.545 0.9,0.9 0 0 1 0.246,-0.23 c 0.083,-0.048 0.253,-0.118 0.377,-0.153 0.05,-0.014 0.239,-0.059 0.419,-0.099 l 0.327,-0.072 v -0.175 c 0,-0.2 -0.024,-0.298 -0.091,-0.397 a 0.4,0.4 0 0 0 -0.047,-0.054 m 0.099,0.695 -0.04,0.01 c 0.002,0.052 0.03,0.272 0.03,0.426 v 0.368 l -0.063,0.063 a 0.5,0.5 0 0 1 -0.393,0.147 0.7,0.7 0 0 1 -0.146,-0.015 0.4,0.4 0 0 1 -0.154,-0.09 0.36,0.36 0 0 0 0.209,0.159 0.7,0.7 0 0 0 0.146,0.015 c 0.17,0.002 0.29,-0.044 0.393,-0.147 l 0.063,-0.063 v -0.367 c 0,-0.327 -0.03,-0.506 -0.045,-0.506 m -3.012,0.051 0.111,0.328 c 0.147,0.42 0.164,0.497 0.128,0.582 -0.026,0.062 -0.108,0.1 -0.278,0.13 l -0.044,0.007 v 0.163 h 0.055 v -0.094 l 0.043,-0.008 c 0.17,-0.029 0.254,-0.067 0.28,-0.129 0.035,-0.085 0.018,-0.162 -0.129,-0.583 l -0.135,-0.396 z m 1.045,0.922 0.012,0.02 q 0.082,0.117 0.254,0.156 l 0.031,0.007 V 13.597 L 12.61,13.578 a 0.43,0.43 0 0 1 -0.211,-0.107 m 2.614,0.017 0.006,0.012 c 0.048,0.086 0.148,0.126 0.267,0.107 h 0.005 v -0.079 l -0.06,0.01 a 0.27,0.27 0 0 1 -0.218,-0.05 m -4.974,0.026 c 0.027,0.08 0.113,0.113 0.273,0.14 v -0.058 l -0.044,-0.007 a 0.6,0.6 0 0 1 -0.229,-0.075 m 4.391,0.027 -0.013,0.014 q 0.033,0.061 0.082,0.108 C 14.487,13.645 14.472,13.63 14.463,13.61 Z"
     opacity="0.1"
     id="path42"
     style="display:inline" />
  <path
     d="m 11.159,10.351 0.028,0.078 0.176,0.479 0.175,0.479 0.173,0.473 c 0.517,1.42 0.518,1.42 0.585,1.516 A 0.4,0.4 0 0 0 12.4,13.473 0.3,0.3 0 0 1 12.355,13.421 C 12.289,13.325 12.288,13.325 11.77,11.906 l -0.173,-0.473 -0.175,-0.48 -0.175,-0.479 -0.045,-0.123 z m -0.42,0.485 c -0.004,-0.007 -0.005,-10e-4 -0.007,0.004 -0.028,0.077 -0.518,1.52 -0.518,1.528 0,0 0.065,0 0.074,0.002 0.026,-0.082 0.438,-1.296 0.489,-1.44 -0.019,-0.051 -0.036,-0.085 -0.037,-0.094 z m 3.897,0.684 c 0.089,0.076 0.153,0.17 0.194,0.292 l 0.032,0.094 0.012,1.426 0.03,0.052 q 0.032,0.054 0.088,0.082 Q 14.976,13.45 14.963,13.43 L 14.933,13.378 14.921,11.952 14.89,11.858 A 0.63,0.63 0 0 0 14.636,11.52 m -0.838,0.032 c -0.15,-0.007 -0.324,0.015 -0.401,0.056 -0.022,0.012 -0.021,0.015 0.023,0.056 0.152,0.137 0.129,0.356 -0.049,0.453 -0.053,0.03 -0.076,0.034 -0.15,0.034 -0.076,0 -0.097,-0.004 -0.151,-0.034 l -0.011,-0.008 q 0.03,0.03 0.07,0.053 c 0.054,0.03 0.076,0.035 0.15,0.035 0.076,0 0.098,-0.005 0.152,-0.034 0.177,-0.098 0.2,-0.316 0.049,-0.453 -0.045,-0.04 -0.046,-0.044 -0.024,-0.056 0.104,-0.055 0.38,-0.076 0.538,-0.04 a 0.5,0.5 0 0 1 0.15,0.066 0.5,0.5 0 0 0 -0.21,-0.111 1,1 0 0 0 -0.136,-0.017 m 0.527,0.955 c -0.03,0 -0.39,0.084 -0.473,0.109 a 1,1 0 0 0 -0.304,0.157 0.42,0.42 0 0 0 -0.117,0.381 q 0.034,0.178 0.173,0.256 A 0.37,0.37 0 0 1 13.49,13.2 0.42,0.42 0 0 1 13.608,12.819 c 0.055,-0.05 0.199,-0.125 0.304,-0.157 a 6,6 0 0 1 0.428,-0.1 c -0.002,-0.044 -0.007,-0.055 -0.015,-0.055 m -4.176,0.036 -0.029,0.085 -0.113,0.33 c -0.115,0.34 -0.132,0.464 0.002,0.53 -0.063,-0.076 -0.036,-0.21 0.058,-0.484 l 0.113,-0.33 0.029,-0.085 1.16,0.005 -0.016,-0.046 z m 4.206,0.885 -0.113,0.114 c -0.093,0.094 -0.28,0.157 -0.443,0.193 a 1.4,1.4 0 0 1 -0.473,0.006 0.7,0.7 0 0 1 -0.226,-0.102 0.7,0.7 0 0 0 0.285,0.148 c 0.102,0.025 0.349,0.021 0.474,-0.006 a 0.9,0.9 0 0 0 0.43,-0.225 l 0.087,-0.088 -10e-4,-0.002 z m 0.935,0.1 -0.06,0.009 v 0.106 l -0.073,0.035 a 0.8,0.8 0 0 1 -0.341,0.069 0.6,0.6 0 0 1 -0.29,-0.064 c 0.087,0.07 0.203,0.11 0.35,0.11 a 0.8,0.8 0 0 0 0.34,-0.07 l 0.074,-0.034 z m -0.765,0.155 q -0.024,-0.017 -0.045,-0.035 0.021,0.019 0.045,0.035 m -1.888,-0.1 v 0.129 H 11.27 v 0.046 h 1.426 v -0.161 z m -2.385,0.002 v 0.127 H 9.26 v 0.046 h 1.052 v -0.163 l -0.044,-0.007 z"
     opacity="0.5"
     id="path43"
     style="display:inline" />
  <g
     filter="url(#e)"
     opacity="0.35"
     style="display:inline;opacity:0.860465;mix-blend-mode:normal;filter:url(#e-3)"
     id="g17"
     transform="translate(-0.08666563,-0.08666563)">
    <path
       fill="url(#f)"
       d="m 5.36,1.058 c -1.53,0 -2.577,0.457 -3.26,1.2 -0.678,0.74 -1.042,1.8 -1.042,3.001 v 6.415 c 0,1.2 0.364,2.26 1.043,3 0.682,0.744 1.73,1.2 3.26,1.2 h 6.23 c 1.53,0 2.577,-0.456 3.26,-1.2 0.678,-0.739 1.024,-1.702 1.024,-3 V 5.5 c 0,-1.57 -0.346,-2.502 -1.024,-3.242 -0.683,-0.743 -1.73,-1.2 -3.26,-1.2 H 6.745 Z m 0,0.264 h 6.232 c 1.477,0 2.437,0.432 3.064,1.116 0.634,0.69 0.954,1.53 0.954,3.062 v 6.174 c 0,1.251 -0.322,2.134 -0.954,2.822 -0.627,0.684 -1.587,1.114 -3.064,1.114 H 5.359 C 3.882,15.61 2.922,15.18 2.295,14.496 1.67,13.814 1.322,12.821 1.322,11.674 V 5.26 C 1.322,4.112 1.67,3.12 2.295,2.438 2.922,1.754 3.882,1.322 5.359,1.322"
       id="path16"
       style="fill:url(#f-2)" />
    <path
       fill="url(#g)"
       d="m 5.36,1.058 c -1.53,0 -2.577,0.457 -3.26,1.2 -0.678,0.74 -1.042,1.8 -1.042,3.001 v 6.415 c 0,1.2 0.364,2.26 1.043,3 0.682,0.744 1.73,1.2 3.26,1.2 h 6.23 c 1.53,0 2.577,-0.456 3.26,-1.2 0.678,-0.739 1.024,-1.702 1.024,-3 V 5.5 c 0,-1.57 -0.346,-2.502 -1.024,-3.242 -0.683,-0.743 -1.73,-1.2 -3.26,-1.2 H 6.745 Z m 0,0.264 h 6.232 c 1.477,0 2.437,0.432 3.064,1.116 0.634,0.69 0.954,1.53 0.954,3.062 v 6.174 c 0,1.251 -0.322,2.134 -0.954,2.822 -0.627,0.684 -1.587,1.114 -3.064,1.114 H 5.359 C 3.882,15.61 2.922,15.18 2.295,14.496 1.67,13.814 1.322,12.821 1.322,11.674 V 5.26 C 1.322,4.112 1.67,3.12 2.295,2.438 2.922,1.754 3.882,1.322 5.359,1.322"
       id="path17-7"
       style="fill:url(#g-5)" />
  </g>
</svg>
