<?xml version="1.0" encoding="UTF-8" standalone="no"?>
<svg
   clip-rule="evenodd"
   fill-rule="evenodd"
   stroke-linejoin="round"
   stroke-miterlimit="2"
   viewBox="0 0 48 48"
   version="1.1"
   id="svg12"
   sodipodi:docname="acroread.svg"
   inkscape:version="1.4.2 (ebf0e940d0, 2025-05-08)"
   xmlns:inkscape="http://www.inkscape.org/namespaces/inkscape"
   xmlns:sodipodi="http://sodipodi.sourceforge.net/DTD/sodipodi-0.dtd"
   xmlns:xlink="http://www.w3.org/1999/xlink"
   xmlns="http://www.w3.org/2000/svg"
   xmlns:svg="http://www.w3.org/2000/svg">
  <defs
     id="defs12">
    <linearGradient
       id="a-3"
       x1="7.9369998"
       x2="7.9369998"
       y1="15.081"
       y2="1.852"
       gradientTransform="matrix(2.5948333,0,0,2.7627555,1.0162932,0.71709392)"
       gradientUnits="userSpaceOnUse">
      <stop
         offset="0"
         stop-color="#ffffff"
         id="stop3-6"
         style="stop-color:#656565;stop-opacity:0.60095578;" />
      <stop
         offset="1"
         stop-color="#ffffff"
         id="stop4-7" />
    </linearGradient>
    <filter
       id="e"
       width="1.0139074"
       height="1.0139083"
       x="-0.0069537049"
       y="-0.0069541742"
       color-interpolation-filters="sRGB">
      <feGaussianBlur
         stdDeviation="0.042930437"
         id="feGaussianBlur12" />
    </filter>
    <linearGradient
       xlink:href="#a-7"
       id="f"
       x1="2.598"
       x2="10.583"
       y1="2.836"
       y2="11.312"
       gradientUnits="userSpaceOnUse" />
    <linearGradient
       id="a-7">
      <stop
         offset="0"
         stop-color="#ffffff"
         id="stop1-3" />
      <stop
         offset="1"
         stop-color="#ffffff"
         stop-opacity="0"
         id="stop2-6" />
    </linearGradient>
    <linearGradient
       xlink:href="#a-7"
       id="g"
       x1="15.081"
       x2="12.7"
       y1="14.816"
       y2="12.171"
       gradientUnits="userSpaceOnUse" />
  </defs>
  <sodipodi:namedview
     id="namedview12"
     pagecolor="#ffffff"
     bordercolor="#000000"
     borderopacity="0.25"
     inkscape:showpageshadow="2"
     inkscape:pageopacity="0.0"
     inkscape:pagecheckerboard="0"
     inkscape:deskcolor="#d1d1d1"
     inkscape:zoom="6.76"
     inkscape:cx="23.964497"
     inkscape:cy="24.33432"
     inkscape:window-width="1920"
     inkscape:window-height="1047"
     inkscape:window-x="0"
     inkscape:window-y="0"
     inkscape:window-maximized="1"
     inkscape:current-layer="svg12" />
  <linearGradient
     id="a"
     x2="1"
     gradientTransform="matrix(-.00109739 -43.1476 43.1476 -.00109739 135.008 45.3606)"
     gradientUnits="userSpaceOnUse">
    <stop
       stop-color="#dbcdc0"
       offset="0"
       id="stop1" />
    <stop
       stop-color="#ffffff"
       offset="1"
       id="stop2" />
  </linearGradient>
  <linearGradient
     id="b"
     x2="1"
     gradientTransform="matrix(0 -42.2226 42.2226 0 136.472 44.3392)"
     gradientUnits="userSpaceOnUse">
    <stop
       stop-color="#7e6249"
       offset="0"
       id="stop3" />
    <stop
       stop-color="#ab8a6e"
       offset="1"
       id="stop4" />
  </linearGradient>
  <linearGradient
     id="c"
     x2="1"
     gradientTransform="matrix(22.7546 0 0 22.7546 11.9407 471.711)"
     gradientUnits="userSpaceOnUse">
    <stop
       stop-color="#ffffff"
       offset="0"
       id="stop5" />
    <stop
       stop-color="#ffffff"
       offset="1"
       id="stop6" />
  </linearGradient>
  <path
     d="M 42.397,45.363 30.312,45.349 V 2.25 L 42.743,2.205 c 2.16,0.026 3.24,1.708 3.24,3.729 V 41.46 c 0.094,2.219 -1.372,3.855 -3.586,3.903 z"
     fill="url(#a)"
     id="path6"
     style="display:inline;opacity:0.50171821" />
  <path
     d="M 23.275,2.257 39.787,0.709 c 2.209,-0.223 3.174,0.962 3.191,3.337 l -0.14,39.051 c -0.04,2.642 -1.222,4.026 -3.552,4.123 L 23.383,45.363 H 6.399 c -2.169,0 -4.373,-1.766 -4.385,-4.518 V 6.622 C 2.097,3.456 3.417,2.263 6.583,2.205 Z"
     fill="url(#b)"
     id="path7"
     style="display:inline;opacity:0.5" />
  <path
     d="m 42.838,43.097 c -0.04,2.642 -1.222,4.026 -3.552,4.123 L 23.203,45.342 V 2.264 L 39.787,0.709 c 2.209,-0.223 3.174,0.962 3.191,3.337 z"
     fill-opacity="0.15"
     id="path8"
     style="display:inline;opacity:0.75" />
  <g
     fill-rule="nonzero"
     id="g12"
     style="display:inline">
    <path
       d="m 34.327,20.936 c -0.455,-0.448 -1.463,-0.685 -2.998,-0.706 -1.04,-0.016 -2.29,0.08 -3.606,0.264 -0.589,-0.339 -1.196,-0.709 -1.672,-1.155 -1.282,-1.197 -2.352,-2.858 -3.019,-4.685 0.043,-0.171 0.08,-0.321 0.115,-0.474 0,0 0.722,-4.102 0.531,-5.488 C 23.651,8.502 23.635,8.446 23.584,8.299 L 23.521,8.138 C 23.325,7.685 22.94,7.205 22.336,7.231 L 21.982,7.215 h -0.01 c -0.673,0 -1.222,0.344 -1.366,0.859 -0.438,1.614 0.014,4.029 0.833,7.156 l -0.21,0.51 c -0.586,1.429 -1.32,2.868 -1.969,4.138 l -0.084,0.165 c -0.682,1.335 -1.301,2.468 -1.861,3.427 l -0.58,0.306 c -0.042,0.022 -1.034,0.548 -1.267,0.688 -1.975,1.18 -3.284,2.518 -3.501,3.581 -0.069,0.338 -0.017,0.772 0.334,0.973 l 0.56,0.282 c 0.243,0.122 0.499,0.183 0.762,0.183 1.406,0 3.039,-1.752 5.289,-5.678 2.597,-0.845 5.554,-1.548 8.146,-1.936 1.975,1.112 4.404,1.885 5.937,1.885 0.272,0 0.507,-0.027 0.698,-0.076 0.294,-0.078 0.542,-0.246 0.693,-0.473 0.297,-0.448 0.358,-1.065 0.277,-1.696 -0.024,-0.187 -0.174,-0.419 -0.336,-0.577 z M 13.318,28.42 c 0.256,-0.701 1.272,-2.087 2.773,-3.318 0.094,-0.076 0.327,-0.294 0.54,-0.496 -1.57,2.504 -2.621,3.502 -3.313,3.814 z M 22.21,7.945 c 0.452,0 0.709,1.139 0.73,2.208 0.022,1.068 -0.228,1.818 -0.538,2.373 -0.257,-0.821 -0.381,-2.116 -0.381,-2.963 0,0 -0.019,-1.618 0.189,-1.618 z m -2.653,14.591 c 0.315,-0.564 0.643,-1.158 0.978,-1.789 0.816,-1.544 1.332,-2.751 1.715,-3.744 0.764,1.389 1.715,2.57 2.833,3.516 0.139,0.118 0.287,0.237 0.442,0.355 -2.273,0.45 -4.238,0.997 -5.968,1.662 z M 33.89,22.409 c -0.138,0.086 -0.535,0.137 -0.79,0.137 -0.823,0 -1.842,-0.376 -3.27,-0.989 0.549,-0.041 1.052,-0.061 1.503,-0.061 0.826,0 1.07,0 1.878,0.202 0.808,0.207 0.818,0.625 0.679,0.711 z"
       fill="url(#c)"
       id="path9" />
    <path
       d="m 16.167,38.779 v 2.885 h -0.808 v -7.632 h 1.894 c 0.738,0 1.309,0.199 1.714,0.596 0.406,0.398 0.608,0.958 0.608,1.682 0,0.724 -0.225,1.316 -0.675,1.778 -0.45,0.461 -1.058,0.691 -1.824,0.691 z m 0,-3.938 v 3.129 h 0.846 c 0.558,0 0.983,-0.141 1.276,-0.423 0.294,-0.282 0.44,-0.68 0.44,-1.194 0,-1.008 -0.538,-1.512 -1.615,-1.512 z"
       fill="#ffffff"
       id="path10" />
    <path
       d="m 20.873,41.664 v -7.632 h 1.904 c 2.43,0 3.644,1.24 3.644,3.72 0,1.178 -0.337,2.125 -1.012,2.839 -0.674,0.715 -1.577,1.073 -2.709,1.073 z m 0.808,-6.823 v 6.014 h 1.029 c 0.904,0 1.607,-0.268 2.11,-0.804 0.503,-0.535 0.755,-1.295 0.755,-2.277 0,-1.955 -0.939,-2.933 -2.817,-2.933 z"
       fill="#ffffff"
       id="path11" />
    <path
       d="m 31.277,34.841 h -2.692 v 2.64 h 2.49 v 0.803 h -2.49 v 3.38 h -0.808 v -7.632 h 3.5 z"
       fill="#ffffff"
       id="path12" />
  </g>
  <rect
     width="38.447392"
     height="40.935478"
     x="3.7624373"
     y="3.6182928"
     fill="url(#a)"
     rx="8.926343"
     ry="9.5040016"
     id="rect4"
     style="display:inline;opacity:0.35051546;fill:url(#a-3);stroke-width:0.708402" />
  <g
     filter="url(#e)"
     opacity=".35"
     style="display:inline;opacity:0.990938;mix-blend-mode:normal;filter:url(#e)"
     id="g17"
     transform="matrix(2.6526241,0,0,2.7825569,0.30706839,0.47884474)">
    <path
       fill="url(#f)"
       d="m 5.36,1.058 c -1.53,0 -2.577,0.457 -3.26,1.2 -0.678,0.74 -1.042,1.8 -1.042,3.001 v 6.415 c 0,1.2 0.364,2.26 1.043,3 0.682,0.744 1.73,1.2 3.26,1.2 h 6.23 c 1.53,0 2.577,-0.456 3.26,-1.2 0.678,-0.739 1.024,-1.702 1.024,-3 V 5.5 c 0,-1.57 -0.346,-2.502 -1.024,-3.242 -0.683,-0.743 -1.73,-1.2 -3.26,-1.2 H 6.745 Z m 0,0.264 h 6.232 c 1.477,0 2.437,0.432 3.064,1.116 0.634,0.69 0.954,1.53 0.954,3.062 v 6.174 c 0,1.251 -0.322,2.134 -0.954,2.822 -0.627,0.684 -1.587,1.114 -3.064,1.114 H 5.359 C 3.882,15.61 2.922,15.18 2.295,14.496 1.67,13.814 1.322,12.821 1.322,11.674 V 5.26 C 1.322,4.112 1.67,3.12 2.295,2.438 2.922,1.754 3.882,1.322 5.359,1.322"
       id="path16"
       style="fill:url(#f)" />
    <path
       fill="url(#g)"
       d="m 5.36,1.058 c -1.53,0 -2.577,0.457 -3.26,1.2 -0.678,0.74 -1.042,1.8 -1.042,3.001 v 6.415 c 0,1.2 0.364,2.26 1.043,3 0.682,0.744 1.73,1.2 3.26,1.2 h 6.23 c 1.53,0 2.577,-0.456 3.26,-1.2 0.678,-0.739 1.024,-1.702 1.024,-3 V 5.5 c 0,-1.57 -0.346,-2.502 -1.024,-3.242 -0.683,-0.743 -1.73,-1.2 -3.26,-1.2 H 6.745 Z m 0,0.264 h 6.232 c 1.477,0 2.437,0.432 3.064,1.116 0.634,0.69 0.954,1.53 0.954,3.062 v 6.174 c 0,1.251 -0.322,2.134 -0.954,2.822 -0.627,0.684 -1.587,1.114 -3.064,1.114 H 5.359 C 3.882,15.61 2.922,15.18 2.295,14.496 1.67,13.814 1.322,12.821 1.322,11.674 V 5.26 C 1.322,4.112 1.67,3.12 2.295,2.438 2.922,1.754 3.882,1.322 5.359,1.322"
       id="path17"
       style="fill:url(#g)" />
  </g>
</svg>
