<?xml version="1.0" encoding="UTF-8" standalone="no"?>
<svg
   width="64"
   height="64"
   viewBox="0 0 16.933 16.933"
   version="1.1"
   id="svg40"
   sodipodi:docname="calc.svg"
   inkscape:version="1.4.2 (ebf0e940d0, 2025-05-08)"
   xmlns:inkscape="http://www.inkscape.org/namespaces/inkscape"
   xmlns:sodipodi="http://sodipodi.sourceforge.net/DTD/sodipodi-0.dtd"
   xmlns:xlink="http://www.w3.org/1999/xlink"
   xmlns="http://www.w3.org/2000/svg"
   xmlns:svg="http://www.w3.org/2000/svg">
  <sodipodi:namedview
     id="namedview40"
     pagecolor="#ffffff"
     bordercolor="#000000"
     borderopacity="0.25"
     inkscape:showpageshadow="2"
     inkscape:pageopacity="0.0"
     inkscape:pagecheckerboard="0"
     inkscape:deskcolor="#d1d1d1"
     inkscape:zoom="6.7"
     inkscape:cx="32.014925"
     inkscape:cy="32.014925"
     inkscape:window-width="1268"
     inkscape:window-height="681"
     inkscape:window-x="299"
     inkscape:window-y="55"
     inkscape:window-maximized="0"
     inkscape:current-layer="svg40" />
  <defs
     id="defs18">
    <filter
       id="g"
       width="1.0397334"
       height="1.0834768"
       x="-0.019866699"
       y="-0.041738386"
       color-interpolation-filters="sRGB">
      <feGaussianBlur
         stdDeviation=".046"
         id="feGaussianBlur1" />
    </filter>
    <filter
       id="h"
       width="1.0255626"
       height="1.051134"
       x="-0.012781303"
       y="-0.025566999"
       color-interpolation-filters="sRGB">
      <feGaussianBlur
         stdDeviation=".031"
         id="feGaussianBlur2" />
    </filter>
    <filter
       id="j"
       width="1.1484536"
       height="1.1483517"
       x="-0.074226807"
       y="-0.074175827"
       color-interpolation-filters="sRGB">
      <feGaussianBlur
         stdDeviation=".045"
         id="feGaussianBlur3" />
    </filter>
    <filter
       id="i"
       width="1.2611264"
       height="1.2611264"
       x="-0.13056318"
       y="-0.13056318"
       color-interpolation-filters="sRGB">
      <feGaussianBlur
         stdDeviation=".024"
         id="feGaussianBlur4" />
    </filter>
    <filter
       id="k"
       width="1.3138736"
       height="1.3138736"
       x="-0.15693681"
       y="-0.15693681"
       color-interpolation-filters="sRGB">
      <feGaussianBlur
         stdDeviation=".04"
         id="feGaussianBlur5" />
    </filter>
    <filter
       id="l"
       width="1.3138736"
       height="1.3138736"
       x="-0.15693681"
       y="-0.15693681"
       color-interpolation-filters="sRGB">
      <feGaussianBlur
         stdDeviation=".04"
         id="feGaussianBlur6" />
    </filter>
    <filter
       id="n"
       width="1.0246187"
       height="1.0164132"
       x="-0.012309353"
       y="-0.0082066046"
       color-interpolation-filters="sRGB">
      <feGaussianBlur
         stdDeviation=".038"
         id="feGaussianBlur7" />
    </filter>
    <filter
       id="c"
       width="1.2352052"
       height="1.1568035"
       x="-0.11760259"
       y="-0.078401726"
       color-interpolation-filters="sRGB">
      <feGaussianBlur
         stdDeviation=".363"
         id="feGaussianBlur8" />
    </filter>
    <filter
       id="b"
       width="1.0239725"
       height="1.0239741"
       x="-0.011986232"
       y="-0.011987041"
       color-interpolation-filters="sRGB">
      <feGaussianBlur
         stdDeviation=".074"
         id="feGaussianBlur9" />
    </filter>
    <linearGradient
       id="f"
       x1="6.879"
       x2="10.583"
       y1="4.498"
       y2="7.408"
       gradientUnits="userSpaceOnUse">
      <stop
         offset="0"
         stop-color="#ffffff"
         id="stop9" />
      <stop
         offset="1"
         stop-color="#ffffff"
         stop-opacity="0"
         id="stop10" />
    </linearGradient>
    <linearGradient
       id="e"
       x1="8.466"
       x2="8.466"
       y1="3.704"
       y2="6.614"
       gradientTransform="matrix(.9689 0 0 .92823 .263 .37)"
       gradientUnits="userSpaceOnUse">
      <stop
         offset="0"
         stop-color="#c89b83"
         id="stop11" />
      <stop
         offset="1"
         stop-color="#be8a6e"
         id="stop12" />
    </linearGradient>
    <linearGradient
       id="m"
       x1="8.466"
       x2="8.466"
       y1="2.91"
       y2="14.023"
       gradientUnits="userSpaceOnUse">
      <stop
         offset="0"
         stop-color="#dec3b5"
         id="stop13" />
      <stop
         offset="1"
         stop-color="#c69980"
         id="stop14" />
    </linearGradient>
    <linearGradient
       id="d"
       x1="8.466"
       x2="8.466"
       y1="3.046"
       y2="13.771"
       gradientUnits="userSpaceOnUse">
      <stop
         offset="0"
         stop-color="#925d41"
         id="stop15" />
      <stop
         offset="1"
         stop-color="#d6b5a3"
         id="stop16" />
    </linearGradient>
    <linearGradient
       id="a"
       x1="8.466"
       x2="8.466"
       y1="1.058"
       y2="15.875"
       gradientTransform="scale(3.7796)"
       gradientUnits="userSpaceOnUse">
      <stop
         offset="0"
         stop-color="#ffffff"
         id="stop17" />
      <stop
         offset="1"
         stop-color="#ffffff"
         id="stop18" />
    </linearGradient>
    <filter
       id="c-3"
       width="1.0239725"
       height="1.0239741"
       x="-0.011986232"
       y="-0.011987041"
       color-interpolation-filters="sRGB">
      <feGaussianBlur
         stdDeviation=".074"
         id="feGaussianBlur8-2" />
    </filter>
    <linearGradient
       xlink:href="#a-6"
       id="d-0"
       x1="2.598"
       x2="10.583"
       y1="2.836"
       y2="11.312"
       gradientUnits="userSpaceOnUse" />
    <linearGradient
       id="a-6">
      <stop
         offset="0"
         stop-color="#ffffff"
         id="stop1-7" />
      <stop
         offset="1"
         stop-color="#ffffff"
         stop-opacity="0"
         id="stop2-5" />
    </linearGradient>
    <linearGradient
       xlink:href="#a-6"
       id="e-6"
       x1="15.081"
       x2="12.7"
       y1="14.816"
       y2="12.171"
       gradientUnits="userSpaceOnUse" />
    <linearGradient
       id="a-3"
       x1="7.9369998"
       x2="7.9369998"
       y1="15.081"
       y2="1.852"
       gradientUnits="userSpaceOnUse"
       gradientTransform="matrix(1.0102689,0,0,0.98899163,6.2882769e-5,0.09080357)">
      <stop
         stop-color="#ffffff"
         offset="0"
         id="stop62"
         style="stop-color:#666666;stop-opacity:1;" />
      <stop
         stop-color="#ffffff"
         offset="1"
         id="stop63" />
    </linearGradient>
  </defs>
  <path
     fill="url(#a)"
     d="M 20.26,4 C 14.478,4 10.517,5.725 7.939,8.535 5.374,11.331 4,15.34 4,19.876 V 44.124 C 4,48.662 5.374,52.669 7.939,55.465 10.517,58.275 14.479,60 20.26,60 H 43.809 C 49.591,60 53.552,58.276 56.13,55.465 58.695,52.67 60,49.03 60,44.125 V 20.786 C 60,14.851 58.695,11.33 56.13,8.534 53.552,5.725 49.59,4 43.809,4 H 25.494 Z"
     transform="scale(0.26458)"
     id="path18"
     style="display:inline;opacity:0.5" />
  <path
     fill="#ffffff"
     d="m 5.36,1.058 c -1.53,0 -2.577,0.457 -3.26,1.2 -0.678,0.74 -1.042,1.8 -1.042,3.001 v 6.415 c 0,1.2 0.364,2.26 1.043,3 0.682,0.744 1.73,1.2 3.26,1.2 h 6.23 c 1.53,0 2.577,-0.456 3.26,-1.2 0.678,-0.739 1.024,-1.702 1.024,-3 V 5.5 c 0,-1.57 -0.346,-2.502 -1.024,-3.242 -0.683,-0.743 -1.73,-1.2 -3.26,-1.2 H 6.745 Z m 0,0.264 h 6.232 c 1.477,0 2.437,0.432 3.064,1.116 0.634,0.69 0.954,1.53 0.954,3.062 v 6.174 c 0,1.251 -0.322,2.134 -0.954,2.822 -0.627,0.684 -1.587,1.114 -3.064,1.114 H 5.359 C 3.882,15.61 2.922,15.18 2.295,14.496 1.67,13.814 1.322,12.821 1.322,11.674 V 5.26 C 1.322,4.112 1.67,3.12 2.295,2.438 2.922,1.754 3.882,1.322 5.359,1.322"
     filter="url(#b)"
     id="path19"
     style="display:inline;opacity:0.508547" />
  <rect
     width="7.408"
     height="11.112"
     x="4.9439998"
     y="3.043"
     filter="url(#c)"
     opacity="0.25"
     rx="1.058"
     ry="1.058"
     id="rect19"
     style="display:inline" />
  <rect
     width="7.408"
     height="11.112"
     x="4.7620001"
     y="2.9100001"
     fill="url(#d)"
     stroke="#a16748"
     stroke-width="0.159"
     rx="1.058"
     ry="1.058"
     id="rect20"
     style="display:inline" />
  <rect
     width="5.6399999"
     height="2.701"
     x="5.6469998"
     y="3.8080001"
     fill="url(#e)"
     rx="0.315"
     ry="0.315"
     id="rect21"
     style="display:inline" />
  <path
     fill="url(#f)"
     d="M5.96 3.836a.27.27 0 0 0-.273.272V6.21c0 .153.12.271.274.271h5.012a.267.267 0 0 0 .271-.271V4.108a.27.27 0 0 0-.271-.272zm0 .133h5.013c.082 0 .138.057.138.139V6.21a.13.13 0 0 1-.138.138H5.96c-.082 0-.14-.056-.14-.138V4.108c0-.082.058-.14.14-.14"
     filter="url(#g)"
     opacity=".43"
     id="path21" />
  <path
     fill="#8b593e"
     d="M 5.96,3.704 A 0.403,0.403 0 0 0 5.556,4.108 V 6.21 c 0,0.224 0.18,0.404 0.404,0.404 h 5.013 c 0.224,0 0.404,-0.18 0.404,-0.404 V 4.108 A 0.403,0.403 0 0 0 10.973,3.704 Z m 0,0.132 h 5.013 c 0.153,0 0.271,0.119 0.271,0.272 V 6.21 A 0.267,0.267 0 0 1 10.973,6.481 H 5.96 A 0.27,0.27 0 0 1 5.686,6.21 V 4.108 A 0.27,0.27 0 0 1 5.96,3.836"
     filter="url(#h)"
     id="path22"
     style="display:none" />
  <g
     transform="translate(16.391)"
     id="g23"
     style="display:inline">
    <circle
       cx="-9.9860001"
       cy="8.2650003"
       r="0.72799999"
       fill="#ffffff"
       stroke="#a16748"
       stroke-linecap="round"
       stroke-linejoin="round"
       stroke-width="0.265"
       filter="url(#i)"
       id="circle22" />
    <circle
       cx="-9.9860001"
       cy="8.2650003"
       r="0.72799999"
       fill="#ffffff"
       id="circle23" />
    <path
       fill="#ffffff"
       d="m -9.985,7.537 a 0.73,0.73 0 0 0 -0.728,0.728 0.73,0.73 0 0 0 0.728,0.728 0.73,0.73 0 0 0 0.727,-0.728 0.73,0.73 0 0 0 -0.727,-0.728 m 0.06,0.179 a 0.61,0.61 0 0 1 0.61,0.61 0.61,0.61 0 0 1 -0.61,0.609 0.61,0.61 0 0 1 -0.61,-0.61 0.61,0.61 0 0 1 0.61,-0.61"
       filter="url(#j)"
       id="path23" />
  </g>
  <g
     transform="translate(18.452)"
     id="g25">
    <circle
       cx="-9.986"
       cy="8.265"
       r=".728"
       fill="#ffffff"
       stroke="#a16748"
       stroke-linecap="round"
       stroke-linejoin="round"
       stroke-width=".265"
       filter="url(#k)"
       id="circle24" />
    <circle
       cx="-9.986"
       cy="8.265"
       r=".728"
       fill="#ffffff"
       id="circle25" />
    <path
       fill="#ffffff"
       d="M-9.985 7.537a.73.73 0 0 0-.728.728.73.73 0 0 0 .728.728.73.73 0 0 0 .727-.728.73.73 0 0 0-.727-.728m.06.179a.61.61 0 0 1 .61.61.61.61 0 0 1-.61.609.61.61 0 0 1-.61-.61.61.61 0 0 1 .61-.61"
       filter="url(#j)"
       id="path25" />
  </g>
  <g
     transform="translate(20.513)"
     id="g27">
    <circle
       cx="-9.986"
       cy="8.265"
       r=".728"
       fill="#ffffff"
       stroke="#a16748"
       stroke-linecap="round"
       stroke-linejoin="round"
       stroke-width=".265"
       filter="url(#l)"
       id="circle26" />
    <circle
       cx="-9.986"
       cy="8.265"
       r=".728"
       fill="#f0e3dd"
       id="circle27" />
    <path
       fill="#ffffff"
       d="M-9.985 7.537a.73.73 0 0 0-.728.728.73.73 0 0 0 .728.728.73.73 0 0 0 .727-.728.73.73 0 0 0-.727-.728m.06.179a.61.61 0 0 1 .61.61.61.61 0 0 1-.61.609.61.61 0 0 1-.61-.61.61.61 0 0 1 .61-.61"
       filter="url(#j)"
       id="path27" />
  </g>
  <g
     transform="translate(16.391 2.049)"
     id="g29">
    <circle
       cx="-9.986"
       cy="8.265"
       r=".728"
       fill="#ffffff"
       stroke="#a16748"
       stroke-linecap="round"
       stroke-linejoin="round"
       stroke-width=".265"
       filter="url(#i)"
       id="circle28" />
    <circle
       cx="-9.986"
       cy="8.265"
       r=".728"
       fill="#ffffff"
       id="circle29" />
    <path
       fill="#ffffff"
       d="M-9.985 7.537a.73.73 0 0 0-.728.728.73.73 0 0 0 .728.728.73.73 0 0 0 .727-.728.73.73 0 0 0-.727-.728m.06.179a.61.61 0 0 1 .61.61.61.61 0 0 1-.61.609.61.61 0 0 1-.61-.61.61.61 0 0 1 .61-.61"
       filter="url(#j)"
       id="path29" />
  </g>
  <g
     transform="translate(18.452 2.049)"
     id="g31">
    <circle
       cx="-9.986"
       cy="8.265"
       r=".728"
       fill="#ffffff"
       stroke="#a16748"
       stroke-linecap="round"
       stroke-linejoin="round"
       stroke-width=".265"
       filter="url(#k)"
       id="circle30" />
    <circle
       cx="-9.986"
       cy="8.265"
       r=".728"
       fill="#ffffff"
       id="circle31" />
    <path
       fill="#ffffff"
       d="M-9.985 7.537a.73.73 0 0 0-.728.728.73.73 0 0 0 .728.728.73.73 0 0 0 .727-.728.73.73 0 0 0-.727-.728m.06.179a.61.61 0 0 1 .61.61.61.61 0 0 1-.61.609.61.61 0 0 1-.61-.61.61.61 0 0 1 .61-.61"
       filter="url(#j)"
       id="path31" />
  </g>
  <g
     transform="translate(20.513 2.049)"
     id="g33">
    <circle
       cx="-9.986"
       cy="8.265"
       r=".728"
       fill="#ffffff"
       stroke="#a16748"
       stroke-linecap="round"
       stroke-linejoin="round"
       stroke-width=".265"
       filter="url(#l)"
       id="circle32" />
    <circle
       cx="-9.986"
       cy="8.265"
       r=".728"
       fill="#f0e3dd"
       id="circle33" />
    <path
       fill="#ffffff"
       d="M-9.985 7.537a.73.73 0 0 0-.728.728.73.73 0 0 0 .728.728.73.73 0 0 0 .727-.728.73.73 0 0 0-.727-.728m.06.179a.61.61 0 0 1 .61.61.61.61 0 0 1-.61.609.61.61 0 0 1-.61-.61.61.61 0 0 1 .61-.61"
       filter="url(#j)"
       id="path33" />
  </g>
  <g
     transform="translate(16.391 4.098)"
     id="g35">
    <circle
       cx="-9.986"
       cy="8.265"
       r=".728"
       fill="#ffffff"
       stroke="#a16748"
       stroke-linecap="round"
       stroke-linejoin="round"
       stroke-width=".265"
       filter="url(#i)"
       id="circle34" />
    <circle
       cx="-9.986"
       cy="8.265"
       r=".728"
       fill="#ffffff"
       id="circle35" />
    <path
       fill="#ffffff"
       d="M-9.985 7.537a.73.73 0 0 0-.728.728.73.73 0 0 0 .728.728.73.73 0 0 0 .727-.728.73.73 0 0 0-.727-.728m.06.179a.61.61 0 0 1 .61.61.61.61 0 0 1-.61.609.61.61 0 0 1-.61-.61.61.61 0 0 1 .61-.61"
       filter="url(#j)"
       id="path35" />
  </g>
  <g
     transform="translate(18.452 4.098)"
     id="g37">
    <circle
       cx="-9.986"
       cy="8.265"
       r=".728"
       fill="#ffffff"
       stroke="#a16748"
       stroke-linecap="round"
       stroke-linejoin="round"
       stroke-width=".265"
       filter="url(#k)"
       id="circle36" />
    <circle
       cx="-9.986"
       cy="8.265"
       r=".728"
       fill="#ffffff"
       id="circle37" />
    <path
       fill="#ffffff"
       d="M-9.985 7.537a.73.73 0 0 0-.728.728.73.73 0 0 0 .728.728.73.73 0 0 0 .727-.728.73.73 0 0 0-.727-.728m.06.179a.61.61 0 0 1 .61.61.61.61 0 0 1-.61.609.61.61 0 0 1-.61-.61.61.61 0 0 1 .61-.61"
       filter="url(#j)"
       id="path37" />
  </g>
  <g
     transform="translate(20.513,4.098)"
     id="g39"
     style="display:inline">
    <circle
       cx="-9.9860001"
       cy="8.2650003"
       r="0.72799999"
       fill="#ffffff"
       stroke="#a16748"
       stroke-linecap="round"
       stroke-linejoin="round"
       stroke-width="0.265"
       filter="url(#l)"
       id="circle38" />
    <circle
       cx="-9.9860001"
       cy="8.2650003"
       r="0.72799999"
       fill="#f0e3dd"
       id="circle39" />
    <path
       fill="#ffffff"
       d="m -9.985,7.537 a 0.73,0.73 0 0 0 -0.728,0.728 0.73,0.73 0 0 0 0.728,0.728 0.73,0.73 0 0 0 0.727,-0.728 0.73,0.73 0 0 0 -0.727,-0.728 m 0.06,0.179 a 0.61,0.61 0 0 1 0.61,0.61 0.61,0.61 0 0 1 -0.61,0.609 0.61,0.61 0 0 1 -0.61,-0.61 0.61,0.61 0 0 1 0.61,-0.61"
       filter="url(#j)"
       id="path39" />
  </g>
  <path
     fill="url(#m)"
     d="M5.82 2.91c-.586 0-1.058.472-1.058 1.059v8.995c0 .587.472 1.059 1.059 1.059h5.291c.587 0 1.059-.472 1.059-1.059V3.97c0-.587-.472-1.059-1.059-1.059zm0 .133h5.291c.515 0 .928.41.928.926v8.996a.92.92 0 0 1-.928.926h-5.29a.92.92 0 0 1-.926-.926V3.969a.92.92 0 0 1 .925-.926"
     filter="url(#n)"
     id="path40" />
  <rect
     x="1.0689273"
     y="1.1292446"
     width="14.969154"
     height="14.653889"
     rx="3.4753249"
     ry="3.4021311"
     fill="url(#a)"
     id="rect63"
     style="display:inline;opacity:0.510917;fill:url(#a-3);stroke-width:0.999576" />
  <g
     filter="url(#c)"
     opacity=".35"
     id="g12"
     style="opacity:0.54371;filter:url(#c-3)"
     transform="matrix(1.0102688,0,0,1.0005181,-0.08780839,-0.03973468)">
    <path
       fill="url(#d)"
       d="m 5.36,1.058 c -1.53,0 -2.577,0.457 -3.26,1.2 -0.678,0.74 -1.042,1.8 -1.042,3.001 v 6.415 c 0,1.2 0.364,2.26 1.043,3 0.682,0.744 1.73,1.2 3.26,1.2 h 6.23 c 1.53,0 2.577,-0.456 3.26,-1.2 0.678,-0.739 1.024,-1.702 1.024,-3 V 5.5 c 0,-1.57 -0.346,-2.502 -1.024,-3.242 -0.683,-0.743 -1.73,-1.2 -3.26,-1.2 H 6.745 Z m 0,0.264 h 6.232 c 1.477,0 2.437,0.432 3.064,1.116 0.634,0.69 0.954,1.53 0.954,3.062 v 6.174 c 0,1.251 -0.322,2.134 -0.954,2.822 -0.627,0.684 -1.587,1.114 -3.064,1.114 H 5.359 C 3.882,15.61 2.922,15.18 2.295,14.496 1.67,13.814 1.322,12.821 1.322,11.674 V 5.26 C 1.322,4.112 1.67,3.12 2.295,2.438 2.922,1.754 3.882,1.322 5.359,1.322"
       id="path11-3"
       style="fill:url(#d-0)" />
    <path
       fill="url(#e)"
       d="m 5.36,1.058 c -1.53,0 -2.577,0.457 -3.26,1.2 -0.678,0.74 -1.042,1.8 -1.042,3.001 v 6.415 c 0,1.2 0.364,2.26 1.043,3 0.682,0.744 1.73,1.2 3.26,1.2 h 6.23 c 1.53,0 2.577,-0.456 3.26,-1.2 0.678,-0.739 1.024,-1.702 1.024,-3 V 5.5 c 0,-1.57 -0.346,-2.502 -1.024,-3.242 -0.683,-0.743 -1.73,-1.2 -3.26,-1.2 H 6.745 Z m 0,0.264 h 6.232 c 1.477,0 2.437,0.432 3.064,1.116 0.634,0.69 0.954,1.53 0.954,3.062 v 6.174 c 0,1.251 -0.322,2.134 -0.954,2.822 -0.627,0.684 -1.587,1.114 -3.064,1.114 H 5.359 C 3.882,15.61 2.922,15.18 2.295,14.496 1.67,13.814 1.322,12.821 1.322,11.674 V 5.26 C 1.322,4.112 1.67,3.12 2.295,2.438 2.922,1.754 3.882,1.322 5.359,1.322"
       id="path12-6"
       style="fill:url(#e-6)" />
  </g>
</svg>
