<?xml version="1.0" encoding="UTF-8" standalone="no"?>
<svg
   width="64"
   height="64"
   version="1.1"
   id="svg13"
   sodipodi:docname="calendar.svg"
   inkscape:version="1.4.2 (ebf0e940d0, 2025-05-08)"
   xmlns:inkscape="http://www.inkscape.org/namespaces/inkscape"
   xmlns:sodipodi="http://sodipodi.sourceforge.net/DTD/sodipodi-0.dtd"
   xmlns:xlink="http://www.w3.org/1999/xlink"
   xmlns="http://www.w3.org/2000/svg"
   xmlns:svg="http://www.w3.org/2000/svg">
  <sodipodi:namedview
     id="namedview13"
     pagecolor="#ffffff"
     bordercolor="#000000"
     borderopacity="0.25"
     inkscape:showpageshadow="2"
     inkscape:pageopacity="0.0"
     inkscape:pagecheckerboard="0"
     inkscape:deskcolor="#d1d1d1"
     inkscape:zoom="13.390625"
     inkscape:cx="32.03734"
     inkscape:cy="31.925321"
     inkscape:window-width="1920"
     inkscape:window-height="1047"
     inkscape:window-x="0"
     inkscape:window-y="0"
     inkscape:window-maximized="1"
     inkscape:current-layer="svg13" />
  <defs
     id="defs6">
    <filter
       id="b"
       width="1.0239725"
       height="1.0239741"
       x="-0.011986232"
       y="-0.011987041"
       color-interpolation-filters="sRGB">
      <feGaussianBlur
         stdDeviation=".074"
         id="feGaussianBlur1" />
    </filter>
    <filter
       id="c"
       width="1.2107058"
       height="1.4870665"
       x="-0.10535291"
       y="-0.24353327"
       color-interpolation-filters="sRGB">
      <feGaussianBlur
         stdDeviation=".834"
         id="feGaussianBlur2" />
    </filter>
    <filter
       id="e"
       width="1.1246837"
       height="1.0407567"
       x="-0.062341859"
       y="-0.020378355"
       color-interpolation-filters="sRGB">
      <feGaussianBlur
         stdDeviation=".193"
         id="feGaussianBlur3" />
    </filter>
    <linearGradient
       id="a"
       x1="8.466"
       x2="8.466"
       y1="1.058"
       y2="15.875"
       gradientTransform="matrix(3.8048016,0,0,3.8249628,-0.02667111,-0.72012002)"
       gradientUnits="userSpaceOnUse">
      <stop
         offset="0"
         stop-color="#ffffff"
         id="stop3" />
      <stop
         offset="1"
         stop-color="#ffffff"
         id="stop4" />
    </linearGradient>
    <linearGradient
       id="d"
       x1="30.875"
       x2="30.875"
       y1="26.166"
       y2="49.821"
       gradientUnits="userSpaceOnUse">
      <stop
         offset="0"
         id="stop5" />
      <stop
         offset="1"
         stop-opacity=".75"
         id="stop6" />
    </linearGradient>
    <linearGradient
       id="a-3"
       x1="7.9369998"
       x2="7.9369998"
       y1="15.081"
       y2="1.852"
       gradientUnits="userSpaceOnUse"
       gradientTransform="matrix(3.7342411,0,0,3.7090405,1.0491728,-0.22238044)">
      <stop
         stop-color="#ffffff"
         offset="0"
         id="stop62"
         style="stop-color:#666666;stop-opacity:1;" />
      <stop
         stop-color="#ffffff"
         offset="1"
         id="stop63" />
    </linearGradient>
    <filter
       id="c-3"
       width="1.0239725"
       height="1.0239741"
       x="-0.011986232"
       y="-0.011987041"
       color-interpolation-filters="sRGB">
      <feGaussianBlur
         stdDeviation=".074"
         id="feGaussianBlur8" />
    </filter>
    <linearGradient
       xlink:href="#a-6"
       id="d-6"
       x1="2.598"
       x2="10.583"
       y1="2.836"
       y2="11.312"
       gradientUnits="userSpaceOnUse" />
    <linearGradient
       id="a-6">
      <stop
         offset="0"
         stop-color="#ffffff"
         id="stop1-7" />
      <stop
         offset="1"
         stop-color="#ffffff"
         stop-opacity="0"
         id="stop2-5" />
    </linearGradient>
    <linearGradient
       xlink:href="#a-6"
       id="e-1"
       x1="15.081"
       x2="12.7"
       y1="14.816"
       y2="12.171"
       gradientUnits="userSpaceOnUse" />
  </defs>
  <path
     fill="url(#a)"
     d="m 20.368418,3.327888 c -5.820553,0 -9.807964,1.7457034 -12.4031536,4.5894291 C 5.3831615,10.746875 4,14.803991 4,19.394432 V 43.933456 C 4,48.525921 5.3831615,52.581013 7.9652644,55.410571 10.560454,58.254297 14.548872,60 20.368418,60 h 23.70602 c 5.820553,0 9.807964,-1.744691 12.403153,-4.589429 2.582103,-2.828546 3.895805,-6.512233 3.895805,-11.476103 V 20.315354 c 0,-6.006232 -1.313702,-9.569491 -3.895805,-12.3990489 C 53.882402,5.0735914 49.893984,3.327888 44.074438,3.327888 H 25.637317 Z"
     id="path6"
     style="display:none;fill:url(#a);stroke-width:1.00933" />
  <path
     fill="#ffffff"
     d="m 5.36,1.058 c -1.53,0 -2.577,0.457 -3.26,1.2 -0.678,0.74 -1.042,1.8 -1.042,3.001 v 6.415 c 0,1.2 0.364,2.26 1.043,3 0.682,0.744 1.73,1.2 3.26,1.2 h 6.23 c 1.53,0 2.577,-0.456 3.26,-1.2 0.678,-0.739 1.024,-1.702 1.024,-3 V 5.5 c 0,-1.57 -0.346,-2.502 -1.024,-3.242 -0.683,-0.743 -1.73,-1.2 -3.26,-1.2 H 6.745 Z m 0,0.264 h 6.232 c 1.477,0 2.437,0.432 3.064,1.116 0.634,0.69 0.954,1.53 0.954,3.062 v 6.174 c 0,1.251 -0.322,2.134 -0.954,2.822 -0.627,0.684 -1.587,1.114 -3.064,1.114 H 5.359 C 3.882,15.61 2.922,15.18 2.295,14.496 1.67,13.814 1.322,12.821 1.322,11.674 V 5.26 C 1.322,4.112 1.67,3.12 2.295,2.438 2.922,1.754 3.882,1.322 5.359,1.322"
     filter="url(#b)"
     transform="scale(3.7796)"
     id="path7"
     style="display:none" />
  <path
     fill="#dbbdae"
     d="m 23,14.611 v -1.222 h 6.442 v 1.222 h -2.493 v 6.871 h -1.45 v -6.871 z m 8.903,6.947 q -0.94,0 -1.51,-0.597 -0.57,-0.598 -0.57,-1.69 V 15.41 h 1.411 v 3.645 q 0,0.608 0.315,0.956 0.32,0.348 0.875,0.348 0.565,0 0.929,-0.364 0.364,-0.364 0.364,-1.027 V 15.41 h 1.417 v 6.073 h -1.341 l -0.011,-1.217 q -0.543,1.293 -1.88,1.293 m 7.414,0.049 q -0.918,0 -1.58,-0.386 -0.658,-0.385 -1.016,-1.086 -0.354,-0.7 -0.354,-1.651 0,-0.934 0.348,-1.64 0.353,-0.712 0.994,-1.109 0.646,-0.402 1.515,-0.402 0.74,0 1.37,0.326 0.635,0.32 1.02,1 0.386,0.673 0.386,1.738 v 0.445 h -4.226 q 0.027,0.81 0.451,1.233 0.43,0.424 1.108,0.424 0.467,0 0.799,-0.201 0.336,-0.201 0.478,-0.587 l 1.298,0.266 q -0.217,0.734 -0.902,1.185 -0.679,0.445 -1.69,0.445 m -1.537,-3.726 h 2.846 q -0.065,-0.652 -0.418,-1.043 -0.348,-0.397 -0.978,-0.397 -0.647,0 -1.027,0.419 -0.375,0.413 -0.423,1.02"
     aria-label="Tue"
     filter="url(#c)"
     opacity="0.25"
     id="path8"
     style="display:none" />
  <path
     fill="#dbbdae"
     stroke="#ffffff"
     stroke-linecap="round"
     stroke-linejoin="round"
     stroke-width="0.2"
     d="M 22.5,14.222 V 13 h 6.442 v 1.222 h -2.493 v 6.871 h -1.45 v -6.871 z m 8.903,6.947 q -0.94,0 -1.51,-0.597 -0.57,-0.598 -0.57,-1.69 V 15.02 h 1.411 v 3.645 q 0,0.608 0.315,0.956 0.32,0.348 0.875,0.348 0.565,0 0.929,-0.364 0.364,-0.364 0.364,-1.027 V 15.02 h 1.417 v 6.073 h -1.341 l -0.011,-1.217 q -0.543,1.293 -1.88,1.293 m 7.414,0.049 q -0.918,0 -1.58,-0.386 -0.658,-0.385 -1.016,-1.086 -0.354,-0.7 -0.354,-1.651 0,-0.934 0.348,-1.64 0.353,-0.712 0.994,-1.109 0.646,-0.402 1.515,-0.402 0.74,0 1.37,0.326 0.635,0.32 1.02,1 0.386,0.673 0.386,1.738 v 0.445 h -4.226 q 0.027,0.81 0.451,1.233 0.43,0.424 1.108,0.424 0.467,0 0.799,-0.201 0.336,-0.201 0.478,-0.587 l 1.298,0.266 q -0.217,0.734 -0.902,1.185 -0.679,0.445 -1.69,0.445 m -1.537,-3.726 h 2.846 q -0.065,-0.652 -0.418,-1.043 -0.348,-0.397 -0.978,-0.397 -0.647,0 -1.027,0.419 -0.375,0.413 -0.423,1.02"
     aria-label="Tue"
     id="path9"
     style="display:none" />
  <path
     fill="#dbbdae"
     d="M 22.5,14.222 V 13 h 6.442 v 1.222 h -2.493 v 6.871 h -1.45 v -6.871 z m 8.903,6.947 q -0.94,0 -1.51,-0.597 -0.57,-0.598 -0.57,-1.69 V 15.02 h 1.411 v 3.645 q 0,0.608 0.315,0.956 0.32,0.348 0.875,0.348 0.565,0 0.929,-0.364 0.364,-0.364 0.364,-1.027 V 15.02 h 1.417 v 6.073 h -1.341 l -0.011,-1.217 q -0.543,1.293 -1.88,1.293 m 7.414,0.049 q -0.918,0 -1.58,-0.386 -0.658,-0.385 -1.016,-1.086 -0.354,-0.7 -0.354,-1.651 0,-0.934 0.348,-1.64 0.353,-0.712 0.994,-1.109 0.646,-0.402 1.515,-0.402 0.74,0 1.37,0.326 0.635,0.32 1.02,1 0.386,0.673 0.386,1.738 v 0.445 h -4.226 q 0.027,0.81 0.451,1.233 0.43,0.424 1.108,0.424 0.467,0 0.799,-0.201 0.336,-0.201 0.478,-0.587 l 1.298,0.266 q -0.217,0.734 -0.902,1.185 -0.679,0.445 -1.69,0.445 m -1.537,-3.726 h 2.846 q -0.065,-0.652 -0.418,-1.043 -0.348,-0.397 -0.978,-0.397 -0.647,0 -1.027,0.419 -0.375,0.413 -0.423,1.02"
     aria-label="Tue"
     id="path10"
     style="display:inline" />
  <path
     fill="#af704e"
     stroke="#ffffff"
     stroke-linecap="round"
     stroke-linejoin="round"
     stroke-width="0.7"
     d="M 35.241,25.978 V 50.007 H 32.896 V 28.222 l -0.014,0.01 -6.37,4.9 v -2.58 L 32.5,25.977 Z"
     aria-label="1"
     id="path11"
     style="display:inline" />
  <path
     fill="#c08c71"
     stroke="#633f2c"
     stroke-linecap="round"
     stroke-linejoin="round"
     stroke-width="0.3"
     d="M 35.241,25.978 V 50.007 H 32.896 V 28.222 l -0.014,0.01 -6.37,4.9 v -2.58 L 32.5,25.977 Z"
     aria-label="1"
     id="path12"
     style="display:inline" />
  <path
     fill="url(#d)"
     d="m 32.719,26.629 -5.559,4.246 v 0.94 l 5.327,-4.098 0.029,-0.022 0.014,-0.01 a 0.65,0.65 0 0 1 1.015,0.538 v 21.135 h 1.045 v -22.73 z"
     filter="url(#e)"
     id="path13"
     style="display:inline" />
  <rect
     x="5"
     y="3.6721122"
     width="55.330254"
     height="54.95686"
     rx="12.84579"
     ry="12.7591"
     fill="url(#a)"
     id="rect63"
     style="display:inline;opacity:0.498652;fill:url(#a-3);stroke-width:3.72162" />
  <g
     filter="url(#c)"
     opacity=".35"
     id="g12"
     style="opacity:0.54371;filter:url(#c-3)"
     transform="matrix(3.779602,0,0,3.779602,0.672438,-1.3275616)">
    <path
       fill="url(#d)"
       d="m 5.36,1.058 c -1.53,0 -2.577,0.457 -3.26,1.2 -0.678,0.74 -1.042,1.8 -1.042,3.001 v 6.415 c 0,1.2 0.364,2.26 1.043,3 0.682,0.744 1.73,1.2 3.26,1.2 h 6.23 c 1.53,0 2.577,-0.456 3.26,-1.2 0.678,-0.739 1.024,-1.702 1.024,-3 V 5.5 c 0,-1.57 -0.346,-2.502 -1.024,-3.242 -0.683,-0.743 -1.73,-1.2 -3.26,-1.2 H 6.745 Z m 0,0.264 h 6.232 c 1.477,0 2.437,0.432 3.064,1.116 0.634,0.69 0.954,1.53 0.954,3.062 v 6.174 c 0,1.251 -0.322,2.134 -0.954,2.822 -0.627,0.684 -1.587,1.114 -3.064,1.114 H 5.359 C 3.882,15.61 2.922,15.18 2.295,14.496 1.67,13.814 1.322,12.821 1.322,11.674 V 5.26 C 1.322,4.112 1.67,3.12 2.295,2.438 2.922,1.754 3.882,1.322 5.359,1.322"
       id="path11-8"
       style="fill:url(#d-6)" />
    <path
       fill="url(#e)"
       d="m 5.36,1.058 c -1.53,0 -2.577,0.457 -3.26,1.2 -0.678,0.74 -1.042,1.8 -1.042,3.001 v 6.415 c 0,1.2 0.364,2.26 1.043,3 0.682,0.744 1.73,1.2 3.26,1.2 h 6.23 c 1.53,0 2.577,-0.456 3.26,-1.2 0.678,-0.739 1.024,-1.702 1.024,-3 V 5.5 c 0,-1.57 -0.346,-2.502 -1.024,-3.242 -0.683,-0.743 -1.73,-1.2 -3.26,-1.2 H 6.745 Z m 0,0.264 h 6.232 c 1.477,0 2.437,0.432 3.064,1.116 0.634,0.69 0.954,1.53 0.954,3.062 v 6.174 c 0,1.251 -0.322,2.134 -0.954,2.822 -0.627,0.684 -1.587,1.114 -3.064,1.114 H 5.359 C 3.882,15.61 2.922,15.18 2.295,14.496 1.67,13.814 1.322,12.821 1.322,11.674 V 5.26 C 1.322,4.112 1.67,3.12 2.295,2.438 2.922,1.754 3.882,1.322 5.359,1.322"
       id="path12-7"
       style="fill:url(#e-1)" />
  </g>
</svg>
