<?xml version="1.0" encoding="UTF-8" standalone="no"?>
<svg
   width="64"
   height="64"
   version="1.1"
   viewBox="0 0 16.933 16.933"
   id="svg21"
   sodipodi:docname="cheese.svg"
   inkscape:version="1.4.2 (ebf0e940d0, 2025-05-08)"
   xmlns:inkscape="http://www.inkscape.org/namespaces/inkscape"
   xmlns:sodipodi="http://sodipodi.sourceforge.net/DTD/sodipodi-0.dtd"
   xmlns:xlink="http://www.w3.org/1999/xlink"
   xmlns="http://www.w3.org/2000/svg"
   xmlns:svg="http://www.w3.org/2000/svg">
  <sodipodi:namedview
     id="namedview21"
     pagecolor="#ffffff"
     bordercolor="#000000"
     borderopacity="0.25"
     inkscape:showpageshadow="2"
     inkscape:pageopacity="0.0"
     inkscape:pagecheckerboard="0"
     inkscape:deskcolor="#d1d1d1"
     inkscape:zoom="13.390625"
     inkscape:cx="31.96266"
     inkscape:cy="32"
     inkscape:window-width="1920"
     inkscape:window-height="1047"
     inkscape:window-x="0"
     inkscape:window-y="0"
     inkscape:window-maximized="1"
     inkscape:current-layer="svg21" />
  <defs
     id="defs11">
    <linearGradient
       id="linearGradient38">
      <stop
         stop-color="#ffffff"
         offset="0"
         id="stop1" />
      <stop
         stop-color="#ffffff"
         stop-opacity="0"
         offset="1"
         id="stop2" />
    </linearGradient>
    <filter
       id="filter38"
       x="-0.01199998"
       y="-0.01199998"
       width="1.024"
       height="1.024"
       color-interpolation-filters="sRGB">
      <feGaussianBlur
         stdDeviation="0.074081873"
         id="feGaussianBlur2" />
    </filter>
    <linearGradient
       id="linearGradient37"
       x1="15.081"
       x2="12.7"
       y1="14.816"
       y2="12.171"
       gradientUnits="userSpaceOnUse">
      <stop
         stop-color="#ffffff"
         offset="0"
         id="stop3" />
      <stop
         stop-color="#ffffff"
         stop-opacity="0"
         offset="1"
         id="stop4" />
    </linearGradient>
    <linearGradient
       id="linearGradient36"
       x1="6.7452"
       x2="10.583"
       y1="1.0583"
       y2="11.312"
       gradientUnits="userSpaceOnUse">
      <stop
         stop-color="#ffffff"
         offset="0"
         id="stop5" />
      <stop
         stop-color="#ffffff"
         stop-opacity="0"
         offset="1"
         id="stop6" />
    </linearGradient>
    <linearGradient
       id="linearGradient3"
       x1="8.4665"
       x2="8.4665"
       y1="1.0583"
       y2="15.875"
       gradientUnits="userSpaceOnUse">
      <stop
         stop-color="#c99d86"
         offset="0"
         id="stop7" />
      <stop
         stop-color="#c08c71"
         offset="1"
         id="stop8" />
    </linearGradient>
    <linearGradient
       id="linearGradient31"
       x1="8.4665"
       x2="8.4665"
       y1="3.4395"
       y2="6.3499"
       gradientUnits="userSpaceOnUse">
      <stop
         stop-color="#633f2c"
         offset="0"
         id="stop9" />
      <stop
         stop-color="#633f2c"
         stop-opacity="0"
         offset="1"
         id="stop10" />
    </linearGradient>
    <filter
       id="filter34"
       x="-0.086718749"
       y="-0.066071317"
       width="1.1734375"
       height="1.1321426"
       color-interpolation-filters="sRGB">
      <feGaussianBlur
         stdDeviation="0.30591846"
         id="feGaussianBlur10" />
    </filter>
    <linearGradient
       id="linearGradient39"
       x1="5.5567"
       x2="7.8777"
       y1="8.467"
       y2="11.942"
       gradientUnits="userSpaceOnUse"
       xlink:href="#linearGradient38" />
    <filter
       id="filter39"
       x="-0.010221925"
       y="-0.019403612"
       width="1.0204438"
       height="1.0388072"
       color-interpolation-filters="sRGB">
      <feGaussianBlur
         stdDeviation="0.030427775"
         id="feGaussianBlur11" />
    </filter>
    <linearGradient
       id="linearGradient40"
       x1="4.2333"
       x2="6.0396"
       y1="10.524"
       y2="10.524"
       gradientTransform="translate(0 -5.7615)"
       gradientUnits="userSpaceOnUse"
       xlink:href="#linearGradient38" />
    <filter
       id="c-3"
       width="1.0239725"
       height="1.0239741"
       x="-0.011986232"
       y="-0.011987041"
       color-interpolation-filters="sRGB">
      <feGaussianBlur
         stdDeviation=".074"
         id="feGaussianBlur8" />
    </filter>
    <linearGradient
       xlink:href="#linearGradient38"
       id="d"
       x1="2.598"
       x2="10.583"
       y1="2.836"
       y2="11.312"
       gradientUnits="userSpaceOnUse" />
    <linearGradient
       xlink:href="#linearGradient38"
       id="e"
       x1="15.081"
       x2="12.7"
       y1="14.816"
       y2="12.171"
       gradientUnits="userSpaceOnUse" />
    <linearGradient
       id="a-3"
       x1="7.9369998"
       x2="7.9369998"
       y1="15.081"
       y2="1.852"
       gradientUnits="userSpaceOnUse"
       gradientTransform="matrix(1.0039067,0,0,0.99942196,-0.03551221,-0.03673866)">
      <stop
         stop-color="#ffffff"
         offset="0"
         id="stop62"
         style="stop-color:#666666;stop-opacity:1;" />
      <stop
         stop-color="#ffffff"
         offset="1"
         id="stop63" />
    </linearGradient>
  </defs>
  <path
     d="M 5.3604,1.0584 C 3.8306,1.0584 2.7827,1.51461 2.1005,2.2582 1.42183,2.99801 1.0584,4.0583 1.0584,5.2588 v 6.4155 c 0,1.2006 0.36337,2.2609 1.0421,3.0006 0.68219,0.74354 1.7301,1.1998 3.2599,1.1998 h 6.2306 c 1.5298,0 2.5777,-0.45621 3.2599,-1.1998 0.67867,-0.73981 1.024,-1.7026 1.024,-3.0006 V 5.4998 c 0,-1.5703 -0.34528,-2.5019 -1.024,-3.2416 C 14.16871,1.51466 13.1208,1.0584 11.591,1.0584 H 6.7453 Z"
     fill="url(#linearGradient3)"
     id="path11"
     style="display:inline;opacity:0.4995614" />
  <path
     d="m 4.2332,3.1749 v 9.7894 c 0,0.73288 0.59001,1.3229 1.3229,1.3229 h 5.8207 c 0.73288,0 1.3229,-0.59001 1.3229,-1.3229 V 3.1749 Z"
     fill="#633f2c"
     filter="url(#filter34)"
     opacity="0.15"
     id="path14"
     style="display:inline" />
  <rect
     x="2.9104"
     y="2.9104"
     width="11.112"
     height="1.852"
     rx=".92602"
     ry=".92602"
     fill="#633f2c"
     id="rect14" />
  <path
     d="m4.2332 2.9104v9.7894c0 0.73288 0.59001 1.3229 1.3229 1.3229h5.8207c0.73288 0 1.3229-0.59001 1.3229-1.3229v-9.7894z"
     fill="#ffffff"
     id="path15" />
  <path
     d="m4.8074 2.9104c-0.029046 0.082686-0.044958 0.17172-0.044958 0.26458v3.7041c0 0.43973 0.35401 0.79373 0.79373 0.79373h5.8207c0.43973 0 0.79374-0.35401 0.79374-0.79373v-3.7041c0-0.092857-0.015912-0.18189-0.044958-0.26458h-7.3183z"
     fill="#ffffff"
     id="path16" />
  <path
     d="m8.0531 2.9104c-0.48546 0.19401-0.83183 0.70586-0.83146 1.3069-4.799e-4 0.76779 0.56533 1.3906 1.2635 1.3906 0.6978 0 1.2635-0.62213 1.2635-1.3896 3.754e-4 -0.60161-0.34679-1.1142-0.83301-1.3079h-0.86246zm0.43201 3.1553c-1.3627 0-2.5237 0.84046-2.7698 1.6071h5.5024c-0.23283-0.82638-1.4187-1.6071-2.7326-1.6071z"
     fill="#c89c84"
     stroke-width=".955"
     id="path17" />
  <path
     d="m4.8947 3.8364v3.1016c0 0.36873 0.29323 0.66196 0.66196 0.66196h5.8202c0.36873 0 0.66196-0.29323 0.66196-0.66196v-3.1016h-0.1328v3.1016c0 0.29859-0.23056 0.52916-0.52916 0.52916h-5.8202c-0.29859 0-0.52916-0.23056-0.52916-0.52916v-3.1016h-0.13281z"
     fill="url(#linearGradient40)"
     filter="url(#filter39)"
     stop-color="#633f2c"
     stroke-linecap="round"
     stroke-linejoin="round"
     id="path18" />
  <path
     d="m4.2332 2.9104v9.7894c0 0.73288 0.59001 1.3229 1.3229 1.3229h5.8207c0.73288 0 1.3229-0.59001 1.3229-1.3229v-9.7894z"
     fill="url(#linearGradient31)"
     id="path19" />
  <rect
     x="4.7624"
     y="8.2019"
     width="7.4082"
     height="5.2916"
     rx=".79373"
     ry=".79373"
     fill="#ffffff"
     id="rect19" />
  <path
     d="m8.4851 8.6479c-0.69813-2e-7 -1.2639 0.62228-1.2635 1.3901-4.799e-4 0.76779 0.56533 1.3906 1.2635 1.3906 0.6978 0 1.2635-0.62214 1.2635-1.3896 4.79e-4 -0.76779-0.56533-1.3906-1.2635-1.3906zm0 3.2385c-1.3627 0-2.5237 0.84046-2.7698 1.6071h5.5024c-0.23283-0.82638-1.4187-1.6071-2.7326-1.6071z"
     fill="#c89c84"
     stroke-width=".955"
     id="path20" />
  <path
     d="m5.5567 8.3342c-0.36873 0-0.66196 0.29323-0.66196 0.66196v3.7031c0 0.36873 0.29323 0.66196 0.66196 0.66196h5.8202c0.36873 0 0.66196-0.29323 0.66196-0.66196v-3.7031c0-0.36873-0.29323-0.66196-0.66196-0.66196h-5.8202zm0 0.13281h5.8202c0.29859 0 0.52916 0.23056 0.52916 0.52916v3.7031c0 0.29859-0.23056 0.52916-0.52916 0.52916h-5.8202c-0.29859 0-0.52916-0.23056-0.52916-0.52916v-3.7031c0-0.29859 0.23056-0.52916 0.52916-0.52916z"
     fill="url(#linearGradient39)"
     filter="url(#filter39)"
     stop-color="#633f2c"
     stroke-linecap="round"
     stroke-linejoin="round"
     id="path21" />
  <rect
     x="1.0266212"
     y="1.0126543"
     width="14.874887"
     height="14.808436"
     rx="3.4534395"
     ry="3.4380116"
     fill="url(#a)"
     id="rect63"
     style="display:inline;opacity:0.510917;fill:url(#a-3);stroke-width:1.00166" />
  <g
     filter="url(#c)"
     opacity=".35"
     id="g12"
     style="opacity:0.54371;filter:url(#c-3)"
     transform="matrix(1.0039068,0,0,1.0110702,-0.12283009,-0.16865363)">
    <path
       fill="url(#d)"
       d="m 5.36,1.058 c -1.53,0 -2.577,0.457 -3.26,1.2 -0.678,0.74 -1.042,1.8 -1.042,3.001 v 6.415 c 0,1.2 0.364,2.26 1.043,3 0.682,0.744 1.73,1.2 3.26,1.2 h 6.23 c 1.53,0 2.577,-0.456 3.26,-1.2 0.678,-0.739 1.024,-1.702 1.024,-3 V 5.5 c 0,-1.57 -0.346,-2.502 -1.024,-3.242 -0.683,-0.743 -1.73,-1.2 -3.26,-1.2 H 6.745 Z m 0,0.264 h 6.232 c 1.477,0 2.437,0.432 3.064,1.116 0.634,0.69 0.954,1.53 0.954,3.062 v 6.174 c 0,1.251 -0.322,2.134 -0.954,2.822 -0.627,0.684 -1.587,1.114 -3.064,1.114 H 5.359 C 3.882,15.61 2.922,15.18 2.295,14.496 1.67,13.814 1.322,12.821 1.322,11.674 V 5.26 C 1.322,4.112 1.67,3.12 2.295,2.438 2.922,1.754 3.882,1.322 5.359,1.322"
       id="path11-3"
       style="fill:url(#d)" />
    <path
       fill="url(#e)"
       d="m 5.36,1.058 c -1.53,0 -2.577,0.457 -3.26,1.2 -0.678,0.74 -1.042,1.8 -1.042,3.001 v 6.415 c 0,1.2 0.364,2.26 1.043,3 0.682,0.744 1.73,1.2 3.26,1.2 h 6.23 c 1.53,0 2.577,-0.456 3.26,-1.2 0.678,-0.739 1.024,-1.702 1.024,-3 V 5.5 c 0,-1.57 -0.346,-2.502 -1.024,-3.242 -0.683,-0.743 -1.73,-1.2 -3.26,-1.2 H 6.745 Z m 0,0.264 h 6.232 c 1.477,0 2.437,0.432 3.064,1.116 0.634,0.69 0.954,1.53 0.954,3.062 v 6.174 c 0,1.251 -0.322,2.134 -0.954,2.822 -0.627,0.684 -1.587,1.114 -3.064,1.114 H 5.359 C 3.882,15.61 2.922,15.18 2.295,14.496 1.67,13.814 1.322,12.821 1.322,11.674 V 5.26 C 1.322,4.112 1.67,3.12 2.295,2.438 2.922,1.754 3.882,1.322 5.359,1.322"
       id="path12-6"
       style="fill:url(#e)" />
  </g>
</svg>
