<?xml version="1.0" encoding="UTF-8" standalone="no"?>
<svg
   width="64"
   height="64"
   version="1.1"
   viewBox="0 0 16.933 16.933"
   id="svg90"
   sodipodi:docname="drive-removable-media.svg"
   inkscape:version="1.4.2 (ebf0e940d0, 2025-05-08)"
   xmlns:inkscape="http://www.inkscape.org/namespaces/inkscape"
   xmlns:sodipodi="http://sodipodi.sourceforge.net/DTD/sodipodi-0.dtd"
   xmlns:xlink="http://www.w3.org/1999/xlink"
   xmlns="http://www.w3.org/2000/svg"
   xmlns:svg="http://www.w3.org/2000/svg">
  <sodipodi:namedview
     id="namedview90"
     pagecolor="#ffffff"
     bordercolor="#000000"
     borderopacity="0.25"
     inkscape:showpageshadow="2"
     inkscape:pageopacity="0.0"
     inkscape:pagecheckerboard="0"
     inkscape:deskcolor="#d1d1d1"
     inkscape:zoom="13.40625"
     inkscape:cx="32.074592"
     inkscape:cy="31.962704"
     inkscape:window-width="1920"
     inkscape:window-height="1047"
     inkscape:window-x="0"
     inkscape:window-y="0"
     inkscape:window-maximized="1"
     inkscape:current-layer="svg90" />
  <defs
     id="defs42">
    <linearGradient
       id="linearGradient1437">
      <stop
         stop-color="#bea58f"
         offset="0"
         id="stop1" />
      <stop
         stop-color="#c7b19e"
         offset=".056041"
         id="stop2" />
      <stop
         stop-color="#b19276"
         offset=".11456"
         id="stop3" />
      <stop
         stop-color="#bda38c"
         offset=".50498"
         id="stop4" />
      <stop
         stop-color="#a37e5e"
         offset=".91543"
         id="stop5" />
      <stop
         stop-color="#c9b3a0"
         offset=".96193"
         id="stop6" />
      <stop
         stop-color="#d1beae"
         offset="1"
         id="stop7" />
    </linearGradient>
    <linearGradient
       id="linearGradient862"
       x1="7.9373"
       x2="7.9373"
       y1="15.081"
       y2="1.852"
       gradientTransform="matrix(.93463 0 0 .93463 .5535 .55295)"
       gradientUnits="userSpaceOnUse">
      <stop
         stop-color="#ffffff"
         offset="0"
         id="stop8" />
      <stop
         stop-color="#ffffff"
         offset="1"
         id="stop9" />
    </linearGradient>
    <linearGradient
       id="linearGradient4577"
       x1="-27.125"
       x2="1.125"
       y1="62.125"
       y2="62.125"
       gradientUnits="userSpaceOnUse">
      <stop
         stop-color="#f4f0ed"
         offset="0"
         id="stop10" />
      <stop
         stop-color="#957356"
         offset=".15143"
         id="stop11" />
      <stop
         stop-color="#ffffff"
         offset=".61194"
         id="stop12" />
      <stop
         stop-color="#c7b19e"
         offset=".86567"
         id="stop13" />
      <stop
         stop-color="#ffffff"
         offset="1"
         id="stop14" />
    </linearGradient>
    <linearGradient
       id="linearGradient4591"
       x1="-12.905"
       x2="-12.905"
       y1="1016.9"
       y2="999.65"
       gradientUnits="userSpaceOnUse">
      <stop
         stop-color="#d7c8ba"
         offset="0"
         id="stop15" />
      <stop
         stop-color="#ffffff"
         offset="1"
         id="stop16" />
    </linearGradient>
    <linearGradient
       id="linearGradient4346"
       x1="120.59"
       x2="118.64"
       y1="137.54"
       y2="139.07"
       gradientTransform="translate(-46.262)"
       gradientUnits="userSpaceOnUse"
       xlink:href="#linearGradient4340" />
    <linearGradient
       id="linearGradient4340">
      <stop
         offset="0"
         id="stop17" />
      <stop
         stop-color="#5f4936"
         offset="1"
         id="stop18" />
    </linearGradient>
    <linearGradient
       id="linearGradient4352"
       x1="120.59"
       x2="118.64"
       y1="137.54"
       y2="139.07"
       gradientTransform="translate(-39.989)"
       gradientUnits="userSpaceOnUse"
       xlink:href="#linearGradient4340" />
    <linearGradient
       id="linearGradient4356"
       x1="120.59"
       x2="118.64"
       y1="137.54"
       y2="139.07"
       gradientTransform="translate(-33.717)"
       gradientUnits="userSpaceOnUse"
       xlink:href="#linearGradient4340" />
    <linearGradient
       id="linearGradient4360"
       x1="120.59"
       x2="118.64"
       y1="137.54"
       y2="139.07"
       gradientTransform="translate(-27.445)"
       gradientUnits="userSpaceOnUse"
       xlink:href="#linearGradient4340" />
    <linearGradient
       id="linearGradient4364"
       x1="120.59"
       x2="118.64"
       y1="137.54"
       y2="139.07"
       gradientTransform="translate(-21.173)"
       gradientUnits="userSpaceOnUse"
       xlink:href="#linearGradient4340" />
    <linearGradient
       id="linearGradient4368"
       x1="120.59"
       x2="118.64"
       y1="137.54"
       y2="139.07"
       gradientTransform="translate(-14.901)"
       gradientUnits="userSpaceOnUse"
       xlink:href="#linearGradient4340" />
    <linearGradient
       id="linearGradient4372"
       x1="120.59"
       x2="118.64"
       y1="137.54"
       y2="139.07"
       gradientTransform="translate(-8.6291)"
       gradientUnits="userSpaceOnUse"
       xlink:href="#linearGradient4340" />
    <linearGradient
       id="linearGradient4247"
       x1="237.32"
       x2="239.69"
       y1="18.634"
       y2="111.87"
       gradientTransform="matrix(.05375 0 0 .05375 .27519 8.0369)"
       gradientUnits="userSpaceOnUse">
      <stop
         stop-color="#cfbcac"
         offset="0"
         id="stop19" />
      <stop
         stop-color="#f0eae5"
         offset="1"
         id="stop20" />
    </linearGradient>
    <linearGradient
       id="linearGradient4265"
       x1="285.3"
       x2="177.35"
       y1="58.879"
       y2="58.879"
       gradientTransform="matrix(.05375 0 0 .05375 .27519 8.0369)"
       gradientUnits="userSpaceOnUse">
      <stop
         stop-color="#6f5640"
         offset="0"
         id="stop21" />
      <stop
         stop-color="#ffffff"
         offset=".14845"
         id="stop22" />
      <stop
         stop-color="#c3ab96"
         offset=".55"
         id="stop23" />
      <stop
         stop-color="#7d6148"
         offset="1"
         id="stop24" />
    </linearGradient>
    <linearGradient
       id="linearGradient4336"
       x1="242.09"
       x2="173.32"
       y1="131.04"
       y2="131.04"
       gradientTransform="matrix(.05375 0 0 .05375 .27519 8.0369)"
       gradientUnits="userSpaceOnUse">
      <stop
         stop-color="#bca28b"
         offset="0"
         id="stop25" />
      <stop
         stop-color="#6d543e"
         offset="1"
         id="stop26" />
    </linearGradient>
    <linearGradient
       id="linearGradient1417"
       x1="50.27"
       x2="50.27"
       y1="14.816"
       y2="8.7311"
       gradientTransform="translate(-37.557 -.26458)"
       gradientUnits="userSpaceOnUse">
      <stop
         stop-color="#f0eae5"
         offset="0"
         id="stop27" />
      <stop
         stop-color="#cebbab"
         offset="1"
         id="stop28" />
    </linearGradient>
    <linearGradient
       id="linearGradient1439"
       x1="144.66"
       x2="174.56"
       y1="55.562"
       y2="55.562"
       gradientTransform="matrix(.26458 0 0 .26458 -29.516 0)"
       gradientUnits="userSpaceOnUse"
       xlink:href="#linearGradient1437" />
    <linearGradient
       id="linearGradient1453"
       x1="50.27"
       x2="50.27"
       y1="15.081"
       y2="14.023"
       gradientTransform="translate(-37.557,1.0583)"
       gradientUnits="userSpaceOnUse">
      <stop
         stop-color="#725841"
         offset="0"
         id="stop29" />
      <stop
         stop-color="#463729"
         offset="1"
         id="stop30" />
    </linearGradient>
    <linearGradient
       id="linearGradient1457"
       x1="144.66"
       x2="174.56"
       y1="55.562"
       y2="55.562"
       gradientTransform="matrix(.26458 0 0 .26458 -29.516 1.3229)"
       gradientUnits="userSpaceOnUse"
       xlink:href="#linearGradient1437" />
    <linearGradient
       id="linearGradient1517"
       x1="38.364"
       x2="39.951"
       y1="15.17"
       y2="15.17"
       gradientTransform="translate(-29.516)"
       gradientUnits="userSpaceOnUse">
      <stop
         stop-color="#5a4533"
         offset="0"
         id="stop31" />
      <stop
         stop-color="#957356"
         stop-opacity="0"
         offset=".33438"
         id="stop32" />
      <stop
         stop-color="#b19276"
         stop-opacity="0"
         offset=".50217"
         id="stop33" />
      <stop
         stop-color="#8c6d51"
         stop-opacity="0"
         offset=".68594"
         id="stop34" />
      <stop
         stop-color="#614b38"
         offset="1"
         id="stop35" />
    </linearGradient>
    <linearGradient
       id="linearGradient1521"
       x1="38.364"
       x2="39.951"
       y1="15.17"
       y2="15.17"
       gradientTransform="translate(-23.431)"
       gradientUnits="userSpaceOnUse">
      <stop
         stop-color="#5a4533"
         offset="0"
         id="stop36" />
      <stop
         stop-color="#957356"
         stop-opacity="0"
         offset=".33438"
         id="stop37" />
      <stop
         stop-color="#b19276"
         stop-opacity="0"
         offset=".50217"
         id="stop38" />
      <stop
         stop-color="#8c6d51"
         stop-opacity="0"
         offset=".68594"
         id="stop39" />
      <stop
         stop-color="#ae8d71"
         offset="1"
         id="stop40" />
    </linearGradient>
    <linearGradient
       id="linearGradient2882"
       x1="28"
       x2="28"
       y1="60"
       y2="4"
       gradientUnits="userSpaceOnUse"
       gradientTransform="matrix(0.26422759,0,0,0.26458,0.02114505,0)">
      <stop
         stop-color="#534030"
         offset="0"
         id="stop41"
         style="stop-color:#141414;stop-opacity:1;" />
      <stop
         stop-color="#87694e"
         offset="1"
         id="stop42" />
    </linearGradient>
    <filter
       id="filter1960"
       x="-0.026307707"
       y="-0.27359846"
       width="1.0526154"
       height="1.5471969"
       color-interpolation-filters="sRGB">
      <feGaussianBlur
         stdDeviation="0.086714751"
         id="feGaussianBlur42" />
    </filter>
    <filter
       id="e"
       width="1.0139074"
       height="1.0139083"
       x="-0.0069537049"
       y="-0.0069541742"
       color-interpolation-filters="sRGB">
      <feGaussianBlur
         stdDeviation="0.042930437"
         id="feGaussianBlur12" />
    </filter>
    <linearGradient
       xlink:href="#a"
       id="f"
       x1="2.598"
       x2="10.583"
       y1="2.836"
       y2="11.312"
       gradientUnits="userSpaceOnUse" />
    <linearGradient
       id="a">
      <stop
         offset="0"
         stop-color="#ffffff"
         id="stop1-3" />
      <stop
         offset="1"
         stop-color="#ffffff"
         stop-opacity="0"
         id="stop2-6" />
    </linearGradient>
    <linearGradient
       xlink:href="#a"
       id="g"
       x1="15.081"
       x2="12.7"
       y1="14.816"
       y2="12.171"
       gradientUnits="userSpaceOnUse" />
    <linearGradient
       id="a-3"
       x1="7.9369998"
       x2="7.9369998"
       y1="15.081"
       y2="1.852"
       gradientTransform="translate(0.08202556,0.00326804)"
       gradientUnits="userSpaceOnUse">
      <stop
         offset="0"
         stop-color="#ffffff"
         id="stop3-6"
         style="stop-color:#666666;stop-opacity:0.60095578;" />
      <stop
         offset="1"
         stop-color="#ffffff"
         id="stop4-7" />
    </linearGradient>
  </defs>
  <rect
     x="1.5426"
     y="1.5343"
     width="13.848"
     height="13.848"
     rx="3.2151999"
     ry="3.2151999"
     fill="url(#linearGradient862)"
     stroke-width="0.93463"
     id="rect42"
     style="display:none;opacity:0.499468" />
  <path
     d="m 4.5135426,1.0500651 c -1.9032842,0 -3.4354872,1.53422 -3.4354872,3.4400692 v 7.9368707 c 0,1.905823 1.5321766,3.440069 3.4354872,3.440069 h 7.9262994 c 1.903284,0 3.435487,-1.53422 3.435487,-3.440069 V 4.4901343 c 0,-1.9058227 -1.532176,-3.4400692 -3.435487,-3.4400692 z"
     fill="url(#linearGradient2882)"
     stroke-width="0.99934"
     id="path42"
     style="display:inline;opacity:0.157143;fill:url(#linearGradient2882)" />
  <text
     x="29.471731"
     y="9.0578918"
     fill="#201913"
     font-family="'Noto Serif CJK SC'"
     font-size="10.583px"
     letter-spacing="0px"
     stroke-width="0.26458"
     word-spacing="0px"
     style="line-height:1.25;display:inline"
     xml:space="preserve"
     id="text42"><tspan
       x="29.471731"
       y="19.693933"
       stroke-width="0.26458"
       id="tspan42" /></text>
  <rect
     width="14.816903"
     height="14.816903"
     x="1.1403379"
     y="1.0533786"
     fill="url(#a)"
     rx="3.4400446"
     ry="3.4400446"
     id="rect4"
     style="display:inline;opacity:0.502128;fill:url(#a-3);stroke-width:0.264578" />
  <g
     filter="url(#e)"
     opacity=".35"
     style="display:inline;opacity:0.99093817;mix-blend-mode:normal;filter:url(#e)"
     id="g17"
     transform="matrix(1.0222715,0,0,1.0071673,-0.19129636,-0.082968)">
    <path
       fill="url(#f)"
       d="m 5.36,1.058 c -1.53,0 -2.577,0.457 -3.26,1.2 -0.678,0.74 -1.042,1.8 -1.042,3.001 v 6.415 c 0,1.2 0.364,2.26 1.043,3 0.682,0.744 1.73,1.2 3.26,1.2 h 6.23 c 1.53,0 2.577,-0.456 3.26,-1.2 0.678,-0.739 1.024,-1.702 1.024,-3 V 5.5 c 0,-1.57 -0.346,-2.502 -1.024,-3.242 -0.683,-0.743 -1.73,-1.2 -3.26,-1.2 H 6.745 Z m 0,0.264 h 6.232 c 1.477,0 2.437,0.432 3.064,1.116 0.634,0.69 0.954,1.53 0.954,3.062 v 6.174 c 0,1.251 -0.322,2.134 -0.954,2.822 -0.627,0.684 -1.587,1.114 -3.064,1.114 H 5.359 C 3.882,15.61 2.922,15.18 2.295,14.496 1.67,13.814 1.322,12.821 1.322,11.674 V 5.26 C 1.322,4.112 1.67,3.12 2.295,2.438 2.922,1.754 3.882,1.322 5.359,1.322"
       id="path16"
       style="fill:url(#f)" />
    <path
       fill="url(#g)"
       d="m 5.36,1.058 c -1.53,0 -2.577,0.457 -3.26,1.2 -0.678,0.74 -1.042,1.8 -1.042,3.001 v 6.415 c 0,1.2 0.364,2.26 1.043,3 0.682,0.744 1.73,1.2 3.26,1.2 h 6.23 c 1.53,0 2.577,-0.456 3.26,-1.2 0.678,-0.739 1.024,-1.702 1.024,-3 V 5.5 c 0,-1.57 -0.346,-2.502 -1.024,-3.242 -0.683,-0.743 -1.73,-1.2 -3.26,-1.2 H 6.745 Z m 0,0.264 h 6.232 c 1.477,0 2.437,0.432 3.064,1.116 0.634,0.69 0.954,1.53 0.954,3.062 v 6.174 c 0,1.251 -0.322,2.134 -0.954,2.822 -0.627,0.684 -1.587,1.114 -3.064,1.114 H 5.359 C 3.882,15.61 2.922,15.18 2.295,14.496 1.67,13.814 1.322,12.821 1.322,11.674 V 5.26 C 1.322,4.112 1.67,3.12 2.295,2.438 2.922,1.754 3.882,1.322 5.359,1.322"
       id="path17"
       style="fill:url(#g)" />
  </g>
  <g
     transform="matrix(1.3548,0,0,1.3548,-8.7573999,-8.2018999)"
     id="g90"
     style="display:inline;opacity:1">
    <path
       d="m 8.7634,15.79 -0.0026,0.02532 c -0.04203,0.40526 0.3279,0.73534 0.73534,0.73534 h 6.4336 c 0.40743,0 0.77737,-0.33008 0.73534,-0.73534 l -0.0021,-0.02222 c -0.03931,0.34314 -0.37071,0.60512 -0.73327,0.60512 h -6.4336 c -0.36363,0 -0.69507,-0.26359 -0.73276,-0.60822 z"
       filter="url(#filter1960)"
       opacity="0.75"
       id="path43" />
    <path
       d="m 10.16,9.5248 c -0.51954,0 -0.78686,0.24018 -0.83869,0.73999 l -0.56068,5.4037 c -0.04203,0.40526 0.32791,0.73534 0.73534,0.73534 h 6.4336 c 0.40743,0 0.77737,-0.33008 0.73534,-0.73534 l -0.56068,-5.4037 C 16.052402,9.76498 15.78508,9.5248 15.26554,9.5248 h -2.6561 z"
       fill="url(#linearGradient1453)"
       id="path44" />
    <path
       d="m 9.6417,15.252 h 0.64419 c 0.87788,0.59765 1.7879,0.59695 2.7055,0.59695 h 1.5892 l 1.2077,-0.50384 c 0,0 0.11488,-0.44097 0.06334,-0.42809 -0.05154,0.01289 -6.3002,0 -6.3002,0 z"
       fill-opacity="0.08365"
       id="path45" />
    <path
       d="m 9.6417,15.207 h 0.64419 c 0.87788,0.59765 1.7879,0.59695 2.7055,0.59695 h 1.5533 l 1.2661,-0.45829 c 0,0 0.09246,-0.48652 0.04092,-0.47364 -0.05154,0.01289 -6.3002,0 -6.3002,0 z"
       fill="url(#linearGradient4336)"
       id="path46" />
    <path
       d="m 8.8477,14.201 v 1.3229 a 0.79373,0.61547 0 0 0 0.79373,0.61545 0.79373,0.61547 0 0 0 0.79373,-0.61545 V 14.201 Z"
       fill="#b19276"
       id="path47" />
    <g
       transform="matrix(0.05375,0,0,0.05375,8.3984,8.0772)"
       id="g53">
      <rect
         x="72.383003"
         y="127.63"
         width="3.5592999"
         height="16.610001"
         rx="0.50848001"
         ry="0.50848001"
         fill="url(#linearGradient4346)"
         style="paint-order:fill markers stroke"
         id="rect47" />
      <rect
         x="78.654999"
         y="127.63"
         width="3.5592999"
         height="16.610001"
         rx="0.50848001"
         ry="0.50848001"
         fill="url(#linearGradient4352)"
         style="paint-order:fill markers stroke"
         id="rect48" />
      <rect
         x="84.927002"
         y="127.63"
         width="3.5592999"
         height="16.610001"
         rx="0.50848001"
         ry="0.50848001"
         fill="url(#linearGradient4356)"
         style="paint-order:fill markers stroke"
         id="rect49" />
      <rect
         x="91.198997"
         y="127.63"
         width="3.5592999"
         height="16.610001"
         rx="0.50848001"
         ry="0.50848001"
         fill="url(#linearGradient4360)"
         style="paint-order:fill markers stroke"
         id="rect50" />
      <rect
         x="97.471001"
         y="127.63"
         width="3.5592999"
         height="16.610001"
         rx="0.50848001"
         ry="0.50848001"
         fill="url(#linearGradient4364)"
         style="paint-order:fill markers stroke"
         id="rect51" />
      <rect
         x="103.74"
         y="127.63"
         width="3.5592999"
         height="16.610001"
         rx="0.50848001"
         ry="0.50848001"
         fill="url(#linearGradient4368)"
         style="paint-order:fill markers stroke"
         id="rect52" />
      <rect
         x="110.01"
         y="127.63"
         width="3.5592999"
         height="16.610001"
         rx="0.50848001"
         ry="0.50848001"
         fill="url(#linearGradient4372)"
         style="paint-order:fill markers stroke"
         id="rect53" />
    </g>
    <path
       d="m 14.933,14.201 v 1.3229 a 0.79373,0.61547 0 0 0 0.79373,0.61545 0.79373,0.61547 0 0 0 0.79374,-0.61545 V 14.201 Z"
       fill="#b09175"
       id="path53" />
    <path
       d="m 8.8477,14.201 v 1.3229 a 0.79373,0.61547 0 0 0 0.79373,0.61545 0.79373,0.61547 0 0 0 0.79373,-0.61545 V 14.201 Z"
       fill="url(#linearGradient1517)"
       id="path54" />
    <path
       d="m 14.933,14.201 v 1.3229 a 0.79373,0.61547 0 0 0 0.79373,0.61545 0.79373,0.61547 0 0 0 0.79374,-0.61545 V 14.201 Z"
       fill="url(#linearGradient1521)"
       id="path55" />
    <path
       d="m 10.16,8.2019 c -0.51954,0 -0.78686,0.24018 -0.83869,0.73999 l -0.56068,5.4037 c -0.04203,0.40526 0.32791,0.73534 0.73534,0.73534 h 6.4336 c 0.40743,0 0.77737,-0.33008 0.73534,-0.73534 L 16.10423,8.94189 C 16.052402,8.44208 15.78508,8.2019 15.26554,8.2019 h -2.6561 z"
       fill="url(#linearGradient1417)"
       id="path56" />
    <path
       d="m 15.294,8.8945 -0.13614,-0.12475 -1.4902,1.6871 h -0.66474 l -0.35105,-0.01332 c -1.6882,-0.06404 -3.1275,0.89659 -3.1275,1.9863 0,1.0897 1.3695,1.973 3.059,1.973 1.6895,0 3.1275,-0.89659 3.1275,-1.9863 0,-0.11028 -0.01476,-0.21836 -0.04172,-0.32372 z"
       fill="url(#linearGradient4265)"
       style="paint-order:fill markers stroke"
       id="path57" />
    <path
       d="m 10.062,9.9051 4.2401,0.058715 -0.08798,-1.0888 c -1.0714,0.10826 -3.6381,0.24869 -4.0696,0.94679 z"
       fill="#b5987e"
       id="path58" />
    <path
       d="m 15.173,8.7657 -4.983,0.034342 -0.04385,1.0243 3.7324,0.028645 -0.27249,0.55259 h -0.62558 c -0.10847,-0.0082 -0.21858,-0.01292 -0.33038,-0.01292 -1.5899,0 -2.9433,0.86938 -2.9433,1.926 0,1.05662 1.2889,1.9132 2.8788,1.9132 1.5899,0 2.9433,-0.86938 2.9433,-1.926 0,-0.10694 -0.01388,-0.21174 -0.03926,-0.31389 z"
       fill="url(#linearGradient4247)"
       style="paint-order:fill markers stroke"
       id="path59" />
    <path
       d="m 10.461,8.891 h 3.0893 c 0.05039,0 0.08786,0.040658 0.09095,0.090949 l 0.03889,0.63251 c 0.0031,0.050291 -0.04056,0.090949 -0.09095,0.090949 h -3.1625 c -0.05038,0 -0.09368,-0.040637 -0.09095,-0.090949 l 0.03435,-0.63251 C 10.373988,8.931717 10.410648,8.891 10.461038,8.891 Z"
       fill="#483729"
       id="path60" />
    <rect
       x="10.497"
       y="9.2011003"
       width="2.1544001"
       height="0.011693"
       fill="#ffffff"
       id="rect60" />
    <path
       d="m 10.488,9.031 v 0.016536 h 0.01292 V 9.031 Z m 1.1348,0 v 0.042891 c -0.0027,-0.00472 -0.0061,-0.00859 -0.01034,-0.010852 -0.0041,-0.00231 -0.0091,-0.0031 -0.01499,-0.0031 -0.0096,0 -0.01719,0.00372 -0.02325,0.011369 -0.006,0.00765 -0.0093,0.017514 -0.0093,0.029972 0,0.012459 0.0033,0.022844 0.0093,0.030488 0.006,0.00764 0.01367,0.011369 0.02325,0.011369 0.0059,0 0.01085,-0.00135 0.01499,-0.00362 0.0042,-0.00231 0.0076,-0.00562 0.01034,-0.010335 v 0.011885 h 0.01292 v -0.11007 z m 0.1974,0 v 0.016536 h 0.01344 V 9.031 Z m 0.11524,0 v 0.11007 h 0.01344 V 9.102314 l 0.04031,0.038756 h 0.01705 L 11.96232,9.098696 12.00418,9.06149 H 11.98764 L 11.94888,9.096113 V 9.031002 Z m -0.61907,0.00413 v 0.10593 h 0.01447 V 9.090418 h 0.05167 V 9.14106 h 0.01447 V 9.03513 H 11.38251 V 9.078537 H 11.33084 V 9.03513 Z m 0.39274,0 v 0.10593 h 0.02945 c 0.02039,0 0.03533,-0.00438 0.04496,-0.012919 0.0096,-0.00854 0.01447,-0.022092 0.01447,-0.040307 0,-0.018121 -0.0044,-0.031296 -0.01395,-0.03979 -0.0096,-0.00854 -0.02499,-0.012919 -0.04547,-0.012919 z m -1.0888,0.00413 v 0.02222 h -0.0098 v 0.010335 h 0.0098 v 0.042891 c 0,0.00991 0.0019,0.016897 0.0057,0.02067 0.0038,0.00373 0.01062,0.00568 0.02067,0.00568 h 0.01344 V 9.130204 h -0.01344 c -0.0054,0 -0.0091,-0.00126 -0.01085,-0.0031 -0.0017,-0.00184 -0.0026,-0.00594 -0.0026,-0.012402 V 9.071811 H 10.6601 V 9.061476 h -0.02687 v -0.02222 z m 0.44338,0 v 0.02222 h -0.0093 v 0.010335 h 0.0093 v 0.042891 c 0,0.00991 0.0019,0.016897 0.0057,0.02067 0.0038,0.00373 0.01113,0.00568 0.02119,0.00568 h 0.01344 V 9.130204 h -0.01344 c -0.0054,0 -0.0091,-0.00126 -0.01085,-0.0031 -0.0017,-0.00184 -0.0026,-0.00594 -0.0026,-0.012402 V 9.071811 H 11.104 V 9.061476 h -0.02687 v -0.02222 z m 0.6599,0.00775 h 0.01757 c 0.01459,0 0.02477,0.00321 0.03152,0.00982 0.0068,0.00656 0.01034,0.016848 0.01034,0.031005 0,0.014251 -0.0035,0.024915 -0.01034,0.031522 -0.0068,0.00661 -0.01694,0.00982 -0.03152,0.00982 h -0.01757 z m -1.157,0.012919 c -0.0055,0 -0.0102,0.00126 -0.01447,0.00362 -0.0042,0.00236 -0.0077,0.00557 -0.01085,0.010335 V 9.061482 h -0.01344 v 0.07958 h 0.01344 V 9.096105 c 0,-0.00774 0.0016,-0.013606 0.0057,-0.018087 0.0041,-0.00448 0.01002,-0.00672 0.01705,-0.00672 0.0058,0 0.01,0.00196 0.01292,0.00568 0.0029,0.00373 0.0047,0.00903 0.0047,0.016536 v 0.047541 h 0.01292 V 9.092997 c 0,-0.010951 -0.0026,-0.019191 -0.0072,-0.024804 -0.0047,-0.00566 -0.01156,-0.00827 -0.02067,-0.00827 z m 0.14366,0 c -0.01189,0 -0.02139,0.00372 -0.02842,0.011369 -0.007,0.0076 -0.01034,0.018028 -0.01034,0.031005 0,0.012552 0.0035,0.022093 0.01085,0.029455 0.0074,0.00736 0.01784,0.011369 0.03049,0.011369 0.005,0 0.01005,-5.103e-4 0.01499,-0.00155 0.0049,-0.00104 0.0093,-0.00267 0.01395,-0.00465 V 9.124525 c -0.0046,0.00245 -0.0092,0.00446 -0.01395,0.00568 -0.0047,0.00123 -0.0095,0.00155 -0.01447,0.00155 -0.0086,0 -0.01529,-0.00204 -0.02016,-0.00672 -0.0048,-0.00472 -0.0077,-0.011704 -0.0083,-0.02067 h 0.05995 v -0.0062 c 0,-0.011797 -0.0031,-0.021062 -0.0093,-0.027905 -0.0062,-0.00689 -0.01466,-0.010335 -0.02532,-0.010335 z m 0.09508,0 c -0.0063,0 -0.0111,0.00126 -0.0155,0.00362 -0.0044,0.00231 -0.0081,0.00552 -0.01085,0.010335 V 9.061482 h -0.01344 v 0.07958 h 0.01344 V 9.099205 c 0,-0.00897 0.0018,-0.015904 0.0057,-0.02067 0.004,-0.00481 0.0097,-0.00723 0.01705,-0.00723 0.0021,0 0.004,9.18e-5 0.0057,5.167e-4 0.0017,3.8e-4 0.0032,0.00122 0.0046,0.00207 v -0.013437 c -0.0013,-2.359e-4 -0.0026,-4.223e-4 -0.0036,-5.167e-4 -0.0011,-1.416e-4 -0.0022,0 -0.0031,0 z m 0.05633,0 c -0.0055,0 -0.0102,0.00126 -0.01447,0.00362 -0.0042,0.00236 -0.0082,0.00557 -0.01137,0.010335 V 9.061482 H 10.8229 v 0.07958 h 0.01292 V 9.096105 c 0,-0.00774 0.0021,-0.013606 0.0062,-0.018087 0.0041,-0.00448 0.0095,-0.00672 0.01654,-0.00672 0.0058,0 0.0105,0.00196 0.01344,0.00568 0.0029,0.00373 0.0041,0.00903 0.0041,0.016536 v 0.047541 h 0.01292 V 9.092997 c 0,-0.010951 -0.0021,-0.019191 -0.0067,-0.024804 -0.0047,-0.00566 -0.01156,-0.00827 -0.02067,-0.00827 z m 0.08682,0 c -0.01189,0 -0.02139,0.00372 -0.02842,0.011369 -0.007,0.0076 -0.01034,0.018028 -0.01034,0.031005 0,0.012552 0.0035,0.022093 0.01085,0.029455 0.0074,0.00736 0.01732,0.011369 0.02997,0.011369 0.005,0 0.01005,-5.103e-4 0.01499,-0.00155 0.0049,-0.00104 0.0098,-0.00267 0.01447,-0.00465 V 9.124525 c -0.0046,0.00245 -0.0092,0.00446 -0.01395,0.00568 -0.0047,0.00123 -0.0095,0.00155 -0.01447,0.00155 -0.0086,0 -0.01529,-0.00204 -0.02016,-0.00672 -0.0048,-0.00472 -0.0077,-0.011704 -0.0083,-0.02067 h 0.05994 v -0.0062 c 0,-0.011797 -0.0031,-0.021062 -0.0093,-0.027905 -0.0062,-0.00689 -0.01465,-0.010335 -0.02532,-0.010335 z m 0.09508,0 c -0.0063,0 -0.01162,0.00126 -0.01602,0.00362 -0.0044,0.00231 -0.0076,0.00552 -0.01034,0.010335 V 9.061482 h -0.01344 v 0.07958 H 11.0172 V 9.099205 c 0,-0.00897 0.0018,-0.015904 0.0057,-0.02067 0.004,-0.00481 0.0097,-0.00723 0.01705,-0.00723 0.0021,0 0.004,9.18e-5 0.0057,5.167e-4 0.0017,3.8e-4 0.0032,0.00122 0.0046,0.00207 v -0.013437 c -0.0013,-2.359e-4 -0.0026,-4.223e-4 -0.0036,-5.167e-4 -0.0011,-1.416e-4 -0.0022,0 -0.0031,0 z m 0.11059,0 c -0.01189,0 -0.02139,0.00372 -0.02842,0.011369 -0.007,0.0076 -0.01033,0.018028 -0.01033,0.031005 0,0.012552 0.0035,0.022093 0.01085,0.029455 0.0074,0.00736 0.01733,0.011369 0.02997,0.011369 0.005,0 0.01005,-5.103e-4 0.01499,-0.00155 0.0049,-0.00104 0.0098,-0.00267 0.01447,-0.00465 V 9.124525 c -0.0046,0.00245 -0.0092,0.00446 -0.01395,0.00568 -0.0047,0.00123 -0.0095,0.00155 -0.01447,0.00155 -0.0086,0 -0.01529,-0.00204 -0.02015,-0.00672 -0.0048,-0.00472 -0.0077,-0.011704 -0.0083,-0.02067 h 0.05994 v -0.0062 c 0,-0.011797 -0.0031,-0.021062 -0.0093,-0.027905 C 11.17325,9.06337 11.1648,9.059925 11.15413,9.059925 Z m 0.09508,0 c -0.0063,0 -0.01162,0.00126 -0.01602,0.00362 -0.0044,0.00231 -0.0076,0.00552 -0.01033,0.010335 V 9.061482 h -0.01344 v 0.07958 h 0.01344 V 9.099205 c 0,-0.00897 0.0018,-0.015904 0.0057,-0.02067 0.004,-0.00481 0.0097,-0.00723 0.01705,-0.00723 0.0021,0 0.004,9.18e-5 0.0057,5.167e-4 0.0017,3.8e-4 0.0032,0.00122 0.0047,0.00207 v -0.013437 c -0.0013,-2.359e-4 -0.0025,-4.223e-4 -0.0036,-5.167e-4 -0.0011,-1.416e-4 -0.0022,0 -0.0031,0 z m 0.2036,0 c -0.0043,0 -0.009,8.67e-5 -0.01344,0.00103 -0.0045,9.001e-4 -0.0087,0.00229 -0.01344,0.00413 v 0.012402 c 0.004,-0.00217 0.0081,-0.00408 0.0124,-0.00517 0.0043,-0.00109 0.0084,-0.00155 0.01292,-0.00155 0.0071,0 0.0126,0.00187 0.01654,0.00517 0.0039,0.00326 0.0062,0.00796 0.0062,0.013952 v 0.00103 H 11.4554 c -0.01184,0 -0.02035,0.00218 -0.02635,0.00672 -0.0059,0.00453 -0.0093,0.011235 -0.0093,0.020153 0,0.00764 0.0025,0.014023 0.0072,0.018603 0.0048,0.00453 0.01152,0.00672 0.01964,0.00672 0.0064,0 0.01155,-0.00135 0.01602,-0.00362 0.0044,-0.00231 0.0084,-0.00552 0.01137,-0.010335 V 9.141049 H 11.4869 V 9.095575 c 0,-0.01208 -0.0031,-0.020925 -0.0088,-0.026871 -0.0057,-0.00595 -0.01385,-0.00878 -0.02532,-0.00878 z m 0.10025,0 c -0.0063,0 -0.01162,0.00126 -0.01602,0.00362 -0.0044,0.00231 -0.0081,0.00552 -0.01085,0.010335 V 9.061482 h -0.01292 v 0.07958 h 0.01292 V 9.099205 c 0,-0.00897 0.0018,-0.015904 0.0057,-0.02067 0.004,-0.00481 0.0097,-0.00723 0.01705,-0.00723 0.0021,0 0.004,9.18e-5 0.0057,5.167e-4 0.0017,3.8e-4 0.0037,0.00122 0.0052,0.00207 l -5.16e-4,-0.013435 c -0.0013,-2.359e-4 -0.0026,-4.223e-4 -0.0036,-5.167e-4 -0.0011,-1.415e-4 -0.0017,0 -0.0026,0 z m 0.33279,0 c -0.0097,0 -0.01695,0.00214 -0.02222,0.0062 -0.0053,0.00406 -0.0083,0.0096 -0.0083,0.017053 0,0.00613 0.0021,0.010929 0.0057,0.014469 0.0036,0.00349 0.0095,0.00605 0.01757,0.00775 l 0.0041,0.00103 c 0.0081,0.00175 0.01369,0.0038 0.01602,0.00568 0.0024,0.00189 0.0036,0.00421 0.0036,0.00775 0,0.00382 -0.0018,0.00718 -0.0052,0.0093 -0.0033,0.00207 -0.0078,0.0031 -0.01395,0.0031 -0.0046,0 -0.0093,-8.403e-4 -0.01395,-0.00207 -0.0047,-0.00127 -0.0097,-0.00318 -0.01447,-0.00568 v 0.013436 c 0.0051,0.00165 0.0099,0.00282 0.01447,0.00362 0.0046,8.465e-4 0.0092,0.00155 0.01344,0.00155 0.0102,0 0.01797,-0.00242 0.02377,-0.00672 0.0059,-0.00429 0.0093,-0.00969 0.0093,-0.017053 0,-0.00646 -0.0023,-0.011916 -0.0062,-0.015502 -0.0039,-0.00363 -0.01039,-0.00629 -0.01964,-0.00827 l -0.0047,-0.00103 c -0.007,-0.00155 -0.01162,-0.00295 -0.01395,-0.00465 -0.0023,-0.00175 -0.0031,-0.00421 -0.0031,-0.00723 0,-0.00397 0.0014,-0.0068 0.0047,-0.00878 0.0033,-0.00198 0.008,-0.0031 0.01447,-0.0031 0.0043,0 0.0085,6.035e-4 0.0124,0.00155 0.004,9.466e-4 0.0077,0.00225 0.01137,0.00413 V 9.06406 C 11.9075,9.06264 11.904,9.06167 11.89973,9.06096 11.89543,9.0602533 11.89053,9.05993 11.88578,9.05993 Z m -1.3978,0.00155 v 0.07958 h 0.01292 v -0.07958 z m 1.3322,0 v 0.07958 h 0.01344 v -0.07958 z m -1.1095,0.0093 c 0.0064,-2e-7 0.01112,0.00195 0.01499,0.0062 0.0039,0.00425 0.0061,0.00993 0.0062,0.017053 l -0.04651,5.167e-4 c 6.66e-4,-0.00745 0.0034,-0.013463 0.0077,-0.01757 0.0044,-0.00411 0.01031,-0.0062 0.01757,-0.0062 z m 0.23771,0 c 0.0064,-2e-7 0.01164,0.00195 0.0155,0.0062 0.0039,0.00425 0.0061,0.00993 0.0062,0.017053 l -0.04651,5.167e-4 c 6.67e-4,-0.00745 0.0034,-0.013463 0.0077,-0.01757 0.0044,-0.00411 0.0098,-0.0062 0.01705,-0.0062 z m 0.20567,0 c 0.0064,-2e-7 0.01164,0.00195 0.0155,0.0062 0.0039,0.00425 0.0061,0.00993 0.0062,0.017053 l -0.04651,5.167e-4 c 6.67e-4,-0.00745 0.0029,-0.013463 0.0072,-0.01757 0.0044,-0.00411 0.0103,-0.0062 0.01757,-0.0062 z m 0.44648,0 c 0.0069,-2e-7 0.01261,0.00279 0.01654,0.00827 0.0039,0.00543 0.0057,0.012641 0.0057,0.02222 0,0.00958 -0.0018,0.017264 -0.0057,0.022737 -0.004,0.00543 -0.0096,0.00827 -0.01654,0.00827 -0.0069,0 -0.01209,-0.00284 -0.01602,-0.00827 -0.0039,-0.00547 -0.0062,-0.013158 -0.0062,-0.022737 0,-0.00958 0.0023,-0.016794 0.0062,-0.02222 0.004,-0.00547 0.0091,-0.00827 0.01602,-0.00827 z m -0.14004,0.030488 h 0.01344 v 0.00258 c 0,0.00849 -0.0023,0.015523 -0.0067,0.02067 -0.0043,0.00509 -0.01035,0.00775 -0.01757,0.00775 -0.0052,0 -0.0093,-0.00145 -0.0124,-0.00413 -0.003,-0.00273 -0.0046,-0.00623 -0.0046,-0.010852 0,-0.0058 0.0021,-0.01 0.0062,-0.012402 0.0041,-0.00241 0.01118,-0.00362 0.0217,-0.00362 z m -0.97253,0.15504 V 9.268709 H 10.4984 V 9.256307 Z m 0.87073,0 v 0.032556 c -0.0021,-0.00362 -0.0051,-0.00601 -0.0083,-0.00775 -0.0032,-0.00177 -0.0069,-0.00258 -0.01137,-0.00258 -0.0073,0 -0.01342,0.00292 -0.01809,0.00878 -0.0046,0.00586 -0.0067,0.013697 -0.0067,0.023254 0,0.00956 0.0021,0.01687 0.0067,0.022737 0.0046,0.00587 0.01074,0.00878 0.01809,0.00878 0.0045,0 0.0082,-8.437e-4 0.01137,-0.00258 0.0032,-0.00177 0.0061,-0.00413 0.0083,-0.00775 v 0.00878 h 0.0098 V 9.256303 Z m 0.15141,0 V 9.268709 H 11.52 V 9.256307 Z m 0.08837,0 V 9.340538 H 11.6089 V 9.311083 l 0.03049,0.029455 h 0.01344 L 11.61924,9.308499 11.65128,9.280077 H 11.63836 L 11.6089,9.305915 V 9.256307 Z m 0.10025,0 v 0.012402 h 0.0098 V 9.256307 Z m -0.57515,0.0031 v 0.081131 h 0.01085 v -0.03824 h 0.03979 v 0.03824 h 0.01085 V 9.259407 H 11.17431 V 9.292996 H 11.13452 V 9.259407 Z m 0.30127,0 v 0.081131 h 0.02274 c 0.01564,0 0.02724,-0.00327 0.03462,-0.00982 0.0074,-0.00655 0.01085,-0.016514 0.01085,-0.030488 0,-0.013905 -0.0035,-0.024492 -0.01085,-0.031005 -0.0073,-0.00655 -0.01891,-0.00982 -0.03462,-0.00982 z m -0.83559,0.0031 v 0.01757 h -0.0072 v 0.00775 h 0.0072 v 0.032556 c 0,0.00761 0.0017,0.013126 0.0046,0.016019 0.0029,0.00286 0.0078,0.00413 0.0155,0.00413 h 0.01033 v -0.00827 h -0.01033 c -0.0041,0 -0.0069,-6.538e-4 -0.0083,-0.00207 -0.0013,-0.00141 -0.0016,-0.00486 -0.0016,-0.00982 V 9.287816 h 0.02015 v -0.00775 h -0.02015 v -0.01757 z m 0.34054,0 v 0.01757 h -0.0072 v 0.00775 h 0.0072 v 0.032556 c 0,0.00761 0.0012,0.013126 0.0041,0.016019 0.0029,0.00286 0.0083,0.00413 0.01602,0.00413 h 0.01033 v -0.00827 h -0.01033 c -0.0041,0 -0.0069,-6.538e-4 -0.0083,-0.00207 -0.0013,-0.00141 -0.0021,-0.00486 -0.0021,-0.00982 V 9.287816 h 0.02067 v -0.00775 h -0.02067 v -0.01757 z m 0.87021,0 v 0.01757 h -0.0072 v 0.00775 h 0.0072 v 0.032556 c 0,0.00761 0.0012,0.013126 0.0041,0.016019 0.0029,0.00286 0.0083,0.00413 0.01602,0.00413 h 0.01034 v -0.00827 h -0.01034 c -0.0041,0 -0.0069,-6.538e-4 -0.0083,-0.00207 -0.0013,-0.00141 -0.0021,-0.00486 -0.0021,-0.00982 V 9.287816 h 0.02067 v -0.00775 h -0.02067 v -0.01757 z m 0.34054,0 v 0.01757 h -0.0078 v 0.00775 h 0.0078 v 0.032556 c 0,0.00761 0.0012,0.013126 0.0041,0.016019 0.0029,0.00286 0.0083,0.00413 0.01602,0.00413 h 0.01033 v -0.00827 h -0.01033 c -0.0041,0 -0.0069,-6.538e-4 -0.0083,-0.00207 -0.0013,-0.00141 -0.0021,-0.00486 -0.0021,-0.00982 V 9.287816 h 0.02067 v -0.00775 h -0.02067 v -0.01757 z m -0.70485,0.0062 h 0.01344 c 0.01116,0 0.01909,0.00268 0.02428,0.00775 0.0052,0.00503 0.0083,0.01291 0.0083,0.023771 0,0.010935 -0.0031,0.018704 -0.0083,0.023771 -0.0052,0.00507 -0.0131,0.00775 -0.02428,0.00775 h -0.01344 z m -0.88727,0.00982 c -0.0042,0 -0.0081,7.704e-4 -0.01137,0.00258 -0.0032,0.00181 -0.0059,0.00461 -0.0083,0.00827 v -0.0093 h -0.01033 v 0.06046 h 0.01033 V 9.306431 c 0,-0.00594 0.0015,-0.010512 0.0047,-0.013952 0.0031,-0.00344 0.007,-0.00517 0.0124,-0.00517 0.0045,0 0.0081,0.00127 0.01034,0.00413 0.0023,0.00286 0.0036,0.00717 0.0036,0.012919 v 0.036173 h 0.0098 v -0.03669 c 0,-0.0084 -0.0021,-0.014813 -0.0057,-0.01912 -0.0036,-0.00435 -0.0085,-0.0062 -0.0155,-0.0062 z m 0.11007,0 c -0.0091,0 -0.01631,0.00292 -0.02171,0.00878 -0.0053,0.00583 -0.0083,0.013815 -0.0083,0.023771 0,0.00963 0.0031,0.017091 0.0088,0.022737 0.0057,0.00565 0.01304,0.00827 0.02273,0.00827 0.0039,0 0.0082,-2.402e-4 0.01189,-0.00103 0.0037,-8.001e-4 0.0073,-0.0021 0.01085,-0.00362 v -0.0093 c -0.0036,0.00189 -0.0073,0.00319 -0.01085,0.00413 -0.0036,9.401e-4 -0.007,0.00155 -0.01085,0.00155 -0.0066,0 -0.01177,-0.00158 -0.0155,-0.00517 -0.0037,-0.00362 -0.0058,-0.00914 -0.0062,-0.016019 h 0.04547 v -0.00465 c 0,-0.00905 -0.0024,-0.016457 -0.0072,-0.021704 -0.0047,-0.00529 -0.01094,-0.00775 -0.01912,-0.00775 z m 0.07338,0 c -0.0048,0 -0.0091,7.704e-4 -0.0124,0.00258 -0.0033,0.00177 -0.0061,0.00457 -0.0083,0.00827 v -0.0093 h -0.0098 v 0.06046 h 0.0098 V 9.308499 c 0,-0.00688 0.0017,-0.011849 0.0047,-0.015503 0.003,-0.00369 0.0073,-0.00568 0.01292,-0.00568 0.0015,0 0.0028,1.91e-4 0.0041,5.167e-4 0.0013,2.884e-4 0.0025,8.985e-4 0.0036,0.00155 v -0.010339 c -0.0011,-1.81e-4 -0.0018,-4.445e-4 -0.0026,-5.167e-4 -8.66e-4,-1.088e-4 -0.0014,0 -0.0021,0 z m 0.04237,0 c -0.0042,0 -0.0076,7.704e-4 -0.01085,0.00258 -0.0032,0.00181 -0.0064,0.00461 -0.0088,0.00827 v -0.0093 h -0.0098 v 0.06046 h 0.0098 V 9.306431 c 0,-0.00594 0.002,-0.010512 0.0052,-0.013952 0.0031,-0.00344 0.007,-0.00517 0.0124,-0.00517 0.0045,0 0.0081,0.00127 0.01034,0.00413 0.0023,0.00286 0.0031,0.00717 0.0031,0.012919 v 0.036173 h 0.01034 v -0.03669 c 0,-0.0084 -0.0021,-0.014813 -0.0057,-0.01912 -0.0036,-0.00435 -0.009,-0.0062 -0.01602,-0.0062 z m 0.06666,0 c -0.0091,0 -0.0163,0.00292 -0.0217,0.00878 -0.0053,0.00583 -0.0078,0.013815 -0.0078,0.023771 0,0.00963 0.0026,0.017091 0.0083,0.022737 0.0057,0.00565 0.01356,0.00827 0.02325,0.00827 0.0039,0 0.0076,-2.402e-4 0.01137,-0.00103 0.0037,-8.001e-4 0.0073,-0.0021 0.01085,-0.00362 v -0.0093 c -0.0036,0.00189 -0.0067,0.00319 -0.01033,0.00413 -0.0036,9.401e-4 -0.0075,0.00155 -0.01137,0.00155 -0.0066,0 -0.01177,-0.00158 -0.0155,-0.00517 -0.0037,-0.00362 -0.0058,-0.00914 -0.0062,-0.016019 h 0.04599 v -0.00465 c 0,-0.00905 -0.0024,-0.016457 -0.0072,-0.021704 -0.0047,-0.00529 -0.01146,-0.00775 -0.01964,-0.00775 z m 0.07338,0 c -0.0048,0 -0.009,7.704e-4 -0.0124,0.00258 -0.0034,0.00177 -0.0057,0.00457 -0.0078,0.00827 v -0.0093 h -0.01033 v 0.06046 h 0.01033 V 9.308499 c 0,-0.00688 0.0011,-0.011849 0.0041,-0.015503 0.003,-0.00369 0.0073,-0.00568 0.01292,-0.00568 0.0015,0 0.0033,1.91e-4 0.0047,5.167e-4 0.0013,2.884e-4 0.0025,8.985e-4 0.0036,0.00155 v -0.010339 c -0.0011,-1.81e-4 -0.0018,-4.445e-4 -0.0026,-5.167e-4 -8.68e-4,-1.088e-4 -0.0019,0 -0.0026,0 z m 0.08475,0 c -0.0091,0 -0.0163,0.00292 -0.0217,0.00878 -0.0053,0.00583 -0.0083,0.013815 -0.0083,0.023771 0,0.00963 0.0031,0.017091 0.0088,0.022737 0.0057,0.00565 0.01304,0.00827 0.02273,0.00827 0.0039,0 0.0076,-2.402e-4 0.01137,-0.00103 0.0037,-8.001e-4 0.0078,-0.0021 0.01137,-0.00362 v -0.0093 c -0.0036,0.00189 -0.0073,0.00319 -0.01085,0.00413 -0.0036,9.401e-4 -0.0075,0.00155 -0.01137,0.00155 -0.0066,0 -0.01177,-0.00158 -0.0155,-0.00517 -0.0037,-0.00362 -0.0058,-0.00914 -0.0062,-0.016019 h 0.04599 v -0.00465 c 0,-0.00905 -0.0024,-0.016457 -0.0072,-0.021704 -0.0047,-0.00529 -0.01094,-0.00775 -0.01912,-0.00775 z m 0.07287,0 c -0.0048,0 -0.0086,7.704e-4 -0.01189,0.00258 -0.0033,0.00177 -0.0061,0.00457 -0.0083,0.00827 v -0.0093 h -0.01033 v 0.06046 h 0.01033 V 9.308499 c 0,-0.00688 0.0011,-0.011849 0.0041,-0.015503 0.003,-0.00369 0.0078,-0.00568 0.01344,-0.00568 0.0015,0 0.0028,1.91e-4 0.0041,5.167e-4 0.0013,2.884e-4 0.0025,8.985e-4 0.0036,0.00155 v -0.010339 c -0.0011,-1.81e-4 -0.0018,-4.445e-4 -0.0026,-5.167e-4 -8.68e-4,-1.088e-4 -0.0019,0 -0.0026,0 z m 0.15606,0 c -0.0032,0 -0.0069,3.066e-4 -0.01033,0.00103 -0.0034,6.866e-4 -0.0067,0.00169 -0.01034,0.0031 v 0.0093 c 0.0031,-0.00167 0.006,-0.00278 0.0093,-0.00362 0.0033,-8.334e-4 0.0069,-0.00155 0.01034,-0.00155 0.0055,0 0.0094,0.00108 0.0124,0.00362 0.0031,0.0025 0.0047,0.00625 0.0047,0.010852 v 0.00103 h -0.01395 c -0.0091,0 -0.01555,0.00169 -0.02015,0.00517 -0.0045,0.00348 -0.0072,0.00866 -0.0072,0.015502 0,0.00586 0.002,0.010439 0.0057,0.013953 0.0037,0.00347 0.0088,0.00517 0.01499,0.00517 0.0049,0 0.009,-8.437e-4 0.0124,-0.00258 0.0034,-0.00177 0.006,-0.00457 0.0083,-0.00827 v 0.0093 h 0.01034 V 9.305911 c 0,-0.00927 -0.0024,-0.01611 -0.0067,-0.02067 -0.0043,-0.00456 -0.01085,-0.00672 -0.01964,-0.00672 z m 0.077,0 c -0.0048,0 -0.009,7.704e-4 -0.0124,0.00258 -0.0034,0.00177 -0.0062,0.00457 -0.0083,0.00827 v -0.0093 h -0.0098 v 0.06046 h 0.0098 V 9.308499 c 0,-0.00688 0.0017,-0.011849 0.0047,-0.015503 0.003,-0.00369 0.0073,-0.00568 0.01292,-0.00568 0.0015,0 0.0033,1.91e-4 0.0046,5.167e-4 0.0013,2.884e-4 0.0025,8.985e-4 0.0036,0.00155 v -0.010339 c -0.0011,-1.81e-4 -0.0023,-4.445e-4 -0.0031,-5.167e-4 -8.68e-4,-1.088e-4 -0.0014,0 -0.0021,0 z m 0.25528,0 c -0.0074,0 -0.01299,0.00154 -0.01705,0.00465 -0.0041,0.00311 -0.0062,0.0072 -0.0062,0.012919 0,0.00471 0.0014,0.00866 0.0041,0.011369 0.0027,0.00268 0.0072,0.00438 0.01344,0.00568 l 0.0036,0.00103 c 0.0062,0.00134 0.01008,0.00269 0.01188,0.00413 0.0019,0.00145 0.0026,0.00349 0.0026,0.0062 0,0.00293 -0.0011,0.00509 -0.0036,0.00672 -0.0025,0.00159 -0.0061,0.00258 -0.01085,0.00258 -0.0035,0 -0.0073,-6.101e-4 -0.01085,-0.00155 -0.0036,-9.734e-4 -0.0072,-0.00221 -0.01085,-0.00413 V 9.33846 c 0.0039,0.00126 0.0078,0.00197 0.01137,0.00258 0.0035,6.517e-4 0.0071,0.00103 0.01034,0.00103 0.0078,0 0.01362,-0.00136 0.01808,-0.00465 0.0045,-0.0033 0.0067,-0.00779 0.0067,-0.013435 0,-0.00496 -0.0011,-0.00913 -0.0041,-0.011885 -0.003,-0.00279 -0.0084,-0.00468 -0.0155,-0.0062 L 11.56035,9.30487 C 11.55505,9.30367 11.55125,9.30255 11.5495,9.30125 11.5477,9.29992 11.5469,9.2984 11.5469,9.29608 c 0,-0.00304 0.0012,-0.00571 0.0036,-0.00723 0.0025,-0.00152 0.0064,-0.00207 0.01137,-0.00207 0.0032,0 0.0062,3.066e-4 0.0093,0.00103 0.0031,7.268e-4 0.006,0.00165 0.0088,0.0031 v -0.0093 c -0.0027,-0.00108 -0.0055,-0.00204 -0.0088,-0.00258 -0.0033,-5.429e-4 -0.0072,-5.167e-4 -0.01085,-5.167e-4 z m 0.19843,0 c -0.0042,0 -0.0076,7.704e-4 -0.01085,0.00258 -0.0032,0.00181 -0.0064,0.00461 -0.0088,0.00827 v -0.0093 h -0.0098 v 0.06046 h 0.0098 V 9.306431 c 0,-0.00594 0.0015,-0.010512 0.0047,-0.013952 0.0031,-0.00344 0.0075,-0.00517 0.01292,-0.00517 0.0045,0 0.0081,0.00127 0.01033,0.00413 0.0023,0.00286 0.0031,0.00717 0.0031,0.012919 v 0.036173 h 0.01033 v -0.03669 h -5.16e-4 c 0,-0.0084 -0.0016,-0.014813 -0.0052,-0.01912 -0.0036,-0.00435 -0.009,-0.0062 -0.01602,-0.0062 z m 0.11059,0 c -0.0091,0 -0.0163,0.00292 -0.0217,0.00878 -0.0053,0.00583 -0.0083,0.013815 -0.0083,0.023771 0,0.00963 0.0031,0.017091 0.0088,0.022737 0.0057,0.00565 0.01304,0.00827 0.02274,0.00827 0.0039,0 0.0076,-2.402e-4 0.01137,-0.00103 0.0037,-8.001e-4 0.0078,-0.0021 0.01137,-0.00362 v -0.0093 c -0.0036,0.00189 -0.0073,0.00319 -0.01085,0.00413 -0.0036,9.401e-4 -0.0075,0.00155 -0.01137,0.00155 -0.0066,0 -0.01177,-0.00158 -0.0155,-0.00517 -0.0037,-0.00362 -0.0058,-0.00914 -0.0062,-0.016019 h 0.04599 v -0.00465 c 0,-0.00905 -0.0024,-0.016457 -0.0072,-0.021704 -0.0047,-0.00529 -0.01094,-0.00775 -0.01912,-0.00775 z m 0.07286,0 c -0.0048,0 -0.0085,7.704e-4 -0.01188,0.00258 -0.0034,0.00177 -0.0062,0.00457 -0.0083,0.00827 v -0.0093 H 11.9117 v 0.06046 h 0.01034 V 9.308499 c 0,-0.00688 0.0011,-0.011849 0.0041,-0.015503 0.003,-0.00369 0.0078,-0.00568 0.01344,-0.00568 0.0015,0 0.0028,1.91e-4 0.0041,5.167e-4 0.0013,2.884e-4 0.0025,8.985e-4 0.0036,0.00155 v -0.010339 c -0.0011,-1.81e-4 -0.0018,-4.445e-4 -0.0026,-5.167e-4 -8.65e-4,-1.088e-4 -0.0019,0 -0.0026,0 z m 0.04289,0 c -0.0042,0 -0.0081,7.704e-4 -0.01137,0.00258 -0.0032,0.00181 -0.0059,0.00461 -0.0083,0.00827 v -0.0093 h -0.0098 v 0.06046 h 0.0098 V 9.306431 c 0,-0.00594 0.0015,-0.010512 0.0047,-0.013952 0.0031,-0.00344 0.0075,-0.00517 0.01292,-0.00517 0.0045,0 0.0081,0.00127 0.01034,0.00413 0.0023,0.00286 0.0031,0.00717 0.0031,0.012919 v 0.036173 h 0.0098 v -0.03669 c 0,-0.0084 -0.0016,-0.014813 -0.0052,-0.01912 -0.0036,-0.00435 -0.009,-0.0062 -0.01602,-0.0062 z m 0.06666,0 c -0.0091,0 -0.0163,0.00292 -0.0217,0.00878 -0.0053,0.00583 -0.0078,0.013815 -0.0078,0.023771 0,0.00963 0.0026,0.017091 0.0083,0.022737 0.0057,0.00565 0.01355,0.00827 0.02325,0.00827 0.0039,0 0.0076,-2.402e-4 0.01137,-0.00103 0.0037,-8.001e-4 0.0073,-0.0021 0.01085,-0.00362 v -0.0093 c -0.0036,0.00189 -0.0073,0.00319 -0.01085,0.00413 -0.0036,9.401e-4 -0.007,0.00155 -0.01085,0.00155 -0.0066,0 -0.01177,-0.00158 -0.0155,-0.00517 -0.0037,-0.00362 -0.0058,-0.00914 -0.0062,-0.016019 h 0.04599 v -0.00465 c 0,-0.00905 -0.0024,-0.016457 -0.0072,-0.021704 -0.0047,-0.00529 -0.01146,-0.00775 -0.01964,-0.00775 z m 0.07338,0 c -0.0048,0 -0.009,7.704e-4 -0.0124,0.00258 -0.0034,0.00177 -0.0062,0.00457 -0.0083,0.00827 v -0.0093 h -0.0098 v 0.06046 h 0.0098 V 9.308499 c 0,-0.00688 0.0017,-0.011849 0.0047,-0.015503 0.003,-0.00369 0.0073,-0.00568 0.01292,-0.00568 0.0015,0 0.0028,1.91e-4 0.0041,5.167e-4 0.0013,2.884e-4 0.003,8.985e-4 0.0041,0.00155 v -0.010339 c -0.0011,-1.81e-4 -0.0023,-4.445e-4 -0.0031,-5.167e-4 -8.68e-4,-1.088e-4 -0.0014,0 -0.0021,0 z m 0.08423,0 c -0.0091,0 -0.0163,0.00292 -0.0217,0.00878 -0.0053,0.00583 -0.0078,0.013815 -0.0078,0.023771 0,0.00963 0.0026,0.017091 0.0083,0.022737 0.0057,0.00565 0.01355,0.00827 0.02326,0.00827 0.0039,0 0.0076,-2.402e-4 0.01137,-0.00103 0.0037,-8.001e-4 0.0073,-0.0021 0.01085,-0.00362 v -0.0093 c -0.0036,0.00189 -0.0067,0.00319 -0.01033,0.00413 -0.0036,9.401e-4 -0.0075,0.00155 -0.01137,0.00155 -0.0066,0 -0.01177,-0.00158 -0.0155,-0.00517 -0.0037,-0.00362 -0.0058,-0.00914 -0.0062,-0.016019 h 0.04599 v -0.00465 c 0,-0.00905 -0.0024,-0.016457 -0.0072,-0.021704 -0.0047,-0.00529 -0.01146,-0.00775 -0.01964,-0.00775 z m 0.07338,0 c -0.0048,0 -0.009,7.704e-4 -0.0124,0.00258 -0.0034,0.00177 -0.0057,0.00457 -0.0078,0.00827 v -0.0093 h -0.01034 v 0.06046 h 0.01034 V 9.308499 c -3e-6,-0.00688 0.0011,-0.011849 0.0041,-0.015503 0.003,-0.00369 0.0073,-0.00568 0.01292,-0.00568 0.0015,0 0.0033,1.91e-4 0.0047,5.167e-4 0.0013,2.884e-4 0.0025,8.985e-4 0.0036,0.00155 v -0.010339 c -0.0011,-1.81e-4 -0.0018,-4.445e-4 -0.0026,-5.167e-4 -8.65e-4,-1.088e-4 -0.0019,0 -0.0026,0 z m -1.7947,0.00155 v 0.06046 h 0.01034 v -0.06046 z m 1.0221,0 v 0.06046 h 0.0098 v -0.06046 z m 0.18862,0 v 0.06046 h 0.0098 v -0.06046 z m -1.0402,0.00672 c 0.0049,0 0.0089,0.00191 0.01188,0.00517 0.003,0.00326 0.0046,0.00745 0.0047,0.012919 H 10.6395 c 5.35e-4,-0.00572 0.0024,-0.010289 0.0057,-0.013435 0.0033,-0.00315 0.0078,-0.00465 0.01344,-0.00465 z m 0.18293,0 c 0.0049,0 0.0089,0.00191 0.01188,0.00517 0.003,0.00326 0.0046,0.00745 0.0047,0.012919 h -0.03565 c 5.32e-4,-0.00572 0.0023,-0.010289 0.0057,-0.013435 0.0033,-0.00315 0.0078,-0.00465 0.01344,-0.00465 z m 0.15761,0 c 0.0049,0 0.0089,0.00191 0.01189,0.00517 0.003,0.00326 0.0046,0.00745 0.0046,0.012919 h -0.03565 c 5.32e-4,-0.00572 0.0023,-0.010289 0.0057,-0.013435 0.0033,-0.00315 0.0078,-0.00465 0.01344,-0.00465 z m 0.34261,0 c 0.0053,0 0.0093,0.002 0.0124,0.0062 0.0031,0.00416 0.0047,0.010221 0.0047,0.01757 0,0.00735 -0.0016,0.012853 -0.0047,0.017053 -0.0031,0.00416 -0.0071,0.0062 -0.0124,0.0062 -0.0053,0 -0.0093,-0.00204 -0.0124,-0.0062 -0.003,-0.0042 -0.0047,-0.0097 -0.0047,-0.017053 0,-0.00735 0.0017,-0.01341 0.0047,-0.01757 0.0031,-0.0042 0.0071,-0.0062 0.0124,-0.0062 z m 0.52761,0 c 0.0049,0 0.0089,0.00191 0.01188,0.00517 0.003,0.00326 0.0046,0.00745 0.0047,0.012919 h -0.03566 c 5.34e-4,-0.00572 0.0024,-0.010289 0.0057,-0.013435 0.0033,-0.00315 0.0078,-0.00465 0.01344,-0.00465 z m 0.18293,0 c 0.0049,0 0.0084,0.00191 0.01137,0.00517 0.003,0.00326 0.0046,0.00745 0.0047,0.012919 h -0.03566 c 5.34e-4,-0.00572 0.0029,-0.010289 0.0062,-0.013435 0.0033,-0.00315 0.0078,-0.00465 0.01344,-0.00465 z m 0.15761,0 c 0.0049,0 0.0089,0.00191 0.01188,0.00517 0.003,0.00326 0.0046,0.00745 0.0047,0.012919 H 12.1908 c 5.34e-4,-0.00572 0.0024,-0.010289 0.0057,-0.013435 0.0033,-0.00315 0.0078,-0.00465 0.01344,-0.00465 z m -0.97563,0.023254 h 0.0098 v 0.00207 c 0,0.00652 -0.0013,0.012073 -0.0047,0.016019 -0.0033,0.00391 -0.0079,0.00568 -0.01344,0.00568 -0.0041,0 -0.0075,-0.00103 -0.0098,-0.0031 -0.0023,-0.0021 -0.0031,-0.00472 -0.0031,-0.00827 0,-0.00445 0.0015,-0.00797 0.0047,-0.00982 0.0031,-0.00185 0.0085,-0.00258 0.01654,-0.00258 z m -0.7462,0.056843 v 0.012402 h 0.01034 V 9.366894 Z m 0.87073,0 V 9.39945 c -0.0021,-0.00362 -0.0051,-0.00601 -0.0083,-0.00775 -0.0032,-0.00177 -0.0069,-0.00258 -0.01137,-0.00258 -0.0073,0 -0.01342,0.00292 -0.01809,0.00878 -0.0046,0.00586 -0.0067,0.013696 -0.0067,0.023254 0,0.00956 0.0021,0.016871 0.0067,0.022737 0.0046,0.00587 0.01074,0.00878 0.01809,0.00878 0.0045,0 0.0082,-8.437e-4 0.01137,-0.00258 0.0032,-0.00177 0.0061,-0.00413 0.0083,-0.00775 v 0.00878 h 0.0098 V 9.36689 Z m 0.15141,0 v 0.012402 h 0.0098 V 9.366894 Z m 0.08837,0 v 0.084231 h 0.01033 V 9.421668 l 0.03049,0.029455 h 0.01344 L 11.61923,9.419084 11.65127,9.390663 H 11.63835 L 11.60889,9.416501 V 9.366893 Z m 0.10025,0 v 0.012402 h 0.0098 V 9.366894 Z m -0.57515,0.0031 v 0.081131 h 0.01085 v -0.03824 h 0.03979 v 0.03824 h 0.01085 V 9.369994 H 11.1743 V 9.403583 H 11.13451 V 9.369994 Z m 0.30127,0 v 0.081131 h 0.02274 c 0.01564,0 0.02724,-0.00327 0.03462,-0.00982 0.0074,-0.00655 0.01085,-0.016514 0.01085,-0.030488 0,-0.013905 -0.0035,-0.024492 -0.01085,-0.031005 -0.0073,-0.00655 -0.01891,-0.00982 -0.03462,-0.00982 z m -0.83559,0.0031 v 0.01757 h -0.0072 v 0.00775 h 0.0072 V 9.43097 c 0,0.00761 0.0017,0.013126 0.0046,0.016019 0.0029,0.00286 0.0078,0.00413 0.0155,0.00413 h 0.01033 v -0.00827 h -0.01033 c -0.0041,0 -0.0069,-6.538e-4 -0.0083,-0.00207 -0.0013,-0.00141 -0.0016,-0.00486 -0.0016,-0.00982 V 9.398403 h 0.02015 v -0.00775 h -0.02015 v -0.01757 z m 0.34054,0 v 0.01757 h -0.0072 v 0.00775 h 0.0072 V 9.43097 c 0,0.00761 0.0012,0.013126 0.0041,0.016019 0.0029,0.00286 0.0083,0.00413 0.01602,0.00413 h 0.01033 V 9.442849 H 10.95 c -0.0041,0 -0.0069,-6.538e-4 -0.0083,-0.00207 -0.0013,-0.00141 -0.0021,-0.00486 -0.0021,-0.00982 V 9.398403 h 0.02067 V 9.390653 H 10.9396 v -0.01757 z m 0.87021,0 v 0.01757 h -0.0072 v 0.00775 h 0.0072 V 9.43097 c 0,0.00761 0.0012,0.013126 0.0041,0.016019 0.0029,0.00286 0.0083,0.00413 0.01602,0.00413 h 0.01034 v -0.00827 h -0.01034 c -0.0041,0 -0.0069,-6.538e-4 -0.0083,-0.00207 -0.0013,-0.00141 -0.0021,-0.00486 -0.0021,-0.00982 V 9.398403 h 0.02067 v -0.00775 h -0.02067 v -0.01757 z m 0.34054,0 v 0.01757 h -0.0078 v 0.00775 h 0.0078 V 9.43097 c 0,0.00761 0.0012,0.013126 0.0041,0.016019 0.0029,0.00286 0.0083,0.00413 0.01602,0.00413 h 0.01033 v -0.00827 h -0.01033 c -0.0041,0 -0.0069,-6.538e-4 -0.0083,-0.00207 -0.0013,-0.00141 -0.0021,-0.00486 -0.0021,-0.00982 V 9.398403 h 0.02067 v -0.00775 h -0.02067 v -0.01757 z m -0.70485,0.0062 h 0.01344 c 0.01116,0 0.01909,0.00268 0.02428,0.00775 0.0052,0.00503 0.0083,0.01291 0.0083,0.023771 0,0.010934 -0.0031,0.018704 -0.0083,0.023771 -0.0052,0.00507 -0.0131,0.00775 -0.02428,0.00775 h -0.01344 z m -0.88727,0.00982 c -0.0042,2e-7 -0.0081,7.704e-4 -0.01137,0.00258 -0.0032,0.00181 -0.0059,0.00461 -0.0083,0.00827 v -0.0093 h -0.01033 v 0.06046 h 0.01033 V 9.417018 c 0,-0.00594 0.0015,-0.010512 0.0047,-0.013952 0.0031,-0.00344 0.007,-0.00517 0.0124,-0.00517 0.0045,0 0.0081,0.00127 0.01034,0.00413 0.0023,0.00286 0.0036,0.00717 0.0036,0.012919 v 0.036173 h 0.0098 V 9.414429 c 0,-0.0084 -0.0021,-0.014814 -0.0057,-0.01912 -0.0036,-0.00435 -0.0085,-0.0062 -0.0155,-0.0062 z m 0.11007,0 c -0.0091,2e-7 -0.01631,0.00292 -0.02171,0.00878 -0.0053,0.00583 -0.0083,0.013815 -0.0083,0.023771 0,0.00963 0.0031,0.017091 0.0088,0.022737 0.0057,0.00565 0.01304,0.00827 0.02273,0.00827 0.0039,0 0.0082,-2.402e-4 0.01189,-0.00103 0.0037,-8.001e-4 0.0073,-0.0021 0.01085,-0.00362 v -0.0093 c -0.0036,0.00189 -0.0073,0.00319 -0.01085,0.00413 -0.0036,9.398e-4 -0.007,0.00155 -0.01085,0.00155 -0.0066,0 -0.01177,-0.00158 -0.0155,-0.00517 -0.0037,-0.00362 -0.0058,-0.00914 -0.0062,-0.01602 h 0.04547 v -0.00465 c 0,-0.00905 -0.0024,-0.016457 -0.0072,-0.021704 -0.0047,-0.00529 -0.01094,-0.00775 -0.01912,-0.00775 z m 0.07338,0 c -0.0048,0 -0.0091,7.704e-4 -0.0124,0.00258 -0.0033,0.00177 -0.0061,0.00457 -0.0083,0.00827 v -0.0093 h -0.0098 v 0.06046 h 0.0098 V 9.419085 c 0,-0.00688 0.0017,-0.011849 0.0047,-0.015503 0.003,-0.00369 0.0073,-0.00568 0.01292,-0.00568 0.0015,0 0.0028,1.908e-4 0.0041,5.167e-4 0.0013,2.884e-4 0.0025,8.986e-4 0.0036,0.00155 v -0.010335 c -0.0011,-1.81e-4 -0.0018,-4.445e-4 -0.0026,-5.17e-4 -8.66e-4,-1.085e-4 -0.0014,0 -0.0021,0 z m 0.04237,0 c -0.0042,2e-7 -0.0076,7.704e-4 -0.01085,0.00258 -0.0032,0.00181 -0.0064,0.00461 -0.0088,0.00827 v -0.0093 h -0.0098 v 0.06046 h 0.0098 V 9.417018 c 0,-0.00594 0.002,-0.010512 0.0052,-0.013952 0.0031,-0.00344 0.007,-0.00517 0.0124,-0.00517 0.0045,0 0.0081,0.00127 0.01034,0.00413 0.0023,0.00286 0.0031,0.00717 0.0031,0.012919 v 0.036173 h 0.01034 V 9.414429 c 0,-0.0084 -0.0021,-0.014814 -0.0057,-0.01912 -0.0036,-0.00435 -0.009,-0.0062 -0.01602,-0.0062 z m 0.06666,0 c -0.0091,2e-7 -0.0163,0.00292 -0.0217,0.00878 -0.0053,0.00583 -0.0078,0.013815 -0.0078,0.023771 0,0.00963 0.0026,0.017091 0.0083,0.022737 0.0057,0.00565 0.01356,0.00827 0.02325,0.00827 0.0039,0 0.0076,-2.402e-4 0.01137,-0.00103 0.0037,-8.001e-4 0.0073,-0.0021 0.01085,-0.00362 v -0.0093 c -0.0036,0.00189 -0.0067,0.00319 -0.01033,0.00413 -0.0036,9.398e-4 -0.0075,0.00155 -0.01137,0.00155 -0.0066,0 -0.01177,-0.00158 -0.0155,-0.00517 -0.0037,-0.00362 -0.0058,-0.00914 -0.0062,-0.01602 h 0.04599 v -0.00465 c 0,-0.00905 -0.0024,-0.016457 -0.0072,-0.021704 -0.0047,-0.00529 -0.01146,-0.00775 -0.01964,-0.00775 z m 0.07338,0 c -0.0048,0 -0.009,7.704e-4 -0.0124,0.00258 -0.0034,0.00177 -0.0057,0.00457 -0.0078,0.00827 v -0.0093 h -0.01033 v 0.06046 h 0.01033 V 9.419085 c 0,-0.00688 0.0011,-0.011849 0.0041,-0.015503 0.003,-0.00369 0.0073,-0.00568 0.01292,-0.00568 0.0015,0 0.0033,1.908e-4 0.0047,5.167e-4 0.0013,2.884e-4 0.0025,8.986e-4 0.0036,0.00155 v -0.010335 c -0.0011,-1.81e-4 -0.0018,-4.445e-4 -0.0026,-5.17e-4 -8.68e-4,-1.085e-4 -0.0019,0 -0.0026,0 z m 0.08475,0 c -0.0091,2e-7 -0.0163,0.00292 -0.0217,0.00878 -0.0053,0.00583 -0.0083,0.013815 -0.0083,0.023771 0,0.00963 0.0031,0.017091 0.0088,0.022737 0.0057,0.00565 0.01304,0.00827 0.02273,0.00827 0.0039,0 0.0076,-2.402e-4 0.01137,-0.00103 0.0037,-8.001e-4 0.0078,-0.0021 0.01137,-0.00362 v -0.0093 c -0.0036,0.00189 -0.0073,0.00319 -0.01085,0.00413 -0.0036,9.398e-4 -0.0075,0.00155 -0.01137,0.00155 -0.0066,0 -0.01177,-0.00158 -0.0155,-0.00517 -0.0037,-0.00362 -0.0058,-0.00914 -0.0062,-0.01602 h 0.04599 v -0.00465 c 0,-0.00905 -0.0024,-0.016457 -0.0072,-0.021704 -0.0047,-0.00529 -0.01094,-0.00775 -0.01912,-0.00775 z m 0.07287,0 c -0.0048,0 -0.0086,7.704e-4 -0.01189,0.00258 -0.0033,0.00177 -0.0061,0.00457 -0.0083,0.00827 v -0.0093 h -0.01033 v 0.06046 H 11.0518 V 9.419085 c 0,-0.00688 0.0011,-0.011849 0.0041,-0.015503 0.003,-0.00369 0.0078,-0.00568 0.01344,-0.00568 0.0015,0 0.0028,1.908e-4 0.0041,5.167e-4 0.0013,2.884e-4 0.0025,8.986e-4 0.0036,0.00155 v -0.010335 c -0.0011,-1.81e-4 -0.0018,-4.445e-4 -0.0026,-5.17e-4 -8.68e-4,-1.085e-4 -0.0019,0 -0.0026,0 z m 0.15606,0 c -0.0032,0 -0.0069,3.069e-4 -0.01033,0.00103 -0.0034,6.866e-4 -0.0067,0.00169 -0.01034,0.0031 v 0.0093 c 0.0031,-0.00167 0.006,-0.00278 0.0093,-0.00362 0.0033,-8.335e-4 0.0069,-0.00155 0.01034,-0.00155 0.0055,0 0.0094,0.00108 0.0124,0.00362 0.0031,0.0025 0.0047,0.00625 0.0047,0.010852 v 0.00103 h -0.01395 c -0.0091,0 -0.01555,0.00169 -0.02015,0.00517 -0.0045,0.00348 -0.0072,0.00866 -0.0072,0.015502 0,0.00586 0.002,0.010439 0.0057,0.013953 0.0037,0.00347 0.0088,0.00517 0.01499,0.00517 0.0049,0 0.009,-8.437e-4 0.0124,-0.00258 0.0034,-0.00177 0.006,-0.00457 0.0083,-0.00827 v 0.0093 h 0.01034 V 9.416498 c 0,-0.00927 -0.0024,-0.01611 -0.0067,-0.02067 -0.0043,-0.00456 -0.01085,-0.00672 -0.01964,-0.00672 z m 0.077,0 c -0.0048,0 -0.009,7.704e-4 -0.0124,0.00258 -0.0034,0.00177 -0.0062,0.00457 -0.0083,0.00827 v -0.0093 h -0.0098 v 0.06046 h 0.0098 V 9.419085 c 0,-0.00688 0.0017,-0.011849 0.0047,-0.015503 0.003,-0.00369 0.0073,-0.00568 0.01292,-0.00568 0.0015,0 0.0033,1.908e-4 0.0046,5.167e-4 0.0013,2.884e-4 0.0025,8.986e-4 0.0036,0.00155 v -0.010335 c -0.0011,-1.81e-4 -0.0023,-4.445e-4 -0.0031,-5.17e-4 -8.68e-4,-1.085e-4 -0.0014,0 -0.0021,0 z m 0.25528,0 c -0.0074,0 -0.01299,0.00154 -0.01705,0.00465 -0.0041,0.00311 -0.0062,0.0072 -0.0062,0.012919 0,0.00471 0.0014,0.00866 0.0041,0.011369 0.0027,0.00268 0.0072,0.00438 0.01344,0.00568 l 0.0036,0.00103 c 0.0062,0.00134 0.01008,0.00269 0.01188,0.00413 0.0019,0.00145 0.0026,0.00349 0.0026,0.0062 0,0.00293 -0.0011,0.00509 -0.0036,0.00672 -0.0025,0.00159 -0.0061,0.00258 -0.01085,0.00258 -0.0035,0 -0.0073,-6.103e-4 -0.01085,-0.00155 -0.0036,-9.734e-4 -0.0072,-0.00221 -0.01085,-0.00413 v 0.010335 c 0.0039,0.00126 0.0078,0.00197 0.01137,0.00258 0.0035,6.516e-4 0.0071,0.00103 0.01034,0.00103 0.0078,0 0.01362,-0.00136 0.01808,-0.00465 0.0045,-0.0033 0.0067,-0.00779 0.0067,-0.013435 0,-0.00496 -0.0011,-0.00913 -0.0041,-0.011885 -0.003,-0.00279 -0.0084,-0.00468 -0.0155,-0.0062 l -0.0031,-0.00103 c -0.0053,-0.0012 -0.0091,-0.00232 -0.01085,-0.00362 -0.0018,-0.00133 -0.0026,-0.00285 -0.0026,-0.00517 0,-0.00304 0.0012,-0.00571 0.0036,-0.00723 0.0025,-0.00152 0.0064,-0.00207 0.01137,-0.00207 0.0032,3e-7 0.0062,3.07e-4 0.0093,0.00103 0.0031,7.266e-4 0.006,0.00165 0.0088,0.0031 v -0.0093 c -0.0027,-0.00108 -0.0055,-0.00204 -0.0088,-0.00258 -0.0033,-5.431e-4 -0.0072,-5.17e-4 -0.01085,-5.17e-4 z m 0.19843,0 c -0.0042,2e-7 -0.0076,7.704e-4 -0.01085,0.00258 -0.0032,0.00181 -0.0064,0.00461 -0.0088,0.00827 v -0.0093 h -0.0098 v 0.06046 h 0.0098 V 9.417018 c 0,-0.00594 0.0015,-0.010512 0.0047,-0.013952 0.0031,-0.00344 0.0075,-0.00517 0.01292,-0.00517 0.0045,0 0.0081,0.00127 0.01033,0.00413 0.0023,0.00286 0.0031,0.00717 0.0031,0.012919 v 0.036173 h 0.01033 V 9.414429 h -5.16e-4 c 0,-0.0084 -0.0016,-0.014814 -0.0052,-0.01912 -0.0036,-0.00435 -0.009,-0.0062 -0.01602,-0.0062 z m 0.11059,0 c -0.0091,2e-7 -0.0163,0.00292 -0.0217,0.00878 -0.0053,0.00583 -0.0083,0.013815 -0.0083,0.023771 0,0.00963 0.0031,0.017091 0.0088,0.022737 0.0057,0.00565 0.01304,0.00827 0.02274,0.00827 0.0039,0 0.0076,-2.402e-4 0.01137,-0.00103 0.0037,-8.001e-4 0.0078,-0.0021 0.01137,-0.00362 v -0.0093 c -0.0036,0.00189 -0.0073,0.00319 -0.01085,0.00413 -0.0036,9.398e-4 -0.0075,0.00155 -0.01137,0.00155 -0.0066,0 -0.01177,-0.00158 -0.0155,-0.00517 -0.0037,-0.00362 -0.0058,-0.00914 -0.0062,-0.01602 h 0.04599 v -0.00465 c 0,-0.00905 -0.0024,-0.016457 -0.0072,-0.021704 -0.0047,-0.00529 -0.01094,-0.00775 -0.01912,-0.00775 z m 0.07286,0 c -0.0048,0 -0.0085,7.704e-4 -0.01188,0.00258 -0.0034,0.00177 -0.0062,0.00457 -0.0083,0.00827 v -0.0093 h -0.01034 v 0.06046 h 0.01034 V 9.419085 c 0,-0.00688 0.0011,-0.011849 0.0041,-0.015503 0.003,-0.00369 0.0078,-0.00568 0.01344,-0.00568 0.0015,0 0.0028,1.908e-4 0.0041,5.167e-4 0.0013,2.884e-4 0.0025,8.986e-4 0.0036,0.00155 v -0.010335 c -0.0011,-1.81e-4 -0.0018,-4.445e-4 -0.0026,-5.17e-4 -8.65e-4,-1.085e-4 -0.0019,0 -0.0026,0 z m 0.04289,0 c -0.0042,2e-7 -0.0081,7.704e-4 -0.01137,0.00258 -0.0032,0.00181 -0.0059,0.00461 -0.0083,0.00827 v -0.0093 h -0.0098 v 0.06046 h 0.0098 V 9.417018 c 0,-0.00594 0.0015,-0.010512 0.0047,-0.013952 0.0031,-0.00344 0.0075,-0.00517 0.01292,-0.00517 0.0045,0 0.0081,0.00127 0.01034,0.00413 0.0023,0.00286 0.0031,0.00717 0.0031,0.012919 v 0.036173 h 0.0098 V 9.414429 c 0,-0.0084 -0.0016,-0.014814 -0.0052,-0.01912 -0.0036,-0.00435 -0.009,-0.0062 -0.01602,-0.0062 z m 0.06666,0 c -0.0091,2e-7 -0.0163,0.00292 -0.0217,0.00878 -0.0053,0.00583 -0.0078,0.013815 -0.0078,0.023771 0,0.00963 0.0026,0.017091 0.0083,0.022737 0.0057,0.00565 0.01355,0.00827 0.02325,0.00827 0.0039,0 0.0076,-2.402e-4 0.01137,-0.00103 0.0037,-8.001e-4 0.0073,-0.0021 0.01085,-0.00362 v -0.0093 c -0.0036,0.00189 -0.0073,0.00319 -0.01085,0.00413 -0.0036,9.398e-4 -0.007,0.00155 -0.01085,0.00155 -0.0066,0 -0.01177,-0.00158 -0.0155,-0.00517 -0.0037,-0.00362 -0.0058,-0.00914 -0.0062,-0.01602 h 0.04599 v -0.00465 c 0,-0.00905 -0.0024,-0.016457 -0.0072,-0.021704 -0.0047,-0.00529 -0.01146,-0.00775 -0.01964,-0.00775 z m 0.07338,0 c -0.0048,0 -0.009,7.704e-4 -0.0124,0.00258 -0.0034,0.00177 -0.0062,0.00457 -0.0083,0.00827 v -0.0093 h -0.0098 v 0.06046 h 0.0098 V 9.419085 c 0,-0.00688 0.0017,-0.011849 0.0047,-0.015503 0.003,-0.00369 0.0073,-0.00568 0.01292,-0.00568 0.0015,0 0.0028,1.908e-4 0.0041,5.167e-4 0.0013,2.884e-4 0.003,8.986e-4 0.0041,0.00155 v -0.010335 c -0.0011,-1.81e-4 -0.0023,-4.445e-4 -0.0031,-5.17e-4 -8.68e-4,-1.085e-4 -0.0014,0 -0.0021,0 z m 0.08423,0 c -0.0091,2e-7 -0.0163,0.00292 -0.0217,0.00878 -0.0053,0.00583 -0.0078,0.013815 -0.0078,0.023771 0,0.00963 0.0026,0.017091 0.0083,0.022737 0.0057,0.00565 0.01355,0.00827 0.02326,0.00827 0.0039,0 0.0076,-2.402e-4 0.01137,-0.00103 0.0037,-8.001e-4 0.0073,-0.0021 0.01085,-0.00362 v -0.0093 c -0.0036,0.00189 -0.0067,0.00319 -0.01033,0.00413 -0.0036,9.398e-4 -0.0075,0.00155 -0.01137,0.00155 -0.0066,0 -0.01177,-0.00158 -0.0155,-0.00517 -0.0037,-0.00362 -0.0058,-0.00914 -0.0062,-0.01602 h 0.04599 v -0.00465 c 0,-0.00905 -0.0024,-0.016457 -0.0072,-0.021704 -0.0047,-0.00529 -0.01146,-0.00775 -0.01964,-0.00775 z m 0.07338,0 c -0.0048,0 -0.009,7.704e-4 -0.0124,0.00258 -0.0034,0.00177 -0.0057,0.00457 -0.0078,0.00827 v -0.0093 h -0.01034 v 0.06046 h 0.01034 V 9.419085 c -3e-6,-0.00688 0.0011,-0.011849 0.0041,-0.015503 0.003,-0.00369 0.0073,-0.00568 0.01292,-0.00568 0.0015,0 0.0033,1.908e-4 0.0047,5.167e-4 0.0013,2.884e-4 0.0025,8.986e-4 0.0036,0.00155 v -0.010335 c -0.0011,-1.81e-4 -0.0018,-4.445e-4 -0.0026,-5.17e-4 -8.65e-4,-1.085e-4 -0.0019,0 -0.0026,0 z m -1.7947,0.00155 v 0.06046 h 0.01034 v -0.06046 z m 1.0221,0 v 0.06046 h 0.0098 v -0.06046 z m 0.18862,0 v 0.06046 h 0.0098 v -0.06046 z m -1.0402,0.00672 c 0.0049,0 0.0089,0.00191 0.01188,0.00517 0.003,0.00326 0.0046,0.00745 0.0047,0.012919 h -0.03566 c 5.35e-4,-0.00572 0.0024,-0.010289 0.0057,-0.013435 0.0033,-0.00315 0.0078,-0.00465 0.01344,-0.00465 z m 0.18293,0 c 0.0049,0 0.0089,0.00191 0.01188,0.00517 0.003,0.00326 0.0046,0.00745 0.0047,0.012919 h -0.03565 c 5.32e-4,-0.00572 0.0023,-0.010289 0.0057,-0.013435 0.0033,-0.00315 0.0078,-0.00465 0.01344,-0.00465 z m 0.15761,0 c 0.0049,0 0.0089,0.00191 0.01189,0.00517 0.003,0.00326 0.0046,0.00745 0.0046,0.012919 h -0.03565 c 5.32e-4,-0.00572 0.0023,-0.010289 0.0057,-0.013435 0.0033,-0.00315 0.0078,-0.00465 0.01344,-0.00465 z m 0.34261,0 c 0.0053,3e-7 0.0093,0.002 0.0124,0.0062 0.0031,0.00416 0.0047,0.010221 0.0047,0.01757 0,0.00735 -0.0016,0.012853 -0.0047,0.017053 -0.0031,0.00416 -0.0071,0.0062 -0.0124,0.0062 -0.0053,0 -0.0093,-0.00204 -0.0124,-0.0062 -0.003,-0.0042 -0.0047,-0.0097 -0.0047,-0.017053 0,-0.00735 0.0017,-0.01341 0.0047,-0.01757 0.0031,-0.0042 0.0071,-0.0062 0.0124,-0.0062 z m 0.52761,0 c 0.0049,0 0.0089,0.00191 0.01188,0.00517 0.003,0.00326 0.0046,0.00745 0.0047,0.012919 h -0.03566 c 5.34e-4,-0.00572 0.0024,-0.010289 0.0057,-0.013435 0.0033,-0.00315 0.0078,-0.00465 0.01344,-0.00465 z m 0.18293,0 c 0.0049,0 0.0084,0.00191 0.01137,0.00517 0.003,0.00326 0.0046,0.00745 0.0047,0.012919 h -0.03566 c 5.34e-4,-0.00572 0.0029,-0.010289 0.0062,-0.013435 0.0033,-0.00315 0.0078,-0.00465 0.01344,-0.00465 z m 0.15761,0 c 0.0049,0 0.0089,0.00191 0.01188,0.00517 0.003,0.00326 0.0046,0.00745 0.0047,0.012919 h -0.03566 c 5.34e-4,-0.00572 0.0024,-0.010289 0.0057,-0.013435 0.0033,-0.00315 0.0078,-0.00465 0.01344,-0.00465 z m -0.97563,0.023254 h 0.0098 v 0.00207 c 0,0.00652 -0.0013,0.012073 -0.0047,0.016019 -0.0033,0.00391 -0.0079,0.00568 -0.01344,0.00568 -0.0041,0 -0.0075,-0.00103 -0.0098,-0.0031 -0.0023,-0.0021 -0.0031,-0.00472 -0.0031,-0.00827 0,-0.00445 0.0015,-0.00797 0.0047,-0.00982 0.0031,-0.00185 0.0085,-0.00258 0.01654,-0.00258 z m -0.7462,0.056843 v 0.012402 h 0.01034 V 9.477481 Z m 0.87073,0 v 0.032555 c -0.0021,-0.00362 -0.0051,-0.00601 -0.0083,-0.00775 -0.0032,-0.00177 -0.0069,-0.00258 -0.01137,-0.00258 -0.0073,0 -0.01342,0.00292 -0.01809,0.00878 -0.0046,0.00586 -0.0067,0.013697 -0.0067,0.023254 0,0.00956 0.0021,0.016871 0.0067,0.022737 0.0046,0.00587 0.01074,0.00879 0.01809,0.00879 0.0045,0 0.0082,-8.438e-4 0.01137,-0.00258 0.0032,-0.00177 0.0061,-0.00413 0.0083,-0.00775 v 0.00878 h 0.0098 V 9.477486 Z m 0.15141,0 v 0.012402 h 0.0098 V 9.477481 Z m 0.08837,0 v 0.084231 h 0.01033 V 9.532257 l 0.03049,0.029455 h 0.01344 L 11.61922,9.529673 11.65126,9.501252 H 11.63834 L 11.60888,9.52709 V 9.477482 Z m 0.10025,0 v 0.012402 h 0.0098 V 9.477481 Z m -0.57515,0.0031 v 0.08113 h 0.01085 v -0.03824 h 0.03979 v 0.03824 h 0.01085 V 9.480581 H 11.17429 V 9.51417 H 11.1345 V 9.480581 Z m 0.30127,0 v 0.08113 h 0.02274 c 0.01564,0 0.02724,-0.00326 0.03462,-0.00982 0.0074,-0.00655 0.01085,-0.016514 0.01085,-0.030489 0,-0.013905 -0.0035,-0.024492 -0.01085,-0.031005 -0.0073,-0.00655 -0.01891,-0.00982 -0.03462,-0.00982 z m -0.83559,0.0031 v 0.01757 h -0.0072 v 0.00775 h 0.0072 v 0.032555 c 0,0.00761 0.0017,0.013126 0.0046,0.016019 0.0029,0.00286 0.0078,0.00413 0.0155,0.00413 h 0.01033 v -0.00827 h -0.01033 c -0.0041,0 -0.0069,-6.535e-4 -0.0083,-0.00207 -0.0013,-0.00141 -0.0016,-0.00486 -0.0016,-0.00982 V 9.50899 h 0.02015 V 9.50124 H 10.59953 V 9.48367 Z m 0.34054,0 v 0.01757 h -0.0072 v 0.00775 h 0.0072 v 0.032555 c 0,0.00761 0.0012,0.013126 0.0041,0.016019 0.0029,0.00286 0.0083,0.00413 0.01602,0.00413 h 0.01033 v -0.00827 h -0.01033 c -0.0041,0 -0.0069,-6.535e-4 -0.0083,-0.00207 -0.0013,-0.00141 -0.0021,-0.00486 -0.0021,-0.00982 V 9.50899 h 0.02067 V 9.50124 H 10.93959 V 9.48367 Z m 0.87021,0 v 0.01757 h -0.0072 v 0.00775 h 0.0072 v 0.032555 c 0,0.00761 0.0012,0.013126 0.0041,0.016019 0.0029,0.00286 0.0083,0.00413 0.01602,0.00413 h 0.01034 V 9.553435 H 11.8202 c -0.0041,0 -0.0069,-6.535e-4 -0.0083,-0.00207 -0.0013,-0.00141 -0.0021,-0.00486 -0.0021,-0.00982 V 9.50899 h 0.02067 V 9.50124 H 11.8098 V 9.48367 Z m 0.34054,0 v 0.01757 h -0.0078 v 0.00775 h 0.0078 v 0.032555 c 0,0.00761 0.0012,0.013126 0.0041,0.016019 0.0029,0.00286 0.0083,0.00413 0.01602,0.00413 h 0.01033 v -0.00827 h -0.01033 c -0.0041,0 -0.0069,-6.535e-4 -0.0083,-0.00207 -0.0013,-0.00141 -0.0021,-0.00486 -0.0021,-0.00982 V 9.50899 h 0.02067 V 9.50124 H 12.15034 V 9.48367 Z m 0.37775,0 v 0.01757 h -0.0078 v 0.00775 h 0.0078 v 0.032555 c 0,0.00761 0.0012,0.013126 0.0041,0.016019 0.0029,0.00286 0.0083,0.00413 0.01602,0.00413 h 0.01034 v -0.00827 h -0.01034 c -0.0041,0 -0.0069,-6.535e-4 -0.0083,-0.00207 -0.0013,-0.00141 -0.0021,-0.00486 -0.0021,-0.00982 V 9.50899 h 0.02067 V 9.50124 H 12.52809 V 9.48367 Z m -1.0826,0.0062 h 0.01344 c 0.01116,0 0.01909,0.00268 0.02428,0.00775 0.0052,0.00503 0.0083,0.01291 0.0083,0.02377 0,0.010935 -0.0031,0.018704 -0.0083,0.023771 -0.0052,0.00507 -0.0131,0.00775 -0.02428,0.00775 h -0.01344 z m -0.88727,0.00982 c -0.0042,0 -0.0081,7.705e-4 -0.01137,0.00258 -0.0032,0.00181 -0.0059,0.00461 -0.0083,0.00827 v -0.0093 H 10.5185 v 0.06046 h 0.01033 V 9.527605 c 0,-0.00594 0.0015,-0.010512 0.0047,-0.013952 0.0031,-0.00344 0.007,-0.00517 0.0124,-0.00517 0.0045,0 0.0081,0.00127 0.01034,0.00413 0.0023,0.00286 0.0036,0.00717 0.0036,0.012919 v 0.036173 h 0.0098 v -0.03669 c 0,-0.0084 -0.0021,-0.014813 -0.0057,-0.01912 -0.0036,-0.00435 -0.0085,-0.0062 -0.0155,-0.0062 z m 0.11007,0 c -0.0091,0 -0.01631,0.00292 -0.02171,0.00878 -0.0053,0.00583 -0.0083,0.013815 -0.0083,0.023771 0,0.00963 0.0031,0.01709 0.0088,0.022737 0.0057,0.00565 0.01304,0.00827 0.02273,0.00827 0.0039,0 0.0082,-2.403e-4 0.01189,-0.00103 0.0037,-7.998e-4 0.0073,-0.0021 0.01085,-0.00362 v -0.0093 c -0.0036,0.00189 -0.0073,0.00319 -0.01085,0.00413 -0.0036,9.4e-4 -0.007,0.00155 -0.01085,0.00155 -0.0066,0 -0.01177,-0.00158 -0.0155,-0.00517 -0.0037,-0.00362 -0.0058,-0.00914 -0.0062,-0.016019 H 10.6849 V 9.52915 c 0,-0.00905 -0.0024,-0.016457 -0.0072,-0.021704 -0.0047,-0.00529 -0.01094,-0.00775 -0.01912,-0.00775 z m 0.07338,0 c -0.0048,0 -0.0091,7.705e-4 -0.0124,0.00258 -0.0033,0.00177 -0.0061,0.00457 -0.0083,0.00827 v -0.0093 h -0.0098 v 0.06046 h 0.0098 V 9.529672 c 0,-0.00688 0.0017,-0.011849 0.0047,-0.015502 0.003,-0.00369 0.0073,-0.00568 0.01292,-0.00568 0.0015,0 0.0028,1.91e-4 0.0041,5.17e-4 0.0013,2.884e-4 0.0025,8.985e-4 0.0036,0.00155 V 9.500222 c -0.0011,-1.809e-4 -0.0018,-4.442e-4 -0.0026,-5.167e-4 -8.66e-4,-1.084e-4 -0.0014,0 -0.0021,0 z m 0.04237,0 c -0.0042,0 -0.0076,7.705e-4 -0.01085,0.00258 -0.0032,0.00181 -0.0064,0.00461 -0.0088,0.00827 v -0.0093 h -0.0098 v 0.06046 h 0.0098 V 9.527605 c 0,-0.00594 0.002,-0.010512 0.0052,-0.013952 0.0031,-0.00344 0.007,-0.00517 0.0124,-0.00517 0.0045,0 0.0081,0.00127 0.01034,0.00413 0.0023,0.00286 0.0031,0.00717 0.0031,0.012919 v 0.036173 h 0.01034 v -0.03669 c 0,-0.0084 -0.0021,-0.014813 -0.0057,-0.01912 -0.0036,-0.00435 -0.009,-0.0062 -0.01602,-0.0062 z m 0.06666,0 c -0.0091,0 -0.0163,0.00292 -0.0217,0.00878 -0.0053,0.00583 -0.0078,0.013815 -0.0078,0.023771 0,0.00963 0.0026,0.01709 0.0083,0.022737 0.0057,0.00565 0.01356,0.00827 0.02325,0.00827 0.0039,0 0.0076,-2.403e-4 0.01137,-0.00103 0.0037,-7.998e-4 0.0073,-0.0021 0.01085,-0.00362 v -0.0093 c -0.0036,0.00189 -0.0067,0.00319 -0.01033,0.00413 -0.0036,9.4e-4 -0.0075,0.00155 -0.01137,0.00155 -0.0066,0 -0.01177,-0.00158 -0.0155,-0.00517 -0.0037,-0.00362 -0.0058,-0.00914 -0.0062,-0.016019 h 0.04599 V 9.52915 c 0,-0.00905 -0.0024,-0.016457 -0.0072,-0.021704 -0.0047,-0.00529 -0.01146,-0.00775 -0.01964,-0.00775 z m 0.07338,0 c -0.0048,0 -0.009,7.705e-4 -0.0124,0.00258 -0.0034,0.00177 -0.0057,0.00457 -0.0078,0.00827 v -0.0093 h -0.01033 v 0.06046 h 0.01033 V 9.529672 c 0,-0.00688 0.0011,-0.011849 0.0041,-0.015502 0.003,-0.00369 0.0073,-0.00568 0.01292,-0.00568 0.0015,0 0.0033,1.91e-4 0.0047,5.17e-4 0.0013,2.884e-4 0.0025,8.985e-4 0.0036,0.00155 V 9.500222 c -0.0011,-1.809e-4 -0.0018,-4.442e-4 -0.0026,-5.167e-4 -8.68e-4,-1.084e-4 -0.0019,0 -0.0026,0 z m 0.08475,0 c -0.0091,0 -0.0163,0.00292 -0.0217,0.00878 -0.0053,0.00583 -0.0083,0.013815 -0.0083,0.023771 0,0.00963 0.0031,0.01709 0.0088,0.022737 0.0057,0.00565 0.01304,0.00827 0.02273,0.00827 0.0039,0 0.0076,-2.403e-4 0.01137,-0.00103 0.0037,-7.998e-4 0.0078,-0.0021 0.01137,-0.00362 v -0.0093 c -0.0036,0.00189 -0.0073,0.00319 -0.01085,0.00413 -0.0036,9.4e-4 -0.0075,0.00155 -0.01137,0.00155 -0.0066,0 -0.01177,-0.00158 -0.0155,-0.00517 -0.0037,-0.00362 -0.0058,-0.00914 -0.0062,-0.016019 h 0.04599 V 9.52915 c 0,-0.00905 -0.0024,-0.016457 -0.0072,-0.021704 -0.0047,-0.00529 -0.01094,-0.00775 -0.01912,-0.00775 z m 0.07287,0 c -0.0048,0 -0.0086,7.705e-4 -0.01189,0.00258 -0.0033,0.00177 -0.0061,0.00457 -0.0083,0.00827 v -0.0093 h -0.01033 v 0.06046 h 0.01033 V 9.529672 c 0,-0.00688 0.0011,-0.011849 0.0041,-0.015502 0.003,-0.00369 0.0078,-0.00568 0.01344,-0.00568 0.0015,0 0.0028,1.91e-4 0.0041,5.17e-4 0.0013,2.884e-4 0.0025,8.985e-4 0.0036,0.00155 V 9.500222 c -0.0011,-1.809e-4 -0.0018,-4.442e-4 -0.0026,-5.167e-4 -8.68e-4,-1.084e-4 -0.0019,0 -0.0026,0 z m 0.15606,0 c -0.0032,0 -0.0069,3.069e-4 -0.01033,0.00103 -0.0034,6.866e-4 -0.0067,0.00169 -0.01034,0.0031 v 0.0093 c 0.0031,-0.00167 0.006,-0.00278 0.0093,-0.00362 0.0033,-8.334e-4 0.0069,-0.00155 0.01034,-0.00155 0.0055,0 0.0094,0.00108 0.0124,0.00362 0.0031,0.0025 0.0047,0.00625 0.0047,0.010852 v 0.00103 h -0.01395 c -0.0091,0 -0.01555,0.00169 -0.02015,0.00517 -0.0045,0.00348 -0.0072,0.00866 -0.0072,0.015503 0,0.00586 0.002,0.010439 0.0057,0.013952 0.0037,0.00347 0.0088,0.00517 0.01499,0.00517 0.0049,0 0.009,-8.438e-4 0.0124,-0.00258 0.0034,-0.00177 0.006,-0.00457 0.0083,-0.00827 v 0.0093 h 0.01034 V 9.527086 c 0,-0.00927 -0.0024,-0.01611 -0.0067,-0.02067 -0.0043,-0.00456 -0.01085,-0.00672 -0.01964,-0.00672 z m 0.077,0 c -0.0048,0 -0.009,7.705e-4 -0.0124,0.00258 -0.0034,0.00177 -0.0062,0.00457 -0.0083,0.00827 v -0.0093 h -0.0098 v 0.06046 h 0.0098 V 9.529672 c 0,-0.00688 0.0017,-0.011849 0.0047,-0.015502 0.003,-0.00369 0.0073,-0.00568 0.01292,-0.00568 0.0015,0 0.0033,1.91e-4 0.0046,5.17e-4 0.0013,2.884e-4 0.0025,8.985e-4 0.0036,0.00155 V 9.500222 c -0.0011,-1.809e-4 -0.0023,-4.442e-4 -0.0031,-5.167e-4 -8.68e-4,-1.084e-4 -0.0014,0 -0.0021,0 z m 0.25528,0 c -0.0074,0 -0.01299,0.00154 -0.01705,0.00465 -0.0041,0.00311 -0.0062,0.0072 -0.0062,0.012919 0,0.00471 0.0014,0.00866 0.0041,0.011368 0.0027,0.00268 0.0072,0.0049 0.01344,0.0062 l 0.0036,5.168e-4 c 0.0062,0.00134 0.01008,0.00269 0.01188,0.00413 0.0019,0.00145 0.0026,0.00349 0.0026,0.0062 0,0.00293 -0.0011,0.00509 -0.0036,0.00672 -0.0025,0.00159 -0.0061,0.00258 -0.01085,0.00258 -0.0035,0 -0.0073,-6.104e-4 -0.01085,-0.00155 -0.0036,-9.734e-4 -0.0072,-0.00221 -0.01085,-0.00413 v 0.010335 c 0.0039,0.00126 0.0078,0.00197 0.01137,0.00258 0.0035,6.517e-4 0.0071,0.00103 0.01034,0.00103 0.0078,0 0.01362,-0.00136 0.01808,-0.00465 0.0045,-0.0033 0.0067,-0.00779 0.0067,-0.013436 0,-0.00496 -0.0011,-0.00913 -0.0041,-0.011885 -0.003,-0.00279 -0.0084,-0.00468 -0.0155,-0.0062 l -0.0031,-0.00103 c -0.0053,-0.0012 -0.0091,-0.00232 -0.01085,-0.00362 -0.0018,-0.00133 -0.0026,-0.00285 -0.0026,-0.00517 0,-0.00304 0.0012,-0.00571 0.0036,-0.00723 0.0025,-0.00152 0.0064,-0.00207 0.01137,-0.00207 0.0032,0 0.0062,3.069e-4 0.0093,0.00103 0.0031,7.265e-4 0.006,0.00165 0.0088,0.0031 v -0.0093 c -0.0027,-0.00108 -0.0055,-0.00204 -0.0088,-0.00258 -0.0033,-5.429e-4 -0.0072,-5.167e-4 -0.01085,-5.167e-4 z m 0.19843,0 c -0.0042,0 -0.0076,7.705e-4 -0.01085,0.00258 -0.0032,0.00181 -0.0064,0.00461 -0.0088,0.00827 v -0.0093 h -0.0098 v 0.06046 h 0.0098 V 9.527605 c 0,-0.00594 0.0015,-0.010512 0.0047,-0.013952 0.0031,-0.00344 0.0075,-0.00517 0.01292,-0.00517 0.0045,0 0.0081,0.00127 0.01033,0.00413 0.0023,0.00286 0.0031,0.00717 0.0031,0.012919 v 0.036173 h 0.01033 v -0.03669 h -5.16e-4 c 0,-0.0084 -0.0016,-0.014813 -0.0052,-0.01912 -0.0036,-0.00435 -0.009,-0.0062 -0.01602,-0.0062 z m 0.11059,0 c -0.0091,0 -0.0163,0.00292 -0.0217,0.00878 -0.0053,0.00583 -0.0083,0.013815 -0.0083,0.023771 0,0.00963 0.0031,0.01709 0.0088,0.022737 0.0057,0.00565 0.01304,0.00827 0.02274,0.00827 0.0039,0 0.0076,-2.403e-4 0.01137,-0.00103 0.0037,-7.998e-4 0.0078,-0.0021 0.01137,-0.00362 v -0.0093 c -0.0036,0.00189 -0.0073,0.00319 -0.01085,0.00413 -0.0036,9.4e-4 -0.0075,0.00155 -0.01137,0.00155 -0.0066,0 -0.01177,-0.00158 -0.0155,-0.00517 C 11.8522,9.546199 11.8501,9.540679 11.8497,9.5338 h 0.04599 V 9.52915 c 0,-0.00905 -0.0024,-0.016457 -0.0072,-0.021704 -0.0047,-0.00529 -0.01094,-0.00775 -0.01912,-0.00775 z m 0.07286,0 c -0.0048,0 -0.0085,7.705e-4 -0.01188,0.00258 -0.0034,0.00177 -0.0062,0.00457 -0.0083,0.00827 v -0.0093 h -0.01034 v 0.06046 h 0.01034 V 9.529672 c 0,-0.00688 0.0011,-0.011849 0.0041,-0.015502 0.003,-0.00369 0.0078,-0.00568 0.01344,-0.00568 0.0015,0 0.0028,1.91e-4 0.0041,5.17e-4 0.0013,2.884e-4 0.0025,8.985e-4 0.0036,0.00155 V 9.500222 c -0.0011,-1.809e-4 -0.0018,-4.442e-4 -0.0026,-5.167e-4 -8.65e-4,-1.084e-4 -0.0019,0 -0.0026,0 z m 0.04289,0 c -0.0042,0 -0.0081,7.705e-4 -0.01137,0.00258 -0.0032,0.00181 -0.0059,0.00461 -0.0083,0.00827 v -0.0093 h -0.0098 v 0.06046 h 0.0098 V 9.527605 c 0,-0.00594 0.0015,-0.010512 0.0047,-0.013952 0.0031,-0.00344 0.0075,-0.00517 0.01292,-0.00517 0.0045,0 0.0081,0.00127 0.01034,0.00413 0.0023,0.00286 0.0031,0.00717 0.0031,0.012919 v 0.036173 h 0.0098 v -0.03669 c 0,-0.0084 -0.0016,-0.014813 -0.0052,-0.01912 -0.0036,-0.00435 -0.009,-0.0062 -0.01602,-0.0062 z m 0.06666,0 c -0.0091,0 -0.0163,0.00292 -0.0217,0.00878 -0.0053,0.00583 -0.0078,0.013815 -0.0078,0.023771 0,0.00963 0.0026,0.01709 0.0083,0.022737 0.0057,0.00565 0.01355,0.00827 0.02325,0.00827 0.0039,0 0.0076,-2.403e-4 0.01137,-0.00103 0.0037,-7.998e-4 0.0073,-0.0021 0.01085,-0.00362 v -0.0093 c -0.0036,0.00189 -0.0073,0.00319 -0.01085,0.00413 -0.0036,9.4e-4 -0.007,0.00155 -0.01085,0.00155 -0.0066,0 -0.01177,-0.00158 -0.0155,-0.00517 -0.0037,-0.00362 -0.0058,-0.00914 -0.0062,-0.016019 h 0.04599 V 9.52915 c 0,-0.00905 -0.0024,-0.016457 -0.0072,-0.021704 -0.0047,-0.00529 -0.01146,-0.00775 -0.01964,-0.00775 z m 0.07338,0 c -0.0048,0 -0.009,7.705e-4 -0.0124,0.00258 -0.0034,0.00177 -0.0062,0.00457 -0.0083,0.00827 v -0.0093 h -0.0098 v 0.06046 h 0.0098 V 9.529672 c 0,-0.00688 0.0017,-0.011849 0.0047,-0.015502 0.003,-0.00369 0.0073,-0.00568 0.01292,-0.00568 0.0015,0 0.0028,1.91e-4 0.0041,5.17e-4 0.0013,2.884e-4 0.003,8.985e-4 0.0041,0.00155 V 9.500222 c -0.0011,-1.809e-4 -0.0023,-4.442e-4 -0.0031,-5.167e-4 -8.68e-4,-1.084e-4 -0.0014,0 -0.0021,0 z m 0.08423,0 c -0.0091,0 -0.0163,0.00292 -0.0217,0.00878 -0.0053,0.00583 -0.0078,0.013815 -0.0078,0.023771 0,0.00963 0.0026,0.01709 0.0083,0.022737 0.0057,0.00565 0.01355,0.00827 0.02326,0.00827 0.0039,0 0.0076,-2.403e-4 0.01137,-0.00103 0.0037,-7.998e-4 0.0073,-0.0021 0.01085,-0.00362 v -0.0093 c -0.0036,0.00189 -0.0067,0.00319 -0.01033,0.00413 -0.0036,9.4e-4 -0.0075,0.00155 -0.01137,0.00155 -0.0066,0 -0.01177,-0.00158 -0.0155,-0.00517 -0.0037,-0.00362 -0.0058,-0.00914 -0.0062,-0.016019 h 0.04599 V 9.52915 c 0,-0.00905 -0.0024,-0.016457 -0.0072,-0.021704 -0.0047,-0.00529 -0.01146,-0.00775 -0.01964,-0.00775 z m 0.07338,0 c -0.0048,0 -0.009,7.705e-4 -0.0124,0.00258 -0.0034,0.00177 -0.0057,0.00457 -0.0078,0.00827 v -0.0093 H 12.2522 v 0.06046 h 0.01034 V 9.529672 c -3e-6,-0.00688 0.0011,-0.011849 0.0041,-0.015502 0.003,-0.00369 0.0073,-0.00568 0.01292,-0.00568 0.0015,0 0.0033,1.91e-4 0.0047,5.17e-4 0.0013,2.884e-4 0.0025,8.985e-4 0.0036,0.00155 V 9.500222 c -0.0011,-1.809e-4 -0.0018,-4.442e-4 -0.0026,-5.167e-4 -8.65e-4,-1.084e-4 -0.0019,0 -0.0026,0 z m 0.0801,0 c -0.0042,0 -0.0081,7.705e-4 -0.01137,0.00258 -0.0032,0.00181 -0.0059,0.00461 -0.0083,0.00827 v -0.0093 h -0.0098 v 0.06046 h 0.0098 V 9.527605 c 0,-0.00594 0.0015,-0.010512 0.0047,-0.013952 0.0031,-0.00344 0.0075,-0.00517 0.01292,-0.00517 0.0045,0 0.0081,0.00127 0.01033,0.00413 0.0023,0.00286 0.0031,0.00717 0.0031,0.012919 v 0.036173 h 0.0098 v -0.03669 c 0,-0.0084 -0.0016,-0.014813 -0.0052,-0.01912 -0.0036,-0.00435 -0.009,-0.0062 -0.01602,-0.0062 z m 0.06666,0 c -0.0091,0 -0.0163,0.00292 -0.0217,0.00878 C 12.4025,9.514311 12.4,9.522296 12.4,9.532252 c 0,0.00963 0.0026,0.01709 0.0083,0.022737 0.0057,0.00565 0.01355,0.00827 0.02325,0.00827 0.0039,0 0.0076,-2.403e-4 0.01137,-0.00103 0.0037,-7.998e-4 0.0073,-0.0021 0.01085,-0.00362 v -0.0093 c -0.0036,0.00189 -0.0073,0.00319 -0.01085,0.00413 -0.0036,9.4e-4 -0.007,0.00155 -0.01085,0.00155 -0.0066,0 -0.01177,-0.00158 -0.0155,-0.00517 -0.0037,-0.00362 -0.0058,-0.00914 -0.0062,-0.016019 h 0.04599 V 9.52915 c 0,-0.00905 -0.0024,-0.016457 -0.0072,-0.021704 -0.0047,-0.00529 -0.01146,-0.00775 -0.01964,-0.00775 z m 0.07338,0 c -0.0048,0 -0.0091,7.705e-4 -0.0124,0.00258 -0.0033,0.00177 -0.0061,0.00457 -0.0083,0.00827 v -0.0093 h -0.0098 v 0.06046 h 0.0098 V 9.529672 c 0,-0.00688 0.0017,-0.011849 0.0047,-0.015502 0.003,-0.00369 0.0073,-0.00568 0.01292,-0.00568 0.0015,0 0.0028,1.91e-4 0.0041,5.17e-4 0.0013,2.884e-4 0.003,8.985e-4 0.0041,0.00155 V 9.500222 c -0.0011,-1.809e-4 -0.0023,-4.442e-4 -0.0031,-5.167e-4 -8.68e-4,-1.084e-4 -0.0014,0 -0.0021,0 z m 0.08423,0 c -0.0091,0 -0.0163,0.00292 -0.0217,0.00878 -0.0053,0.00583 -0.0078,0.013815 -0.0078,0.023771 0,0.00963 0.0026,0.01709 0.0083,0.022737 0.0057,0.00565 0.01355,0.00827 0.02325,0.00827 0.0039,0 0.0076,-2.403e-4 0.01137,-0.00103 0.0037,-7.998e-4 0.0073,-0.0021 0.01085,-0.00362 v -0.0093 c -0.0036,0.00189 -0.0067,0.00319 -0.01033,0.00413 -0.0036,9.4e-4 -0.0075,0.00155 -0.01137,0.00155 -0.0066,0 -0.01177,-0.00158 -0.0155,-0.00517 -0.0037,-0.00362 -0.0058,-0.00914 -0.0062,-0.016019 h 0.04599 V 9.52915 c 0,-0.00905 -0.0024,-0.016457 -0.0072,-0.021704 -0.0047,-0.00529 -0.01146,-0.00775 -0.01964,-0.00775 z m 0.07338,0 c -0.0048,0 -0.009,7.705e-4 -0.0124,0.00258 -0.0034,0.00177 -0.0062,0.00457 -0.0083,0.00827 v -0.0093 h -0.0098 v 0.06046 h 0.0098 V 9.529672 c 0,-0.00688 0.0017,-0.011849 0.0046,-0.015502 0.003,-0.00369 0.0073,-0.00568 0.01292,-0.00568 0.0015,0 0.0033,1.91e-4 0.0047,5.17e-4 0.0013,2.884e-4 0.0025,8.985e-4 0.0036,0.00155 V 9.500222 c -0.0011,-1.809e-4 -0.0018,-4.442e-4 -0.0026,-5.167e-4 -8.68e-4,-1.084e-4 -0.0019,0 -0.0026,0 z m -2.1724,0.00155 v 0.06046 h 0.01034 v -0.06046 z m 1.0221,0 v 0.06046 h 0.0098 v -0.06046 z m 0.18862,0 v 0.06046 h 0.0098 v -0.06046 z m -1.0402,0.00672 c 0.0049,0 0.0089,0.00191 0.01188,0.00517 0.003,0.00326 0.0046,0.00745 0.0047,0.012919 h -0.03566 c 5.35e-4,-0.00572 0.0024,-0.010289 0.0057,-0.013436 0.0033,-0.00315 0.0078,-0.00465 0.01344,-0.00465 z m 0.18293,0 c 0.0049,0 0.0089,0.00191 0.01188,0.00517 0.003,0.00326 0.0046,0.00745 0.0047,0.012919 h -0.03565 c 5.32e-4,-0.00572 0.0023,-0.010289 0.0057,-0.013436 0.0033,-0.00315 0.0078,-0.00465 0.01344,-0.00465 z m 0.15761,0 c 0.0049,0 0.0089,0.00191 0.01189,0.00517 0.003,0.00326 0.0046,0.00745 0.0046,0.012919 h -0.03565 c 5.32e-4,-0.00572 0.0023,-0.010289 0.0057,-0.013436 0.0033,-0.00315 0.0078,-0.00465 0.01344,-0.00465 z m 0.34261,0 c 0.0053,0 0.0093,0.002 0.0124,0.0062 0.0031,0.00416 0.0047,0.010221 0.0047,0.01757 0,0.00735 -0.0016,0.012853 -0.0047,0.017053 -0.0031,0.00416 -0.0071,0.0062 -0.0124,0.0062 -0.0053,0 -0.0093,-0.00204 -0.0124,-0.0062 -0.003,-0.0042 -0.0047,-0.0097 -0.0047,-0.017053 0,-0.00735 0.0017,-0.01341 0.0047,-0.01757 0.0031,-0.0042 0.0071,-0.0062 0.0124,-0.0062 z m 0.52761,0 c 0.0049,0 0.0089,0.00191 0.01188,0.00517 0.003,0.00326 0.0046,0.00745 0.0047,0.012919 h -0.03566 c 5.34e-4,-0.00572 0.0024,-0.010289 0.0057,-0.013436 0.0033,-0.00315 0.0078,-0.00465 0.01344,-0.00465 z m 0.18293,0 c 0.0049,0 0.0084,0.00191 0.01137,0.00517 0.003,0.00326 0.0046,0.00745 0.0047,0.012919 h -0.03566 c 5.34e-4,-0.00572 0.0029,-0.010289 0.0062,-0.013436 0.0033,-0.00315 0.0078,-0.00465 0.01344,-0.00465 z m 0.15761,0 c 0.0049,0 0.0089,0.00191 0.01188,0.00517 0.003,0.00326 0.0046,0.00745 0.0047,0.012919 h -0.03566 c 5.34e-4,-0.00572 0.0024,-0.010289 0.0057,-0.013436 0.0033,-0.00315 0.0078,-0.00465 0.01344,-0.00465 z m 0.22014,0 c 0.0049,0 0.0084,0.00191 0.01137,0.00517 0.003,0.00326 0.0046,0.00745 0.0046,0.012919 h -0.03565 c 5.32e-4,-0.00572 0.0029,-0.010289 0.0062,-0.013436 0.0033,-0.00315 0.0078,-0.00465 0.01344,-0.00465 z m 0.15761,0 c 0.0049,0 0.0089,0.00191 0.01188,0.00517 0.003,0.00326 0.0046,0.00745 0.0047,0.012919 h -0.03566 c 5.34e-4,-0.00572 0.0024,-0.010289 0.0057,-0.013436 0.0033,-0.00315 0.0078,-0.00465 0.01344,-0.00465 z m -1.3534,0.023254 h 0.0098 v 0.00207 c 0,0.00652 -0.0013,0.012073 -0.0047,0.016019 -0.0033,0.00391 -0.0079,0.00568 -0.01344,0.00568 -0.0041,0 -0.0075,-0.00103 -0.0098,-0.0031 -0.0023,-0.0021 -0.0031,-0.00472 -0.0031,-0.00827 0,-0.00445 0.0015,-0.00797 0.0047,-0.00982 0.0031,-0.00185 0.0085,-0.00258 0.01654,-0.00258 z"
       fill="#ffffff"
       id="path61" />
    <path
       d="M 15.173,8.7801 10.1899,8.800107 V 8.852816 L 15.173,8.818194 Z"
       fill="#ba9f87"
       style="paint-order:fill markers stroke"
       id="path62" />
    <path
       d="M 10.061,9.904 10.12815,8.90898 10.19354,8.7953 10.14586,9.8241 Z"
       fill="#6f5640"
       id="path63" />
    <path
       d="m 13.82,9.9524 0.06723,-0.10816 -0.08477,0.4414 -0.05262,0.05262 z"
       fill="#705741"
       id="path64" />
    <g
       transform="matrix(0.11744,0,0,0.11744,14.276,-106.57)"
       id="g70">
      <ellipse
         cx="-12.821"
         cy="1012.2"
         rx="15.495"
         ry="9.1723003"
         opacity="0.05"
         id="ellipse64" />
      <ellipse
         cx="-12.821"
         cy="1012.2"
         rx="15.245"
         ry="8.9223003"
         opacity="0.05"
         id="ellipse65" />
      <ellipse
         cx="-12.821"
         cy="1012.2"
         rx="14.995"
         ry="8.7034998"
         opacity="0.1"
         id="ellipse66" />
      <ellipse
         cx="-12.821"
         cy="1012.2"
         rx="14.745"
         ry="8.4553003"
         opacity="0.1"
         id="ellipse67" />
      <ellipse
         cx="-12.821"
         cy="1011.7"
         rx="14.438"
         ry="8.1920004"
         opacity="0.5"
         id="ellipse68" />
      <path
         transform="translate(0,956.36)"
         d="m -27.008,52.711 v 2.4102 h 0.0078 a 14.188,8.0501 0 0 0 7.0859,6.7754 14.188,8.0501 0 0 0 14.187,0 14.188,8.0501 0 0 0 7.0762,-6.7754 H 1.366478 V 52.711 h -28.375 z"
         fill="url(#linearGradient4577)"
         id="path68" />
      <ellipse
         cx="-12.821"
         cy="1009.2"
         rx="14.188"
         ry="8.0501003"
         fill="url(#linearGradient4591)"
         id="ellipse69" />
      <path
         d="m 1.3531,1009.4 a 14.188,8.0501 0 0 1 -14.174,7.8925 14.188,8.0501 0 0 1 -14.174,-7.8281 14.188,8.0501 0 0 0 -0.01367,0.1582 14.188,8.0501 0 0 0 14.188,8.0508 14.188,8.0501 0 0 0 14.187,-8.0508 14.188,8.0501 0 0 0 -0.013672,-0.2226 z"
         fill="#ffffff"
         opacity="0.6"
         id="path69" />
      <path
         transform="matrix(1.6628,0,0,1.6628,-66.52,958.99)"
         d="m 32.293,26.752 a 6.1979,3.4425 0 0 0 -6.1973,3.4434 6.1979,3.4425 0 0 0 6.1973,3.4434 6.1979,3.4425 0 0 0 6.1992,-3.4434 6.1979,3.4425 0 0 0 -6.1992,-3.4434 z m -0.10352,0.30274 a 5.8425,3.1412 0 0 1 0.10352,0 5.8425,3.1412 0 0 1 5.8438,3.1406 5.8425,3.1412 0 0 1 -5.8438,3.1406 5.8425,3.1412 0 0 1 -5.8418,-3.1406 5.8425,3.1412 0 0 1 5.7383,-3.1406 z"
         opacity="0.15"
         stroke-width="0.43221"
         id="path70" />
    </g>
    <path
       d="m 8.7634,14.32 -0.0026,0.02532 c -0.04203,0.40526 0.3279,0.73534 0.73534,0.73534 h 6.4336 c 0.40743,0 0.77737,-0.33008 0.73534,-0.73534 l -0.0021,-0.02222 c -0.03931,0.34314 -0.37071,0.60512 -0.73327,0.60512 h -6.4336 c -0.36363,0 -0.69507,-0.26359 -0.73276,-0.60822 z"
       fill="url(#linearGradient1439)"
       id="path71" />
    <path
       d="m 8.7634,15.643 -0.0026,0.02532 c -0.04203,0.40526 0.3279,0.73534 0.73534,0.73534 h 6.4336 c 0.40743,0 0.77737,-0.33008 0.73534,-0.73534 l -0.0021,-0.02222 c -0.03931,0.34314 -0.37071,0.60512 -0.73327,0.60512 h -6.4336 c -0.36363,0 -0.69507,-0.26359 -0.73276,-0.60822 z"
       fill="url(#linearGradient1457)"
       id="path72" />
    <g
       transform="translate(-29.516)"
       id="g74">
      <g
         transform="matrix(0.05375,0,0,0.044041,31.743,9.0969)"
         fill="#5c4735"
         id="g72">
        <circle
           cx="132.52"
           cy="121.26"
           r="3.2658999"
           fill="#5c4735"
           style="paint-order:fill markers stroke"
           id="circle72" />
      </g>
      <g
         transform="matrix(0.051852,0,0,0.038807,31.995,9.7217)"
         fill="#f6f2ef"
         id="g73">
        <circle
           cx="132.52"
           cy="121.26"
           r="3.2658999"
           fill="#f6f2ef"
           style="paint-order:fill markers stroke"
           id="circle73" />
      </g>
      <path
         d="m 38.87,14.332 a 0.018949,0.082758 2.5757 0 0 -0.02016,0.05529 0.10469,0.018949 23.938 0 0 -0.07906,-0.01498 0.10469,0.018949 23.938 0 0 0.05219,0.04289 0.018949,0.10469 66.062 0 0 -0.05219,0.04237 0.018949,0.10469 66.062 0 0 0.07648,-0.01447 0.018949,0.082758 2.5757 0 0 0.01499,0.05426 0.018949,0.082758 2.5757 0 0 0.02067,-0.05478 0.10469,0.018949 23.938 0 0 0.07906,0.01499 0.10469,0.018949 23.938 0 0 -0.05219,-0.04237 0.018949,0.10469 66.062 0 0 0.05219,-0.04289 0.018949,0.10469 66.062 0 0 -0.077,0.01447 0.018949,0.082758 2.5757 0 0 -0.01499,-0.05478 z"
         fill="#433426"
         id="path73" />
    </g>
    <g
       transform="translate(-22.875)"
       id="g77">
      <g
         transform="matrix(0.05375,0,0,0.044041,31.743,9.0969)"
         fill="#5c4735"
         id="g75">
        <circle
           cx="132.52"
           cy="121.26"
           r="3.2658999"
           fill="#5c4735"
           style="paint-order:fill markers stroke"
           id="circle74" />
      </g>
      <g
         transform="matrix(0.051852,0,0,0.038807,31.995,9.7217)"
         fill="#f6f2ef"
         id="g76">
        <circle
           cx="132.52"
           cy="121.26"
           r="3.2658999"
           fill="#f6f2ef"
           style="paint-order:fill markers stroke"
           id="circle75" />
      </g>
      <path
         d="m 38.87,14.332 a 0.018949,0.082758 2.5757 0 0 -0.02016,0.05529 0.10469,0.018949 23.938 0 0 -0.07906,-0.01498 0.10469,0.018949 23.938 0 0 0.05219,0.04289 0.018949,0.10469 66.062 0 0 -0.05219,0.04237 0.018949,0.10469 66.062 0 0 0.07648,-0.01447 0.018949,0.082758 2.5757 0 0 0.01499,0.05426 0.018949,0.082758 2.5757 0 0 0.02067,-0.05478 0.10469,0.018949 23.938 0 0 0.07906,0.01499 0.10469,0.018949 23.938 0 0 -0.05219,-0.04237 0.018949,0.10469 66.062 0 0 0.05219,-0.04289 0.018949,0.10469 66.062 0 0 -0.077,0.01447 0.018949,0.082758 2.5757 0 0 -0.01499,-0.05478 z"
         fill="#433426"
         id="path76" />
    </g>
    <g
       transform="translate(-29.364,-3.1776)"
       id="g80">
      <g
         transform="matrix(0.05375,0,0,0.044041,31.743,9.0969)"
         fill="#5c4735"
         id="g78">
        <circle
           cx="132.52"
           cy="121.26"
           r="3.2658999"
           fill="#5c4735"
           style="paint-order:fill markers stroke"
           id="circle77" />
      </g>
      <g
         transform="matrix(0.051852,0,0,0.038807,31.995,9.7217)"
         fill="#f6f2ef"
         id="g79">
        <circle
           cx="132.52"
           cy="121.26"
           r="3.2658999"
           fill="#d2c0b1"
           style="paint-order:fill markers stroke"
           id="circle78" />
      </g>
      <path
         d="m 38.87,14.332 a 0.018949,0.082758 2.5757 0 0 -0.02016,0.05529 0.10469,0.018949 23.938 0 0 -0.07906,-0.01498 0.10469,0.018949 23.938 0 0 0.05219,0.04289 0.018949,0.10469 66.062 0 0 -0.05219,0.04237 0.018949,0.10469 66.062 0 0 0.07648,-0.01447 0.018949,0.082758 2.5757 0 0 0.01499,0.05426 0.018949,0.082758 2.5757 0 0 0.02067,-0.05478 0.10469,0.018949 23.938 0 0 0.07906,0.01499 0.10469,0.018949 23.938 0 0 -0.05219,-0.04237 0.018949,0.10469 66.062 0 0 0.05219,-0.04289 0.018949,0.10469 66.062 0 0 -0.077,0.01447 0.018949,0.082758 2.5757 0 0 -0.01499,-0.05478 z"
         fill="#433426"
         id="path79" />
    </g>
    <g
       transform="translate(-22.995,-3.1776)"
       id="g83">
      <g
         transform="matrix(0.05375,0,0,0.044041,31.743,9.0969)"
         fill="#5c4735"
         id="g81">
        <circle
           cx="132.52"
           cy="121.26"
           r="3.2658999"
           fill="#5c4735"
           style="paint-order:fill markers stroke"
           id="circle80" />
      </g>
      <g
         transform="matrix(0.051852,0,0,0.038807,31.995,9.7217)"
         fill="#f6f2ef"
         id="g82">
        <circle
           cx="132.52"
           cy="121.26"
           r="3.2658999"
           fill="#d2c0b1"
           style="paint-order:fill markers stroke"
           id="circle81" />
      </g>
      <path
         d="m 38.87,14.332 a 0.018949,0.082758 2.5757 0 0 -0.02016,0.05529 0.10469,0.018949 23.938 0 0 -0.07906,-0.01498 0.10469,0.018949 23.938 0 0 0.05219,0.04289 0.018949,0.10469 66.062 0 0 -0.05219,0.04237 0.018949,0.10469 66.062 0 0 0.07648,-0.01447 0.018949,0.082758 2.5757 0 0 0.01499,0.05426 0.018949,0.082758 2.5757 0 0 0.02067,-0.05478 0.10469,0.018949 23.938 0 0 0.07906,0.01499 0.10469,0.018949 23.938 0 0 -0.05219,-0.04237 0.018949,0.10469 66.062 0 0 0.05219,-0.04289 0.018949,0.10469 66.062 0 0 -0.077,0.01447 0.018949,0.082758 2.5757 0 0 -0.01499,-0.05478 z"
         fill="#433426"
         id="path82" />
    </g>
    <g
       transform="translate(-28.984,-5.8012)"
       id="g86">
      <g
         transform="matrix(0.05375,0,0,0.044041,31.743,9.0969)"
         fill="#5c4735"
         id="g84">
        <circle
           cx="132.52"
           cy="121.26"
           r="3.2658999"
           fill="#5c4735"
           style="paint-order:fill markers stroke"
           id="circle83" />
      </g>
      <g
         transform="matrix(0.051852,0,0,0.038807,31.995,9.7217)"
         fill="#f6f2ef"
         id="g85">
        <circle
           cx="132.52"
           cy="121.26"
           r="3.2658999"
           fill="#bea58f"
           style="paint-order:fill markers stroke"
           id="circle84" />
      </g>
      <path
         d="m 38.87,14.332 a 0.018949,0.082758 2.5757 0 0 -0.02016,0.05529 0.10469,0.018949 23.938 0 0 -0.07906,-0.01498 0.10469,0.018949 23.938 0 0 0.05219,0.04289 0.018949,0.10469 66.062 0 0 -0.05219,0.04237 0.018949,0.10469 66.062 0 0 0.07648,-0.01447 0.018949,0.082758 2.5757 0 0 0.01499,0.05426 0.018949,0.082758 2.5757 0 0 0.02067,-0.05478 0.10469,0.018949 23.938 0 0 0.07906,0.01499 0.10469,0.018949 23.938 0 0 -0.05219,-0.04237 0.018949,0.10469 66.062 0 0 0.05219,-0.04289 0.018949,0.10469 66.062 0 0 -0.077,0.01447 0.018949,0.082758 2.5757 0 0 -0.01499,-0.05478 z"
         fill="#433426"
         id="path85" />
    </g>
    <g
       transform="translate(-23.272,-5.8012)"
       id="g89">
      <g
         transform="matrix(0.05375,0,0,0.044041,31.743,9.0969)"
         fill="#5c4735"
         id="g87">
        <circle
           cx="132.52"
           cy="121.26"
           r="3.2658999"
           fill="#5c4735"
           style="paint-order:fill markers stroke"
           id="circle86" />
      </g>
      <g
         transform="matrix(0.051852,0,0,0.038807,31.995,9.7217)"
         fill="#f6f2ef"
         id="g88">
        <circle
           cx="132.52"
           cy="121.26"
           r="3.2658999"
           fill="#bea58f"
           style="paint-order:fill markers stroke"
           id="circle87" />
      </g>
      <path
         d="m 38.87,14.332 a 0.018949,0.082758 2.5757 0 0 -0.02016,0.05529 0.10469,0.018949 23.938 0 0 -0.07906,-0.01498 0.10469,0.018949 23.938 0 0 0.05219,0.04289 0.018949,0.10469 66.062 0 0 -0.05219,0.04237 0.018949,0.10469 66.062 0 0 0.07648,-0.01447 0.018949,0.082758 2.5757 0 0 0.01499,0.05426 0.018949,0.082758 2.5757 0 0 0.02067,-0.05478 0.10469,0.018949 23.938 0 0 0.07906,0.01499 0.10469,0.018949 23.938 0 0 -0.05219,-0.04237 0.018949,0.10469 66.062 0 0 0.05219,-0.04289 0.018949,0.10469 66.062 0 0 -0.077,0.01447 0.018949,0.082758 2.5757 0 0 -0.01499,-0.05478 z"
         fill="#433426"
         id="path88" />
    </g>
    <path
       d="m 13.12,9.0822 c -0.02105,0 -0.02613,0.021017 -0.03824,0.03824 l -0.27285,0.3886 c -0.01211,0.017223 0.01667,0.03824 0.03772,0.03824 h 0.55551 c 0.02105,0 0.04943,-0.020743 0.03772,-0.03824 L 13.17993,9.12044 C 13.16822,9.102943 13.16274,9.0822 13.14169,9.0822 Z m 0.0047,0.14469 c 0.01791,0 0.03204,0.017187 0.03204,0.03824 v 0.084748 c 0,0.021053 -0.01414,0.03824 -0.03204,0.03824 -0.01791,0 -0.03256,-0.017187 -0.03256,-0.03824 V 9.26513 c 0,-0.021053 0.01466,-0.03824 0.03256,-0.03824 z m -0.0021,0.18396 a 0.029972,0.026871 0 0 1 0.0021,0 0.029972,0.026871 0 0 1 0.02997,0.026871 0.029972,0.026871 0 0 1 -0.02997,0.026871 0.029972,0.026871 0 0 1 -0.02997,-0.026871 0.029972,0.026871 0 0 1 0.0279,-0.026871 z"
       fill="#ffffff"
       id="path89" />
  </g>
</svg>
