<?xml version="1.0" encoding="UTF-8" standalone="no"?>
<svg
   width="64"
   height="64"
   viewBox="0 0 16.933 16.933"
   version="1.1"
   id="svg16"
   sodipodi:docname="gnome-music.svg"
   inkscape:version="1.4.2 (ebf0e940d0, 2025-05-08)"
   xmlns:inkscape="http://www.inkscape.org/namespaces/inkscape"
   xmlns:sodipodi="http://sodipodi.sourceforge.net/DTD/sodipodi-0.dtd"
   xmlns:xlink="http://www.w3.org/1999/xlink"
   xmlns="http://www.w3.org/2000/svg"
   xmlns:svg="http://www.w3.org/2000/svg">
  <sodipodi:namedview
     id="namedview16"
     pagecolor="#ffffff"
     bordercolor="#000000"
     borderopacity="0.25"
     inkscape:showpageshadow="2"
     inkscape:pageopacity="0.0"
     inkscape:pagecheckerboard="0"
     inkscape:deskcolor="#d1d1d1"
     inkscape:zoom="12.890625"
     inkscape:cx="32.038788"
     inkscape:cy="32"
     inkscape:window-width="1920"
     inkscape:window-height="1015"
     inkscape:window-x="0"
     inkscape:window-y="32"
     inkscape:window-maximized="1"
     inkscape:current-layer="svg16" />
  <defs
     id="defs11">
    <linearGradient
       id="g"
       x1="328.2"
       x2="328.2"
       y1="50.301"
       y2="95.039"
       gradientTransform="translate(-33.683 -.076)scale(.12734)"
       gradientUnits="userSpaceOnUse">
      <stop
         offset="0"
         stop-color="#ffffff"
         id="stop1" />
      <stop
         offset="1"
         stop-color="#f8f2ef"
         id="stop2" />
    </linearGradient>
    <linearGradient
       xlink:href="#a"
       id="d"
       x1="6.745"
       x2="10.583"
       y1="1.058"
       y2="11.312"
       gradientUnits="userSpaceOnUse" />
    <linearGradient
       id="a">
      <stop
         offset="0"
         stop-color="#ffffff"
         id="stop3" />
      <stop
         offset="1"
         stop-color="#ffffff"
         stop-opacity="0"
         id="stop4" />
    </linearGradient>
    <linearGradient
       xlink:href="#a"
       id="e"
       x1="15.081"
       x2="12.7"
       y1="14.816"
       y2="12.171"
       gradientUnits="userSpaceOnUse" />
    <linearGradient
       id="b"
       x1="8.466"
       x2="8.466"
       y1="1.058"
       y2="15.875"
       gradientUnits="userSpaceOnUse">
      <stop
         offset="0"
         stop-color="#d5b3a1"
         id="stop5" />
      <stop
         offset="1"
         stop-color="#b17250"
         id="stop6" />
    </linearGradient>
    <linearGradient
       id="h"
       x1="6.441"
       x2="12.448"
       y1="5.734"
       y2="9.86"
       gradientUnits="userSpaceOnUse">
      <stop
         offset="0"
         stop-color="#ffffff"
         id="stop7" />
      <stop
         offset=".537"
         stop-color="#ffffff"
         stop-opacity="0"
         id="stop8" />
      <stop
         offset=".671"
         stop-color="#ffffff"
         stop-opacity=".693"
         id="stop9" />
      <stop
         offset="1"
         stop-color="#ffffff"
         stop-opacity="0"
         id="stop10" />
    </linearGradient>
    <filter
       id="c"
       width="1.0239725"
       height="1.0239741"
       x="-0.011986232"
       y="-0.011987041"
       color-interpolation-filters="sRGB">
      <feGaussianBlur
         stdDeviation=".074"
         id="feGaussianBlur10" />
    </filter>
    <filter
       id="f"
       width="1.3345134"
       height="1.2622308"
       x="-0.16725672"
       y="-0.13111541"
       color-interpolation-filters="sRGB">
      <feGaussianBlur
         stdDeviation=".556"
         id="feGaussianBlur11" />
    </filter>
    <filter
       id="c-2"
       width="1.0239725"
       height="1.0239741"
       x="-0.011986232"
       y="-0.011987041"
       color-interpolation-filters="sRGB">
      <feGaussianBlur
         stdDeviation=".074"
         id="feGaussianBlur8" />
    </filter>
    <linearGradient
       xlink:href="#a"
       id="d-7"
       x1="2.598"
       x2="10.583"
       y1="2.836"
       y2="11.312"
       gradientUnits="userSpaceOnUse" />
    <linearGradient
       id="a-0"
       x1="7.9369998"
       x2="7.9369998"
       y1="15.081"
       y2="1.852"
       gradientUnits="userSpaceOnUse"
       gradientTransform="translate(3.1252e-4,0.00831245)">
      <stop
         stop-color="#ffffff"
         offset="0"
         id="stop62"
         style="stop-color:#666666;stop-opacity:1;" />
      <stop
         stop-color="#ffffff"
         offset="1"
         id="stop63" />
    </linearGradient>
  </defs>
  <path
     fill="url(#b)"
     d="m 5.36,1.058 c -1.53,0 -2.577,0.457 -3.26,1.2 -0.678,0.74 -1.042,1.8 -1.042,3 v 6.416 c 0,1.2 0.364,2.261 1.042,3.001 0.683,0.744 1.73,1.2 3.26,1.2 h 6.23 c 1.53,0 2.579,-0.456 3.26,-1.2 0.68,-0.74 1.025,-1.703 1.025,-3 V 5.5 c 0,-1.57 -0.345,-2.502 -1.024,-3.242 -0.682,-0.743 -1.73,-1.2 -3.26,-1.2 H 6.745 Z"
     id="path11"
     style="display:inline;opacity:0.5" />
  <path
     d="m 12.096,3.758 c -0.09,-0.002 -0.2,0.014 -0.34,0.045 l -2.35,0.478 -0.047,0.01 -2.13,0.42 C 6.839,4.795 6.762,5.013 6.771,5.358 l 0.007,5.386 c -0.017,0.38 -0.06,0.588 -0.494,0.658 -1.542,0.23 -1.84,0.706 -1.832,1.384 0.01,0.676 0.558,1.218 1.313,1.142 0.662,-0.074 1.156,-0.266 1.459,-0.879 0.117,-0.23 0.157,-0.71 0.128,-1.196 L 7.345,7.567 C 7.346,7.267 7.295,7.1 7.693,7.017 l 2.393,-0.482 1.421,-0.286 c 0.23,-0.047 0.34,0.032 0.344,0.293 l 0.006,3.201 c -0.018,0.38 -0.055,0.553 -0.49,0.623 -1.543,0.23 -1.846,0.74 -1.837,1.42 0.01,0.676 0.567,1.182 1.322,1.106 0.663,-0.073 1.138,-0.244 1.441,-0.856 0.118,-0.231 0.127,-0.69 0.137,-1.185 L 12.427,4.296 c 0,-0.369 -0.064,-0.532 -0.331,-0.538"
     filter="url(#f)"
     opacity="0.1"
     id="path14"
     style="display:inline" />
  <path
     fill="url(#g)"
     d="M11.765 3.22c-.09-.001-.2.014-.34.046l-2.35.477-.047.01-2.13.42c-.39.084-.467.302-.458.647l.007 5.387c-.017.379-.06.587-.494.657-1.542.23-1.84.707-1.832 1.385.01.676.558 1.218 1.313 1.142.662-.074 1.156-.266 1.459-.879.117-.23.157-.71.128-1.197L7.014 7.03c.001-.3-.05-.467.348-.55l2.393-.482 1.421-.287c.23-.047.34.032.344.293v.001l.006 3.2c-.018.38-.055.553-.49.623-1.543.23-1.846.741-1.837 1.42.01.676.567 1.183 1.322 1.107.663-.073 1.138-.245 1.441-.857.118-.23.127-.69.137-1.184l-.003-6.556c0-.368-.064-.532-.331-.537"
     id="path15" />
  <path
     fill="url(#h)"
     d="M11.765 3.22c-.09-.001-.2.014-.34.046l-2.35.477-.047.01-2.13.42c-.39.084-.467.302-.458.647l.007 5.387c-.017.379-.06.587-.494.657-1.542.23-1.84.707-1.832 1.385.01.676.558 1.218 1.313 1.142.662-.074 1.156-.266 1.459-.879.117-.23.157-.71.128-1.197L7.014 7.03c.001-.3-.05-.467.348-.55l2.393-.482 1.421-.287c.23-.047.34.032.344.293v.001l.006 3.2c-.018.38-.055.553-.49.623-1.543.23-1.846.741-1.837 1.42.01.676.567 1.183 1.322 1.107.663-.073 1.138-.245 1.441-.857.118-.23.127-.69.137-1.184l-.003-6.556c0-.368-.064-.532-.331-.537m-.003.134c.107.002.127.015.154.064.027.048.047.163.047.34l.004 6.556c-.01.493-.036.954-.123 1.123v.002c-.141.286-.313.457-.53.573-.216.116-.484.175-.806.21-.69.07-1.167-.371-1.176-.976-.004-.32.057-.564.293-.777s.672-.397 1.43-.51h.002c.234-.038.398-.114.49-.254s.102-.3.112-.492v-.004l-.007-3.203v-.004c-.001-.149-.033-.279-.134-.362s-.234-.085-.367-.058l-1.528.306-2.287.461a.8.8 0 0 0-.266.098.4.4 0 0 0-.152.176c-.057.137-.035.264-.035.406l.006 4.291v.002c.028.475-.025.954-.114 1.13l-.001.001c-.283.572-.71.735-1.354.807-.686.069-1.16-.406-1.168-1.012-.004-.32.056-.555.29-.76.235-.204.672-.38 1.43-.494q.359-.055.497-.274c.09-.146.1-.314.11-.507v-.004l-.007-5.39v-.002c-.004-.163.016-.275.061-.348s.119-.13.291-.167l2.13-.42.048-.009 2.35-.479h.001q.201-.044.309-.04"
     id="path16" />
  <rect
     x="1.0583127"
     y="1.0583124"
     width="14.817"
     height="14.817"
     rx="3.4400001"
     ry="3.4400001"
     fill="url(#a)"
     id="rect63"
     style="display:inline;opacity:0.510917;fill:url(#a-0);stroke-width:0.999999"
     inkscape:label="out2" />
  <g
     filter="url(#c)"
     opacity=".35"
     id="g12"
     style="display:inline;opacity:0.943228;filter:url(#c-2)"
     transform="matrix(1.0039068,0,0,1.0013024,-0.09010518,-0.08781228)"
     inkscape:label="out">
    <path
       fill="url(#d)"
       d="m 5.36,1.058 c -1.53,0 -2.577,0.457 -3.26,1.2 -0.678,0.74 -1.042,1.8 -1.042,3.001 v 6.415 c 0,1.2 0.364,2.26 1.043,3 0.682,0.744 1.73,1.2 3.26,1.2 h 6.23 c 1.53,0 2.577,-0.456 3.26,-1.2 0.678,-0.739 1.024,-1.702 1.024,-3 V 5.5 c 0,-1.57 -0.346,-2.502 -1.024,-3.242 -0.683,-0.743 -1.73,-1.2 -3.26,-1.2 H 6.745 Z m 0,0.264 h 6.232 c 1.477,0 2.437,0.432 3.064,1.116 0.634,0.69 0.954,1.53 0.954,3.062 v 6.174 c 0,1.251 -0.322,2.134 -0.954,2.822 -0.627,0.684 -1.587,1.114 -3.064,1.114 H 5.359 C 3.882,15.61 2.922,15.18 2.295,14.496 1.67,13.814 1.322,12.821 1.322,11.674 V 5.26 C 1.322,4.112 1.67,3.12 2.295,2.438 2.922,1.754 3.882,1.322 5.359,1.322"
       id="path11-0"
       style="fill:url(#d-7)"
       inkscape:label="outtt" />
    <path
       fill="url(#e)"
       d="m 5.36,1.058 c -1.53,0 -2.577,0.457 -3.26,1.2 -0.678,0.74 -1.042,1.8 -1.042,3.001 v 6.415 c 0,1.2 0.364,2.26 1.043,3 0.682,0.744 1.73,1.2 3.26,1.2 h 6.23 c 1.53,0 2.577,-0.456 3.26,-1.2 0.678,-0.739 1.024,-1.702 1.024,-3 V 5.5 c 0,-1.57 -0.346,-2.502 -1.024,-3.242 -0.683,-0.743 -1.73,-1.2 -3.26,-1.2 H 6.745 Z m 0,0.264 h 6.232 c 1.477,0 2.437,0.432 3.064,1.116 0.634,0.69 0.954,1.53 0.954,3.062 v 6.174 c 0,1.251 -0.322,2.134 -0.954,2.822 -0.627,0.684 -1.587,1.114 -3.064,1.114 H 5.359 C 3.882,15.61 2.922,15.18 2.295,14.496 1.67,13.814 1.322,12.821 1.322,11.674 V 5.26 C 1.322,4.112 1.67,3.12 2.295,2.438 2.922,1.754 3.882,1.322 5.359,1.322"
       id="path12"
       style="fill:url(#e)"
       inkscape:label="outt" />
  </g>
</svg>
