<?xml version="1.0" encoding="UTF-8" standalone="no"?>
<svg
   width="64"
   height="64"
   version="1.1"
   id="svg23"
   sodipodi:docname="indicator-weather.svg"
   inkscape:version="1.4.2 (ebf0e940d0, 2025-05-08)"
   xmlns:inkscape="http://www.inkscape.org/namespaces/inkscape"
   xmlns:sodipodi="http://sodipodi.sourceforge.net/DTD/sodipodi-0.dtd"
   xmlns:xlink="http://www.w3.org/1999/xlink"
   xmlns="http://www.w3.org/2000/svg"
   xmlns:svg="http://www.w3.org/2000/svg">
  <sodipodi:namedview
     id="namedview23"
     pagecolor="#ffffff"
     bordercolor="#000000"
     borderopacity="0.25"
     inkscape:showpageshadow="2"
     inkscape:pageopacity="0.0"
     inkscape:pagecheckerboard="0"
     inkscape:deskcolor="#d1d1d1"
     inkscape:zoom="12.890625"
     inkscape:cx="32.038788"
     inkscape:cy="32"
     inkscape:window-width="1920"
     inkscape:window-height="1015"
     inkscape:window-x="0"
     inkscape:window-y="32"
     inkscape:window-maximized="1"
     inkscape:current-layer="svg23" />
  <defs
     id="defs17">
    <linearGradient
       id="a"
       x1="8.466"
       x2="8.466"
       y1="1.058"
       y2="15.875"
       gradientTransform="scale(3.7796)"
       gradientUnits="userSpaceOnUse">
      <stop
         offset="0"
         stop-color="#e2cabd"
         id="stop1" />
      <stop
         offset="1"
         stop-color="#b98062"
         id="stop2" />
    </linearGradient>
    <linearGradient
       id="e"
       x1="29.75"
       x2="29.75"
       y1="25"
       y2="47"
       gradientUnits="userSpaceOnUse">
      <stop
         offset="0"
         stop-color="#ffffff"
         id="stop3" />
      <stop
         offset="1"
         stop-color="#e2cabd"
         id="stop4" />
    </linearGradient>
    <linearGradient
       id="b"
       x1="42.25"
       x2="42.25"
       y1="18.035"
       y2="32.167"
       gradientUnits="userSpaceOnUse">
      <stop
         offset="0"
         stop-color="#ffffff"
         id="stop5" />
      <stop
         offset="1"
         stop-color="#f3eae5"
         id="stop6" />
    </linearGradient>
    <linearGradient
       id="f"
       x1="29.75"
       x2="29.75"
       y1="19.622"
       y2="47.877"
       gradientUnits="userSpaceOnUse">
      <stop
         offset="0"
         stop-color="#ffffff"
         id="stop7" />
      <stop
         offset="1"
         stop-color="#ffffff"
         stop-opacity=".6"
         id="stop8" />
    </linearGradient>
    <linearGradient
       id="c"
       x1="42.25"
       x2="42.25"
       y1="15.5"
       y2="34"
       gradientUnits="userSpaceOnUse">
      <stop
         offset="0"
         stop-color="#ffffff"
         id="stop9" />
      <stop
         offset="1"
         stop-color="#ffffff"
         stop-opacity="0"
         id="stop10" />
    </linearGradient>
    <linearGradient
       id="k"
       x1="6.745"
       x2="10.583"
       y1="1.058"
       y2="11.312"
       gradientUnits="userSpaceOnUse">
      <stop
         offset="0"
         stop-color="#ffffff"
         id="stop11" />
      <stop
         offset="1"
         stop-color="#ffffff"
         stop-opacity="0"
         id="stop12" />
    </linearGradient>
    <linearGradient
       id="j"
       x1="15.081"
       x2="12.7"
       y1="14.816"
       y2="12.171"
       gradientUnits="userSpaceOnUse">
      <stop
         offset="0"
         stop-color="#e1c9bc"
         id="stop13" />
      <stop
         offset="1"
         stop-color="#e1c9bc"
         stop-opacity="0"
         id="stop14" />
    </linearGradient>
    <filter
       id="i"
       width="1.0239725"
       height="1.0239741"
       x="-0.011986232"
       y="-0.011987041"
       color-interpolation-filters="sRGB">
      <feGaussianBlur
         stdDeviation=".074"
         id="feGaussianBlur14" />
    </filter>
    <filter
       id="g"
       width="1.04563"
       height="1.0662943"
       x="-0.022814992"
       y="-0.033147169"
       color-interpolation-filters="sRGB">
      <feGaussianBlur
         stdDeviation=".366"
         id="feGaussianBlur15" />
    </filter>
    <filter
       id="d"
       width="1.0540279"
       height="1.0540279"
       x="-0.027013953"
       y="-0.027013953"
       color-interpolation-filters="sRGB">
      <feGaussianBlur
         stdDeviation=".242"
         id="feGaussianBlur16" />
    </filter>
    <filter
       id="h"
       width="1.4554683"
       height="1.5206087"
       x="-0.22773417"
       y="-0.26030437"
       color-interpolation-filters="sRGB">
      <feGaussianBlur
         stdDeviation="1.632"
         id="feGaussianBlur17" />
    </filter>
    <filter
       id="c-2"
       width="1.0239725"
       height="1.0239741"
       x="-0.011986232"
       y="-0.011987041"
       color-interpolation-filters="sRGB">
      <feGaussianBlur
         stdDeviation=".074"
         id="feGaussianBlur8" />
    </filter>
    <linearGradient
       xlink:href="#a-6"
       id="d-7"
       x1="2.598"
       x2="10.583"
       y1="2.836"
       y2="11.312"
       gradientUnits="userSpaceOnUse" />
    <linearGradient
       id="a-6">
      <stop
         offset="0"
         stop-color="#ffffff"
         id="stop1-2" />
      <stop
         offset="1"
         stop-color="#ffffff"
         stop-opacity="0"
         id="stop2-9" />
    </linearGradient>
    <linearGradient
       xlink:href="#a-6"
       id="e-0"
       x1="15.081"
       x2="12.7"
       y1="14.816"
       y2="12.171"
       gradientUnits="userSpaceOnUse" />
    <linearGradient
       id="a-0"
       x1="7.9369998"
       x2="7.9369998"
       y1="15.081"
       y2="1.852"
       gradientUnits="userSpaceOnUse"
       gradientTransform="matrix(3.779602,0,0,3.779602,0.00118123,0.03141779)">
      <stop
         stop-color="#ffffff"
         offset="0"
         id="stop62"
         style="stop-color:#666666;stop-opacity:1;" />
      <stop
         stop-color="#ffffff"
         offset="1"
         id="stop63" />
    </linearGradient>
  </defs>
  <path
     fill="url(#a)"
     d="M 20.26,4 C 14.478,4 10.517,5.725 7.939,8.535 5.374,11.331 4,15.34 4,19.876 V 44.124 C 4,48.662 5.374,52.669 7.939,55.465 10.517,58.275 14.479,60 20.26,60 H 43.809 C 49.591,60 53.552,58.276 56.13,55.465 58.695,52.67 60,49.03 60,44.125 V 20.786 C 60,14.851 58.695,11.33 56.13,8.534 53.552,5.725 49.59,4 43.809,4 H 25.494 Z"
     id="path17"
     style="display:inline;opacity:0.49956217" />
  <path
     fill="#ffffff"
     d="M32.396 21.953a10.75 10.75 0 0 0-.896 4.297A10.75 10.75 0 0 0 42.25 37a10.75 10.75 0 0 0 6.449-2.15 9.75 9.75 0 0 0-9.45-7.35 9.8 9.8 0 0 0-2.093.226 10.75 10.75 0 0 0-4.76-5.773"
     filter="url(#h)"
     style="mix-blend-mode:normal"
     id="path21" />
  <rect
     x="4.0000005"
     y="3.9999998"
     width="56.002365"
     height="56.002365"
     rx="13.001831"
     ry="13.001831"
     fill="url(#a)"
     id="rect63"
     style="display:inline;opacity:0.510917;fill:url(#a-0);stroke-width:3.7796"
     inkscape:label="out2" />
  <g
     filter="url(#c)"
     opacity=".35"
     id="g12"
     style="display:inline;opacity:0.943228;filter:url(#c-2)"
     transform="matrix(3.7943681,0,0,3.7845246,-0.34056169,-0.33189543)"
     inkscape:label="out">
    <path
       fill="url(#d)"
       d="m 5.36,1.058 c -1.53,0 -2.577,0.457 -3.26,1.2 -0.678,0.74 -1.042,1.8 -1.042,3.001 v 6.415 c 0,1.2 0.364,2.26 1.043,3 0.682,0.744 1.73,1.2 3.26,1.2 h 6.23 c 1.53,0 2.577,-0.456 3.26,-1.2 0.678,-0.739 1.024,-1.702 1.024,-3 V 5.5 c 0,-1.57 -0.346,-2.502 -1.024,-3.242 -0.683,-0.743 -1.73,-1.2 -3.26,-1.2 H 6.745 Z m 0,0.264 h 6.232 c 1.477,0 2.437,0.432 3.064,1.116 0.634,0.69 0.954,1.53 0.954,3.062 v 6.174 c 0,1.251 -0.322,2.134 -0.954,2.822 -0.627,0.684 -1.587,1.114 -3.064,1.114 H 5.359 C 3.882,15.61 2.922,15.18 2.295,14.496 1.67,13.814 1.322,12.821 1.322,11.674 V 5.26 C 1.322,4.112 1.67,3.12 2.295,2.438 2.922,1.754 3.882,1.322 5.359,1.322"
       id="path11"
       style="fill:url(#d-7)"
       inkscape:label="outtt" />
    <path
       fill="url(#e)"
       d="m 5.36,1.058 c -1.53,0 -2.577,0.457 -3.26,1.2 -0.678,0.74 -1.042,1.8 -1.042,3.001 v 6.415 c 0,1.2 0.364,2.26 1.043,3 0.682,0.744 1.73,1.2 3.26,1.2 h 6.23 c 1.53,0 2.577,-0.456 3.26,-1.2 0.678,-0.739 1.024,-1.702 1.024,-3 V 5.5 c 0,-1.57 -0.346,-2.502 -1.024,-3.242 -0.683,-0.743 -1.73,-1.2 -3.26,-1.2 H 6.745 Z m 0,0.264 h 6.232 c 1.477,0 2.437,0.432 3.064,1.116 0.634,0.69 0.954,1.53 0.954,3.062 v 6.174 c 0,1.251 -0.322,2.134 -0.954,2.822 -0.627,0.684 -1.587,1.114 -3.064,1.114 H 5.359 C 3.882,15.61 2.922,15.18 2.295,14.496 1.67,13.814 1.322,12.821 1.322,11.674 V 5.26 C 1.322,4.112 1.67,3.12 2.295,2.438 2.922,1.754 3.882,1.322 5.359,1.322"
       id="path12"
       style="fill:url(#e-0)"
       inkscape:label="outt" />
  </g>
  <circle
     cx="42.25"
     cy="26.25"
     r="10.75"
     fill="url(#b)"
     id="circle17" />
  <path
     fill="url(#c)"
     d="M42.25 15.5A10.75 10.75 0 0 0 31.5 26.25 10.75 10.75 0 0 0 42.25 37 10.75 10.75 0 0 0 53 26.25 10.75 10.75 0 0 0 42.25 15.5m0 1A9.75 9.75 0 0 1 52 26.25 9.75 9.75 0 0 1 42.25 36a9.75 9.75 0 0 1-9.75-9.75 9.75 9.75 0 0 1 9.75-9.75"
     filter="url(#d)"
     style="mix-blend-mode:overlay"
     id="path18" />
  <path
     fill="url(#e)"
     d="M27 20.5a10.75 10.75 0 0 0-10.721 9.947 8.5 8.5 0 0 0-5.78 8.053A8.5 8.5 0 0 0 19 47h20v-.004l.25.004A9.75 9.75 0 0 0 49 37.25a9.75 9.75 0 0 0-9.75-9.75 9.8 9.8 0 0 0-2.093.227A10.75 10.75 0 0 0 27 20.5"
     id="path19" />
  <path
     fill="url(#f)"
     d="M27 20.5a10.75 10.75 0 0 0-10.721 9.947 8.5 8.5 0 0 0-5.78 8.053A8.5 8.5 0 0 0 19 47h20v-.004l.25.004A9.75 9.75 0 0 0 49 37.25a9.75 9.75 0 0 0-9.75-9.75 9.8 9.8 0 0 0-2.093.227A10.75 10.75 0 0 0 27 20.5m0 1a9.74 9.74 0 0 1 9.21 6.555 1 1 0 0 0 1.161.648 8.8 8.8 0 0 1 1.879-.203A8.735 8.735 0 0 1 48 37.25a8.735 8.735 0 0 1-8.97 8.746l-.042.016L39 46H19a7.485 7.485 0 0 1-7.5-7.5 7.49 7.49 0 0 1 5.1-7.105 1 1 0 0 0 .677-.874A9.736 9.736 0 0 1 27 21.5"
     filter="url(#g)"
     id="path20" />
</svg>
