<?xml version="1.0" encoding="UTF-8" standalone="no"?>
<svg
   width="64"
   height="64"
   enable-background="new 0 0 1024 1024"
   image-rendering="optimizeSpeed"
   version="1.1"
   id="svg13"
   sodipodi:docname="input-mouse.svg"
   inkscape:version="1.4.2 (ebf0e940d0, 2025-05-08)"
   xmlns:inkscape="http://www.inkscape.org/namespaces/inkscape"
   xmlns:sodipodi="http://sodipodi.sourceforge.net/DTD/sodipodi-0.dtd"
   xmlns:xlink="http://www.w3.org/1999/xlink"
   xmlns="http://www.w3.org/2000/svg"
   xmlns:svg="http://www.w3.org/2000/svg">
  <sodipodi:namedview
     id="namedview13"
     pagecolor="#ffffff"
     bordercolor="#000000"
     borderopacity="0.25"
     inkscape:showpageshadow="2"
     inkscape:pageopacity="0.0"
     inkscape:pagecheckerboard="0"
     inkscape:deskcolor="#d1d1d1"
     inkscape:zoom="12.890625"
     inkscape:cx="32.038788"
     inkscape:cy="32"
     inkscape:window-width="1920"
     inkscape:window-height="1015"
     inkscape:window-x="0"
     inkscape:window-y="32"
     inkscape:window-maximized="1"
     inkscape:current-layer="svg13" />
  <defs
     id="defs4">
    <linearGradient
       id="c"
       x1="18.601"
       x2="18.601"
       y1=".854"
       y2="49.956"
       gradientTransform="matrix(1.1117 0 0 .96015 24.948 10.068)"
       gradientUnits="userSpaceOnUse">
      <stop
         offset="0"
         stop-color="#ffffff"
         id="stop1" />
      <stop
         offset="1"
         stop-color="#ffffff"
         id="stop2" />
    </linearGradient>
    <linearGradient
       id="a"
       x1="7.937"
       x2="7.937"
       y1="15.081"
       y2="1.852"
       gradientTransform="scale(3.7796)"
       gradientUnits="userSpaceOnUse">
      <stop
         offset="0"
         stop-color="#cda58f"
         id="stop3" />
      <stop
         offset="1"
         stop-color="#ffffff"
         id="stop4" />
    </linearGradient>
    <filter
       id="b"
       width="1.1672525"
       height="1.0936005"
       x="-0.083626257"
       y="-0.046800227"
       color-interpolation-filters="sRGB">
      <feGaussianBlur
         stdDeviation=".897"
         id="feGaussianBlur4" />
    </filter>
    <filter
       id="c-2"
       width="1.0239725"
       height="1.0239741"
       x="-0.011986232"
       y="-0.011987041"
       color-interpolation-filters="sRGB">
      <feGaussianBlur
         stdDeviation=".074"
         id="feGaussianBlur8" />
    </filter>
    <linearGradient
       xlink:href="#a-6"
       id="d-7"
       x1="2.598"
       x2="10.583"
       y1="2.836"
       y2="11.312"
       gradientUnits="userSpaceOnUse" />
    <linearGradient
       id="a-6">
      <stop
         offset="0"
         stop-color="#ffffff"
         id="stop1-2" />
      <stop
         offset="1"
         stop-color="#ffffff"
         stop-opacity="0"
         id="stop2-9" />
    </linearGradient>
    <linearGradient
       xlink:href="#a-6"
       id="e-0"
       x1="15.081"
       x2="12.7"
       y1="14.816"
       y2="12.171"
       gradientUnits="userSpaceOnUse" />
    <linearGradient
       id="a-0"
       x1="7.9369998"
       x2="7.9369998"
       y1="15.081"
       y2="1.852"
       gradientUnits="userSpaceOnUse"
       gradientTransform="matrix(3.779602,0,0,3.779602,0.00118123,0.03141779)">
      <stop
         stop-color="#ffffff"
         offset="0"
         id="stop62"
         style="stop-color:#666666;stop-opacity:1;" />
      <stop
         stop-color="#ffffff"
         offset="1"
         id="stop63" />
    </linearGradient>
  </defs>
  <g
     color="#633f2c"
     image-rendering="auto"
     id="g8">
    <path
       d="M4.37.53C2.254.53.53 2.312.53 4.496v8.468c0 2.184 1.725 3.968 3.84 3.968h8.194c2.114 0 3.84-1.783 3.84-3.968V4.497c0-2.184-1.726-3.968-3.84-3.968zm.256.52h7.681c1.844 0 3.33 1.534 3.33 3.44v7.937c0 1.906-1.485 3.44-3.33 3.44h-7.68c-1.845 0-3.33-1.534-3.33-3.44V4.49c0-1.906 1.485-3.44 3.33-3.44z"
       enable-background="accumulate"
       opacity=".01"
       style="font-feature-settings:normal;font-variant-alternates:normal;font-variant-caps:normal;font-variant-east-asian:normal;font-variant-ligatures:normal;font-variant-numeric:normal;font-variant-position:normal;font-variation-settings:normal;inline-size:0;isolation:auto;mix-blend-mode:normal;shape-margin:0;shape-padding:0;text-decoration-color:#633f2c;text-decoration-line:none;text-decoration-style:solid;text-indent:0;text-orientation:mixed;text-transform:none;white-space:normal"
       transform="scale(3.7796)"
       id="path4" />
    <path
       d="M4.359.794C2.392.794.795 2.447.795 4.48v8.5c0 2.035 1.597 3.688 3.564 3.688h8.216c1.967 0 3.564-1.653 3.564-3.688v-8.5c0-2.034-1.597-3.687-3.564-3.687zm.272.256h7.672c1.842 0 3.325 1.534 3.325 3.44v7.937c0 1.906-1.483 3.44-3.325 3.44H4.63c-1.842 0-3.325-1.534-3.325-3.44V4.49c0-1.906 1.483-3.44 3.325-3.44z"
       enable-background="accumulate"
       opacity=".01"
       style="font-feature-settings:normal;font-variant-alternates:normal;font-variant-caps:normal;font-variant-east-asian:normal;font-variant-ligatures:normal;font-variant-numeric:normal;font-variant-position:normal;font-variation-settings:normal;inline-size:0;isolation:auto;mix-blend-mode:normal;shape-margin:0;shape-padding:0;text-decoration-color:#633f2c;text-decoration-line:none;text-decoration-style:solid;text-indent:0;text-orientation:mixed;text-transform:none;white-space:normal"
       transform="scale(3.7796)"
       id="path5" />
    <path
       d="M4.31 1.058c-1.866 0-3.375 1.539-3.375 3.44v8.467c0 1.9 1.57 3.439 3.435 3.439h8.2c1.866 0 3.427-1.538 3.427-3.44V4.498c0-1.9-1.51-3.439-3.375-3.439h-.097c1.794.087 3.214 1.582 3.214 3.432v7.937c0 1.906-1.506 3.44-3.377 3.44h-7.79c-1.871 0-3.377-1.534-3.377-3.44V4.49c0-1.85 1.42-3.345 3.214-3.432z"
       enable-background="accumulate"
       opacity=".03"
       style="font-feature-settings:normal;font-variant-alternates:normal;font-variant-caps:normal;font-variant-east-asian:normal;font-variant-ligatures:normal;font-variant-numeric:normal;font-variant-position:normal;font-variation-settings:normal;inline-size:0;isolation:auto;mix-blend-mode:normal;shape-margin:0;shape-padding:0;text-decoration-color:#633f2c;text-decoration-line:none;text-decoration-style:solid;text-indent:0;text-orientation:mixed;text-transform:none;white-space:normal"
       transform="scale(3.7796)"
       id="path6" />
    <path
       d="M4 46.969V49c0 6.648 5.896 12 12.544 12h30.961C54.153 61 60 55.648 60 49v-1.992a12.97 12.97 0 0 1-13 12.963H17.002A12.973 12.973 0 0 1 4 46.969"
       enable-background="accumulate"
       opacity=".03"
       style="font-feature-settings:normal;font-variant-alternates:normal;font-variant-caps:normal;font-variant-east-asian:normal;font-variant-ligatures:normal;font-variant-numeric:normal;font-variant-position:normal;font-variation-settings:normal;inline-size:0;isolation:auto;mix-blend-mode:normal;shape-margin:0;shape-padding:0;text-decoration-color:#633f2c;text-decoration-line:none;text-decoration-style:solid;text-indent:0;text-orientation:mixed;text-transform:none;white-space:normal"
       id="path7" />
    <path
       d="M1.058 11.906v.592c0 1.939 1.573 3.5 3.332 3.5h8.16c1.76 0 3.325-1.561 3.325-3.5v-.58c-.006 2.095-1.537 3.78-3.44 3.78H4.498c-1.905 0-3.44-1.692-3.44-3.792"
       enable-background="accumulate"
       opacity=".05"
       style="font-feature-settings:normal;font-variant-alternates:normal;font-variant-caps:normal;font-variant-east-asian:normal;font-variant-ligatures:normal;font-variant-numeric:normal;font-variant-position:normal;font-variation-settings:normal;inline-size:0;isolation:auto;mix-blend-mode:normal;shape-margin:0;shape-padding:0;text-decoration-color:#633f2c;text-decoration-line:none;text-decoration-style:solid;text-indent:0;text-orientation:mixed;text-transform:none;white-space:normal"
       transform="scale(3.7796)"
       id="path8" />
  </g>
  <rect
     width="56.002"
     height="56.002"
     x="4"
     y="3.969"
     fill="url(#a)"
     rx="13.002"
     ry="13.002"
     id="rect8"
     style="opacity:0.49956217" />
  <path
     d="M31.053 11.95c-2.926.032-6.07.3-8.214 2.308-3.283 3.078-2.869 5.207-3.191 9.42-.658 8.598-.404 20.382 1.345 28.848.513 2.483 2.855 4.231 5.34 4.71 1.907.367 3.88.645 5.854.712 1.975-.067 3.947-.345 5.854-.713 2.485-.478 4.827-2.226 5.34-4.709 1.749-8.466 2.003-20.25 1.345-28.849-.322-4.212.092-6.34-3.19-9.418-2.144-2.01-5.29-2.277-8.215-2.309-.382-.004-.762 0-1.134 0s-.751-.004-1.134 0"
     color="#633f2c"
     enable-background="accumulate"
     filter="url(#b)"
     opacity=".35"
     transform="translate(0 -2.448)"
     id="path9" />
  <path
     fill="url(#c)"
     d="M31.053 11.45c-2.926.032-6.07.3-8.214 2.308-3.283 3.078-2.869 5.207-3.191 9.42-.658 8.598-.404 20.382 1.345 28.848.513 2.483 2.855 4.231 5.34 4.71 1.907.367 3.88.645 5.854.712 1.975-.067 3.947-.345 5.854-.713 2.485-.478 4.827-2.226 5.34-4.709 1.749-8.466 2.003-20.25 1.345-28.849-.322-4.212.092-6.34-3.19-9.418-2.144-2.01-5.29-2.277-8.215-2.309-.382-.004-.762 0-1.134 0s-.751-.004-1.134 0"
     color="#633f2c"
     enable-background="accumulate"
     transform="translate(0 -2.448)"
     id="path10" />
  <path
     fill="#bd886c"
     fill-opacity=".588"
     d="M32.187 15c.554 0 1 .55 1 1.232v3.536c0 .683-.446 1.232-1 1.232s-1-.55-1-1.232v-3.536c0-.682.446-1.232 1-1.232"
     id="path11" />
  <path
     fill="#bd886c"
     fill-opacity=".588"
     d="M32.187 16c.554 0 1 .55 1 1.232v3.536c0 .683-.446 1.232-1 1.232s-1-.55-1-1.232v-3.536c0-.682.446-1.232 1-1.232"
     id="path12" />
  <path
     fill="#ecddd5"
     d="M31.35 48.268c-.021-.005-.032-.009-.024-.01a.8.8 0 0 1-.328-.199 3.3 3.3 0 0 1-.413-.537 3.2 3.2 0 0 1-.406-1.095 2.5 2.5 0 0 1-.007-.77c.116-.654.605-1.112 1.188-1.112.12 0 .206.017.373.076.382.133.381.133.446.133.05 0 .09-.01.193-.046.475-.167.508-.175.703-.174.263 0 .515.082.708.225.074.055.172.152.215.212l.02.03-.083.063a1.05 1.05 0 0 0-.437.972c.01.133.032.232.08.348.086.214.295.44.502.548.036.018.065.039.065.045 0 .031-.08.23-.151.371-.11.219-.255.437-.42.628a.8.8 0 0 1-.408.267c-.034.007-.055.015-.048.018.008.003-.018.005-.058.007-.042 0-.067-.003-.06-.008q.013-.008-.041-.014a1.7 1.7 0 0 1-.325-.102 1 1 0 0 0-.426-.076c-.13.006-.211.023-.349.074a3 3 0 0 1-.31.103c-.02.005-.036.01-.034.014q.003.009-.017.01l-.066.004a.3.3 0 0 1-.082-.005m.816-3.824c-.013-.012-.007-.188.008-.261.055-.265.243-.53.483-.68.102-.064.237-.123.332-.146.04-.009.069-.02.065-.023q-.003-.007.023-.007a.2.2 0 0 0 .043-.005c.03-.012 0 .266-.041.397-.1.314-.36.599-.629.688-.097.032-.267.055-.284.037"
     id="path13" />
  <rect
     x="4.0000005"
     y="3.9999998"
     width="56.002365"
     height="56.002365"
     rx="13.001831"
     ry="13.001831"
     fill="url(#a)"
     id="rect63"
     style="display:inline;opacity:0.510917;fill:url(#a-0);stroke-width:3.7796"
     inkscape:label="out2" />
  <g
     filter="url(#c)"
     opacity=".35"
     id="g12"
     style="display:inline;opacity:0.943228;filter:url(#c-2)"
     transform="matrix(3.7943681,0,0,3.7845246,-0.34056169,-0.33189543)"
     inkscape:label="out">
    <path
       fill="url(#d)"
       d="m 5.36,1.058 c -1.53,0 -2.577,0.457 -3.26,1.2 -0.678,0.74 -1.042,1.8 -1.042,3.001 v 6.415 c 0,1.2 0.364,2.26 1.043,3 0.682,0.744 1.73,1.2 3.26,1.2 h 6.23 c 1.53,0 2.577,-0.456 3.26,-1.2 0.678,-0.739 1.024,-1.702 1.024,-3 V 5.5 c 0,-1.57 -0.346,-2.502 -1.024,-3.242 -0.683,-0.743 -1.73,-1.2 -3.26,-1.2 H 6.745 Z m 0,0.264 h 6.232 c 1.477,0 2.437,0.432 3.064,1.116 0.634,0.69 0.954,1.53 0.954,3.062 v 6.174 c 0,1.251 -0.322,2.134 -0.954,2.822 -0.627,0.684 -1.587,1.114 -3.064,1.114 H 5.359 C 3.882,15.61 2.922,15.18 2.295,14.496 1.67,13.814 1.322,12.821 1.322,11.674 V 5.26 C 1.322,4.112 1.67,3.12 2.295,2.438 2.922,1.754 3.882,1.322 5.359,1.322"
       id="path11-2"
       style="fill:url(#d-7)"
       inkscape:label="outtt" />
    <path
       fill="url(#e)"
       d="m 5.36,1.058 c -1.53,0 -2.577,0.457 -3.26,1.2 -0.678,0.74 -1.042,1.8 -1.042,3.001 v 6.415 c 0,1.2 0.364,2.26 1.043,3 0.682,0.744 1.73,1.2 3.26,1.2 h 6.23 c 1.53,0 2.577,-0.456 3.26,-1.2 0.678,-0.739 1.024,-1.702 1.024,-3 V 5.5 c 0,-1.57 -0.346,-2.502 -1.024,-3.242 -0.683,-0.743 -1.73,-1.2 -3.26,-1.2 H 6.745 Z m 0,0.264 h 6.232 c 1.477,0 2.437,0.432 3.064,1.116 0.634,0.69 0.954,1.53 0.954,3.062 v 6.174 c 0,1.251 -0.322,2.134 -0.954,2.822 -0.627,0.684 -1.587,1.114 -3.064,1.114 H 5.359 C 3.882,15.61 2.922,15.18 2.295,14.496 1.67,13.814 1.322,12.821 1.322,11.674 V 5.26 C 1.322,4.112 1.67,3.12 2.295,2.438 2.922,1.754 3.882,1.322 5.359,1.322"
       id="path12-6"
       style="fill:url(#e-0)"
       inkscape:label="outt" />
  </g>
</svg>
