<?xml version="1.0" encoding="UTF-8" standalone="no"?>
<svg
   width="64"
   height="64"
   version="1.1"
   viewBox="0 0 64 64"
   id="svg24"
   sodipodi:docname="io.github.kolunmi.Bazaar.svg"
   inkscape:version="1.4.2 (ebf0e940d0, 2025-05-08)"
   xmlns:inkscape="http://www.inkscape.org/namespaces/inkscape"
   xmlns:sodipodi="http://sodipodi.sourceforge.net/DTD/sodipodi-0.dtd"
   xmlns:xlink="http://www.w3.org/1999/xlink"
   xmlns="http://www.w3.org/2000/svg"
   xmlns:svg="http://www.w3.org/2000/svg">
  <sodipodi:namedview
     id="namedview24"
     pagecolor="#ffffff"
     bordercolor="#000000"
     borderopacity="0.25"
     inkscape:showpageshadow="2"
     inkscape:pageopacity="0.0"
     inkscape:pagecheckerboard="0"
     inkscape:deskcolor="#d1d1d1"
     inkscape:zoom="14.49"
     inkscape:cx="32.022084"
     inkscape:cy="31.987578"
     inkscape:window-width="1920"
     inkscape:window-height="1015"
     inkscape:window-x="0"
     inkscape:window-y="32"
     inkscape:window-maximized="1"
     inkscape:current-layer="svg24" />
  <defs
     id="defs2">
    <filter
       id="filter9"
       x="-0.012"
       y="-0.012"
       width="1.024"
       height="1.024"
       color-interpolation-filters="sRGB">
      <feGaussianBlur
         stdDeviation="0.074082"
         id="feGaussianBlur1" />
    </filter>
    <linearGradient
       id="linearGradient3"
       x1="8.4665"
       x2="8.4665"
       y1="1.0583"
       y2="15.875"
       gradientTransform="scale(3.7796)"
       gradientUnits="userSpaceOnUse">
      <stop
         stop-color="#ffffff"
         offset="0"
         id="stop1"
         style="stop-color:#ffffff;stop-opacity:1;" />
      <stop
         stop-color="#ffffff"
         offset="1"
         id="stop2" />
    </linearGradient>
    <filter
       id="c-2"
       width="1.0239725"
       height="1.0239741"
       x="-0.011986232"
       y="-0.011987041"
       color-interpolation-filters="sRGB">
      <feGaussianBlur
         stdDeviation=".074"
         id="feGaussianBlur8" />
    </filter>
    <linearGradient
       xlink:href="#a-6"
       id="d-7"
       x1="2.598"
       x2="10.583"
       y1="2.836"
       y2="11.312"
       gradientUnits="userSpaceOnUse" />
    <linearGradient
       id="a-6">
      <stop
         offset="0"
         stop-color="#ffffff"
         id="stop1-2" />
      <stop
         offset="1"
         stop-color="#ffffff"
         stop-opacity="0"
         id="stop2-9" />
    </linearGradient>
    <linearGradient
       xlink:href="#a-6"
       id="e-0"
       x1="15.081"
       x2="12.7"
       y1="14.816"
       y2="12.171"
       gradientUnits="userSpaceOnUse" />
    <linearGradient
       id="a-0"
       x1="7.9369998"
       x2="7.9369998"
       y1="15.081"
       y2="1.852"
       gradientUnits="userSpaceOnUse"
       gradientTransform="matrix(3.779602,0,0,3.779602,0.11449369,0.45804313)">
      <stop
         stop-color="#ffffff"
         offset="0"
         id="stop62"
         style="stop-color:#666666;stop-opacity:0.17263158;" />
      <stop
         stop-color="#ffffff"
         offset="1"
         id="stop63" />
    </linearGradient>
  </defs>
  <linearGradient
     id="a"
     x1="2"
     x2="112"
     y1="74"
     y2="74"
     gradientTransform="matrix(.5 0 0 .5 .62207 2.8257)"
     gradientUnits="userSpaceOnUse">
    <stop
       stop-color="#f4ebe7"
       offset="0"
       id="stop3" />
    <stop
       stop-color="#b47858"
       offset=".045691"
       id="stop4" />
    <stop
       stop-color="#b47858"
       offset=".43636"
       id="stop5" />
    <stop
       stop-color="#e7d4ca"
       offset=".54546"
       id="stop6" />
    <stop
       stop-color="#b47858"
       offset=".61818"
       id="stop7" />
    <stop
       stop-color="#b47858"
       offset=".936"
       id="stop8" />
    <stop
       stop-color="#8f5b40"
       offset="1"
       id="stop9" />
  </linearGradient>
  <linearGradient
     id="b"
     x1="68"
     x2="73.75"
     y1="125.75"
     y2="64"
     gradientTransform="matrix(.5 0 0 .5 .62207 2.8257)"
     gradientUnits="userSpaceOnUse">
    <stop
       stop-color="#e3cdc1"
       offset="0"
       id="stop10" />
    <stop
       stop-color="#dcc0b1"
       offset="1"
       id="stop11" />
  </linearGradient>
  <radialGradient
     id="c"
     cx="114.89"
     cy="211.32"
     r="17.152"
     gradientTransform="matrix(.52984 1.7082 -.39528 .12261 80.535 -213.32)"
     gradientUnits="userSpaceOnUse">
    <stop
       stop-color="#ecddd5"
       offset="0"
       id="stop12" />
    <stop
       stop-color="#c69980"
       stop-opacity="0"
       offset="1"
       id="stop13" />
  </radialGradient>
  <rect
     x="4.1133127"
     y="4.4266248"
     width="56.002365"
     height="56.002365"
     rx="13.001831"
     ry="13.001831"
     fill="url(#a)"
     id="rect63"
     style="display:inline;opacity:0.510917;fill:url(#a-0);stroke-width:3.7796"
     inkscape:label="out2" />
  <path
     d="m 20.26,4.0003 c -5.782,0 -9.7427,1.7243 -12.321,4.5348 -2.5651,2.7962 -3.9387,6.8037 -3.9387,11.341 v 24.248 c 0,4.5378 1.3734,8.5453 3.9387,11.341 2.5784,2.8103 6.5391,4.5348 12.321,4.5348 h 23.549 c 5.782,0 9.7427,-1.7243 12.321,-4.5348 2.5651,-2.7962 3.8703,-6.4352 3.8703,-11.341 v -23.337 c 0,-5.9351 -1.305,-9.4562 -3.8703,-12.252 C 53.5516,5.7248 49.5909,4.0003 43.809,4.0003 H 25.494 Z"
     fill="url(#linearGradient3)"
     stroke-width="3.7796"
     id="path13"
     style="display:inline;opacity:0.07608696" />
  <path
     transform="scale(3.7796)"
     d="M 5.3603,1.0583 C 3.8305,1.0583 2.7828,1.51467 2.1006,2.2582 1.42192,2.99801 1.0583,4.0584 1.0583,5.259 v 6.415 c 0,1.2006 0.36361,2.2609 1.0423,3.0008 0.68219,0.74355 1.7299,1.1999 3.2597,1.1999 h 6.2305 c 1.5298,0 2.5775,-0.45637 3.2597,-1.1999 0.67868,-0.73981 1.0242,-1.7027 1.0242,-3.0008 V 5.4998 C 15.8747,3.9295 15.52918,2.998 14.8505,2.2582 14.16831,1.51465 13.1206,1.0583 11.5908,1.0583 H 6.7452 Z M 5.35927,1.32236 h 6.2326 c 1.4772,0 2.437,0.43133 3.0644,1.1152 0.63411,0.69126 0.95341,1.5307 0.95341,3.0623 v 6.1742 c 0,1.2512 -0.32181,2.1335 -0.95341,2.822 -0.6274,0.68381 -1.5871,1.1136 -3.0644,1.1136 h -6.2326 c -1.4772,0 -2.437,-0.42978 -3.0644,-1.1136 -0.62537,-0.68172 -0.97253,-1.6747 -0.97253,-2.822 v -6.4145 c 0,-1.1472 0.34717,-2.1403 0.97253,-2.822 0.6274,-0.68381 1.5871,-1.1152 3.0644,-1.1152 z"
     fill="#ffffff"
     filter="url(#filter9)"
     id="path14"
     style="display:inline;opacity:0.105499" />
  <g
     transform="matrix(0.67267,0,0,0.67267,10.163,8.5466)"
     stroke-width="0.5"
     id="g24"
     style="display:inline">
    <path
       d="m 53.876,10.419 c -1.1934,1.0566 -2.3984,2.543 -3.627,3.5898 -0.61523,0.52344 -1.2266,0.92774 -1.793,1.1328 -0.56836,0.20312 -1.0684,0.22852 -1.6289,0.01367 -0.38672,-0.14648 -0.82031,0.04687 -0.96875,0.43359 -0.14648,0.38672 0.04687,0.82031 0.43359,0.9668 0.91016,0.34766 1.8438,0.29297 2.6719,-0.0039 0.82617,-0.29688 1.5645,-0.8125 2.2578,-1.4023 1.3848,-1.1777 2.6152,-2.6914 3.6465,-3.6074 0.31054,-0.27344 0.33984,-0.74805 0.06641,-1.0586 -0.27539,-0.30859 -0.75,-0.33789 -1.0586,-0.06445 z"
       fill="#b67c5c"
       id="path15" />
    <path
       d="m 54.814,11.451 c -0.98438,0.87305 -2.7129,1.7363 -4.2246,2.8164 -1.5117,1.0781 -2.9141,2.5137 -2.8418,4.5527 0.0078,0.19922 0.0918,0.38867 0.23828,0.52344 0.14648,0.13672 0.33984,0.20898 0.53711,0.20117 0.19922,-0.0078 0.38867,-0.0918 0.52344,-0.23828 0.13672,-0.14648 0.20898,-0.33984 0.20117,-0.53711 -0.04687,-1.3379 0.8457,-2.3066 2.2129,-3.2813 1.3672,-0.97461 3.1055,-1.8125 4.3457,-2.9121 0.31054,-0.27539 0.33984,-0.75 0.0664,-1.0586 -0.27539,-0.31055 -0.75,-0.33984 -1.0586,-0.06641 z"
       fill="#b67c5c"
       id="path16" />
    <path
       d="M 52.2,13.105 C 50.1512,11.0562 47.3758,9.898 44.4773,9.8823 L 29.4833,9.800269 c -3.2324,-0.015625 -6.3359,1.2598 -8.6231,3.5449 l -18.137,18.139 c -1.9727,1.9727 -1.9727,5.1699 0,7.1426 l 23.975,23.973 c 1.9727,1.9746 5.1699,1.9746 7.1426,0.002 l 18.137,-18.137 c 2.2852,-2.2871 3.5605,-5.3926 3.541,-8.625 l -0.08985,-15.014 c -0.0176,-2.8984 -1.1777,-5.6719 -3.2285,-7.7207 z m -3.2891,3.3027 c 1.6172,1.6152 1.6172,4.2363 0,5.8535 -1.6152,1.6152 -4.2363,1.6152 -5.8516,0 -1.6172,-1.6172 -1.6172,-4.2383 0,-5.8535 1.6152,-1.6172 4.2363,-1.6172 5.8516,0 z"
       fill="url(#a)"
       id="path17" />
    <path
       d="M 52.2,12.105 C 50.1512,10.0562 47.3758,8.898 44.4773,8.8823 L 29.4833,8.800269 c -3.2324,-0.015625 -6.3359,1.2598 -8.6231,3.5449 l -18.137,18.139 c -1.9727,1.9727 -1.9727,5.1699 0,7.1426 l 23.975,23.973 c 1.9727,1.9746 5.1699,1.9746 7.1426,0.002 l 18.137,-18.137 c 2.2852,-2.2871 3.5605,-5.3926 3.541,-8.625 l -0.08985,-15.014 c -0.0176,-2.8984 -1.1777,-5.6719 -3.2285,-7.7207 z m -3.2891,3.3027 c 1.6172,1.6152 1.6172,4.2363 0,5.8535 -1.6152,1.6152 -4.2363,1.6152 -5.8516,0 -1.6172,-1.6172 -1.6172,-4.2383 0,-5.8535 1.6152,-1.6172 4.2363,-1.6172 5.8516,0 z"
       fill="url(#b)"
       id="path18" />
    <path
       d="m 52.542,8.3941 c -1.207,0.035155 -2.3984,0.61328 -3.1406,1.7227 l -3.5273,5.293 c -0.23047,0.34375 -0.13672,0.81055 0.20703,1.041 0.3457,0.22852 0.81055,0.13477 1.041,-0.20898 l 3.5273,-5.291 c 0.9336,-1.4004 2.9141,-1.4551 3.9219,-0.10938 l 0.65234,0.86914 c 1.0645,1.418 0.50391,3.416 -1.1426,4.0742 l -5.8613,2.3438 c -0.38477,0.1543 -0.57227,0.5918 -0.41797,0.97461 0.1543,0.38477 0.58984,0.57227 0.97461,0.41992 l 5.8613,-2.3457 c 2.5273,-1.0117 3.4199,-4.1895 1.7852,-6.3672 L 55.77252,9.94107 c -0.80078,-1.0684 -2.0234,-1.5801 -3.2305,-1.5469 z"
       fill="#c69980"
       id="path19" />
    <path
       d="m 52.556,8.5327 c -1.0508,0.029295 -2.0879,0.53516 -2.7383,1.5078 l -3.5273,5.293 c -0.07617,0.11524 -0.04492,0.26953 0.06836,0.3457 0.11524,0.07813 0.27148,0.04687 0.34766,-0.06836 l 3.5273,-5.293 c 1.1172,-1.6719 3.5313,-1.7383 4.7383,-0.13086 l 0.65235,0.86914 c 1.2539,1.6719 0.58398,4.0625 -1.3574,4.8379 l -5.8613,2.3457 c -0.0625,0.02539 -0.11133,0.07227 -0.13672,0.13281 -0.02734,0.0625 -0.02734,0.13086 -0.0039,0.19141 0.02539,0.0625 0.07422,0.11133 0.13477,0.13867 0.06055,0.02539 0.12891,0.02734 0.19141,0.0019 l 5.8613,-2.3457 c 2.2344,-0.89258 3.0156,-3.6777 1.5723,-5.6035 L 55.37248,9.88622 c -0.70117,-0.93555 -1.7656,-1.3828 -2.8164,-1.3535 z"
       fill="#ecddd5"
       id="path20" />
    <path
       d="m 58.577,5.6558 c -0.92969,0.048828 -1.8379,0.50781 -2.4043,1.3574 l -2.2637,3.3965 c -0.23047,0.34375 -0.13672,0.81055 0.20703,1.041 0.23828,0.15625 0.54493,0.16602 0.79102,0.02344 -0.125,0.20703 -0.14258,0.46289 -0.0449,0.68555 0.18554,0.37109 0.63476,0.52148 1.0059,0.33789 l 2.6191,-1.3105 c 0.80078,-0.40039 1.4355,-0.10156 1.8359,0.44141 0.4004,0.54102 0.5,1.2363 -0.11914,1.8848 l -3.418,3.582 c -0.53907,0.54297 -1.0606,1.1016 -1.5664,1.6738 0.13476,0.67774 0.20312,1.3652 0.20704,2.0566 v 0.0098 c 0.76563,-0.92774 1.5742,-1.8262 2.4258,-2.6875 l 0.0059,-0.0039 3.4336,-3.5957 c 1.0976,-1.1504 1.0097,-2.7696 0.24018,-3.8106 -0.77148,-1.043 -2.291,-1.6035 -3.7148,-0.89258 l -2.5938,1.2969 2.1992,-3.2949 c 0.29883,-0.45117 0.75977,-0.69141 1.2344,-0.71875 0.47266,-0.023437 0.95704,0.16602 1.3027,0.58203 l 0.99414,1.1895 c 1.0996,1.3223 1.4902,3.0957 1.0469,4.7578 l -1.3184,4.9434 c -1.2617,4.7344 -1.3008,9.7129 -0.11328,14.465 l 0.79883,3.1914 c 1.1777,4.709 -2.0781,9.3399 -6.9102,9.8223 -1.2656,0.12695 -2.4648,-0.0957 -3.5137,-0.58203 -0.002,0 -0.002,0.0019 -0.002,0 l -1.1035,1.1035 c 1.3945,0.76758 3.0313,1.1445 4.7695,0.9707 5.7129,-0.57227 9.6074,-6.1074 8.2148,-11.678 l -0.79688,-3.1914 c -1.127,-4.5059 -1.0898,-9.2246 0.10547,-13.715 l 1.3203,-4.9434 c 0.56836,-2.1328 0.06641,-4.4082 -1.3477,-6.1035 l -0.99019,-1.1895 c -0.6543,-0.78516 -1.6074,-1.1445 -2.5371,-1.0957 z"
       fill="#c69980"
       id="path21" />
    <path
       d="M 58.605,5.7925 C 57.8257,5.835468 57.0679,6.22219 56.5894,6.939 l -2.2637,3.3945 c -0.07617,0.11524 -0.0449,0.26953 0.07032,0.3457 0.11328,0.07813 0.26953,0.04687 0.3457,-0.06836 l 2.2637,-3.3965 c 0.77734,-1.166 2.4434,-1.2539 3.3398,-0.17773 l 0.99219,1.1895 c 1.2051,1.4473 1.6328,3.3867 1.1484,5.207 l -1.3184,4.9434 c -1.2422,4.6523 -1.2793,9.543 -0.11132,14.215 l 0.79883,3.1914 c 1.2481,4.9961 -2.2207,9.9277 -7.3457,10.441 -1.5996,0.1582 -3.0996,-0.20508 -4.3574,-0.93555 l -0.36133,0.36328 c 1.3691,0.82617 3.0137,1.2441 4.7676,1.0684 5.418,-0.54102 9.1016,-5.7754 7.7813,-11.059 l -0.79883,-3.1914 c -1.1465,-4.5879 -1.1094,-9.3926 0.10938,-13.965 l 1.3184,-4.9434 c 0.52734,-1.9766 0.0625,-4.084 -1.2481,-5.6543 L 60.73,6.71744 C 60.17922,6.05533 59.3823,5.75064 58.605,5.79166 Z m 0.56055,3.8731 c -0.36328,0 -0.74414,0.083984 -1.1231,0.27344 l -2.6191,1.3105 c -0.12304,0.06055 -0.17382,0.21094 -0.11132,0.33398 0.06055,0.12305 0.21094,0.17383 0.33399,0.11133 l 2.6191,-1.3086 c 1.0078,-0.50391 1.9375,-0.11914 2.4609,0.58984 0.52539,0.71094 0.61914,1.7129 -0.1582,2.5273 l -3.4277,3.5918 c -0.60352,0.61133 -1.1875,1.2402 -1.7481,1.8848 0.01955,0.24219 0.03125,0.48438 0.03515,0.72461 0.66016,-0.77734 1.3496,-1.5313 2.0703,-2.2617 h 0.002 l 3.4297,-3.5938 c 0.9375,-0.98242 0.84766,-2.293 0.20118,-3.1699 -0.44532,-0.60156 -1.1641,-1.0117 -1.9648,-1.0137 z"
       fill="url(#c)"
       id="path22" />
    <path
       d="m 24.147,38.896 c -0.76367,0.76367 -1.6133,1.2813 -2.5449,1.5488 -0.94141,0.26172 -1.8926,0.25781 -2.8535,-0.0098 -0.96875,-0.27734 -1.8789,-0.83789 -2.7266,-1.6875 l -0.31836,-0.31836 c -0.85547,-0.85547 -1.418,-1.7637 -1.6855,-2.7246 -0.27734,-0.96875 -0.2832,-1.9238 -0.02148,-2.8652 0.26172,-0.93945 0.77344,-1.791 1.5371,-2.5547 0.77148,-0.77148 1.627,-1.2871 2.5664,-1.5488 0.94141,-0.26172 1.8965,-0.25586 2.8652,0.02148 0.96875,0.26172 1.8809,0.82031 2.7363,1.6758 l 0.31836,0.31836 c 0.84766,0.84766 1.4063,1.7598 1.6758,2.7363 0.26758,0.96094 0.27148,1.9121 0.0098,2.8516 -0.26758,0.9336 -0.78906,1.7871 -1.5586,2.5566 z m -2.418,-2.418 c 0.35938,-0.36133 0.51563,-0.78516 0.4668,-1.2734 -0.05078,-0.50195 -0.375,-1.0527 -0.97656,-1.6543 l -0.31836,-0.31836 c -0.60742,-0.60742 -1.166,-0.93945 -1.6758,-0.9961 -0.50195,-0.06445 -0.93359,0.08398 -1.293,0.44531 -0.35352,0.35352 -0.5,0.78125 -0.43555,1.2832 0.0625,0.50195 0.39844,1.0566 1.0078,1.666 l 0.31836,0.31836 c 0.59961,0.59961 1.1484,0.92969 1.6426,0.98633 0.48828,0.04883 0.91016,-0.10352 1.2637,-0.45703 z m 21.594,-1.3574 c -0.76367,0.76367 -1.6113,1.2793 -2.5449,1.5488 -0.94141,0.26172 -1.8926,0.25781 -2.8535,-0.01172 -0.96875,-0.27539 -1.877,-0.83789 -2.7266,-1.6855 l -0.31641,-0.31836 c -0.85742,-0.85547 -1.418,-1.7637 -1.6875,-2.7266 -0.27539,-0.96875 -0.2832,-1.9219 -0.02148,-2.8633 0.26172,-0.93945 0.77539,-1.793 1.5391,-2.5566 0.76953,-0.76953 1.625,-1.2871 2.5664,-1.5488 0.93945,-0.25977 1.8945,-0.25391 2.8633,0.02149 0.96875,0.26172 1.8809,0.82031 2.7363,1.6758 l 0.31836,0.31836 c 0.84961,0.84961 1.4082,1.7617 1.6758,2.7363 0.26953,0.96289 0.27148,1.9141 0.01172,2.8535 -0.26953,0.9336 -0.78906,1.7852 -1.5605,2.5566 z m -2.418,-2.418 c 0.36133,-0.36133 0.51563,-0.78516 0.4668,-1.2734 -0.04883,-0.50195 -0.375,-1.0527 -0.97656,-1.6543 l -0.31641,-0.31836 c -0.60938,-0.60742 -1.168,-0.93945 -1.6777,-0.9961 -0.50195,-0.06445 -0.93164,0.08399 -1.293,0.44531 -0.35352,0.35352 -0.49805,0.78125 -0.43555,1.2832 0.06445,0.50195 0.40039,1.0566 1.0078,1.6641 l 0.31836,0.31836 c 0.60156,0.60156 1.1484,0.92969 1.6445,0.98633 0.48828,0.05078 0.9082,-0.10156 1.2617,-0.45508 z m -10.352,14.68 -4.9434,-26.666 2.7148,-2.7148 4.9434,26.664 z"
       fill="#bc8669"
       id="path23" />
    <path
       d="m 24.522,40.021 c -0.76367,0.76367 -1.6133,1.2813 -2.5449,1.5488 -0.94141,0.26172 -1.8926,0.25781 -2.8535,-0.0098 -0.96875,-0.27734 -1.8789,-0.83789 -2.7266,-1.6875 l -0.31836,-0.31836 c -0.85547,-0.85547 -1.418,-1.7637 -1.6855,-2.7246 -0.27734,-0.96875 -0.2832,-1.9238 -0.02149,-2.8652 0.26172,-0.93945 0.77344,-1.791 1.5371,-2.5547 0.77148,-0.77149 1.627,-1.2871 2.5664,-1.5488 0.94141,-0.26172 1.8965,-0.25586 2.8652,0.02148 0.96875,0.26172 1.8809,0.82031 2.7363,1.6758 l 0.31836,0.31836 c 0.84766,0.84766 1.4063,1.7598 1.6758,2.7363 0.26758,0.96094 0.27148,1.9121 0.0098,2.8516 -0.26758,0.93359 -0.78906,1.7871 -1.5586,2.5566 z m -2.418,-2.418 c 0.35938,-0.36133 0.51562,-0.78516 0.4668,-1.2734 -0.05078,-0.50195 -0.375,-1.0527 -0.97656,-1.6543 l -0.31836,-0.31836 c -0.60742,-0.60742 -1.166,-0.93945 -1.6758,-0.9961 -0.50195,-0.06445 -0.9336,0.08398 -1.293,0.44531 -0.35352,0.35352 -0.5,0.78125 -0.43555,1.2832 0.0625,0.50195 0.39844,1.0566 1.0078,1.666 l 0.31836,0.31836 c 0.59961,0.59961 1.1484,0.92969 1.6426,0.98633 0.48828,0.04883 0.91016,-0.10352 1.2637,-0.45703 z m 21.594,-1.3574 c -0.76367,0.76367 -1.6113,1.2793 -2.5449,1.5488 -0.94141,0.26172 -1.8926,0.25781 -2.8535,-0.01172 -0.96875,-0.27539 -1.877,-0.83789 -2.7266,-1.6855 l -0.31641,-0.31836 c -0.85742,-0.85547 -1.418,-1.7637 -1.6875,-2.7266 -0.27539,-0.96875 -0.2832,-1.9219 -0.02148,-2.8633 0.26172,-0.93945 0.77539,-1.793 1.5391,-2.5566 0.76953,-0.76953 1.625,-1.2871 2.5664,-1.5488 0.93945,-0.25977 1.8945,-0.25391 2.8633,0.02148 0.96875,0.26172 1.8809,0.82031 2.7363,1.6758 l 0.31836,0.31836 c 0.84961,0.84961 1.4082,1.7617 1.6758,2.7363 0.26953,0.96289 0.27148,1.9141 0.01172,2.8535 -0.26953,0.9336 -0.78906,1.7852 -1.5605,2.5566 z m -2.418,-2.418 c 0.36133,-0.36133 0.51563,-0.78516 0.4668,-1.2734 -0.04883,-0.50195 -0.375,-1.0527 -0.97656,-1.6543 l -0.31641,-0.31836 c -0.60938,-0.60742 -1.168,-0.93945 -1.6777,-0.9961 -0.50195,-0.06445 -0.93164,0.08398 -1.293,0.44531 -0.35352,0.35352 -0.49805,0.78125 -0.43555,1.2832 0.06445,0.50195 0.40039,1.0566 1.0078,1.6641 l 0.31836,0.31836 c 0.60156,0.60156 1.1484,0.92969 1.6445,0.98633 0.48828,0.05078 0.9082,-0.10156 1.2617,-0.45508 z m -10.352,14.68 -4.9434,-26.666 2.7148,-2.7148 4.9434,26.664 z"
       fill="#ffffff"
       id="path24" />
  </g>
  <g
     filter="url(#c)"
     opacity=".35"
     id="g12"
     style="display:inline;opacity:0.5;filter:url(#c-2)"
     transform="matrix(3.7943681,0,0,3.7845246,-0.22724931,0.09472989)"
     inkscape:label="out">
    <path
       fill="url(#d)"
       d="m 5.36,1.058 c -1.53,0 -2.577,0.457 -3.26,1.2 -0.678,0.74 -1.042,1.8 -1.042,3.001 v 6.415 c 0,1.2 0.364,2.26 1.043,3 0.682,0.744 1.73,1.2 3.26,1.2 h 6.23 c 1.53,0 2.577,-0.456 3.26,-1.2 0.678,-0.739 1.024,-1.702 1.024,-3 V 5.5 c 0,-1.57 -0.346,-2.502 -1.024,-3.242 -0.683,-0.743 -1.73,-1.2 -3.26,-1.2 H 6.745 Z m 0,0.264 h 6.232 c 1.477,0 2.437,0.432 3.064,1.116 0.634,0.69 0.954,1.53 0.954,3.062 v 6.174 c 0,1.251 -0.322,2.134 -0.954,2.822 -0.627,0.684 -1.587,1.114 -3.064,1.114 H 5.359 C 3.882,15.61 2.922,15.18 2.295,14.496 1.67,13.814 1.322,12.821 1.322,11.674 V 5.26 C 1.322,4.112 1.67,3.12 2.295,2.438 2.922,1.754 3.882,1.322 5.359,1.322"
       id="path11"
       style="display:inline;fill:url(#d-7)"
       inkscape:label="outtt" />
    <path
       fill="url(#e)"
       d="m 5.36,1.058 c -1.53,0 -2.577,0.457 -3.26,1.2 -0.678,0.74 -1.042,1.8 -1.042,3.001 v 6.415 c 0,1.2 0.364,2.26 1.043,3 0.682,0.744 1.73,1.2 3.26,1.2 h 6.23 c 1.53,0 2.577,-0.456 3.26,-1.2 0.678,-0.739 1.024,-1.702 1.024,-3 V 5.5 c 0,-1.57 -0.346,-2.502 -1.024,-3.242 -0.683,-0.743 -1.73,-1.2 -3.26,-1.2 H 6.745 Z m 0,0.264 h 6.232 c 1.477,0 2.437,0.432 3.064,1.116 0.634,0.69 0.954,1.53 0.954,3.062 v 6.174 c 0,1.251 -0.322,2.134 -0.954,2.822 -0.627,0.684 -1.587,1.114 -3.064,1.114 H 5.359 C 3.882,15.61 2.922,15.18 2.295,14.496 1.67,13.814 1.322,12.821 1.322,11.674 V 5.26 C 1.322,4.112 1.67,3.12 2.295,2.438 2.922,1.754 3.882,1.322 5.359,1.322"
       id="path12"
       style="display:inline;fill:url(#e-0)"
       inkscape:label="outt" />
  </g>
</svg>
