<?xml version="1.0" encoding="UTF-8" standalone="no"?>
<svg
   width="64"
   height="64"
   version="1.1"
   id="svg8"
   sodipodi:docname="kodi.svg"
   inkscape:version="1.4.2 (ebf0e940d0, 2025-05-08)"
   xmlns:inkscape="http://www.inkscape.org/namespaces/inkscape"
   xmlns:sodipodi="http://sodipodi.sourceforge.net/DTD/sodipodi-0.dtd"
   xmlns:xlink="http://www.w3.org/1999/xlink"
   xmlns="http://www.w3.org/2000/svg"
   xmlns:svg="http://www.w3.org/2000/svg">
  <sodipodi:namedview
     id="namedview8"
     pagecolor="#ffffff"
     bordercolor="#000000"
     borderopacity="0.25"
     inkscape:showpageshadow="2"
     inkscape:pageopacity="0.0"
     inkscape:pagecheckerboard="0"
     inkscape:deskcolor="#d1d1d1"
     inkscape:zoom="13.390625"
     inkscape:cx="32.149358"
     inkscape:cy="31.925321"
     inkscape:window-width="1920"
     inkscape:window-height="1047"
     inkscape:window-x="0"
     inkscape:window-y="0"
     inkscape:window-maximized="1"
     inkscape:current-layer="svg8" />
  <defs
     id="defs2">
    <linearGradient
       id="a"
       x1="399.12"
       x2="399.12"
       y1="542.92"
       y2="520.64"
       gradientTransform="matrix(2.1314693,0,0,2.1400423,-821.93068,-1106.0177)"
       gradientUnits="userSpaceOnUse">
      <stop
         stop-color="#c5a68d"
         offset="0"
         id="stop1"
         style="stop-color:#1a1a1a;stop-opacity:1;" />
      <stop
         stop-color="#e9ded5"
         offset="1"
         id="stop2" />
    </linearGradient>
    <filter
       id="b"
       x="-0.060028441"
       y="-0.060027077"
       width="1.1200569"
       height="1.1200542"
       color-interpolation-filters="sRGB">
      <feGaussianBlur
         stdDeviation=".992"
         id="feGaussianBlur2" />
    </filter>
    <filter
       id="c"
       width="1.0239725"
       height="1.0239741"
       x="-0.011986232"
       y="-0.011987041"
       color-interpolation-filters="sRGB">
      <feGaussianBlur
         stdDeviation=".074"
         id="feGaussianBlur8" />
    </filter>
    <linearGradient
       xlink:href="#a-6"
       id="d"
       x1="2.598"
       x2="10.583"
       y1="2.836"
       y2="11.312"
       gradientUnits="userSpaceOnUse" />
    <linearGradient
       id="a-6">
      <stop
         offset="0"
         stop-color="#ffffff"
         id="stop1-2" />
      <stop
         offset="1"
         stop-color="#ffffff"
         stop-opacity="0"
         id="stop2-9" />
    </linearGradient>
    <linearGradient
       xlink:href="#a-6"
       id="e"
       x1="15.081"
       x2="12.7"
       y1="14.816"
       y2="12.171"
       gradientUnits="userSpaceOnUse" />
    <linearGradient
       id="a-5"
       x1="7.9369998"
       x2="7.9369998"
       y1="15.081"
       y2="1.852"
       gradientTransform="matrix(3.7795,0,0,3.7795,0,0.032)"
       gradientUnits="userSpaceOnUse">
      <stop
         stop-color="#ffffff"
         offset="0"
         id="stop5"
         style="stop-color:#ffffff;stop-opacity:1;" />
      <stop
         stop-color="#ffffff"
         offset="1"
         id="stop6" />
    </linearGradient>
    <linearGradient
       id="a-2"
       x1="7.9369998"
       x2="7.9369998"
       y1="15.081"
       y2="1.852"
       gradientUnits="userSpaceOnUse"
       gradientTransform="matrix(3.779602,0,0,3.7644817,0.0011812,0.0472944)">
      <stop
         stop-color="#ffffff"
         offset="0"
         id="stop62"
         style="stop-color:#676767;stop-opacity:1;" />
      <stop
         stop-color="#ffffff"
         offset="1"
         id="stop63" />
    </linearGradient>
  </defs>
  <rect
     x="4"
     y="4"
     width="56"
     height="56"
     rx="13.002"
     ry="13.002"
     fill="url(#a)"
     id="rect10"
     style="display:inline;opacity:0.5;fill:url(#a-5)" />
  <g
     color="#4a3626"
     id="g6"
     style="display:inline;opacity:1">
    <path
       d="m 4.37,0.53 c -2.116,0 -3.84,1.782 -3.84,3.966 v 8.468 c 0,2.184 1.725,3.968 3.84,3.968 h 8.194 c 2.114,0 3.84,-1.783 3.84,-3.968 V 4.497 c 0,-2.184 -1.726,-3.968 -3.84,-3.968 z m 0.256,0.52 h 7.681 c 1.844,0 3.33,1.534 3.33,3.44 v 7.937 c 0,1.906 -1.485,3.44 -3.33,3.44 h -7.68 c -1.845,0 -3.33,-1.534 -3.33,-3.44 V 4.49 c 0,-1.906 1.485,-3.44 3.33,-3.44 z"
       opacity="0.01"
       style="font-variant-ligatures:normal;font-variant-position:normal;font-variant-caps:normal;font-variant-numeric:normal;font-variant-alternates:normal;font-variant-east-asian:normal;font-feature-settings:normal;font-variation-settings:normal;text-indent:0;text-decoration-line:none;text-decoration-style:solid;text-decoration-color:#4a3626;text-transform:none;text-orientation:mixed;white-space:normal;shape-padding:0;shape-margin:0;inline-size:0;isolation:auto;mix-blend-mode:normal"
       transform="scale(3.7796)"
       id="path2" />
    <path
       d="m 4.359,0.794 c -1.967,0 -3.564,1.653 -3.564,3.686 v 8.5 c 0,2.035 1.597,3.688 3.564,3.688 h 8.216 c 1.967,0 3.564,-1.653 3.564,-3.688 v -8.5 c 0,-2.034 -1.597,-3.687 -3.564,-3.687 z M 4.631,1.05 h 7.672 c 1.842,0 3.325,1.534 3.325,3.44 v 7.937 c 0,1.906 -1.483,3.44 -3.325,3.44 H 4.63 c -1.842,0 -3.325,-1.534 -3.325,-3.44 V 4.49 c 0,-1.906 1.483,-3.44 3.325,-3.44 z"
       opacity="0.01"
       style="font-variant-ligatures:normal;font-variant-position:normal;font-variant-caps:normal;font-variant-numeric:normal;font-variant-alternates:normal;font-variant-east-asian:normal;font-feature-settings:normal;font-variation-settings:normal;text-indent:0;text-decoration-line:none;text-decoration-style:solid;text-decoration-color:#4a3626;text-transform:none;text-orientation:mixed;white-space:normal;shape-padding:0;shape-margin:0;inline-size:0;isolation:auto;mix-blend-mode:normal"
       transform="scale(3.7796)"
       id="path3" />
    <path
       d="m 4.31,1.058 c -1.866,0 -3.375,1.539 -3.375,3.44 v 8.467 c 0,1.9 1.57,3.439 3.435,3.439 h 8.2 c 1.866,0 3.427,-1.538 3.427,-3.44 V 4.498 c 0,-1.9 -1.51,-3.439 -3.375,-3.439 h -0.097 c 1.794,0.087 3.214,1.582 3.214,3.432 v 7.937 c 0,1.906 -1.506,3.44 -3.377,3.44 h -7.79 c -1.871,0 -3.377,-1.534 -3.377,-3.44 V 4.49 c 0,-1.85 1.42,-3.345 3.214,-3.432 z"
       opacity="0.03"
       style="font-variant-ligatures:normal;font-variant-position:normal;font-variant-caps:normal;font-variant-numeric:normal;font-variant-alternates:normal;font-variant-east-asian:normal;font-feature-settings:normal;font-variation-settings:normal;text-indent:0;text-decoration-line:none;text-decoration-style:solid;text-decoration-color:#4a3626;text-transform:none;text-orientation:mixed;white-space:normal;shape-padding:0;shape-margin:0;inline-size:0;isolation:auto;mix-blend-mode:normal"
       transform="scale(3.7796)"
       id="path4" />
    <path
       d="M 4,46.969 V 49 c 0,6.648 5.896,12 12.544,12 H 47.505 C 54.153,61 60,55.648 60,49 V 47.008 A 12.972,12.972 0 0 1 47,59.971 H 17.002 A 12.973,12.973 0 0 1 4,46.969 Z"
       opacity="0.03"
       style="font-variant-ligatures:normal;font-variant-position:normal;font-variant-caps:normal;font-variant-numeric:normal;font-variant-alternates:normal;font-variant-east-asian:normal;font-feature-settings:normal;font-variation-settings:normal;text-indent:0;text-decoration-line:none;text-decoration-style:solid;text-decoration-color:#4a3626;text-transform:none;text-orientation:mixed;white-space:normal;shape-padding:0;shape-margin:0;inline-size:0;isolation:auto;mix-blend-mode:normal"
       id="path5" />
    <path
       d="m 1.058,11.906 v 0.592 c 0,1.939 1.573,3.5 3.332,3.5 h 8.16 c 1.76,0 3.325,-1.561 3.325,-3.5 v -0.58 c -0.006,2.095 -1.537,3.78 -3.44,3.78 H 4.498 c -1.905,0 -3.44,-1.692 -3.44,-3.792 z"
       opacity="0.05"
       style="font-variant-ligatures:normal;font-variant-position:normal;font-variant-caps:normal;font-variant-numeric:normal;font-variant-alternates:normal;font-variant-east-asian:normal;font-feature-settings:normal;font-variation-settings:normal;text-indent:0;text-decoration-line:none;text-decoration-style:solid;text-decoration-color:#4a3626;text-transform:none;text-orientation:mixed;white-space:normal;shape-padding:0;shape-margin:0;inline-size:0;isolation:auto;mix-blend-mode:normal"
       transform="scale(3.7796)"
       id="path6" />
  </g>
  <rect
     x="4"
     y="4"
     width="55.701"
     height="55.92532"
     rx="12.932644"
     ry="12.984661"
     fill="url(#a)"
     id="rect6"
     style="display:inline;opacity:0.499256;fill:url(#a);stroke-width:0.996664" />
  <path
     d="m 32,12.17 c -0.723,0 -1.446,0.276 -2,0.83 l -6.076,6.076 V 35.23 L 40.076,19.076 34,13 A 2.819,2.819 0 0 0 32,12.17 Z M 44.924,23.924 36.846,32 44.924,40.076 51,34 a 2.822,2.822 0 0 0 0,-4 z M 17.461,25.539 13.001,30 a 2.822,2.822 0 0 0 0,4 l 4.46,4.461 z M 32,36.846 23.924,44.924 30,51.001 a 2.822,2.822 0 0 0 4,0 l 6.076,-6.077 z"
     filter="url(#b)"
     opacity="0.25"
     id="path7"
     style="display:inline" />
  <path
     d="m 32,12.17 c -0.723,0 -1.446,0.276 -2,0.83 l -6.076,6.076 V 35.23 L 40.076,19.076 34,13 A 2.819,2.819 0 0 0 32,12.17 Z M 44.924,23.924 36.846,32 44.924,40.076 51,34 a 2.822,2.822 0 0 0 0,-4 z M 17.461,25.539 13.001,30 a 2.822,2.822 0 0 0 0,4 l 4.46,4.461 z M 32,36.846 23.924,44.924 30,51.001 a 2.822,2.822 0 0 0 4,0 l 6.076,-6.077 z"
     fill="#ffffff"
     id="path8"
     style="display:inline" />
  <g
     filter="url(#c)"
     opacity=".35"
     id="g12"
     style="display:inline;opacity:0.80064"
     transform="matrix(3.779602,0,0,3.8435935,-0.3275616,-0.38389975)">
    <path
       fill="url(#d)"
       d="m 5.36,1.058 c -1.53,0 -2.577,0.457 -3.26,1.2 -0.678,0.74 -1.042,1.8 -1.042,3.001 v 6.415 c 0,1.2 0.364,2.26 1.043,3 0.682,0.744 1.73,1.2 3.26,1.2 h 6.23 c 1.53,0 2.577,-0.456 3.26,-1.2 0.678,-0.739 1.024,-1.702 1.024,-3 V 5.5 c 0,-1.57 -0.346,-2.502 -1.024,-3.242 -0.683,-0.743 -1.73,-1.2 -3.26,-1.2 H 6.745 Z m 0,0.264 h 6.232 c 1.477,0 2.437,0.432 3.064,1.116 0.634,0.69 0.954,1.53 0.954,3.062 v 6.174 c 0,1.251 -0.322,2.134 -0.954,2.822 -0.627,0.684 -1.587,1.114 -3.064,1.114 H 5.359 C 3.882,15.61 2.922,15.18 2.295,14.496 1.67,13.814 1.322,12.821 1.322,11.674 V 5.26 C 1.322,4.112 1.67,3.12 2.295,2.438 2.922,1.754 3.882,1.322 5.359,1.322"
       id="path11"
       style="fill:url(#d)" />
    <path
       fill="url(#e)"
       d="m 5.36,1.058 c -1.53,0 -2.577,0.457 -3.26,1.2 -0.678,0.74 -1.042,1.8 -1.042,3.001 v 6.415 c 0,1.2 0.364,2.26 1.043,3 0.682,0.744 1.73,1.2 3.26,1.2 h 6.23 c 1.53,0 2.577,-0.456 3.26,-1.2 0.678,-0.739 1.024,-1.702 1.024,-3 V 5.5 c 0,-1.57 -0.346,-2.502 -1.024,-3.242 -0.683,-0.743 -1.73,-1.2 -3.26,-1.2 H 6.745 Z m 0,0.264 h 6.232 c 1.477,0 2.437,0.432 3.064,1.116 0.634,0.69 0.954,1.53 0.954,3.062 v 6.174 c 0,1.251 -0.322,2.134 -0.954,2.822 -0.627,0.684 -1.587,1.114 -3.064,1.114 H 5.359 C 3.882,15.61 2.922,15.18 2.295,14.496 1.67,13.814 1.322,12.821 1.322,11.674 V 5.26 C 1.322,4.112 1.67,3.12 2.295,2.438 2.922,1.754 3.882,1.322 5.359,1.322"
       id="path12"
       style="fill:url(#e)" />
  </g>
  <rect
     x="4"
     y="4"
     width="56.002365"
     height="55.778328"
     rx="13.001831"
     ry="12.949818"
     fill="url(#a)"
     id="rect63"
     style="display:none;opacity:0.510917;fill:url(#a-2);stroke-width:3.77203" />
</svg>
