<?xml version="1.0" encoding="UTF-8" standalone="no"?>
<svg
   width="64"
   height="64"
   version="1.1"
   id="svg8"
   sodipodi:docname="libreoffice.svg"
   inkscape:version="1.4.2 (ebf0e940d0, 2025-05-08)"
   xmlns:inkscape="http://www.inkscape.org/namespaces/inkscape"
   xmlns:sodipodi="http://sodipodi.sourceforge.net/DTD/sodipodi-0.dtd"
   xmlns:xlink="http://www.w3.org/1999/xlink"
   xmlns="http://www.w3.org/2000/svg"
   xmlns:svg="http://www.w3.org/2000/svg">
  <sodipodi:namedview
     id="namedview8"
     pagecolor="#ffffff"
     bordercolor="#000000"
     borderopacity="0.25"
     inkscape:showpageshadow="2"
     inkscape:pageopacity="0.0"
     inkscape:pagecheckerboard="0"
     inkscape:deskcolor="#d1d1d1"
     inkscape:zoom="12.890625"
     inkscape:cx="32.116364"
     inkscape:cy="31.922424"
     inkscape:window-width="1920"
     inkscape:window-height="1015"
     inkscape:window-x="0"
     inkscape:window-y="32"
     inkscape:window-maximized="1"
     inkscape:current-layer="svg8" />
  <defs
     id="defs4">
    <linearGradient
       xlink:href="#a"
       id="d"
       x1="2.598"
       x2="10.583"
       y1="2.836"
       y2="11.312"
       gradientUnits="userSpaceOnUse" />
    <linearGradient
       id="a">
      <stop
         offset="0"
         stop-color="#ffffff"
         id="stop1" />
      <stop
         offset="1"
         stop-color="#ffffff"
         stop-opacity="0"
         id="stop2" />
    </linearGradient>
    <linearGradient
       xlink:href="#a"
       id="e"
       x1="15.081"
       x2="12.7"
       y1="14.816"
       y2="12.171"
       gradientUnits="userSpaceOnUse" />
    <linearGradient
       id="b"
       x1="8.466"
       x2="8.466"
       y1="1.058"
       y2="15.875"
       gradientTransform="scale(3.7796)"
       gradientUnits="userSpaceOnUse">
      <stop
         offset="0"
         stop-color="#a66a4a"
         id="stop3" />
      <stop
         offset="1"
         stop-color="#7d5038"
         id="stop4" />
    </linearGradient>
    <filter
       id="c"
       width="1.0239725"
       height="1.0239741"
       x="-0.011986232"
       y="-0.011987041"
       color-interpolation-filters="sRGB">
      <feGaussianBlur
         stdDeviation=".074"
         id="feGaussianBlur4" />
    </filter>
    <linearGradient
       id="a-3"
       x1="8.415"
       x2="8.415"
       y1="14.91"
       y2="2.0739999"
       gradientUnits="userSpaceOnUse"
       gradientTransform="matrix(3.779602,0,0,3.779602,0.0012363,0.0012363)">
      <stop
         offset="0"
         stop-color="#a5694a"
         id="stop1-5" />
      <stop
         offset="1"
         stop-color="#be8a6e"
         stop-opacity=".992"
         id="stop2-6" />
    </linearGradient>
    <filter
       id="c-2"
       width="1.0239725"
       height="1.0239741"
       x="-0.011986232"
       y="-0.011987041"
       color-interpolation-filters="sRGB">
      <feGaussianBlur
         stdDeviation=".074"
         id="feGaussianBlur8" />
    </filter>
    <linearGradient
       id="a-0"
       x1="7.9369998"
       x2="7.9369998"
       y1="15.081"
       y2="1.852"
       gradientUnits="userSpaceOnUse"
       gradientTransform="matrix(3.779602,0,0,3.779602,0.00118123,0.03141779)">
      <stop
         stop-color="#ffffff"
         offset="0"
         id="stop62"
         style="stop-color:#666666;stop-opacity:1;" />
      <stop
         stop-color="#ffffff"
         offset="1"
         id="stop63" />
    </linearGradient>
    <linearGradient
       inkscape:collect="always"
       xlink:href="#a"
       id="linearGradient1"
       gradientUnits="userSpaceOnUse"
       x1="2.598"
       y1="2.836"
       x2="10.583"
       y2="11.312" />
    <linearGradient
       inkscape:collect="always"
       xlink:href="#a"
       id="linearGradient2"
       gradientUnits="userSpaceOnUse"
       x1="15.081"
       y1="14.816"
       x2="12.7"
       y2="12.171" />
  </defs>
  <path
     fill="url(#b)"
     d="M 20.26,4 C 14.478,4 10.517,5.725 7.939,8.535 5.374,11.331 4,15.34 4,19.876 V 44.124 C 4,48.662 5.374,52.669 7.939,55.465 10.517,58.275 14.479,60 20.26,60 H 43.809 C 49.591,60 53.552,58.276 56.13,55.465 58.695,52.67 60,49.03 60,44.125 V 20.786 C 60,14.851 58.695,11.33 56.13,8.534 53.552,5.725 49.59,4 43.809,4 H 25.494 Z"
     id="path4"
     style="display:inline;opacity:0.538091"
     sodipodi:insensitive="true" />
  <g
     filter="url(#c)"
     opacity="0.25"
     transform="scale(3.7796)"
     id="g6"
     style="display:inline">
    <path
       fill="url(#d)"
       d="m 5.36,1.058 c -1.53,0 -2.577,0.457 -3.26,1.2 -0.678,0.74 -1.042,1.8 -1.042,3.001 v 6.415 c 0,1.2 0.364,2.26 1.043,3 0.682,0.744 1.73,1.2 3.26,1.2 h 6.23 c 1.53,0 2.577,-0.456 3.26,-1.2 0.678,-0.739 1.024,-1.702 1.024,-3 V 5.5 c 0,-1.57 -0.346,-2.502 -1.024,-3.242 -0.683,-0.743 -1.73,-1.2 -3.26,-1.2 H 6.745 Z m 0,0.264 h 6.232 c 1.477,0 2.437,0.432 3.064,1.116 0.634,0.69 0.954,1.53 0.954,3.062 v 6.174 c 0,1.251 -0.322,2.134 -0.954,2.822 -0.627,0.684 -1.587,1.114 -3.064,1.114 H 5.359 C 3.882,15.61 2.922,15.18 2.295,14.496 1.67,13.814 1.322,12.821 1.322,11.674 V 5.26 C 1.322,4.112 1.67,3.12 2.295,2.438 2.922,1.754 3.882,1.322 5.359,1.322"
       id="path5" />
    <path
       fill="url(#e)"
       d="m 5.36,1.058 c -1.53,0 -2.577,0.457 -3.26,1.2 -0.678,0.74 -1.042,1.8 -1.042,3.001 v 6.415 c 0,1.2 0.364,2.26 1.043,3 0.682,0.744 1.73,1.2 3.26,1.2 h 6.23 c 1.53,0 2.577,-0.456 3.26,-1.2 0.678,-0.739 1.024,-1.702 1.024,-3 V 5.5 c 0,-1.57 -0.346,-2.502 -1.024,-3.242 -0.683,-0.743 -1.73,-1.2 -3.26,-1.2 H 6.745 Z m 0,0.264 h 6.232 c 1.477,0 2.437,0.432 3.064,1.116 0.634,0.69 0.954,1.53 0.954,3.062 v 6.174 c 0,1.251 -0.322,2.134 -0.954,2.822 -0.627,0.684 -1.587,1.114 -3.064,1.114 H 5.359 C 3.882,15.61 2.922,15.18 2.295,14.496 1.67,13.814 1.322,12.821 1.322,11.674 V 5.26 C 1.322,4.112 1.67,3.12 2.295,2.438 2.922,1.754 3.882,1.322 5.359,1.322"
       id="path6" />
  </g>
  <path
     fill="#ffffff"
     d="m 20,11 a 8.98,8.98 0 0 0 -9,9 v 24 c 0,4.986 4.014,9 9,9 h 24 c 4.986,0 9,-4.014 9,-9 V 28 l -2,-2 v 18 c 0,3.878 -3.122,7 -7,7 H 20 c -3.878,0 -7,-3.122 -7,-7 V 20 c 0,-3.878 3.122,-7 7,-7 h 18 l -2,-2 z"
     id="path7"
     style="display:inline" />
  <path
     fill="#ffffff"
     d="M 53,28 V 16 c 0,-2.77 -2.23,-5 -5,-5 H 36 v 1 l 16,16 z"
     id="path8"
     style="display:inline" />
  <rect
     x="4"
     y="4"
     width="56.002365"
     height="56.002365"
     rx="13.001831"
     ry="13.001831"
     fill="url(#a)"
     id="rect63"
     style="display:inline;opacity:0.510917;fill:url(#a-8);stroke-width:3.7796" />
  <path
     fill="url(#a)"
     d="M 17.001886,4.0000552 A 12.964035,12.964035 0 0 0 4.0000552,17.001886 V 47.000587 A 12.964035,12.964035 0 0 0 17.001886,60.002418 H 47.000587 A 12.964035,12.964035 0 0 0 60.002418,47.000587 V 17.001886 A 12.964035,12.964035 0 0 0 47.000587,4.0000552 Z"
     id="path2"
     style="display:inline;opacity:0.500318;fill:url(#a-3);stroke-width:3.7796" />
  <rect
     x="4.0000005"
     y="3.9999998"
     width="56.002365"
     height="56.002365"
     rx="13.001831"
     ry="13.001831"
     fill="url(#a)"
     id="rect63-2"
     style="display:inline;opacity:0.510917;fill:url(#a-0);stroke-width:3.7796"
     inkscape:label="out2" />
  <g
     filter="url(#c)"
     opacity=".35"
     id="g12"
     style="display:inline;opacity:0.943228;filter:url(#c-2)"
     transform="matrix(3.7943681,0,0,3.7845246,-0.34056169,-0.33189543)"
     inkscape:label="out">
    <path
       fill="url(#d)"
       d="m 5.36,1.058 c -1.53,0 -2.577,0.457 -3.26,1.2 -0.678,0.74 -1.042,1.8 -1.042,3.001 v 6.415 c 0,1.2 0.364,2.26 1.043,3 0.682,0.744 1.73,1.2 3.26,1.2 h 6.23 c 1.53,0 2.577,-0.456 3.26,-1.2 0.678,-0.739 1.024,-1.702 1.024,-3 V 5.5 c 0,-1.57 -0.346,-2.502 -1.024,-3.242 -0.683,-0.743 -1.73,-1.2 -3.26,-1.2 H 6.745 Z m 0,0.264 h 6.232 c 1.477,0 2.437,0.432 3.064,1.116 0.634,0.69 0.954,1.53 0.954,3.062 v 6.174 c 0,1.251 -0.322,2.134 -0.954,2.822 -0.627,0.684 -1.587,1.114 -3.064,1.114 H 5.359 C 3.882,15.61 2.922,15.18 2.295,14.496 1.67,13.814 1.322,12.821 1.322,11.674 V 5.26 C 1.322,4.112 1.67,3.12 2.295,2.438 2.922,1.754 3.882,1.322 5.359,1.322"
       id="path11"
       style="fill:url(#linearGradient1)"
       inkscape:label="outtt" />
    <path
       fill="url(#e)"
       d="m 5.36,1.058 c -1.53,0 -2.577,0.457 -3.26,1.2 -0.678,0.74 -1.042,1.8 -1.042,3.001 v 6.415 c 0,1.2 0.364,2.26 1.043,3 0.682,0.744 1.73,1.2 3.26,1.2 h 6.23 c 1.53,0 2.577,-0.456 3.26,-1.2 0.678,-0.739 1.024,-1.702 1.024,-3 V 5.5 c 0,-1.57 -0.346,-2.502 -1.024,-3.242 -0.683,-0.743 -1.73,-1.2 -3.26,-1.2 H 6.745 Z m 0,0.264 h 6.232 c 1.477,0 2.437,0.432 3.064,1.116 0.634,0.69 0.954,1.53 0.954,3.062 v 6.174 c 0,1.251 -0.322,2.134 -0.954,2.822 -0.627,0.684 -1.587,1.114 -3.064,1.114 H 5.359 C 3.882,15.61 2.922,15.18 2.295,14.496 1.67,13.814 1.322,12.821 1.322,11.674 V 5.26 C 1.322,4.112 1.67,3.12 2.295,2.438 2.922,1.754 3.882,1.322 5.359,1.322"
       id="path12"
       style="fill:url(#linearGradient2)"
       inkscape:label="outt" />
  </g>
</svg>
