<?xml version="1.0" encoding="UTF-8" standalone="no"?>
<svg
   clip-rule="evenodd"
   fill-rule="evenodd"
   stroke-linejoin="round"
   stroke-miterlimit="2"
   viewBox="0 0 48 48"
   version="1.1"
   id="svg17"
   sodipodi:docname="gnome-maps.svg"
   inkscape:version="1.4.2 (ebf0e940d0, 2025-05-08)"
   xmlns:inkscape="http://www.inkscape.org/namespaces/inkscape"
   xmlns:sodipodi="http://sodipodi.sourceforge.net/DTD/sodipodi-0.dtd"
   xmlns:xlink="http://www.w3.org/1999/xlink"
   xmlns="http://www.w3.org/2000/svg"
   xmlns:svg="http://www.w3.org/2000/svg">
  <defs
     id="defs17">
    <linearGradient
       id="a-3"
       x1="7.9369998"
       x2="7.9369998"
       y1="15.081"
       y2="1.852"
       gradientUnits="userSpaceOnUse"
       gradientTransform="matrix(3.0117542,0,0,3.0280968,-1.7454845,-1.5680373)">
      <stop
         stop-color="#ffffff"
         offset="0"
         id="stop62"
         style="stop-color:#666666;stop-opacity:1;" />
      <stop
         stop-color="#ffffff"
         offset="1"
         id="stop63" />
    </linearGradient>
    <filter
       id="c-3"
       width="1.0239725"
       height="1.0239741"
       x="-0.011986232"
       y="-0.011987041"
       color-interpolation-filters="sRGB">
      <feGaussianBlur
         stdDeviation=".074"
         id="feGaussianBlur8" />
    </filter>
    <linearGradient
       xlink:href="#a-6"
       id="d"
       x1="2.598"
       x2="10.583"
       y1="2.836"
       y2="11.312"
       gradientUnits="userSpaceOnUse" />
    <linearGradient
       id="a-6">
      <stop
         offset="0"
         stop-color="#ffffff"
         id="stop1-7" />
      <stop
         offset="1"
         stop-color="#ffffff"
         stop-opacity="0"
         id="stop2-5" />
    </linearGradient>
    <linearGradient
       xlink:href="#a-6"
       id="e"
       x1="15.081"
       x2="12.7"
       y1="14.816"
       y2="12.171"
       gradientUnits="userSpaceOnUse" />
  </defs>
  <sodipodi:namedview
     id="namedview17"
     pagecolor="#ffffff"
     bordercolor="#000000"
     borderopacity="0.25"
     inkscape:showpageshadow="2"
     inkscape:pageopacity="0.0"
     inkscape:pagecheckerboard="0"
     inkscape:deskcolor="#d1d1d1"
     inkscape:zoom="17.854167"
     inkscape:cx="24"
     inkscape:cy="10.55776"
     inkscape:window-width="1920"
     inkscape:window-height="1047"
     inkscape:window-x="0"
     inkscape:window-y="0"
     inkscape:window-maximized="1"
     inkscape:current-layer="svg17" />
  <linearGradient
     id="a"
     x2="1"
     gradientTransform="matrix(0 -43.3373 43.3373 0 201.9 45.6687)"
     gradientUnits="userSpaceOnUse">
    <stop
       stop-color="#c6af9b"
       offset="0"
       id="stop1" />
    <stop
       stop-color="#d4c3b5"
       offset="1"
       id="stop2" />
  </linearGradient>
  <linearGradient
     id="b"
     x2="1"
     gradientTransform="matrix(14.2858 -822.857 822.857 14.2858 220 961.897)"
     gradientUnits="userSpaceOnUse">
    <stop
       stop-color="#b99d84"
       offset="0"
       id="stop3" />
    <stop
       stop-color="#d0bdad"
       offset="1"
       id="stop4" />
  </linearGradient>
  <linearGradient
     id="c"
     x2="1"
     gradientTransform="matrix(.150483 -20.4809 20.4809 .150483 29.9434 27.5847)"
     gradientUnits="userSpaceOnUse">
    <stop
       stop-color="#443527"
       offset="0"
       id="stop5" />
    <stop
       stop-color="#8b6c50"
       offset="1"
       id="stop6" />
  </linearGradient>
  <path
     d="m 45.668,8.56 c 0,-3.438 -2.79,-6.228 -6.228,-6.228 H 8.56 c -3.438,0 -6.228,2.79 -6.228,6.228 v 30.88 c 0,3.438 2.79,6.228 6.228,6.228 h 30.88 c 3.438,0 6.228,-2.79 6.228,-6.228 z"
     fill="url(#a)"
     id="path6"
     style="display:inline;opacity:0.12468514" />
  <path
     d="m 8.56,2.332 h 30.88 l 1.299,0.136 c 2.815,0.598 4.929,3.099 4.929,6.092 v 12.027 c 0,2.075 -43.336,17.061 -43.336,13.915 V 8.56 c 0,-1.898 0.85,-3.598 2.19,-4.74 C 5.761,2.843 7.112,2.371 8.56,2.332 Z"
     fill="url(#b)"
     id="path7"
     style="display:inline;opacity:0.55793451" />
  <path
     d="m33.278 2.332h-17.131l.051 30.089 17.08-3.034z"
     fill="#b09175"
     id="path8" />
  <path
     d="m16.013 45.668.185-13.247 17.111-3.495-.01 16.742z"
     fill="#b6997f"
     id="path9" />
  <path
     d="m2.332 39.047 13.866-6.626v-5.562l-13.866 6.409z"
     fill="#ffffff"
     id="path10" />
  <path
     d="m2.848 6.076c1.112-2.286 2.758-3.39 4.783-3.657l8.533 10.128.034 9.264z"
     fill="#ffffff"
     id="path11" />
  <path
     d="m16.198 26.859 2.007-.28-2.007-4.768-.034-9.264 7.034 13.305 10.109-.828v6.128l-17.109 1.269z"
     fill="#f5f1ee"
     id="path12" />
  <path
     d="m33.309 31.245 14.694-8.829v-6.401l-14.779 9.12z"
     fill="#ffffff"
     id="path13" />
  <path
     d="m30.094 7.104c-3.982 0-7.21 3.228-7.21 7.21 0 .304.025.601.062.896.616 5.632 6.68 12.123 6.68 12.123.108.121.212.195.312.249l.005.003.202.064.202-.064.005-.003c.101-.054.205-.132.313-.249 0 0 5.976-6.503 6.578-12.136.036-.291.061-.585.061-.885-.002-3.98-3.228-7.208-7.21-7.208zm0 11.847c-2.557 0-4.638-2.081-4.638-4.637 0-2.557 2.081-4.638 4.638-4.638s4.636 2.081 4.636 4.638c0 2.556-2.079 4.637-4.636 4.637z"
     fill="url(#c)"
     fill-rule="nonzero"
     id="path14" />
  <path
     d="m21.71 27.804c.342-.431 1.004-.413 1.326-.099.323.314.307.925-.041 1.526-.244.452-.852.895-1.356 1.186-.487-.319-1.071-.793-1.29-1.257-.314-.619-.298-1.23.041-1.526.34-.297 1.001-.279 1.32.17zm.565.306c.159.027.288.134.285.292-.005.156-.139.274-.301.275-.188.001-.289-.135-.285-.29.004-.158.109-.309.301-.277zm-1.153-.029c.185-.026.29.136.285.293-.004.155-.069.268-.3.275-.161.004-.289-.135-.286-.292.005-.157.141-.253.301-.276z"
     fill="#8a6b4f"
     id="path15" />
  <path
     d="m9.018 24.601h-.124c-.117 0-.21-.096-.21-.212v-.357c-.503-.126-.647-.425-.647-1.038 0-.904.734-1.638 1.639-1.638.904 0 1.638.734 1.638 1.638 0 .604-.153.902-.645 1.032v.361c0 .118-.095.213-.212.213h-.123c-.117 0-.212-.095-.212-.213v-.284c-.056.005-.112.006-.172.009v.277c0 .116-.095.211-.212.211h-.123c-.117 0-.212-.095-.212-.211v-.276c-.06-.002-.118-.004-.174-.007v.283c0 .116-.095.212-.211.212zm-.022-2.273c.279.109.504.218.504.488 0 .269-.182.321-.504.487-.246.128-.503-.218-.503-.487 0-.27.244-.589.503-.488zm1.352 0c.268-.076.503.218.503.488 0 .269-.264.629-.503.487-.293-.174-.503-.218-.503-.487 0-.27.196-.401.503-.488z"
     fill="#ffffff"
     id="path16" />
  <path
     d="m7.541 17.594.493.521.78-.739.624.658-.78.738.494.522c.168.177.166.452-.004.612-.17.161-.444.148-.611-.029l-.494-.521-.783.74-.623-.657.783-.703-.494-.56c-.169-.177-.166-.451.003-.612.17-.161.444-.148.612.03z"
     fill="#ffffff"
     id="path17" />
  <rect
     x="1.4409516"
     y="1.6114643"
     width="44.625164"
     height="44.867313"
     rx="10.360435"
     ry="10.416654"
     fill="url(#a)"
     id="rect63"
     style="display:inline;opacity:0.510917;fill:url(#a-3);stroke-width:3.01991" />
  <g
     filter="url(#c)"
     opacity=".35"
     id="g12"
     style="opacity:0.54371;filter:url(#c-3)"
     transform="matrix(3.0117541,0,0,3.063389,-2.0074413,-1.9677198)">
    <path
       fill="url(#d)"
       d="m 5.36,1.058 c -1.53,0 -2.577,0.457 -3.26,1.2 -0.678,0.74 -1.042,1.8 -1.042,3.001 v 6.415 c 0,1.2 0.364,2.26 1.043,3 0.682,0.744 1.73,1.2 3.26,1.2 h 6.23 c 1.53,0 2.577,-0.456 3.26,-1.2 0.678,-0.739 1.024,-1.702 1.024,-3 V 5.5 c 0,-1.57 -0.346,-2.502 -1.024,-3.242 -0.683,-0.743 -1.73,-1.2 -3.26,-1.2 H 6.745 Z m 0,0.264 h 6.232 c 1.477,0 2.437,0.432 3.064,1.116 0.634,0.69 0.954,1.53 0.954,3.062 v 6.174 c 0,1.251 -0.322,2.134 -0.954,2.822 -0.627,0.684 -1.587,1.114 -3.064,1.114 H 5.359 C 3.882,15.61 2.922,15.18 2.295,14.496 1.67,13.814 1.322,12.821 1.322,11.674 V 5.26 C 1.322,4.112 1.67,3.12 2.295,2.438 2.922,1.754 3.882,1.322 5.359,1.322"
       id="path11-3"
       style="fill:url(#d)" />
    <path
       fill="url(#e)"
       d="m 5.36,1.058 c -1.53,0 -2.577,0.457 -3.26,1.2 -0.678,0.74 -1.042,1.8 -1.042,3.001 v 6.415 c 0,1.2 0.364,2.26 1.043,3 0.682,0.744 1.73,1.2 3.26,1.2 h 6.23 c 1.53,0 2.577,-0.456 3.26,-1.2 0.678,-0.739 1.024,-1.702 1.024,-3 V 5.5 c 0,-1.57 -0.346,-2.502 -1.024,-3.242 -0.683,-0.743 -1.73,-1.2 -3.26,-1.2 H 6.745 Z m 0,0.264 h 6.232 c 1.477,0 2.437,0.432 3.064,1.116 0.634,0.69 0.954,1.53 0.954,3.062 v 6.174 c 0,1.251 -0.322,2.134 -0.954,2.822 -0.627,0.684 -1.587,1.114 -3.064,1.114 H 5.359 C 3.882,15.61 2.922,15.18 2.295,14.496 1.67,13.814 1.322,12.821 1.322,11.674 V 5.26 C 1.322,4.112 1.67,3.12 2.295,2.438 2.922,1.754 3.882,1.322 5.359,1.322"
       id="path12-6"
       style="fill:url(#e)" />
  </g>
</svg>
