<svg width="64" height="64" xmlns="http://www.w3.org/2000/svg"><defs><linearGradient id="c" x1="399.57" x2="399.57" y1="545.8" y2="517.8" gradientTransform="translate(-826.36 -1107.6) scale(2.1428)" gradientUnits="userSpaceOnUse"><stop stop-color="#b3967c" offset="0"/><stop stop-color="#c9b4a2" offset="1"/></linearGradient><linearGradient id="b" x1="399.99" x2="399.99" y1="545.14" y2="518.14" gradientTransform="translate(-826.36 -1107.6) scale(2.1428)" gradientUnits="userSpaceOnUse"><stop stop-color="#ab8a6e" offset="0"/><stop stop-color="#d4c2b3" offset="1"/></linearGradient><linearGradient id="linearGradient3881" x1="42" x2="42" y1="48" y2="33" gradientTransform="translate(-329.47 -478.55) scale(.96836)" gradientUnits="userSpaceOnUse"><stop stop-color="#fbf9f8" offset="0"/><stop stop-color="#ffffff" offset="1"/></linearGradient><linearGradient id="linearGradient3889" x1="28" x2="28" y1="46" y2="15" gradientTransform="translate(-272.71 -358.02) scale(.74439)" gradientUnits="userSpaceOnUse"><stop stop-color="#ffffff" offset="0"/><stop stop-color="#ffffff" offset="1"/></linearGradient><filter id="e" x="-.036" y="-.036" width="1.072" height="1.072" color-interpolation-filters="sRGB"><feGaussianBlur stdDeviation=".42"/></filter><style id="current-color-scheme" type="text/css">.ColorScheme-Text{color:#644d39}.ColorScheme-Background{color:#ffffff}.ColorScheme-ViewText{color:#644d39}.ColorScheme-ViewBackground{color:#ffffff}.ColorScheme-ViewFocus,.ColorScheme-ViewHover{color:#c8b29f}.ColorScheme-ButtonText{color:#644d39}.ColorScheme-ButtonBackground{color:#ffffff}.ColorScheme-ButtonFocus,.ColorScheme-ButtonHover{color:#c8b29f}</style></defs><circle transform="translate(-826.36 -1107.6) scale(2.1428)" cx="400.57" cy="531.8" r="14" filter="url(#e)" opacity=".25" stroke-width=".8"/><circle cx="31.991" cy="31.994" r="30" fill="url(#b)" stroke-width="1.714"/><path d="M46.806 18.027c-3.96-3.223-9.218-4.998-14.806-4.998-5.588 0-10.846 1.775-14.806 4.998C13.2 21.277 11 25.61 11 30.226c0 4.406 2.005 8.553 5.66 11.747a2.262 2.262 0 0 0-.151.468l-1.201 5.908c-.143.703.049 1.121.235 1.35.215.262.533.407.897.407.275 0 .57-.08.878-.24l6.986-3.63A25.138 25.138 0 0 0 32 47.422c5.587 0 10.846-1.774 14.806-4.997C50.8 39.175 53 34.842 53 30.225c0-4.615-2.2-8.948-6.194-12.2z" fill="url(#linearGradient3889)"/><path d="M28.706 31.097v-2.824h5.647v-4.705H24v16h4.706v-7.53zm6.588-7.53v16H40v-16zm-5.647 5.648v10.353h4.706V29.215z" color="#201913" enable-background="new" fill="#bca28b" stroke-width=".584"/><path d="M34.806 33.504c1.98-1.755 4.61-2.72 7.403-2.72s5.423.965 7.403 2.72c1.997 1.77 3.097 4.128 3.097 6.642 0 2.398-1.003 4.656-2.83 6.395.033.081.059.166.075.255l.601 3.217c.071.382-.024.61-.118.734a.548.548 0 0 1-.448.222.899.899 0 0 1-.439-.13l-3.493-1.977c-1.21.424-2.51.646-3.848.646-2.794 0-5.423-.966-7.403-2.72-1.997-1.77-3.097-4.13-3.097-6.642 0-2.513 1.1-4.872 3.097-6.642z" fill="url(#linearGradient3881)"/></svg>