<svg clip-rule="evenodd" fill-rule="evenodd" stroke-linejoin="round" stroke-miterlimit="2" viewBox="0 0 48 48" xmlns="http://www.w3.org/2000/svg">
 <linearGradient id="a" x2="1" gradientTransform="matrix(0 -40 40 0 24 44)" gradientUnits="userSpaceOnUse">
  <stop stop-color="#bfa690" offset="0"/>
  <stop stop-color="#d6c7b9" offset="1"/>
 </linearGradient>
 <linearGradient id="b" x2="1" gradientTransform="matrix(0 -30 30 0 24 39)" gradientUnits="userSpaceOnUse">
  <stop stop-color="#5f4936" offset="0"/>
  <stop stop-color="#705741" offset="1"/>
 </linearGradient>
 <g transform="matrix(1.1382 0 0 1.1382 -3.3168 -3.3168)">
  <circle cx="24" cy="24" r="20" fill="url(#a)"/>
  <circle cx="24" cy="24" r="15" fill="url(#b)"/>
  <g fill-rule="nonzero">
   <path d="m24 10c-7.68 0-14 6.32-14 14s6.32 14 14 14c1.694-.006 3.373-.319 4.955-.924l-.756-2.92c-1.331.554-2.758.841-4.199.844-6.034 0-11-4.966-11-11s4.966-11 11-11c1.443.002 2.872.288 4.205.842l.76-2.926c-1.586-.604-3.268-.914-4.965-.916z" fill="#68503b"/>
   <path d="m24 14c-5.486 0-10 4.514-10 10s4.514 10 10 10c1.358-.001 2.702-.278 3.949-.814l-.763-2.954c-.987.505-2.078.768-3.186.768-3.84 0-7-3.16-7-7s3.16-7 7-7c1.108.003 2.2.268 3.186.775l.763-2.949c-1.246-.541-2.59-.822-3.949-.826z" fill="#68503b"/>
   <path d="m26.94 18.77c-1.824-1.023-4.055-1.021-5.878.005l.817 3.104-3.109-.819c-1.023 1.824-1.021 4.055.005 5.878l3.104-.817-.819 3.109c1.824 1.023 4.055 1.021 5.878-.005l-.817-3.104 3.109.819c1.023-1.824 1.021-4.055-.005-5.878l-3.104.817z" fill="#d9cbbe"/>
  </g>
 </g>
</svg>
