<?xml version="1.0" encoding="UTF-8" standalone="no"?>
<svg
   clip-rule="evenodd"
   fill-rule="evenodd"
   stroke-linejoin="round"
   stroke-miterlimit="2"
   viewBox="0 0 48 48"
   version="1.1"
   id="svg6"
   sodipodi:docname="net.cebix.basilisk.svg"
   inkscape:version="1.4.2 (ebf0e940d0, 2025-05-08)"
   xmlns:inkscape="http://www.inkscape.org/namespaces/inkscape"
   xmlns:sodipodi="http://sodipodi.sourceforge.net/DTD/sodipodi-0.dtd"
   xmlns:xlink="http://www.w3.org/1999/xlink"
   xmlns="http://www.w3.org/2000/svg"
   xmlns:svg="http://www.w3.org/2000/svg">
  <defs
     id="defs6">
    <linearGradient
       id="a"
       x1="7.9369998"
       x2="7.9369998"
       y1="15.081"
       y2="1.852"
       gradientTransform="matrix(2.8077558,0,0,2.9776179,0.15431571,-1.0772865)"
       gradientUnits="userSpaceOnUse">
      <stop
         offset="0"
         stop-color="#84543b"
         id="stop5" />
      <stop
         offset="1"
         stop-color="#cea792"
         id="stop6" />
    </linearGradient>
    <filter
       id="c-2"
       width="1.0239725"
       height="1.0239741"
       x="-0.011986232"
       y="-0.011987041"
       color-interpolation-filters="sRGB">
      <feGaussianBlur
         stdDeviation=".074"
         id="feGaussianBlur8" />
    </filter>
    <linearGradient
       xlink:href="#a-6"
       id="d-7"
       x1="2.598"
       x2="10.583"
       y1="2.836"
       y2="11.312"
       gradientUnits="userSpaceOnUse" />
    <linearGradient
       id="a-6">
      <stop
         offset="0"
         stop-color="#ffffff"
         id="stop1-2" />
      <stop
         offset="1"
         stop-color="#ffffff"
         stop-opacity="0"
         id="stop2-9" />
    </linearGradient>
    <linearGradient
       xlink:href="#a-6"
       id="e-0"
       x1="15.081"
       x2="12.7"
       y1="14.816"
       y2="12.171"
       gradientUnits="userSpaceOnUse" />
    <linearGradient
       id="a-0"
       x1="7.9369998"
       x2="7.9369998"
       y1="15.081"
       y2="1.852"
       gradientUnits="userSpaceOnUse"
       gradientTransform="matrix(2.8077571,0,0,2.9776192,0.00910711,-1.6643489)">
      <stop
         stop-color="#ffffff"
         offset="0"
         id="stop62"
         style="stop-color:#666666;stop-opacity:1;" />
      <stop
         stop-color="#ffffff"
         offset="1"
         id="stop63" />
    </linearGradient>
  </defs>
  <sodipodi:namedview
     id="namedview6"
     pagecolor="#ffffff"
     bordercolor="#000000"
     borderopacity="0.25"
     inkscape:showpageshadow="2"
     inkscape:pageopacity="0.0"
     inkscape:pagecheckerboard="0"
     inkscape:deskcolor="#d1d1d1"
     inkscape:zoom="12.16"
     inkscape:cx="24.013158"
     inkscape:cy="23.972039"
     inkscape:window-width="1920"
     inkscape:window-height="1015"
     inkscape:window-x="0"
     inkscape:window-y="32"
     inkscape:window-maximized="1"
     inkscape:current-layer="svg6" />
  <rect
     width="41.602268"
     height="44.119099"
     x="3.1258216"
     y="2.0495365"
     fill="url(#a)"
     rx="9.6588097"
     ry="10.243144"
     id="rect8"
     style="opacity:0.5;fill:url(#a);stroke-width:0.765012" />
  <g
     fill-rule="nonzero"
     id="g6"
     transform="matrix(0.74287111,0,0,0.78781293,5.9511974,4.6134076)">
    <path
       d="m 10.809,40 c 1.716,2.395 3.606,4 5.191,4 4,0 5.251,-2 8,-2 2.749,0 4,2 8,2 1.584,0 3.461,-1.603 5.164,-4 z"
       fill="#b3967c"
       id="path1" />
    <path
       d="m 7.664,34 c 0.852,2.238 1.939,4.316 3.145,6 h 26.355 c 1.199,-1.688 2.312,-3.759 3.164,-6 z"
       fill="#8b6c50"
       id="path2" />
    <path
       d="m 6.129,28 c 0.226,2.005 0.793,4.047 1.535,6 h 32.664 c 0.021,-0.056 0.046,-0.108 0.066,-0.164 C 37.409,33.221 35.024,30.951 34.262,28 Z"
       fill="#947255"
       id="path3" />
    <path
       d="M 6.395,22 C 6.138,23.199 6,24.531 6,26 c 0,0.655 0.053,1.325 0.129,2 H 34.262 C 34.09,27.347 34.002,26.675 34,26 c 0.004,-1.405 0.379,-2.785 1.086,-4 z"
       fill="#c2aa95"
       id="path4" />
    <path
       d="M 8.004,18 C 7.279,19.106 6.731,20.435 6.395,22 H 35.086 C 36.158,20.149 37.929,18.803 40,18.266 V 18.039 C 39.991,18.026 39.981,18.013 39.973,18 Z"
       fill="#dfd3c8"
       id="path5" />
    <path
       d="m 32,4 c 0,0 -6,0 -8,4 -2,4 -2,6 -2,6 0,0 6,0 8,-4 2,-4 2,-6 2,-6 z M 16,14 c -3.46,0 -6.25,1.339 -7.996,4 H 39.973 C 38.226,15.349 35.454,14 32,14 c -4,0 -4,2 -8,2 -4,0 -4,-2 -8,-2 z"
       fill="#cbb6a4"
       id="path6" />
  </g>
  <rect
     x="2.9797029"
     y="1.4621606"
     width="41.602539"
     height="44.119389"
     rx="9.6586847"
     ry="10.243011"
     fill="url(#a)"
     id="rect63"
     style="display:inline;opacity:0.510917;fill:url(#a-0);stroke-width:2.89143"
     inkscape:label="out2" />
  <g
     filter="url(#c)"
     opacity=".35"
     id="g12"
     style="display:inline;opacity:0.943228;filter:url(#c-2)"
     transform="matrix(2.8187265,0,0,2.9814975,-0.24476569,-1.9505645)"
     inkscape:label="out">
    <path
       fill="url(#d)"
       d="m 5.36,1.058 c -1.53,0 -2.577,0.457 -3.26,1.2 -0.678,0.74 -1.042,1.8 -1.042,3.001 v 6.415 c 0,1.2 0.364,2.26 1.043,3 0.682,0.744 1.73,1.2 3.26,1.2 h 6.23 c 1.53,0 2.577,-0.456 3.26,-1.2 0.678,-0.739 1.024,-1.702 1.024,-3 V 5.5 c 0,-1.57 -0.346,-2.502 -1.024,-3.242 -0.683,-0.743 -1.73,-1.2 -3.26,-1.2 H 6.745 Z m 0,0.264 h 6.232 c 1.477,0 2.437,0.432 3.064,1.116 0.634,0.69 0.954,1.53 0.954,3.062 v 6.174 c 0,1.251 -0.322,2.134 -0.954,2.822 -0.627,0.684 -1.587,1.114 -3.064,1.114 H 5.359 C 3.882,15.61 2.922,15.18 2.295,14.496 1.67,13.814 1.322,12.821 1.322,11.674 V 5.26 C 1.322,4.112 1.67,3.12 2.295,2.438 2.922,1.754 3.882,1.322 5.359,1.322"
       id="path11-6"
       style="fill:url(#d-7)"
       inkscape:label="outtt" />
    <path
       fill="url(#e)"
       d="m 5.36,1.058 c -1.53,0 -2.577,0.457 -3.26,1.2 -0.678,0.74 -1.042,1.8 -1.042,3.001 v 6.415 c 0,1.2 0.364,2.26 1.043,3 0.682,0.744 1.73,1.2 3.26,1.2 h 6.23 c 1.53,0 2.577,-0.456 3.26,-1.2 0.678,-0.739 1.024,-1.702 1.024,-3 V 5.5 c 0,-1.57 -0.346,-2.502 -1.024,-3.242 -0.683,-0.743 -1.73,-1.2 -3.26,-1.2 H 6.745 Z m 0,0.264 h 6.232 c 1.477,0 2.437,0.432 3.064,1.116 0.634,0.69 0.954,1.53 0.954,3.062 v 6.174 c 0,1.251 -0.322,2.134 -0.954,2.822 -0.627,0.684 -1.587,1.114 -3.064,1.114 H 5.359 C 3.882,15.61 2.922,15.18 2.295,14.496 1.67,13.814 1.322,12.821 1.322,11.674 V 5.26 C 1.322,4.112 1.67,3.12 2.295,2.438 2.922,1.754 3.882,1.322 5.359,1.322"
       id="path12"
       style="fill:url(#e-0)"
       inkscape:label="outt" />
  </g>
</svg>
