<?xml version="1.0" encoding="UTF-8" standalone="no"?>
<svg
   width="64"
   height="64"
   viewBox="0 0 16.933 16.933"
   version="1.1"
   id="svg22"
   sodipodi:docname="org.gnome.Totem.svg"
   inkscape:version="1.4.2 (ebf0e940d0, 2025-05-08)"
   xmlns:inkscape="http://www.inkscape.org/namespaces/inkscape"
   xmlns:sodipodi="http://sodipodi.sourceforge.net/DTD/sodipodi-0.dtd"
   xmlns:xlink="http://www.w3.org/1999/xlink"
   xmlns="http://www.w3.org/2000/svg"
   xmlns:svg="http://www.w3.org/2000/svg">
  <sodipodi:namedview
     id="namedview22"
     pagecolor="#ffffff"
     bordercolor="#000000"
     borderopacity="0.25"
     inkscape:showpageshadow="2"
     inkscape:pageopacity="0.0"
     inkscape:pagecheckerboard="0"
     inkscape:deskcolor="#d1d1d1"
     inkscape:zoom="25.234375"
     inkscape:cx="32"
     inkscape:cy="32"
     inkscape:window-width="3840"
     inkscape:window-height="1889"
     inkscape:window-x="0"
     inkscape:window-y="64"
     inkscape:window-maximized="1"
     inkscape:current-layer="svg22" />
  <defs
     id="defs15">
    <linearGradient
       id="a"
       x1="8.466"
       x2="8.466"
       y1="1.058"
       y2="15.875"
       gradientUnits="userSpaceOnUse">
      <stop
         offset="0"
         stop-color="#ffffff"
         id="stop1" />
      <stop
         offset="1"
         stop-color="#ebdad2"
         id="stop2" />
    </linearGradient>
    <linearGradient
       id="e"
       x1="7.011"
       x2="7.011"
       y1="5.402"
       y2="12.104"
       gradientUnits="userSpaceOnUse">
      <stop
         offset="0"
         stop-color="#ffffff"
         id="stop3" />
      <stop
         offset=".42"
         stop-color="#ffffff"
         id="stop4" />
      <stop
         offset="1"
         stop-color="#ffffff"
         id="stop5" />
    </linearGradient>
    <linearGradient
       id="c"
       x1="13.452"
       x2="11.446"
       y1="6.405"
       y2="11.594"
       gradientUnits="userSpaceOnUse">
      <stop
         offset="0"
         stop-color="#ffffff"
         id="stop6" />
      <stop
         offset="1"
         stop-color="#ffffff"
         id="stop7" />
    </linearGradient>
    <linearGradient
       id="h"
       x1="10.802"
       x2="11.711"
       y1="8.65"
       y2="8.65"
       gradientUnits="userSpaceOnUse">
      <stop
         offset="0"
         id="stop8" />
      <stop
         offset="1"
         stop-opacity="0"
         id="stop9" />
    </linearGradient>
    <linearGradient
       id="j"
       x1="6.745"
       x2="10.583"
       y1="1.058"
       y2="11.312"
       gradientUnits="userSpaceOnUse">
      <stop
         offset="0"
         stop-color="#ffffff"
         id="stop10" />
      <stop
         offset="1"
         stop-color="#ffffff"
         id="stop11" />
    </linearGradient>
    <filter
       id="i"
       width="1.0239725"
       height="1.0239741"
       x="-0.011986232"
       y="-0.011987041"
       color-interpolation-filters="sRGB">
      <feGaussianBlur
         stdDeviation=".074"
         id="feGaussianBlur11" />
    </filter>
    <filter
       id="f"
       width="1.0525479"
       height="1.0554227"
       x="-0.026273947"
       y="-0.02771134"
       color-interpolation-filters="sRGB">
      <feGaussianBlur
         stdDeviation=".084"
         id="feGaussianBlur12" />
    </filter>
    <filter
       id="d"
       width="1.0746868"
       height="1.0425549"
       x="-0.0373434"
       y="-0.02127747"
       color-interpolation-filters="sRGB">
      <feGaussianBlur
         stdDeviation=".056"
         id="feGaussianBlur13" />
    </filter>
    <filter
       id="g"
       width="4.0580285"
       height="1.7210221"
       x="-1.5290143"
       y="-0.36051104"
       color-interpolation-filters="sRGB">
      <feGaussianBlur
         stdDeviation=".388"
         id="feGaussianBlur14" />
    </filter>
    <filter
       id="b"
       width="1.1260433"
       height="1.1847423"
       x="-0.063021662"
       y="-0.092371134"
       color-interpolation-filters="sRGB">
      <feGaussianBlur
         stdDeviation=".28"
         id="feGaussianBlur15" />
    </filter>
    <filter
       id="c-2"
       width="1.0239725"
       height="1.0239741"
       x="-0.011986232"
       y="-0.011987041"
       color-interpolation-filters="sRGB">
      <feGaussianBlur
         stdDeviation=".074"
         id="feGaussianBlur8" />
    </filter>
    <linearGradient
       xlink:href="#a-6"
       id="d-7"
       x1="2.598"
       x2="10.583"
       y1="2.836"
       y2="11.312"
       gradientUnits="userSpaceOnUse" />
    <linearGradient
       id="a-6">
      <stop
         offset="0"
         stop-color="#ffffff"
         id="stop1-2" />
      <stop
         offset="1"
         stop-color="#ffffff"
         stop-opacity="0"
         id="stop2-9" />
    </linearGradient>
    <linearGradient
       xlink:href="#a-6"
       id="e-0"
       x1="15.081"
       x2="12.7"
       y1="14.816"
       y2="12.171"
       gradientUnits="userSpaceOnUse" />
    <linearGradient
       id="a-0"
       x1="7.9369998"
       x2="7.9369998"
       y1="15.081"
       y2="1.852"
       gradientUnits="userSpaceOnUse"
       gradientTransform="translate(-0.03769501,-0.14437293)">
      <stop
         stop-color="#ffffff"
         offset="0"
         id="stop62"
         style="stop-color:#666666;stop-opacity:1;" />
      <stop
         stop-color="#ffffff"
         offset="1"
         id="stop63" />
    </linearGradient>
  </defs>
  <path
     fill="url(#a)"
     d="M5.36 1.058c-1.53 0-2.577.457-3.26 1.2-.678.74-1.042 1.8-1.042 3v6.416c0 1.2.364 2.261 1.042 3.001.683.744 1.73 1.2 3.26 1.2h6.23c1.53 0 2.579-.456 3.26-1.2.68-.74 1.025-1.703 1.025-3V5.5c0-1.57-.345-2.502-1.024-3.242-.682-.743-1.73-1.2-3.26-1.2H6.745z"
     id="path15"
     style="opacity:0.49959184" />
  <path
     d="M4.36 5.11c-.657 0-1.185.528-1.185 1.184V11.2c0 .657.528 1.185 1.185 1.185h5.303c.656 0 1.185-.528 1.185-1.185v-1.173l1.98 1.728a.609.609 0 0 0 1.01-.459V6.2a.61.61 0 0 0-.355-.553.6.6 0 0 0-.224-.055.6.6 0 0 0-.427.147l-1.984 1.706v-1.15c0-.656-.529-1.185-1.185-1.185z"
     filter="url(#b)"
     opacity=".1"
     style="paint-order:fill markers stroke"
     id="path16" />
  <path
     fill="url(#c)"
     d="M13.259 5.31a.6.6 0 0 0-.427.147l-2.38 2.047a.6.6 0 0 0-.213.46v.973a.6.6 0 0 0 .208.46l2.381 2.078a.609.609 0 0 0 1.01-.46V5.919a.61.61 0 0 0-.355-.552.6.6 0 0 0-.224-.055"
     style="paint-order:fill markers stroke"
     id="path17" />
  <path
     fill="#ffffff"
     d="M13.259 5.31a.6.6 0 0 0-.427.147l-2.38 2.047a.6.6 0 0 0-.213.46v.973a.6.6 0 0 0 .208.46l2.381 2.078a.609.609 0 0 0 1.01-.46V5.919a.61.61 0 0 0-.355-.552.6.6 0 0 0-.224-.055m-.049.212a.4.4 0 0 1 .185.037.4.4 0 0 1 .232.359v5.098c0 .178-.1.302-.234.363a.38.38 0 0 1-.426-.065l-2.381-2.078a.4.4 0 0 1-.137-.299v-.972c0-.116.053-.226.141-.301l2.38-2.047a.4.4 0 0 1 .24-.096"
     filter="url(#d)"
     opacity=".65"
     style="paint-order:fill markers stroke"
     id="path18" />
  <rect
     width="7.673"
     height="7.276"
     x="3.175"
     y="4.829"
     fill="url(#e)"
     rx="1.185"
     ry="1.185"
     style="paint-order:fill markers stroke"
     id="rect18" />
  <path
     fill="#ffffff"
     d="M4.36 4.829c-.657 0-1.185.528-1.185 1.185v4.906c0 .656.528 1.184 1.185 1.184h5.303c.656 0 1.185-.528 1.185-1.184V6.013c0-.656-.529-1.184-1.185-1.184zm0 .212h5.302c.543 0 .975.43.975.973v4.906a.967.967 0 0 1-.975.973H4.36a.965.965 0 0 1-.972-.973V6.014c0-.543.43-.973.972-.973"
     filter="url(#f)"
     opacity=".65"
     style="paint-order:fill markers stroke"
     id="path19" />
  <path
     fill="#ffffff"
     d="m10.848 7.163-.396.34a.6.6 0 0 0-.213.462v.972a.6.6 0 0 0 .209.46l.4.349z"
     filter="url(#g)"
     style="paint-order:fill markers stroke"
     id="path20" />
  <path
     fill="url(#h)"
     d="M13.259 5.31a.6.6 0 0 0-.427.147l-1.984 1.706v2.583l1.98 1.728a.609.609 0 0 0 1.01-.458V5.918a.61.61 0 0 0-.355-.553.6.6 0 0 0-.224-.054z"
     opacity=".05"
     style="mix-blend-mode:normal;paint-order:fill markers stroke"
     id="path21" />
  <g
     filter="url(#i)"
     style="mix-blend-mode:normal"
     id="g22">
    <path
       fill="url(#j)"
       d="M5.36 1.058c-1.53 0-2.577.457-3.26 1.2-.678.74-1.042 1.8-1.042 3.001v6.415c0 1.2.364 2.26 1.043 3 .682.744 1.73 1.2 3.26 1.2h6.23c1.53 0 2.577-.456 3.26-1.2.678-.739 1.024-1.702 1.024-3V5.5c0-1.57-.346-2.502-1.024-3.242-.683-.743-1.73-1.2-3.26-1.2H6.745zm0 .264h6.232c1.477 0 2.437.432 3.064 1.116.634.69.954 1.53.954 3.062v6.174c0 1.251-.322 2.134-.954 2.822-.627.684-1.587 1.114-3.064 1.114H5.359c-1.477 0-2.437-.43-3.064-1.114-.625-.682-.973-1.675-.973-2.822V5.26c0-1.148.348-2.14.973-2.822.627-.684 1.587-1.116 3.064-1.116"
       id="path22" />
  </g>
  <rect
     x="1.0203049"
     y="0.90562719"
     width="14.817"
     height="14.817"
     rx="3.4400001"
     ry="3.4400001"
     fill="url(#a)"
     id="rect63"
     style="display:inline;opacity:0.510917;fill:url(#a-0);stroke-width:0.999999"
     inkscape:label="out2" />
  <g
     filter="url(#c)"
     opacity=".35"
     id="g12"
     style="display:inline;opacity:0.943228;filter:url(#c-2)"
     transform="matrix(1.0039068,0,0,1.0013024,-0.12811271,-0.24049763)"
     inkscape:label="out">
    <path
       fill="url(#d)"
       d="m 5.36,1.058 c -1.53,0 -2.577,0.457 -3.26,1.2 -0.678,0.74 -1.042,1.8 -1.042,3.001 v 6.415 c 0,1.2 0.364,2.26 1.043,3 0.682,0.744 1.73,1.2 3.26,1.2 h 6.23 c 1.53,0 2.577,-0.456 3.26,-1.2 0.678,-0.739 1.024,-1.702 1.024,-3 V 5.5 c 0,-1.57 -0.346,-2.502 -1.024,-3.242 -0.683,-0.743 -1.73,-1.2 -3.26,-1.2 H 6.745 Z m 0,0.264 h 6.232 c 1.477,0 2.437,0.432 3.064,1.116 0.634,0.69 0.954,1.53 0.954,3.062 v 6.174 c 0,1.251 -0.322,2.134 -0.954,2.822 -0.627,0.684 -1.587,1.114 -3.064,1.114 H 5.359 C 3.882,15.61 2.922,15.18 2.295,14.496 1.67,13.814 1.322,12.821 1.322,11.674 V 5.26 C 1.322,4.112 1.67,3.12 2.295,2.438 2.922,1.754 3.882,1.322 5.359,1.322"
       id="path11"
       style="fill:url(#d-7)"
       inkscape:label="outtt" />
    <path
       fill="url(#e)"
       d="m 5.36,1.058 c -1.53,0 -2.577,0.457 -3.26,1.2 -0.678,0.74 -1.042,1.8 -1.042,3.001 v 6.415 c 0,1.2 0.364,2.26 1.043,3 0.682,0.744 1.73,1.2 3.26,1.2 h 6.23 c 1.53,0 2.577,-0.456 3.26,-1.2 0.678,-0.739 1.024,-1.702 1.024,-3 V 5.5 c 0,-1.57 -0.346,-2.502 -1.024,-3.242 -0.683,-0.743 -1.73,-1.2 -3.26,-1.2 H 6.745 Z m 0,0.264 h 6.232 c 1.477,0 2.437,0.432 3.064,1.116 0.634,0.69 0.954,1.53 0.954,3.062 v 6.174 c 0,1.251 -0.322,2.134 -0.954,2.822 -0.627,0.684 -1.587,1.114 -3.064,1.114 H 5.359 C 3.882,15.61 2.922,15.18 2.295,14.496 1.67,13.814 1.322,12.821 1.322,11.674 V 5.26 C 1.322,4.112 1.67,3.12 2.295,2.438 2.922,1.754 3.882,1.322 5.359,1.322"
       id="path12"
       style="fill:url(#e-0)"
       inkscape:label="outt" />
  </g>
</svg>
