<?xml version="1.0" encoding="UTF-8" standalone="no"?>
<svg
   clip-rule="evenodd"
   fill-rule="evenodd"
   stroke-linejoin="round"
   stroke-miterlimit="2"
   viewBox="0 0 48 48"
   version="1.1"
   id="svg3"
   sodipodi:docname="org.kde.plasma.taskmanager.svg"
   inkscape:version="1.4.2 (ebf0e940d0, 2025-05-08)"
   xmlns:inkscape="http://www.inkscape.org/namespaces/inkscape"
   xmlns:sodipodi="http://sodipodi.sourceforge.net/DTD/sodipodi-0.dtd"
   xmlns:xlink="http://www.w3.org/1999/xlink"
   xmlns="http://www.w3.org/2000/svg"
   xmlns:svg="http://www.w3.org/2000/svg">
  <defs
     id="defs3">
    <filter
       id="c-3"
       width="1.0239725"
       height="1.0239741"
       x="-0.011986232"
       y="-0.011987041"
       color-interpolation-filters="sRGB">
      <feGaussianBlur
         stdDeviation=".074"
         id="feGaussianBlur8" />
    </filter>
    <linearGradient
       xlink:href="#a-6"
       id="d-6"
       x1="2.598"
       x2="10.583"
       y1="2.836"
       y2="11.312"
       gradientUnits="userSpaceOnUse" />
    <linearGradient
       id="a-6">
      <stop
         offset="0"
         stop-color="#ffffff"
         id="stop1-7" />
      <stop
         offset="1"
         stop-color="#ffffff"
         stop-opacity="0"
         id="stop2-5" />
    </linearGradient>
    <linearGradient
       xlink:href="#a-6"
       id="e-1"
       x1="15.081"
       x2="12.7"
       y1="14.816"
       y2="12.171"
       gradientUnits="userSpaceOnUse" />
    <linearGradient
       id="a-3"
       x1="7.9369998"
       x2="7.9369998"
       y1="15.081"
       y2="1.852"
       gradientUnits="userSpaceOnUse"
       gradientTransform="matrix(3.1707113,0,0,3.1803747,-2.7410981,-2.0546533)">
      <stop
         stop-color="#ffffff"
         offset="0"
         id="stop62"
         style="stop-color:#666666;stop-opacity:1;" />
      <stop
         stop-color="#ffffff"
         offset="1"
         id="stop63" />
    </linearGradient>
  </defs>
  <sodipodi:namedview
     id="namedview3"
     pagecolor="#ffffff"
     bordercolor="#000000"
     borderopacity="0.25"
     inkscape:showpageshadow="2"
     inkscape:pageopacity="0.0"
     inkscape:pagecheckerboard="0"
     inkscape:deskcolor="#d1d1d1"
     inkscape:zoom="8.32"
     inkscape:cx="24.038462"
     inkscape:cy="4.7475962"
     inkscape:window-width="1268"
     inkscape:window-height="681"
     inkscape:window-x="291"
     inkscape:window-y="76"
     inkscape:window-maximized="0"
     inkscape:current-layer="svg3" />
  <linearGradient
     id="a"
     x2="1"
     gradientTransform="matrix(0 -36.2165 36.2165 0 703.214 42.119)"
     gradientUnits="userSpaceOnUse">
    <stop
       stop-color="#987557"
       offset="0"
       id="stop1" />
    <stop
       stop-color="#ae8d71"
       offset="1"
       id="stop2" />
  </linearGradient>
  <path
     d="m39.44 2.332c3.438 0 6.228 2.79 6.228 6.228v30.88c0 3.438-2.79 6.228-6.228 6.228h-30.88c-3.438 0-6.228-2.79-6.228-6.228v-30.88c0-3.438 2.79-6.228 6.228-6.228z"
     fill="url(#a)"
     id="path2" />
  <rect
     x="0.61351466"
     y="1.2847407"
     width="46.980431"
     height="47.123619"
     rx="10.907247"
     ry="10.94049"
     fill="url(#a)"
     id="rect63"
     style="display:inline;opacity:0.498652;fill:url(#a-3);stroke-width:3.17555" />
  <g
     filter="url(#c)"
     opacity=".35"
     id="g12"
     style="opacity:0.54371;filter:url(#c-3)"
     transform="matrix(3.2092268,0,0,3.2408788,-3.0609803,-3.0023083)">
    <path
       fill="url(#d)"
       d="m 5.36,1.058 c -1.53,0 -2.577,0.457 -3.26,1.2 -0.678,0.74 -1.042,1.8 -1.042,3.001 v 6.415 c 0,1.2 0.364,2.26 1.043,3 0.682,0.744 1.73,1.2 3.26,1.2 h 6.23 c 1.53,0 2.577,-0.456 3.26,-1.2 0.678,-0.739 1.024,-1.702 1.024,-3 V 5.5 c 0,-1.57 -0.346,-2.502 -1.024,-3.242 -0.683,-0.743 -1.73,-1.2 -3.26,-1.2 H 6.745 Z m 0,0.264 h 6.232 c 1.477,0 2.437,0.432 3.064,1.116 0.634,0.69 0.954,1.53 0.954,3.062 v 6.174 c 0,1.251 -0.322,2.134 -0.954,2.822 -0.627,0.684 -1.587,1.114 -3.064,1.114 H 5.359 C 3.882,15.61 2.922,15.18 2.295,14.496 1.67,13.814 1.322,12.821 1.322,11.674 V 5.26 C 1.322,4.112 1.67,3.12 2.295,2.438 2.922,1.754 3.882,1.322 5.359,1.322"
       id="path11-8"
       style="fill:url(#d-6)" />
    <path
       fill="url(#e)"
       d="m 5.36,1.058 c -1.53,0 -2.577,0.457 -3.26,1.2 -0.678,0.74 -1.042,1.8 -1.042,3.001 v 6.415 c 0,1.2 0.364,2.26 1.043,3 0.682,0.744 1.73,1.2 3.26,1.2 h 6.23 c 1.53,0 2.577,-0.456 3.26,-1.2 0.678,-0.739 1.024,-1.702 1.024,-3 V 5.5 c 0,-1.57 -0.346,-2.502 -1.024,-3.242 -0.683,-0.743 -1.73,-1.2 -3.26,-1.2 H 6.745 Z m 0,0.264 h 6.232 c 1.477,0 2.437,0.432 3.064,1.116 0.634,0.69 0.954,1.53 0.954,3.062 v 6.174 c 0,1.251 -0.322,2.134 -0.954,2.822 -0.627,0.684 -1.587,1.114 -3.064,1.114 H 5.359 C 3.882,15.61 2.922,15.18 2.295,14.496 1.67,13.814 1.322,12.821 1.322,11.674 V 5.26 C 1.322,4.112 1.67,3.12 2.295,2.438 2.922,1.754 3.882,1.322 5.359,1.322"
       id="path12-7"
       style="fill:url(#e-1)" />
  </g>
  <path
     d="m22.063 42.132h-15.126c-.793 0-1.437-.644-1.437-1.437v-3.126c0-.793.644-1.437 1.437-1.437h15.126c.793 0 1.437.644 1.437 1.437v3.126c0 .793-.644 1.437-1.437 1.437zm19 0h-15.126c-.793 0-1.437-.644-1.437-1.437v-3.126c0-.793.644-1.437 1.437-1.437h15.126c.793 0 1.437.644 1.437 1.437v3.126c0 .793-.644 1.437-1.437 1.437zm-30.563-1v-4h-4v4zm19 0v-4h-4v4z"
     fill="#fefdfd"
     id="path3" />
</svg>
