<?xml version="1.0" encoding="UTF-8" standalone="no"?>
<svg
   width="64"
   height="64"
   version="1.1"
   id="svg8"
   sodipodi:docname="preferences-system-time.svg"
   inkscape:version="1.4.2 (ebf0e940d0, 2025-05-08)"
   xmlns:inkscape="http://www.inkscape.org/namespaces/inkscape"
   xmlns:sodipodi="http://sodipodi.sourceforge.net/DTD/sodipodi-0.dtd"
   xmlns:xlink="http://www.w3.org/1999/xlink"
   xmlns="http://www.w3.org/2000/svg"
   xmlns:svg="http://www.w3.org/2000/svg">
  <sodipodi:namedview
     id="namedview8"
     pagecolor="#ffffff"
     bordercolor="#000000"
     borderopacity="0.25"
     inkscape:showpageshadow="2"
     inkscape:pageopacity="0.0"
     inkscape:pagecheckerboard="0"
     inkscape:deskcolor="#d1d1d1"
     inkscape:zoom="13.390625"
     inkscape:cx="32.03734"
     inkscape:cy="31.925321"
     inkscape:window-width="1920"
     inkscape:window-height="1047"
     inkscape:window-x="0"
     inkscape:window-y="0"
     inkscape:window-maximized="1"
     inkscape:current-layer="svg8" />
  <defs
     id="defs2">
    <linearGradient
       id="a"
       x1="8.466"
       x2="8.466"
       y1="1.058"
       y2="15.875"
       gradientTransform="scale(3.7796)"
       gradientUnits="userSpaceOnUse">
      <stop
         offset="0"
         stop-color="#ffffff"
         id="stop1" />
      <stop
         offset="1"
         stop-color="#ffffff"
         id="stop2" />
    </linearGradient>
    <filter
       id="b"
       width="1.0239725"
       height="1.0239741"
       x="-0.011986232"
       y="-0.011987041"
       color-interpolation-filters="sRGB">
      <feGaussianBlur
         stdDeviation=".074"
         id="feGaussianBlur2" />
    </filter>
    <filter
       id="c-5"
       width="1.0239725"
       height="1.0239741"
       x="-0.011986232"
       y="-0.011987041"
       color-interpolation-filters="sRGB">
      <feGaussianBlur
         stdDeviation=".074"
         id="feGaussianBlur8" />
    </filter>
    <linearGradient
       xlink:href="#a-6"
       id="d-5"
       x1="2.598"
       x2="10.583"
       y1="2.836"
       y2="11.312"
       gradientUnits="userSpaceOnUse" />
    <linearGradient
       id="a-6">
      <stop
         offset="0"
         stop-color="#ffffff"
         id="stop1-2" />
      <stop
         offset="1"
         stop-color="#ffffff"
         stop-opacity="0"
         id="stop2-9" />
    </linearGradient>
    <linearGradient
       xlink:href="#a-6"
       id="e-4"
       x1="15.081"
       x2="12.7"
       y1="14.816"
       y2="12.171"
       gradientUnits="userSpaceOnUse" />
    <linearGradient
       id="a-0"
       x1="7.9369998"
       x2="7.9369998"
       y1="15.081"
       y2="1.852"
       gradientUnits="userSpaceOnUse"
       gradientTransform="matrix(3.779602,0,0,3.779602,0.00118113,0.03141794)">
      <stop
         stop-color="#ffffff"
         offset="0"
         id="stop62"
         style="stop-color:#666666;stop-opacity:1;" />
      <stop
         stop-color="#ffffff"
         offset="1"
         id="stop63" />
    </linearGradient>
  </defs>
  <path
     fill="url(#a)"
     d="M 20.26,4 C 14.478,4 10.517,5.725 7.939,8.535 5.374,11.331 4,15.34 4,19.876 V 44.124 C 4,48.662 5.374,52.669 7.939,55.465 10.517,58.275 14.479,60 20.26,60 H 43.809 C 49.591,60 53.552,58.276 56.13,55.465 58.695,52.67 60,49.03 60,44.125 V 20.786 C 60,14.851 58.695,11.33 56.13,8.534 53.552,5.725 49.59,4 43.809,4 H 25.494 Z"
     id="path2"
     style="display:inline;opacity:0.429" />
  <path
     fill="#ffffff"
     d="m 5.36,1.058 c -1.53,0 -2.577,0.457 -3.26,1.2 -0.678,0.74 -1.042,1.8 -1.042,3.001 v 6.415 c 0,1.2 0.364,2.26 1.043,3 0.682,0.744 1.73,1.2 3.26,1.2 h 6.23 c 1.53,0 2.577,-0.456 3.26,-1.2 0.678,-0.739 1.024,-1.702 1.024,-3 V 5.5 c 0,-1.57 -0.346,-2.502 -1.024,-3.242 -0.683,-0.743 -1.73,-1.2 -3.26,-1.2 H 6.745 Z m 0,0.264 h 6.232 c 1.477,0 2.437,0.432 3.064,1.116 0.634,0.69 0.954,1.53 0.954,3.062 v 6.174 c 0,1.251 -0.322,2.134 -0.954,2.822 -0.627,0.684 -1.587,1.114 -3.064,1.114 H 5.359 C 3.882,15.61 2.922,15.18 2.295,14.496 1.67,13.814 1.322,12.821 1.322,11.674 V 5.26 C 1.322,4.112 1.67,3.12 2.295,2.438 2.922,1.754 3.882,1.322 5.359,1.322"
     filter="url(#b)"
     transform="scale(3.7796)"
     id="path3"
     style="display:inline;opacity:0.049" />
  <rect
     x="3.9999998"
     y="3.9999998"
     width="56.002365"
     height="56.002365"
     rx="13.001831"
     ry="13.001831"
     fill="url(#a)"
     id="rect63"
     style="display:inline;opacity:0.2962963;fill:url(#a-0);stroke-width:3.7796" />
  <g
     fill="none"
     stroke="#633f2c"
     stroke-linecap="round"
     stroke-linejoin="round"
     opacity="0.75"
     id="g4"
     style="display:inline">
    <path
       d="m 32,7 v 5.25 m 9.875,2.646 4.543,-7.871 M 22.125,14.896 17.582,7.025 M 7.025,46.418 14.897,41.875 m 34.207,-19.75 7.87,-4.543 M 32,51.75 V 57 M 57,32 h -5.25 m -39.5,0 H 7 m 34.875,17.104 4.543,7.871 M 22.125,49.104 17.582,56.975 M 56.975,46.418 49.104,41.875 M 14.897,22.125 7.026,17.582"
       opacity="1"
       style="paint-order:fill markers stroke"
       id="path4" />
  </g>
  <g
     stroke="#633f2c"
     stroke-linecap="round"
     stroke-linejoin="round"
     stroke-width="0.6"
     opacity=".2"
     id="g5"
     style="display:inline;opacity:0.258573">
    <path
       d="M 57,34.629 53.25,34.234 M 10.75,29.766 7,29.37 m 50,7.942 -3.75,-0.797 M 10.75,27.484 7,26.687 M 57,40.123 53.25,38.904 M 10.75,25.095 7,23.876 m 50,19.255 -3.75,-1.67 M 10.75,22.54 7,20.87 M 56.281,49.641 53.039,47.286 M 10.96,16.716 7.719,14.36 M 54.732,52.469 51.877,49.897 M 12.123,14.104 9.267,11.53 M 52.469,54.732 49.897,51.877 M 14.104,12.123 11.53,9.267 m 2.829,-1.548 2.356,3.242 m 30.57,42.078 2.355,3.242 M 20.869,7 l 1.67,3.75 M 41.461,53.25 43.13,57 M 23.877,7 25.096,10.75 M 38.905,53.25 40.124,57 M 26.688,7 l 0.797,3.75 m 9.031,42.5 0.797,3.75 M 29.371,7 29.766,10.75 M 34.234,53.25 34.63,57 M 34.629,7 34.234,10.75 M 29.766,53.25 29.37,57 M 37.312,7 36.515,10.75 M 27.484,53.25 26.687,57 M 40.123,7 38.904,10.75 M 25.095,53.25 23.876,57 M 43.131,7 41.461,10.75 M 22.54,53.25 20.87,57 M 49.641,7.719 47.286,10.961 m -30.57,42.078 -2.356,3.242 m -2.829,-1.549 2.572,-2.855 M 49.896,12.123 52.469,9.267 M 9.268,52.469 12.123,49.897 M 51.877,14.104 54.733,11.531 M 7.719,49.641 10.961,47.286 M 53.039,16.716 56.281,14.36 M 7,43.131 10.75,41.461 M 53.25,22.539 57,20.87 M 7,40.123 10.75,38.904 M 53.25,25.095 57,23.876 M 7,37.312 10.75,36.515 M 53.25,27.484 57,26.687 M 7,34.629 10.75,34.234 M 53.25,29.766 57,29.37"
       opacity="1"
       style="paint-order:fill markers stroke"
       id="path5" />
  </g>
  <path
     fill="#b98062"
     stroke="#b98062"
     stroke-linecap="round"
     stroke-linejoin="round"
     stroke-width="0.3"
     d="m 33.57,14.107 a 1.7,1.7 0 0 0 -0.832,0.201 1.5,1.5 0 0 0 -0.578,0.553 q -0.21,0.352 -0.21,0.807 v 0.005 l 0.005,0.006 0.004,0.006 0.002,0.002 0.002,0.002 0.005,0.002 h 0.506 l 0.006,-0.004 h 0.002 l 0.006,-0.008 0.002,-0.002 0.002,-0.006 v -0.003 q 0,-0.465 0.289,-0.764 0.29,-0.3 0.773,-0.299 0.462,0 0.766,0.275 c 0.202,0.182 0.303,0.419 0.303,0.72 q 0,0.247 -0.096,0.478 a 2.3,2.3 0 0 1 -0.305,0.498 q -0.21,0.27 -0.54,0.644 h 10e-4 l -1.767,1.973 -0.002,0.002 -0.002,0.002 -0.002,0.006 v 0.386 l 0.004,0.006 v 0.002 l 0.008,0.006 10e-4,0.002 0.006,0.002 H 35.3 l 0.006,-0.002 0.006,-0.002 0.002,-0.002 0.002,-0.002 0.004,-0.006 0.002,-0.005 V 19.119 L 35.318,19.113 35.314,19.107 35.312,19.105 35.31,19.103 35.304,19.101 h -2.629 v -0.004 l 1.31,-1.455 q 0.45,-0.498 0.704,-0.844 0.258,-0.347 0.361,-0.627 0.106,-0.277 0.106,-0.578 a 1.43,1.43 0 0 0 -0.77,-1.289 1.65,1.65 0 0 0 -0.816,-0.197 m -3.594,0.072 -0.002,0.002 -0.006,0.002 -1.15,0.856 -0.002,0.002 -0.002,0.002 -0.004,0.005 -0.002,0.006 v 0.561 l 0.002,0.006 0.002,0.006 0.002,10e-4 0.004,0.004 0.006,0.004 h 0.016 l 0.005,-0.004 1.243,-0.923 h 0.005 v 4.88 l 0.004,0.006 v 0.002 l 0.008,0.006 0.002,0.002 0.006,0.002 h 0.516 l 0.005,-0.004 h 0.002 l 0.006,-0.008 0.002,-0.002 0.002,-0.006 v -5.39 L 30.642,14.191 V 14.189 L 30.634,14.183 30.632,14.181 30.627,14.179 H 29.976 M 16.074,29.32 a 1.66,1.66 0 0 0 -0.918,0.239 1.67,1.67 0 0 0 -0.607,0.648 q -0.216,0.406 -0.217,0.896 0,0.51 0.223,0.915 h 0.002 q 0.226,0.398 0.603,0.628 0.38,0.228 0.838,0.229 0.443,0 0.807,-0.217 0.356,-0.216 0.543,-0.57 c -0.004,0.734 -0.12,1.305 -0.354,1.701 -0.238,0.402 -0.567,0.6 -0.996,0.6 q -0.45,0 -0.717,-0.272 -0.269,-0.272 -0.336,-0.687 L 14.943,33.424 14.941,33.422 14.936,33.414 14.934,33.412 H 14.932 L 14.926,33.41 h -0.518 l -0.006,0.004 -0.006,0.004 -0.001,0.002 -0.002,0.006 -0.002,0.006 v 0.004 q 0.08,0.646 0.507,1.054 H 14.9 q 0.433,0.404 1.098,0.403 0.633,0 1.053,-0.39 0.417,-0.387 0.625,-1.067 a 5.4,5.4 0 0 0 0.207,-1.561 Q 17.882,31.17 17.729,30.682 V 30.68 Q 17.58,30.194 17.32,29.896 17.065,29.596 16.738,29.459 H 16.736 A 1.8,1.8 0 0 0 16.074,29.32 m 31.826,0 q -0.46,0 -0.838,0.184 a 1.54,1.54 0 0 0 -0.603,0.51 h -0.002 q -0.224,0.326 -0.235,0.752 v 0.005 l 0.002,0.006 0.004,0.006 0.002,0.002 0.006,0.004 0.006,0.002 h 0.508 l 0.006,-0.004 h 0.002 l 0.005,-0.008 0.002,-0.002 0.002,-0.006 v -0.003 a 0.87,0.87 0 0 1 0.159,-0.5 1,1 0 0 1 0.406,-0.333 q 0.255,-0.117 0.56,-0.117 0.473,0 0.758,0.272 0.285,0.27 0.285,0.703 a 0.89,0.89 0 0 1 -0.328,0.723 q -0.325,0.268 -0.834,0.267 h -0.318 l -0.006,0.002 -0.006,0.002 -0.002,0.002 -0.002,0.002 -0.004,0.006 -0.002,0.006 v 0.465 l 0.004,0.005 0.004,0.006 0.002,0.002 0.002,0.002 0.006,0.002 h 0.322 q 0.622,0 0.979,0.299 0.36,0.296 0.36,0.77 0,0.3 -0.155,0.53 -0.156,0.235 -0.436,0.37 -0.276,0.135 -0.638,0.135 -0.336,0 -0.606,-0.118 a 1.07,1.07 0 0 1 -0.431,-0.33 0.9,0.9 0 0 1 -0.176,-0.5 L 46.668,33.435 46.666,33.43 46.664,33.428 46.662,33.426 46.656,33.422 46.65,33.42 h -0.525 l -0.006,0.004 h -0.002 l -0.006,0.008 -0.002,0.002 -0.002,0.005 v 0.004 q 0.012,0.43 0.242,0.758 0.236,0.327 0.635,0.51 0.399,0.183 0.905,0.182 0.514,0 0.914,-0.202 0.401,-0.2 0.632,-0.545 0.233,-0.349 0.233,-0.789 0,-0.517 -0.303,-0.879 c -0.197,-0.235 -0.469,-0.382 -0.807,-0.453 v -0.011 c 0.28,-0.087 0.505,-0.234 0.67,-0.45 q 0.256,-0.33 0.256,-0.796 0,-0.394 -0.195,-0.721 A 1.43,1.43 0 0 0 48.739,29.519 1.7,1.7 0 0 0 47.9,29.32 m -31.832,0.506 q 0.325,0 0.582,0.162 0.26,0.159 0.42,0.444 0.164,0.28 0.192,0.636 0.024,0.347 -0.131,0.645 -0.156,0.294 -0.438,0.478 -0.274,0.181 -0.625,0.182 -0.34,0 -0.61,-0.166 A 1.2,1.2 0 0 1 15.037,31.75 q -0.156,-0.291 -0.156,-0.647 c 0,-0.356 0.052,-0.45 0.156,-0.642 A 1.2,1.2 0 0 1 15.459,30 1.1,1.1 0 0 1 16.069,29.826 M 32.443,44.32 q -0.63,0 -1.05,0.389 -0.421,0.388 -0.63,1.068 -0.207,0.675 -0.207,1.553 0,0.706 0.15,1.2 0.154,0.49 0.413,0.792 0.26,0.3 0.584,0.436 0.325,0.135 0.67,0.134 0.522,0 0.914,-0.242 0.39,-0.245 0.603,-0.65 0.216,-0.406 0.217,-0.897 0,-0.51 -0.226,-0.91 a 1.66,1.66 0 0 0 -0.602,-0.629 1.57,1.57 0 0 0 -0.832,-0.232 q -0.442,0 -0.809,0.217 c -0.235,0.14 -0.414,0.334 -0.54,0.57 0.003,-0.73 0.115,-1.3 0.347,-1.695 0.238,-0.402 0.567,-0.598 0.998,-0.598 q 0.451,0 0.715,0.268 0.269,0.269 0.34,0.677 l 0.002,0.006 0.002,0.002 0.006,0.008 0.002,0.002 h 0.002 l 0.005,0.002 h 0.514 l 0.006,-0.004 0.008,-0.006 0.002,-0.002 0.002,-0.006 v -0.01 q -0.08,-0.638 -0.512,-1.039 -0.43,-0.404 -1.094,-0.404 m -0.07,2.514 q 0.34,0 0.607,0.17 0.27,0.165 0.426,0.457 0.156,0.286 0.156,0.642 0,0.356 -0.156,0.65 a 1.24,1.24 0 0 1 -0.426,0.466 q -0.267,0.17 -0.607,0.17 -0.322,0 -0.58,-0.165 a 1.2,1.2 0 0 1 -0.42,-0.445 1.55,1.55 0 0 1 -0.188,-0.648 1.17,1.17 0 0 1 0.127,-0.637 v -0.002 q 0.153,-0.298 0.434,-0.478 0.279,-0.18 0.627,-0.18"
     style="display:inline;paint-order:fill markers stroke"
     id="path6" />
  <path
     fill="#734a33"
     d="m 20.123,25.918 c -0.46,0.016 -0.9,0.316 -1.096,0.797 -0.262,0.641 0.01,1.354 0.61,1.6 l 8.017,3.273 c 0.446,0.182 0.944,0.054 1.278,-0.287 l 1.326,0.54 A 2,2 0 0 0 30.25,32 a 2,2 0 0 0 0.012,0.205 l -1.323,0.56 c -0.338,-0.337 -0.836,-0.46 -1.279,-0.273 l -15.268,6.514 c -0.597,0.252 -0.86,0.97 -0.59,1.607 0.27,0.638 0.968,0.948 1.565,0.696 l 15.268,-6.514 c 0.443,-0.188 0.702,-0.632 0.695,-1.11 l 1.328,-0.562 A 1.75,1.75 0 0 0 32,33.75 1.75,1.75 0 0 0 33.75,32 1.75,1.75 0 0 0 32,30.25 1.75,1.75 0 0 0 30.629,30.912 l -1.32,-0.537 c 0,-0.477 -0.264,-0.92 -0.71,-1.102 L 20.583,26 a 1.1,1.1 0 0 0 -0.459,-0.082"
     style="display:inline;paint-order:fill markers stroke"
     id="path7" />
  <path
     fill="#ebdcd3"
     d="m 32,28.256 c -0.332,0 -0.6,0.267 -0.6,0.6 v 1.25 a 0.6,0.6 0 0 0 0.2,0.449 v 0.527 A 1,1 0 0 0 31,32 a 1,1 0 0 0 0.6,0.916 v 0.621 a 0.6,0.6 0 0 0 -0.2,0.45 V 53.35 c 0,0.333 0.268,0.6 0.6,0.6 0.332,0 0.6,-0.267 0.6,-0.6 V 33.986 a 0.6,0.6 0 0 0 -0.2,-0.449 v -0.62 A 1,1 0 0 0 33,32 1,1 0 0 0 32.4,31.082 v -0.527 a 0.6,0.6 0 0 0 0.2,-0.45 v -1.25 c 0,-0.332 -0.268,-0.599 -0.6,-0.599"
     style="display:inline;paint-order:fill markers stroke"
     id="path8" />
  <circle
     cx="32"
     cy="32"
     r="0.5"
     fill="#ffffff"
     style="display:inline;paint-order:fill markers stroke"
     id="circle8" />
  <g
     filter="url(#c)"
     opacity=".35"
     id="g12"
     style="display:inline;opacity:1;filter:url(#c-5)"
     transform="matrix(3.779602,0,0,3.779602,-0.32756159,-0.32756159)">
    <path
       fill="url(#d)"
       d="m 5.36,1.058 c -1.53,0 -2.577,0.457 -3.26,1.2 -0.678,0.74 -1.042,1.8 -1.042,3.001 v 6.415 c 0,1.2 0.364,2.26 1.043,3 0.682,0.744 1.73,1.2 3.26,1.2 h 6.23 c 1.53,0 2.577,-0.456 3.26,-1.2 0.678,-0.739 1.024,-1.702 1.024,-3 V 5.5 c 0,-1.57 -0.346,-2.502 -1.024,-3.242 -0.683,-0.743 -1.73,-1.2 -3.26,-1.2 H 6.745 Z m 0,0.264 h 6.232 c 1.477,0 2.437,0.432 3.064,1.116 0.634,0.69 0.954,1.53 0.954,3.062 v 6.174 c 0,1.251 -0.322,2.134 -0.954,2.822 -0.627,0.684 -1.587,1.114 -3.064,1.114 H 5.359 C 3.882,15.61 2.922,15.18 2.295,14.496 1.67,13.814 1.322,12.821 1.322,11.674 V 5.26 C 1.322,4.112 1.67,3.12 2.295,2.438 2.922,1.754 3.882,1.322 5.359,1.322"
       id="path11"
       style="fill:url(#d-5)" />
    <path
       fill="url(#e)"
       d="m 5.36,1.058 c -1.53,0 -2.577,0.457 -3.26,1.2 -0.678,0.74 -1.042,1.8 -1.042,3.001 v 6.415 c 0,1.2 0.364,2.26 1.043,3 0.682,0.744 1.73,1.2 3.26,1.2 h 6.23 c 1.53,0 2.577,-0.456 3.26,-1.2 0.678,-0.739 1.024,-1.702 1.024,-3 V 5.5 c 0,-1.57 -0.346,-2.502 -1.024,-3.242 -0.683,-0.743 -1.73,-1.2 -3.26,-1.2 H 6.745 Z m 0,0.264 h 6.232 c 1.477,0 2.437,0.432 3.064,1.116 0.634,0.69 0.954,1.53 0.954,3.062 v 6.174 c 0,1.251 -0.322,2.134 -0.954,2.822 -0.627,0.684 -1.587,1.114 -3.064,1.114 H 5.359 C 3.882,15.61 2.922,15.18 2.295,14.496 1.67,13.814 1.322,12.821 1.322,11.674 V 5.26 C 1.322,4.112 1.67,3.12 2.295,2.438 2.922,1.754 3.882,1.322 5.359,1.322"
       id="path12"
       style="fill:url(#e-4)" />
  </g>
</svg>
