<?xml version="1.0" encoding="UTF-8" standalone="no"?>
<svg
   clip-rule="evenodd"
   fill-rule="evenodd"
   stroke-linejoin="round"
   stroke-miterlimit="2"
   viewBox="0 0 48 48"
   version="1.1"
   id="svg3"
   sodipodi:docname="qtdesigner.svg"
   inkscape:version="1.4.2 (ebf0e940d0, 2025-05-08)"
   xmlns:inkscape="http://www.inkscape.org/namespaces/inkscape"
   xmlns:sodipodi="http://sodipodi.sourceforge.net/DTD/sodipodi-0.dtd"
   xmlns:xlink="http://www.w3.org/1999/xlink"
   xmlns="http://www.w3.org/2000/svg"
   xmlns:svg="http://www.w3.org/2000/svg">
  <defs
     id="defs3">
    <linearGradient
       id="a-3"
       x1="7.9369998"
       x2="7.9369998"
       y1="15.081"
       y2="1.852"
       gradientUnits="userSpaceOnUse"
       gradientTransform="matrix(3.0892772,0,0,3.1967359,-2.0952076,-3.0572105)">
      <stop
         stop-color="#ffffff"
         offset="0"
         id="stop62"
         style="stop-color:#666666;stop-opacity:1;" />
      <stop
         stop-color="#ffffff"
         offset="1"
         id="stop63" />
    </linearGradient>
    <filter
       id="c-3"
       width="1.0239725"
       height="1.0239741"
       x="-0.011986232"
       y="-0.011987041"
       color-interpolation-filters="sRGB">
      <feGaussianBlur
         stdDeviation=".074"
         id="feGaussianBlur8" />
    </filter>
    <linearGradient
       xlink:href="#a-6"
       id="d"
       x1="2.598"
       x2="10.583"
       y1="2.836"
       y2="11.312"
       gradientUnits="userSpaceOnUse" />
    <linearGradient
       id="a-6">
      <stop
         offset="0"
         stop-color="#ffffff"
         id="stop1-7" />
      <stop
         offset="1"
         stop-color="#ffffff"
         stop-opacity="0"
         id="stop2-5" />
    </linearGradient>
    <linearGradient
       xlink:href="#a-6"
       id="e"
       x1="15.081"
       x2="12.7"
       y1="14.816"
       y2="12.171"
       gradientUnits="userSpaceOnUse" />
  </defs>
  <sodipodi:namedview
     id="namedview3"
     pagecolor="#ffffff"
     bordercolor="#000000"
     borderopacity="0.25"
     inkscape:showpageshadow="2"
     inkscape:pageopacity="0.0"
     inkscape:pagecheckerboard="0"
     inkscape:deskcolor="#d1d1d1"
     inkscape:zoom="9.56"
     inkscape:cx="32.89749"
     inkscape:cy="20.240586"
     inkscape:window-width="1268"
     inkscape:window-height="681"
     inkscape:window-x="237"
     inkscape:window-y="77"
     inkscape:window-maximized="0"
     inkscape:current-layer="svg3" />
  <linearGradient
     id="a"
     x2="1"
     gradientTransform="matrix(1.7854115,-43.855237,44.132914,1.7741779,22.799455,46.187237)"
     gradientUnits="userSpaceOnUse">
    <stop
       stop-color="#a37f60"
       offset="0"
       id="stop1" />
    <stop
       stop-color="#e0d4c9"
       offset="1"
       id="stop2" />
  </linearGradient>
  <path
     d="M 46.400218,8.7299503 C 46.400218,5.1981338 43.515936,2.332 39.961757,2.332 H 8.0382426 c -3.5541789,0 -6.4384602,2.8661338 -6.4384602,6.3979503 V 40.452607 c 0,3.531816 2.8842813,6.39795 6.4384602,6.39795 H 39.961757 c 3.554179,0 6.438461,-2.866134 6.438461,-6.39795 z"
     fill="url(#a)"
     id="path2"
     style="fill:url(#a);stroke-width:1.03054;opacity:0.31214689" />
  <path
     d="m18.186 10.976c-2.622.013-4.576 1.017-5.854 3.009-1.277 1.981-1.904 4.838-1.886 8.575.019 3.815.673 6.722 1.97 8.713.907 1.393 2.115 2.293 3.624 2.704 0 0 .306-.017.333.309.539 4.214 3.174 4.21 6.178 4.195 0 0 .388-.002.386-.389l-.012-2.326c-.002-.388-.39-.386-.39-.386-1.5.007-1.889.108-2.298-1.394.508-.129.979-.302 1.416-.528.987-.521 1.799-1.275 2.438-2.266.639-1.001 1.11-2.229 1.413-3.689.315-1.461.47-3.133.461-5.018-.019-3.782-.686-6.647-2.006-8.593-1.321-1.957-3.246-2.928-5.773-2.916zm10.949 18.944c-.009-1.939-.032-8.103-.032-8.103l-1.583.008-.021-2.753c2.328-.011 1.552.057 2.694-4.601l3.003-.014.022 4.587 3.204-.015.021 2.752-3.204.016.026 6.939c.004.722.156 1.266.458 1.631s.697.546 1.186.544c.623.057 1.57-.252 1.57-.252l.013 2.714c-.078.056-3.818 1.215-5.82.028-1.945-1.153-1.537-3.481-1.537-3.481zm-10.964-17.054c.549-.002.971.189 1.324.588.208.226.392.525.562.881.097.263.193.542.271.859.21.856.362 1.893.452 3.124.089 1.228.134 2.628.141 4.191.008 1.574-.023 2.989-.101 4.241-.077 1.242-.219 2.297-.421 3.176-.075.327-.165.624-.262.898-.016.035-.032.075-.048.109-.153.318-.32.586-.505.802-.35.424-.772.622-1.319.625-.547.002-.97-.191-1.324-.612-.347-.427-.633-1.052-.846-1.886-.214-.848-.361-1.885-.452-3.111-.091-1.24-.146-2.648-.153-4.216-.008-1.556.034-2.938.113-4.156.079-1.215.216-2.24.421-3.067.205-.825.488-1.439.828-1.846.349-.401.769-.597 1.319-.6z"
     fill="#ffffff"
     fill-opacity=".85"
     fill-rule="nonzero"
     id="path3" />
  <rect
     x="1.1732477"
     y="0.29936191"
     width="45.773823"
     height="47.366039"
     rx="10.627113"
     ry="10.996771"
     fill="url(#a)"
     id="rect63"
     style="display:inline;opacity:0.510917;fill:url(#a-3);stroke-width:3.14254" />
  <g
     filter="url(#c)"
     opacity=".35"
     id="g12"
     style="opacity:0.54371;filter:url(#c-3)"
     transform="matrix(3.0892772,0,0,3.1295718,-2.3639075,-2.5644814)">
    <path
       fill="url(#d)"
       d="m 5.36,1.058 c -1.53,0 -2.577,0.457 -3.26,1.2 -0.678,0.74 -1.042,1.8 -1.042,3.001 v 6.415 c 0,1.2 0.364,2.26 1.043,3 0.682,0.744 1.73,1.2 3.26,1.2 h 6.23 c 1.53,0 2.577,-0.456 3.26,-1.2 0.678,-0.739 1.024,-1.702 1.024,-3 V 5.5 c 0,-1.57 -0.346,-2.502 -1.024,-3.242 -0.683,-0.743 -1.73,-1.2 -3.26,-1.2 H 6.745 Z m 0,0.264 h 6.232 c 1.477,0 2.437,0.432 3.064,1.116 0.634,0.69 0.954,1.53 0.954,3.062 v 6.174 c 0,1.251 -0.322,2.134 -0.954,2.822 -0.627,0.684 -1.587,1.114 -3.064,1.114 H 5.359 C 3.882,15.61 2.922,15.18 2.295,14.496 1.67,13.814 1.322,12.821 1.322,11.674 V 5.26 C 1.322,4.112 1.67,3.12 2.295,2.438 2.922,1.754 3.882,1.322 5.359,1.322"
       id="path11"
       style="fill:url(#d)" />
    <path
       fill="url(#e)"
       d="m 5.36,1.058 c -1.53,0 -2.577,0.457 -3.26,1.2 -0.678,0.74 -1.042,1.8 -1.042,3.001 v 6.415 c 0,1.2 0.364,2.26 1.043,3 0.682,0.744 1.73,1.2 3.26,1.2 h 6.23 c 1.53,0 2.577,-0.456 3.26,-1.2 0.678,-0.739 1.024,-1.702 1.024,-3 V 5.5 c 0,-1.57 -0.346,-2.502 -1.024,-3.242 -0.683,-0.743 -1.73,-1.2 -3.26,-1.2 H 6.745 Z m 0,0.264 h 6.232 c 1.477,0 2.437,0.432 3.064,1.116 0.634,0.69 0.954,1.53 0.954,3.062 v 6.174 c 0,1.251 -0.322,2.134 -0.954,2.822 -0.627,0.684 -1.587,1.114 -3.064,1.114 H 5.359 C 3.882,15.61 2.922,15.18 2.295,14.496 1.67,13.814 1.322,12.821 1.322,11.674 V 5.26 C 1.322,4.112 1.67,3.12 2.295,2.438 2.922,1.754 3.882,1.322 5.359,1.322"
       id="path12"
       style="fill:url(#e)" />
  </g>
</svg>
