<?xml version="1.0" encoding="UTF-8" standalone="no"?>
<svg
   width="64"
   height="64"
   version="1.1"
   id="svg194"
   sodipodi:docname="redshift.svg"
   inkscape:version="1.4.2 (ebf0e940d0, 2025-05-08)"
   xmlns:inkscape="http://www.inkscape.org/namespaces/inkscape"
   xmlns:sodipodi="http://sodipodi.sourceforge.net/DTD/sodipodi-0.dtd"
   xmlns:xlink="http://www.w3.org/1999/xlink"
   xmlns="http://www.w3.org/2000/svg"
   xmlns:svg="http://www.w3.org/2000/svg">
  <sodipodi:namedview
     id="namedview194"
     pagecolor="#ffffff"
     bordercolor="#000000"
     borderopacity="0.25"
     inkscape:showpageshadow="2"
     inkscape:pageopacity="0.0"
     inkscape:pagecheckerboard="0"
     inkscape:deskcolor="#d1d1d1"
     inkscape:zoom="13.390625"
     inkscape:cx="31.96266"
     inkscape:cy="31.925321"
     inkscape:window-width="1920"
     inkscape:window-height="1047"
     inkscape:window-x="0"
     inkscape:window-y="0"
     inkscape:window-maximized="1"
     inkscape:current-layer="svg194" />
  <defs
     id="defs162">
    <linearGradient
       id="g"
       x1="511.5"
       x2="511.5"
       y1="47.659"
       y2="493.14"
       gradientUnits="userSpaceOnUse">
      <stop
         stop-color="#ffffff"
         offset="0"
         id="stop1" />
      <stop
         stop-color="#ffffff"
         offset=".223"
         id="stop2" />
      <stop
         stop-color="#ffffff"
         offset=".492"
         id="stop3" />
      <stop
         stop-color="#ffffff"
         offset=".786"
         id="stop4" />
      <stop
         stop-color="#f7f3ef"
         offset="1"
         id="stop5" />
    </linearGradient>
    <linearGradient
       id="i"
       x1="511.5"
       x2="511.5"
       y1="489.54"
       y2="452.53"
       gradientUnits="userSpaceOnUse">
      <stop
         stop-color="#ffffff"
         stop-opacity=".6"
         offset="0"
         id="stop6" />
      <stop
         stop-color="#ffffff"
         stop-opacity="0"
         offset="1"
         id="stop7" />
    </linearGradient>
    <linearGradient
       id="j"
       x1="398.74"
       x2="617.05"
       y1="897.5"
       y2="897.5"
       gradientUnits="userSpaceOnUse">
      <stop
         stop-color="#dfcdc0"
         offset="0"
         id="stop8" />
      <stop
         stop-color="#e1d1c4"
         offset=".149"
         id="stop9" />
      <stop
         stop-color="#e6d9ce"
         offset=".257"
         id="stop10" />
      <stop
         stop-color="#f0e8e2"
         offset=".351"
         id="stop11" />
      <stop
         stop-color="#fbf9f7"
         offset=".424"
         id="stop12" />
      <stop
         stop-color="#fbf9f7"
         offset=".51"
         id="stop13" />
      <stop
         stop-color="#fbf9f7"
         offset=".594"
         id="stop14" />
      <stop
         stop-color="#eee5de"
         offset=".727"
         id="stop15" />
      <stop
         stop-color="#e3d4c8"
         offset=".887"
         id="stop16" />
      <stop
         stop-color="#dfcdc0"
         offset="1"
         id="stop17" />
    </linearGradient>
    <linearGradient
       id="k"
       x1="589.66"
       x2="550.74"
       y1="930.65"
       y2="940.95"
       gradientUnits="userSpaceOnUse">
      <stop
         stop-color="#e5d7cb"
         offset=".283"
         id="stop18" />
      <stop
         stop-color="#e9ded5"
         stop-opacity=".426"
         offset=".87"
         id="stop19" />
      <stop
         stop-color="#eadfd6"
         stop-opacity=".314"
         offset=".984"
         id="stop20" />
      <stop
         stop-color="#eadfd6"
         stop-opacity=".3"
         offset="1"
         id="stop21" />
    </linearGradient>
    <linearGradient
       id="l"
       x1="429.24"
       x2="481.42"
       y1="934.46"
       y2="937.38"
       gradientUnits="userSpaceOnUse">
      <stop
         stop-color="#e5d7cb"
         offset=".056"
         id="stop22" />
      <stop
         stop-color="#eadfd6"
         stop-opacity=".3"
         offset="1"
         id="stop23" />
    </linearGradient>
    <linearGradient
       id="m"
       x1="562.24"
       x2="599.68"
       y1="964.24"
       y2="927.03"
       gradientUnits="userSpaceOnUse">
      <stop
         stop-color="#ffffff"
         stop-opacity="0"
         offset=".056"
         id="stop24" />
      <stop
         stop-color="#ffffff"
         stop-opacity=".399"
         offset=".432"
         id="stop25" />
      <stop
         stop-color="#efe6df"
         stop-opacity=".798"
         offset=".809"
         id="stop26" />
      <stop
         stop-color="#e5d7cb"
         offset="1"
         id="stop27" />
    </linearGradient>
    <linearGradient
       id="n"
       x1="622.96"
       x2="544.4"
       y1="839.91"
       y2="869.03"
       gradientUnits="userSpaceOnUse">
      <stop
         stop-color="#e9ded5"
         offset="0"
         id="stop28" />
      <stop
         stop-color="#ffffff"
         offset=".369"
         id="stop29" />
      <stop
         stop-color="#ffffff"
         stop-opacity=".912"
         offset=".454"
         id="stop30" />
      <stop
         stop-color="#ffffff"
         stop-opacity=".811"
         offset=".55"
         id="stop31" />
      <stop
         stop-color="#ffffff"
         stop-opacity=".7"
         offset=".657"
         id="stop32" />
      <stop
         stop-color="#ffffff"
         stop-opacity="0"
         offset="1"
         id="stop33" />
    </linearGradient>
    <linearGradient
       id="o"
       x1="398.32"
       x2="592.72"
       y1="914.36"
       y2="914.36"
       gradientUnits="userSpaceOnUse">
      <stop
         stop-color="#e5d7cb"
         offset="0"
         id="stop34" />
      <stop
         stop-color="#e7dacf"
         offset=".069"
         id="stop35" />
      <stop
         stop-color="#ede3db"
         offset=".12"
         id="stop36" />
      <stop
         stop-color="#f7f3ef"
         offset=".164"
         id="stop37" />
      <stop
         stop-color="#ffffff"
         offset=".204"
         id="stop38" />
      <stop
         stop-color="#ffffff"
         offset=".242"
         id="stop39" />
      <stop
         stop-color="#ffffff"
         offset=".244"
         id="stop40" />
      <stop
         stop-color="#ffffff"
         offset=".305"
         id="stop41" />
      <stop
         stop-color="#ffffff"
         offset=".385"
         id="stop42" />
      <stop
         stop-color="#ffffff"
         offset=".46"
         id="stop43" />
      <stop
         stop-color="#ffffff"
         stop-opacity="0"
         offset=".944"
         id="stop44" />
    </linearGradient>
    <linearGradient
       id="p"
       x1="433.25"
       x2="592.42"
       y1="951.5"
       y2="951.5"
       gradientUnits="userSpaceOnUse">
      <stop
         stop-color="#ffffff"
         stop-opacity="0"
         offset=".036"
         id="stop45" />
      <stop
         stop-color="#ffffff"
         offset=".46"
         id="stop46" />
      <stop
         stop-color="#ffffff"
         stop-opacity="0"
         offset=".944"
         id="stop47" />
    </linearGradient>
    <linearGradient
       id="q"
       x1="400.28"
       x2="456.82"
       y1="850.45"
       y2="863.8"
       gradientUnits="userSpaceOnUse">
      <stop
         stop-color="#e7dacf"
         offset="0"
         id="stop48" />
      <stop
         stop-color="#f2eae5"
         offset=".369"
         id="stop49" />
      <stop
         stop-color="#f8f4f1"
         offset=".69"
         id="stop50" />
      <stop
         stop-color="#f9f6f3"
         stop-opacity=".977"
         offset=".705"
         id="stop51" />
      <stop
         stop-color="#ffffff"
         stop-opacity=".815"
         offset=".815"
         id="stop52" />
      <stop
         stop-color="#ffffff"
         stop-opacity=".7"
         offset=".894"
         id="stop53" />
      <stop
         stop-color="#ffffff"
         stop-opacity=".661"
         offset=".902"
         id="stop54" />
      <stop
         stop-color="#ffffff"
         stop-opacity=".2"
         offset=".999"
         id="stop55" />
    </linearGradient>
    <linearGradient
       id="r"
       x1="436.23"
       x2="547.22"
       y1="879.82"
       y2="879.82"
       gradientUnits="userSpaceOnUse">
      <stop
         stop-color="#aa7d58"
         offset="0"
         id="stop56" />
      <stop
         stop-color="#aa7d58"
         stop-opacity="0"
         offset="1"
         id="stop57" />
    </linearGradient>
    <linearGradient
       id="s"
       x1="585.22"
       x2="434.68"
       y1="863.53"
       y2="876.3"
       gradientUnits="userSpaceOnUse">
      <stop
         stop-color="#aa7d58"
         offset="0"
         id="stop58" />
      <stop
         stop-color="#aa7d58"
         stop-opacity="0"
         offset="1"
         id="stop59" />
    </linearGradient>
    <linearGradient
       id="t"
       x1="453.76"
       x2="583.72"
       y1="901.12"
       y2="901.12"
       gradientUnits="userSpaceOnUse">
      <stop
         stop-color="#aa7d58"
         stop-opacity="0"
         offset="0"
         id="stop60" />
      <stop
         stop-color="#aa7d58"
         offset="1"
         id="stop61" />
    </linearGradient>
    <linearGradient
       id="u"
       x1="618.62"
       x2="540.56"
       y1="900.35"
       y2="921.85"
       gradientUnits="userSpaceOnUse">
      <stop
         stop-color="#e5d7cb"
         offset="0"
         id="stop62" />
      <stop
         stop-color="#ece2da"
         offset=".078"
         id="stop63" />
      <stop
         stop-color="#fefdfc"
         offset=".215"
         id="stop64" />
      <stop
         stop-color="#ffffff"
         offset=".374"
         id="stop65" />
      <stop
         stop-color="#ffffff"
         stop-opacity="0"
         offset="1"
         id="stop66" />
    </linearGradient>
    <linearGradient
       id="v"
       x1="398.06"
       x2="625.53"
       y1="879.07"
       y2="879.07"
       gradientUnits="userSpaceOnUse">
      <stop
         stop-color="#eee5de"
         offset="0"
         id="stop67" />
      <stop
         stop-color="#f1e9e3"
         offset=".022"
         id="stop68" />
      <stop
         stop-color="#fbf9f7"
         offset=".049"
         id="stop69" />
      <stop
         stop-color="#ffffff"
         offset=".078"
         id="stop70" />
      <stop
         stop-color="#ffffff"
         offset=".087"
         id="stop71" />
      <stop
         stop-color="#ffffff"
         offset=".235"
         id="stop72" />
      <stop
         stop-color="#ffffff"
         offset=".286"
         id="stop73" />
      <stop
         stop-color="#ffffff"
         offset=".357"
         id="stop74" />
      <stop
         stop-color="#ffffff"
         offset=".439"
         id="stop75" />
      <stop
         stop-color="#ffffff"
         offset=".554"
         id="stop76" />
      <stop
         stop-color="#ffffff"
         offset=".604"
         id="stop77" />
      <stop
         stop-color="#ffffff"
         offset=".72"
         id="stop78" />
      <stop
         stop-color="#ffffff"
         offset=".792"
         id="stop79" />
      <stop
         stop-color="#eee5de"
         offset="1"
         id="stop80" />
    </linearGradient>
    <linearGradient
       id="w"
       x1="405.23"
       x2="621.77"
       y1="846.51"
       y2="846.51"
       gradientUnits="userSpaceOnUse">
      <stop
         stop-color="#ffffff"
         stop-opacity="0"
         offset="0"
         id="stop81" />
      <stop
         stop-color="#ffffff"
         stop-opacity=".032"
         offset=".005"
         id="stop82" />
      <stop
         stop-color="#faf7f5"
         stop-opacity=".083"
         offset=".013"
         id="stop83" />
      <stop
         stop-color="#e4d6ca"
         stop-opacity=".14"
         offset=".022"
         id="stop84" />
      <stop
         stop-color="#d2baa6"
         stop-opacity=".202"
         offset=".032"
         id="stop85" />
      <stop
         stop-color="#c3a389"
         stop-opacity=".273"
         offset=".043"
         id="stop86" />
      <stop
         stop-color="#b79173"
         stop-opacity=".356"
         offset=".056"
         id="stop87" />
      <stop
         stop-color="#b08664"
         stop-opacity=".458"
         offset=".072"
         id="stop88" />
      <stop
         stop-color="#ab7f5b"
         stop-opacity=".602"
         offset=".094"
         id="stop89" />
      <stop
         stop-color="#aa7d58"
         offset=".156"
         id="stop90" />
      <stop
         stop-color="#aa7d58"
         offset=".205"
         id="stop91" />
      <stop
         stop-color="#aa7d58"
         offset=".501"
         id="stop92" />
      <stop
         stop-color="#aa7d58"
         offset=".805"
         id="stop93" />
      <stop
         stop-color="#ab7f5b"
         stop-opacity=".602"
         offset=".883"
         id="stop94" />
      <stop
         stop-color="#b08664"
         stop-opacity=".458"
         offset=".911"
         id="stop95" />
      <stop
         stop-color="#b79173"
         stop-opacity=".356"
         offset=".931"
         id="stop96" />
      <stop
         stop-color="#c3a389"
         stop-opacity=".273"
         offset=".947"
         id="stop97" />
      <stop
         stop-color="#d2baa6"
         stop-opacity=".202"
         offset=".961"
         id="stop98" />
      <stop
         stop-color="#e4d6ca"
         stop-opacity=".14"
         offset=".973"
         id="stop99" />
      <stop
         stop-color="#faf7f5"
         stop-opacity=".083"
         offset=".984"
         id="stop100" />
      <stop
         stop-color="#ffffff"
         stop-opacity=".032"
         offset=".994"
         id="stop101" />
      <stop
         stop-color="#ffffff"
         stop-opacity="0"
         offset="1"
         id="stop102" />
    </linearGradient>
    <linearGradient
       id="x"
       x1="511.5"
       x2="511.5"
       y1="513.84"
       y2="840.48"
       gradientUnits="userSpaceOnUse">
      <stop
         stop-color="#ffffff"
         offset="0"
         id="stop103" />
      <stop
         stop-color="#ffffff"
         offset=".111"
         id="stop104" />
      <stop
         stop-color="#ffffff"
         offset=".227"
         id="stop105" />
      <stop
         stop-color="#ffffff"
         offset=".442"
         id="stop106" />
      <stop
         stop-color="#ffffff"
         offset=".815"
         id="stop107" />
    </linearGradient>
    <linearGradient
       id="z"
       x1="720.02"
       x2="641.86"
       y1="651.21"
       y2="644.02"
       gradientUnits="userSpaceOnUse">
      <stop
         stop-color="#ffffff"
         offset=".162"
         id="stop108" />
      <stop
         stop-color="#ffffff"
         stop-opacity=".026"
         offset=".978"
         id="stop109" />
      <stop
         stop-color="#ffffff"
         stop-opacity="0"
         offset="1"
         id="stop110" />
    </linearGradient>
    <linearGradient
       id="A"
       x1="667.84"
       x2="629.79"
       y1="532.05"
       y2="811.87"
       gradientUnits="userSpaceOnUse">
      <stop
         stop-color="#ffffff"
         stop-opacity=".7"
         offset="0"
         id="stop111" />
      <stop
         stop-color="#ffffff"
         stop-opacity="0"
         offset="1"
         id="stop112" />
    </linearGradient>
    <linearGradient
       id="C"
       x1="348.4"
       x2="357.68"
       y1="636.25"
       y2="635.09"
       gradientUnits="userSpaceOnUse">
      <stop
         stop-color="#ffffff"
         stop-opacity=".6"
         offset="0"
         id="stop113" />
      <stop
         stop-color="#ffffff"
         stop-opacity=".586"
         offset=".019"
         id="stop114" />
      <stop
         stop-color="#ffffff"
         stop-opacity=".5"
         offset=".135"
         id="stop115" />
    </linearGradient>
    <linearGradient
       id="a"
       x1="125.24"
       x2="125.24"
       y1="171.64"
       y2="204.45"
       gradientTransform="translate(-163.67 -235.91) scale(1.4286)"
       gradientUnits="userSpaceOnUse">
      <stop
         stop-color="#ffffff"
         offset="0"
         id="stop116" />
      <stop
         stop-color="#b89274"
         offset="1"
         id="stop117" />
    </linearGradient>
    <radialGradient
       id="c"
       cx="488.23"
       cy="963.87"
       r="81.495"
       gradientTransform="matrix(.9979 -.06552 .03252 .4954 -30.301 518.39)"
       gradientUnits="userSpaceOnUse">
      <stop
         stop-color="#c6a78f"
         offset=".317"
         id="stop118" />
      <stop
         stop-color="#c6a78f"
         offset=".521"
         id="stop119" />
      <stop
         stop-color="#c7a991"
         offset=".724"
         id="stop120" />
      <stop
         stop-color="#ccb09a"
         offset=".797"
         id="stop121" />
      <stop
         stop-color="#d3bca9"
         offset=".85"
         id="stop122" />
      <stop
         stop-color="#dfcdc0"
         offset=".892"
         id="stop123" />
      <stop
         stop-color="#ede3db"
         offset=".927"
         id="stop124" />
      <stop
         stop-color="#f0e8e2"
         offset=".934"
         id="stop125" />
      <stop
         stop-color="#efe6df"
         offset=".974"
         id="stop126" />
      <stop
         stop-color="#e7dbd1"
         offset="1"
         id="stop127" />
    </radialGradient>
    <radialGradient
       id="d"
       cx="530.28"
       cy="942.51"
       r="82.471"
       gradientTransform="matrix(-.9826 .186 -.1329 -.702 1176.5 1505.5)"
       gradientUnits="userSpaceOnUse">
      <stop
         stop-color="#c6a78f"
         stop-opacity="0"
         offset=".521"
         id="stop128" />
      <stop
         stop-color="#c7a991"
         stop-opacity=".197"
         offset=".724"
         id="stop129" />
      <stop
         stop-color="#ccb09a"
         stop-opacity=".268"
         offset=".797"
         id="stop130" />
      <stop
         stop-color="#d3bca9"
         stop-opacity=".318"
         offset=".85"
         id="stop131" />
      <stop
         stop-color="#dfcdc0"
         stop-opacity=".359"
         offset=".892"
         id="stop132" />
      <stop
         stop-color="#ede3db"
         stop-opacity=".394"
         offset=".927"
         id="stop133" />
      <stop
         stop-color="#f0e8e2"
         stop-opacity=".4"
         offset=".934"
         id="stop134" />
      <stop
         stop-color="#efe6df"
         stop-opacity=".6"
         offset=".974"
         id="stop135" />
      <stop
         stop-color="#f0e8e2"
         offset="1"
         id="stop136" />
    </radialGradient>
    <radialGradient
       id="e"
       cx="552.17"
       cy="970.28"
       r="30.148"
       gradientTransform="matrix(-.8848 .466 -.2036 -.3865 1238.3 1088)"
       gradientUnits="userSpaceOnUse">
      <stop
         stop-color="#d5bfad"
         offset="0"
         id="stop137" />
      <stop
         stop-color="#d5bfad"
         stop-opacity="0"
         offset=".717"
         id="stop138" />
    </radialGradient>
    <radialGradient
       id="f"
       cx="512.87"
       cy="954.24"
       r="28.923"
       gradientTransform="matrix(.01973 .9998 -2.2362 .04414 2636.6 399.35)"
       gradientUnits="userSpaceOnUse">
      <stop
         stop-opacity=".4"
         offset="0"
         id="stop139" />
      <stop
         stop-color="#634833"
         stop-opacity=".316"
         offset=".209"
         id="stop140" />
      <stop
         stop-color="#a37753"
         stop-opacity=".147"
         offset=".631"
         id="stop141" />
      <stop
         stop-color="#c6a78f"
         stop-opacity="0"
         offset="1"
         id="stop142" />
    </radialGradient>
    <radialGradient
       id="h"
       cx="511.5"
       cy="297.18"
       r="244.56"
       gradientUnits="userSpaceOnUse">
      <stop
         stop-color="#ffffff"
         offset="0"
         id="stop143" />
      <stop
         stop-color="#ffffff"
         offset=".168"
         id="stop144" />
      <stop
         stop-color="#ffffff"
         offset=".506"
         id="stop145" />
      <stop
         stop-color="#ffffff"
         offset=".542"
         id="stop146" />
      <stop
         stop-color="#ffffff"
         offset=".722"
         id="stop147" />
      <stop
         stop-color="#ffffff"
         offset=".814"
         id="stop148" />
      <stop
         stop-color="#ffffff"
         offset=".885"
         id="stop149" />
      <stop
         stop-color="#ffffff"
         offset=".946"
         id="stop150" />
      <stop
         stop-color="#ffffff"
         offset="1"
         id="stop151" />
    </radialGradient>
    <radialGradient
       id="y"
       cx="507.95"
       cy="842.89"
       r="421.87"
       gradientTransform="matrix(-.00165 -1 .5695 -.00094 28.772 1351.6)"
       gradientUnits="userSpaceOnUse">
      <stop
         stop-color="#ffffff"
         stop-opacity=".03"
         offset="0"
         id="stop152" />
      <stop
         stop-color="#ffffff"
         offset="1"
         id="stop153" />
    </radialGradient>
    <radialGradient
       id="B"
       cx="492.52"
       cy="497.59"
       r="115.96"
       gradientTransform="matrix(.00471 1 -8.741 .0412 4839.7 -15.425)"
       gradientUnits="userSpaceOnUse">
      <stop
         stop-color="#ffffff"
         offset="0"
         id="stop154" />
      <stop
         stop-color="#ffffff"
         offset=".059"
         id="stop155" />
      <stop
         stop-color="#ffffff"
         offset=".069"
         id="stop156" />
      <stop
         stop-color="#ffffff"
         stop-opacity=".891"
         offset=".136"
         id="stop157" />
      <stop
         stop-color="#ffffff"
         stop-opacity=".849"
         offset=".162"
         id="stop158" />
      <stop
         stop-color="#ffffff"
         stop-opacity=".819"
         offset=".18"
         id="stop159" />
      <stop
         stop-color="#ffffff"
         stop-opacity=".8"
         offset=".192"
         id="stop160" />
      <stop
         stop-color="#ffffff"
         stop-opacity="0"
         offset=".295"
         id="stop161" />
      <stop
         stop-color="#ffffff"
         stop-opacity="0"
         offset="1"
         id="stop162" />
    </radialGradient>
    <filter
       id="b"
       x="-0.083032672"
       y="-0.046999521"
       width="1.1660653"
       height="1.093999"
       color-interpolation-filters="sRGB">
      <feGaussianBlur
         stdDeviation=".94"
         id="feGaussianBlur162" />
    </filter>
    <filter
       id="c-4"
       width="1.0239725"
       height="1.0239741"
       x="-0.011986232"
       y="-0.011987041"
       color-interpolation-filters="sRGB">
      <feGaussianBlur
         stdDeviation=".074"
         id="feGaussianBlur8" />
    </filter>
    <linearGradient
       xlink:href="#a-6"
       id="d-9"
       x1="2.598"
       x2="10.583"
       y1="2.836"
       y2="11.312"
       gradientUnits="userSpaceOnUse" />
    <linearGradient
       id="a-6">
      <stop
         offset="0"
         stop-color="#ffffff"
         id="stop1-2" />
      <stop
         offset="1"
         stop-color="#ffffff"
         stop-opacity="0"
         id="stop2-9" />
    </linearGradient>
    <linearGradient
       xlink:href="#a-6"
       id="e-2"
       x1="15.081"
       x2="12.7"
       y1="14.816"
       y2="12.171"
       gradientUnits="userSpaceOnUse" />
    <linearGradient
       id="a-60"
       x1="7.9369998"
       x2="7.9369998"
       y1="15.081"
       y2="1.852"
       gradientUnits="userSpaceOnUse"
       gradientTransform="matrix(3.779602,0,0,3.779602,0.0011812,0.0314181)">
      <stop
         stop-color="#ffffff"
         offset="0"
         id="stop62-6"
         style="stop-color:#676767;stop-opacity:1;" />
      <stop
         stop-color="#ffffff"
         offset="1"
         id="stop63-2" />
    </linearGradient>
  </defs>
  <g
     color="#4a3626"
     id="g166">
    <path
       d="M4.37.53C2.254.53.53 2.312.53 4.496v8.468c0 2.184 1.725 3.968 3.84 3.968h8.194c2.114 0 3.84-1.783 3.84-3.968V4.497c0-2.184-1.726-3.968-3.84-3.968zm.256.52h7.681c1.844 0 3.33 1.534 3.33 3.44v7.937c0 1.906-1.485 3.44-3.33 3.44h-7.68c-1.845 0-3.33-1.534-3.33-3.44V4.49c0-1.906 1.485-3.44 3.33-3.44z"
       opacity=".01"
       style="font-feature-settings:normal;font-variant-alternates:normal;font-variant-caps:normal;font-variant-east-asian:normal;font-variant-ligatures:normal;font-variant-numeric:normal;font-variant-position:normal;font-variation-settings:normal;inline-size:0;isolation:auto;mix-blend-mode:normal;shape-margin:0;shape-padding:0;text-decoration-color:#4a3626;text-decoration-line:none;text-decoration-style:solid;text-indent:0;text-orientation:mixed;text-transform:none;white-space:normal"
       transform="scale(3.7796)"
       id="path162" />
    <path
       d="M4.359.794C2.392.794.795 2.447.795 4.48v8.5c0 2.035 1.597 3.688 3.564 3.688h8.216c1.967 0 3.564-1.653 3.564-3.688v-8.5c0-2.034-1.597-3.687-3.564-3.687zm.272.256h7.672c1.842 0 3.325 1.534 3.325 3.44v7.937c0 1.906-1.483 3.44-3.325 3.44H4.63c-1.842 0-3.325-1.534-3.325-3.44V4.49c0-1.906 1.483-3.44 3.325-3.44z"
       opacity=".01"
       style="font-feature-settings:normal;font-variant-alternates:normal;font-variant-caps:normal;font-variant-east-asian:normal;font-variant-ligatures:normal;font-variant-numeric:normal;font-variant-position:normal;font-variation-settings:normal;inline-size:0;isolation:auto;mix-blend-mode:normal;shape-margin:0;shape-padding:0;text-decoration-color:#4a3626;text-decoration-line:none;text-decoration-style:solid;text-indent:0;text-orientation:mixed;text-transform:none;white-space:normal"
       transform="scale(3.7796)"
       id="path163" />
    <path
       d="M4.31 1.058c-1.866 0-3.375 1.539-3.375 3.44v8.467c0 1.9 1.57 3.439 3.435 3.439h8.2c1.866 0 3.427-1.538 3.427-3.44V4.498c0-1.9-1.51-3.439-3.375-3.439h-.097c1.794.087 3.214 1.582 3.214 3.432v7.937c0 1.906-1.506 3.44-3.377 3.44h-7.79c-1.871 0-3.377-1.534-3.377-3.44V4.49c0-1.85 1.42-3.345 3.214-3.432z"
       opacity=".03"
       style="font-feature-settings:normal;font-variant-alternates:normal;font-variant-caps:normal;font-variant-east-asian:normal;font-variant-ligatures:normal;font-variant-numeric:normal;font-variant-position:normal;font-variation-settings:normal;inline-size:0;isolation:auto;mix-blend-mode:normal;shape-margin:0;shape-padding:0;text-decoration-color:#4a3626;text-decoration-line:none;text-decoration-style:solid;text-indent:0;text-orientation:mixed;text-transform:none;white-space:normal"
       transform="scale(3.7796)"
       id="path164" />
    <path
       d="M4 46.969V49c0 6.648 5.896 12 12.544 12h30.961C54.153 61 60 55.648 60 49v-1.992a12.972 12.972 0 0 1-13 12.963H17.002A12.973 12.973 0 0 1 4 46.969z"
       opacity=".03"
       style="font-feature-settings:normal;font-variant-alternates:normal;font-variant-caps:normal;font-variant-east-asian:normal;font-variant-ligatures:normal;font-variant-numeric:normal;font-variant-position:normal;font-variation-settings:normal;inline-size:0;isolation:auto;mix-blend-mode:normal;shape-margin:0;shape-padding:0;text-decoration-color:#4a3626;text-decoration-line:none;text-decoration-style:solid;text-indent:0;text-orientation:mixed;text-transform:none;white-space:normal"
       id="path165" />
    <path
       d="M1.058 11.906v.592c0 1.939 1.573 3.5 3.332 3.5h8.16c1.76 0 3.325-1.561 3.325-3.5v-.58c-.006 2.095-1.537 3.78-3.44 3.78H4.498c-1.905 0-3.44-1.692-3.44-3.792z"
       opacity=".05"
       style="font-feature-settings:normal;font-variant-alternates:normal;font-variant-caps:normal;font-variant-east-asian:normal;font-variant-ligatures:normal;font-variant-numeric:normal;font-variant-position:normal;font-variation-settings:normal;inline-size:0;isolation:auto;mix-blend-mode:normal;shape-margin:0;shape-padding:0;text-decoration-color:#4a3626;text-decoration-line:none;text-decoration-style:solid;text-indent:0;text-orientation:mixed;text-transform:none;white-space:normal"
       transform="scale(3.7796)"
       id="path166" />
  </g>
  <rect
     x="4"
     y="4"
     width="56"
     height="56"
     rx="13.002"
     ry="13.002"
     fill="url(#a)"
     id="rect166"
     style="display:inline;opacity:0.5" />
  <path
     d="M 32.001,8 C 24.495,8 18.415,14.085 18.415,21.586 a 13.52,13.52 0 0 0 3.156,8.703 v 0.002 c -0.175,0.124 -0.455,0.424 0.106,0.836 0.748,0.548 3.54,12.118 2.693,14.512 0.748,0.399 1.496,1.595 1.496,1.595 0,0 0.149,0.1 -0.15,0.2 -0.132,0.044 0.229,0.264 1.025,0.494 h -0.023 c 0,0 -0.967,0.669 0.115,1.512 -1.097,0.758 0,1.585 0,1.585 0,0 -1.287,1.023 0.353,1.776 1.098,1.262 1.778,1.146 1.778,1.146 l 0.03,0.01 -0.061,0.006 c 0,0 0.164,2.12 2.613,2.035 2.449,-0.085 3.002,-0.883 3.002,-0.883 0,0 0.41,-0.5 0.33,-1.113 0.075,-0.02 0.143,-0.028 0.219,-0.049 1.915,-0.558 1.816,-1.765 1.816,-1.765 0,0 1.335,-0.645 0.438,-1.916 0.768,-0.943 0,-1.635 0,-1.635 0,0 0.444,-0.445 0.34,-0.834 -0.001,-0.002 -0.01,-0.002 -0.01,-0.004 0.498,-0.177 0.71,-0.33 0.603,-0.365 -0.3,-0.1 -0.15,-0.2 -0.15,-0.2 0,0 0.748,-1.196 1.496,-1.595 -0.848,-2.394 1.945,-13.963 2.693,-14.512 0.561,-0.412 0.281,-0.712 0.106,-0.836 v -0.002 a 13.529,13.529 0 0 0 3.156,-8.703 C 45.585,14.085 39.507,8 32,8 Z"
     filter="url(#b)"
     opacity="0.25"
     id="path167"
     style="display:inline" />
  <g
     filter="url(#c)"
     opacity=".35"
     id="g12"
     style="display:inline;opacity:0.80064;filter:url(#c-4)"
     transform="matrix(3.779602,0,0,3.779602,-0.3275616,-0.3275616)">
    <path
       fill="url(#d)"
       d="m 5.36,1.058 c -1.53,0 -2.577,0.457 -3.26,1.2 -0.678,0.74 -1.042,1.8 -1.042,3.001 v 6.415 c 0,1.2 0.364,2.26 1.043,3 0.682,0.744 1.73,1.2 3.26,1.2 h 6.23 c 1.53,0 2.577,-0.456 3.26,-1.2 0.678,-0.739 1.024,-1.702 1.024,-3 V 5.5 c 0,-1.57 -0.346,-2.502 -1.024,-3.242 -0.683,-0.743 -1.73,-1.2 -3.26,-1.2 H 6.745 Z m 0,0.264 h 6.232 c 1.477,0 2.437,0.432 3.064,1.116 0.634,0.69 0.954,1.53 0.954,3.062 v 6.174 c 0,1.251 -0.322,2.134 -0.954,2.822 -0.627,0.684 -1.587,1.114 -3.064,1.114 H 5.359 C 3.882,15.61 2.922,15.18 2.295,14.496 1.67,13.814 1.322,12.821 1.322,11.674 V 5.26 C 1.322,4.112 1.67,3.12 2.295,2.438 2.922,1.754 3.882,1.322 5.359,1.322"
       id="path11"
       style="fill:url(#d-9)" />
    <path
       fill="url(#e)"
       d="m 5.36,1.058 c -1.53,0 -2.577,0.457 -3.26,1.2 -0.678,0.74 -1.042,1.8 -1.042,3.001 v 6.415 c 0,1.2 0.364,2.26 1.043,3 0.682,0.744 1.73,1.2 3.26,1.2 h 6.23 c 1.53,0 2.577,-0.456 3.26,-1.2 0.678,-0.739 1.024,-1.702 1.024,-3 V 5.5 c 0,-1.57 -0.346,-2.502 -1.024,-3.242 -0.683,-0.743 -1.73,-1.2 -3.26,-1.2 H 6.745 Z m 0,0.264 h 6.232 c 1.477,0 2.437,0.432 3.064,1.116 0.634,0.69 0.954,1.53 0.954,3.062 v 6.174 c 0,1.251 -0.322,2.134 -0.954,2.822 -0.627,0.684 -1.587,1.114 -3.064,1.114 H 5.359 C 3.882,15.61 2.922,15.18 2.295,14.496 1.67,13.814 1.322,12.821 1.322,11.674 V 5.26 C 1.322,4.112 1.67,3.12 2.295,2.438 2.922,1.754 3.882,1.322 5.359,1.322"
       id="path12"
       style="fill:url(#e-2)" />
  </g>
  <rect
     x="4"
     y="4"
     width="56.002365"
     height="56.002365"
     rx="13.001831"
     ry="13.001831"
     fill="url(#a)"
     id="rect63"
     style="display:inline;opacity:0.34968017;fill:url(#a-60);stroke-width:3.7796" />
  <g
     stroke-width="2.581"
     id="g194">
    <path
       class="st0"
       d="M450 956.4s3.3 42.5 52.4 40.8 60.2-17.7 60.2-17.7 8.8-10.5 6.6-23.2-119.2.1-119.2.1z"
       fill="url(#c)"
       transform="translate(6.49 6.264) scale(.04987)"
       id="path168" />
    <path
       class="st1"
       d="M450 956.4s3.3 42.5 52.4 40.8 60.2-17.7 60.2-17.7 8.8-10.5 6.6-23.2-119.2.1-119.2.1z"
       fill="url(#d)"
       transform="translate(6.49 6.264) scale(.04987)"
       id="path169" />
    <path
       class="st2"
       d="M450 956.4s3.3 42.5 52.4 40.8 60.2-17.7 60.2-17.7 8.8-10.5 6.6-23.2-119.2.1-119.2.1z"
       fill="url(#e)"
       transform="translate(6.49 6.264) scale(.04987)"
       id="path170" />
    <path
       class="st3"
       d="M450 956.4s3.3 42.5 52.4 40.8 60.2-17.7 60.2-17.7 8.8-10.5 6.6-23.2-119.2.1-119.2.1z"
       fill="url(#f)"
       transform="translate(6.49 6.264) scale(.04987)"
       id="path171" />
    <path
       class="st6"
       d="M511.5 509.5c219 2 207.9-28.6 209.1-27.8 39.5-47.3 63.3-108.1 63.3-174.5 0-150.4-121.9-272.4-272.4-272.4s-272.4 122-272.4 272.4c0 66.4 23.8 127.3 63.3 174.5 1.2-.8-9.9 29.8 209.1 27.8z"
       fill="url(#g)"
       transform="translate(6.49 6.264) scale(.04987)"
       id="path172" />
    <path
       class="st7"
       d="M511.5 499.4c209.7 1.9 199-27.4 200.1-26.6 37.8-45.2 60.6-103.5 60.6-167.1 0-144-116.7-260.7-260.7-260.7S250.8 161.7 250.8 305.7c0 63.6 22.8 121.8 60.6 167.1 1.1-.8-9.6 28.5 200.1 26.6z"
       fill="url(#h)"
       transform="translate(6.49 6.264) scale(.04987)"
       id="path173" />
    <path
       class="st8"
       d="M511.5 499.4c209.7 1.9 199-27.4 200.1-26.6 37.8-45.2 60.6-103.5 60.6-167.1 0-144-116.7-260.7-260.7-260.7S250.8 161.7 250.8 305.7c0 63.6 22.8 121.8 60.6 167.1 1.1-.8-9.6 28.5 200.1 26.6z"
       fill="url(#i)"
       transform="translate(6.49 6.264) scale(.04987)"
       id="path174" />
    <path
       class="st9"
       d="M405.6 835.4s-19.4 13.4 2.3 30.3c-22 15.2 0 31.8 0 31.8s-25.8 20.5 7.1 35.6c22 25.3 35.6 23 35.6 23s50 20.3 123 .1C612 945 610 920.8 610 920.8s26.8-12.9 8.8-38.4c15.4-18.9 0-32.8 0-32.8s8.9-8.9 6.8-16.7c-2.1-7.9-220 2.5-220 2.5z"
       fill="url(#j)"
       transform="translate(6.49 6.264) scale(.04987)"
       id="path175" />
    <path
       class="st10"
       d="M600.2 923.8s-27.4 13.1-47.4 13.9c-20.1.7 8.4 2.6 8.4 2.6s39-5.5 39-10.9v-5.6z"
       fill="url(#k)"
       transform="translate(6.49 6.264) scale(.04987)"
       id="path176" />
    <path
       class="st11"
       d="M416.1 928.6s24.1 10.4 59.5 10-15 7.3-54.7-1.8c-14.7-10.5-4.8-8.2-4.8-8.2z"
       fill="url(#l)"
       transform="translate(6.49 6.264) scale(.04987)"
       id="path177" />
    <path
       class="st12"
       d="M595.6 915.8s-2.1 27.6-26.2 37.1 10.8 4.1 22.1-4.4c8.7-5.6 17.9-13.7 18.4-26.7s-14.3-6-14.3-6z"
       fill="url(#m)"
       transform="translate(6.49 6.264) scale(.04987)"
       id="path178" />
    <path
       class="st13"
       d="M544.9 865.7c28 1.3 47.8-8.6 49.4-9.6-10.2 10.3-39.7 17.9-39.7 17.9s46.1-3.6 63.4-22.5c8.2-9.5 9.4-17.8 6.4-20.2-12-9.6-93.1 30.6-79.5 34.4z"
       fill="url(#n)"
       transform="translate(6.49 6.264) scale(.04987)"
       id="path179" />
    <path
       class="st14"
       d="M425.1 890.2s8.8.5 8.3 5.4-15.6 2.5-15.6 2.5 11.3 12.1 13.8 16.4 60 15 84.3 11.6c24.2-3.3 62.3-6.5 67-11.5 4.6-5 20.1 5-.6 6.1-20.7 1.2-90.6 18.9-131.4 10.6s-29.7 8.8-29.7 8.8-2.9-4-6.2-7.2c-22.9-10.2-19-25.2-7.1-35.6 9.3-14.1 17.2-7.1 17.2-7.1z"
       fill="url(#o)"
       transform="translate(6.49 6.264) scale(.04987)"
       id="path180" />
    <path
       class="st15"
       d="M435.1 945.5s22.6 17.7 75.6 15.2c53-2.6 66.3-9.6 76.6-19.6s4.4 7.7-13.1 13.5-39 11-65.1 10.3-73.8-10-75.4-15.4 1.4-4 1.4-4z"
       fill="url(#p)"
       transform="translate(6.49 6.264) scale(.04987)"
       id="path181" />
    <path
       class="st16"
       d="M415.3 838.4s-11.1 8.1 4.6 12.4 38.7 5.5 38.7 5.5 4.4 5-2.7 4.2c-7.1-.9-36.2-3.5-36.2-3.5s-10.3 0-1.5 5.6 14.2 9.3 14.2 9.3 4.9 6-2.5 3-14.1-4.8-26.1-12.8c-6.4-8-11-14.6 1.7-26.8 9.3-1.1 9.8 3.1 9.8 3.1z"
       fill="url(#q)"
       transform="translate(6.49 6.264) scale(.04987)"
       id="path182" />
    <path
       class="st17"
       d="M436.2 876.9s26.2 11.4 111 2.6c-52.8 3.3-111-2.6-111-2.6z"
       fill="url(#r)"
       opacity=".5"
       transform="translate(6.49 6.264) scale(.04987)"
       id="path183" />
    <path
       class="st18"
       d="M473.9 870s92.2 2.3 120.4-14c-34.5 30.8-120.4 14-120.4 14z"
       fill="url(#s)"
       opacity=".5"
       transform="translate(6.49 6.264) scale(.04987)"
       id="path184" />
    <path
       class="st19"
       d="M583.7 893.6s-70.6 14.7-130 6.8c.1.1 55.1 22.4 130-6.8z"
       fill="url(#t)"
       opacity=".5"
       transform="translate(6.49 6.264) scale(.04987)"
       id="path185" />
    <path
       class="st20"
       d="M596.3 891.2s2.9 7.5-9.1 10.4-18.7 9.1-22.8 9.1c-4.2 0-28.7 6.2-28.7 6.2s-9.1 5.4 6.2 6.2c15.4.8 54.7-6.2 54.7-6.2s7.6 1.8 2.2 6.3 17.3-2.4 22-12.5c7.4-7.9 3.8-20.2-2.1-28.4-5.8-2.1-22.4 8.9-22.4 8.9z"
       fill="url(#u)"
       transform="translate(6.49 6.264) scale(.04987)"
       id="path186" />
    <path
       class="st21"
       d="M407.8 865.8s16 8.8 18.1 11.3 4.1 5.7 3.3 8 44.8 9.2 65.8 8.5 83.6-12.9 84.6-14.6-6.3-3.5-1.4-5.9 36.3-13.2 40.6-23.6c5.5 5.2 12 18.7 0 32.8-1.4.9-22.9 14.9-45.4 17.9l27.4-13.3s-85.3 9.8-130.7 8.1-56.8-11.3-55.4.5c11.7 6.2 19.1 13.1 19.1 13.1s-18.7-3-24.8-9.8c-7.8-7.5-19.5-20.4-1.2-33z"
       fill="url(#v)"
       transform="translate(6.49 6.264) scale(.04987)"
       id="path187" />
    <path
       class="st22"
       d="M621.8 833.2s-15.6 26.9-121.7 26.5-94.5-22.6-94.5-22.6z"
       fill="url(#w)"
       transform="translate(6.49 6.264) scale(.04987)"
       id="path188" />
    <path
       class="st23"
       d="M718.5 480.5s12 31-207 29c-219 2-207-29-207-29s-15 7 0 18 71 243 54 291c15 8 30 32 30 32s3 2-3 4 36 22 126 22 132-20 126-22-3-4-3-4 15-24 30-32c-17-48 39-280 54-291s0-18 0-18z"
       fill="url(#x)"
       transform="translate(6.49 6.264) scale(.04987)"
       id="path189" />
    <path
       class="st24"
       d="M718.5 480.5s12 31-207 29c-219 2-207-29-207-29s-15 7 0 18 71 243 54 291c15 8 30 32 30 32s3 2-3 4 36 22 126 22 132-20 126-22-3-4-3-4 15-24 30-32c-17-48 39-280 54-291s0-18 0-18z"
       fill="url(#y)"
       transform="translate(6.49 6.264) scale(.04987)"
       id="path190" />
    <path
       class="st25"
       d="M684.3 499s-71.9 267.1-44.9 315.3c7.3-7.2 15-20.7 25.1-24.9-11.5-61.6 29-245.5 54-291 .8-3.2 6.7-3.5 6.7-9.6 1-4.1-6.7-8.4-6.7-8.4s2.1 6.4-12 11.8c-11.6 5.4-22.2 6.8-22.2 6.8z"
       fill="url(#z)"
       transform="translate(6.49 6.264) scale(.04987)"
       id="path191" />
    <path
       class="st26"
       d="M676.1 501.6s-79.3 244.1-38.5 319.8l5.2-6.6c-27-66.4 44.6-315.7 44.6-315.7z"
       fill="url(#A)"
       transform="translate(6.49 6.264) scale(.04987)"
       id="path192" />
    <path
       class="st27"
       d="M718.5 480.5s12 31-207 29c-219 2-207-29-207-29s-15 7 0 18c2.4 1.8 14.4 39.3 18.6 51.1 49.1 20.8 150.8 11.3 350.5-29 17.9-3.6 25.5-17.7 45-22.1 14.9-11-.1-18-.1-18z"
       fill="url(#B)"
       transform="translate(6.49 6.264) scale(.04987)"
       id="path193" />
    <path
       class="st28"
       d="M304.5 480.5s-15 7 0 18 71 243 54 291c2.7 1.5 5.5 3.4 8.1 5.7 0 0 0-.1.1-.1 20.6-55.8-42.3-289.5-49.9-294.2-5.4-3.3-7.2-9.5-7.9-12.9-5.6-4.3-4.4-7.5-4.4-7.5z"
       fill="url(#C)"
       transform="translate(6.49 6.264) scale(.04987)"
       id="path194" />
  </g>
</svg>
