<?xml version="1.0" encoding="UTF-8" standalone="no"?>
<svg
   width="64"
   height="64"
   enable-background="new 0 0 1024 1024"
   image-rendering="optimizeSpeed"
   version="1.1"
   id="svg66"
   sodipodi:docname="gdebi.svg"
   inkscape:version="1.4.2 (ebf0e940d0, 2025-05-08)"
   xmlns:inkscape="http://www.inkscape.org/namespaces/inkscape"
   xmlns:sodipodi="http://sodipodi.sourceforge.net/DTD/sodipodi-0.dtd"
   xmlns:xlink="http://www.w3.org/1999/xlink"
   xmlns="http://www.w3.org/2000/svg"
   xmlns:svg="http://www.w3.org/2000/svg">
  <sodipodi:namedview
     id="namedview66"
     pagecolor="#ffffff"
     bordercolor="#000000"
     borderopacity="0.25"
     inkscape:showpageshadow="2"
     inkscape:pageopacity="0.0"
     inkscape:pagecheckerboard="0"
     inkscape:deskcolor="#d1d1d1"
     inkscape:zoom="13.390625"
     inkscape:cx="31.96266"
     inkscape:cy="31.925321"
     inkscape:window-width="1920"
     inkscape:window-height="1047"
     inkscape:window-x="0"
     inkscape:window-y="0"
     inkscape:window-maximized="1"
     inkscape:current-layer="svg66" />
  <defs
     id="defs14">
    <linearGradient
       id="c"
       x1="148.93"
       x2="155.51"
       y1="873.19"
       y2="886.31"
       gradientTransform="translate(238.52 -125.13) scale(.73261)"
       gradientUnits="userSpaceOnUse">
      <stop
         stop-color="#f9f6f3"
         offset="0"
         id="stop1" />
      <stop
         stop-color="#ebe1d9"
         offset="1"
         id="stop2" />
    </linearGradient>
    <linearGradient
       id="d"
       x1="58.184"
       x2="64.173"
       y1="992.95"
       y2="979.05"
       gradientTransform="translate(325.39 -203.62) scale(.73261)"
       gradientUnits="userSpaceOnUse">
      <stop
         stop-color="#e9ddd3"
         offset="0"
         id="stop3" />
      <stop
         stop-color="#ffffff"
         offset="1"
         id="stop4" />
    </linearGradient>
    <linearGradient
       id="e"
       x1="54.138"
       x2="57.452"
       y1="1022.3"
       y2="1020.6"
       gradientTransform="translate(325.39 -203.62) scale(.73261)"
       gradientUnits="userSpaceOnUse">
      <stop
         stop-color="#b38b6b"
         offset="0"
         id="stop5" />
      <stop
         stop-color="#aa7d58"
         offset="1"
         id="stop6" />
    </linearGradient>
    <linearGradient
       id="f"
       x1="69.802"
       x2="65.326"
       y1="1014"
       y2="1001.7"
       gradientTransform="translate(325.39 -203.62) scale(.73261)"
       gradientUnits="userSpaceOnUse">
      <stop
         stop-color="#d4bdaa"
         offset="0"
         id="stop7" />
      <stop
         stop-color="#e5d7cb"
         offset="1"
         id="stop8" />
    </linearGradient>
    <linearGradient
       id="g"
       x1="38.672"
       x2="44.922"
       y1="1020.1"
       y2="1022.7"
       gradientTransform="translate(325.39 -203.62) scale(.73261)"
       gradientUnits="userSpaceOnUse">
      <stop
         stop-color="#8d6648"
         offset="0"
         id="stop9" />
      <stop
         stop-color="#a87b56"
         offset="1"
         id="stop10" />
    </linearGradient>
    <linearGradient
       id="h"
       x1="26.575"
       x2="35.322"
       y1="1014.5"
       y2="1002.5"
       gradientTransform="translate(325.39 -203.62) scale(.73261)"
       gradientUnits="userSpaceOnUse">
      <stop
         stop-color="#dcc9ba"
         offset="0"
         id="stop11" />
      <stop
         stop-color="#ece2da"
         offset="1"
         id="stop12" />
    </linearGradient>
    <linearGradient
       id="a"
       x1="7.937"
       x2="7.937"
       y1="15.081"
       y2="1.852"
       gradientTransform="translate(0 .032) scale(3.7795)"
       gradientUnits="userSpaceOnUse">
      <stop
         stop-color="#ffffff"
         offset="0"
         id="stop13"
         style="stop-color:#676767;stop-opacity:1;" />
      <stop
         stop-color="#ffffff"
         offset="1"
         id="stop14" />
    </linearGradient>
    <filter
       id="b"
       x="-0.046115383"
       y="-0.050064622"
       width="1.0922308"
       height="1.1001292"
       color-interpolation-filters="sRGB">
      <feGaussianBlur
         stdDeviation=".807"
         id="feGaussianBlur14" />
    </filter>
    <filter
       id="c-1"
       width="1.0239725"
       height="1.0239741"
       x="-0.011986232"
       y="-0.011987041"
       color-interpolation-filters="sRGB">
      <feGaussianBlur
         stdDeviation=".074"
         id="feGaussianBlur8" />
    </filter>
    <linearGradient
       xlink:href="#a-6"
       id="d-9"
       x1="2.598"
       x2="10.583"
       y1="2.836"
       y2="11.312"
       gradientUnits="userSpaceOnUse" />
    <linearGradient
       id="a-6">
      <stop
         offset="0"
         stop-color="#ffffff"
         id="stop1-2" />
      <stop
         offset="1"
         stop-color="#ffffff"
         stop-opacity="0"
         id="stop2-9" />
    </linearGradient>
    <linearGradient
       xlink:href="#a-6"
       id="e-4"
       x1="15.081"
       x2="12.7"
       y1="14.816"
       y2="12.171"
       gradientUnits="userSpaceOnUse" />
  </defs>
  <g
     color="#4a3626"
     image-rendering="auto"
     id="g18"
     style="display:inline">
    <path
       d="m 4.37,0.53 c -2.116,0 -3.84,1.782 -3.84,3.966 v 8.468 c 0,2.184 1.725,3.968 3.84,3.968 h 8.194 c 2.114,0 3.84,-1.783 3.84,-3.968 V 4.497 c 0,-2.184 -1.726,-3.968 -3.84,-3.968 z m 0.256,0.52 h 7.681 c 1.844,0 3.33,1.534 3.33,3.44 v 7.937 c 0,1.906 -1.485,3.44 -3.33,3.44 h -7.68 c -1.845,0 -3.33,-1.534 -3.33,-3.44 V 4.49 c 0,-1.906 1.485,-3.44 3.33,-3.44 z"
       enable-background="accumulate"
       opacity="0.01"
       style="font-variant-ligatures:normal;font-variant-position:normal;font-variant-caps:normal;font-variant-numeric:normal;font-variant-alternates:normal;font-variant-east-asian:normal;font-feature-settings:normal;font-variation-settings:normal;text-indent:0;text-decoration-line:none;text-decoration-style:solid;text-decoration-color:#4a3626;text-transform:none;text-orientation:mixed;white-space:normal;shape-padding:0;shape-margin:0;inline-size:0;isolation:auto;mix-blend-mode:normal"
       transform="scale(3.7796)"
       id="path14" />
    <path
       d="m 4.359,0.794 c -1.967,0 -3.564,1.653 -3.564,3.686 v 8.5 c 0,2.035 1.597,3.688 3.564,3.688 h 8.216 c 1.967,0 3.564,-1.653 3.564,-3.688 v -8.5 c 0,-2.034 -1.597,-3.687 -3.564,-3.687 z M 4.631,1.05 h 7.672 c 1.842,0 3.325,1.534 3.325,3.44 v 7.937 c 0,1.906 -1.483,3.44 -3.325,3.44 H 4.63 c -1.842,0 -3.325,-1.534 -3.325,-3.44 V 4.49 c 0,-1.906 1.483,-3.44 3.325,-3.44 z"
       enable-background="accumulate"
       opacity="0.01"
       style="font-variant-ligatures:normal;font-variant-position:normal;font-variant-caps:normal;font-variant-numeric:normal;font-variant-alternates:normal;font-variant-east-asian:normal;font-feature-settings:normal;font-variation-settings:normal;text-indent:0;text-decoration-line:none;text-decoration-style:solid;text-decoration-color:#4a3626;text-transform:none;text-orientation:mixed;white-space:normal;shape-padding:0;shape-margin:0;inline-size:0;isolation:auto;mix-blend-mode:normal"
       transform="scale(3.7796)"
       id="path15" />
    <path
       d="m 4.31,1.058 c -1.866,0 -3.375,1.539 -3.375,3.44 v 8.467 c 0,1.9 1.57,3.439 3.435,3.439 h 8.2 c 1.866,0 3.427,-1.538 3.427,-3.44 V 4.498 c 0,-1.9 -1.51,-3.439 -3.375,-3.439 h -0.097 c 1.794,0.087 3.214,1.582 3.214,3.432 v 7.937 c 0,1.906 -1.506,3.44 -3.377,3.44 h -7.79 c -1.871,0 -3.377,-1.534 -3.377,-3.44 V 4.49 c 0,-1.85 1.42,-3.345 3.214,-3.432 z"
       enable-background="accumulate"
       opacity="0.03"
       style="font-variant-ligatures:normal;font-variant-position:normal;font-variant-caps:normal;font-variant-numeric:normal;font-variant-alternates:normal;font-variant-east-asian:normal;font-feature-settings:normal;font-variation-settings:normal;text-indent:0;text-decoration-line:none;text-decoration-style:solid;text-decoration-color:#4a3626;text-transform:none;text-orientation:mixed;white-space:normal;shape-padding:0;shape-margin:0;inline-size:0;isolation:auto;mix-blend-mode:normal"
       transform="scale(3.7796)"
       id="path16" />
    <path
       d="M 4,46.969 V 49 c 0,6.648 5.896,12 12.544,12 H 47.505 C 54.153,61 60,55.648 60,49 V 47.008 A 12.972,12.972 0 0 1 47,59.971 H 17.002 A 12.973,12.973 0 0 1 4,46.969 Z"
       enable-background="accumulate"
       opacity="0.03"
       style="font-variant-ligatures:normal;font-variant-position:normal;font-variant-caps:normal;font-variant-numeric:normal;font-variant-alternates:normal;font-variant-east-asian:normal;font-feature-settings:normal;font-variation-settings:normal;text-indent:0;text-decoration-line:none;text-decoration-style:solid;text-decoration-color:#4a3626;text-transform:none;text-orientation:mixed;white-space:normal;shape-padding:0;shape-margin:0;inline-size:0;isolation:auto;mix-blend-mode:normal"
       id="path17" />
    <path
       d="m 1.058,11.906 v 0.592 c 0,1.939 1.573,3.5 3.332,3.5 h 8.16 c 1.76,0 3.325,-1.561 3.325,-3.5 v -0.58 c -0.006,2.095 -1.537,3.78 -3.44,3.78 H 4.498 c -1.905,0 -3.44,-1.692 -3.44,-3.792 z"
       enable-background="accumulate"
       opacity="0.05"
       style="font-variant-ligatures:normal;font-variant-position:normal;font-variant-caps:normal;font-variant-numeric:normal;font-variant-alternates:normal;font-variant-east-asian:normal;font-feature-settings:normal;font-variation-settings:normal;text-indent:0;text-decoration-line:none;text-decoration-style:solid;text-decoration-color:#4a3626;text-transform:none;text-orientation:mixed;white-space:normal;shape-padding:0;shape-margin:0;inline-size:0;isolation:auto;mix-blend-mode:normal"
       transform="scale(3.7796)"
       id="path18" />
  </g>
  <rect
     x="4"
     y="4"
     width="56"
     height="56"
     rx="13.002"
     ry="13.002"
     fill="url(#a)"
     id="rect18"
     style="display:inline;opacity:0.49893617" />
  <path
     d="m 23.48,13.445 -12.469,7.719 8.465,6.986 v 0.006 l -0.008,0.006 -0.031,-0.022 v 0.028 l -0.04,-0.026 v 0.04 l -0.025,-0.016 v 0.02 l -0.06,-0.04 v 0.028 l -0.041,-0.026 v 0.043 l -0.03,-0.02 v 0.178 l -8.23,6.793 8.232,5.096 v 3.72 l 12.742,8.173 V 52 l 0.002,-0.002 v 0.12 l 12.623,-8.16 v -3.65 l 8.4,-5.209 -8.398,-6.832 v -0.095 l -0.064,0.04 v -0.064 l -0.045,0.03 v -0.032 l -0.022,0.016 -0.002,-0.002 -0.033,0.02 v -0.036 l 8.51,-6.922 -12.53,-7.77 -6.067,4.98 -2.444,-1.51 -2.402,1.49 z"
     filter="url(#b)"
     opacity="0.1"
     id="path19"
     style="display:inline" />
  <g
     stroke-width="1.143"
     id="g66"
     style="display:inline">
    <g
       opacity="0.03"
       id="g21">
      <path
         d="m 44.613,27.384 -10e-4,15.787 -12.623,8.16 -0.061,-15.84 z"
         id="path20" />
      <path
         d="M 19.243,27.384 V 43.17 L 31.986,51.342 31.928,35.49 Z"
         id="path21" />
    </g>
    <g
       opacity="0.03"
       id="g23">
      <path
         d="M 44.55,27.36 44.548,43.09 31.971,51.222 31.91,35.438 Z"
         id="path22" />
      <path
         d="M 19.271,27.36 V 43.09 L 31.968,51.233 31.91,35.438 Z"
         id="path23" />
    </g>
    <g
       opacity="0.03"
       id="g25">
      <path
         d="M 44.504,27.359 V 43.035 L 31.969,51.138 31.909,35.409 Z"
         id="path24" />
      <path
         d="m 19.313,27.359 v 15.676 l 12.653,8.114 -0.057,-15.74 z"
         id="path25" />
    </g>
    <g
       opacity="0.03"
       id="g27">
      <path
         d="m 44.475,27.378 v 15.62 L 31.985,51.073 31.924,35.4 Z"
         id="path26" />
      <path
         d="m 19.373,27.378 10e-4,15.62 12.607,8.086 L 31.924,35.4 Z"
         id="path27" />
    </g>
    <g
       opacity="0.03"
       id="g29">
      <path
         d="M 44.415,27.355 V 42.923 L 31.966,50.97 31.906,35.35 Z"
         id="path28" />
      <path
         d="M 19.398,27.355 V 42.923 L 31.964,50.981 31.907,35.349 Z"
         id="path29" />
    </g>
    <g
       opacity="0.03"
       id="g31">
      <path
         d="m 44.374,27.353 v 15.519 l -12.409,8.021 -0.06,-15.57 z"
         id="path30" />
      <path
         d="M 19.437,27.353 V 42.872 L 31.962,50.904 31.905,35.322 Z"
         id="path31" />
    </g>
    <g
       opacity="0.03"
       id="g33">
      <path
         d="M 44.352,27.375 V 42.847 L 31.98,50.844 31.92,35.32 Z"
         id="path32" />
      <path
         d="M 19.49,27.375 V 42.847 L 31.978,50.855 31.921,35.32 Z"
         id="path33" />
    </g>
    <g
       opacity="0.03"
       id="g35">
      <path
         d="M 44.315,27.373 V 42.8 L 31.98,50.774 31.92,35.296 Z"
         id="path34" />
      <path
         d="M 19.525,27.373 V 42.8 l 12.451,7.985 -0.056,-15.49 z"
         id="path35" />
    </g>
    <g
       opacity="0.03"
       id="g37">
      <path
         d="m 44.263,27.35 v 15.383 l -12.3,7.952 -0.06,-15.435 z"
         id="path36" />
      <path
         d="M 19.543,27.35 V 42.733 L 31.959,50.696 31.903,35.249 Z"
         id="path37" />
    </g>
    <g
       opacity="0.03"
       id="g39">
      <path
         d="M 44.23,27.349 44.229,42.691 31.961,50.622 31.901,35.228 Z"
         id="path38" />
      <path
         d="M 19.575,27.349 V 42.69 l 12.383,7.942 -0.056,-15.406 z"
         id="path39" />
    </g>
    <g
       opacity="0.03"
       id="g41">
      <path
         d="m 44.21,27.37 v 15.3 l -12.233,7.909 -0.06,-15.352 z"
         id="path40" />
      <path
         d="m 19.624,27.37 v 15.3 l 12.35,7.92 -0.057,-15.364 z"
         id="path41" />
    </g>
    <g
       opacity="0.03"
       id="g43">
      <path
         d="m 44.177,27.368 v 15.26 L 31.975,50.516 31.916,35.205 Z"
         id="path42" />
      <path
         d="m 19.655,27.368 10e-4,15.26 12.316,7.899 -0.056,-15.323 z"
         id="path43" />
    </g>
    <g
       opacity="0.03"
       id="g45">
      <path
         d="m 44.129,27.346 v 15.22 l -12.17,7.868 -0.06,-15.272 z"
         id="path44" />
      <path
         d="m 19.67,27.346 v 15.22 l 12.285,7.879 -0.056,-15.283 z"
         id="path45" />
    </g>
    <g
       opacity="0.03"
       id="g47">
      <path
         d="M 44.096,27.344 44.095,42.524 31.957,50.371 31.898,35.14 Z"
         id="path46" />
      <path
         d="m 19.702,27.344 v 15.18 l 12.252,7.858 -0.055,-15.243 z"
         id="path47" />
    </g>
    <g
       opacity="0.03"
       id="g49">
      <path
         d="m 44.062,27.343 v 15.14 l -12.106,7.825 -0.058,-15.19 z"
         id="path48" />
      <path
         d="m 19.733,27.343 0.001,15.14 12.22,7.836 -0.056,-15.202 z"
         id="path49" />
    </g>
    <g
       opacity="0.03"
       id="g51">
      <path
         d="M 44.032,27.342 V 42.445 L 31.956,50.252 31.896,35.098 Z"
         id="path50" />
      <path
         d="m 19.762,27.342 v 15.103 l 12.19,7.818 -0.055,-15.166 z"
         id="path51" />
    </g>
    <g
       opacity="0.03"
       id="g53">
      <path
         d="M 44.003,27.34 44.002,42.408 31.955,50.196 31.896,35.078 Z"
         id="path52" />
      <path
         d="m 19.79,27.34 v 15.068 l 12.161,7.799 -0.055,-15.13 z"
         id="path53" />
    </g>
    <path
       d="m 31.92,19.649 12.47,7.718 -12.385,7.769 -12.53,-7.77 z"
       fill="#bc997c"
       id="path54" />
    <path
       d="m 337.71,520.17 13.566,-8.397 9.213,7.585 -13.563,8.418 z"
       fill="url(#c)"
       transform="matrix(0.9191,0,0,0.9191,-299.378,-457.713)"
       id="path55" />
    <path
       d="m 360.47,519.37 13.595,8.415 9.283,-7.551 -13.633,-8.453 z"
       fill="url(#d)"
       transform="matrix(0.9191,0,0,0.9191,-299.378,-457.713)"
       id="path56" />
    <path
       d="m 31.92,19.649 v 13.244 l -12.384,7.77 -0.06,-13.297 z"
       fill="#b38b6b"
       id="path57" />
    <path
       d="m 31.92,19.649 10e-4,13.244 12.384,7.77 0.06,-13.297 z"
       fill="#a87b56"
       id="path58" />
    <path
       d="m 374,527.77 v 16.353 l -13.475,8.453 -0.065,-16.408 z"
       fill="url(#e)"
       transform="matrix(0.9191,0,0,0.9191,-299.378,-457.713)"
       id="path59" />
    <path
       d="m 360.56,536.18 13.566,-8.397 9.283,7.55 -13.633,8.453 z"
       fill="url(#f)"
       transform="matrix(0.9191,0,0,0.9191,-299.378,-457.713)"
       id="path60" />
    <path
       d="m 346.92,527.77 v 16.353 l 13.602,8.464 -0.062,-16.42 z"
       fill="url(#g)"
       transform="matrix(0.9191,0,0,0.9191,-299.378,-457.713)"
       id="path61" />
    <path
       d="m 337.71,535.38 13.566,8.397 9.283,-7.55 -13.633,-8.453 z"
       fill="url(#h)"
       transform="matrix(0.9191,0,0,0.9191,-299.378,-457.713)"
       id="path62" />
    <g
       fill="#ffffff"
       id="g65">
      <path
         d="m 19.467,27.356 12.502,7.749 12.477,-7.726 -12.53,-7.745 z"
         opacity="0.7"
         id="path63" />
      <path
         d="m 19.467,23.856 12.502,7.749 12.477,-7.726 -12.53,-7.745 z"
         opacity="0.7"
         id="path64" />
      <path
         d="m 19.47,23.859 0.027,3.532 12.523,7.739 12.428,-7.739 0.005,-3.517 -12.486,7.731 z"
         opacity="0.35"
         id="path65" />
    </g>
  </g>
  <g
     filter="url(#c)"
     opacity=".35"
     id="g12"
     style="display:inline;opacity:0.80064;filter:url(#c-1)"
     transform="matrix(3.779602,0,0,3.779602,-0.3275616,-0.3275616)">
    <path
       fill="url(#d)"
       d="m 5.36,1.058 c -1.53,0 -2.577,0.457 -3.26,1.2 -0.678,0.74 -1.042,1.8 -1.042,3.001 v 6.415 c 0,1.2 0.364,2.26 1.043,3 0.682,0.744 1.73,1.2 3.26,1.2 h 6.23 c 1.53,0 2.577,-0.456 3.26,-1.2 0.678,-0.739 1.024,-1.702 1.024,-3 V 5.5 c 0,-1.57 -0.346,-2.502 -1.024,-3.242 -0.683,-0.743 -1.73,-1.2 -3.26,-1.2 H 6.745 Z m 0,0.264 h 6.232 c 1.477,0 2.437,0.432 3.064,1.116 0.634,0.69 0.954,1.53 0.954,3.062 v 6.174 c 0,1.251 -0.322,2.134 -0.954,2.822 -0.627,0.684 -1.587,1.114 -3.064,1.114 H 5.359 C 3.882,15.61 2.922,15.18 2.295,14.496 1.67,13.814 1.322,12.821 1.322,11.674 V 5.26 C 1.322,4.112 1.67,3.12 2.295,2.438 2.922,1.754 3.882,1.322 5.359,1.322"
       id="path11"
       style="fill:url(#d-9)" />
    <path
       fill="url(#e)"
       d="m 5.36,1.058 c -1.53,0 -2.577,0.457 -3.26,1.2 -0.678,0.74 -1.042,1.8 -1.042,3.001 v 6.415 c 0,1.2 0.364,2.26 1.043,3 0.682,0.744 1.73,1.2 3.26,1.2 h 6.23 c 1.53,0 2.577,-0.456 3.26,-1.2 0.678,-0.739 1.024,-1.702 1.024,-3 V 5.5 c 0,-1.57 -0.346,-2.502 -1.024,-3.242 -0.683,-0.743 -1.73,-1.2 -3.26,-1.2 H 6.745 Z m 0,0.264 h 6.232 c 1.477,0 2.437,0.432 3.064,1.116 0.634,0.69 0.954,1.53 0.954,3.062 v 6.174 c 0,1.251 -0.322,2.134 -0.954,2.822 -0.627,0.684 -1.587,1.114 -3.064,1.114 H 5.359 C 3.882,15.61 2.922,15.18 2.295,14.496 1.67,13.814 1.322,12.821 1.322,11.674 V 5.26 C 1.322,4.112 1.67,3.12 2.295,2.438 2.922,1.754 3.882,1.322 5.359,1.322"
       id="path12"
       style="fill:url(#e-4)" />
  </g>
</svg>
