<?xml version="1.0" encoding="UTF-8" standalone="no"?>
<svg
   width="64"
   height="64"
   enable-background="new 0 0 1024 1024"
   image-rendering="optimizeSpeed"
   version="1.1"
   id="svg21"
   sodipodi:docname="sublime-text.svg"
   inkscape:version="1.4.2 (ebf0e940d0, 2025-05-08)"
   xmlns:inkscape="http://www.inkscape.org/namespaces/inkscape"
   xmlns:sodipodi="http://sodipodi.sourceforge.net/DTD/sodipodi-0.dtd"
   xmlns:xlink="http://www.w3.org/1999/xlink"
   xmlns="http://www.w3.org/2000/svg"
   xmlns:svg="http://www.w3.org/2000/svg">
  <sodipodi:namedview
     id="namedview21"
     pagecolor="#ffffff"
     bordercolor="#000000"
     borderopacity="0.25"
     inkscape:showpageshadow="2"
     inkscape:pageopacity="0.0"
     inkscape:pagecheckerboard="0"
     inkscape:deskcolor="#d1d1d1"
     inkscape:zoom="13.390625"
     inkscape:cx="31.96266"
     inkscape:cy="32"
     inkscape:window-width="1920"
     inkscape:window-height="1047"
     inkscape:window-x="0"
     inkscape:window-y="0"
     inkscape:window-maximized="1"
     inkscape:current-layer="svg21" />
  <defs
     id="defs9">
    <linearGradient
       id="a">
      <stop
         offset="0"
         id="stop1" />
      <stop
         offset="1"
         stop-opacity="0"
         id="stop2" />
    </linearGradient>
    <linearGradient
       id="d"
       x1="116.53"
       x2="211.49"
       y1="400.49"
       y2="324.75"
       gradientTransform="matrix(.11943 0 0 .07962 10.946 9.537)"
       gradientUnits="userSpaceOnUse">
      <stop
         offset="0"
         stop-color="#f2e7e1"
         id="stop3" />
      <stop
         offset=".574"
         stop-color="#ecddd5"
         id="stop4" />
      <stop
         offset="1"
         stop-color="#d9baaa"
         id="stop5" />
    </linearGradient>
    <linearGradient
       id="b"
       x1="7.937"
       x2="7.937"
       y1="15.081"
       y2="1.852"
       gradientTransform="translate(0 .032)scale(3.7795)"
       gradientUnits="userSpaceOnUse">
      <stop
         offset="0"
         stop-color="#9a6245"
         id="stop6" />
      <stop
         offset="1"
         stop-color="#bd886c"
         id="stop7" />
    </linearGradient>
    <linearGradient
       xlink:href="#a"
       id="f"
       x1="20.308"
       x2="45.273"
       y1="31.404"
       y2="31.404"
       gradientUnits="userSpaceOnUse" />
    <linearGradient
       xlink:href="#a"
       id="e"
       x1="287.63"
       x2="79.111"
       y1="340.31"
       y2="340.31"
       gradientTransform="matrix(.11943 0 0 .07962 10.946 9.468)"
       gradientUnits="userSpaceOnUse" />
    <linearGradient
       id="g"
       x1="20.308"
       x2="45.272"
       y1="23.514"
       y2="23.514"
       gradientUnits="userSpaceOnUse">
      <stop
         offset="0"
         stop-color="#f2e7e1"
         id="stop8" />
      <stop
         offset="1"
         stop-color="#ffffff"
         id="stop9" />
    </linearGradient>
    <filter
       id="c"
       width="1.0827487"
       height="1.1241247"
       x="-0.041374358"
       y="-0.062062375"
       color-interpolation-filters="sRGB">
      <feGaussianBlur
         stdDeviation="6.771"
         id="feGaussianBlur9" />
    </filter>
    <linearGradient
       id="a-3"
       x1="7.9369998"
       x2="7.9369998"
       y1="15.081"
       y2="1.852"
       gradientUnits="userSpaceOnUse"
       gradientTransform="matrix(3.779602,0,0,3.779602,0.0011812,0.0314181)">
      <stop
         stop-color="#ffffff"
         offset="0"
         id="stop62"
         style="stop-color:#666666;stop-opacity:1;" />
      <stop
         stop-color="#ffffff"
         offset="1"
         id="stop63" />
    </linearGradient>
    <filter
       id="c-3"
       width="1.0239725"
       height="1.0239741"
       x="-0.011986232"
       y="-0.011987041"
       color-interpolation-filters="sRGB">
      <feGaussianBlur
         stdDeviation=".074"
         id="feGaussianBlur8" />
    </filter>
    <linearGradient
       xlink:href="#a-6"
       id="d-3"
       x1="2.598"
       x2="10.583"
       y1="2.836"
       y2="11.312"
       gradientUnits="userSpaceOnUse" />
    <linearGradient
       id="a-6">
      <stop
         offset="0"
         stop-color="#ffffff"
         id="stop1-7" />
      <stop
         offset="1"
         stop-color="#ffffff"
         stop-opacity="0"
         id="stop2-5" />
    </linearGradient>
    <linearGradient
       xlink:href="#a-6"
       id="e-6"
       x1="15.081"
       x2="12.7"
       y1="14.816"
       y2="12.171"
       gradientUnits="userSpaceOnUse" />
  </defs>
  <g
     color="#633f2c"
     image-rendering="auto"
     id="g13"
     style="display:inline">
    <path
       d="m 4.37,0.53 c -2.116,0 -3.84,1.782 -3.84,3.966 v 8.468 c 0,2.184 1.725,3.968 3.84,3.968 h 8.194 c 2.114,0 3.84,-1.783 3.84,-3.968 V 4.497 c 0,-2.184 -1.726,-3.968 -3.84,-3.968 z m 0.256,0.52 h 7.681 c 1.844,0 3.33,1.534 3.33,3.44 v 7.937 c 0,1.906 -1.485,3.44 -3.33,3.44 h -7.68 c -1.845,0 -3.33,-1.534 -3.33,-3.44 V 4.49 c 0,-1.906 1.485,-3.44 3.33,-3.44 z"
       enable-background="accumulate"
       opacity="0.01"
       style="font-variant-ligatures:normal;font-variant-position:normal;font-variant-caps:normal;font-variant-numeric:normal;font-variant-alternates:normal;font-variant-east-asian:normal;font-feature-settings:normal;font-variation-settings:normal;text-indent:0;text-decoration-line:none;text-decoration-style:solid;text-decoration-color:#633f2c;text-transform:none;text-orientation:mixed;white-space:normal;shape-padding:0;shape-margin:0;inline-size:0;isolation:auto;mix-blend-mode:normal"
       transform="scale(3.7796)"
       id="path9" />
    <path
       d="m 4.359,0.794 c -1.967,0 -3.564,1.653 -3.564,3.686 v 8.5 c 0,2.035 1.597,3.688 3.564,3.688 h 8.216 c 1.967,0 3.564,-1.653 3.564,-3.688 v -8.5 c 0,-2.034 -1.597,-3.687 -3.564,-3.687 z M 4.631,1.05 h 7.672 c 1.842,0 3.325,1.534 3.325,3.44 v 7.937 c 0,1.906 -1.483,3.44 -3.325,3.44 H 4.63 c -1.842,0 -3.325,-1.534 -3.325,-3.44 V 4.49 c 0,-1.906 1.483,-3.44 3.325,-3.44 z"
       enable-background="accumulate"
       opacity="0.01"
       style="font-variant-ligatures:normal;font-variant-position:normal;font-variant-caps:normal;font-variant-numeric:normal;font-variant-alternates:normal;font-variant-east-asian:normal;font-feature-settings:normal;font-variation-settings:normal;text-indent:0;text-decoration-line:none;text-decoration-style:solid;text-decoration-color:#633f2c;text-transform:none;text-orientation:mixed;white-space:normal;shape-padding:0;shape-margin:0;inline-size:0;isolation:auto;mix-blend-mode:normal"
       transform="scale(3.7796)"
       id="path10" />
    <path
       d="m 4.31,1.058 c -1.866,0 -3.375,1.539 -3.375,3.44 v 8.467 c 0,1.9 1.57,3.439 3.435,3.439 h 8.2 c 1.866,0 3.427,-1.538 3.427,-3.44 V 4.498 c 0,-1.9 -1.51,-3.439 -3.375,-3.439 h -0.097 c 1.794,0.087 3.214,1.582 3.214,3.432 v 7.937 c 0,1.906 -1.506,3.44 -3.377,3.44 h -7.79 c -1.871,0 -3.377,-1.534 -3.377,-3.44 V 4.49 c 0,-1.85 1.42,-3.345 3.214,-3.432 z"
       enable-background="accumulate"
       opacity="0.03"
       style="font-variant-ligatures:normal;font-variant-position:normal;font-variant-caps:normal;font-variant-numeric:normal;font-variant-alternates:normal;font-variant-east-asian:normal;font-feature-settings:normal;font-variation-settings:normal;text-indent:0;text-decoration-line:none;text-decoration-style:solid;text-decoration-color:#633f2c;text-transform:none;text-orientation:mixed;white-space:normal;shape-padding:0;shape-margin:0;inline-size:0;isolation:auto;mix-blend-mode:normal"
       transform="scale(3.7796)"
       id="path11" />
    <path
       d="M 4,46.969 V 49 c 0,6.648 5.896,12 12.544,12 H 47.505 C 54.153,61 60,55.648 60,49 V 47.008 A 12.97,12.97 0 0 1 47,59.971 H 17.002 A 12.973,12.973 0 0 1 4,46.969"
       enable-background="accumulate"
       opacity="0.03"
       style="font-variant-ligatures:normal;font-variant-position:normal;font-variant-caps:normal;font-variant-numeric:normal;font-variant-alternates:normal;font-variant-east-asian:normal;font-feature-settings:normal;font-variation-settings:normal;text-indent:0;text-decoration-line:none;text-decoration-style:solid;text-decoration-color:#633f2c;text-transform:none;text-orientation:mixed;white-space:normal;shape-padding:0;shape-margin:0;inline-size:0;isolation:auto;mix-blend-mode:normal"
       id="path12" />
    <path
       d="m 1.058,11.906 v 0.592 c 0,1.939 1.573,3.5 3.332,3.5 h 8.16 c 1.76,0 3.325,-1.561 3.325,-3.5 v -0.58 c -0.006,2.095 -1.537,3.78 -3.44,3.78 H 4.498 c -1.905,0 -3.44,-1.692 -3.44,-3.792"
       enable-background="accumulate"
       opacity="0.05"
       style="font-variant-ligatures:normal;font-variant-position:normal;font-variant-caps:normal;font-variant-numeric:normal;font-variant-alternates:normal;font-variant-east-asian:normal;font-feature-settings:normal;font-variation-settings:normal;text-indent:0;text-decoration-line:none;text-decoration-style:solid;text-decoration-color:#633f2c;text-transform:none;text-orientation:mixed;white-space:normal;shape-padding:0;shape-margin:0;inline-size:0;isolation:auto;mix-blend-mode:normal"
       transform="scale(3.7796)"
       id="path13" />
  </g>
  <rect
     width="56"
     height="56"
     x="4"
     y="4"
     fill="url(#b)"
     rx="13.002"
     ry="13.002"
     id="rect13"
     style="display:inline;opacity:0.5" />
  <path
     d="M708.28 512.08c0-5.982-4.42-9.43-9.842-7.717l-373.08 118.34c-5.434 1.725-9.843 7.979-9.843 13.95v120.95c0 5.982 4.409 9.442 9.843 7.717l373.08-118.33c5.423-1.725 9.842-7.979 9.842-13.961z"
     filter="url(#c)"
     opacity=".2"
     transform="translate(.254 -.422)scale(.06356)"
     id="path14" />
  <path
     fill="url(#d)"
     d="M45.272 31.49c0-.38-.28-.6-.626-.49l-23.713 7.52c-.345.11-.625.507-.625.887v7.688c0 .38.28.6.625.49l23.713-7.521c.345-.11.626-.507.626-.887z"
     id="path15" />
  <path
     d="M315.52 508.9c0 5.981 4.408 12.235 9.841 13.96l373.09 118.35c5.433 1.724 9.841-1.735 9.841-7.706v-120.96c0-5.97-4.408-12.224-9.841-13.949l-373.09-118.35c-5.433-1.724-9.841 1.725-9.841 7.706z"
     filter="url(#c)"
     opacity=".2"
     transform="translate(.254 -.422)scale(.06356)"
     id="path16" />
  <path
     fill="url(#e)"
     d="M45.272 31.421c0-.38-.28-.6-.626-.49l-23.713 7.521c-.345.11-.625.507-.625.887v7.688c0 .38.28.6.625.49l23.713-7.521c.345-.11.626-.507.626-.887z"
     opacity=".15"
     id="path17" />
  <path
     fill="#f2e7e1"
     d="M20.308 31.287c0 .38.28.778.625.887l23.713 7.522c.346.11.626-.11.626-.49V31.52c0-.38-.28-.777-.626-.887L20.933 23.11c-.345-.11-.625.11-.625.49z"
     id="path18" />
  <path
     d="M708.28 263.84c0-5.982-4.42-9.442-9.842-7.717l-373.08 118.33c-5.434 1.724-9.843 7.979-9.843 13.96v120.95c0 5.982 4.409 9.432 9.843 7.718l373.08-118.34c5.423-1.725 9.842-7.979 9.842-13.95z"
     filter="url(#c)"
     opacity=".2"
     transform="translate(.254 -.422)scale(.06356)"
     id="path19" />
  <path
     fill="url(#f)"
     d="M20.308 31.287c0 .38.28.778.625.887l23.713 7.522c.346.11.626-.11.626-.49V31.52c0-.38-.28-.777-.626-.887L20.933 23.11c-.345-.11-.625.11-.625.49z"
     opacity=".15"
     id="path20" />
  <path
     fill="url(#g)"
     d="M45.272 15.712c0-.38-.28-.6-.626-.49l-23.713 7.52c-.345.11-.625.508-.625.888v7.688c0 .38.28.6.625.49l23.713-7.522c.345-.11.626-.507.626-.886z"
     id="path21" />
  <rect
     x="4"
     y="4"
     width="56.002365"
     height="56.002365"
     rx="13.001831"
     ry="13.001831"
     fill="url(#a)"
     id="rect63"
     style="display:inline;opacity:0.510917;fill:url(#a-3);stroke-width:3.7796" />
  <g
     filter="url(#c)"
     opacity=".35"
     id="g12"
     style="opacity:0.54371;filter:url(#c-3)"
     transform="matrix(3.779602,0,0,3.779602,-0.3275616,-0.3275616)">
    <path
       fill="url(#d)"
       d="m 5.36,1.058 c -1.53,0 -2.577,0.457 -3.26,1.2 -0.678,0.74 -1.042,1.8 -1.042,3.001 v 6.415 c 0,1.2 0.364,2.26 1.043,3 0.682,0.744 1.73,1.2 3.26,1.2 h 6.23 c 1.53,0 2.577,-0.456 3.26,-1.2 0.678,-0.739 1.024,-1.702 1.024,-3 V 5.5 c 0,-1.57 -0.346,-2.502 -1.024,-3.242 -0.683,-0.743 -1.73,-1.2 -3.26,-1.2 H 6.745 Z m 0,0.264 h 6.232 c 1.477,0 2.437,0.432 3.064,1.116 0.634,0.69 0.954,1.53 0.954,3.062 v 6.174 c 0,1.251 -0.322,2.134 -0.954,2.822 -0.627,0.684 -1.587,1.114 -3.064,1.114 H 5.359 C 3.882,15.61 2.922,15.18 2.295,14.496 1.67,13.814 1.322,12.821 1.322,11.674 V 5.26 C 1.322,4.112 1.67,3.12 2.295,2.438 2.922,1.754 3.882,1.322 5.359,1.322"
       id="path11-5"
       style="fill:url(#d-3)" />
    <path
       fill="url(#e)"
       d="m 5.36,1.058 c -1.53,0 -2.577,0.457 -3.26,1.2 -0.678,0.74 -1.042,1.8 -1.042,3.001 v 6.415 c 0,1.2 0.364,2.26 1.043,3 0.682,0.744 1.73,1.2 3.26,1.2 h 6.23 c 1.53,0 2.577,-0.456 3.26,-1.2 0.678,-0.739 1.024,-1.702 1.024,-3 V 5.5 c 0,-1.57 -0.346,-2.502 -1.024,-3.242 -0.683,-0.743 -1.73,-1.2 -3.26,-1.2 H 6.745 Z m 0,0.264 h 6.232 c 1.477,0 2.437,0.432 3.064,1.116 0.634,0.69 0.954,1.53 0.954,3.062 v 6.174 c 0,1.251 -0.322,2.134 -0.954,2.822 -0.627,0.684 -1.587,1.114 -3.064,1.114 H 5.359 C 3.882,15.61 2.922,15.18 2.295,14.496 1.67,13.814 1.322,12.821 1.322,11.674 V 5.26 C 1.322,4.112 1.67,3.12 2.295,2.438 2.922,1.754 3.882,1.322 5.359,1.322"
       id="path12-6"
       style="fill:url(#e-6)" />
  </g>
</svg>
