<?xml version="1.0" encoding="UTF-8" standalone="no"?>
<svg
   width="64"
   height="64"
   version="1.1"
   id="svg21"
   sodipodi:docname="teams-for-linux.svg"
   inkscape:version="1.4.2 (ebf0e940d0, 2025-05-08)"
   xmlns:inkscape="http://www.inkscape.org/namespaces/inkscape"
   xmlns:sodipodi="http://sodipodi.sourceforge.net/DTD/sodipodi-0.dtd"
   xmlns:xlink="http://www.w3.org/1999/xlink"
   xmlns="http://www.w3.org/2000/svg"
   xmlns:svg="http://www.w3.org/2000/svg">
  <sodipodi:namedview
     id="namedview21"
     pagecolor="#ffffff"
     bordercolor="#000000"
     borderopacity="0.25"
     inkscape:showpageshadow="2"
     inkscape:pageopacity="0.0"
     inkscape:pagecheckerboard="0"
     inkscape:deskcolor="#d1d1d1"
     inkscape:zoom="11.796875"
     inkscape:cx="32"
     inkscape:cy="32"
     inkscape:window-width="1920"
     inkscape:window-height="945"
     inkscape:window-x="0"
     inkscape:window-y="32"
     inkscape:window-maximized="1"
     inkscape:current-layer="svg21" />
  <defs
     id="defs11">
    <linearGradient
       id="e"
       x1="32.734"
       x2="32.734"
       y1="14.169"
       y2="49.545"
       gradientUnits="userSpaceOnUse">
      <stop
         offset="0"
         stop-color="#e2cabd"
         id="stop1" />
      <stop
         offset="1"
         stop-color="#cba08a"
         id="stop2" />
    </linearGradient>
    <linearGradient
       id="d"
       x1="46.015"
       x2="46.015"
       y1="18.924"
       y2="43.952"
       gradientUnits="userSpaceOnUse">
      <stop
         offset="0"
         stop-color="#d3af9c"
         id="stop3" />
      <stop
         offset="1"
         stop-color="#be896d"
         id="stop4" />
    </linearGradient>
    <linearGradient
       id="g"
       x1="15.354"
       x2="15.354"
       y1="20.19"
       y2="45.552"
       gradientTransform="translate(8.828 8.466)scale(.72414)"
       gradientUnits="userSpaceOnUse">
      <stop
         offset="0"
         stop-color="#cba28b"
         id="stop5" />
      <stop
         offset="1"
         stop-color="#b77d5e"
         stop-opacity=".965"
         id="stop6" />
    </linearGradient>
    <linearGradient
       id="a"
       x1="7.937"
       x2="7.937"
       y1="15.081"
       y2="1.852"
       gradientTransform="translate(0 .032)scale(3.7795)"
       gradientUnits="userSpaceOnUse">
      <stop
         offset="0"
         stop-color="#ffffff"
         id="stop7" />
      <stop
         offset="1"
         stop-color="#ffffff"
         id="stop8" />
    </linearGradient>
    <filter
       id="h"
       width="1.17856"
       height="1.1488"
       x="-0.089280005"
       y="-0.074400004"
       color-interpolation-filters="sRGB">
      <feGaussianBlur
         stdDeviation=".558"
         id="feGaussianBlur8" />
    </filter>
    <filter
       id="f"
       width="1.3110069"
       height="1.3110069"
       x="-0.15550344"
       y="-0.15550344"
       color-interpolation-filters="sRGB">
      <feGaussianBlur
         stdDeviation="1.879"
         id="feGaussianBlur9" />
    </filter>
    <filter
       id="c"
       width="1.1886896"
       height="1.0977143"
       x="-0.094344777"
       y="-0.048857142"
       color-interpolation-filters="sRGB">
      <feGaussianBlur
         stdDeviation="1.14"
         id="feGaussianBlur10" />
    </filter>
    <filter
       id="b"
       width="1.2879998"
       height="1.1334634"
       x="-0.14399988"
       y="-0.066731706"
       color-interpolation-filters="sRGB">
      <feGaussianBlur
         stdDeviation="1.14"
         id="feGaussianBlur11" />
    </filter>
    <filter
       id="c-3"
       width="1.0239725"
       height="1.0239741"
       x="-0.011986232"
       y="-0.011987041"
       color-interpolation-filters="sRGB">
      <feGaussianBlur
         stdDeviation=".074"
         id="feGaussianBlur8-6" />
    </filter>
    <linearGradient
       xlink:href="#a-6"
       id="d-7"
       x1="2.598"
       x2="10.583"
       y1="2.836"
       y2="11.312"
       gradientUnits="userSpaceOnUse" />
    <linearGradient
       id="a-6">
      <stop
         offset="0"
         stop-color="#ffffff"
         id="stop1-2" />
      <stop
         offset="1"
         stop-color="#ffffff"
         stop-opacity="0"
         id="stop2-9" />
    </linearGradient>
    <linearGradient
       xlink:href="#a-6"
       id="e-5"
       x1="15.081"
       x2="12.7"
       y1="14.816"
       y2="12.171"
       gradientUnits="userSpaceOnUse" />
    <linearGradient
       id="a-0"
       x1="7.9369998"
       x2="7.9369998"
       y1="15.081"
       y2="1.852"
       gradientUnits="userSpaceOnUse"
       gradientTransform="matrix(3.779602,0,0,3.779602,0.17998895,-0.10368144)">
      <stop
         stop-color="#ffffff"
         offset="0"
         id="stop62"
         style="stop-color:#666666;stop-opacity:1;" />
      <stop
         stop-color="#ffffff"
         offset="1"
         id="stop63" />
    </linearGradient>
  </defs>
  <g
     color="#633f2c"
     id="g15"
     style="display:inline">
    <path
       d="m 4.37,0.53 c -2.116,0 -3.84,1.782 -3.84,3.966 v 8.468 c 0,2.184 1.725,3.968 3.84,3.968 h 8.194 c 2.114,0 3.84,-1.783 3.84,-3.968 V 4.497 c 0,-2.184 -1.726,-3.968 -3.84,-3.968 z m 0.256,0.52 h 7.681 c 1.844,0 3.33,1.534 3.33,3.44 v 7.937 c 0,1.906 -1.485,3.44 -3.33,3.44 h -7.68 c -1.845,0 -3.33,-1.534 -3.33,-3.44 V 4.49 c 0,-1.906 1.485,-3.44 3.33,-3.44 z"
       opacity="0.01"
       style="font-variant-ligatures:normal;font-variant-position:normal;font-variant-caps:normal;font-variant-numeric:normal;font-variant-alternates:normal;font-variant-east-asian:normal;font-feature-settings:normal;font-variation-settings:normal;text-indent:0;text-decoration-line:none;text-decoration-style:solid;text-decoration-color:#633f2c;text-transform:none;text-orientation:mixed;white-space:normal;shape-padding:0;shape-margin:0;inline-size:0;isolation:auto;mix-blend-mode:normal"
       transform="scale(3.7796)"
       id="path11" />
    <path
       d="m 4.359,0.794 c -1.967,0 -3.564,1.653 -3.564,3.686 v 8.5 c 0,2.035 1.597,3.688 3.564,3.688 h 8.216 c 1.967,0 3.564,-1.653 3.564,-3.688 v -8.5 c 0,-2.034 -1.597,-3.687 -3.564,-3.687 z M 4.631,1.05 h 7.672 c 1.842,0 3.325,1.534 3.325,3.44 v 7.937 c 0,1.906 -1.483,3.44 -3.325,3.44 H 4.63 c -1.842,0 -3.325,-1.534 -3.325,-3.44 V 4.49 c 0,-1.906 1.483,-3.44 3.325,-3.44 z"
       opacity="0.01"
       style="font-variant-ligatures:normal;font-variant-position:normal;font-variant-caps:normal;font-variant-numeric:normal;font-variant-alternates:normal;font-variant-east-asian:normal;font-feature-settings:normal;font-variation-settings:normal;text-indent:0;text-decoration-line:none;text-decoration-style:solid;text-decoration-color:#633f2c;text-transform:none;text-orientation:mixed;white-space:normal;shape-padding:0;shape-margin:0;inline-size:0;isolation:auto;mix-blend-mode:normal"
       transform="scale(3.7796)"
       id="path12" />
    <path
       d="m 4.31,1.058 c -1.866,0 -3.375,1.539 -3.375,3.44 v 8.467 c 0,1.9 1.57,3.439 3.435,3.439 h 8.2 c 1.866,0 3.427,-1.538 3.427,-3.44 V 4.498 c 0,-1.9 -1.51,-3.439 -3.375,-3.439 h -0.097 c 1.794,0.087 3.214,1.582 3.214,3.432 v 7.937 c 0,1.906 -1.506,3.44 -3.377,3.44 h -7.79 c -1.871,0 -3.377,-1.534 -3.377,-3.44 V 4.49 c 0,-1.85 1.42,-3.345 3.214,-3.432 z"
       opacity="0.03"
       style="font-variant-ligatures:normal;font-variant-position:normal;font-variant-caps:normal;font-variant-numeric:normal;font-variant-alternates:normal;font-variant-east-asian:normal;font-feature-settings:normal;font-variation-settings:normal;text-indent:0;text-decoration-line:none;text-decoration-style:solid;text-decoration-color:#633f2c;text-transform:none;text-orientation:mixed;white-space:normal;shape-padding:0;shape-margin:0;inline-size:0;isolation:auto;mix-blend-mode:normal"
       transform="scale(3.7796)"
       id="path13" />
    <path
       d="M 4,46.969 V 49 c 0,6.648 5.896,12 12.544,12 H 47.505 C 54.153,61 60,55.648 60,49 V 47.008 A 12.97,12.97 0 0 1 47,59.971 H 17.002 A 12.973,12.973 0 0 1 4,46.969"
       opacity="0.03"
       style="font-variant-ligatures:normal;font-variant-position:normal;font-variant-caps:normal;font-variant-numeric:normal;font-variant-alternates:normal;font-variant-east-asian:normal;font-feature-settings:normal;font-variation-settings:normal;text-indent:0;text-decoration-line:none;text-decoration-style:solid;text-decoration-color:#633f2c;text-transform:none;text-orientation:mixed;white-space:normal;shape-padding:0;shape-margin:0;inline-size:0;isolation:auto;mix-blend-mode:normal"
       id="path14" />
    <path
       d="m 1.058,11.906 v 0.592 c 0,1.939 1.573,3.5 3.332,3.5 h 8.16 c 1.76,0 3.325,-1.561 3.325,-3.5 v -0.58 c -0.006,2.095 -1.537,3.78 -3.44,3.78 H 4.498 c -1.905,0 -3.44,-1.692 -3.44,-3.792"
       opacity="0.05"
       style="font-variant-ligatures:normal;font-variant-position:normal;font-variant-caps:normal;font-variant-numeric:normal;font-variant-alternates:normal;font-variant-east-asian:normal;font-feature-settings:normal;font-variation-settings:normal;text-indent:0;text-decoration-line:none;text-decoration-style:solid;text-decoration-color:#633f2c;text-transform:none;text-orientation:mixed;white-space:normal;shape-padding:0;shape-margin:0;inline-size:0;isolation:auto;mix-blend-mode:normal"
       transform="scale(3.7796)"
       id="path15" />
  </g>
  <rect
     width="56"
     height="56"
     x="4"
     y="4"
     fill="url(#a)"
     rx="13.002"
     ry="13.002"
     id="rect15"
     style="opacity:0.5" />
  <path
     d="M 51.5,11 A 6.5,6.5 0 0 0 45,17.5 6.5,6.5 0 0 0 51.5,24 6.5,6.5 0 0 0 58,17.5 6.5,6.5 0 0 0 51.5,11 M 44.035,27 A 2.03,2.03 0 0 0 42,29.035 v 13.951 h 0.018 A 9.5,9.5 0 0 0 51.5,52 9.5,9.5 0 0 0 60.977,42.986 H 61 V 29.036 A 2.03,2.03 0 0 0 58.965,27 Z"
     filter="url(#b)"
     opacity="0.2"
     transform="matrix(0.72414,0,0,0.72414,8.828,8.466)"
     id="path16"
     style="display:inline" />
  <path
     d="M33.5 5a9.5 9.5 0 0 0-9.5 9.5 9.5 9.5 0 0 0 9.5 9.5 9.5 9.5 0 0 0 9.5-9.5A9.5 9.5 0 0 0 33.5 5M22.295 27A3.287 3.287 0 0 0 19 30.295v16.479h.01A14.5 14.5 0 0 0 33.5 61a14.5 14.5 0 0 0 14.486-14.227H48v-16.48A3.287 3.287 0 0 0 44.705 27z"
     filter="url(#c)"
     opacity=".2"
     transform="translate(8.828 8.466)scale(.72414)"
     id="path17" />
  <path
     fill="url(#d)"
     d="m 46.027,15.708 a 4.707,4.707 0 1 0 0.191,9.412 4.707,4.707 0 0 0 -0.191,-9.412 m -5.31,11.586 a 1.47,1.47 0 0 0 -1.473,1.475 v 0.492 c 5.629,1.012 0,5.841 0,8.762 v 0.848 h 0.01 a 6.88,6.88 0 0 0 13.738,0 h 0.01 V 28.769 c 0,-0.817 -0.658,-1.475 -1.475,-1.475 z"
     id="path18"
     style="display:inline" />
  <path
     fill="url(#e)"
     d="M33.088 11.362a6.88 6.88 0 0 0-6.88 6.881 6.88 6.88 0 0 0 6.88 6.88 6.88 6.88 0 0 0 6.88-6.88 6.88 6.88 0 0 0-6.88-6.881m-8.114 15.933a2.38 2.38 0 0 0-2.386 2.387v11.932h.004a10.5 10.5 0 0 0 10.496 10.303 10.5 10.5 0 0 0 10.498-10.303h.002V29.682a2.38 2.38 0 0 0-2.387-2.387H24.973z"
     id="path19" />
  <rect
     width="29"
     height="29"
     x="3"
     y="19"
     filter="url(#f)"
     opacity="0.25"
     rx="1.977"
     ry="1.977"
     transform="matrix(0.72414,0,0,0.72414,8.828,8.866)"
     id="rect19"
     style="display:inline" />
  <rect
     width="21"
     height="21"
     x="11"
     y="21.5"
     fill="url(#g)"
     rx="1.432"
     ry="1.432"
     id="rect20" />
  <path
     d="m 10,25 v 5 h 5 v 13 h 5 V 30 h 5 v -5 z"
     filter="url(#h)"
     opacity="0.2"
     transform="matrix(0.72414,0,0,0.72414,8.828,8.466)"
     id="path20"
     style="display:none" />
  <path
     fill="#ffffff"
     d="M16.069 25.847v3.62h3.621v9.414h3.621v-9.415h3.622v-3.619H16.07z"
     id="path21" />
  <rect
     x="4.1788077"
     y="3.8649004"
     width="56.002365"
     height="56.002365"
     rx="13.001831"
     ry="13.001831"
     fill="url(#a)"
     id="rect63"
     style="display:inline;opacity:0.510917;fill:url(#a-0);stroke-width:3.7796"
     inkscape:label="out2" />
  <g
     filter="url(#c)"
     opacity=".35"
     id="g12"
     style="display:inline;opacity:0.943228;filter:url(#c-3)"
     transform="matrix(3.7943683,0,0,3.7845244,-0.16175405,-0.46699464)"
     inkscape:label="out">
    <path
       fill="url(#d)"
       d="m 5.36,1.058 c -1.53,0 -2.577,0.457 -3.26,1.2 -0.678,0.74 -1.042,1.8 -1.042,3.001 v 6.415 c 0,1.2 0.364,2.26 1.043,3 0.682,0.744 1.73,1.2 3.26,1.2 h 6.23 c 1.53,0 2.577,-0.456 3.26,-1.2 0.678,-0.739 1.024,-1.702 1.024,-3 V 5.5 c 0,-1.57 -0.346,-2.502 -1.024,-3.242 -0.683,-0.743 -1.73,-1.2 -3.26,-1.2 H 6.745 Z m 0,0.264 h 6.232 c 1.477,0 2.437,0.432 3.064,1.116 0.634,0.69 0.954,1.53 0.954,3.062 v 6.174 c 0,1.251 -0.322,2.134 -0.954,2.822 -0.627,0.684 -1.587,1.114 -3.064,1.114 H 5.359 C 3.882,15.61 2.922,15.18 2.295,14.496 1.67,13.814 1.322,12.821 1.322,11.674 V 5.26 C 1.322,4.112 1.67,3.12 2.295,2.438 2.922,1.754 3.882,1.322 5.359,1.322"
       id="path11-6"
       style="fill:url(#d-7)"
       inkscape:label="outtt" />
    <path
       fill="url(#e)"
       d="m 5.36,1.058 c -1.53,0 -2.577,0.457 -3.26,1.2 -0.678,0.74 -1.042,1.8 -1.042,3.001 v 6.415 c 0,1.2 0.364,2.26 1.043,3 0.682,0.744 1.73,1.2 3.26,1.2 h 6.23 c 1.53,0 2.577,-0.456 3.26,-1.2 0.678,-0.739 1.024,-1.702 1.024,-3 V 5.5 c 0,-1.57 -0.346,-2.502 -1.024,-3.242 -0.683,-0.743 -1.73,-1.2 -3.26,-1.2 H 6.745 Z m 0,0.264 h 6.232 c 1.477,0 2.437,0.432 3.064,1.116 0.634,0.69 0.954,1.53 0.954,3.062 v 6.174 c 0,1.251 -0.322,2.134 -0.954,2.822 -0.627,0.684 -1.587,1.114 -3.064,1.114 H 5.359 C 3.882,15.61 2.922,15.18 2.295,14.496 1.67,13.814 1.322,12.821 1.322,11.674 V 5.26 C 1.322,4.112 1.67,3.12 2.295,2.438 2.922,1.754 3.882,1.322 5.359,1.322"
       id="path12-2"
       style="fill:url(#e-5)"
       inkscape:label="outt" />
  </g>
</svg>
