<?xml version="1.0" encoding="UTF-8" standalone="no"?>
<svg
   width="64"
   height="64"
   viewBox="0 0 16.933 16.933"
   version="1.1"
   id="svg17"
   sodipodi:docname="terminal.svg"
   inkscape:version="1.4.2 (ebf0e940d0, 2025-05-08)"
   xmlns:inkscape="http://www.inkscape.org/namespaces/inkscape"
   xmlns:sodipodi="http://sodipodi.sourceforge.net/DTD/sodipodi-0.dtd"
   xmlns:xlink="http://www.w3.org/1999/xlink"
   xmlns="http://www.w3.org/2000/svg"
   xmlns:svg="http://www.w3.org/2000/svg">
  <sodipodi:namedview
     id="namedview17"
     pagecolor="#ffffff"
     bordercolor="#000000"
     borderopacity="0.25"
     inkscape:showpageshadow="2"
     inkscape:pageopacity="0.0"
     inkscape:pagecheckerboard="0"
     inkscape:deskcolor="#d1d1d1"
     inkscape:zoom="13.390625"
     inkscape:cx="32.186698"
     inkscape:cy="31.925321"
     inkscape:window-width="1920"
     inkscape:window-height="1047"
     inkscape:window-x="0"
     inkscape:window-y="0"
     inkscape:window-maximized="1"
     inkscape:current-layer="svg17" />
  <defs
     id="defs10">
    <linearGradient
       xlink:href="#a"
       id="d"
       x1="2.598"
       x2="10.583"
       y1="2.836"
       y2="11.312"
       gradientUnits="userSpaceOnUse" />
    <linearGradient
       id="a">
      <stop
         offset="0"
         stop-color="#ffffff"
         id="stop1" />
      <stop
         offset="1"
         stop-color="#ffffff"
         stop-opacity="0"
         id="stop2" />
    </linearGradient>
    <linearGradient
       xlink:href="#a"
       id="e"
       x1="15.081"
       x2="12.7"
       y1="14.816"
       y2="12.171"
       gradientUnits="userSpaceOnUse" />
    <linearGradient
       id="b"
       x1="8.466"
       x2="8.466"
       y1="1.058"
       y2="15.875"
       gradientUnits="userSpaceOnUse">
      <stop
         offset="0"
         stop-color="#a66a4a"
         id="stop3" />
      <stop
         offset="1"
         stop-color="#7d5038"
         id="stop4" />
    </linearGradient>
    <linearGradient
       id="g"
       x1="8.547"
       x2="8.547"
       y1="8.202"
       y2="8.731"
       gradientUnits="userSpaceOnUse">
      <stop
         offset="0"
         stop-color="#ffffff"
         id="stop5" />
      <stop
         offset="1"
         stop-color="#ffffff"
         stop-opacity="0"
         id="stop6" />
    </linearGradient>
    <linearGradient
       id="f"
       x1="5.207"
       x2="5.207"
       y1="4.109"
       y2="7.552"
       gradientUnits="userSpaceOnUse">
      <stop
         offset="0"
         stop-color="#ffffff"
         id="stop7" />
      <stop
         offset="1"
         stop-color="#ffffff"
         id="stop8" />
    </linearGradient>
    <filter
       id="c"
       width="1.0239725"
       height="1.0239741"
       x="-0.011986232"
       y="-0.011987041"
       color-interpolation-filters="sRGB">
      <feGaussianBlur
         stdDeviation=".074"
         id="feGaussianBlur8" />
    </filter>
    <filter
       id="h"
       width="1.055937"
       height="1.3357258"
       x="-0.027968504"
       y="-0.16786288"
       color-interpolation-filters="sRGB">
      <feGaussianBlur
         stdDeviation=".037"
         id="feGaussianBlur9" />
    </filter>
    <filter
       id="i"
       width="1.1025792"
       height="1.0914191"
       x="-0.051289608"
       y="-0.045709564"
       color-interpolation-filters="sRGB">
      <feGaussianBlur
         stdDeviation=".058"
         id="feGaussianBlur10" />
    </filter>
    <linearGradient
       id="a-7"
       x1="7.9369998"
       x2="7.9369998"
       y1="15.081"
       y2="1.852"
       gradientUnits="userSpaceOnUse"
       gradientTransform="translate(3.125e-4,0.0083125)">
      <stop
         stop-color="#ffffff"
         offset="0"
         id="stop62"
         style="stop-color:#666666;stop-opacity:1;" />
      <stop
         stop-color="#ffffff"
         offset="1"
         id="stop63" />
    </linearGradient>
  </defs>
  <path
     fill="url(#b)"
     d="m 5.36,1.058 c -1.53,0 -2.577,0.457 -3.26,1.2 -0.678,0.74 -1.042,1.8 -1.042,3 v 6.416 c 0,1.2 0.364,2.261 1.043,3 0.682,0.744 1.73,1.2 3.26,1.2 h 6.23 c 1.53,0 2.578,-0.456 3.26,-1.2 0.679,-0.739 1.024,-1.702 1.024,-3 V 5.5 c 0,-1.57 -0.345,-2.502 -1.024,-3.242 -0.682,-0.743 -1.73,-1.2 -3.26,-1.2 H 6.745 Z"
     id="path10"
     style="display:inline;opacity:0.34968017" />
  <rect
     x="1.0583124"
     y="1.0583124"
     width="14.817"
     height="14.817"
     rx="3.4400001"
     ry="3.4400001"
     fill="url(#a)"
     id="rect63"
     style="display:inline;opacity:0.34968017;fill:url(#a-7)" />
  <g
     filter="url(#c)"
     opacity=".35"
     id="g12"
     style="opacity:0.30015314">
    <path
       fill="url(#d)"
       d="M5.36 1.058c-1.53 0-2.577.457-3.26 1.2-.678.74-1.042 1.8-1.042 3.001v6.415c0 1.2.364 2.26 1.043 3 .682.744 1.73 1.2 3.26 1.2h6.23c1.53 0 2.577-.456 3.26-1.2.678-.739 1.024-1.702 1.024-3V5.5c0-1.57-.346-2.502-1.024-3.242-.683-.743-1.73-1.2-3.26-1.2H6.745zm0 .264h6.232c1.477 0 2.437.432 3.064 1.116.634.69.954 1.53.954 3.062v6.174c0 1.251-.322 2.134-.954 2.822-.627.684-1.587 1.114-3.064 1.114H5.359c-1.477 0-2.437-.43-3.064-1.114-.625-.682-.973-1.675-.973-2.822V5.26c0-1.148.348-2.14.973-2.822.627-.684 1.587-1.116 3.064-1.116"
       id="path11" />
    <path
       fill="url(#e)"
       d="M5.36 1.058c-1.53 0-2.577.457-3.26 1.2-.678.74-1.042 1.8-1.042 3.001v6.415c0 1.2.364 2.26 1.043 3 .682.744 1.73 1.2 3.26 1.2h6.23c1.53 0 2.577-.456 3.26-1.2.678-.739 1.024-1.702 1.024-3V5.5c0-1.57-.346-2.502-1.024-3.242-.683-.743-1.73-1.2-3.26-1.2H6.745zm0 .264h6.232c1.477 0 2.437.432 3.064 1.116.634.69.954 1.53.954 3.062v6.174c0 1.251-.322 2.134-.954 2.822-.627.684-1.587 1.114-3.064 1.114H5.359c-1.477 0-2.437-.43-3.064-1.114-.625-.682-.973-1.675-.973-2.822V5.26c0-1.148.348-2.14.973-2.822.627-.684 1.587-1.116 3.064-1.116"
       id="path12" />
  </g>
  <path
     fill="url(#f)"
     d="M 3.95,4.109 A 0.106,0.106 0 0 0 3.85,4.213 V 4.66 A 0.11,0.11 0 0 0 3.906,4.754 L 5.924,5.832 3.906,6.91 A 0.11,0.11 0 0 0 3.85,7.004 V 7.447 A 0.106,0.106 0 0 0 4.006,7.539 L 6.51,6.168 A 0.11,0.11 0 0 0 6.564,6.076 V 5.582 A 0.11,0.11 0 0 0 6.51,5.488 L 4.006,4.121 A 0.1,0.1 0 0 0 3.95,4.109"
     style="display:inline;paint-order:stroke markers fill"
     id="path13" />
  <path
     fill="#cca48e"
     d="M7.116 8.202h2.861c.087 0 .157.07.157.157v.215c0 .087-.07.157-.157.157H7.116a.156.156 0 0 1-.157-.157V8.36c0-.087.07-.157.157-.157"
     id="path14" />
  <path
     fill="url(#g)"
     d="M7.116 8.202a.156.156 0 0 0-.157.156v.216c0 .087.07.157.157.157h2.861c.087 0 .157-.07.157-.157v-.216a.157.157 0 0 0-.157-.156zm-.007.132h2.867q.025.001.026.026v.214q-.001.025-.026.026h-2.86q-.025-.001-.024-.026V8.36q0-.022.017-.026"
     filter="url(#h)"
     opacity=".5"
     id="path15" />
  <path
     fill="#ffffff"
     d="M3.95 4.109a.106.106 0 0 0-.1.104v.447a.11.11 0 0 0 .056.094l2.018 1.078L3.906 6.91a.11.11 0 0 0-.056.094v.443a.106.106 0 0 0 .156.092L6.51 6.168a.11.11 0 0 0 .054-.092v-.494a.11.11 0 0 0-.054-.094L4.006 4.121a.1.1 0 0 0-.056-.012m-.007.127.003.002h-.003zm.04.022 2.449 1.34v.462l-2.45 1.342V7.02l2.004-1.07a.132.132 0 0 0 0-.235l-2.003-1.07z"
     opacity=".35"
     id="path16" />
  <path
     fill="#ffffff"
     d="m 3.95,4.109 a 0.106,0.106 0 0 0 -0.1,0.104 v 0.15 A 0.106,0.106 0 0 1 3.95,4.259 0.1,0.1 0 0 1 4.006,4.271 L 6.51,5.64 A 0.11,0.11 0 0 1 6.564,5.732 V 5.582 A 0.11,0.11 0 0 0 6.51,5.489 L 4.006,4.121 A 0.1,0.1 0 0 0 3.95,4.109 M 5.783,5.907 3.907,6.91 A 0.11,0.11 0 0 0 3.851,7.004 v 0.15 A 0.11,0.11 0 0 1 3.907,7.06 L 5.925,5.982 Z"
     filter="url(#i)"
     style="display:inline;paint-order:stroke markers fill"
     id="path17" />
</svg>
