<?xml version="1.0" encoding="UTF-8" standalone="no"?>
<svg
   width="64"
   height="64"
   viewBox="0 0 16.933 16.933"
   version="1.1"
   id="svg11"
   sodipodi:docname="text-editor.svg"
   inkscape:version="1.4.2 (ebf0e940d0, 2025-05-08)"
   xmlns:inkscape="http://www.inkscape.org/namespaces/inkscape"
   xmlns:sodipodi="http://sodipodi.sourceforge.net/DTD/sodipodi-0.dtd"
   xmlns:xlink="http://www.w3.org/1999/xlink"
   xmlns="http://www.w3.org/2000/svg"
   xmlns:svg="http://www.w3.org/2000/svg">
  <sodipodi:namedview
     id="namedview11"
     pagecolor="#ffffff"
     bordercolor="#000000"
     borderopacity="0.25"
     inkscape:showpageshadow="2"
     inkscape:pageopacity="0.0"
     inkscape:pagecheckerboard="0"
     inkscape:deskcolor="#d1d1d1"
     inkscape:zoom="13.40625"
     inkscape:cx="27.710956"
     inkscape:cy="38.675991"
     inkscape:window-width="1920"
     inkscape:window-height="1047"
     inkscape:window-x="0"
     inkscape:window-y="0"
     inkscape:window-maximized="1"
     inkscape:current-layer="svg11" />
  <defs
     id="defs7">
    <linearGradient
       id="a">
      <stop
         offset="0"
         stop-color="#dbbfaf"
         id="stop1" />
      <stop
         offset="1"
         stop-color="#ebdcd3"
         id="stop2" />
    </linearGradient>
    <linearGradient
       id="b"
       x1="8.466"
       x2="8.466"
       y1="1.058"
       y2="15.875"
       gradientUnits="userSpaceOnUse"
       gradientTransform="matrix(1,0,0,-0.97527464,-0.05920629,16.69406)">
      <stop
         offset="0"
         stop-color="#ffffff"
         id="stop3"
         style="stop-color:#666666;stop-opacity:1;" />
      <stop
         offset="1"
         stop-color="#ffffff"
         id="stop4" />
    </linearGradient>
    <linearGradient
       xlink:href="#a"
       id="f"
       x1="8.456"
       x2="8.456"
       y1="3.667"
       y2="9.488"
       gradientUnits="userSpaceOnUse" />
    <linearGradient
       xlink:href="#a"
       id="c"
       x1="8.456"
       x2="8.456"
       y1="3.667"
       y2="9.488"
       gradientTransform="translate(.21 .21)"
       gradientUnits="userSpaceOnUse" />
    <filter
       id="e"
       width="1.0239725"
       height="1.0239741"
       x="-0.011986232"
       y="-0.011987041"
       color-interpolation-filters="sRGB">
      <feGaussianBlur
         stdDeviation=".074"
         id="feGaussianBlur4" />
    </filter>
    <filter
       id="g"
       width="1.3007922"
       height="1.026669"
       x="-0.15039599"
       y="-0.013334512"
       color-interpolation-filters="sRGB">
      <feGaussianBlur
         stdDeviation=".015"
         id="feGaussianBlur5" />
    </filter>
    <filter
       id="h"
       width="1.5461269"
       height="1.0279731"
       x="-0.27306345"
       y="-0.013986534"
       color-interpolation-filters="sRGB">
      <feGaussianBlur
         stdDeviation=".033"
         id="feGaussianBlur6" />
    </filter>
    <filter
       id="d"
       width="2.4450832"
       height="1.1640955"
       x="-0.72254159"
       y="-0.082047757"
       color-interpolation-filters="sRGB">
      <feGaussianBlur
         stdDeviation=".199"
         id="feGaussianBlur7" />
    </filter>
    <filter
       id="c-6"
       width="1.0239725"
       height="1.0239741"
       x="-0.011986232"
       y="-0.011987041"
       color-interpolation-filters="sRGB">
      <feGaussianBlur
         stdDeviation=".074"
         id="feGaussianBlur8" />
    </filter>
    <linearGradient
       xlink:href="#a-6"
       id="d-3"
       x1="2.598"
       x2="10.583"
       y1="2.836"
       y2="11.312"
       gradientUnits="userSpaceOnUse" />
    <linearGradient
       id="a-6">
      <stop
         offset="0"
         stop-color="#ffffff"
         id="stop1-2" />
      <stop
         offset="1"
         stop-color="#ffffff"
         stop-opacity="0"
         id="stop2-9" />
    </linearGradient>
    <linearGradient
       xlink:href="#a-6"
       id="e-6"
       x1="15.081"
       x2="12.7"
       y1="14.816"
       y2="12.171"
       gradientUnits="userSpaceOnUse"
       gradientTransform="matrix(1,0,0,0.90965693,-6.8734294,3.4025219)" />
    <filter
       id="c-6-6"
       width="1.0239725"
       height="1.0239741"
       x="-0.011986232"
       y="-0.011987041"
       color-interpolation-filters="sRGB">
      <feGaussianBlur
         stdDeviation=".074"
         id="feGaussianBlur8-1" />
    </filter>
    <linearGradient
       xlink:href="#a-6"
       id="d-8"
       x1="2.598"
       x2="10.583"
       y1="2.836"
       y2="11.312"
       gradientUnits="userSpaceOnUse" />
    <linearGradient
       xlink:href="#a-6"
       id="e-2"
       x1="15.081"
       x2="12.7"
       y1="14.816"
       y2="12.171"
       gradientUnits="userSpaceOnUse" />
  </defs>
  <path
     fill="url(#b)"
     d="m 5.3007937,15.662219 c -1.53,0 -2.577,-0.4457 -3.26,-1.17033 -0.678,-0.721703 -1.04199999,-1.755494 -1.04199999,-2.925824 V 5.3087034 c 0,-1.1703296 0.36399999,-2.2050955 1.04199999,-2.9267987 0.683,-0.7256049 1.73,-1.1703297 3.26,-1.1703297 h 6.2300003 c 1.53,0 2.579,0.4447248 3.26,1.1703297 0.68,0.7217032 1.025,1.6608925 1.025,2.9258234 v 6.0223209 c 0,1.531181 -0.345,2.440137 -1.024,3.16184 -0.682,0.72463 -1.73,1.17033 -3.26,1.17033 H 6.6857937 Z"
     id="path7"
     style="display:inline;opacity:0.5;fill:url(#b);stroke-width:0.98756" />
  <rect
     width="0.66100001"
     height="5.8210001"
     x="8.3339996"
     y="3.878"
     fill="url(#c)"
     filter="url(#d)"
     opacity="0.35"
     rx="0.331"
     ry="0.331"
     style="display:inline;paint-order:fill markers stroke"
     id="rect7" />
  <path
     fill="#ffffff"
     d="m 5.36,1.058 c -1.53,0 -2.577,0.457 -3.26,1.2 -0.678,0.74 -1.042,1.8 -1.042,3.001 v 6.415 c 0,1.2 0.364,2.26 1.043,3 0.682,0.744 1.73,1.2 3.26,1.2 h 6.23 c 1.53,0 2.577,-0.456 3.26,-1.2 0.678,-0.739 1.024,-1.702 1.024,-3 V 5.5 c 0,-1.57 -0.346,-2.502 -1.024,-3.242 -0.683,-0.743 -1.73,-1.2 -3.26,-1.2 H 6.745 Z m 0,0.264 h 6.232 c 1.477,0 2.437,0.432 3.064,1.116 0.634,0.69 0.954,1.53 0.954,3.062 v 6.174 c 0,1.251 -0.322,2.134 -0.954,2.822 -0.627,0.684 -1.587,1.114 -3.064,1.114 H 5.359 C 3.882,15.61 2.922,15.18 2.295,14.496 1.67,13.814 1.322,12.821 1.322,11.674 V 5.26 C 1.322,4.112 1.67,3.12 2.295,2.438 2.922,1.754 3.882,1.322 5.359,1.322"
     filter="url(#e)"
     id="path8"
     style="display:none" />
  <path
     d="m 4.192,4.367 a 0.13,0.13 0 0 0 -0.13,0.13 v 0.268 c 0,0.073 0.058,0.13 0.13,0.13 H 5.384 V 8.6 c 0,0.072 0.059,0.131 0.132,0.131 H 5.914 A 0.13,0.13 0 0 0 6.045,8.6 V 4.896 H 7.238 A 0.13,0.13 0 0 0 7.368,4.765 V 4.498 A 0.13,0.13 0 0 0 7.238,4.367 Z"
     style="display:inline;paint-order:fill markers stroke"
     id="path9" />
  <rect
     width="0.66100001"
     height="5.8210001"
     x="8.125"
     y="3.6670001"
     fill="url(#f)"
     rx="0.331"
     ry="0.331"
     style="display:inline;paint-order:fill markers stroke"
     id="rect9" />
  <path
     fill="none"
     stroke="#ffffff"
     stroke-linecap="round"
     stroke-linejoin="round"
     stroke-width="0.079"
     d="m 8.455,3.746 c -0.14,0 -0.25,0.112 -0.25,0.252 v 5.158 c 0,0.141 0.11,0.252 0.25,0.252 0.14,0 0.252,-0.111 0.252,-0.252 V 3.998 A 0.25,0.25 0 0 0 8.455,3.746"
     filter="url(#g)"
     opacity="0.15"
     style="display:inline;mix-blend-mode:overlay;paint-order:fill markers stroke"
     id="path10" />
  <path
     fill="#ffffff"
     d="m 8.455,3.746 c -0.14,0 -0.25,0.112 -0.25,0.252 V 9.156 A 0.248,0.248 0 0 0 8.495,9.405 0.25,0.25 0 0 1 8.285,9.156 V 3.998 c 0,-0.127 0.089,-0.23 0.21,-0.249 z"
     filter="url(#h)"
     opacity="0.5"
     style="display:inline;mix-blend-mode:overlay;paint-order:fill markers stroke"
     id="path11" />
  <g
     color="#633f2c"
     id="g6"
     transform="matrix(0.26128874,0,0,0.24515999,-0.224912,0.62117652)"
     style="display:inline;opacity:0.475544">
    <path
       d="m 4.37,0.53 c -2.116,0 -3.84,1.782 -3.84,3.966 v 8.468 c 0,2.184 1.725,3.968 3.84,3.968 h 8.194 c 2.114,0 3.84,-1.783 3.84,-3.968 V 4.497 c 0,-2.184 -1.726,-3.968 -3.84,-3.968 z m 0.256,0.52 h 7.681 c 1.844,0 3.33,1.534 3.33,3.44 v 7.937 c 0,1.906 -1.485,3.44 -3.33,3.44 h -7.68 c -1.845,0 -3.33,-1.534 -3.33,-3.44 V 4.49 c 0,-1.906 1.485,-3.44 3.33,-3.44 z"
       opacity="0.01"
       style="font-variant-ligatures:normal;font-variant-position:normal;font-variant-caps:normal;font-variant-numeric:normal;font-variant-alternates:normal;font-variant-east-asian:normal;font-feature-settings:normal;font-variation-settings:normal;text-indent:0;text-decoration-line:none;text-decoration-style:solid;text-decoration-color:#633f2c;text-transform:none;text-orientation:mixed;white-space:normal;shape-padding:0;shape-margin:0;inline-size:0;isolation:auto;mix-blend-mode:normal"
       transform="scale(3.7796)"
       id="path2" />
    <path
       d="m 4.359,0.794 c -1.967,0 -3.564,1.653 -3.564,3.686 v 8.5 c 0,2.035 1.597,3.688 3.564,3.688 h 8.216 c 1.967,0 3.564,-1.653 3.564,-3.688 v -8.5 c 0,-2.034 -1.597,-3.687 -3.564,-3.687 z M 4.631,1.05 h 7.672 c 1.842,0 3.325,1.534 3.325,3.44 v 7.937 c 0,1.906 -1.483,3.44 -3.325,3.44 H 4.63 c -1.842,0 -3.325,-1.534 -3.325,-3.44 V 4.49 c 0,-1.906 1.483,-3.44 3.325,-3.44 z"
       opacity="0.01"
       style="font-variant-ligatures:normal;font-variant-position:normal;font-variant-caps:normal;font-variant-numeric:normal;font-variant-alternates:normal;font-variant-east-asian:normal;font-feature-settings:normal;font-variation-settings:normal;text-indent:0;text-decoration-line:none;text-decoration-style:solid;text-decoration-color:#633f2c;text-transform:none;text-orientation:mixed;white-space:normal;shape-padding:0;shape-margin:0;inline-size:0;isolation:auto;mix-blend-mode:normal"
       id="path3"
       transform="scale(3.7796)" />
    <path
       d="m 4.31,1.058 c -1.866,0 -3.375,1.539 -3.375,3.44 v 8.467 c 0,1.9 1.57,3.439 3.435,3.439 h 8.2 c 1.866,0 3.427,-1.538 3.427,-3.44 V 4.498 c 0,-1.9 -1.51,-3.439 -3.375,-3.439 h -0.097 c 1.794,0.087 3.214,1.582 3.214,3.432 v 7.937 c 0,1.906 -1.506,3.44 -3.377,3.44 h -7.79 c -1.871,0 -3.377,-1.534 -3.377,-3.44 V 4.49 c 0,-1.85 1.42,-3.345 3.214,-3.432 z"
       opacity="0.03"
       style="font-variant-ligatures:normal;font-variant-position:normal;font-variant-caps:normal;font-variant-numeric:normal;font-variant-alternates:normal;font-variant-east-asian:normal;font-feature-settings:normal;font-variation-settings:normal;text-indent:0;text-decoration-line:none;text-decoration-style:solid;text-decoration-color:#633f2c;text-transform:none;text-orientation:mixed;white-space:normal;shape-padding:0;shape-margin:0;inline-size:0;isolation:auto;mix-blend-mode:normal"
       transform="scale(3.7796)"
       id="path4" />
    <path
       d="M 4,46.969 V 49 c 0,6.648 5.896,12 12.544,12 H 47.505 C 54.153,61 60,55.648 60,49 V 47.008 A 12.97,12.97 0 0 1 47,59.971 H 17.002 A 12.973,12.973 0 0 1 4,46.969"
       opacity="0.03"
       style="font-variant-ligatures:normal;font-variant-position:normal;font-variant-caps:normal;font-variant-numeric:normal;font-variant-alternates:normal;font-variant-east-asian:normal;font-feature-settings:normal;font-variation-settings:normal;text-indent:0;text-decoration-line:none;text-decoration-style:solid;text-decoration-color:#633f2c;text-transform:none;text-orientation:mixed;white-space:normal;shape-padding:0;shape-margin:0;inline-size:0;isolation:auto;mix-blend-mode:normal"
       id="path5" />
    <path
       d="m 1.058,11.906 v 0.592 c 0,1.939 1.573,3.5 3.332,3.5 h 8.16 c 1.76,0 3.325,-1.561 3.325,-3.5 v -0.58 c -0.006,2.095 -1.537,3.78 -3.44,3.78 H 4.498 c -1.905,0 -3.44,-1.692 -3.44,-3.792"
       opacity="0.05"
       style="font-variant-ligatures:normal;font-variant-position:normal;font-variant-caps:normal;font-variant-numeric:normal;font-variant-alternates:normal;font-variant-east-asian:normal;font-feature-settings:normal;font-variation-settings:normal;text-indent:0;text-decoration-line:none;text-decoration-style:solid;text-decoration-color:#633f2c;text-transform:none;text-orientation:mixed;white-space:normal;shape-padding:0;shape-margin:0;inline-size:0;isolation:auto;mix-blend-mode:normal"
       transform="scale(3.7796)"
       id="path6"
       inkscape:label="path6" />
  </g>
  <g
     filter="url(#c)"
     opacity=".35"
     id="g12"
     style="display:inline;opacity:0.80064;filter:url(#c-6-6)"
     transform="matrix(0.99740764,0,0,0.97138433,-0.05971398,0.20680616)">
    <path
       fill="url(#d)"
       d="m 5.36,1.058 c -1.53,0 -2.577,0.457 -3.26,1.2 -0.678,0.74 -1.042,1.8 -1.042,3.001 v 6.415 c 0,1.2 0.364,2.26 1.043,3 0.682,0.744 1.73,1.2 3.26,1.2 h 6.23 c 1.53,0 2.577,-0.456 3.26,-1.2 0.678,-0.739 1.024,-1.702 1.024,-3 V 5.5 c 0,-1.57 -0.346,-2.502 -1.024,-3.242 -0.683,-0.743 -1.73,-1.2 -3.26,-1.2 H 6.745 Z m 0,0.264 h 6.232 c 1.477,0 2.437,0.432 3.064,1.116 0.634,0.69 0.954,1.53 0.954,3.062 v 6.174 c 0,1.251 -0.322,2.134 -0.954,2.822 -0.627,0.684 -1.587,1.114 -3.064,1.114 H 5.359 C 3.882,15.61 2.922,15.18 2.295,14.496 1.67,13.814 1.322,12.821 1.322,11.674 V 5.26 C 1.322,4.112 1.67,3.12 2.295,2.438 2.922,1.754 3.882,1.322 5.359,1.322"
       id="path11-3"
       style="fill:url(#d-8)" />
    <path
       fill="url(#e)"
       d="m 5.36,1.058 c -1.53,0 -2.577,0.457 -3.26,1.2 -0.678,0.74 -1.042,1.8 -1.042,3.001 v 6.415 c 0,1.2 0.364,2.26 1.043,3 0.682,0.744 1.73,1.2 3.26,1.2 h 6.23 c 1.53,0 2.577,-0.456 3.26,-1.2 0.678,-0.739 1.024,-1.702 1.024,-3 V 5.5 c 0,-1.57 -0.346,-2.502 -1.024,-3.242 -0.683,-0.743 -1.73,-1.2 -3.26,-1.2 H 6.745 Z m 0,0.264 h 6.232 c 1.477,0 2.437,0.432 3.064,1.116 0.634,0.69 0.954,1.53 0.954,3.062 v 6.174 c 0,1.251 -0.322,2.134 -0.954,2.822 -0.627,0.684 -1.587,1.114 -3.064,1.114 H 5.359 C 3.882,15.61 2.922,15.18 2.295,14.496 1.67,13.814 1.322,12.821 1.322,11.674 V 5.26 C 1.322,4.112 1.67,3.12 2.295,2.438 2.922,1.754 3.882,1.322 5.359,1.322"
       id="path12"
       style="fill:url(#e-2)" />
  </g>
</svg>
