<?xml version="1.0" encoding="UTF-8" standalone="no"?>
<svg
   width="64"
   height="64"
   viewBox="0 0 16.933 16.933"
   version="1.1"
   id="svg22"
   sodipodi:docname="utilities-system-monitor.svg"
   inkscape:version="1.4.2 (ebf0e940d0, 2025-05-08)"
   xmlns:inkscape="http://www.inkscape.org/namespaces/inkscape"
   xmlns:sodipodi="http://sodipodi.sourceforge.net/DTD/sodipodi-0.dtd"
   xmlns:xlink="http://www.w3.org/1999/xlink"
   xmlns="http://www.w3.org/2000/svg"
   xmlns:svg="http://www.w3.org/2000/svg">
  <sodipodi:namedview
     id="namedview22"
     pagecolor="#ffffff"
     bordercolor="#000000"
     borderopacity="0.25"
     inkscape:showpageshadow="2"
     inkscape:pageopacity="0.0"
     inkscape:pagecheckerboard="0"
     inkscape:deskcolor="#d1d1d1"
     inkscape:zoom="13.390625"
     inkscape:cx="32.186698"
     inkscape:cy="31.925321"
     inkscape:window-width="1920"
     inkscape:window-height="1047"
     inkscape:window-x="0"
     inkscape:window-y="0"
     inkscape:window-maximized="1"
     inkscape:current-layer="svg22" />
  <defs
     id="defs13">
    <linearGradient
       xlink:href="#a"
       id="f"
       x1="2.598"
       x2="10.583"
       y1="2.836"
       y2="11.312"
       gradientUnits="userSpaceOnUse" />
    <linearGradient
       id="a">
      <stop
         offset="0"
         stop-color="#ffffff"
         id="stop1" />
      <stop
         offset="1"
         stop-color="#ffffff"
         stop-opacity="0"
         id="stop2" />
    </linearGradient>
    <linearGradient
       xlink:href="#a"
       id="g"
       x1="15.081"
       x2="12.7"
       y1="14.816"
       y2="12.171"
       gradientUnits="userSpaceOnUse" />
    <linearGradient
       id="b"
       x1="8.466"
       x2="8.466"
       y1="1.058"
       y2="15.875"
       gradientUnits="userSpaceOnUse">
      <stop
         offset="0"
         stop-color="#9d6446"
         id="stop3" />
      <stop
         offset="1"
         stop-color="#7b4f37"
         id="stop4" />
    </linearGradient>
    <linearGradient
       id="h"
       x1="14.219"
       x2="13.19"
       y1="10.042"
       y2="9.968"
       gradientUnits="userSpaceOnUse">
      <stop
         offset="0"
         stop-color="#ffffff"
         id="stop5" />
      <stop
         offset="1"
         stop-color="#e2cabd"
         id="stop6" />
    </linearGradient>
    <linearGradient
       id="i"
       x1="13.524"
       x2="13.507"
       y1="9.771"
       y2="10.222"
       gradientTransform="translate(4.487 3.235)scale(.67645)"
       gradientUnits="userSpaceOnUse">
      <stop
         offset="0"
         stop-color="#ffffff"
         id="stop7" />
      <stop
         offset="1"
         stop-color="#ffffff"
         id="stop8" />
    </linearGradient>
    <linearGradient
       id="j"
       x1="13.304"
       x2="13.668"
       y1="10.006"
       y2="10.035"
       gradientUnits="userSpaceOnUse">
      <stop
         offset="0"
         stop-color="#faf6f4"
         id="stop9" />
      <stop
         offset="1"
         stop-color="#faf6f4"
         stop-opacity="0"
         id="stop10" />
    </linearGradient>
    <linearGradient
       id="c"
       x1="7.399"
       x2="7.399"
       y1="3.059"
       y2="13.262"
       gradientUnits="userSpaceOnUse">
      <stop
         offset="0"
         stop-color="#dbbdae"
         id="stop11" />
      <stop
         offset="1"
         stop-color="#e3ccc0"
         id="stop12" />
    </linearGradient>
    <filter
       id="e"
       width="1.0239725"
       height="1.0239741"
       x="-0.011986232"
       y="-0.011987041"
       color-interpolation-filters="sRGB">
      <feGaussianBlur
         stdDeviation=".074"
         id="feGaussianBlur12" />
    </filter>
    <filter
       id="d"
       width="1.1334378"
       height="1.1712437"
       x="-0.066718919"
       y="-0.085621874"
       color-interpolation-filters="sRGB">
      <feGaussianBlur
         stdDeviation=".364"
         id="feGaussianBlur13" />
    </filter>
    <linearGradient
       id="a-0"
       x1="7.9369998"
       x2="7.9369998"
       y1="15.081"
       y2="1.852"
       gradientUnits="userSpaceOnUse"
       gradientTransform="translate(3.125e-4,0.0083125)">
      <stop
         stop-color="#ffffff"
         offset="0"
         id="stop62"
         style="stop-color:#676767;stop-opacity:1;" />
      <stop
         stop-color="#ffffff"
         offset="1"
         id="stop63" />
    </linearGradient>
  </defs>
  <path
     fill="url(#b)"
     d="m 5.36,1.058 c -1.53,0 -2.577,0.457 -3.26,1.2 -0.678,0.74 -1.042,1.8 -1.042,3 v 6.416 c 0,1.2 0.364,2.261 1.043,3 0.682,0.744 1.73,1.2 3.26,1.2 h 6.23 c 1.53,0 2.578,-0.456 3.26,-1.2 0.679,-0.739 1.024,-1.702 1.024,-3 V 5.5 c 0,-1.57 -0.345,-2.502 -1.024,-3.242 -0.682,-0.743 -1.73,-1.2 -3.26,-1.2 H 6.745 Z"
     id="path13"
     style="display:inline;opacity:0.5" />
  <path
     fill="#a16748"
     d="M 6.768,1.323 V 3.817 H 3.952 V 1.514 Q 3.815,1.552 3.687,1.598 V 3.817 H 1.561 A 4,4 0 0 0 1.483,4.081 H 3.687 V 6.898 H 1.323 V 7.163 H 3.687 V 9.979 H 1.323 v 0.265 H 3.687 V 13.06 H 1.543 q 0.042,0.135 0.093,0.265 h 2.051 v 2.01 q 0.129,0.046 0.265,0.084 V 13.325 H 6.768 V 15.61 H 7.033 V 13.325 H 9.85 v 2.285 h 0.265 v -2.285 h 2.817 v 2.113 q 0.136,-0.036 0.264,-0.08 v -2.033 h 2.124 q 0.05,-0.129 0.09,-0.265 h -2.214 v -2.816 h 2.415 V 9.979 H 13.196 V 7.163 h 2.415 V 6.898 H 13.196 V 4.081 h 2.262 A 4,4 0 0 0 15.386,3.817 h -2.19 V 1.574 A 4,4 0 0 0 12.932,1.495 V 3.817 H 10.115 V 1.323 H 9.85 V 3.817 H 7.033 V 1.323 Z M 3.952,4.08 H 6.768 V 6.897 H 3.952 Z m 3.081,0 H 9.849 V 6.897 H 7.033 Z m 3.08,0 h 2.818 V 6.897 H 10.114 Z M 3.953,7.163 H 6.769 V 9.979 H 3.952 Z m 3.081,0 H 9.85 V 9.979 H 7.033 Z m 3.08,0 h 2.818 v 2.816 h -2.817 z m -6.161,3.08 H 6.769 V 13.06 H 3.952 Z m 3.081,0 H 9.85 V 13.06 H 7.033 Z m 3.08,0 h 2.818 v 2.817 h -2.817 z"
     style="display:inline;opacity:0.35287846;paint-order:fill markers stroke"
     id="path14" />
  <path
     fill="url(#c)"
     d="M 3.736,3.059 A 0.26,0.26 0 0 0 3.553,3.137 0.3,0.3 0 0 0 3.484,3.247 c -0.03,0.07 -0.05,0.15 -0.07,0.25 -0.04,0.201 -0.077,0.478 -0.111,0.81 A 64,64 0 0 0 3.121,6.757 C 3.067,7.657 3.019,8.567 2.973,9.27 2.95,9.62 2.928,9.92 2.906,10.139 q -0.015,0.146 -0.03,0.236 C 2.849,10.353 2.844,10.352 2.806,10.317 2.64,10.162 2.39,9.914 2.016,9.805 1.601,9.684 1.35,9.517 1.203,9.387 A 1,1 0 0 1 1.058,9.237 v 0.545 c 0.192,0.143 0.466,0.293 0.846,0.404 0.263,0.076 0.463,0.263 0.633,0.421 0.086,0.08 0.154,0.154 0.274,0.204 0.06,0.024 0.148,0.04 0.23,0.007 a 0.34,0.34 0 0 0 0.168,-0.156 c 0.05,-0.088 0.044,-0.126 0.056,-0.2 C 3.277,10.388 3.29,10.291 3.301,10.177 3.324,9.951 3.346,9.65 3.369,9.297 3.415,8.59 3.463,7.679 3.518,6.781 3.57,5.912 3.627,5.069 3.691,4.424 c 0.013,0.142 0.025,0.23 0.037,0.394 0.072,0.916 0.15,2.137 0.229,3.358 0.079,1.22 0.158,2.44 0.236,3.361 0.04,0.46 0.08,0.846 0.118,1.123 q 0.027,0.207 0.058,0.336 c 0.01,0.043 0.022,0.08 0.04,0.12 0.008,0.02 0.018,0.04 0.04,0.066 a 0.2,0.2 0 0 0 0.135,0.08 L 4.685,13.25 4.723,13.233 4.75,13.213 c 0.03,-0.026 0.04,-0.045 0.049,-0.06 0.016,-0.03 0.021,-0.048 0.027,-0.067 Q 4.842,13.029 4.853,12.957 4.878,12.809 4.91,12.569 C 4.954,12.249 5.01,11.823 5.088,11.397 5.166,10.97 5.268,10.54 5.392,10.222 5.455,10.064 5.524,9.935 5.59,9.852 5.655,9.767 5.711,9.735 5.75,9.728 5.777,9.723 5.826,9.733 5.91,9.781 5.994,9.829 6.1,9.91 6.219,9.992 6.457,10.156 6.795,10.339 7.182,10.205 7.424,10.121 7.565,9.908 7.705,9.665 7.845,9.422 7.975,9.135 8.109,8.861 8.243,8.587 8.384,8.325 8.525,8.148 8.666,7.971 8.788,7.898 8.905,7.9 9.039,7.904 9.175,8 9.322,8.197 c 0.147,0.197 0.287,0.48 0.424,0.77 0.137,0.29 0.27,0.584 0.424,0.822 0.077,0.119 0.16,0.226 0.262,0.309 0.102,0.083 0.232,0.142 0.375,0.14 a 1.06,1.06 0 0 0 0.656,-0.217 c 0.16,-0.127 0.263,-0.287 0.344,-0.429 0.081,-0.142 0.142,-0.27 0.195,-0.34 0.053,-0.07 0.061,-0.078 0.115,-0.074 0.074,0.004 0.103,0.025 0.149,0.076 0.045,0.05 0.092,0.137 0.142,0.242 0.05,0.105 0.104,0.226 0.186,0.342 0.082,0.116 0.199,0.228 0.363,0.281 0.515,0.166 1.025,0.086 1.025,0.086 A 0.2,0.2 0 0 0 14.15,9.981 0.2,0.2 0 0 0 13.924,9.813 c 0,0 -0.442,0.06 -0.846,-0.07 C 13.012,9.721 12.968,9.681 12.918,9.61 12.868,9.539 12.82,9.437 12.768,9.326 12.716,9.215 12.658,9.096 12.562,8.988 a 0.62,0.62 0 0 0 -0.42,-0.207 c -0.195,-0.012 -0.36,0.107 -0.455,0.23 -0.095,0.123 -0.155,0.26 -0.226,0.386 -0.071,0.126 -0.147,0.235 -0.244,0.312 a 0.63,0.63 0 0 1 -0.414,0.133 c -0.033,0 -0.069,-0.01 -0.121,-0.053 A 1,1 0 0 1 10.502,9.574 C 10.374,9.378 10.244,9.092 10.106,8.799 9.968,8.506 9.822,8.203 9.64,7.959 9.458,7.715 9.224,7.512 8.916,7.504 8.626,7.496 8.393,7.679 8.215,7.902 8.037,8.125 7.892,8.406 7.754,8.688 7.616,8.969 7.486,9.252 7.361,9.467 7.236,9.682 7.107,9.811 7.053,9.83 6.832,9.907 6.658,9.811 6.443,9.664 6.336,9.59 6.228,9.506 6.107,9.438 5.986,9.37 5.842,9.308 5.677,9.338 5.51,9.368 5.379,9.478 5.277,9.608 5.175,9.738 5.095,9.898 5.023,10.078 4.881,10.44 4.778,10.887 4.697,11.326 4.664,11.509 4.649,11.648 4.623,11.82 4.612,11.702 4.601,11.635 4.59,11.504 4.512,10.589 4.432,9.369 4.354,8.148 4.276,6.927 4.197,5.708 4.125,4.788 4.089,4.327 4.053,3.942 4.019,3.666 A 4,4 0 0 0 3.969,3.334 1,1 0 0 0 3.938,3.219 0.3,0.3 0 0 0 3.904,3.154 C 3.894,3.141 3.884,3.124 3.864,3.107 A 0.22,0.22 0 0 0 3.736,3.059"
     filter="url(#d)"
     id="path15"
     style="display:inline;opacity:0.5" />
  <path
     fill="url(#c)"
     d="M 3.736,3.059 A 0.26,0.26 0 0 0 3.553,3.137 0.3,0.3 0 0 0 3.484,3.247 c -0.03,0.07 -0.05,0.15 -0.07,0.25 -0.04,0.201 -0.077,0.478 -0.111,0.81 A 64,64 0 0 0 3.121,6.757 C 3.067,7.657 3.019,8.567 2.973,9.27 2.95,9.62 2.928,9.92 2.906,10.139 q -0.015,0.146 -0.03,0.236 C 2.849,10.353 2.844,10.352 2.806,10.317 2.64,10.162 2.39,9.914 2.016,9.805 1.601,9.684 1.35,9.517 1.203,9.387 A 1,1 0 0 1 1.058,9.237 v 0.545 c 0.192,0.143 0.466,0.293 0.846,0.404 0.263,0.076 0.463,0.263 0.633,0.421 0.086,0.08 0.154,0.154 0.274,0.204 0.06,0.024 0.148,0.04 0.23,0.007 a 0.34,0.34 0 0 0 0.168,-0.156 c 0.05,-0.088 0.044,-0.126 0.056,-0.2 C 3.277,10.388 3.29,10.291 3.301,10.177 3.324,9.951 3.346,9.65 3.369,9.297 3.415,8.59 3.463,7.679 3.518,6.781 3.57,5.912 3.627,5.069 3.691,4.424 c 0.013,0.142 0.025,0.23 0.037,0.394 0.072,0.916 0.15,2.137 0.229,3.358 0.079,1.22 0.158,2.44 0.236,3.361 0.04,0.46 0.08,0.846 0.118,1.123 q 0.027,0.207 0.058,0.336 c 0.01,0.043 0.022,0.08 0.04,0.12 0.008,0.02 0.018,0.04 0.04,0.066 a 0.2,0.2 0 0 0 0.135,0.08 L 4.685,13.25 4.723,13.233 4.75,13.213 c 0.03,-0.026 0.04,-0.045 0.049,-0.06 0.016,-0.03 0.021,-0.048 0.027,-0.067 Q 4.842,13.029 4.853,12.957 4.878,12.809 4.91,12.569 C 4.954,12.249 5.01,11.823 5.088,11.397 5.166,10.97 5.268,10.54 5.392,10.222 5.455,10.064 5.524,9.935 5.59,9.852 5.655,9.767 5.711,9.735 5.75,9.728 5.777,9.723 5.826,9.733 5.91,9.781 5.994,9.829 6.1,9.91 6.219,9.992 6.457,10.156 6.795,10.339 7.182,10.205 7.424,10.121 7.565,9.908 7.705,9.665 7.845,9.422 7.975,9.135 8.109,8.861 8.243,8.587 8.384,8.325 8.525,8.148 8.666,7.971 8.788,7.898 8.905,7.9 9.039,7.904 9.175,8 9.322,8.197 c 0.147,0.197 0.287,0.48 0.424,0.77 0.137,0.29 0.27,0.584 0.424,0.822 0.077,0.119 0.16,0.226 0.262,0.309 0.102,0.083 0.232,0.142 0.375,0.14 a 1.06,1.06 0 0 0 0.656,-0.217 c 0.16,-0.127 0.263,-0.287 0.344,-0.429 0.081,-0.142 0.142,-0.27 0.195,-0.34 0.053,-0.07 0.061,-0.078 0.115,-0.074 0.074,0.004 0.103,0.025 0.149,0.076 0.045,0.05 0.092,0.137 0.142,0.242 0.05,0.105 0.104,0.226 0.186,0.342 0.082,0.116 0.199,0.228 0.363,0.281 0.515,0.166 1.025,0.086 1.025,0.086 A 0.2,0.2 0 0 0 14.15,9.981 0.2,0.2 0 0 0 13.924,9.813 c 0,0 -0.442,0.06 -0.846,-0.07 C 13.012,9.721 12.968,9.681 12.918,9.61 12.868,9.539 12.82,9.437 12.768,9.326 12.716,9.215 12.658,9.096 12.562,8.988 a 0.62,0.62 0 0 0 -0.42,-0.207 c -0.195,-0.012 -0.36,0.107 -0.455,0.23 -0.095,0.123 -0.155,0.26 -0.226,0.386 -0.071,0.126 -0.147,0.235 -0.244,0.312 a 0.63,0.63 0 0 1 -0.414,0.133 c -0.033,0 -0.069,-0.01 -0.121,-0.053 A 1,1 0 0 1 10.502,9.574 C 10.374,9.378 10.244,9.092 10.106,8.799 9.968,8.506 9.822,8.203 9.64,7.959 9.458,7.715 9.224,7.512 8.916,7.504 8.626,7.496 8.393,7.679 8.215,7.902 8.037,8.125 7.892,8.406 7.754,8.688 7.616,8.969 7.486,9.252 7.361,9.467 7.236,9.682 7.107,9.811 7.053,9.83 6.832,9.907 6.658,9.811 6.443,9.664 6.336,9.59 6.228,9.506 6.107,9.438 5.986,9.37 5.842,9.308 5.677,9.338 5.51,9.368 5.379,9.478 5.277,9.608 5.175,9.738 5.095,9.898 5.023,10.078 4.881,10.44 4.778,10.887 4.697,11.326 4.664,11.509 4.649,11.648 4.623,11.82 4.612,11.702 4.601,11.635 4.59,11.504 4.512,10.589 4.432,9.369 4.354,8.148 4.276,6.927 4.197,5.708 4.125,4.788 4.089,4.327 4.053,3.942 4.019,3.666 A 4,4 0 0 0 3.969,3.334 1,1 0 0 0 3.938,3.219 0.3,0.3 0 0 0 3.904,3.154 C 3.894,3.141 3.884,3.124 3.864,3.107 A 0.22,0.22 0 0 0 3.736,3.059"
     id="path18"
     style="display:inline;opacity:0.5" />
  <path
     fill="url(#h)"
     d="m 13.142,9.784 c 0,0 0.256,0.073 0.595,-0.057 0.425,-0.162 0.55,0.169 0.511,0.366 -0.029,0.173 -0.204,0.264 -0.375,0.237 -0.17,-0.028 -0.078,-0.068 -0.36,-0.112 -0.282,-0.044 -0.303,-0.033 -0.404,-0.063 -0.11,-0.033 0.033,-0.37 0.033,-0.37"
     style="display:inline;opacity:0.5;paint-order:fill markers stroke"
     id="path19" />
  <path
     fill="#faf6f4"
     d="M 3.723,3.216 A 0.1,0.1 0 0 0 3.668,3.244 0.2,0.2 0 0 0 3.631,3.309 1.2,1.2 0 0 0 3.571,3.529 9,9 0 0 0 3.461,4.322 C 3.393,4.982 3.333,5.869 3.279,6.767 3.225,7.667 3.177,8.577 3.131,9.281 3.108,9.634 3.086,9.933 3.064,10.154 q -0.016,0.168 -0.033,0.27 A 1,1 0 0 1 3.004,10.543 C 2.985,10.576 2.967,10.59 2.954,10.596 2.939,10.601 2.924,10.602 2.901,10.592 A 1,1 0 0 1 2.699,10.434 C 2.531,10.278 2.3,10.054 1.971,9.957 1.535,9.83 1.261,9.651 1.098,9.506 L 1.058,9.47 v 0.108 c 0.174,0.15 0.456,0.328 0.891,0.455 0.307,0.09 0.527,0.302 0.696,0.46 a 0.9,0.9 0 0 0 0.226,0.171 c 0.036,0.015 0.075,0.02 0.111,0.006 a 0.2,0.2 0 0 0 0.09,-0.088 0.5,0.5 0 0 0 0.037,-0.147 Q 3.125,10.33 3.142,10.162 C 3.165,9.939 3.188,9.638 3.212,9.285 3.257,8.58 3.305,7.67 3.359,6.772 A 64,64 0 0 1 3.541,4.33 C 3.574,4.002 3.609,3.732 3.647,3.547 3.665,3.455 3.685,3.383 3.703,3.34 L 3.717,3.312 a 1,1 0 0 1 0.02,0.07 q 0.022,0.109 0.046,0.311 c 0.033,0.27 0.067,0.655 0.103,1.114 0.073,0.918 0.15,2.137 0.23,3.357 0.078,1.22 0.158,2.441 0.236,3.36 0.039,0.459 0.077,0.843 0.115,1.115 q 0.029,0.204 0.057,0.318 a 1,1 0 0 0 0.029,0.092 q 0.007,0.018 0.017,0.031 0.012,0.017 0.04,0.023 l 0.02,-0.002 0.015,-0.007 q 0.01,-0.01 0.013,-0.018 A 0.2,0.2 0 0 0 4.672,13.041 Q 4.685,13 4.697,12.93 c 0.017,-0.093 0.033,-0.224 0.055,-0.383 0.043,-0.319 0.1,-0.746 0.18,-1.178 0.08,-0.432 0.182,-0.868 0.314,-1.203 C 5.312,9.999 5.384,9.856 5.465,9.754 5.546,9.652 5.63,9.589 5.72,9.572 5.803,9.557 5.892,9.588 5.99,9.645 c 0.098,0.057 0.204,0.138 0.319,0.216 0.229,0.158 0.5,0.304 0.822,0.194 C 7.298,9.997 7.434,9.817 7.568,9.585 7.702,9.355 7.831,9.068 7.967,8.791 8.103,8.514 8.247,8.246 8.402,8.051 8.558,7.856 8.722,7.737 8.908,7.742 c 0.205,0.005 0.38,0.143 0.541,0.36 0.161,0.217 0.304,0.508 0.442,0.799 0.137,0.29 0.268,0.581 0.412,0.802 0.071,0.11 0.148,0.205 0.23,0.271 a 0.42,0.42 0 0 0 0.272,0.106 0.9,0.9 0 0 0 0.558,-0.184 c 0.136,-0.107 0.228,-0.247 0.305,-0.382 0.076,-0.136 0.14,-0.268 0.209,-0.36 0.07,-0.091 0.14,-0.141 0.25,-0.135 a 0.36,0.36 0 0 1 0.257,0.13 c 0.066,0.073 0.118,0.174 0.169,0.28 0.05,0.108 0.1,0.221 0.17,0.32 0.07,0.099 0.158,0.18 0.283,0.22 0.47,0.151 0.953,0.08 0.953,0.08 a 0.04,0.04 0 0 0 0.033,-0.045 0.04,0.04 0 0 0 -0.045,-0.033 c 0,0 -0.469,0.066 -0.918,-0.078 A 0.47,0.47 0 0 1 12.787,9.701 C 12.724,9.611 12.677,9.503 12.625,9.395 12.573,9.287 12.519,9.179 12.443,9.094 A 0.44,0.44 0 0 0 12.131,8.941 C 11.991,8.933 11.891,9.005 11.812,9.107 11.733,9.209 11.674,9.343 11.6,9.475 11.526,9.607 11.437,9.737 11.314,9.834 A 0.8,0.8 0 0 1 10.803,10 0.34,0.34 0 0 1 10.582,9.912 1.1,1.1 0 0 1 10.369,9.66 C 10.231,9.447 10.101,9.157 9.963,8.865 9.825,8.574 9.681,8.28 9.513,8.055 9.345,7.83 9.149,7.668 8.91,7.662 8.69,7.656 8.503,7.795 8.34,8 8.177,8.205 8.033,8.477 7.896,8.756 7.759,9.035 7.631,9.319 7.5,9.545 7.369,9.771 7.233,9.934 7.103,9.979 6.816,10.078 6.578,9.949 6.353,9.795 6.241,9.718 6.135,9.635 6.029,9.575 5.924,9.514 5.817,9.475 5.707,9.495 A 0.52,0.52 0 0 0 5.402,9.705 C 5.315,9.817 5.239,9.965 5.172,10.137 5.036,10.48 4.933,10.919 4.853,11.354 4.773,11.788 4.717,12.216 4.674,12.535 4.652,12.695 4.635,12.826 4.619,12.916 4.615,12.938 4.611,12.948 4.607,12.965 4.605,12.955 4.602,12.951 4.6,12.94 A 3,3 0 0 1 4.545,12.627 23,23 0 0 1 4.432,11.517 C 4.354,10.6 4.274,9.381 4.195,8.16 4.117,6.94 4.039,5.717 3.967,4.799 3.93,4.339 3.894,3.957 3.861,3.685 A 4,4 0 0 0 3.815,3.365 1,1 0 0 0 3.789,3.275 0.1,0.1 0 0 0 3.773,3.245 Q 3.769,3.235 3.762,3.229 L 3.752,3.222 3.738,3.217 Z"
     style="display:inline;opacity:0.5;paint-order:fill markers stroke"
     id="path20" />
  <path
     fill="url(#i)"
     d="m 13.35,9.961 c 0,0 0.21,0.02 0.411,-0.103 0.263,-0.16 0.39,0.07 0.364,0.204 -0.02,0.117 -0.138,0.179 -0.254,0.16 -0.116,-0.019 -0.057,-0.003 -0.243,-0.076 a 1.3,1.3 0 0 0 -0.317,-0.105 c -0.032,-0.007 -0.01,-0.084 -0.01,-0.084 z"
     style="display:inline;opacity:0.5;paint-order:fill markers stroke"
     id="path21" />
  <path
     fill="url(#j)"
     d="m 12.431,9.08 v 0.128 c 0.045,0.064 0.084,0.141 0.122,0.222 0.05,0.107 0.1,0.22 0.17,0.318 0.07,0.098 0.158,0.18 0.283,0.22 a 2,2 0 0 0 0.306,0.073 c 0.07,0.013 0.163,0.036 0.316,0.105 0.186,0.073 0.128,0.057 0.243,0.076 0.116,0.019 0.234,-0.043 0.254,-0.16 C 14.151,9.928 14.025,9.699 13.762,9.859 13.56,9.981 13.35,9.961 13.35,9.961 L 13.3,9.957 A 2,2 0 0 1 13.03,9.893 0.47,0.47 0 0 1 12.787,9.701 C 12.724,9.611 12.677,9.503 12.625,9.395 A 1.3,1.3 0 0 0 12.431,9.08"
     style="display:inline;opacity:0.5;paint-order:fill markers stroke"
     id="path22" />
  <rect
     x="1.0583124"
     y="1.0583124"
     width="14.817"
     height="14.817"
     rx="3.4400001"
     ry="3.4400001"
     fill="url(#a)"
     id="rect63"
     style="display:inline;opacity:0.34968017;fill:url(#a-0)" />
  <g
     filter="url(#e)"
     opacity=".35"
     style="display:inline;opacity:0.70309168;mix-blend-mode:normal"
     id="g17">
    <path
       fill="url(#f)"
       d="m 5.36,1.058 c -1.53,0 -2.577,0.457 -3.26,1.2 -0.678,0.74 -1.042,1.8 -1.042,3.001 v 6.415 c 0,1.2 0.364,2.26 1.043,3 0.682,0.744 1.73,1.2 3.26,1.2 h 6.23 c 1.53,0 2.577,-0.456 3.26,-1.2 0.678,-0.739 1.024,-1.702 1.024,-3 V 5.5 c 0,-1.57 -0.346,-2.502 -1.024,-3.242 -0.683,-0.743 -1.73,-1.2 -3.26,-1.2 H 6.745 Z m 0,0.264 h 6.232 c 1.477,0 2.437,0.432 3.064,1.116 0.634,0.69 0.954,1.53 0.954,3.062 v 6.174 c 0,1.251 -0.322,2.134 -0.954,2.822 -0.627,0.684 -1.587,1.114 -3.064,1.114 H 5.359 C 3.882,15.61 2.922,15.18 2.295,14.496 1.67,13.814 1.322,12.821 1.322,11.674 V 5.26 C 1.322,4.112 1.67,3.12 2.295,2.438 2.922,1.754 3.882,1.322 5.359,1.322"
       id="path16" />
    <path
       fill="url(#g)"
       d="m 5.36,1.058 c -1.53,0 -2.577,0.457 -3.26,1.2 -0.678,0.74 -1.042,1.8 -1.042,3.001 v 6.415 c 0,1.2 0.364,2.26 1.043,3 0.682,0.744 1.73,1.2 3.26,1.2 h 6.23 c 1.53,0 2.577,-0.456 3.26,-1.2 0.678,-0.739 1.024,-1.702 1.024,-3 V 5.5 c 0,-1.57 -0.346,-2.502 -1.024,-3.242 -0.683,-0.743 -1.73,-1.2 -3.26,-1.2 H 6.745 Z m 0,0.264 h 6.232 c 1.477,0 2.437,0.432 3.064,1.116 0.634,0.69 0.954,1.53 0.954,3.062 v 6.174 c 0,1.251 -0.322,2.134 -0.954,2.822 -0.627,0.684 -1.587,1.114 -3.064,1.114 H 5.359 C 3.882,15.61 2.922,15.18 2.295,14.496 1.67,13.814 1.322,12.821 1.322,11.674 V 5.26 C 1.322,4.112 1.67,3.12 2.295,2.438 2.922,1.754 3.882,1.322 5.359,1.322"
       id="path17" />
  </g>
</svg>
