<?xml version="1.0" encoding="UTF-8" standalone="no"?>
<svg
   width="64"
   height="64"
   version="1.1"
   id="svg11"
   sodipodi:docname="vim.svg"
   inkscape:version="1.4.2 (ebf0e940d0, 2025-05-08)"
   xmlns:inkscape="http://www.inkscape.org/namespaces/inkscape"
   xmlns:sodipodi="http://sodipodi.sourceforge.net/DTD/sodipodi-0.dtd"
   xmlns:xlink="http://www.w3.org/1999/xlink"
   xmlns="http://www.w3.org/2000/svg"
   xmlns:svg="http://www.w3.org/2000/svg">
  <sodipodi:namedview
     id="namedview11"
     pagecolor="#ffffff"
     bordercolor="#000000"
     borderopacity="0.25"
     inkscape:showpageshadow="2"
     inkscape:pageopacity="0.0"
     inkscape:pagecheckerboard="0"
     inkscape:deskcolor="#d1d1d1"
     inkscape:zoom="12.890625"
     inkscape:cx="32.038788"
     inkscape:cy="32"
     inkscape:window-width="1920"
     inkscape:window-height="1015"
     inkscape:window-x="0"
     inkscape:window-y="32"
     inkscape:window-maximized="1"
     inkscape:current-layer="svg11" />
  <defs
     id="defs4">
    <linearGradient
       id="c"
       x1="32"
       x2="32"
       y1="17.652"
       y2="46.348"
       gradientUnits="userSpaceOnUse">
      <stop
         offset="0"
         stop-color="#ffffff"
         id="stop1" />
      <stop
         offset="1"
         stop-color="#ffffff"
         id="stop2" />
    </linearGradient>
    <linearGradient
       id="a"
       x1="7.937"
       x2="7.937"
       y1="15.081"
       y2="1.852"
       gradientTransform="scale(3.7796)"
       gradientUnits="userSpaceOnUse">
      <stop
         offset="0"
         stop-color="#ddc2b3"
         id="stop3" />
      <stop
         offset="1"
         stop-color="#fffefe"
         id="stop4" />
    </linearGradient>
    <filter
       id="b"
       width="1.1071194"
       height="1.1363256"
       x="-0.053559693"
       y="-0.06816281"
       color-interpolation-filters="sRGB">
      <feGaussianBlur
         stdDeviation=".815"
         id="feGaussianBlur4" />
    </filter>
    <filter
       id="c-2"
       width="1.0239725"
       height="1.0239741"
       x="-0.011986232"
       y="-0.011987041"
       color-interpolation-filters="sRGB">
      <feGaussianBlur
         stdDeviation=".074"
         id="feGaussianBlur8" />
    </filter>
    <linearGradient
       xlink:href="#a-6"
       id="d-7"
       x1="2.598"
       x2="10.583"
       y1="2.836"
       y2="11.312"
       gradientUnits="userSpaceOnUse" />
    <linearGradient
       id="a-6">
      <stop
         offset="0"
         stop-color="#ffffff"
         id="stop1-2" />
      <stop
         offset="1"
         stop-color="#ffffff"
         stop-opacity="0"
         id="stop2-9" />
    </linearGradient>
    <linearGradient
       xlink:href="#a-6"
       id="e-0"
       x1="15.081"
       x2="12.7"
       y1="14.816"
       y2="12.171"
       gradientUnits="userSpaceOnUse" />
    <linearGradient
       id="a-0"
       x1="7.9369998"
       x2="7.9369998"
       y1="15.081"
       y2="1.852"
       gradientUnits="userSpaceOnUse"
       gradientTransform="matrix(3.779602,0,0,3.779602,0.00118123,0.03141779)">
      <stop
         stop-color="#ffffff"
         offset="0"
         id="stop62"
         style="stop-color:#666666;stop-opacity:1;" />
      <stop
         stop-color="#ffffff"
         offset="1"
         id="stop63" />
    </linearGradient>
  </defs>
  <g
     color="#633f2c"
     id="g8">
    <path
       d="M4.37.53C2.254.53.53 2.312.53 4.496v8.468c0 2.184 1.725 3.968 3.84 3.968h8.194c2.114 0 3.84-1.783 3.84-3.968V4.497c0-2.184-1.726-3.968-3.84-3.968zm.256.52h7.681c1.844 0 3.33 1.534 3.33 3.44v7.937c0 1.906-1.485 3.44-3.33 3.44h-7.68c-1.845 0-3.33-1.534-3.33-3.44V4.49c0-1.906 1.485-3.44 3.33-3.44z"
       opacity=".01"
       style="font-feature-settings:normal;font-variant-alternates:normal;font-variant-caps:normal;font-variant-east-asian:normal;font-variant-ligatures:normal;font-variant-numeric:normal;font-variant-position:normal;font-variation-settings:normal;inline-size:0;isolation:auto;mix-blend-mode:normal;shape-margin:0;shape-padding:0;text-decoration-color:#633f2c;text-decoration-line:none;text-decoration-style:solid;text-indent:0;text-orientation:mixed;text-transform:none;white-space:normal"
       transform="scale(3.7796)"
       id="path4" />
    <path
       d="M4.359.794C2.392.794.795 2.447.795 4.48v8.5c0 2.035 1.597 3.688 3.564 3.688h8.216c1.967 0 3.564-1.653 3.564-3.688v-8.5c0-2.034-1.597-3.687-3.564-3.687zm.272.256h7.672c1.842 0 3.325 1.534 3.325 3.44v7.937c0 1.906-1.483 3.44-3.325 3.44H4.63c-1.842 0-3.325-1.534-3.325-3.44V4.49c0-1.906 1.483-3.44 3.325-3.44z"
       opacity=".01"
       style="font-feature-settings:normal;font-variant-alternates:normal;font-variant-caps:normal;font-variant-east-asian:normal;font-variant-ligatures:normal;font-variant-numeric:normal;font-variant-position:normal;font-variation-settings:normal;inline-size:0;isolation:auto;mix-blend-mode:normal;shape-margin:0;shape-padding:0;text-decoration-color:#633f2c;text-decoration-line:none;text-decoration-style:solid;text-indent:0;text-orientation:mixed;text-transform:none;white-space:normal"
       transform="scale(3.7796)"
       id="path5" />
    <path
       d="M4.31 1.058c-1.866 0-3.375 1.539-3.375 3.44v8.467c0 1.9 1.509 3.439 3.375 3.439h8.312c1.865 0 3.375-1.538 3.375-3.44V4.498c0-1.9-1.51-3.439-3.375-3.439h-.097c1.794.087 3.214 1.582 3.214 3.432v7.937c0 1.906-1.506 3.44-3.377 3.44h-7.79c-1.871 0-3.377-1.534-3.377-3.44V4.49c0-1.85 1.42-3.345 3.214-3.432z"
       opacity=".03"
       style="font-feature-settings:normal;font-variant-alternates:normal;font-variant-caps:normal;font-variant-east-asian:normal;font-variant-ligatures:normal;font-variant-numeric:normal;font-variant-position:normal;font-variation-settings:normal;inline-size:0;isolation:auto;mix-blend-mode:normal;shape-margin:0;shape-padding:0;text-decoration-color:#633f2c;text-decoration-line:none;text-decoration-style:solid;text-indent:0;text-orientation:mixed;text-transform:none;white-space:normal"
       transform="scale(3.7796)"
       id="path6" />
    <path
       d="M4 46.969V49c0 6.648 5.352 12 12 12h32c6.648 0 12-5.352 12-12v-1.992a12.97 12.97 0 0 1-13 12.963H17.002A12.973 12.973 0 0 1 4 46.969"
       opacity=".03"
       style="font-feature-settings:normal;font-variant-alternates:normal;font-variant-caps:normal;font-variant-east-asian:normal;font-variant-ligatures:normal;font-variant-numeric:normal;font-variant-position:normal;font-variation-settings:normal;inline-size:0;isolation:auto;mix-blend-mode:normal;shape-margin:0;shape-padding:0;text-decoration-color:#633f2c;text-decoration-line:none;text-decoration-style:solid;text-indent:0;text-orientation:mixed;text-transform:none;white-space:normal"
       id="path7" />
    <path
       d="M1.058 11.906v.592c0 1.939 1.416 3.5 3.175 3.5H12.7c1.759 0 3.175-1.561 3.175-3.5v-.58c-.006 2.095-1.538 3.78-3.44 3.78H4.498c-1.905 0-3.44-1.692-3.44-3.792"
       opacity=".05"
       style="font-feature-settings:normal;font-variant-alternates:normal;font-variant-caps:normal;font-variant-east-asian:normal;font-variant-ligatures:normal;font-variant-numeric:normal;font-variant-position:normal;font-variation-settings:normal;inline-size:0;isolation:auto;mix-blend-mode:normal;shape-margin:0;shape-padding:0;text-decoration-color:#633f2c;text-decoration-line:none;text-decoration-style:solid;text-indent:0;text-orientation:mixed;text-transform:none;white-space:normal"
       transform="scale(3.7796)"
       id="path8" />
  </g>
  <rect
     width="56.002"
     height="56.002"
     x="4"
     y="3.969"
     fill="url(#a)"
     rx="13.002"
     ry="13.002"
     id="rect8"
     style="opacity:0.49956217" />
  <path
     d="M32 13.739 50.261 32 32 50.261 13.739 32z"
     opacity=".25"
     id="path9" />
  <path
     d="m14.391 17.652-.652.652v1.304l.652.653h1.956v25.435l.653.652h1.956l28.696-26.74v-1.303L47 17.652H35.261l-.652.653v1.304l.652.652h1.957v1.304L22.87 34.608V20.26h1.956l.652-.652v-1.304l-.652-.652zm20.08 15.652-.925.652-.438 1.304.49.653h1.41l.925-.653.436-1.304-.487-.652m-4.795 3.913-.392 1.304h1.174l-2.479 6.522h3.913l.482-1.304H32.65l2.479-6.522m1.563 0-.456 1.304h.978l-2.478 6.522h3.327l.457-1.304h-.719l1.371-3.913h2.772l-1.86 5.217h3.26l.522-1.304h-.716l1.369-3.913h2.608l-1.826 5.217h3.419l.599-1.304h-.912l1.852-5.217-1.045-1.305H47.65l-1.304 1.305h-1.109l-1.11-1.305H42.89l-1.239 1.305h-1.304l-1.174-1.305"
     filter="url(#b)"
     opacity=".25"
     id="path10" />
  <path
     fill="url(#c)"
     d="m14.391 17.652-.652.652v1.304l.652.653h1.956v25.435l.653.652h1.956l28.696-26.74v-1.303L47 17.652H35.261l-.652.653v1.304l.652.652h1.957v1.304L22.87 34.608V20.26h1.956l.652-.652v-1.304l-.652-.652zm20.08 15.652-.925.652-.438 1.304.49.653h1.41l.925-.653.436-1.304-.487-.652m-4.795 3.913-.392 1.304h1.174l-2.479 6.522h3.913l.482-1.304H32.65l2.479-6.522m1.563 0-.456 1.304h.978l-2.478 6.522h3.327l.457-1.304h-.719l1.371-3.913h2.772l-1.86 5.217h3.26l.522-1.304h-.716l1.369-3.913h2.608l-1.826 5.217h3.419l.599-1.304h-.912l1.852-5.217-1.045-1.305H47.65l-1.304 1.305h-1.109l-1.11-1.305H42.89l-1.239 1.305h-1.304l-1.174-1.305"
     id="path11" />
  <rect
     x="4.0000005"
     y="3.9999998"
     width="56.002365"
     height="56.002365"
     rx="13.001831"
     ry="13.001831"
     fill="url(#a)"
     id="rect63"
     style="display:inline;opacity:0.510917;fill:url(#a-0);stroke-width:3.7796"
     inkscape:label="out2" />
  <g
     filter="url(#c)"
     opacity=".35"
     id="g12"
     style="display:inline;opacity:0.943228;filter:url(#c-2)"
     transform="matrix(3.7943681,0,0,3.7845246,-0.34056169,-0.33189543)"
     inkscape:label="out">
    <path
       fill="url(#d)"
       d="m 5.36,1.058 c -1.53,0 -2.577,0.457 -3.26,1.2 -0.678,0.74 -1.042,1.8 -1.042,3.001 v 6.415 c 0,1.2 0.364,2.26 1.043,3 0.682,0.744 1.73,1.2 3.26,1.2 h 6.23 c 1.53,0 2.577,-0.456 3.26,-1.2 0.678,-0.739 1.024,-1.702 1.024,-3 V 5.5 c 0,-1.57 -0.346,-2.502 -1.024,-3.242 -0.683,-0.743 -1.73,-1.2 -3.26,-1.2 H 6.745 Z m 0,0.264 h 6.232 c 1.477,0 2.437,0.432 3.064,1.116 0.634,0.69 0.954,1.53 0.954,3.062 v 6.174 c 0,1.251 -0.322,2.134 -0.954,2.822 -0.627,0.684 -1.587,1.114 -3.064,1.114 H 5.359 C 3.882,15.61 2.922,15.18 2.295,14.496 1.67,13.814 1.322,12.821 1.322,11.674 V 5.26 C 1.322,4.112 1.67,3.12 2.295,2.438 2.922,1.754 3.882,1.322 5.359,1.322"
       id="path11-3"
       style="fill:url(#d-7)"
       inkscape:label="outtt" />
    <path
       fill="url(#e)"
       d="m 5.36,1.058 c -1.53,0 -2.577,0.457 -3.26,1.2 -0.678,0.74 -1.042,1.8 -1.042,3.001 v 6.415 c 0,1.2 0.364,2.26 1.043,3 0.682,0.744 1.73,1.2 3.26,1.2 h 6.23 c 1.53,0 2.577,-0.456 3.26,-1.2 0.678,-0.739 1.024,-1.702 1.024,-3 V 5.5 c 0,-1.57 -0.346,-2.502 -1.024,-3.242 -0.683,-0.743 -1.73,-1.2 -3.26,-1.2 H 6.745 Z m 0,0.264 h 6.232 c 1.477,0 2.437,0.432 3.064,1.116 0.634,0.69 0.954,1.53 0.954,3.062 v 6.174 c 0,1.251 -0.322,2.134 -0.954,2.822 -0.627,0.684 -1.587,1.114 -3.064,1.114 H 5.359 C 3.882,15.61 2.922,15.18 2.295,14.496 1.67,13.814 1.322,12.821 1.322,11.674 V 5.26 C 1.322,4.112 1.67,3.12 2.295,2.438 2.922,1.754 3.882,1.322 5.359,1.322"
       id="path12"
       style="fill:url(#e-0)"
       inkscape:label="outt" />
  </g>
</svg>
