<?xml version="1.0" encoding="UTF-8" standalone="no"?>
<svg
   width="64"
   height="64"
   viewBox="0 0 16.933 16.933"
   version="1.1"
   id="svg51"
   sodipodi:docname="waterfox.svg"
   inkscape:version="1.4.2 (ebf0e940d0, 2025-05-08)"
   xmlns:inkscape="http://www.inkscape.org/namespaces/inkscape"
   xmlns:sodipodi="http://sodipodi.sourceforge.net/DTD/sodipodi-0.dtd"
   xmlns:xlink="http://www.w3.org/1999/xlink"
   xmlns="http://www.w3.org/2000/svg"
   xmlns:svg="http://www.w3.org/2000/svg">
  <sodipodi:namedview
     id="namedview51"
     pagecolor="#ffffff"
     bordercolor="#000000"
     borderopacity="0.25"
     inkscape:showpageshadow="2"
     inkscape:pageopacity="0.0"
     inkscape:pagecheckerboard="0"
     inkscape:deskcolor="#d1d1d1"
     inkscape:zoom="11.78"
     inkscape:cx="32.04584"
     inkscape:cy="31.960951"
     inkscape:window-width="1920"
     inkscape:window-height="1015"
     inkscape:window-x="0"
     inkscape:window-y="32"
     inkscape:window-maximized="1"
     inkscape:current-layer="svg51" />
  <defs
     id="defs26">
    <linearGradient
       id="c"
       x1="-112.45"
       x2="-112.42"
       y1="271.04"
       y2="265.14"
       gradientUnits="userSpaceOnUse">
      <stop
         offset="0"
         stop-color="#d9bbab"
         id="stop1" />
      <stop
         offset="1"
         stop-color="#f4ebe7"
         id="stop2" />
    </linearGradient>
    <linearGradient
       id="h"
       x1="7.04"
       x2="5.767"
       y1="286.24"
       y2="293.71"
       gradientUnits="userSpaceOnUse">
      <stop
         offset="0"
         stop-color="#ffffff"
         id="stop3" />
      <stop
         offset="1"
         stop-color="#faf5f3"
         id="stop4" />
    </linearGradient>
    <linearGradient
       id="i"
       x1="32.799"
       x2="27.072"
       y1="42.111"
       y2="39.572"
       gradientUnits="userSpaceOnUse">
      <stop
         offset="0"
         stop-color="#fcfaf9"
         id="stop5" />
      <stop
         offset="1"
         stop-color="#f1e6e0"
         id="stop6" />
    </linearGradient>
    <linearGradient
       id="g"
       x1="8.998"
       x2="10.294"
       y1="289.45"
       y2="291.56"
       gradientUnits="userSpaceOnUse">
      <stop
         offset="0"
         stop-color="#ddc1b2"
         id="stop7" />
      <stop
         offset="1"
         stop-color="#dcc0b1"
         stop-opacity="0"
         id="stop8" />
    </linearGradient>
    <linearGradient
       id="e"
       x1="11.571"
       x2="11.096"
       y1="293.43"
       y2="289.55"
       gradientUnits="userSpaceOnUse">
      <stop
         offset="0"
         stop-color="#f0e5de"
         id="stop9" />
      <stop
         offset="1"
         stop-color="#f8f3f0"
         id="stop10" />
    </linearGradient>
    <linearGradient
       id="f"
       x1="11.607"
       x2="11.217"
       y1="294.76"
       y2="291.42"
       gradientUnits="userSpaceOnUse">
      <stop
         offset="0"
         stop-color="#e3cdc1"
         id="stop11" />
      <stop
         offset="1"
         stop-color="#efe2db"
         id="stop12" />
    </linearGradient>
    <linearGradient
       id="d"
       x1="11.713"
       x2="14.149"
       y1="291.6"
       y2="286.73"
       gradientUnits="userSpaceOnUse">
      <stop
         offset="0"
         stop-color="#d5b3a1"
         id="stop13" />
      <stop
         offset="1"
         stop-color="#e8d6cc"
         id="stop14" />
    </linearGradient>
    <linearGradient
       id="j"
       x1="5.25"
       x2="5.564"
       y1="287.3"
       y2="285.59"
       gradientUnits="userSpaceOnUse">
      <stop
         offset="0"
         stop-color="#fefdfd"
         id="stop15" />
      <stop
         offset="1"
         stop-color="#ffffff"
         id="stop16" />
    </linearGradient>
    <linearGradient
       id="l"
       x1="10.855"
       x2="11.759"
       y1="283.68"
       y2="282.57"
       gradientUnits="userSpaceOnUse">
      <stop
         offset="0"
         stop-color="#ffffff"
         id="stop17" />
      <stop
         offset="1"
         stop-color="#ffffff"
         id="stop18" />
    </linearGradient>
    <linearGradient
       id="m"
       x1="30.379"
       x2="45.719"
       y1="24.664"
       y2="24.664"
       gradientUnits="userSpaceOnUse">
      <stop
         offset="0"
         stop-color="#ffffff"
         id="stop19" />
      <stop
         offset="1"
         stop-color="#ffffff"
         id="stop20" />
    </linearGradient>
    <linearGradient
       id="n"
       x1="38.878"
       x2="41.802"
       y1="24.172"
       y2="27.079"
       gradientUnits="userSpaceOnUse">
      <stop
         offset="0"
         stop-color="#ffffff"
         id="stop21" />
      <stop
         offset="1"
         stop-color="#ffffff"
         id="stop22" />
    </linearGradient>
    <linearGradient
       id="a"
       x1="7.937"
       x2="7.937"
       y1="15.081"
       y2="1.852"
       gradientTransform="translate(0 .008)scale(.99996)"
       gradientUnits="userSpaceOnUse">
      <stop
         offset="0"
         stop-color="#ffffff"
         id="stop23" />
      <stop
         offset="1"
         stop-color="#ffffff"
         id="stop24" />
    </linearGradient>
    <radialGradient
       id="k"
       cx="8.661"
       cy="283.81"
       r="1.504"
       gradientTransform="matrix(1.9106 .07806 -.04715 1.154 5.453 -44.482)"
       gradientUnits="userSpaceOnUse">
      <stop
         offset="0"
         stop-color="#ffffff"
         id="stop25" />
      <stop
         offset="1"
         stop-color="#ffffff"
         id="stop26" />
    </radialGradient>
    <filter
       id="b"
       width="1.1118106"
       height="1.1291058"
       x="-0.055905311"
       y="-0.06455292"
       color-interpolation-filters="sRGB">
      <feGaussianBlur
         stdDeviation=".326"
         id="feGaussianBlur26" />
    </filter>
    <filter
       id="c-2"
       width="1.0239725"
       height="1.0239741"
       x="-0.011986232"
       y="-0.011987041"
       color-interpolation-filters="sRGB">
      <feGaussianBlur
         stdDeviation=".074"
         id="feGaussianBlur8" />
    </filter>
    <linearGradient
       xlink:href="#a-6"
       id="d-7"
       x1="2.598"
       x2="10.583"
       y1="2.836"
       y2="11.312"
       gradientUnits="userSpaceOnUse" />
    <linearGradient
       id="a-6">
      <stop
         offset="0"
         stop-color="#ffffff"
         id="stop1-2" />
      <stop
         offset="1"
         stop-color="#ffffff"
         stop-opacity="0"
         id="stop2-9" />
    </linearGradient>
    <linearGradient
       xlink:href="#a-6"
       id="e-0"
       x1="15.081"
       x2="12.7"
       y1="14.816"
       y2="12.171"
       gradientUnits="userSpaceOnUse" />
    <linearGradient
       id="a-0"
       x1="7.9369998"
       x2="7.9369998"
       y1="15.081"
       y2="1.852"
       gradientUnits="userSpaceOnUse"
       gradientTransform="translate(-0.0159062,0.01142513)">
      <stop
         stop-color="#ffffff"
         offset="0"
         id="stop62"
         style="stop-color:#666666;stop-opacity:1;" />
      <stop
         stop-color="#ffffff"
         offset="1"
         id="stop63" />
    </linearGradient>
  </defs>
  <g
     color="#633f2c"
     id="g30"
     style="display:inline">
    <path
       d="m 4.37,0.53 c -2.116,0 -3.84,1.782 -3.84,3.966 v 8.468 c 0,2.184 1.725,3.968 3.84,3.968 h 8.194 c 2.114,0 3.84,-1.783 3.84,-3.968 V 4.497 c 0,-2.184 -1.726,-3.968 -3.84,-3.968 z m 0.256,0.52 h 7.681 c 1.844,0 3.33,1.534 3.33,3.44 v 7.937 c 0,1.906 -1.485,3.44 -3.33,3.44 h -7.68 c -1.845,0 -3.33,-1.534 -3.33,-3.44 V 4.49 c 0,-1.906 1.485,-3.44 3.33,-3.44 z"
       opacity="0.01"
       style="font-variant-ligatures:normal;font-variant-position:normal;font-variant-caps:normal;font-variant-numeric:normal;font-variant-alternates:normal;font-variant-east-asian:normal;font-feature-settings:normal;font-variation-settings:normal;text-indent:0;text-decoration-line:none;text-decoration-style:solid;text-decoration-color:#633f2c;text-transform:none;text-orientation:mixed;white-space:normal;shape-padding:0;shape-margin:0;inline-size:0;isolation:auto;mix-blend-mode:normal"
       id="path26" />
    <path
       d="m 4.359,0.794 c -1.967,0 -3.564,1.653 -3.564,3.686 v 8.5 c 0,2.035 1.597,3.688 3.564,3.688 h 8.216 c 1.967,0 3.564,-1.653 3.564,-3.688 v -8.5 c 0,-2.034 -1.597,-3.687 -3.564,-3.687 z M 4.631,1.05 h 7.672 c 1.842,0 3.325,1.534 3.325,3.44 v 7.937 c 0,1.906 -1.483,3.44 -3.325,3.44 H 4.63 c -1.842,0 -3.325,-1.534 -3.325,-3.44 V 4.49 c 0,-1.906 1.483,-3.44 3.325,-3.44 z"
       opacity="0.01"
       style="font-variant-ligatures:normal;font-variant-position:normal;font-variant-caps:normal;font-variant-numeric:normal;font-variant-alternates:normal;font-variant-east-asian:normal;font-feature-settings:normal;font-variation-settings:normal;text-indent:0;text-decoration-line:none;text-decoration-style:solid;text-decoration-color:#633f2c;text-transform:none;text-orientation:mixed;white-space:normal;shape-padding:0;shape-margin:0;inline-size:0;isolation:auto;mix-blend-mode:normal"
       id="path27" />
    <path
       d="m 4.31,1.058 c -1.866,0 -3.375,1.539 -3.375,3.44 v 8.467 c 0,1.9 1.57,3.439 3.435,3.439 h 8.2 c 1.866,0 3.427,-1.538 3.427,-3.44 V 4.498 c 0,-1.9 -1.51,-3.439 -3.375,-3.439 h -0.097 c 1.794,0.087 3.214,1.582 3.214,3.432 v 7.937 c 0,1.906 -1.506,3.44 -3.377,3.44 h -7.79 c -1.871,0 -3.377,-1.534 -3.377,-3.44 V 4.49 c 0,-1.85 1.42,-3.345 3.214,-3.432 z"
       opacity="0.03"
       style="font-variant-ligatures:normal;font-variant-position:normal;font-variant-caps:normal;font-variant-numeric:normal;font-variant-alternates:normal;font-variant-east-asian:normal;font-feature-settings:normal;font-variation-settings:normal;text-indent:0;text-decoration-line:none;text-decoration-style:solid;text-decoration-color:#633f2c;text-transform:none;text-orientation:mixed;white-space:normal;shape-padding:0;shape-margin:0;inline-size:0;isolation:auto;mix-blend-mode:normal"
       id="path28" />
    <path
       d="M 4,46.969 V 49 c 0,6.648 5.896,12 12.544,12 H 47.505 C 54.153,61 60,55.648 60,49 V 47.008 A 12.97,12.97 0 0 1 47,59.971 H 17.002 A 12.973,12.973 0 0 1 4,46.969"
       opacity="0.03"
       style="font-variant-ligatures:normal;font-variant-position:normal;font-variant-caps:normal;font-variant-numeric:normal;font-variant-alternates:normal;font-variant-east-asian:normal;font-feature-settings:normal;font-variation-settings:normal;text-indent:0;text-decoration-line:none;text-decoration-style:solid;text-decoration-color:#633f2c;text-transform:none;text-orientation:mixed;white-space:normal;shape-padding:0;shape-margin:0;inline-size:0;isolation:auto;mix-blend-mode:normal"
       transform="scale(0.26458)"
       id="path29" />
    <path
       d="m 1.058,11.906 v 0.592 c 0,1.939 1.573,3.5 3.332,3.5 h 8.16 c 1.76,0 3.325,-1.561 3.325,-3.5 v -0.58 c -0.006,2.095 -1.537,3.78 -3.44,3.78 H 4.498 c -1.905,0 -3.44,-1.692 -3.44,-3.792"
       opacity="0.05"
       style="font-variant-ligatures:normal;font-variant-position:normal;font-variant-caps:normal;font-variant-numeric:normal;font-variant-alternates:normal;font-variant-east-asian:normal;font-feature-settings:normal;font-variation-settings:normal;text-indent:0;text-decoration-line:none;text-decoration-style:solid;text-decoration-color:#633f2c;text-transform:none;text-orientation:mixed;white-space:normal;shape-padding:0;shape-margin:0;inline-size:0;isolation:auto;mix-blend-mode:normal"
       id="path30" />
  </g>
  <rect
     width="3.9199896"
     height="14.816"
     x="1.058"
     y="1.058"
     fill="url(#a)"
     rx="3.4400001"
     ry="3.4400001"
     id="rect30"
     style="display:inline;opacity:0.500318" />
  <rect
     x="1.0420935"
     y="1.0614251"
     width="14.817"
     height="14.817"
     rx="3.4400001"
     ry="3.4400001"
     fill="url(#a)"
     id="rect63"
     style="display:inline;opacity:0.510917;fill:url(#a-0);stroke-width:0.999999"
     inkscape:label="out2" />
  <g
     filter="url(#c)"
     opacity=".35"
     id="g12"
     style="display:inline;opacity:0.943228;filter:url(#c-2)"
     transform="matrix(1.0039068,0,0,1.0013024,-0.1063239,-0.0846996)"
     inkscape:label="out">
    <path
       fill="url(#d)"
       d="m 5.36,1.058 c -1.53,0 -2.577,0.457 -3.26,1.2 -0.678,0.74 -1.042,1.8 -1.042,3.001 v 6.415 c 0,1.2 0.364,2.26 1.043,3 0.682,0.744 1.73,1.2 3.26,1.2 h 6.23 c 1.53,0 2.577,-0.456 3.26,-1.2 0.678,-0.739 1.024,-1.702 1.024,-3 V 5.5 c 0,-1.57 -0.346,-2.502 -1.024,-3.242 -0.683,-0.743 -1.73,-1.2 -3.26,-1.2 H 6.745 Z m 0,0.264 h 6.232 c 1.477,0 2.437,0.432 3.064,1.116 0.634,0.69 0.954,1.53 0.954,3.062 v 6.174 c 0,1.251 -0.322,2.134 -0.954,2.822 -0.627,0.684 -1.587,1.114 -3.064,1.114 H 5.359 C 3.882,15.61 2.922,15.18 2.295,14.496 1.67,13.814 1.322,12.821 1.322,11.674 V 5.26 C 1.322,4.112 1.67,3.12 2.295,2.438 2.922,1.754 3.882,1.322 5.359,1.322"
       id="path11"
       style="fill:url(#d-7)"
       inkscape:label="outtt" />
    <path
       fill="url(#e)"
       d="m 5.36,1.058 c -1.53,0 -2.577,0.457 -3.26,1.2 -0.678,0.74 -1.042,1.8 -1.042,3.001 v 6.415 c 0,1.2 0.364,2.26 1.043,3 0.682,0.744 1.73,1.2 3.26,1.2 h 6.23 c 1.53,0 2.577,-0.456 3.26,-1.2 0.678,-0.739 1.024,-1.702 1.024,-3 V 5.5 c 0,-1.57 -0.346,-2.502 -1.024,-3.242 -0.683,-0.743 -1.73,-1.2 -3.26,-1.2 H 6.745 Z m 0,0.264 h 6.232 c 1.477,0 2.437,0.432 3.064,1.116 0.634,0.69 0.954,1.53 0.954,3.062 v 6.174 c 0,1.251 -0.322,2.134 -0.954,2.822 -0.627,0.684 -1.587,1.114 -3.064,1.114 H 5.359 C 3.882,15.61 2.922,15.18 2.295,14.496 1.67,13.814 1.322,12.821 1.322,11.674 V 5.26 C 1.322,4.112 1.67,3.12 2.295,2.438 2.922,1.754 3.882,1.322 5.359,1.322"
       id="path12"
       style="fill:url(#e-0)"
       inkscape:label="outt" />
  </g>
  <g
     filter="url(#b)"
     opacity="0.15"
     transform="matrix(0.86977,0,0,0.86977,1.095,-242.86)"
     id="g40"
     style="display:inline">
    <path
       d="m -112.36,264.53 c 0.737,0 1.505,0.666 1.503,1.403 l -0.022,6.612 c -0.002,0.736 -0.717,1.173 -1.454,1.173 -0.737,0 -1.457,-0.621 -1.458,-1.358 l -0.008,-6.366 c -10e-4,-0.737 0.702,-1.464 1.439,-1.464"
       style="paint-order:normal"
       transform="matrix(0.92176,-0.38775,0.4003,0.91639,0,0)"
       id="path31" />
    <path
       d="m 14.627,285.98 c -0.679,-0.286 -1.654,0.027 -1.947,0.703 l -2.627,6.067 c -0.293,0.676 0.18,1.449 0.86,1.734 0.678,0.286 1.603,-0.099 1.899,-0.774 l 2.556,-5.83 c 0.295,-0.675 -0.062,-1.614 -0.741,-1.9"
       style="paint-order:normal"
       id="path32" />
    <path
       d="m 9.479,286.92 c 0.748,0.973 1.31,2.108 1.726,2.824 0.417,0.715 0.488,0.866 0.805,1.451 0.317,0.585 1.03,1.065 1.758,0.334 -0.065,0.167 -0.639,1.58 -0.928,2.164 -0.192,0.39 -0.318,0.524 -0.658,0.717 -0.641,0.362 -1.618,0.138 -1.992,-0.496 L 6.96,288.44 c 1.153,-0.695 1.324,-0.837 2.519,-1.52"
       style="paint-order:normal"
       id="path33" />
    <path
       d="m 7.521,287.46 c 0.833,0.981 2.83,4.553 3.175,5.016 0.346,0.462 0.981,0.958 1.623,0.596 0.34,-0.192 0.506,-0.374 0.788,-0.704 a 20,20 0 0 0 0.683,-0.837 c -0.066,0.166 -0.657,1.576 -0.946,2.161 -0.192,0.39 -0.318,0.524 -0.658,0.716 -0.642,0.363 -1.619,0.14 -1.993,-0.495 l -3.23,-5.474 c 0.231,-0.382 0.313,-0.513 0.558,-0.979"
       style="paint-order:normal"
       id="path34" />
    <path
       d="m 9.479,286.92 c 0.748,0.973 1.31,2.108 1.726,2.824 0.417,0.715 0.488,0.866 0.805,1.451 0.317,0.585 1.03,1.065 1.758,0.334 -0.065,0.167 -0.639,1.58 -0.928,2.164 -0.192,0.39 -0.318,0.524 -0.658,0.717 -0.641,0.362 -1.618,0.138 -1.992,-0.496 L 6.96,288.44 c 1.153,-0.695 1.324,-0.837 2.519,-1.52"
       style="paint-order:normal"
       id="path35" />
    <path
       d="m 9.711,285.37 c -0.802,0.16 -1.789,0.93 -2.238,1.514 -0.749,0.972 -1.31,2.108 -1.726,2.823 -0.417,0.716 -0.488,0.866 -0.805,1.452 -0.318,0.585 -1.048,1.068 -1.776,0.337 0.065,0.166 0.656,1.576 0.945,2.161 0.193,0.39 0.319,0.524 0.659,0.716 0.641,0.362 1.618,0.139 1.992,-0.496 l 3.23,-5.473 a 7.2,7.2 0 0 1 1.05,-1.347 c 0.544,-0.548 1.199,-0.852 0.977,-1.206 -0.477,-0.76 -1.475,-0.652 -2.277,-0.491 z"
       style="paint-order:normal"
       id="path36" />
    <path
       d="m 44.643,21.932 a 4,4 0 0 0 -0.57,0.002 c -2.72,0.204 -6.19,3.027 -7.533,4.61 -3.148,3.708 -11.577,18.472 -12.883,20.22 -1.307,1.748 -3.709,3.621 -6.133,2.252 -1.285,-0.726 -1.912,-1.414 -2.98,-2.66 a 75,75 0 0 1 -2.56,-3.149 l -0.018,-0.016 c 0.248,0.63 2.482,5.958 3.574,8.17 0.727,1.473 1.203,1.98 2.488,2.705 2.424,1.37 6.117,0.525 7.532,-1.873 L 37.765,31.505 c 0.707,-1.199 1.983,-3.181 3.903,-5.117 1.862,-1.877 4.119,-2.96 3.912,-4.157 -0.321,-0.126 -0.546,-0.272 -0.936,-0.3 z"
       style="paint-order:normal"
       transform="matrix(0.26458,0,0,0.26458,0,280.07)"
       id="path37" />
    <path
       d="m 5.801,287.44 c -0.456,-0.165 -0.829,-0.494 -0.88,-1.114 -0.051,-0.619 0.317,-1.063 0.743,-1.042 0.426,0.021 0.57,0.378 0.472,0.71 -0.1,0.331 -0.2,0.457 -0.262,0.686 -0.062,0.229 -0.064,0.47 -0.073,0.76 M 7,286.19 c -0.386,-0.658 -0.283,-1.404 -0.06,-1.954 0.225,-0.55 0.764,-1.16 1.362,-1.32 0.598,-0.16 1.142,-0.074 1.387,0.535 0.244,0.608 -0.286,1.36 -0.92,1.536 -0.634,0.176 -1.218,0.516 -1.77,1.203 z"
       id="path38" />
    <circle
       cx="11.342"
       cy="283.14001"
       r="0.67699999"
       style="paint-order:normal"
       id="circle38" />
    <path
       d="m 40.379,19.467 c -1.243,-10e-4 -2.518,0.19 -3.654,0.418 -1.427,0.286 -3.009,1.124 -4.465,2.152 -1.004,1.25 -1.745,2.742 -1.856,4.46 -0.296,3.455 2.104,4.213 4.188,2.437 0.319,-0.272 0.498,-0.501 0.687,-0.713 0.898,-0.833 6.312,-2.926 9.768,-4.7 0.585,-0.598 0.873,-1.146 0.516,-1.716 -1.126,-1.797 -3.112,-2.336 -5.184,-2.338"
       style="paint-order:normal"
       transform="matrix(0.26458,0,0,0.26458,0,280.07)"
       id="path39" />
    <path
       d="m 44.643,21.932 a 4,4 0 0 0 -0.57,0.002 c -2.72,0.204 -6.19,3.027 -7.534,4.61 a 26,26 0 0 0 -1.248,1.648 c 0.964,1.455 2.68,1.677 4.395,0.562 a 28,28 0 0 1 2.05,-2.338 c 1.862,-1.876 4.174,-3.042 3.968,-4.24 a 3.6,3.6 0 0 0 -1.06,-0.244 z"
       style="paint-order:normal"
       transform="matrix(0.26458,0,0,0.26458,0,280.07)"
       id="path40" />
  </g>
  <g
     transform="matrix(0.86977,0,0,0.86977,1.095,-242.86)"
     id="g51">
    <path
       fill="url(#c)"
       d="M-112.36 264.53c.737 0 1.505.666 1.503 1.403l-.022 6.612c-.002.736-.717 1.173-1.454 1.173s-1.457-.621-1.458-1.358l-.008-6.366c-.001-.737.702-1.464 1.439-1.464"
       style="paint-order:normal"
       transform="matrix(.92176 -.38775 .4003 .91639 0 0)"
       id="path41" />
    <path
       fill="url(#d)"
       d="M14.627 285.98c-.679-.286-1.654.027-1.947.703l-2.627 6.067c-.293.676.18 1.449.86 1.734.678.286 1.603-.099 1.899-.774l2.556-5.83c.295-.675-.062-1.614-.741-1.9"
       style="paint-order:normal"
       id="path42" />
    <path
       fill="url(#e)"
       d="M9.479 286.92c.748.973 1.31 2.108 1.726 2.824.417.715.488.866.805 1.451s1.03 1.065 1.758.334c-.065.167-.639 1.58-.928 2.164-.192.39-.318.524-.658.717-.641.362-1.618.138-1.992-.496l-3.23-5.474c1.153-.695 1.324-.837 2.519-1.52"
       style="paint-order:normal"
       id="path43" />
    <path
       fill="url(#f)"
       d="M7.521 287.46c.833.981 2.83 4.553 3.175 5.016.346.462.981.958 1.623.596.34-.192.506-.374.788-.704a20 20 0 0 0 .683-.837c-.066.166-.657 1.576-.946 2.161-.192.39-.318.524-.658.716-.642.363-1.619.14-1.993-.495l-3.23-5.474c.231-.382.313-.513.558-.979"
       style="paint-order:normal"
       id="path44" />
    <path
       fill="url(#g)"
       d="M9.479 286.92c.748.973 1.31 2.108 1.726 2.824.417.715.488.866.805 1.451s1.03 1.065 1.758.334c-.065.167-.639 1.58-.928 2.164-.192.39-.318.524-.658.717-.641.362-1.618.138-1.992-.496l-3.23-5.474c1.153-.695 1.324-.837 2.519-1.52"
       style="paint-order:normal"
       id="path45" />
    <path
       fill="url(#h)"
       d="M9.711 285.37c-.802.16-1.789.93-2.238 1.514-.749.972-1.31 2.108-1.726 2.823-.417.716-.488.866-.805 1.452-.318.585-1.048 1.068-1.776.337.065.166.656 1.576.945 2.161.193.39.319.524.659.716.641.362 1.618.139 1.992-.496l3.23-5.473a7.2 7.2 0 0 1 1.05-1.347c.544-.548 1.199-.852.977-1.206-.477-.76-1.475-.652-2.277-.491z"
       style="paint-order:normal"
       id="path46" />
    <path
       fill="url(#i)"
       d="M44.643 21.932a4 4 0 0 0-.57.002c-2.72.204-6.19 3.027-7.533 4.61-3.148 3.708-11.577 18.472-12.883 20.22-1.307 1.748-3.709 3.621-6.133 2.252-1.285-.726-1.912-1.414-2.98-2.66a75 75 0 0 1-2.56-3.149l-.018-.016c.248.63 2.482 5.958 3.574 8.17.727 1.473 1.203 1.98 2.488 2.705 2.424 1.37 6.117.525 7.532-1.873l12.205-20.688c.707-1.199 1.983-3.181 3.903-5.117 1.862-1.877 4.119-2.96 3.912-4.157-.321-.126-.546-.272-.936-.3z"
       style="paint-order:normal"
       transform="translate(0 280.07)scale(.26458)"
       id="path47" />
    <path
       fill="url(#j)"
       d="M5.801 287.44c-.456-.165-.829-.494-.88-1.114-.051-.619.317-1.063.743-1.042s.57.378.472.71c-.1.331-.2.457-.262.686s-.064.47-.073.76"
       id="path48" />
    <path
       fill="url(#k)"
       d="M7 286.19c-.386-.658-.283-1.404-.06-1.954.225-.55.764-1.16 1.362-1.32s1.142-.074 1.387.535c.244.608-.286 1.36-.92 1.536s-1.218.516-1.77 1.203z"
       id="path49" />
    <circle
       cx="11.342"
       cy="283.14"
       r=".677"
       fill="url(#l)"
       style="paint-order:normal"
       id="circle49" />
    <path
       fill="url(#m)"
       d="M40.379 19.467c-1.243-.001-2.518.19-3.654.418-1.427.286-3.009 1.124-4.465 2.152-1.004 1.25-1.745 2.742-1.856 4.46-.296 3.455 2.104 4.213 4.188 2.437.319-.272.498-.501.687-.713.898-.833 6.312-2.926 9.768-4.7.585-.598.873-1.146.516-1.716-1.126-1.797-3.112-2.336-5.184-2.338"
       style="paint-order:normal"
       transform="translate(0 280.07)scale(.26458)"
       id="path50" />
    <path
       fill="url(#n)"
       d="M44.643 21.932a4 4 0 0 0-.57.002c-2.72.204-6.19 3.027-7.534 4.61a26 26 0 0 0-1.248 1.648c.964 1.455 2.68 1.677 4.395.562a28 28 0 0 1 2.05-2.338c1.862-1.876 4.174-3.042 3.968-4.24a3.6 3.6 0 0 0-1.06-.244z"
       style="paint-order:normal"
       transform="translate(0 280.07)scale(.26458)"
       id="path51" />
  </g>
</svg>
