<?xml version="1.0" encoding="UTF-8" standalone="no"?>
<svg
   width="64"
   height="64"
   viewBox="0 0 16.933 16.933"
   version="1.1"
   id="svg22"
   sodipodi:docname="web-browser.svg"
   inkscape:version="1.4.2 (ebf0e940d0, 2025-05-08)"
   xmlns:inkscape="http://www.inkscape.org/namespaces/inkscape"
   xmlns:sodipodi="http://sodipodi.sourceforge.net/DTD/sodipodi-0.dtd"
   xmlns:xlink="http://www.w3.org/1999/xlink"
   xmlns="http://www.w3.org/2000/svg"
   xmlns:svg="http://www.w3.org/2000/svg">
  <sodipodi:namedview
     id="namedview22"
     pagecolor="#ffffff"
     bordercolor="#000000"
     borderopacity="0.25"
     inkscape:showpageshadow="2"
     inkscape:pageopacity="0.0"
     inkscape:pagecheckerboard="0"
     inkscape:deskcolor="#d1d1d1"
     inkscape:zoom="11.796875"
     inkscape:cx="32.042384"
     inkscape:cy="32"
     inkscape:window-width="1920"
     inkscape:window-height="945"
     inkscape:window-x="0"
     inkscape:window-y="32"
     inkscape:window-maximized="1"
     inkscape:current-layer="svg22" />
  <defs
     id="defs14">
    <linearGradient
       id="a">
      <stop
         offset="0"
         stop-color="#ffffff"
         id="stop1" />
      <stop
         offset="1"
         stop-color="#ffffff"
         stop-opacity="0"
         id="stop2" />
    </linearGradient>
    <linearGradient
       id="b"
       x1="8.466"
       x2="8.466"
       y1="1.058"
       y2="15.875"
       gradientUnits="userSpaceOnUse">
      <stop
         offset="0"
         stop-color="#ffffff"
         id="stop3" />
      <stop
         offset="1"
         stop-color="#ffffff"
         id="stop4" />
    </linearGradient>
    <linearGradient
       id="d"
       x1="8.466"
       x2="8.466"
       y1="2.646"
       y2="14.287"
       gradientUnits="userSpaceOnUse">
      <stop
         offset="0"
         stop-color="#fbf8f6"
         id="stop5" />
      <stop
         offset="1"
         stop-color="#d0aa96"
         id="stop6" />
    </linearGradient>
    <linearGradient
       id="e"
       x1="8.466"
       x2="8.466"
       y1="2.514"
       y2="14.42"
       gradientUnits="userSpaceOnUse">
      <stop
         offset="0"
         stop-color="#f2e8e2"
         id="stop7" />
      <stop
         offset="1"
         stop-color="#c4957c"
         id="stop8" />
    </linearGradient>
    <linearGradient
       id="f"
       x1="8.466"
       x2="8.466"
       y1="2.646"
       y2="14.287"
       gradientUnits="userSpaceOnUse">
      <stop
         offset="0"
         stop-color="#ffffff"
         id="stop9" />
      <stop
         offset="1"
         stop-color="#ffffff"
         stop-opacity="0"
         id="stop10" />
    </linearGradient>
    <linearGradient
       id="i"
       x1="25.928"
       x2="22.224"
       y1="8.466"
       y2="12.17"
       gradientUnits="userSpaceOnUse">
      <stop
         offset="0"
         stop-color="#ffffff"
         id="stop11" />
      <stop
         offset="1"
         stop-color="#ffffff"
         id="stop12" />
    </linearGradient>
    <linearGradient
       xlink:href="#a"
       id="j"
       x1="24.076"
       x2="24.87"
       y1="9.524"
       y2="10.582"
       gradientUnits="userSpaceOnUse" />
    <linearGradient
       xlink:href="#a"
       id="k"
       x1="25.135"
       x2="24.342"
       y1="10.055"
       y2="9.261"
       gradientTransform="rotate(180 25.929 8.466)"
       gradientUnits="userSpaceOnUse" />
    <filter
       id="c"
       width="1.0239725"
       height="1.0239741"
       x="-0.011986232"
       y="-0.011987041"
       color-interpolation-filters="sRGB">
      <feGaussianBlur
         stdDeviation=".074"
         id="feGaussianBlur12" />
    </filter>
    <filter
       id="g"
       width="1.0239155"
       height="1.0239155"
       x="-0.011957735"
       y="-0.011957735"
       color-interpolation-filters="sRGB">
      <feGaussianBlur
         stdDeviation=".058"
         id="feGaussianBlur13" />
    </filter>
    <filter
       id="h"
       width="1.2939311"
       height="1.293942"
       x="-0.14696554"
       y="-0.14697098"
       color-interpolation-filters="sRGB">
      <feGaussianBlur
         stdDeviation=".477"
         id="feGaussianBlur14" />
    </filter>
    <filter
       id="c-5"
       width="1.0239725"
       height="1.0239741"
       x="-0.011986232"
       y="-0.011987041"
       color-interpolation-filters="sRGB">
      <feGaussianBlur
         stdDeviation=".074"
         id="feGaussianBlur8" />
    </filter>
    <linearGradient
       xlink:href="#a"
       id="d-9"
       x1="2.598"
       x2="10.583"
       y1="2.836"
       y2="11.312"
       gradientUnits="userSpaceOnUse" />
    <linearGradient
       xlink:href="#a"
       id="e-2"
       x1="15.081"
       x2="12.7"
       y1="14.816"
       y2="12.171"
       gradientUnits="userSpaceOnUse" />
    <linearGradient
       id="a-0"
       x1="7.9369998"
       x2="7.9369998"
       y1="15.081"
       y2="1.852"
       gradientUnits="userSpaceOnUse"
       gradientTransform="translate(3.1250115e-4,0.0083125)">
      <stop
         stop-color="#ffffff"
         offset="0"
         id="stop62"
         style="stop-color:#666666;stop-opacity:1;" />
      <stop
         stop-color="#ffffff"
         offset="1"
         id="stop63" />
    </linearGradient>
  </defs>
  <path
     fill="url(#b)"
     d="M5.36 1.058c-1.53 0-2.577.457-3.26 1.2-.678.74-1.042 1.8-1.042 3v6.416c0 1.2.364 2.261 1.042 3.001.683.744 1.73 1.2 3.26 1.2h6.23c1.53 0 2.579-.456 3.26-1.2.68-.74 1.025-1.703 1.025-3V5.5c0-1.57-.345-2.502-1.024-3.242-.682-.743-1.73-1.2-3.26-1.2H6.745z"
     id="path14" />
  <path
     fill="#ffffff"
     d="M5.36 1.058c-1.53 0-2.577.457-3.26 1.2-.678.74-1.042 1.8-1.042 3.001v6.415c0 1.2.364 2.26 1.043 3 .682.744 1.73 1.2 3.26 1.2h6.23c1.53 0 2.577-.456 3.26-1.2.678-.739 1.024-1.702 1.024-3V5.5c0-1.57-.346-2.502-1.024-3.242-.683-.743-1.73-1.2-3.26-1.2H6.745zm0 .264h6.232c1.477 0 2.437.432 3.064 1.116.634.69.954 1.53.954 3.062v6.174c0 1.251-.322 2.134-.954 2.822-.627.684-1.587 1.114-3.064 1.114H5.359c-1.477 0-2.437-.43-3.064-1.114-.625-.682-.973-1.675-.973-2.822V5.26c0-1.148.348-2.14.973-2.822.627-.684 1.587-1.116 3.064-1.116"
     filter="url(#c)"
     id="path15"
     style="opacity:0.5" />
  <circle
     cx="8.466"
     cy="8.466"
     r="5.821"
     fill="url(#d)"
     stroke="url(#e)"
     stroke-linecap="round"
     stroke-linejoin="round"
     stroke-width=".265"
     style="paint-order:stroke fill markers"
     id="circle15" />
  <path
     fill="url(#f)"
     d="M8.467 2.646a5.82 5.82 0 0 0-5.821 5.82 5.82 5.82 0 0 0 5.82 5.821 5.82 5.82 0 0 0 5.821-5.82 5.82 5.82 0 0 0-5.82-5.821m0 .132a5.686 5.686 0 0 1 5.687 5.69 5.685 5.685 0 0 1-5.687 5.686 5.688 5.688 0 1 1 0-11.377"
     filter="url(#g)"
     style="mix-blend-mode:overlay;paint-order:stroke markers fill"
     id="path16" />
  <path
     fill="#ffffff"
     d="M8.467 3.043a.106.106 0 0 0-.106.106v.846a.106.106 0 1 0 .211 0v-.846a.106.106 0 0 0-.105-.106m-.7.045-.008.001a.08.08 0 0 0-.07.09l.084.628a.08.08 0 0 0 .089.07.08.08 0 0 0 .069-.09l-.083-.63a.08.08 0 0 0-.081-.069m1.391 0a.08.08 0 0 0-.073.07l-.083.629a.08.08 0 1 0 .158.02l.083-.628a.08.08 0 0 0-.085-.09m-2.074.136a.107.107 0 0 0-.096.133l.219.818c.015.056.073.09.13.075a.105.105 0 0 0 .074-.13l-.218-.817a.106.106 0 0 0-.11-.079m2.754 0a.11.11 0 0 0-.098.079l-.218.817a.106.106 0 1 0 .204.055l.22-.818a.106.106 0 0 0-.108-.133m-3.416.225a.08.08 0 0 0-.074.11l.243.587a.08.08 0 0 0 .147-.061l-.243-.587a.08.08 0 0 0-.073-.049m4.09 0a.08.08 0 0 0-.074.05l-.243.586a.08.08 0 0 0 .147.06l.243-.586a.08.08 0 0 0-.074-.11m-4.707.306a.105.105 0 0 0-.09.159l.424.733a.106.106 0 1 0 .183-.106L5.9 3.808a.11.11 0 0 0-.094-.053m5.313 0a.1.1 0 0 0-.084.053l-.424.733a.106.106 0 1 0 .184.106l.423-.733a.106.106 0 0 0-.1-.159m-5.91.392a.08.08 0 0 0-.058.128l.386.503a.08.08 0 0 0 .112.015.08.08 0 0 0 .015-.111l-.387-.504a.08.08 0 0 0-.068-.031m6.509 0a.08.08 0 0 0-.06.03l-.387.505a.08.08 0 1 0 .126.096l.387-.503a.08.08 0 0 0-.066-.128M4.706 4.6a.106.106 0 0 0-.075.18l.598.6a.106.106 0 1 0 .15-.15l-.598-.599a.1.1 0 0 0-.075-.03m7.52 0a.1.1 0 0 0-.074.031l-.599.599a.106.106 0 1 0 .15.15l.599-.599a.106.106 0 0 0-.075-.18m-8.002.533a.08.08 0 0 0-.046.143l.504.387a.08.08 0 0 0 .111-.015.08.08 0 0 0-.015-.112l-.503-.386a.1.1 0 0 0-.051-.017m8.477 0a.1.1 0 0 0-.043.017l-.504.386a.08.08 0 0 0-.015.112.08.08 0 0 0 .112.015l.504-.387a.08.08 0 0 0-.054-.143m-8.837.568a.106.106 0 0 0-.056.198l.733.423a.106.106 0 1 0 .106-.183l-.733-.423a.1.1 0 0 0-.05-.015m9.205 0a.1.1 0 0 0-.05.015l-.733.423a.106.106 0 1 0 .106.183l.733-.423a.106.106 0 0 0-.056-.198m-9.54.64a.08.08 0 0 0-.03.153l.586.243a.08.08 0 1 0 .06-.146l-.586-.243a.1.1 0 0 0-.03-.006m9.876 0a.1.1 0 0 0-.031.007l-.587.243a.08.08 0 0 0 .061.147l.587-.243a.08.08 0 0 0-.03-.153m-10.08.643a.105.105 0 0 0-.097.078.106.106 0 0 0 .075.13l.817.22a.105.105 0 0 0 .13-.075.106.106 0 0 0-.075-.13l-.817-.22a.1.1 0 0 0-.032-.003m10.273 0-.022.004-.817.219a.106.106 0 0 0-.075.13c.015.056.073.09.13.074l.817-.218a.106.106 0 0 0-.033-.209M3.163 7.69a.08.08 0 0 0-.073.07.08.08 0 0 0 .068.089l.63.083a.08.08 0 1 0 .02-.158l-.629-.083zm10.6 0h-.008l-.629.084a.08.08 0 1 0 .021.158l.63-.083a.08.08 0 0 0-.013-.159M3.15 8.361a.106.106 0 1 0 0 .211h.846a.106.106 0 1 0 0-.211zm9.789 0a.106.106 0 1 0 0 .211h.846a.106.106 0 1 0 0-.211zM3.796 9l-.008.001-.63.083a.08.08 0 0 0 .021.158l.63-.083a.08.08 0 0 0 .068-.089.08.08 0 0 0-.08-.07m9.335 0a.08.08 0 0 0-.005.158l.63.084a.08.08 0 0 0 .02-.158l-.629-.083zm-8.989.517-.02.004-.818.219a.106.106 0 1 0 .055.204l.817-.219a.106.106 0 0 0-.034-.208m8.64 0a.106.106 0 0 0-.023.208l.818.22a.106.106 0 0 0 .055-.205l-.818-.22a.1.1 0 0 0-.031-.003m-8.673.671-.023.006-.586.243a.08.08 0 0 0-.043.104.08.08 0 0 0 .104.043l.586-.243a.08.08 0 0 0-.038-.153m8.71 0a.08.08 0 0 0-.03.153l.586.243a.08.08 0 0 0 .061-.147l-.587-.243a.1.1 0 0 0-.03-.006m-8.226.407a.1.1 0 0 0-.05.014l-.734.424a.106.106 0 1 0 .106.183l.733-.423a.106.106 0 0 0-.056-.198m7.75 0a.106.106 0 0 0-.056.198l.733.423a.106.106 0 1 0 .106-.183l-.733-.424a.1.1 0 0 0-.05-.014m-7.617.658a.1.1 0 0 0-.043.016l-.504.387a.08.08 0 1 0 .097.126l.504-.387a.08.08 0 0 0 .015-.11v-.001a.08.08 0 0 0-.069-.031m7.475 0a.08.08 0 0 0-.045.142l.503.387a.08.08 0 1 0 .097-.126l-.504-.387a.1.1 0 0 0-.05-.016m-6.895.268a.1.1 0 0 0-.075.032l-.599.598a.106.106 0 1 0 .15.15l.599-.599a.106.106 0 0 0 0-.15.1.1 0 0 0-.075-.031m6.324 0a.1.1 0 0 0-.075.032.106.106 0 0 0 0 .15l.598.598a.106.106 0 1 0 .15-.15l-.598-.598a.1.1 0 0 0-.075-.032m-6.032.602a.08.08 0 0 0-.06.03l-.387.504a.08.08 0 1 0 .126.097l.387-.504a.08.08 0 0 0-.066-.127m5.732 0a.08.08 0 0 0-.058.128l.386.503a.08.08 0 1 0 .126-.097l-.386-.503a.08.08 0 0 0-.068-.031m-5.106.11a.1.1 0 0 0-.084.052l-.423.733a.106.106 0 1 0 .183.106l.424-.733a.106.106 0 0 0-.1-.159m4.477 0a.105.105 0 0 0-.09.158l.424.733a.106.106 0 1 0 .183-.106l-.423-.733a.11.11 0 0 0-.094-.053m-3.395.446a.11.11 0 0 0-.098.078l-.22.818a.106.106 0 0 0 .205.055l.22-.818a.106.106 0 0 0-.107-.133m2.313 0-.022.003a.105.105 0 0 0-.074.13l.219.817a.106.106 0 1 0 .205-.054l-.22-.818a.106.106 0 0 0-.108-.078m-2.954.058a.08.08 0 0 0-.073.049l-.243.587a.08.08 0 0 0 .147.061l.243-.587a.08.08 0 0 0-.074-.11m3.606 0a.08.08 0 0 0-.074.11l.242.587a.08.08 0 0 0 .104.042.08.08 0 0 0 .043-.103l-.243-.587a.08.08 0 0 0-.072-.05m-1.803.094a.106.106 0 0 0-.106.106v.846a.106.106 0 1 0 .211 0v-.846a.106.106 0 0 0-.105-.106m-.621.224a.08.08 0 0 0-.073.07l-.083.628a.08.08 0 0 0 .158.022l.083-.63a.08.08 0 0 0-.085-.09m1.233 0h-.008a.08.08 0 0 0-.069.09l.083.63a.08.08 0 0 0 .158-.021l-.083-.63a.08.08 0 0 0-.081-.069"
     opacity=".8"
     style="paint-order:stroke markers fill"
     id="path17" />
  <path
     d="M30.013 4.867c-.04 0-.07.02-.07.02l-4.28 3.314-3.313 4.28s-.054.08.01.144c.065.064.146.01.146.01l4.28-3.311 3.311-4.28s.054-.08-.01-.145a.1.1 0 0 0-.074-.032"
     filter="url(#h)"
     opacity=".35"
     style="mix-blend-mode:overlay;paint-order:stroke markers fill"
     transform="translate(-17.461)"
     id="path18" />
  <path
     fill="#cea792"
     d="m29.647 4.592-4.28 3.313 1.123 1.123 3.312-4.28s.053-.08-.01-.145c-.065-.065-.145-.011-.145-.011"
     style="paint-order:stroke markers fill"
     transform="translate(-17.461)"
     id="path19" />
  <path
     fill="url(#i)"
     d="m22.054 12.185 3.314-4.28 1.122 1.123-4.28 3.312s-.08.053-.145-.01c-.064-.065-.011-.145-.011-.145"
     style="paint-order:stroke markers fill"
     transform="translate(-17.461)"
     id="path20" />
  <path
     fill="url(#j)"
     d="m25.367 7.905-3.313 4.28s-.054.08.011.144c.064.064.145.01.145.01l4.28-3.311zm.02.32.783.783-3.465 2.68z"
     style="mix-blend-mode:overlay;paint-order:stroke markers fill"
     transform="translate(-17.461)"
     id="path21" />
  <path
     fill="url(#k)"
     d="m29.718 4.61-.014.001c-.018.003-.03.01-.032.012h-.002l-.002.002-4.24 3.285 1.059 1.059 3.28-4.242s.01-.016.015-.036c.003-.02.004-.038-.018-.06q-.025-.024-.046-.021m-.565.635L26.47 8.71l-.783-.784z"
     opacity=".35"
     style="mix-blend-mode:normal;paint-order:stroke markers fill"
     transform="translate(-17.461)"
     id="path22" />
  <rect
     x="1.0583124"
     y="1.0583124"
     width="14.817"
     height="14.817"
     rx="3.4400001"
     ry="3.4400001"
     fill="url(#a)"
     id="rect63"
     style="display:inline;opacity:0.510917;fill:url(#a-0);stroke-width:0.999999"
     inkscape:label="out2" />
  <g
     filter="url(#c)"
     opacity=".35"
     id="g12"
     style="display:inline;opacity:0.943228;filter:url(#c-5)"
     transform="matrix(1.0039068,0,0,1.0013024,-0.09010521,-0.08781223)"
     inkscape:label="out">
    <path
       fill="url(#d)"
       d="m 5.36,1.058 c -1.53,0 -2.577,0.457 -3.26,1.2 -0.678,0.74 -1.042,1.8 -1.042,3.001 v 6.415 c 0,1.2 0.364,2.26 1.043,3 0.682,0.744 1.73,1.2 3.26,1.2 h 6.23 c 1.53,0 2.577,-0.456 3.26,-1.2 0.678,-0.739 1.024,-1.702 1.024,-3 V 5.5 c 0,-1.57 -0.346,-2.502 -1.024,-3.242 -0.683,-0.743 -1.73,-1.2 -3.26,-1.2 H 6.745 Z m 0,0.264 h 6.232 c 1.477,0 2.437,0.432 3.064,1.116 0.634,0.69 0.954,1.53 0.954,3.062 v 6.174 c 0,1.251 -0.322,2.134 -0.954,2.822 -0.627,0.684 -1.587,1.114 -3.064,1.114 H 5.359 C 3.882,15.61 2.922,15.18 2.295,14.496 1.67,13.814 1.322,12.821 1.322,11.674 V 5.26 C 1.322,4.112 1.67,3.12 2.295,2.438 2.922,1.754 3.882,1.322 5.359,1.322"
       id="path11"
       style="fill:url(#d-9)"
       inkscape:label="outtt" />
    <path
       fill="url(#e)"
       d="m 5.36,1.058 c -1.53,0 -2.577,0.457 -3.26,1.2 -0.678,0.74 -1.042,1.8 -1.042,3.001 v 6.415 c 0,1.2 0.364,2.26 1.043,3 0.682,0.744 1.73,1.2 3.26,1.2 h 6.23 c 1.53,0 2.577,-0.456 3.26,-1.2 0.678,-0.739 1.024,-1.702 1.024,-3 V 5.5 c 0,-1.57 -0.346,-2.502 -1.024,-3.242 -0.683,-0.743 -1.73,-1.2 -3.26,-1.2 H 6.745 Z m 0,0.264 h 6.232 c 1.477,0 2.437,0.432 3.064,1.116 0.634,0.69 0.954,1.53 0.954,3.062 v 6.174 c 0,1.251 -0.322,2.134 -0.954,2.822 -0.627,0.684 -1.587,1.114 -3.064,1.114 H 5.359 C 3.882,15.61 2.922,15.18 2.295,14.496 1.67,13.814 1.322,12.821 1.322,11.674 V 5.26 C 1.322,4.112 1.67,3.12 2.295,2.438 2.922,1.754 3.882,1.322 5.359,1.322"
       id="path12"
       style="fill:url(#e-2)"
       inkscape:label="outt" />
  </g>
</svg>
