<svg width="22" xmlns="http://www.w3.org/2000/svg" height="22"><defs><linearGradient id="c"><stop stop-color="#bea58f"/><stop offset="1" stop-color="#bfa690"/></linearGradient><linearGradient id="b"><stop stop-color="#6f5640"/><stop offset="1" stop-color="#997658" stop-opacity="0"/></linearGradient><linearGradient id="a"><stop stop-color="#ded1c5"/><stop offset="1" stop-color="#e9e0d8"/></linearGradient></defs><g transform="translate(-326 -534.362)" fill="#af9074" stroke-width="2"><path d="M331 537.362v16h15v-16h-15zm1 1h13v14h-13v-14z"/><rect width="5" x="333" y="543.362" rx="0" height="5"/><rect width="11" x="333" y="550.362" rx="0" height="1"/><rect width="5" x="339" y="547.362" rx="0" height="1"/><rect width="5" x="339" y="543.362" rx="0" height="1"/><rect width="11" x="333" y="540.362" rx="0" height="1"/><rect width="1" x="328" y="541.362" rx="0" height="9"/><rect width="2" x="329" y="541.362" rx="0" height="1"/><path d="M328 550.362a3 3 0 0 0 3 3v-1a2 2 0 0 1-2-2h-1z"/></g></svg>