<svg width="32" height="32" xmlns="http://www.w3.org/2000/svg"><defs><filter id="a" x="-.036" y="-.036" width="1.072" height="1.072" color-interpolation-filters="sRGB"><feGaussianBlur stdDeviation=".45"/></filter><filter id="c" x="-.039" y="-.033" width="1.078" height="1.067" color-interpolation-filters="sRGB"><feGaussianBlur stdDeviation=".237"/></filter><linearGradient id="b" x1="16" x2="16" y1="1" y2="31" gradientUnits="userSpaceOnUse"><stop stop-color="#b4977d" offset="0"/><stop stop-color="#d9cabc" offset="1"/></linearGradient></defs><path d="M16 1C7.723 1 1 7.723 1 16c0 8.277 6.723 15 15 15 8.276 0 15-6.723 15-15 0-8.276-6.723-15-15-15z" color="#201913" filter="url(#a)" opacity=".25" overflow="visible"/><path d="M16 1C7.723 1 1 7.723 1 16c0 8.277 6.723 15 15 15 8.276 0 15-6.723 15-15 0-8.276-6.723-15-15-15z" color="#201913" fill="url(#b)" overflow="visible"/><path d="M16 6.5v2.429a7.286 7.286 0 1 0 7.286 7.285h-2.429A4.857 4.857 0 1 1 16 11.357v2.429l6.071-3.643L16 6.5z" color="#e2d7cd" filter="url(#c)" opacity=".25" overflow="visible"/><path d="M16 6.5v2.429a7.286 7.286 0 1 0 7.286 7.285h-2.429A4.857 4.857 0 1 1 16 11.357v2.429l6.071-3.643L16 6.5z" color="#e2d7cd" fill="#ffffff" overflow="visible"/></svg>