<svg width="64" height="64" xmlns="http://www.w3.org/2000/svg"><defs><filter id="c" x="-.108" y="-.108" width="1.216" height="1.216" color-interpolation-filters="sRGB"><feGaussianBlur stdDeviation="1.08"/></filter><filter id="a" x="-.027" y="-.027" width="1.054" height="1.054" color-interpolation-filters="sRGB"><feGaussianBlur stdDeviation=".517"/></filter><linearGradient id="b" x2="0" y1="1" y2="47" gradientUnits="userSpaceOnUse"><stop stop-color="#614b38" offset="0"/><stop stop-color="#a27d5d" offset="1"/></linearGradient></defs><g transform="translate(.696 .696) scale(1.3043)"><circle cx="24" cy="24.767" r="23" filter="url(#a)" opacity=".15"/><circle cx="24" cy="24" r="23" fill="url(#b)"/><rect x="13" y="13" width="24" height="24" rx="2" filter="url(#c)" opacity=".1" style="paint-order:normal"/><path d="M13.846 12a1.84 1.84 0 0 0-1.307.54L27 35l8.46-22.46a1.84 1.84 0 0 0-1.306-.54z" enable-background="new" fill="#d3c1b2"/><path d="M12.54 12.54a1.84 1.84 0 0 0-.54 1.307v20.308c0 .511.206.973.54 1.306L35 34.001 24 24z" enable-background="new" fill="#c1a892"/><path d="M35.46 12.54 30 18l2 4 4 2V13.846a1.84 1.84 0 0 0-.54-1.306z" enable-background="new" fill="#b5987e"/><path d="m24 24 6-6 6 6-5 9z" enable-background="new" fill="#f4f0ed" style="paint-order:normal"/><path d="M36 24 24 36h10.154A1.842 1.842 0 0 0 36 34.154z" enable-background="new" fill="#c0a791"/><path d="M30 30H18l6-6z" enable-background="new" fill="#cfbcac"/><path d="m18 30-5.46 5.46c.333.334.795.54 1.306.54H24l6-6z" enable-background="new" fill="#b19276"/></g></svg>