<svg width="32" height="32" version="1.1" xmlns="http://www.w3.org/2000/svg">
 <style id="current-color-scheme" type="text/css">.ColorScheme-Text {
        color:#654e3a;
      }
      .ColorScheme-Background{
        color:#ffffff;
      }
      .ColorScheme-Highlight{
        color:#c8b29f;
      }
      .ColorScheme-ViewText {
        color:#b19378;
      }
      .ColorScheme-ViewBackground{
        color:#ffffff;
      }
      .ColorScheme-ViewHover {
        color:#c8b29f;
      }
      .ColorScheme-ViewFocus{
        color:#b6997f;
      }
      .ColorScheme-ButtonText {
        color:#b19378;
      }
      .ColorScheme-ButtonBackground{
        color:#ffffff;
      }
      .ColorScheme-ButtonHover {
        color:#c8b29f;
      }
      .ColorScheme-ButtonFocus{
        color:#b6997f;
      }</style>
 <path class="ColorScheme-Text" d="m6 5c-1.662 0-3 1.338-3 3v13c0 1.662 1.338 3 3 3h4v2c0 1.108 0.892 2 2 2h8c1.108 0 2-0.892 2-2v-2h4c1.662 0 3-1.338 3-3v-13c0-1.662-1.338-3-3-3h-20zm0 1h20c1.108 0 2 0.892 2 2v13c0 1.108-0.892 2-2 2h-20c-1.108 0-2-0.892-2-2v-13c0-1.108 0.892-2 2-2zm5 18h10v2c0 0.554-0.446 1-1 1h-8c-0.554 0-1-0.446-1-1v-2z" fill="currentColor"/>
</svg>
