<svg xmlns="http://www.w3.org/2000/svg" id="svg1" width="16" height="16" version="1.1"><style id="s0">.base{fill:#201913}.success{fill:#a88567}.warning{fill:#87694e}.error{fill:#bea48d}</style><g id="g0"><path id="rect10419" d="M4 1c-1.108 0-2 .892-2 2v10c0 1.108.892 2 2 2h8c1.108 0 2-.892 2-2V5h-1v8c0 .554-.446 1-1 1H4c-.554 0-1-.446-1-1V3c0-.554.446-1 1-1h6V1H4z" style="fill:#faf7f5;stroke-linecap:round;stroke-linejoin:round;stop-color:#201913"/><path id="path10424" d="m10 1-.707.707 4 4L14 5Z" style="color:#201913;fill:#faf7f5;-inkscape-stroke:none;fill-opacity:1"/><path id="rect10921" d="M9 1v4c0 .554.446 1 1 1h4V5h-4V1H9z" style="fill:#faf7f5;fill-opacity:1;stroke-linecap:round;stroke-linejoin:round;stop-color:#201913"/></g></svg>