<svg xmlns="http://www.w3.org/2000/svg" id="svg1" width="16" height="16" version="1.1"><path id="path15068" d="M12.5 9A3.5 3.5 0 0 0 9 12.5a3.5 3.5 0 0 0 3.5 3.5 3.5 3.5 0 0 0 3.5-3.5A3.5 3.5 0 0 0 12.5 9zm0 1a2.5 2.5 0 0 1 2.5 2.5 2.5 2.5 0 0 1-2.5 2.5 2.5 2.5 0 0 1-2.5-2.5 2.5 2.5 0 0 1 2.5-2.5z" style="fill:#faf7f5;fill-rule:evenodd;stroke:none;stroke-linecap:round;stroke-linejoin:round;stop-color:#201913"/><style id="s0">.base{fill:#201913}.success{fill:#a88567}.warning{fill:#87694e}.error{fill:#bea48d}</style><path id="rect14580" d="M3 2h10v1H3z" style="fill:#faf7f5;fill-rule:evenodd;stroke:none;stroke-linecap:round;stroke-linejoin:round;stop-color:#201913"/><path id="rect15062" d="M7.5 3h1v9h-1z" style="fill:#faf7f5;fill-rule:evenodd;stroke:none;stroke-linecap:round;stroke-linejoin:round;stop-color:#201913"/><path id="rect15064" d="M12 11h1v3h-1z" style="fill:#faf7f5;fill-rule:evenodd;stroke:none;stroke-linecap:round;stroke-linejoin:round;stop-color:#201913"/><path id="rect15066" d="M11 12h3v1h-3z" style="fill:#faf7f5;fill-rule:evenodd;stroke:none;stroke-linecap:round;stroke-linejoin:round;stop-color:#201913"/></svg>