<svg xmlns="http://www.w3.org/2000/svg" id="svg1" width="16" height="16" version="1.1"><style id="s0">.base{fill:#201913}.success{fill:#a88567}.warning{fill:#87694e}.error{fill:#bea48d}</style><g id="g0"><path id="rect10360" d="M2 1c-.554 0-1 .446-1 1v3c0 .554.446 1 1 1h3c.554 0 1-.446 1-1V2c0-.554-.446-1-1-1H2zm0 1h3v3H2V2z" style="fill:#faf7f5;stroke-linecap:round;stroke-linejoin:round;stop-color:#201913"/><path id="path10365" d="M11 1c-.554 0-1 .446-1 1v3c0 .554.446 1 1 1h3c.554 0 1-.446 1-1V2c0-.554-.446-1-1-1Zm0 1h3v3h-3z" style="fill:#faf7f5;stroke-linecap:round;stroke-linejoin:round;stop-color:#201913"/><path id="path10367" d="M2 10c-.554 0-1 .446-1 1v3c0 .554.446 1 1 1h3c.554 0 1-.446 1-1v-3c0-.554-.446-1-1-1Zm0 1h3v3H2Z" style="fill:#faf7f5;stroke-linecap:round;stroke-linejoin:round;stop-color:#201913"/><path id="path10369" d="M11 10c-.554 0-1 .446-1 1v3c0 .554.446 1 1 1h3c.554 0 1-.446 1-1v-3c0-.554-.446-1-1-1zm0 1h3v3h-3z" style="fill:#faf7f5;stroke-linecap:round;stroke-linejoin:round;stop-color:#201913"/><path id="rect10371" d="M3 5h1v6H3z" style="fill:#faf7f5;stroke-linecap:round;stroke-linejoin:round;stop-color:#201913"/><path id="rect10373" d="M5 3h6v1H5z" style="fill:#faf7f5;stroke-linecap:round;stroke-linejoin:round;stop-color:#201913"/><path id="rect10375" d="M12 5h1v6h-1z" style="fill:#faf7f5;stroke-linecap:round;stroke-linejoin:round;stop-color:#201913"/><path id="rect10377" d="M5 12h6v1H5z" style="fill:#faf7f5;stroke-linecap:round;stroke-linejoin:round;stop-color:#201913"/></g></svg>