<svg xmlns="http://www.w3.org/2000/svg" id="svg1" width="16" height="16" version="1.1"><style id="s0">.base{fill:#201913}.success{fill:#a88567}.warning{fill:#87694e}.error{fill:#bea48d}</style><g id="g0"><path id="path11103" d="M8 1a2 2 0 0 0-2 2 2 2 0 0 0 2 2 2 2 0 0 0 2-2 2 2 0 0 0-2-2zm0 1a1 1 0 0 1 1 1 1 1 0 0 1-1 1 1 1 0 0 1-1-1 1 1 0 0 1 1-1z" style="fill:#faf7f5;stroke-linecap:round;stroke-linejoin:round;stop-color:#201913"/><path id="rect11108" d="M7.5 4h1v10h-1z" style="fill:#faf7f5;stroke-width:.953463;stroke-linecap:round;stroke-linejoin:round;stop-color:#201913"/><path id="rect11110" d="M5 6h6v1H5z" style="fill:#faf7f5;stroke-linecap:round;stroke-linejoin:round;stop-color:#201913"/><path id="path11112" d="M1 8a7 7 0 0 0 7 7 7 7 0 0 0 7-7h-1a6 6 0 0 1-6 6 6 6 0 0 1-6-6H1z" style="fill:#faf7f5;stroke-linecap:round;stroke-linejoin:round;stop-color:#201913"/><path id="rect11120" d="M4.866 5.428h4v1h-4z" style="fill:#faf7f5;stroke-linecap:round;stroke-linejoin:round;stop-color:#201913" transform="rotate(30)"/><path id="rect11122" d="M-8.99 13.428h4v1h-4z" style="fill:#faf7f5;stroke-linecap:round;stroke-linejoin:round;stop-color:#201913" transform="scale(-1 1) rotate(30)"/></g></svg>