<svg xmlns="http://www.w3.org/2000/svg" id="svg1" width="16" height="16" version="1.1"><style id="s0">.base{fill:#201913}.success{fill:#a88567}.warning{fill:#87694e}.error{fill:#bea48d}</style><g id="g0"><path id="rect12217" d="M3 1c-1.108 0-2 .892-2 2v10c0 1.108.892 2 2 2h10c1.108 0 2-.892 2-2V3c0-1.108-.892-2-2-2H3zm0 1h10c.554 0 1 .446 1 1v10c0 .554-.446 1-1 1H3c-.554 0-1-.446-1-1V3c0-.554.446-1 1-1z" style="fill:#faf7f5;stroke:none;stroke-width:2;stroke-linecap:round;stroke-linejoin:round;stop-color:#201913"/></g></svg>