<svg xmlns="http://www.w3.org/2000/svg" width="16" height="16"><circle cx="3.5" cy="1.5" r=".5" style="fill:#faf7f5;fill-rule:evenodd;stroke-linecap:round;stroke-linejoin:round;stop-color:#201913"/><circle cx="3.5" cy="14.5" r=".5" style="fill:#faf7f5;fill-rule:evenodd;stroke-linecap:round;stroke-linejoin:round;stop-color:#201913"/><path d="M8 1v1a6 6 0 0 1 6 6 6 6 0 0 1-6 6v1a7 7 0 0 0 7-7 7 7 0 0 0-7-7z" style="fill:#faf7f5;fill-rule:evenodd;stroke-linecap:round;stroke-linejoin:round;stop-color:#201913"/><rect width="3" height="1" x="5" y="1" rx="0" ry="0" style="fill:#faf7f5;fill-rule:evenodd;stroke-linecap:round;stroke-linejoin:round;stop-color:#201913"/><rect width="3" height="1" x="5" y="14" rx="0" ry="0" style="fill:#faf7f5;fill-rule:evenodd;stroke-linecap:round;stroke-linejoin:round;stop-color:#201913"/><path d="M4.35 4.654 2 7l2 2-1.646 1.646.707.708L5.414 9l-2-2 1.643-1.637Z" style="color:#201913;fill:#faf7f5;fill-opacity:1;-inkscape-stroke:none"/></svg>